<?xml version="1.0" encoding="utf-8"?>
<svg version="1.1" id="Layer_1" xmlns="http://www.w3.org/2000/svg" xmlns:xlink="http://www.w3.org/1999/xlink" x="0px" y="0px" viewBox="0 0 130 130" style="enable-background:new 0 0 130 130;" xml:space="preserve">
	<style type="text/css">
		.st0{fill: #ffffff; stroke-width: 0;}
		.st1{fill: none; stroke: #ffffff; stroke-width: 0.1;}
		.st2{fill: none; stroke: #ffffff; stroke-width: 0.5;}
	</style>
	<g class="polygons">
		<polygon points="77,89 43.6,77.9 75,35"/>
		<polygon points="85,45 65,35 35,55"/>
		<polygon points="55,55 35,35 65,5"/>
		<polygon points="77.9,43.6 65,5 95,35"/>
		<polygon points="53,41 65,5 90.7,47.9"/>
		<polygon points="78.3,61.7 95,35 125,65"/>
		<polygon points="55,75 35,35 83,59"/>
		<polygon points="53,41 5,65 35,35"/>
		<polygon points="47.9,39.3 5,65 47,71"/>
		<polygon points="50,50 65,65 95,35"/>
		<polygon points="80,80 35,65 95,50"/>
		<polygon points="85,85 35,95 47,59"/>
		<polygon points="65,125 47,71 83,89"/>
		<polygon points="86.4,69.3 125,65 95,80"/>
		<polygon points="89,47 125,65 95,95"/>
		<polygon points="95,50 95,95 72.5,42.5"/>
		<polygon points="95,95 85,45 65,93.5"/>
		<polygon points="35,95 72.3,76.3 65,125"/>
		<polygon points="35,75 45,45 5,65"/>
		<polygon points="65,125 95,95 45,85"/>
		<polygon points="35,95 5,65 55,55"/>
	</g>
	<g>
		<line class="st1" x1="5" y1="65" x2="35" y2="35"/>
		<line class="st1" x1="35" y1="35" x2="65" y2="5"/>
		<line class="st1" x1="65" y1="5" x2="95" y2="35"/>
		<line class="st1" x1="95" y1="35" x2="125" y2="65"/>
		<line class="st1" x1="125" y1="65" x2="95" y2="95"/>
		<line class="st1" x1="95" y1="95" x2="65" y2="125"/>
		<line class="st1" x1="65" y1="125" x2="35" y2="95"/>
		<line class="st1" x1="35" y1="95" x2="5" y2="65"/>
		<line class="st1" x1="5" y1="65" x2="35" y2="65"/>
		<line class="st1" x1="35" y1="65" x2="65" y2="65"/>
		<line class="st1" x1="65" y1="65" x2="95" y2="65"/>
		<line class="st1" x1="95" y1="65" x2="125" y2="65"/>
		<line class="st1" x1="95" y1="65" x2="65" y2="95"/>
		<line class="st1" x1="65" y1="95" x2="95" y2="95"/>
		<line class="st1" x1="65" y1="95" x2="65" y2="125"/>
		<line class="st1" x1="65" y1="95" x2="35" y2="95"/>
		<line class="st1" x1="35" y1="65" x2="65" y2="95"/>
		<line class="st1" x1="35" y1="95" x2="65" y2="65"/>
		<line class="st1" x1="65" y1="65" x2="95" y2="95"/>
		<line class="st1" x1="35" y1="65" x2="65" y2="35"/>
		<line class="st1" x1="65" y1="35" x2="95" y2="65"/>
		<line class="st1" x1="65" y1="35" x2="35" y2="35"/>
		<line class="st1" x1="65" y1="35" x2="65" y2="5"/>
		<line class="st1" x1="65" y1="35" x2="95" y2="35"/>
		<line class="st1" x1="95" y1="65" x2="65" y2="5"/>
		<line class="st1" x1="65" y1="5" x2="35" y2="65"/>
		<line class="st1" x1="35" y1="65" x2="65" y2="125"/>
		<line class="st1" x1="65" y1="125" x2="95" y2="65"/>
		<line class="st1" x1="65" y1="95" x2="125" y2="65"/>
		<line class="st1" x1="125" y1="65" x2="65" y2="35"/>
		<line class="st1" x1="65" y1="35" x2="5" y2="65"/>
		<line class="st1" x1="5" y1="65" x2="65" y2="95"/>
		<line class="st1" x1="65" y1="35" x2="35" y2="95"/>
		<line class="st1" x1="65" y1="35" x2="95" y2="95"/>
		<line class="st1" x1="65" y1="95" x2="35" y2="35"/>
		<line class="st1" x1="95" y1="35" x2="65" y2="95"/>
		<line class="st1" x1="65" y1="65" x2="65" y2="35"/>
		<line class="st1" x1="65" y1="65" x2="65" y2="95"/>
		<line class="st1" x1="35" y1="65" x2="95" y2="35"/>
		<line class="st1" x1="35" y1="65" x2="95" y2="95"/>
		<line class="st1" x1="5" y1="65" x2="95" y2="35"/>
		<line class="st1" x1="5" y1="65" x2="95" y2="95"/>
		<line class="st1" x1="65" y1="125" x2="35" y2="35"/>
		<line class="st1" x1="95" y1="35" x2="65" y2="125"/>
		<line class="st1" x1="125" y1="65" x2="35" y2="35"/>
		<line class="st1" x1="125" y1="65" x2="35" y2="95"/>
		<line class="st1" x1="65" y1="5" x2="35" y2="95"/>
		<line class="st1" x1="65" y1="5" x2="95" y2="95"/>
		<line class="st1" x1="95" y1="65" x2="35" y2="35"/>
		<line class="st1" x1="95" y1="65" x2="35" y2="95"/>
		<circle class="st0" cx="65" cy="35" r="1"/>
		<circle class="st0" cx="65" cy="5" r="1"/>
		<circle class="st0" cx="65" cy="95" r="1"/>
		<circle class="st0" cx="65" cy="125" r="1"/>
		<circle class="st0" cx="125" cy="65" r="1"/>
		<circle class="st0" cx="5" cy="65" r="1"/>
	</g>
	<g>
		<line class="st2" x1="35" y1="95" x2="35" y2="65"/>
		<line class="st2" x1="35" y1="65" x2="35" y2="35"/>
		<line class="st2" x1="35" y1="35" x2="65" y2="65"/>
		<line class="st2" x1="65" y1="65" x2="95" y2="35"/>
		<line class="st2" x1="95" y1="35" x2="95" y2="65"/>
		<line class="st2" x1="95" y1="65" x2="95" y2="95"/>
		<circle class="st0" cx="65" cy="65" r="1.5"/>
		<circle class="st0" cx="35" cy="35" r="1.5"/>
		<circle class="st0" cx="35" cy="65" r="1.5"/>
		<circle class="st0" cx="35" cy="95" r="1.5"/>
		<circle class="st0" cx="95" cy="35" r="1.5"/>
		<circle class="st0" cx="95" cy="65" r="1.5"/>
		<circle class="st0" cx="95" cy="95" r="1.5"/>
	</g>
</svg>