<svg xmlns="http://www.w3.org/2000/svg" width="0" height="0" style="display: none;">
    <symbol id="svg-logo-black" viewBox="0 0 53 53" aria-labelledby="Mindmaps Research Ltd">
        <value>Mindmaps Research Ltd</value>
        <desc>better than architecture</desc>
        <g>
            <line class="stroke-gray4c" x1="4.5" y1="26.5" x2="15.5" y2="15.5"/>
            <line class="stroke-gray4c" x1="15.5" y1="15.5" x2="26.5" y2="4.5"/>
            <line class="stroke-gray4c" x1="26.5" y1="4.5" x2="37.5" y2="15.5"/>
            <line class="stroke-gray4c" x1="37.5" y1="15.5" x2="48.5" y2="26.5"/>
            <line class="stroke-gray4c" x1="48.5" y1="26.5" x2="37.5" y2="37.5"/>
            <line class="stroke-gray4c" x1="37.5" y1="37.5" x2="26.5" y2="48.5"/>
            <line class="stroke-gray4c" x1="26.5" y1="48.5" x2="15.5" y2="37.5"/>
            <line class="stroke-gray4c" x1="15.5" y1="37.5" x2="4.5" y2="26.5"/>
            <line class="stroke-gray4c" x1="4.5" y1="26.5" x2="15.5" y2="26.5"/>
            <line class="stroke-gray4c" x1="15.5" y1="26.5" x2="26.5" y2="26.5"/>
            <line class="stroke-gray4c" x1="26.5" y1="26.5" x2="37.5" y2="26.5"/>
            <line class="stroke-gray4c" x1="37.5" y1="26.5" x2="48.5" y2="26.5"/>
            <line class="stroke-gray4c" x1="37.5" y1="26.5" x2="26.5" y2="37.5"/>
            <line class="stroke-gray4c" x1="26.5" y1="37.5" x2="37.5" y2="37.5"/>
            <line class="stroke-gray4c" x1="26.5" y1="37.5" x2="26.5" y2="48.5"/>
            <line class="stroke-gray4c" x1="26.5" y1="37.5" x2="15.5" y2="37.5"/>
            <line class="stroke-gray4c" x1="15.5" y1="26.5" x2="26.5" y2="37.5"/>
            <line class="stroke-gray4c" x1="15.5" y1="37.5" x2="26.5" y2="26.5"/>
            <line class="stroke-gray4c" x1="26.5" y1="26.5" x2="37.5" y2="37.5"/>
            <line class="stroke-gray4c" x1="15.5" y1="26.5" x2="26.5" y2="15.5"/>
            <line class="stroke-gray4c" x1="26.5" y1="15.5" x2="37.5" y2="26.5"/>
            <line class="stroke-gray4c" x1="26.5" y1="15.5" x2="15.5" y2="15.5"/>
            <line class="stroke-gray4c" x1="26.5" y1="15.5" x2="26.5" y2="4.5"/>
            <line class="stroke-gray4c" x1="26.5" y1="15.5" x2="37.5" y2="15.5"/>
            <line class="stroke-gray4c" x1="37.5" y1="26.5" x2="26.5" y2="4.5"/>
            <line class="stroke-gray4c" x1="26.5" y1="4.5" x2="15.5" y2="26.5"/>
            <line class="stroke-gray4c" x1="15.5" y1="26.5" x2="26.5" y2="48.5"/>
            <line class="stroke-gray4c" x1="26.5" y1="48.5" x2="37.5" y2="26.5"/>
            <line class="stroke-gray4c" x1="26.5" y1="37.5" x2="48.5" y2="26.5"/>
            <line class="stroke-gray4c" x1="48.5" y1="26.5" x2="26.5" y2="15.5"/>
            <line class="stroke-gray4c" x1="26.5" y1="15.5" x2="4.5" y2="26.5"/>
            <line class="stroke-gray4c" x1="4.5" y1="26.5" x2="26.5" y2="37.5"/>
            <line class="stroke-gray4c" x1="26.5" y1="15.5" x2="15.5" y2="37.5"/>
            <line class="stroke-gray4c" x1="26.5" y1="15.5" x2="37.5" y2="37.5"/>
            <line class="stroke-gray4c" x1="26.5" y1="37.5" x2="15.5" y2="15.5"/>
            <line class="stroke-gray4c" x1="37.5" y1="15.5" x2="26.5" y2="37.5"/>
            <line class="stroke-gray4c" x1="26.5" y1="26.5" x2="26.5" y2="15.5"/>
            <line class="stroke-gray4c" x1="26.5" y1="26.5" x2="26.5" y2="37.5"/>
            <line class="stroke-gray4c" x1="15.5" y1="26.5" x2="37.5" y2="15.5"/>
            <line class="stroke-gray4c" x1="15.5" y1="26.5" x2="37.5" y2="37.5"/>
            <line class="stroke-gray4c" x1="4.5" y1="26.5" x2="37.5" y2="15.5"/>
            <line class="stroke-gray4c" x1="4.5" y1="26.5" x2="37.5" y2="37.5"/>
            <line class="stroke-gray4c" x1="26.5" y1="48.5" x2="15.5" y2="15.5"/>
            <line class="stroke-gray4c" x1="37.5" y1="15.5" x2="26.5" y2="48.5"/>
            <line class="stroke-gray4c" x1="48.5" y1="26.5" x2="15.5" y2="15.5"/>
            <line class="stroke-gray4c" x1="48.5" y1="26.5" x2="15.5" y2="37.5"/>
            <line class="stroke-gray4c" x1="26.5" y1="4.5" x2="15.5" y2="37.5"/>
            <line class="stroke-gray4c" x1="26.5" y1="4.5" x2="37.5" y2="37.5"/>
            <line class="stroke-gray4c" x1="37.5" y1="26.5" x2="15.5" y2="15.5"/>
            <line class="stroke-gray4c" x1="37.5" y1="26.5" x2="15.5" y2="37.5"/>
        </g>
        <g>
            <circle class="stroke-gray4c" cx="26.5" cy="15.5" r="0.4"/>
            <circle class="stroke-gray4c" cx="26.5" cy="4.5" r="0.4"/>
            <circle class="stroke-gray4c" cx="26.5" cy="37.5" r="0.4"/>
            <circle class="stroke-gray4c" cx="26.5" cy="48.5" r="0.4"/>
            <circle class="stroke-gray4c" cx="48.5" cy="26.5" r="0.4"/>
            <circle class="stroke-gray4c" cx="4.5" cy="26.5" r="0.4"/>
        </g>
        <g>
            <line class="stroke-blackc" x1="15.5" y1="37.5" x2="15.5" y2="26.5"/>
            <line class="stroke-blackc" x1="15.5" y1="26.5" x2="15.5" y2="15.5"/>
            <line class="stroke-blackc" x1="15.5" y1="15.5" x2="26.5" y2="26.5"/>
            <line class="stroke-blackc" x1="26.5" y1="26.5" x2="37.5" y2="15.5"/>
            <line class="stroke-blackc" x1="37.5" y1="15.5" x2="37.5" y2="26.5"/>
            <line class="stroke-blackc" x1="37.5" y1="26.5" x2="37.5" y2="37.5"/>
        </g>
        <g>
            <circle class="stroke-blackc" cx="26.5" cy="26.5" r="0.4"/>
            <circle class="stroke-blackc" cx="15.5" cy="15.5" r="0.4"/>
            <circle class="stroke-blackc" cx="15.5" cy="26.5" r="0.4"/>
            <circle class="stroke-blackc" cx="15.5" cy="37.5" r="0.4"/>
            <circle class="stroke-blackc" cx="37.5" cy="15.5" r="0.4"/>
            <circle class="stroke-blackc" cx="37.5" cy="26.5" r="0.4"/>
            <circle class="stroke-blackc" cx="37.5" cy="37.5" r="0.4"/>
        </g>
    </symbol>

    <symbol id="svg-logo-white" viewBox="0 0 53 53" aria-labelledby="Mindmaps Research Ltd">
        <value>Mindmaps Research Ltd</value>
        <desc>better than architecture</desc>
        <g>
            <line class="stroke-thinWhite" x1="4.5" y1="26.5" x2="15.5" y2="15.5"/>
            <line class="stroke-thinWhite" x1="15.5" y1="15.5" x2="26.5" y2="4.5"/>
            <line class="stroke-thinWhite" x1="26.5" y1="4.5" x2="37.5" y2="15.5"/>
            <line class="stroke-thinWhite" x1="37.5" y1="15.5" x2="48.5" y2="26.5"/>
            <line class="stroke-thinWhite" x1="48.5" y1="26.5" x2="37.5" y2="37.5"/>
            <line class="stroke-thinWhite" x1="37.5" y1="37.5" x2="26.5" y2="48.5"/>
            <line class="stroke-thinWhite" x1="26.5" y1="48.5" x2="15.5" y2="37.5"/>
            <line class="stroke-thinWhite" x1="15.5" y1="37.5" x2="4.5" y2="26.5"/>
            <line class="stroke-thinWhite" x1="4.5" y1="26.5" x2="15.5" y2="26.5"/>
            <line class="stroke-thinWhite" x1="15.5" y1="26.5" x2="26.5" y2="26.5"/>
            <line class="stroke-thinWhite" x1="26.5" y1="26.5" x2="37.5" y2="26.5"/>
            <line class="stroke-thinWhite" x1="37.5" y1="26.5" x2="48.5" y2="26.5"/>
            <line class="stroke-thinWhite" x1="37.5" y1="26.5" x2="26.5" y2="37.5"/>
            <line class="stroke-thinWhite" x1="26.5" y1="37.5" x2="37.5" y2="37.5"/>
            <line class="stroke-thinWhite" x1="26.5" y1="37.5" x2="26.5" y2="48.5"/>
            <line class="stroke-thinWhite" x1="26.5" y1="37.5" x2="15.5" y2="37.5"/>
            <line class="stroke-thinWhite" x1="15.5" y1="26.5" x2="26.5" y2="37.5"/>
            <line class="stroke-thinWhite" x1="15.5" y1="37.5" x2="26.5" y2="26.5"/>
            <line class="stroke-thinWhite" x1="26.5" y1="26.5" x2="37.5" y2="37.5"/>
            <line class="stroke-thinWhite" x1="15.5" y1="26.5" x2="26.5" y2="15.5"/>
            <line class="stroke-thinWhite" x1="26.5" y1="15.5" x2="37.5" y2="26.5"/>
            <line class="stroke-thinWhite" x1="26.5" y1="15.5" x2="15.5" y2="15.5"/>
            <line class="stroke-thinWhite" x1="26.5" y1="15.5" x2="26.5" y2="4.5"/>
            <line class="stroke-thinWhite" x1="26.5" y1="15.5" x2="37.5" y2="15.5"/>
            <line class="stroke-thinWhite" x1="37.5" y1="26.5" x2="26.5" y2="4.5"/>
            <line class="stroke-thinWhite" x1="26.5" y1="4.5" x2="15.5" y2="26.5"/>
            <line class="stroke-thinWhite" x1="15.5" y1="26.5" x2="26.5" y2="48.5"/>
            <line class="stroke-thinWhite" x1="26.5" y1="48.5" x2="37.5" y2="26.5"/>
            <line class="stroke-thinWhite" x1="26.5" y1="37.5" x2="48.5" y2="26.5"/>
            <line class="stroke-thinWhite" x1="48.5" y1="26.5" x2="26.5" y2="15.5"/>
            <line class="stroke-thinWhite" x1="26.5" y1="15.5" x2="4.5" y2="26.5"/>
            <line class="stroke-thinWhite" x1="4.5" y1="26.5" x2="26.5" y2="37.5"/>
            <line class="stroke-thinWhite" x1="26.5" y1="15.5" x2="15.5" y2="37.5"/>
            <line class="stroke-thinWhite" x1="26.5" y1="15.5" x2="37.5" y2="37.5"/>
            <line class="stroke-thinWhite" x1="26.5" y1="37.5" x2="15.5" y2="15.5"/>
            <line class="stroke-thinWhite" x1="37.5" y1="15.5" x2="26.5" y2="37.5"/>
            <line class="stroke-thinWhite" x1="26.5" y1="26.5" x2="26.5" y2="15.5"/>
            <line class="stroke-thinWhite" x1="26.5" y1="26.5" x2="26.5" y2="37.5"/>
            <line class="stroke-thinWhite" x1="15.5" y1="26.5" x2="37.5" y2="15.5"/>
            <line class="stroke-thinWhite" x1="15.5" y1="26.5" x2="37.5" y2="37.5"/>
            <line class="stroke-thinWhite" x1="4.5" y1="26.5" x2="37.5" y2="15.5"/>
            <line class="stroke-thinWhite" x1="4.5" y1="26.5" x2="37.5" y2="37.5"/>
            <line class="stroke-thinWhite" x1="26.5" y1="48.5" x2="15.5" y2="15.5"/>
            <line class="stroke-thinWhite" x1="37.5" y1="15.5" x2="26.5" y2="48.5"/>
            <line class="stroke-thinWhite" x1="48.5" y1="26.5" x2="15.5" y2="15.5"/>
            <line class="stroke-thinWhite" x1="48.5" y1="26.5" x2="15.5" y2="37.5"/>
            <line class="stroke-thinWhite" x1="26.5" y1="4.5" x2="15.5" y2="37.5"/>
            <line class="stroke-thinWhite" x1="26.5" y1="4.5" x2="37.5" y2="37.5"/>
            <line class="stroke-thinWhite" x1="37.5" y1="26.5" x2="15.5" y2="15.5"/>
            <line class="stroke-thinWhite" x1="37.5" y1="26.5" x2="15.5" y2="37.5"/>
        </g>
        <g>
            <circle class="stroke-thinWhite" cx="26.5" cy="15.5" r="0.4"/>
            <circle class="stroke-thinWhite" cx="26.5" cy="4.5" r="0.4"/>
            <circle class="stroke-thinWhite" cx="26.5" cy="37.5" r="0.4"/>
            <circle class="stroke-thinWhite" cx="26.5" cy="48.5" r="0.4"/>
            <circle class="stroke-thinWhite" cx="48.5" cy="26.5" r="0.4"/>
            <circle class="stroke-thinWhite" cx="4.5" cy="26.5" r="0.4"/>
        </g>
        <g>
            <line class="stroke-white" x1="15.5" y1="37.5" x2="15.5" y2="26.5"/>
            <line class="stroke-white" x1="15.5" y1="26.5" x2="15.5" y2="15.5"/>
            <line class="stroke-white" x1="15.5" y1="15.5" x2="26.5" y2="26.5"/>
            <line class="stroke-white" x1="26.5" y1="26.5" x2="37.5" y2="15.5"/>
            <line class="stroke-white" x1="37.5" y1="15.5" x2="37.5" y2="26.5"/>
            <line class="stroke-white" x1="37.5" y1="26.5" x2="37.5" y2="37.5"/>
        </g>
        <g>
            <circle class="stroke-white" cx="26.5" cy="26.5" r="0.4"/>
            <circle class="stroke-white" cx="15.5" cy="15.5" r="0.4"/>
            <circle class="stroke-white" cx="15.5" cy="26.5" r="0.4"/>
            <circle class="stroke-white" cx="15.5" cy="37.5" r="0.4"/>
            <circle class="stroke-white" cx="37.5" cy="15.5" r="0.4"/>
            <circle class="stroke-white" cx="37.5" cy="26.5" r="0.4"/>
            <circle class="stroke-white" cx="37.5" cy="37.5" r="0.4"/>
        </g>
    </symbol>

    <symbol id="icon-twitter" viewBox="0 0 20 20" aria-labelledby="Twitter">
        <value>Twitter</value>
        <desc>Twitter</desc>
        <path d="M19.4,2.2c-0.8,0.5-1.7,0.8-2.6,1c-0.7-0.8-1.8-1.3-3-1.3c-2.3,0-4.1,1.8-4.1,4.1c0,0.3,0,0.6,0.1,0.9C6.4,6.7,3.4,5.1,1.4,2.6C1,3.2,0.8,3.9,0.8,4.7c0,1.4,0.7,2.7,1.8,3.4C2,8.1,1.4,7.9,0.8,7.6c0,0,0,0,0,0.1c0,2,1.4,3.6,3.3,4c-0.3,0.1-0.7,0.1-1.1,0.1c-0.3,0-0.5,0-0.8-0.1c0.5,1.6,2,2.8,3.8,2.8c-1.4,1.1-3.2,1.8-5.1,1.8c-0.3,0-0.7,0-1-0.1c1.8,1.2,4,1.8,6.3,1.8c7.5,0,11.7-6.3,11.7-11.7c0-0.2,0-0.4,0-0.5c0.8-0.6,1.5-1.3,2-2.1c-0.7,0.3-1.5,0.5-2.4,0.6C18.5,3.9,19.1,3.1,19.4,2.2z"/>
    </symbol>
    <symbol id="icon-facebook" viewBox="0 0 20 20" aria-labelledby="Facebook">
        <value>Facebook</value>
        <desc>Facebook</desc>
        <path d="M7.5,20h3.7l0-10l3.4,0L15,6.6h-3.8l0-1.7c0-0.9,0.1-1.4,1.4-1.4H15V0h-3.4C8.3,0,7.5,1.7,7.5,4.5l0,2L5,6.6V10h2.5L7.5,20z"/>
    </symbol>
    <symbol id="icon-linkedIn" viewBox="0 0 20 20" aria-labelledby="LinkedIn">
        <value>LinkedIn</value>
        <desc>LinkedIn</desc>
        <path d="M1.3,5.3h4V20h-4V5.3z M13.4,5.3c-1.4,0-2.2,0.7-2.8,1.2V5.3h-4V20h4v-9.2c0,0-0.1-1.8,2.1-1.8c1.3,0,1.9,0.8,1.9,1.8V20h4.2v-9.1C18.8,5.9,14.7,5.3,13.4,5.3z M1.2,2c0,1.1,0.9,2,2,2s2-0.9,2-2s-0.9-2-2-2S1.2,0.9,1.2,2z"/>
    </symbol>

    <symbol id="icon-underlay" viewBox="0 0 22 22" aria-labelledby="Icon underlay">
        <polygon points="11,1 18.1,3.9 21,11 18.1,18.1 11,21 3.9,18.1 1,11 3.9,3.9"/>
    </symbol>

    <symbol id="icon-data" viewBox="0 0 13 14" aria-labelledby="Icon Data">
        <value>Icon</value>
        <desc>Data</desc>
        <line x1="5.2" y1="5.3" x2="3.9" y2="2.8"/>
        <line x1="10.3" y1="11.3" x2="7.4" y2="8.4"/>
        <line x1="4.6" y1="8.4" x2="2.7" y2="10.3"/>
        <polygon points="6,5 7.4,5.6 8,7 7.4,8.4 6,9 4.6,8.4 4,7 4.6,5.6"/>
        <polygon points="3.5,1 4.2,1.3 4.5,2 4.2,2.7 3.5,3 2.8,2.7 2.5,2 2.8,1.3"/>
        <polygon points="11,11 11.7,11.3 12,12 11.7,12.7 11,13 10.3,12.7 10,12 10.3,11.3"/>
        <polygon points="2,10 2.7,10.3 3,11 2.7,11.7 2,12 1.3,11.7 1,11 1.3,10.3"/>
    </symbol>
    <symbol id="icon-cog" viewBox="0 0 19 19" aria-labelledby="Icon Cog">
        <value>Icon</value>
        <desc>Cog</desc>
        <path d="M16.6,8.8l1.1-1.1l-1.4-3.2h-1.5l-0.7-0.7V2.4L10.9,1L9.8,2.1h-1L7.8,1L4.6,2.4v1.5L3.9,4.6H2.4L1,7.8l1.1,1.1
    v1L1,10.9l1.4,3.2h1.5l0.7,0.7v1.5l3.2,1.4h0l1.1-1.1h1l1.1,1.1l3.2-1.4v-1.5l0.7-0.7h1.5l1.4-3.2l-1.1-1.1V8.8z M10.7,10.7
    l-1.4,0.6l-1.4-0.6L7.3,9.3l0.6-1.4l1.4-0.6l1.4,0.6l0.6,1.4L10.7,10.7z"/>
    </symbol>
    <symbol id="icon-team" viewBox="0 0 20 20" aria-labelledby="Icon Team">
        <value>Icon</value>
        <desc>Team</desc>
        <polygon points="2.2,7.8 1,5 2.2,2.2 5,1 7.8,2.2 9,5 7.8,7.8 5,9"/>
        <polygon points="12.2,10.8 11,8 12.2,5.2 15,4 17.8,5.2 19,8 17.8,10.8 15,12"/>
        <polygon points="5.2,17.8 4,15 5.2,12.2 8,11 10.8,12.2 12,15 10.8,17.8 8,19"/>
    </symbol>
</svg>