<svg width="40" height="40" viewBox="0 0 40 40" fill="none" xmlns="http://www.w3.org/2000/svg">
<path fill-rule="evenodd" clip-rule="evenodd" d="M5.69415 3.33346H21.9588H21.9739H34.3059C35.6097 3.33346 36.6667 4.39046 36.6667 5.69426V34.3059C36.6667 35.6097 35.6097 36.6667 34.3059 36.6667H5.69415C4.39035 36.6667 3.33334 35.6097 3.33334 34.3059V5.69426C3.33334 4.39046 4.39035 3.33346 5.69415 3.33346ZM3.98694 5.69426V11.4695H18.3583L21.476 3.98705H5.69415C4.75132 3.98705 3.98694 4.75143 3.98694 5.69426ZM7.03795 7.72826C7.03795 7.34709 7.34699 7.03806 7.72816 7.03806C8.10933 7.03806 8.41837 7.34709 8.41837 7.72826C8.41837 8.10944 8.10933 8.41847 7.72816 8.41847C7.34699 8.41847 7.03795 8.10944 7.03795 7.72826ZM7.72816 6.38447C6.98602 6.38447 6.38436 6.98612 6.38436 7.72826C6.38436 8.47041 6.98602 9.07206 7.72816 9.07206C8.4703 9.07206 9.07196 8.47041 9.07196 7.72826C9.07196 6.98612 8.4703 6.38447 7.72816 6.38447ZM11.106 7.72826C11.106 7.34709 11.415 7.03806 11.7962 7.03806C12.1773 7.03806 12.4864 7.34709 12.4864 7.72826C12.4864 8.10944 12.1773 8.41847 11.7962 8.41847C11.415 8.41847 11.106 8.10944 11.106 7.72826ZM11.7962 6.38447C11.054 6.38447 10.4524 6.98612 10.4524 7.72826C10.4524 8.4704 11.054 9.07206 11.7962 9.07206C12.5383 9.07206 13.14 8.4704 13.14 7.72826C13.14 6.98612 12.5383 6.38447 11.7962 6.38447ZM15.174 7.72826C15.174 7.34709 15.483 7.03806 15.8642 7.03806C16.2454 7.03806 16.5544 7.34709 16.5544 7.72826C16.5544 8.10944 16.2454 8.41847 15.8642 8.41847C15.483 8.41847 15.174 8.10944 15.174 7.72826ZM15.8642 6.38447C15.1221 6.38447 14.5204 6.98612 14.5204 7.72826C14.5204 8.4704 15.122 9.07206 15.8642 9.07206C16.6063 9.07206 17.208 8.4704 17.208 7.72826C17.208 6.98612 16.6063 6.38447 15.8642 6.38447ZM18.5762 12.1231H3.98694V33.2929V34.1963V34.3059C3.98694 35.2487 4.75132 36.0131 5.69415 36.0131H9.67768H10.5724H34.3059C35.2487 36.0131 36.0131 35.2487 36.0131 34.3059V5.69426C36.0131 4.75143 35.2487 3.98705 34.3059 3.98705H22.1841L18.8779 11.922C18.8271 12.0437 18.7081 12.1231 18.5762 12.1231Z" fill="white"/>
<path d="M22.6339 19.3273C22.7506 19.123 22.6796 18.8628 22.4754 18.7461C22.2711 18.6294 22.0109 18.7004 21.8942 18.9047L17.2278 27.0723C17.1111 27.2766 17.1821 27.5367 17.3864 27.6534C17.5906 27.7701 17.8508 27.6992 17.9675 27.4949L22.6339 19.3273Z" fill="white"/>
<path d="M13.6899 19.412C13.8534 19.2428 13.8488 18.9732 13.6796 18.8097C13.5104 18.6462 13.2408 18.6508 13.0773 18.82L9.16883 22.8642C9.00927 23.0293 9.00928 23.2911 9.16883 23.4562L13.0773 27.5003C13.2408 27.6695 13.5104 27.6741 13.6796 27.5106C13.8488 27.3471 13.8534 27.0774 13.6899 26.9083L10.0675 23.1602L13.6899 19.412Z" fill="white"/>
<path d="M26.9432 18.82C26.7797 18.6508 26.5101 18.6462 26.3409 18.8097C26.1717 18.9732 26.1671 19.2428 26.3306 19.412L29.953 23.1602L26.3306 26.9083C26.1671 27.0774 26.1717 27.3471 26.3409 27.5106C26.5101 27.6741 26.7797 27.6695 26.9432 27.5003L30.8517 23.4562C31.0112 23.2911 31.0112 23.0293 30.8517 22.8642L26.9432 18.82Z" fill="white"/>
</svg>
