<svg width="24" height="24" viewBox="0 0 24 24" fill="none" xmlns="http://www.w3.org/2000/svg">
<path fill-rule="evenodd" clip-rule="evenodd" d="M2 6.70024C2 6.38182 2.2728 6.12349 2.60906 6.12349H3.75948C3.87562 6.12349 3.96977 6.21265 3.96977 6.32263C3.96977 6.43261 3.87562 6.52177 3.75948 6.52177H2.60906C2.50508 6.52177 2.42059 6.60178 2.42059 6.70024V17.3326C2.42059 17.431 2.50508 17.511 2.60906 17.511H9.79351C9.90966 17.511 10.0038 17.6002 10.0038 17.7102C10.0038 17.8202 9.90966 17.9093 9.79351 17.9093H2.60906C2.2728 17.9093 2 17.651 2 17.3326V6.70024Z" fill="white"/>
<path fill-rule="evenodd" clip-rule="evenodd" d="M11.7365 17.7102C11.7365 17.6002 11.8306 17.5111 11.9468 17.5111H19.6866C19.8027 17.5111 19.8969 17.6002 19.8969 17.7102C19.8969 17.8202 19.8027 17.9093 19.6866 17.9093H11.9468C11.8306 17.9093 11.7365 17.8202 11.7365 17.7102Z" fill="white"/>
<path fill-rule="evenodd" clip-rule="evenodd" d="M19.7647 6.32269C19.7647 6.21271 19.8588 6.12355 19.9749 6.12355H21.3909C21.7273 6.12355 22 6.38176 22 6.7003V17.3326C22 17.6512 21.7273 17.9094 21.3909 17.9094H19.2902C19.1741 17.9094 19.0799 17.8202 19.0799 17.7102C19.0799 17.6003 19.1741 17.5111 19.2902 17.5111H21.3909C21.495 17.5111 21.5794 17.4312 21.5794 17.3326V6.7003C21.5794 6.60173 21.495 6.52183 21.3909 6.52183H19.9749C19.8588 6.52183 19.7647 6.43268 19.7647 6.32269Z" fill="white"/>
<path fill-rule="evenodd" clip-rule="evenodd" d="M4.12592 5.17531C5.0112 5.01944 7.55008 4.70416 9.95607 5.67812C10.6153 5.94473 11.2648 6.30829 11.8672 6.79838C14.6718 4.51644 18.4914 4.97853 19.6085 5.17531C19.8973 5.2262 20.1053 5.46532 20.1053 5.74229V15.5899C20.1053 15.9463 19.7676 16.2185 19.3955 16.159C18.1254 15.9546 14.5629 15.635 12.0084 17.8265C11.9223 17.9003 11.7893 17.8941 11.7114 17.8126C11.6334 17.7311 11.6399 17.6051 11.726 17.5313C14.4359 15.2065 18.1782 15.5591 19.4657 15.7663C19.5801 15.7846 19.6847 15.701 19.6847 15.5899V5.74229C19.6847 5.656 19.62 5.58245 19.5316 5.56688C18.4082 5.36899 14.6642 4.9334 12.0084 7.21151C11.9283 7.28024 11.8062 7.28024 11.726 7.21151C11.1226 6.69392 10.4635 6.31642 9.79081 6.04437C7.50103 5.11746 5.06335 5.41537 4.20283 5.56688M4.12592 5.17531C3.83709 5.2262 3.62908 5.46532 3.62908 5.74229L4.12592 5.17531ZM4.20283 5.56688C4.18683 5.5697 4.17161 5.57442 4.15741 5.58076C4.09312 5.6095 4.04967 5.67162 4.04967 5.74229V15.5899C4.04967 15.7009 4.15487 15.7845 4.26886 15.7663C5.25683 15.6074 7.65643 15.368 9.94048 16.2868C10.0474 16.3298 10.0972 16.4467 10.0518 16.5479C10.0064 16.6492 9.88294 16.6964 9.77604 16.6534C7.60302 15.7793 5.30001 16.0044 4.33915 16.159C3.96745 16.2185 3.62908 15.9464 3.62908 15.5899V5.74229" fill="white"/>
<path fill-rule="evenodd" clip-rule="evenodd" d="M11.8672 6.96292C11.9833 6.96292 12.0775 7.05208 12.0775 7.16206V17.5284C12.0775 17.6383 11.9833 17.7275 11.8672 17.7275C11.751 17.7275 11.6569 17.6383 11.6569 17.5284V7.16206C11.6569 7.05208 11.751 6.96292 11.8672 6.96292Z" fill="white"/>
<path fill-rule="evenodd" clip-rule="evenodd" d="M9.87307 5.73758C9.98921 5.73758 10.0834 5.82674 10.0834 5.93672V19.5881L10.7291 19.0362C10.8091 18.9677 10.9308 18.9677 11.0109 19.0362L11.6566 19.5881V7.06388C11.6566 6.9539 11.7507 6.86474 11.8669 6.86474C11.983 6.86474 12.0772 6.9539 12.0772 7.06388V19.6114C12.0772 19.9478 11.6565 20.1241 11.3932 19.8995L10.87 19.4523L10.347 19.8993C10.347 19.8993 10.347 19.8993 10.347 19.8993C10.0839 20.1244 9.66278 19.9476 9.66278 19.6114V5.93672C9.66278 5.82674 9.75693 5.73758 9.87307 5.73758Z" fill="white"/>
<path d="M4.20283 5.56688L4.12592 5.17531L3.62908 5.74229L4.15741 5.58076C4.17161 5.57442 4.18683 5.5697 4.20283 5.56688Z" fill="white"/>
</svg>
