<svg width="48" height="48" viewBox="0 0 48 48" fill="none" xmlns="http://www.w3.org/2000/svg">
<path fill-rule="evenodd" clip-rule="evenodd" d="M9 16.8597C9 8.65294 15.7157 2 24 2C32.2843 2 39 8.65294 39 16.8598C39 21.1213 37.1884 24.9637 34.2879 27.6726C32.3083 29.5215 31.2054 32.1143 31.2054 34.8149V38.2994C31.2054 39.5676 30.1676 40.5957 28.8875 40.5957H28.8783L28.2939 44.0801C28.1081 45.1879 27.1408 46 26.0073 46H21.9927C20.8592 46 19.8919 45.1879 19.7061 44.0801L19.1217 40.5957H19.1124C17.8323 40.5957 16.7945 39.5676 16.7945 38.2994V34.8149C16.7945 32.1143 15.6916 29.5214 13.712 27.6726C10.8116 24.9636 9 21.1212 9 16.8597ZM19.9049 40.5957L20.4683 43.9547C20.5922 44.6932 21.237 45.2346 21.9927 45.2346H26.0073C26.763 45.2346 27.4078 44.6932 27.5317 43.9547L28.0951 40.5957H19.9049ZM24 2.76543C16.1424 2.76543 9.77265 9.07568 9.77265 16.8597C9.77265 20.9017 11.4899 24.5453 14.242 27.1156C16.2863 29.0249 17.4609 31.6645 17.5603 34.4322H30.4396C30.539 31.6645 31.7136 29.025 33.7579 27.1156C36.51 24.5454 38.2274 20.9018 38.2274 16.8598C38.2274 9.07568 31.8576 2.76543 24 2.76543ZM30.4328 35.1976H17.5672V38.2994C17.5672 39.1449 18.259 39.8302 19.1124 39.8302H28.8875C29.7409 39.8302 30.4328 39.1449 30.4328 38.2994V35.1976ZM20.833 22.6823L26.4667 10.7138L27.167 11.0373L21.5333 23.0058L20.833 22.6823ZM18.9867 12.3836L19.5331 12.9249L15.5607 16.8599L19.5331 20.7955L18.9867 21.3367L14.468 16.8598L18.9867 12.3836ZM29.0133 12.3836L33.532 16.8604L29.0133 21.3367L28.4669 20.7954L32.4393 16.8604L28.4669 12.9249L29.0133 12.3836Z" fill="white"/>
</svg>
