<svg width="40" height="40" viewBox="0 0 40 40" fill="none" xmlns="http://www.w3.org/2000/svg">
<path d="M29.0578 10.5174C29.2064 10.6245 29.5375 10.8525 29.6731 10.9082C30.0031 11.0578 30.3533 11.1328 30.7014 11.138C30.2246 10.7565 29.6323 10.5086 28.9843 10.4521C29.0083 10.4743 29.0328 10.4961 29.0578 10.5174Z" fill="white"/>
<path fill-rule="evenodd" clip-rule="evenodd" d="M15.0807 3.82467C16.5084 1.63953 19.4624 1.0093 21.6785 2.41704L29.0887 7.1242C29.1703 7.17602 29.2277 7.25768 29.2482 7.35121C29.2687 7.44474 29.2507 7.54247 29.1982 7.62292C28.6485 8.46421 28.8946 9.58565 29.7478 10.1276C30.601 10.6696 31.7384 10.427 32.288 9.58569C32.3975 9.41817 32.6239 9.36986 32.7938 9.47778L36.4989 11.8314C36.5805 11.8832 36.6379 11.9648 36.6584 12.0584C36.6789 12.1519 36.6609 12.2496 36.6084 12.3301L31.8345 19.6367C31.8207 19.6577 31.8052 19.6768 31.7881 19.694C31.584 20.5872 30.9862 21.3339 30.1834 21.7517C31.1828 22.2719 31.8645 23.3016 31.8645 24.4895V29.965C31.8645 31.6789 30.4453 33.0636 28.7005 33.0636L12.5759 33.0637L9.65916 37.5279C9.12649 38.3432 8.0243 38.5784 7.1974 38.0531L5.87152 37.2109C5.04464 36.6857 4.80615 35.5989 5.33885 34.7835L6.69395 32.7095C5.68757 32.1915 5 31.158 5 29.9651V24.4896C5 23.3017 5.68171 22.272 6.68107 21.7518C5.68171 21.2316 5 20.2019 5 19.014V13.5385C5 11.8246 6.41919 10.4399 8.164 10.4399L20.727 10.4399C20.8786 8.99385 20.2194 7.51811 18.8952 6.67697L15.1901 4.32339C15.1085 4.27157 15.0512 4.18991 15.0306 4.09638C15.0101 4.00285 15.0281 3.90511 15.0807 3.82467ZM35.795 12.2426L31.8645 18.2582L31.4174 18.9426L31.1327 18.7617L28.3058 16.966C28.7808 15.9466 28.5143 14.7323 27.6544 13.9978L29.4355 11.2718C29.2037 11.2001 28.9568 11.1614 28.7005 11.1614H28.6371L27.0392 13.607C26.0054 13.1386 24.7739 13.4014 24.0289 14.2492L20.9057 12.2652C21.101 11.9099 21.2452 11.5391 21.3403 11.1615C21.4004 10.9229 21.4409 10.6816 21.4623 10.4399C21.6112 8.75608 20.8327 7.04932 19.2916 6.07034L15.9078 3.9209C17.1793 2.31165 19.5095 1.89763 21.2822 3.02367L28.4065 7.54923C27.9453 8.53893 28.1831 9.7124 28.9843 10.4521C29.6323 10.5086 30.2246 10.7565 30.7014 11.138C31.4436 11.1492 32.1762 10.8432 32.6833 10.266L35.795 12.2426ZM8.16401 11.1615L20.5818 11.1615C20.4752 11.5149 20.3166 11.8596 20.1039 12.1851L17.6667 15.9154L10.4473 15.9154V16.6371L17.1952 16.637L14.0891 21.391L8.16401 21.391C6.81806 21.391 5.73184 20.3241 5.73184 19.014V13.5385C5.73184 12.2284 6.81806 11.1615 8.16401 11.1615ZM14.9597 21.391L18.0658 16.637L18.5373 15.9154L20.521 12.8793L23.6109 14.842L22.9095 15.9154L22.4381 16.637L19.332 21.3909L18.8605 22.1126L15.7544 26.8665L15.2829 27.5881L12.1769 32.342L11.7054 33.0637L9.04392 37.1371C8.73013 37.6174 8.08084 37.7559 7.59373 37.4464L6.26786 36.6043C5.78076 36.2949 5.64027 35.6546 5.95408 35.1744L7.3936 32.9711L7.82001 32.3185L10.9107 27.5881L11.3822 26.8665L14.4882 22.1126L14.9597 21.391ZM24.4243 14.9295L23.7801 15.9154L26.3087 15.9154L26.3101 16.637L23.3086 16.637L20.2025 21.3909L28.7005 21.3909C29.8474 21.3909 30.8058 20.6163 31.0641 19.5765L27.6236 17.391C27.542 17.3392 27.4846 17.2575 27.4641 17.164C27.4436 17.0705 27.4616 16.9727 27.5141 16.8923C28.0638 16.051 27.8177 14.9296 26.9645 14.3876C26.1113 13.8456 24.9739 14.0882 24.4243 14.9295ZM19.7311 22.1126L16.625 26.8665L26.3087 26.8665L26.3101 27.5881L16.1535 27.5881L13.0474 32.342L28.7005 32.342C30.0465 32.342 31.1327 31.2752 31.1327 29.965V24.4895C31.1327 23.1794 30.0465 22.1125 28.7005 22.1125L19.7311 22.1126ZM10.4473 26.9649L7.09244 32.0996C6.28568 31.7121 5.73184 30.9006 5.73184 29.9651V24.4896C5.73184 23.1794 6.81806 22.1126 8.16401 22.1126L13.6177 22.1126L10.5116 26.8665H10.4473V26.9649Z" fill="white"/>
<path d="M29.6731 10.9082C29.5375 10.8525 29.2064 10.6245 29.0578 10.5174L28.6371 11.1614H28.7005C28.9568 11.1614 29.2037 11.2001 29.4355 11.2718L29.6731 10.9082Z" fill="white"/>
</svg>
