<svg width="40" height="40" viewBox="0 0 40 40" fill="none" xmlns="http://www.w3.org/2000/svg">
<path fill-rule="evenodd" clip-rule="evenodd" d="M10.8747 31.6537C10.8747 31.4821 11.0149 31.343 11.188 31.343H16.8053C16.9783 31.343 17.1186 31.4821 17.1186 31.6537C17.1186 31.8253 16.9783 31.9645 16.8053 31.9645H11.188C11.0149 31.9645 10.8747 31.8253 10.8747 31.6537Z" fill="white"/>
<path fill-rule="evenodd" clip-rule="evenodd" d="M22.8198 31.508C22.8198 31.3364 22.9601 31.1973 23.1332 31.1973H30.9661C31.1391 31.1973 31.2794 31.3364 31.2794 31.508C31.2794 31.6797 31.1391 31.8188 30.9661 31.8188H23.1332C22.9601 31.8188 22.8198 31.6797 22.8198 31.508Z" fill="white"/>
<path fill-rule="evenodd" clip-rule="evenodd" d="M8.25065 26.1376C6.80147 26.1376 5.62663 27.3029 5.62663 28.7403V34.2758C5.62663 35.7132 6.80147 36.8785 8.25065 36.8785H31.7493C33.1985 36.8785 34.3734 35.7132 34.3734 34.2758V28.7403C34.3734 27.3029 33.1985 26.1376 31.7493 26.1376H8.25065ZM5 28.7403C5 26.9596 6.4554 25.5161 8.25065 25.5161H31.7493C33.5446 25.5161 35 26.9596 35 28.7403V34.2758C35 36.0565 33.5446 37.5 31.7493 37.5H8.25065C6.4554 37.5 5 36.0565 5 34.2758V28.7403Z" fill="white"/>
<path fill-rule="evenodd" clip-rule="evenodd" d="M16.4919 31.508C16.4919 32.5547 17.3474 33.4032 18.4026 33.4032C19.4578 33.4032 20.3133 32.5547 20.3133 31.508C20.3133 30.4614 19.4578 29.6129 18.4026 29.6129C17.3474 29.6129 16.4919 30.4614 16.4919 31.508ZM18.4026 32.7816C17.6935 32.7816 17.1186 32.2114 17.1186 31.508C17.1186 30.8047 17.6935 30.2344 18.4026 30.2344C19.1118 30.2344 19.6867 30.8047 19.6867 31.508C19.6867 32.2114 19.1118 32.7816 18.4026 32.7816Z" fill="white"/>
<path fill-rule="evenodd" clip-rule="evenodd" d="M17.4837 19.124L24.5009 14.4839L24.9708 14.1731L24.5009 13.8624L17.4837 9.22232V13.8624V14.4839V19.124ZM18.1103 17.9626V14.4839V13.8624V10.3837L23.3712 13.8624L23.8412 14.1731L23.3712 14.4839L18.1103 17.9626Z" fill="white"/>
<path fill-rule="evenodd" clip-rule="evenodd" d="M10.8747 14.1731C10.8747 19.1719 14.9602 23.2242 20 23.2242C25.0398 23.2242 29.1253 19.1719 29.1253 14.1731C29.1253 9.17439 25.0398 5.12209 20 5.12209C14.9602 5.12209 10.8747 9.17439 10.8747 14.1731ZM20 22.6027C15.4112 22.6027 11.6718 18.9954 11.507 14.4839C11.5032 14.3808 11.5013 14.2772 11.5013 14.1731C11.5013 14.0691 11.5032 13.9655 11.507 13.8624C11.6718 9.35086 15.4112 5.74362 20 5.74362C24.5888 5.74362 28.3282 9.35086 28.493 13.8624C28.4968 13.9655 28.4987 14.0691 28.4987 14.1731C28.4987 14.2772 28.4968 14.3808 28.493 14.4839C28.3282 18.9954 24.5888 22.6027 20 22.6027Z" fill="white"/>
<path fill-rule="evenodd" clip-rule="evenodd" d="M5.62663 5.7242C5.62663 4.28681 6.80147 3.12153 8.25065 3.12153H31.7493C33.1985 3.12153 34.3734 4.28681 34.3734 5.7242V11.2597C34.3734 12.6971 33.1985 13.8624 31.7493 13.8624H28.493C28.4968 13.9655 28.4987 14.0691 28.4987 14.1731C28.4987 14.2772 28.4968 14.3808 28.493 14.4839H31.7493C33.1985 14.4839 34.3734 15.6492 34.3734 17.0866V22.9134C34.3734 24.3508 33.1985 25.5161 31.7493 25.5161H8.25065C6.80147 25.5161 5.62663 24.3508 5.62663 22.9134V17.0866C5.62663 15.6492 6.80147 14.4839 8.25065 14.4839H11.507C11.5032 14.3808 11.5013 14.2772 11.5013 14.1731C11.5013 14.0691 11.5032 13.9655 11.507 13.8624H8.25065C6.80147 13.8624 5.62663 12.6971 5.62663 11.2597V5.7242ZM24.5009 14.4839L24.9708 14.1731L24.5009 13.8624H23.3712L23.8412 14.1731L23.3712 14.4839H24.5009ZM17.4837 13.8624H18.1103V14.4839H17.4837V13.8624ZM6.8565 14.1731C5.75882 13.6555 5 12.5455 5 11.2597V5.7242C5 3.94355 6.4554 2.5 8.25065 2.5H31.7493C33.5446 2.5 35 3.94355 35 5.7242V11.2597C35 12.5455 34.2412 13.6555 33.1435 14.1731C34.2412 14.6908 35 15.8008 35 17.0866V22.9134C35 24.6941 33.5446 26.1376 31.7493 26.1376H8.25065C6.4554 26.1376 5 24.6941 5 22.9134V17.0866C5 15.8008 5.75882 14.6908 6.8565 14.1731Z" fill="white"/>
</svg>
