<svg width="24" height="24" viewBox="0 0 24 24" fill="none" xmlns="http://www.w3.org/2000/svg">
<path fill-rule="evenodd" clip-rule="evenodd" d="M12 2.43478C11.5767 2.43478 11.2332 2.77832 11.2332 3.20255C11.2332 3.62678 11.5767 3.97031 12 3.97031C12.4233 3.97031 12.7668 3.62678 12.7668 3.20255C12.7668 2.77832 12.4233 2.43478 12 2.43478ZM10.7984 3.20255C10.7984 2.53861 11.3362 2 12 2C12.6638 2 13.2016 2.53861 13.2016 3.20255C13.2016 3.79224 12.7774 4.28307 12.2174 4.38547V5.35697C13.8844 5.41072 15.3958 6.08034 16.5321 7.14591L17.4042 6.27296C17.2008 6.00492 17.0801 5.67061 17.0801 5.30814C17.0801 4.42657 17.7941 3.71153 18.6753 3.71153C19.5565 3.71153 20.2705 4.42657 20.2705 5.30814C20.2705 6.18972 19.5565 6.90475 18.6753 6.90475C18.3131 6.90475 17.9792 6.78398 17.7115 6.58051L16.8394 7.45349C17.9041 8.591 18.5731 10.1041 18.6267 11.7728H19.6165C19.7187 11.2125 20.2088 10.7876 20.7984 10.7876C21.4623 10.7876 22 11.3262 22 11.9901C22 12.6541 21.4623 13.1927 20.7984 13.1927C20.2088 13.1927 19.7187 12.7678 19.6165 12.2075H18.6267C18.5731 13.8763 17.9039 15.3893 16.8393 16.5267L17.7115 17.3998C17.9792 17.1963 18.3131 17.0755 18.6753 17.0755C19.5565 17.0755 20.2705 17.7906 20.2705 18.6722C20.2705 19.5537 19.5565 20.2688 18.6753 20.2688C17.7941 20.2688 17.0801 19.5537 17.0801 18.6722C17.0801 18.3097 17.2008 17.9754 17.4042 17.7073L16.532 16.8343C15.9962 17.3367 15.3771 17.751 14.6976 18.0542C14.2367 18.2854 13.5946 18.4423 13.3304 18.493C12.969 18.5669 12.5972 18.6111 12.2174 18.6233V19.6145C12.7774 19.7169 13.2016 20.2078 13.2016 20.7975C13.2016 21.4614 12.6638 22 12 22C11.3362 22 10.7984 21.4614 10.7984 20.7975C10.7984 20.2078 11.2226 19.7169 11.7826 19.6145V18.6233C10.1156 18.5696 8.60419 17.9 7.46791 16.8344L6.59584 17.7073C6.79924 17.9754 6.91994 18.3097 6.91994 18.6722C6.91994 19.5537 6.20594 20.2688 5.32472 20.2688C4.44349 20.2688 3.72949 19.5537 3.72949 18.6722C3.72949 17.7906 4.44349 17.0755 5.32472 17.0755C5.68688 17.0755 6.0208 17.1963 6.28852 17.3998L7.16062 16.5268C6.09593 15.3893 5.42692 13.8762 5.37327 12.2075H4.38353C4.28131 12.7678 3.79116 13.1927 3.20156 13.1927C2.53775 13.1927 2 12.6541 2 11.9901C2 11.3262 2.53775 10.7876 3.20156 10.7876C3.79116 10.7876 4.28131 11.2125 4.38353 11.7728H5.37327C5.42693 10.104 6.09612 8.59084 7.16068 7.45355L6.28852 6.58051C6.0208 6.78398 5.68688 6.90475 5.32472 6.90475C4.44349 6.90475 3.72949 6.18972 3.72949 5.30814C3.72949 4.42657 4.44349 3.71153 5.32472 3.71153C6.20594 3.71153 6.91994 4.42657 6.91994 5.30814C6.91994 5.67061 6.79924 6.00492 6.59584 6.27296L7.46799 7.14598C7.73982 6.8911 8.0331 6.65891 8.34482 6.45242C8.34899 6.44966 8.35324 6.44705 8.35759 6.44458C8.51412 6.35576 8.76343 6.21738 9.00381 6.0903C9.23678 5.96713 9.47824 5.84543 9.61395 5.79632C10.2906 5.53512 11.0204 5.38159 11.7826 5.35698V4.38547C11.2226 4.28307 10.7984 3.79224 10.7984 3.20255ZM6.14942 6.1255C6.35696 5.91562 6.48516 5.62692 6.48516 5.30814C6.48516 4.66628 5.96541 4.14632 5.32472 4.14632C4.68403 4.14632 4.16428 4.66628 4.16428 5.30814C4.16428 5.95001 4.68403 6.46997 5.32472 6.46997C5.64291 6.46997 5.93127 6.34172 6.14095 6.13399C6.14237 6.13249 6.14381 6.131 6.14528 6.12954C6.14665 6.12817 6.14803 6.12683 6.14942 6.1255ZM6.14094 17.8463C5.93126 17.6386 5.6429 17.5103 5.32472 17.5103C4.68403 17.5103 4.16428 18.0303 4.16428 18.6722C4.16428 19.314 4.68403 19.834 5.32472 19.834C5.96541 19.834 6.48516 19.314 6.48516 18.6722C6.48516 18.3534 6.35696 18.0647 6.14941 17.8548C6.14803 17.8535 6.14665 17.8521 6.14528 17.8508C6.14381 17.8493 6.14236 17.8478 6.14094 17.8463ZM17.8506 17.8548C17.643 18.0647 17.5148 18.3534 17.5148 18.6722C17.5148 19.314 18.0346 19.834 18.6753 19.834C19.316 19.834 19.8357 19.314 19.8357 18.6722C19.8357 18.0303 19.316 17.5103 18.6753 17.5103C18.3571 17.5103 18.0687 17.6386 17.8591 17.8463C17.8576 17.8478 17.8562 17.8493 17.8547 17.8508C17.8534 17.8521 17.852 17.8535 17.8506 17.8548ZM17.859 6.13398C18.0687 6.34172 18.3571 6.46997 18.6753 6.46997C19.316 6.46997 19.8357 5.95001 19.8357 5.30814C19.8357 4.66628 19.316 4.14632 18.6753 4.14632C18.0346 4.14632 17.5148 4.66628 17.5148 5.30814C17.5148 5.62693 17.643 5.91564 17.8506 6.12553C17.852 6.12684 17.8534 6.12818 17.8547 6.12954C17.8562 6.131 17.8576 6.13248 17.859 6.13398ZM12 5.78826C11.2128 5.78826 10.4606 5.93524 9.76833 6.20278L9.76335 6.2047C9.66297 6.24069 9.44861 6.34694 9.20702 6.47467C8.97461 6.59754 8.73277 6.73168 8.57872 6.819C6.90638 7.92968 5.80457 9.83121 5.80457 11.9901C5.80457 15.4157 8.57845 18.192 12 18.192C12.4266 18.192 12.8427 18.149 13.2445 18.0668L13.2472 18.0663C13.4979 18.0182 14.0983 17.8694 14.5067 17.6636C14.5098 17.662 14.5129 17.6606 14.5161 17.6592C16.6843 16.6935 18.1954 14.5183 18.1954 11.9901C18.1954 8.56462 15.4215 5.78826 12 5.78826ZM3.20156 11.2224C2.77829 11.2224 2.43478 11.5659 2.43478 11.9901C2.43478 12.4144 2.77829 12.7579 3.20156 12.7579C3.62483 12.7579 3.96833 12.4144 3.96833 11.9901C3.96833 11.5659 3.62483 11.2224 3.20156 11.2224ZM20.7984 11.2224C20.3752 11.2224 20.0317 11.5659 20.0317 11.9901C20.0317 12.4144 20.3752 12.7579 20.7984 12.7579C21.2217 12.7579 21.5652 12.4144 21.5652 11.9901C21.5652 11.5659 21.2217 11.2224 20.7984 11.2224ZM12 20.0297C11.5767 20.0297 11.2332 20.3732 11.2332 20.7975C11.2332 21.2217 11.5767 21.5652 12 21.5652C12.4233 21.5652 12.7668 21.2217 12.7668 20.7975C12.7668 20.3732 12.4233 20.0297 12 20.0297Z" fill="white"/>
<path fill-rule="evenodd" clip-rule="evenodd" d="M8.23285 9.90681C8.04332 10.0576 7.97884 10.1914 7.97884 10.299C7.97884 10.4066 8.04331 10.5405 8.23284 10.6912C8.42054 10.8404 8.70506 10.9841 9.07542 11.1086C9.81404 11.357 10.8481 11.5144 12 11.5144C13.152 11.5144 14.186 11.357 14.9246 11.1086C15.2949 10.9841 15.5795 10.8404 15.7672 10.6912C15.9567 10.5405 16.0212 10.4066 16.0212 10.299C16.0212 10.1914 15.9567 10.0576 15.7671 9.90681C15.5794 9.75753 15.2949 9.61386 14.9246 9.48926C14.1859 9.24076 13.1519 9.08333 12 9.08333C10.8481 9.08333 9.81405 9.24076 9.07544 9.48926C8.70509 9.61386 8.42056 9.75753 8.23285 9.90681ZM16.0212 11.0247C15.7814 11.2121 15.4506 11.372 15.0614 11.5029C14.2681 11.7697 13.1857 11.9311 12 11.9311C10.8143 11.9311 9.73194 11.7697 8.93856 11.5029C8.54944 11.372 8.21863 11.2121 7.97884 11.0247V12C7.97884 12.1077 8.04333 12.2415 8.23284 12.3923C8.42052 12.5416 8.70504 12.6852 9.07538 12.8098C9.81397 13.0583 10.848 13.2157 12 13.2157C13.152 13.2157 14.186 13.0583 14.9246 12.8098C15.295 12.6852 15.5795 12.5416 15.7672 12.3923C15.9567 12.2415 16.0212 12.1077 16.0212 12V11.0247ZM16.0212 12.7259C15.7814 12.9132 15.4506 13.0732 15.0615 13.2041C14.2681 13.471 13.1857 13.6323 12 13.6323C10.8143 13.6323 9.73186 13.471 8.93849 13.2041C8.5494 13.0732 8.21861 12.9132 7.97884 12.7259V13.701C7.97884 13.8087 8.04333 13.9425 8.23284 14.0933C8.42052 14.2426 8.70504 14.3862 9.07538 14.5108C9.81397 14.7593 10.848 14.9167 12 14.9167C13.152 14.9167 14.186 14.7593 14.9246 14.5108C15.295 14.3862 15.5795 14.2426 15.7672 14.0933C15.9567 13.9425 16.0212 13.8087 16.0212 13.701V12.7259ZM7.55556 10.299C7.55556 10.0135 7.72797 9.7727 7.96683 9.58272C8.20753 9.39128 8.5429 9.22809 8.93854 9.09498C9.73192 8.82806 10.8143 8.66667 12 8.66667C13.1857 8.66667 14.2681 8.82806 15.0615 9.09498C15.4571 9.22809 15.7925 9.39128 16.0332 9.58272C16.272 9.7727 16.4444 10.0135 16.4444 10.299V13.701C16.4444 13.9866 16.2721 14.2274 16.0332 14.4174C15.7925 14.6088 15.4571 14.772 15.0615 14.9051C14.2681 15.172 13.1857 15.3333 12 15.3333C10.8143 15.3333 9.73186 15.172 8.93849 14.9051C8.54285 14.772 8.2075 14.6088 7.96681 14.4174C7.72794 14.2274 7.55556 13.9866 7.55556 13.701V10.299Z" fill="white"/>
</svg>
