<svg width="40" height="40" viewBox="0 0 40 40" fill="none" xmlns="http://www.w3.org/2000/svg">
<path fill-rule="evenodd" clip-rule="evenodd" d="M19.8848 3.02064C19.9592 2.99324 20.0409 2.99324 20.1153 3.02064L35.9486 8.85398C36.0797 8.90226 36.1667 9.0271 36.1667 9.16676V29.1668C36.1667 29.2475 36.1374 29.3255 36.0842 29.3863L29.5214 36.8863C29.4581 36.9586 29.3667 37.0001 29.2705 37.0001H10.7295C10.6334 37.0001 10.542 36.9586 10.4787 36.8863L3.91585 29.3863C3.86268 29.3255 3.83337 29.2475 3.83337 29.1668V9.16676C3.83337 9.0271 3.92043 8.90226 4.05147 8.85398L19.8848 3.02064ZM4.50004 10.0539V15.7082L10.3962 22.4463V16.792L4.50004 10.0539ZM11.0629 17.0001V23.0001H28.9372V17.0001H11.0629ZM29.6039 16.792V22.4463L35.5 15.7082V10.0539L29.6039 16.792ZM35.2634 9.31199L20 3.68866L4.73672 9.31199L10.8808 16.3334H29.1193L35.2634 9.31199ZM35.5 16.7205L29.6039 23.4587V29.0066L35.5 22.3734V16.7205ZM35.5 23.3768L29.6039 30.01V35.7796L35.5 29.0415V23.3768ZM28.9372 36.3334V30.3334H11.0629V36.3334H28.9372ZM10.3962 35.7796L4.50004 29.0415V23.3872L10.3962 30.1253V35.7796ZM11.0629 29.6668H28.9372V23.6668H11.0629V29.6668ZM10.3962 23.4587V29.113L4.50004 22.3748V16.7205L10.3962 23.4587Z" fill="white"/>
</svg>
