<svg width="40" height="40" viewBox="0 0 40 40" fill="none" xmlns="http://www.w3.org/2000/svg">
<path d="M12.6865 32.7317V36.0308C12.6865 37.1183 13.5629 38 14.6441 38H36.0424C37.1235 38 38 37.1183 38 36.0308V14.5058C38 13.4183 37.1235 12.5366 36.0424 12.5366H32.7627V13.4146H36.0424C36.6414 13.4146 37.1271 13.9032 37.1271 14.5058V36.0308C37.1271 36.6334 36.6414 37.122 36.0424 37.122H14.6441C14.045 37.122 13.5593 36.6334 13.5593 36.0308V32.7317V31.8537V27.4634V26.5854V14.5058C13.5593 13.9032 14.045 13.4146 14.6441 13.4146H28.3983H29.2712H31.8898V12.5366H29.2712H28.3983H14.6441C13.5629 12.5366 12.6865 13.4183 12.6865 14.5058V26.5854V27.4634V31.8537V32.7317Z" fill="white"/>
<path d="M31.8898 12.5366V13.4146H32.7627V12.5366H31.8898Z" fill="white"/>
<path fill-rule="evenodd" clip-rule="evenodd" d="M2.87289 3.96923C2.87289 3.36662 3.35858 2.87805 3.95765 2.87805H27.3135C27.9126 2.87805 28.3983 3.36662 28.3983 3.96923V7.26829H9.40681C8.32566 7.26829 7.44917 8.14998 7.44917 9.23753V26.5854H3.95765C3.35858 26.5854 2.87289 26.0968 2.87289 25.4942V3.96923ZM29.2712 3.96923V7.26829H30.8051C31.8862 7.26829 32.7627 8.14998 32.7627 9.23753V12.5366H31.8898V9.23753C31.8898 8.63491 31.4041 8.14634 30.8051 8.14634H29.2712H28.3983H9.40681C8.80774 8.14634 8.32205 8.63491 8.32205 9.23753V26.5854V27.4634V30.7625C8.32205 31.3651 8.80774 31.8537 9.40681 31.8537H12.6865V32.7317H9.40681C8.32566 32.7317 7.44917 31.85 7.44917 30.7625V27.4634H3.95765C2.8765 27.4634 2.00001 26.5817 2.00001 25.4942V3.96923C2.00001 2.88168 2.8765 2 3.95765 2H27.3135C28.3947 2 29.2712 2.88168 29.2712 3.96923Z" fill="white"/>
</svg>
