<svg width="48" height="48" viewBox="0 0 48 48" fill="none" xmlns="http://www.w3.org/2000/svg">
<path fill-rule="evenodd" clip-rule="evenodd" d="M13.2547 2.86275C12.3727 2.86275 11.6566 3.57903 11.6566 4.46401V22.1748H23.3292C24.6889 22.1748 25.7901 23.2786 25.7901 24.6388V36.396H43.5391C44.4211 36.396 45.1372 35.6797 45.1372 34.7947V4.46401C45.1372 3.57903 44.4211 2.86275 43.5391 2.86275H13.2547ZM25.7901 37.2587H43.5391C44.8988 37.2587 46 36.1549 46 34.7947V4.46401C46 3.1038 44.8988 2 43.5391 2H13.2547C11.895 2 10.7938 3.1038 10.7938 4.46401V22.1748H4.4609C3.10116 22.1748 2 23.2786 2 24.6388V43.536C2 44.8962 3.10116 46 4.4609 46H23.3292C24.6889 46 25.7901 44.8962 25.7901 43.536V37.2587ZM24.9273 36.396V24.6388C24.9273 23.7539 24.2112 23.0376 23.3292 23.0376H11.6566V34.7947C11.6566 35.6797 12.3727 36.396 13.2547 36.396H24.9273ZM10.7938 23.0376V34.7947C10.7938 36.1549 11.895 37.2587 13.2547 37.2587H24.9273V43.536C24.9273 44.421 24.2112 45.1373 23.3292 45.1373H4.4609C3.57889 45.1373 2.86275 44.421 2.86275 43.536V24.6388C2.86275 23.7539 3.57889 23.0376 4.4609 23.0376H10.7938ZM33.626 8.24344C33.626 8.0052 33.8191 7.81206 34.0574 7.81206H39.7654C40.0037 7.81206 40.1968 8.0052 40.1968 8.24344V13.9602C40.1968 14.1985 40.0037 14.3916 39.7654 14.3916C39.5272 14.3916 39.3341 14.1985 39.3341 13.9602V9.28599L28.6546 19.9818C28.4863 20.1504 28.2131 20.1506 28.0445 19.9823C27.876 19.8139 27.8757 19.5408 28.0441 19.3722L38.7251 8.67481H34.0574C33.8191 8.67481 33.626 8.48168 33.626 8.24344Z" fill="white"/>
</svg>
