<svg width="24" height="24" viewBox="0 0 24 24" fill="none" xmlns="http://www.w3.org/2000/svg">
<path fill-rule="evenodd" clip-rule="evenodd" d="M3.68511 3.41596C3.35117 3.41596 3.03013 3.54926 2.79282 3.78778C2.55539 4.02642 2.42134 4.35088 2.42134 4.68995L2.42142 9.16002C2.42142 9.4991 2.55547 9.82356 2.7929 10.0622C3.0302 10.3007 3.35124 10.434 3.68518 10.434L9.99846 10.434H10.1887V10.4501V10.85H10.1418H9.99173L3.68518 10.85C3.35123 10.85 3.03012 10.9833 2.79282 11.2218C2.55539 11.4604 2.42134 11.7849 2.42134 12.124L2.42142 16.594C2.42142 16.9331 2.55547 17.2576 2.7929 17.4962C3.0302 17.7347 3.35124 17.868 3.68518 17.868L10.3621 17.868V18.284L3.68518 18.284C3.23703 18.284 2.80802 18.105 2.4923 17.7877C2.17671 17.4705 2.00007 17.0411 2.00007 16.594L2 12.124C2 11.677 2.17664 11.2475 2.49223 10.9303C2.60654 10.8154 2.7357 10.7187 2.87526 10.642C2.73573 10.5653 2.60659 10.4686 2.4923 10.3537C2.17671 10.0365 2.00007 9.60704 2.00007 9.16003L2 4.68996C2 4.24295 2.17664 3.81351 2.49223 3.4963C2.80794 3.17897 3.23696 3 3.68511 3H16.9551C17.4032 3 17.8322 3.17897 18.148 3.4963C18.4635 3.81351 18.6402 4.24294 18.6402 4.68996V8.32629H18.2188V4.68996C18.2188 4.35088 18.0848 4.02642 17.8474 3.78778C17.61 3.54926 17.289 3.41596 16.9551 3.41596H3.68511ZM6.2654 5.70335C5.74193 5.70335 5.31758 6.12229 5.31758 6.63907C5.31758 7.15585 5.74193 7.57478 6.2654 7.57478C6.78887 7.57478 7.21322 7.15585 7.21322 6.63907C7.21322 6.12229 6.78886 5.70335 6.2654 5.70335ZM4.89623 6.63907C4.89623 5.89256 5.50923 5.28739 6.2654 5.28739C7.02157 5.28739 7.63456 5.89256 7.63456 6.63907C7.63456 7.38558 7.02156 7.99074 6.2654 7.99074C5.50923 7.99074 4.89623 7.38558 4.89623 6.63907ZM10.8994 5.70335C10.3759 5.70335 9.95155 6.12229 9.95155 6.63907C9.95155 7.15585 10.3759 7.57478 10.8994 7.57478C11.4228 7.57478 11.8472 7.15585 11.8472 6.63907C11.8472 6.12229 11.4228 5.70335 10.8994 5.70335ZM9.53021 6.63907C9.53021 5.89256 10.1432 5.28739 10.8994 5.28739C11.6555 5.28739 12.2685 5.89256 12.2685 6.63907C12.2685 7.38558 11.6555 7.99074 10.8994 7.99074C10.1432 7.99074 9.53021 7.38558 9.53021 6.63907ZM6.2654 13.1374C5.74193 13.1374 5.31758 13.5563 5.31758 14.0731C5.31758 14.5899 5.74193 15.0088 6.2654 15.0088C6.78887 15.0088 7.21322 14.5899 7.21322 14.0731C7.21322 13.5563 6.78886 13.1374 6.2654 13.1374ZM4.89623 14.0731C4.89623 13.3266 5.50923 12.7214 6.2654 12.7214C7.02157 12.7214 7.63456 13.3266 7.63456 14.0731C7.63456 14.8196 7.02156 15.4248 6.2654 15.4248C5.50923 15.4248 4.89623 14.8196 4.89623 14.0731Z" fill="white"/>
<path d="M10.2024 10.4497C10.3188 10.4497 10.4131 10.5428 10.4131 10.6577V10.3196C10.4131 10.2047 10.3188 10.1117 10.2024 10.1117C10.0861 10.1117 9.99173 10.2047 9.99173 10.3196C9.99173 10.3582 9.99401 10.3964 9.99846 10.434H10.1887V10.4501C10.1932 10.4498 10.1978 10.4497 10.2024 10.4497Z" fill="white"/>
<path d="M10.2024 12.8247C10.3188 12.8247 10.4131 12.9178 10.4131 13.0327V12.6706V11.1896C10.3041 11.0838 10.2119 10.9704 10.1418 10.85H9.99173V12.6706C9.99173 12.7573 10.002 12.8423 10.0218 12.9255C10.0587 12.8651 10.1257 12.8247 10.2024 12.8247Z" fill="white"/>
<path fill-rule="evenodd" clip-rule="evenodd" d="M10.795 9.66776C10.5274 9.89488 10.4131 10.1159 10.4131 10.3196C10.4131 10.2047 10.3188 10.1117 10.2024 10.1117C10.0861 10.1117 9.99173 10.2047 9.99173 10.3196C9.99173 9.94902 10.2016 9.62288 10.5203 9.35234C10.8398 9.08123 11.2897 8.8465 11.8273 8.6535C12.9042 8.26688 14.3781 8.03182 15.9959 8.03182C17.6136 8.03182 19.0875 8.26688 20.1645 8.6535C20.7021 8.8465 21.152 9.08123 21.4714 9.35234C21.7901 9.62288 22 9.94902 22 10.3196V10.6577V12.6706V13.0327V15.1639V17.5389C22 17.9126 21.8084 18.2562 21.4935 18.5518C21.179 18.8471 20.7283 19.1084 20.1697 19.3256C19.0522 19.7602 17.5509 20 15.9959 20C14.4408 20 12.9395 19.7602 11.8221 19.3256C11.2635 19.1084 10.8127 18.8471 10.4982 18.5518C10.1833 18.2562 9.99173 17.9126 9.99173 17.5389V15.1639V13.0327V12.6706C9.99173 12.7573 10.002 12.8423 10.0218 12.9255C10.0793 13.1675 10.2167 13.3939 10.4131 13.5992V15.1639C10.4131 15.3878 10.5267 15.6295 10.7886 15.8754C11.0509 16.1217 11.4486 16.3583 11.9765 16.5636C13.032 16.9741 14.4779 17.209 15.9959 17.209C17.5139 17.209 18.9598 16.9741 20.0152 16.5636C20.5432 16.3583 20.9409 16.1217 21.2031 15.8754C21.465 15.6295 21.5787 15.3878 21.5787 15.1639V13.5992C21.5514 13.6277 21.523 13.6558 21.4935 13.6835C21.179 13.9788 20.7283 14.24 20.1697 14.4573C19.0522 14.8919 17.5509 15.1317 15.9959 15.1317C14.4408 15.1317 12.9395 14.8919 11.8221 14.4573C11.2635 14.24 10.8127 13.9788 10.4982 13.6835C10.4687 13.6558 10.4403 13.6277 10.4131 13.5992V13.0327V12.6706C10.4131 12.8945 10.5267 13.1362 10.7886 13.3821C11.0509 13.6284 11.4486 13.865 11.9765 14.0703C13.032 14.4808 14.4779 14.7157 15.9959 14.7157C17.5139 14.7157 18.9598 14.4808 20.0152 14.0703C20.5432 13.865 20.9409 13.6284 21.2031 13.3821C21.465 13.1362 21.5787 12.8945 21.5787 12.6706V11.1896C21.5445 11.2228 21.5087 11.2552 21.4714 11.2869C21.152 11.558 20.7021 11.7927 20.1645 11.9857C19.0875 12.3723 17.6136 12.6074 15.9959 12.6074C14.3781 12.6074 12.9042 12.3723 11.8273 11.9857C11.2897 11.7927 10.8398 11.558 10.5203 11.2869C10.483 11.2552 10.4472 11.2228 10.4131 11.1896C10.3041 11.0838 10.2119 10.9704 10.1418 10.85H9.99173V10.6577V10.3196C9.99173 10.3582 9.99401 10.3964 9.99846 10.434H10.1887V10.4501C10.1932 10.4498 10.1978 10.4497 10.2024 10.4497C10.3188 10.4497 10.4131 10.5428 10.4131 10.6577V10.3196C10.4131 10.5233 10.5274 10.7443 10.795 10.9715C11.0619 11.198 11.4605 11.4114 11.9713 11.5948C12.9911 11.9609 14.414 12.1914 15.9959 12.1914C17.5777 12.1914 19.0006 11.9609 20.0205 11.5948C20.5313 11.4114 20.9298 11.198 21.1967 10.9715C21.4643 10.7443 21.5787 10.5233 21.5787 10.3196C21.5787 10.1159 21.4643 9.89488 21.1967 9.66776C20.9298 9.44123 20.5313 9.22779 20.0205 9.04442C19.0006 8.6783 17.5777 8.44778 15.9959 8.44778C14.414 8.44778 12.9911 8.6783 11.9713 9.04442C11.4605 9.22779 11.0619 9.44123 10.795 9.66776ZM21.5787 16.0925C21.5514 16.1211 21.523 16.1492 21.4935 16.1768C21.179 16.4721 20.7283 16.7334 20.1697 16.9506C19.0522 17.3852 17.5509 17.625 15.9959 17.625C14.4408 17.625 12.9395 17.3852 11.8221 16.9506C11.2635 16.7334 10.8127 16.4721 10.4982 16.1768C10.4687 16.1492 10.4403 16.121 10.4131 16.0925V17.5389C10.4131 17.7628 10.5267 18.0045 10.7886 18.2504C11.0509 18.4967 11.4486 18.7333 11.9765 18.9386C13.032 19.3491 14.4779 19.584 15.9959 19.584C17.5139 19.584 18.9598 19.3491 20.0152 18.9386C20.5432 18.7333 20.9409 18.4967 21.2031 18.2504C21.465 18.0045 21.5787 17.7628 21.5787 17.5389V16.0925Z" fill="white"/>
<path d="M10.4131 13.0327C10.4131 12.9178 10.3188 12.8247 10.2024 12.8247C10.1257 12.8247 10.0587 12.8651 10.0218 12.9255C10.0793 13.1675 10.2167 13.3939 10.4131 13.5992V13.0327Z" fill="white"/>
</svg>
