<svg width="24" height="24" viewBox="0 0 24 24" fill="none" xmlns="http://www.w3.org/2000/svg">
<path fill-rule="evenodd" clip-rule="evenodd" d="M11.8906 2.02907C11.9583 1.99031 12.0417 1.99031 12.1094 2.02907L17.0002 4.82978C17.0677 4.86843 17.1092 4.93976 17.1092 5.01695V10.4749L21.8909 13.2132C21.9584 13.2519 22 13.3232 22 13.4004V18.9916C22 19.0689 21.9583 19.1403 21.8907 19.1789L16.9999 21.9711C16.9324 22.0096 16.8492 22.0096 16.7816 21.9711L12 19.2412L7.21838 21.9711C7.15083 22.0096 7.06763 22.0096 7.00008 21.9711L2.10931 19.1789C2.04167 19.1403 2 19.0689 2 18.9916V13.4004C2 13.3232 2.04156 13.2519 2.10906 13.2132L6.89077 10.4749V5.01695C6.89077 4.93976 6.93233 4.86843 6.99983 4.82978L11.8906 2.02907ZM7.10186 10.8537L2.65525 13.4001L7.10923 15.9423L11.5627 13.4004L7.10186 10.8537ZM11.7815 13.7747L7.32769 16.3168V21.4094L11.7815 18.8667V13.7747ZM12.2185 18.8667L16.6723 21.4094V16.3168L12.2185 13.7747V18.8667ZM12.4373 13.4004L16.8908 15.9423L21.3448 13.4001L16.8981 10.8537L12.4373 13.4004ZM16.6723 10.4749V5.39126L12.2185 7.93344V13.0255L16.6723 10.4749ZM11.7815 13.0255L7.32769 10.4749V5.39126L11.7815 7.93344V13.0255ZM12 7.5589L16.454 5.01664L12 2.46606L7.54602 5.01664L12 7.5589ZM21.5631 13.7747L17.1092 16.3168V21.4094L21.5631 18.8667V13.7747ZM6.89077 21.4094V16.3168L2.43693 13.7747V18.8667L6.89077 21.4094Z" fill="white"/>
</svg>
