<svg width="24" height="24" viewBox="0 0 24 24" fill="none" xmlns="http://www.w3.org/2000/svg">
<path d="M12.7829 2.00562C12.8879 2.03123 12.9522 2.1372 12.9266 2.24231L11.2645 9.06967C11.2389 9.17477 11.133 9.23921 11.028 9.21359C10.9231 9.18797 10.8587 9.082 10.8843 8.9769L12.5465 2.14954C12.5721 2.04443 12.6779 1.98 12.7829 2.00562Z" fill="white"/>
<path d="M8.71769 3.76251C8.79506 3.83803 8.79663 3.96204 8.7212 4.0395L7.19218 5.6096L8.7212 7.17971C8.79663 7.25717 8.79506 7.38118 8.71769 7.4567C8.64032 7.53221 8.51645 7.53064 8.44102 7.45318L6.77884 5.74634C6.70476 5.67027 6.70476 5.54894 6.77884 5.47287L8.44102 3.76603C8.51645 3.68857 8.64032 3.68699 8.71769 3.76251Z" fill="white"/>
<path d="M15.0932 3.76251C15.1706 3.68699 15.2945 3.68857 15.3699 3.76603L17.0321 5.47287C17.1062 5.54894 17.1062 5.67027 17.0321 5.74634L15.3699 7.45318C15.2945 7.53064 15.1706 7.53221 15.0932 7.4567C15.0159 7.38118 15.0143 7.25717 15.0897 7.17971L16.6187 5.6096L15.0897 4.0395C15.0143 3.96204 15.0159 3.83803 15.0932 3.76251Z" fill="white"/>
<path fill-rule="evenodd" clip-rule="evenodd" d="M3.68533 10.7391C3.31623 10.7391 3.02075 11.0373 3.00683 11.4045C3.00234 11.5234 3 11.643 3 11.7632C3 13.5267 3.48169 15.1753 4.31776 16.5775C5.89846 19.2289 8.74593 21 12 21C16.9752 21 21 16.8599 21 11.7632C21 11.6429 20.9976 11.5231 20.9931 11.4042C20.979 11.0371 20.6835 10.7391 20.3146 10.7391L19.1763 10.7391L19.1729 10.7391H12.7527L12.7505 10.7391L5.47269 10.7391L5.47126 10.7391H3.68533ZM8.32532 18.686C8.55316 19.1179 8.57289 19.5123 8.45363 19.8249C5.57111 18.4842 3.53338 15.5583 3.39844 12.1265L3.39785 11.4193L3.68533 11.1308L5.40684 11.1308C5.56494 11.243 5.74175 11.3287 5.91649 11.4041C6.00587 11.4427 6.08963 11.4766 6.17185 11.5099C6.28154 11.5544 6.38851 11.5977 6.50245 11.6495C6.87941 11.8207 7.19614 12.0283 7.37581 12.4193C7.54547 12.7884 7.81516 13.0146 8.08982 13.1781C8.22575 13.259 8.36516 13.3259 8.49344 13.3861L8.53562 13.4059C8.6498 13.4595 8.75243 13.5076 8.84561 13.5598C9.05341 13.6763 9.17027 13.7897 9.2101 13.9551C9.25303 14.1334 9.21956 14.423 8.983 14.9207C8.89422 15.1075 8.81046 15.2815 8.73226 15.4439C8.59897 15.7208 8.48183 15.9642 8.38342 16.1802C8.22695 16.5237 8.11055 16.8134 8.04547 17.0807C7.97939 17.3522 7.96587 17.6015 8.01395 17.8643C8.06142 18.1237 8.16717 18.3862 8.32532 18.686ZM12 20.6082C10.8743 20.6082 9.7987 20.3861 8.81261 19.982C8.98556 19.5466 8.94697 19.0256 8.67134 18.5031C8.52243 18.2208 8.43626 17.9981 8.39885 17.7937C8.36204 17.5926 8.37067 17.3993 8.42564 17.1735C8.48162 16.9436 8.58517 16.6815 8.73945 16.3428C8.83633 16.1301 8.95033 15.8933 9.082 15.6198C9.16046 15.4568 9.2452 15.2807 9.33634 15.089C9.58399 14.568 9.66567 14.1754 9.59051 13.8633C9.51225 13.5383 9.27777 13.3531 9.03679 13.218C8.93033 13.1583 8.81403 13.1038 8.70187 13.0513L8.65971 13.0315C8.53186 12.9714 8.40777 12.9116 8.28979 12.8414C8.05662 12.7026 7.85687 12.5288 7.73129 12.2555C7.49289 11.7368 7.072 11.478 6.6641 11.2927C6.54939 11.2406 6.42296 11.1892 6.30287 11.1403L6.27962 11.1308L12.6474 11.1309C12.9069 11.5009 13.3055 11.7825 13.8541 11.9505C14.4318 12.1273 14.9095 12.1714 15.2494 12.2028C15.3794 12.2148 15.4893 12.2249 15.5768 12.2399C15.7426 12.2683 15.8268 12.3093 15.884 12.3748C15.9461 12.4461 16.004 12.578 16.0379 12.8521C16.1016 13.3672 15.9544 13.7063 15.7848 14.0681L15.7639 14.1126C15.5978 14.4655 15.4135 14.8572 15.4705 15.4129C15.4749 15.4561 15.4793 15.5 15.4838 15.5443C15.5059 15.7633 15.5291 15.9941 15.5603 16.2113C15.5977 16.4709 15.6483 16.7264 15.7289 16.9313C15.8062 17.1279 15.9321 17.3319 16.1539 17.3992C16.3806 17.468 16.6176 17.3683 16.8498 17.1834C17.279 16.8416 17.8086 16.1205 18.2583 15.3288C18.4791 14.9589 18.7894 14.2645 18.9155 13.968L18.9175 13.963C19.1178 13.4537 19.2576 12.9545 19.2795 12.5413C19.2894 12.3558 19.2931 12.174 19.2968 11.9956C19.303 11.6982 19.3089 11.4103 19.3426 11.1309L20.3146 11.1309C20.4646 11.1309 20.5957 11.2538 20.6021 11.4192C20.6064 11.5334 20.6087 11.6481 20.6087 11.7632C20.6087 16.6529 16.7498 20.6082 12 20.6082ZM18.9044 12.0249C18.9106 11.7303 18.9172 11.4235 18.949 11.1309L13.1621 11.1309C13.358 11.3168 13.6217 11.4697 13.9686 11.5759C14.5062 11.7405 14.9025 11.7764 15.2328 11.8063C15.3804 11.8196 15.5148 11.8318 15.6428 11.8538C15.8424 11.888 16.0339 11.9511 16.1787 12.1172C16.3186 12.2776 16.3892 12.5049 16.4262 12.8039C16.5042 13.4348 16.3148 13.8597 16.139 14.2346L16.1257 14.263C15.9569 14.6226 15.814 14.9269 15.8598 15.3729C15.8643 15.4177 15.8689 15.4626 15.8734 15.5077C15.8955 15.7265 15.9177 15.9473 15.9476 16.1555C15.9839 16.408 16.0296 16.6266 16.093 16.7878C16.1596 16.9573 16.2252 17.0115 16.2675 17.0243C16.3049 17.0356 16.4044 17.0375 16.6062 16.8768C16.9749 16.5832 17.4749 15.9158 17.9191 15.1334L17.9214 15.1295C18.1262 14.787 18.4269 14.1167 18.5544 13.817C18.7478 13.3247 18.8701 12.8719 18.8888 12.5205C18.8971 12.3629 18.9007 12.1959 18.9044 12.0249Z" fill="white"/>
</svg>
