<svg width="40" height="40" viewBox="0 0 40 40" fill="none" xmlns="http://www.w3.org/2000/svg">
<path fill-rule="evenodd" clip-rule="evenodd" d="M16.765 4.3503C9.51298 5.85681 4.01896 12.3187 4.01896 19.9999C4.01896 22.0251 4.40085 23.9655 5.09617 25.7526H7.66493L9.42123 23.9963C9.63044 23.7871 9.95004 23.7353 10.2147 23.8676L13.8358 25.6781L15.4497 24.0642L13.7613 22.3757C13.6324 22.2468 13.56 22.072 13.56 21.8897V20.3436C13.56 19.964 13.8677 19.6563 14.2473 19.6563H17.7555L19.5389 16.0894C19.7087 15.7499 20.1216 15.6122 20.4611 15.782L23.9964 17.5496L25.6782 15.8678L23.8519 12.2151H22.3758C21.9962 12.2151 21.6885 11.9074 21.6885 11.5278V10.0517L17.9564 8.18568C17.776 8.0955 17.6443 7.93066 17.5962 7.73483L16.765 4.3503ZM17.442 4.22497L18.2637 7.57089L21.9959 9.43694C22.2287 9.55337 22.3758 9.79138 22.3758 10.0517V11.5278H23.8519C24.1122 11.5278 24.3502 11.6749 24.4666 11.9077L26.293 15.5604C26.4253 15.8251 26.3734 16.1447 26.1642 16.3539L24.4824 18.0357C24.2732 18.2449 23.9536 18.2967 23.689 18.1644L20.1537 16.3968L18.3703 19.9637C18.2538 20.1965 18.0158 20.3436 17.7555 20.3436H14.2473V21.8897L15.9358 23.5781C16.2042 23.8466 16.2042 24.2818 15.9358 24.5502L14.3218 26.1642C14.1126 26.3734 13.793 26.4252 13.5284 26.2929L9.90727 24.4824L8.15096 26.2387C8.02206 26.3676 7.84723 26.44 7.66493 26.44H5.38232C7.87158 32.0457 13.4991 35.981 20 35.981C27.2614 35.981 33.433 31.0712 35.3588 24.4079H32.2739C32.1672 24.4079 32.0619 24.383 31.9665 24.3353L28.1648 22.4344C27.9319 22.318 27.7848 22.08 27.7848 21.8197V20.1423C27.7848 19.96 27.8573 19.7852 27.9862 19.6563L29.8774 17.7651C29.9307 17.7117 29.9924 17.6676 30.0601 17.6343L34.0692 15.6626C34.1636 15.6162 34.2674 15.592 34.3726 15.592H35.3588C33.433 8.92869 27.2614 4.0189 20 4.0189C19.1299 4.0189 18.2754 4.0894 17.442 4.22497ZM35.5408 16.2794H34.3726L30.3634 18.2511L28.4722 20.1423V21.8197L32.2739 23.7205H35.5408C35.8285 22.5257 35.981 21.2797 35.981 19.9999C35.981 18.7201 35.8285 17.4742 35.5408 16.2794ZM3.3316 19.9999C3.3316 10.8317 10.8317 3.33154 20 3.33154C29.1683 3.33154 36.6684 10.8317 36.6684 19.9999C36.6684 29.1682 29.1683 36.6683 20 36.6683C10.8317 36.6683 3.3316 29.1682 3.3316 19.9999ZM19.6563 25.9539C19.7852 25.825 19.9601 25.7526 20.1424 25.7526H21.8898C22.0721 25.7526 22.2469 25.825 22.3758 25.9539L24.2066 27.7848H25.7527C26.1323 27.7848 26.44 28.0925 26.44 28.4721V29.9128C26.44 30.2087 26.2507 30.4714 25.97 30.5649L20.3102 32.4515C20.0632 32.5339 19.7909 32.4696 19.6068 32.2855L17.8255 30.5042C17.6966 30.3753 17.6242 30.2005 17.6242 30.0182V28.2708C17.6242 28.0885 17.6966 27.9137 17.8255 27.7848L19.6563 25.9539ZM21.8898 26.44H20.1424L18.3116 28.2708V30.0182L20.0928 31.7995L25.7527 29.9128V28.4721H24.2066C24.0243 28.4721 23.8495 28.3997 23.7206 28.2708L21.8898 26.44Z" fill="white"/>
</svg>
