<svg width="24" height="24" viewBox="0 0 24 24" fill="none" xmlns="http://www.w3.org/2000/svg">
<path fill-rule="evenodd" clip-rule="evenodd" d="M12 2.40816C6.70258 2.40816 2.40816 6.70258 2.40816 12C2.40816 17.2974 6.70258 21.5918 12 21.5918C17.2974 21.5918 21.5918 17.2974 21.5918 12C21.5918 6.70258 17.2974 2.40816 12 2.40816ZM2 12C2 6.47715 6.47715 2 12 2C17.5228 2 22 6.47715 22 12C22 17.5228 17.5228 22 12 22C6.47715 22 2 17.5228 2 12Z" fill="white"/>
<path fill-rule="evenodd" clip-rule="evenodd" d="M12.3321 7.80282C11.3599 7.80282 10.4924 8.32549 9.66883 9.20451L9.60835 9.26906H9.5199C9.08468 9.26906 8.73756 9.29269 8.3848 9.62675C8.20422 9.79775 8.10764 9.96736 8.05315 10.1608C7.99663 10.3615 7.98304 10.5952 7.98304 10.902V11.0006L7.90582 11.0619C7.39703 11.4656 7.07094 12.0902 7.07094 12.7915C7.07094 13.3945 7.31193 13.9406 7.70285 14.3385C8.09383 14.7365 8.63385 14.9855 9.23202 14.9944L10.3674 14.9948L10.3673 15.403L9.2276 15.4025C8.51688 15.3925 7.87507 15.0963 7.41167 14.6245C6.94865 14.1532 6.66278 13.5056 6.66278 12.7915C6.66278 11.9965 7.017 11.2843 7.57534 10.8055C7.57815 10.5325 7.595 10.2819 7.66028 10.0502C7.73521 9.78413 7.87138 9.55081 8.10414 9.33039C8.54749 8.91054 9.00354 8.86535 9.43176 8.86126C10.2769 7.9787 11.2258 7.39466 12.3321 7.39466C12.5859 7.39466 12.8329 7.42555 13.0693 7.4839L12.9715 7.88017C12.7668 7.82966 12.5527 7.80282 12.3321 7.80282ZM14.8465 9.58341C14.7226 9.23389 14.5283 8.91765 14.2807 8.6519L14.5793 8.37364C14.8421 8.65572 15.053 8.98745 15.1963 9.35344C15.9578 9.62084 16.5246 9.98535 16.9359 10.4952C17.3536 11.013 17.6037 11.6728 17.6037 12.3905C17.6037 13.2227 17.2675 13.9765 16.7241 14.5219C16.181 15.067 15.43 15.4048 14.6006 15.4048L12.9601 15.4041L12.9602 14.9959L14.6006 14.9966C15.3168 14.9966 15.9652 14.7054 16.435 14.2338C16.9051 13.762 17.1956 13.1106 17.1956 12.3905C17.1956 11.7692 16.9793 11.1992 16.6182 10.7514C16.2527 10.2983 15.7316 9.96187 14.9742 9.70879L14.8797 9.67725L14.8465 9.58341Z" fill="white"/>
<path fill-rule="evenodd" clip-rule="evenodd" d="M13.7984 7.74695L11.8864 8.86226C11.8167 8.90292 11.7272 8.87938 11.6866 8.80968C11.6735 8.78734 11.6667 8.76193 11.6667 8.73606V6.50543C11.6667 6.42475 11.7321 6.35933 11.8128 6.35933C11.8386 6.35933 11.864 6.3662 11.8864 6.37924L13.7984 7.49455C13.8681 7.53521 13.8916 7.62467 13.8509 7.69436C13.8382 7.71613 13.8201 7.73425 13.7984 7.74695Z" fill="white"/>
<path fill-rule="evenodd" clip-rule="evenodd" d="M11.3879 15.485L13.2999 16.6003C13.3696 16.641 13.459 16.6175 13.4997 16.5478C13.5127 16.5254 13.5196 16.5 13.5196 16.4741V14.2435C13.5196 14.1628 13.4542 14.0974 13.3735 14.0974C13.3476 14.0974 13.3222 14.1043 13.2999 14.1173L11.3879 15.2326C11.3182 15.2733 11.2947 15.3627 11.3353 15.4324C11.348 15.4542 11.3661 15.4723 11.3879 15.485Z" fill="white"/>
</svg>
