<svg width="24" height="24" viewBox="0 0 24 24" fill="none" xmlns="http://www.w3.org/2000/svg">
<path fill-rule="evenodd" clip-rule="evenodd" d="M13.4286 4.42105C13.4286 5.20588 12.789 5.84211 12 5.84211C11.211 5.84211 10.5714 5.20588 10.5714 4.42105C10.5714 3.63623 11.211 3 12 3C12.789 3 13.4286 3.63623 13.4286 4.42105ZM12 5.36842C12.526 5.36842 12.9524 4.94427 12.9524 4.42105C12.9524 3.89784 12.526 3.47368 12 3.47368C11.474 3.47368 11.0476 3.89784 11.0476 4.42105C11.0476 4.94427 11.474 5.36842 12 5.36842Z" fill="white"/>
<path fill-rule="evenodd" clip-rule="evenodd" d="M4.85714 8.21053C4.85714 8.99535 4.21755 9.63158 3.42857 9.63158C2.63959 9.63158 2 8.99535 2 8.21053C2 7.4257 2.63959 6.78947 3.42857 6.78947C4.21755 6.78947 4.85714 7.4257 4.85714 8.21053ZM3.42857 9.1579C3.95456 9.1579 4.38095 8.73374 4.38095 8.21053C4.38095 7.68731 3.95456 7.26316 3.42857 7.26316C2.90259 7.26316 2.47619 7.68731 2.47619 8.21053C2.47619 8.73374 2.90259 9.1579 3.42857 9.1579Z" fill="white"/>
<path fill-rule="evenodd" clip-rule="evenodd" d="M22 8.21053C22 8.99535 21.3604 9.63158 20.5714 9.63158C19.7824 9.63158 19.1429 8.99535 19.1429 8.21053C19.1429 7.4257 19.7824 6.78947 20.5714 6.78947C21.3604 6.78947 22 7.4257 22 8.21053ZM20.5714 9.1579C21.0974 9.1579 21.5238 8.73374 21.5238 8.21053C21.5238 7.68731 21.0974 7.26316 20.5714 7.26316C20.0454 7.26316 19.619 7.68731 19.619 8.21053C19.619 8.73374 20.0454 9.1579 20.5714 9.1579Z" fill="white"/>
<path fill-rule="evenodd" clip-rule="evenodd" d="M13.4286 12C13.4286 12.7848 12.789 13.4211 12 13.4211C11.211 13.4211 10.5714 12.7848 10.5714 12C10.5714 11.2152 11.211 10.5789 12 10.5789C12.789 10.5789 13.4286 11.2152 13.4286 12ZM12 12.9474C12.526 12.9474 12.9524 12.5232 12.9524 12C12.9524 11.4768 12.526 11.0526 12 11.0526C11.474 11.0526 11.0476 11.4768 11.0476 12C11.0476 12.5232 11.474 12.9474 12 12.9474Z" fill="white"/>
<path fill-rule="evenodd" clip-rule="evenodd" d="M4.85714 15.7895C4.85714 16.5743 4.21755 17.2105 3.42857 17.2105C2.63959 17.2105 2 16.5743 2 15.7895C2 15.0046 2.63959 14.3684 3.42857 14.3684C4.21755 14.3684 4.85714 15.0046 4.85714 15.7895ZM3.42857 16.7368C3.95456 16.7368 4.38095 16.3127 4.38095 15.7895C4.38095 15.2663 3.95456 14.8421 3.42857 14.8421C2.90259 14.8421 2.47619 15.2663 2.47619 15.7895C2.47619 16.3127 2.90259 16.7368 3.42857 16.7368Z" fill="white"/>
<path fill-rule="evenodd" clip-rule="evenodd" d="M22 15.7895C22 16.5743 21.3604 17.2105 20.5714 17.2105C19.7824 17.2105 19.1429 16.5743 19.1429 15.7895C19.1429 15.0046 19.7824 14.3684 20.5714 14.3684C21.3604 14.3684 22 15.0046 22 15.7895ZM20.5714 16.7368C21.0974 16.7368 21.5238 16.3127 21.5238 15.7895C21.5238 15.2663 21.0974 14.8421 20.5714 14.8421C20.0454 14.8421 19.619 15.2663 19.619 15.7895C19.619 16.3127 20.0454 16.7368 20.5714 16.7368Z" fill="white"/>
<path fill-rule="evenodd" clip-rule="evenodd" d="M13.4286 19.5789C13.4286 20.3638 12.789 21 12 21C11.211 21 10.5714 20.3638 10.5714 19.5789C10.5714 18.7941 11.211 18.1579 12 18.1579C12.789 18.1579 13.4286 18.7941 13.4286 19.5789ZM12 20.5263C12.526 20.5263 12.9524 20.1022 12.9524 19.5789C12.9524 19.0557 12.526 18.6316 12 18.6316C11.474 18.6316 11.0476 19.0557 11.0476 19.5789C11.0476 20.1022 11.474 20.5263 12 20.5263Z" fill="white"/>
<path fill-rule="evenodd" clip-rule="evenodd" d="M4.50022 7.57729L10.78 4.6554L10.9817 5.08447L4.70198 8.00636L4.50022 7.57729Z" fill="white"/>
<path fill-rule="evenodd" clip-rule="evenodd" d="M19.5531 7.57729L13.2734 4.6554L13.0717 5.08447L19.3514 8.00636L19.5531 7.57729Z" fill="white"/>
<path fill-rule="evenodd" clip-rule="evenodd" d="M4.50022 8.87395L10.78 11.7958L10.9817 11.3668L4.70198 8.44488L4.50022 8.87395Z" fill="white"/>
<path fill-rule="evenodd" clip-rule="evenodd" d="M19.5531 8.87395L13.2734 11.7958L13.0717 11.3668L19.3514 8.44488L19.5531 8.87395Z" fill="white"/>
<path fill-rule="evenodd" clip-rule="evenodd" d="M4.50022 15.1562L10.78 12.2344L10.9817 12.6634L4.70198 15.5853L4.50022 15.1562Z" fill="white"/>
<path fill-rule="evenodd" clip-rule="evenodd" d="M19.5531 15.1562L13.2734 12.2344L13.0717 12.6634L19.3514 15.5853L19.5531 15.1562Z" fill="white"/>
<path fill-rule="evenodd" clip-rule="evenodd" d="M4.50022 16.4529L10.78 19.3748L10.9817 18.9457L4.70198 16.0238L4.50022 16.4529Z" fill="white"/>
<path fill-rule="evenodd" clip-rule="evenodd" d="M19.5531 16.4529L13.2734 19.3748L13.0717 18.9457L19.3514 16.0238L19.5531 16.4529Z" fill="white"/>
</svg>
