<svg width="24" height="24" viewBox="0 0 24 24" fill="none" xmlns="http://www.w3.org/2000/svg">
<path fill-rule="evenodd" clip-rule="evenodd" d="M11.8621 2.05709C11.9385 1.98095 12.062 1.98097 12.1383 2.05715L13.4404 3.35653C13.5169 3.4329 13.5171 3.55693 13.4409 3.63354C13.3646 3.71016 13.2407 3.71036 13.1642 3.63399L12.1958 2.66768V5.15123L17.1731 8.14368L18.5041 7.34334C18.3534 6.97719 18.3725 6.54693 18.5938 6.18209C18.9635 5.56972 19.7604 5.37313 20.3726 5.74295C20.986 6.11176 21.1839 6.90776 20.8127 7.51969C20.4429 8.13202 19.646 8.32866 19.0338 7.95883C18.9062 7.88211 18.7966 7.78691 18.7064 7.67873L17.3688 8.48301V14.34L18.7063 15.1434C18.7966 15.0351 18.9063 14.9398 19.034 14.8631C19.6463 14.4933 20.4432 14.6901 20.8128 15.3025C21.1839 15.9145 20.9859 16.7105 20.3724 17.0792C19.7602 17.4489 18.9635 17.2522 18.5938 16.6399C18.3725 16.2751 18.3534 15.8449 18.5041 15.4788L17.1732 14.6794L12.1958 17.6708V20.332L13.1641 19.365C13.2406 19.2886 13.3645 19.2887 13.4408 19.3653C13.5171 19.4419 13.517 19.5659 13.4405 19.6423L12.1383 20.9428C12.062 21.019 11.9384 21.0191 11.862 20.9429L10.5589 19.6424C10.4823 19.566 10.4821 19.442 10.5584 19.3654C10.6347 19.2888 10.7586 19.2886 10.8351 19.3649L11.8045 20.3323V17.6709L6.82717 14.6794L5.49569 15.4791C5.64605 15.8451 5.62722 16.2751 5.40678 16.6397C5.03705 17.2523 4.24012 17.4488 3.62695 17.0792C3.01447 16.7104 2.81658 15.9144 3.18654 15.3026L3.1866 15.3025C3.55728 14.6901 4.35302 14.4933 4.96646 14.8631C5.094 14.9399 5.20355 15.0352 5.29374 15.1436L6.63155 14.34V8.48301L5.29362 7.67852C5.20341 7.78685 5.09384 7.88218 4.96628 7.95898C4.35285 8.32869 3.55717 8.13181 3.18651 7.51953L3.18646 7.51944C2.8165 6.90755 3.01438 6.11155 3.62687 5.7428C4.24008 5.3732 5.0371 5.56972 5.40679 6.18251C5.62715 6.54709 5.64595 6.97702 5.49558 7.34297L6.82721 8.14368L11.8045 5.15121V2.66741L10.8351 3.63405C10.7585 3.71039 10.6346 3.71014 10.5584 3.63349C10.4821 3.55684 10.4824 3.43282 10.5589 3.35648L11.8621 2.05709ZM11.8045 5.60818L7.20728 8.37214L12.0001 11.2528L16.793 8.37214L12.1958 5.6082V8.37218C12.1958 8.48036 12.1082 8.56806 12.0002 8.56806C11.8921 8.56806 11.8045 8.48036 11.8045 8.37218V5.60818ZM16.9775 8.71822L12.1958 11.5921V14.6251C12.1958 14.626 12.1958 14.6269 12.1958 14.6278V17.2139L16.9775 14.3401V8.71822ZM11.8045 17.2139V11.5921L7.02286 8.71822V14.3401L11.8045 17.2139ZM20.1705 6.07838C19.7429 5.82007 19.1863 5.95772 18.9285 6.38504L18.9282 6.38546C18.67 6.81115 18.8071 7.36576 19.2356 7.62316L19.236 7.6234C19.6636 7.88171 20.2202 7.74403 20.478 7.31673L20.4782 7.31633C20.7365 6.89064 20.5993 6.33602 20.1709 6.07862L20.1705 6.07838ZM5.07184 6.38504C4.81412 5.95784 4.25749 5.81993 3.82863 6.07847L3.82853 6.07853C3.40106 6.33588 3.26373 6.89072 3.52121 7.31658C3.78011 7.74413 4.33584 7.88172 4.76453 7.62331L4.76462 7.62325C5.19209 7.3659 5.32942 6.81106 5.07194 6.3852L5.07184 6.38504ZM3.52124 15.5055C3.26384 15.9313 3.40117 16.4861 3.82862 16.7435L3.82871 16.7436C4.25756 17.0021 4.8142 16.8642 5.07193 16.437L5.07202 16.4368C5.3295 16.011 5.19218 15.4561 4.76471 15.1988L4.7646 15.1987C4.33592 14.9403 3.78019 15.0779 3.52129 15.5054M20.478 15.5053C20.2202 15.078 19.6636 14.9403 19.236 15.1986L19.2356 15.1989C18.8071 15.4563 18.67 16.0109 18.9282 16.4366L18.9285 16.437C19.1863 16.8643 19.7429 17.002 20.1705 16.7437L20.1709 16.7434C20.5993 16.486 20.7365 15.9314 20.4782 15.5057L20.478 15.5053Z" fill="white"/>
</svg>
