<svg width="24" height="24" viewBox="0 0 24 24" fill="none" xmlns="http://www.w3.org/2000/svg">
<path fill-rule="evenodd" clip-rule="evenodd" d="M9.36154 3C9.4816 3 9.57893 3.09263 9.57893 3.2069V3.62808H13.2583C13.3404 3.62808 13.4154 3.67204 13.4524 3.74174C13.4894 3.81144 13.482 3.89502 13.4333 3.95784L12.5543 5.09113L13.4333 6.22442C13.482 6.28725 13.4894 6.37082 13.4524 6.44053C13.4154 6.51023 13.3404 6.55419 13.2583 6.55419H9.57893V8.8048L12.1598 13.1159C12.1644 13.1206 12.1687 13.1256 12.1729 13.1307C12.1893 13.1512 12.2011 13.1737 12.2084 13.197L13.6036 15.5276L15.7479 11.8986C15.7854 11.8351 15.8553 11.7951 15.9318 11.7932C16.0083 11.7913 16.0802 11.8278 16.1211 11.8894L21.9663 20.6825C22.0087 20.7462 22.0113 20.8268 21.973 20.8929C21.9348 20.959 21.8618 21 21.7826 21H2.21739C2.13995 21 2.06835 20.9608 2.02944 20.8971C1.99052 20.8333 1.99017 20.7547 2.02851 20.6907L9.14415 8.8048V3.2069C9.14415 3.09263 9.24148 3 9.36154 3ZM9.57893 4.04187V6.14039H12.8277L12.1092 5.214C12.0526 5.14096 12.0526 5.04131 12.1092 4.96827L12.8277 4.04187H9.57893ZM9.36154 9.27754L7.02406 13.182L8.10119 13.9396L9.27036 13.0916C9.34819 13.0351 9.45606 13.0351 9.5339 13.0916L10.7011 13.9381L11.7125 13.2046L9.36154 9.27754ZM11.9297 13.5673L10.8328 14.3628C10.755 14.4193 10.6471 14.4193 10.5693 14.3628L9.40213 13.5163L8.23496 14.3628C8.15808 14.4186 8.05174 14.4193 7.97399 14.3647L6.8073 13.5441L2.59145 20.5862H16.1316L13.4178 16.0531C13.4166 16.0511 13.4154 16.0492 13.4143 16.0472L11.9297 13.5673ZM13.8546 15.9469L16.632 20.5862H21.3878L15.9484 12.4035L13.8546 15.9469Z" fill="white"/>
</svg>
