<svg width="24" height="24" viewBox="0 0 24 24" fill="none" xmlns="http://www.w3.org/2000/svg">
<path fill-rule="evenodd" clip-rule="evenodd" d="M12 2.37736C11.2861 2.37736 10.7074 2.94851 10.7074 3.65305C10.7074 3.6947 10.7094 3.73582 10.7133 3.77634C10.776 4.42295 11.3283 4.92875 12 4.92875C12.6813 4.92875 13.2397 4.40843 13.2891 3.74861C13.2915 3.71709 13.2927 3.68523 13.2927 3.65305C13.2927 2.94851 12.7139 2.37736 12 2.37736ZM10.3251 3.64008C10.3321 2.7331 11.0793 2 12 2C12.9085 2 13.648 2.71374 13.6743 3.60402C15.623 3.95278 17.3478 4.93484 18.6221 6.32582C19.4 5.97003 20.3383 6.2531 20.7753 7C21.2 7.72591 21.0034 8.63747 20.3483 9.13524C20.6999 10.0736 20.8919 11.0881 20.8919 12.1464C20.8919 13.12 20.7294 14.0565 20.4297 14.9307C21.019 15.4401 21.1819 16.305 20.7753 17C20.374 17.6859 19.55 17.9806 18.8156 17.7486C17.5174 19.264 15.702 20.3348 13.6377 20.6953C13.4755 21.441 12.804 22 12 22C11.1829 22 10.5026 21.4227 10.3548 20.6587C8.34808 20.2614 6.5886 19.1906 5.32847 17.6958C4.56059 18.0178 3.65244 17.7311 3.22471 17C2.78552 16.2493 3.01083 15.2999 3.72053 14.8151C3.44554 13.9741 3.29705 13.0772 3.29705 12.1464C3.29705 11.1265 3.47534 10.1473 3.80297 9.23773C3.02877 8.77211 2.76891 7.77908 3.22469 7C3.68613 6.21123 4.7068 5.93975 5.5071 6.3917C6.74596 5.01155 8.42371 4.02327 10.3251 3.64008ZM10.3658 4.0171C8.57448 4.38617 6.99195 5.31755 5.81658 6.61612C6.37617 7.12915 6.52398 7.9726 6.1259 8.65305C5.72195 9.34354 4.88963 9.63755 4.1515 9.39699C3.84576 10.2573 3.67943 11.1825 3.67943 12.1464C3.67943 13.0134 3.81399 13.8491 4.06351 14.6344C4.82236 14.3395 5.70585 14.6289 6.12593 15.3469C6.55754 16.0847 6.34739 17.0143 5.66642 17.5063C6.84721 18.8841 8.47424 19.8769 10.3269 20.2677C10.3688 19.3915 11.1018 18.6939 12 18.6939C12.9109 18.6939 13.6519 19.4114 13.6745 20.305C15.5688 19.9499 17.2386 18.9679 18.4537 17.5855C17.6785 17.1202 17.418 16.1265 17.8741 15.3469C18.325 14.5762 19.3099 14.2994 20.1014 14.7088C20.3663 13.902 20.5095 13.0409 20.5095 12.1464C20.5095 11.1586 20.3348 10.2114 20.0144 9.33307C19.2391 9.67988 18.3086 9.39583 17.8741 8.65305C17.4518 7.9313 17.6438 7.02593 18.2899 6.52637C17.0833 5.2316 15.4658 4.31634 13.6419 3.98181C13.4874 4.73734 12.8111 5.30611 12 5.30611C11.2016 5.30611 10.5339 4.75498 10.3658 4.0171ZM5.32162 6.72174C4.70336 6.36947 3.91279 6.57852 3.55583 7.18868C3.19888 7.79883 3.41071 8.57904 4.02897 8.93131C4.05942 8.94866 4.09026 8.96463 4.1214 8.97926C4.72383 9.2621 5.45538 9.04449 5.79476 8.46437C6.12966 7.89191 5.96385 7.16951 5.43142 6.7917C5.39643 6.76688 5.35983 6.74351 5.32162 6.72174ZM20.4442 7.18868C20.0872 6.57852 19.2966 6.36947 18.6784 6.72174L18.6743 6.72408C18.0592 7.07744 17.8491 7.85556 18.2052 8.46437C18.5622 9.07453 19.3528 9.28358 19.971 8.93131C19.9858 8.92286 20.0004 8.91417 20.0148 8.90525C20.5991 8.54182 20.7926 7.7842 20.4442 7.18868ZM5.79478 15.5356C5.4405 14.93 4.65903 14.7195 4.04291 15.0609L4.029 15.0687C3.41073 15.4209 3.1989 16.2012 3.55586 16.8113C3.90679 17.4112 4.67693 17.6234 5.29023 17.2956C5.30074 17.29 5.31121 17.2842 5.32164 17.2782C5.9399 16.926 6.15174 16.1458 5.79478 15.5356ZM19.971 15.0687C19.3528 14.7164 18.5622 14.9255 18.2052 15.5356C17.8483 16.1458 18.0601 16.926 18.6784 17.2783C18.7275 17.3062 18.7776 17.3307 18.8285 17.3516C19.4192 17.5949 20.1156 17.373 20.4442 16.8113C20.7768 16.2428 20.6155 15.5263 20.0917 15.1465C20.0534 15.1187 20.0132 15.0927 19.971 15.0687ZM12 19.0712C11.2861 19.0712 10.7073 19.6424 10.7073 20.3469C10.7073 20.3917 10.7097 20.4359 10.7142 20.4794C10.7812 21.1216 11.3315 21.6226 12 21.6226C12.6586 21.6226 13.2023 21.1364 13.2825 20.508C13.2892 20.4553 13.2926 20.4016 13.2926 20.3469C13.2926 19.6424 12.7139 19.0712 12 19.0712Z" fill="white"/>
</svg>
