<svg width="24" height="24" viewBox="0 0 24 24" fill="none" xmlns="http://www.w3.org/2000/svg">
<path fill-rule="evenodd" clip-rule="evenodd" d="M2 3.17668C2 2.52682 2.52682 2 3.17668 2C3.76699 2 4.25573 2.43465 4.34039 3.00134C4.3514 2.99921 4.36277 2.9981 4.3744 2.9981H7.20655C7.6355 2.9981 8.03186 3.22694 8.24633 3.59842L9.33708 5.48767H14.663L15.7537 3.59842C15.9682 3.22694 16.3645 2.9981 16.7935 2.9981H19.6256C19.6373 2.9981 19.6486 2.99921 19.6597 3.00134C19.7443 2.43465 20.233 2 20.8233 2C21.4732 2 22 2.52683 22 3.17668C22 3.82653 21.4732 4.35336 20.8233 4.35336C20.233 4.35336 19.7443 3.91871 19.6597 3.35201C19.6486 3.35413 19.6373 3.35524 19.6256 3.35524H16.7935C16.4921 3.35524 16.2137 3.51601 16.063 3.77699L15.0134 5.59497L17.7906 8.37213C17.8241 8.40562 17.8429 8.45104 17.8429 8.4984C17.8429 8.62577 17.8423 8.75311 17.841 8.88033H19.6256C19.6373 8.88033 19.6486 8.88144 19.6597 8.88357C19.7443 8.31684 20.233 7.88222 20.8233 7.88222C21.4732 7.88222 22 8.409 22 9.0589C22 9.70875 21.4732 10.2356 20.8233 10.2356C20.233 10.2356 19.7443 9.80093 19.6597 9.23423C19.6486 9.23636 19.6373 9.23747 19.6256 9.23747H17.8353C17.7952 11.0865 17.5858 12.8974 16.9238 14.4452C17.0572 14.6427 17.2806 14.7625 17.5212 14.7625H19.6256C19.6373 14.7625 19.6486 14.7637 19.6597 14.7658C19.7443 14.1991 20.233 13.7644 20.8233 13.7644C21.4732 13.7644 22 14.2912 22 14.9411C22 15.591 21.4732 16.1178 20.8233 16.1178C20.233 16.1178 19.7443 15.6831 19.6597 15.1164C19.6486 15.1186 19.6373 15.1197 19.6256 15.1197H17.5212C17.2318 15.1197 16.959 15.0037 16.7595 14.8045C16.3453 15.6531 15.7816 16.4098 15.0218 17.0366L16.8615 20.223C17.0122 20.484 17.2907 20.6448 17.592 20.6448H19.6256C19.6373 20.6448 19.6486 20.6459 19.6597 20.648C19.7443 20.0813 20.233 19.6466 20.8233 19.6466C21.4732 19.6466 22 20.1735 22 20.8233C22 21.4732 21.4732 22 20.8233 22C20.233 22 19.7443 21.5653 19.6597 20.9987C19.6486 21.0008 19.6373 21.0019 19.6256 21.0019H17.592C17.1631 21.0019 16.7667 20.7731 16.5522 20.4016L14.7374 17.2583C14.0135 17.7914 13.1276 18.2165 12.0462 18.5063C12.016 18.5144 11.9841 18.5144 11.9538 18.5063C10.8724 18.2165 9.98652 17.7914 9.26258 17.2583L7.4478 20.4016C7.23332 20.7731 6.83696 21.0019 6.40802 21.0019H4.37439C4.36276 21.0019 4.3514 21.0008 4.34039 20.9987C4.25573 21.5654 3.76699 22 3.17668 22C2.52682 22 2 21.4732 2 20.8233C2 20.1735 2.52682 19.6466 3.17668 19.6466C3.767 19.6466 4.25573 20.0813 4.34039 20.648C4.3514 20.6459 4.36277 20.6448 4.37439 20.6448H6.40802C6.70937 20.6448 6.98783 20.484 7.1385 20.223L8.97819 17.0366C8.21843 16.4097 7.65474 15.653 7.24055 14.8045C7.04108 15.0037 6.76824 15.1197 6.47888 15.1197H4.3744C4.36277 15.1197 4.3514 15.1186 4.34039 15.1164C4.25573 15.6831 3.767 16.1178 3.17668 16.1178C2.52682 16.1178 2 15.591 2 14.9411C2 14.2912 2.52683 13.7644 3.17668 13.7644C3.76699 13.7644 4.25573 14.1991 4.34039 14.7658C4.3514 14.7637 4.36277 14.7625 4.3744 14.7625H6.47888C6.7194 14.7625 6.94286 14.6427 7.07622 14.4451C6.41427 12.8974 6.20484 11.0865 6.1648 9.23747H4.3744C4.36277 9.23747 4.3514 9.23636 4.34039 9.23424C4.25573 9.80093 3.767 10.2356 3.17668 10.2356C2.52682 10.2356 2 9.70876 2 9.0589C2 8.409 2.52683 7.88222 3.17668 7.88222C3.767 7.88222 4.25573 8.31684 4.34039 8.88356C4.3514 8.88144 4.36277 8.88033 4.3744 8.88033H6.1591C6.15777 8.75311 6.15715 8.62577 6.15715 8.4984C6.15715 8.45104 6.17596 8.40562 6.20945 8.37213L8.98663 5.59495L7.93704 3.77699C7.78636 3.51601 7.5079 3.35524 7.20655 3.35524H4.3744C4.36277 3.35524 4.3514 3.35413 4.34039 3.35201C4.25573 3.91871 3.767 4.35336 3.17668 4.35336C2.52682 4.35336 2 3.82654 2 3.17668ZM9.24184 5.84482L6.51436 8.5723C6.51851 10.7083 6.70502 12.7755 7.47802 14.471C8.24958 16.1632 9.61046 17.4962 12 18.1488C14.3896 17.4962 15.7505 16.1632 16.522 14.471C17.295 12.7755 17.4816 10.7083 17.4857 8.5723L14.7582 5.84482H9.24184ZM3.17668 2.35714C2.72407 2.35714 2.35714 2.72407 2.35714 3.17668C2.35714 3.62929 2.72407 3.99622 3.17668 3.99622C3.62933 3.99622 3.99622 3.6293 3.99622 3.17668C3.99622 2.72406 3.62933 2.35714 3.17668 2.35714ZM20.8233 2.35714C20.3707 2.35714 20.0038 2.72406 20.0038 3.17668C20.0038 3.6293 20.3707 3.99622 20.8233 3.99622C21.276 3.99622 21.6429 3.6293 21.6429 3.17668C21.6429 2.72406 21.276 2.35714 20.8233 2.35714ZM13.4679 8.25156C12.6572 7.44084 11.3428 7.44084 10.5321 8.25156L10.4058 8.12529L10.5321 8.25156C9.72139 9.06224 9.72139 10.3767 10.5321 11.1874C10.7404 11.3956 10.9816 11.55 11.2388 11.6512C11.3071 11.6781 11.352 11.744 11.352 11.8174V15.8308L12.2113 16.321L13.0239 15.6955V15.0637L12.6456 14.8419C12.591 14.8098 12.5574 14.7513 12.5574 14.6879L12.557 13.9999C12.557 13.933 12.5943 13.8717 12.6538 13.8411L13.0239 13.6504V12.9117L12.6459 12.6959C12.5903 12.6642 12.5559 12.605 12.5559 12.541L12.5554 11.8517C12.5553 11.7754 12.6038 11.7075 12.676 11.6827C12.9651 11.5834 13.2368 11.4185 13.4679 11.1874C14.2786 10.3767 14.2786 9.06224 13.4679 8.25156L13.5942 8.12529L13.4679 8.25156ZM10.2796 7.99902C11.2298 7.04883 12.7703 7.04883 13.7205 7.99902C14.6707 8.94917 14.6707 10.4897 13.7205 11.4399C13.4823 11.6781 13.2067 11.8566 12.9126 11.9754L12.913 12.4371L13.291 12.653C13.3466 12.6848 13.381 12.744 13.381 12.8081V13.7593C13.381 13.8262 13.3436 13.8874 13.2842 13.918L12.9142 14.1087L12.9145 14.5855L13.2928 14.8073C13.3474 14.8394 13.381 14.898 13.381 14.9614V15.7833C13.381 15.8388 13.3553 15.891 13.3114 15.9248L12.335 16.6765C12.278 16.7205 12.2001 16.7258 12.1376 16.6901L11.0849 16.0896C11.0292 16.0578 10.9948 15.9986 10.9948 15.9345V11.9357C10.7355 11.8181 10.4925 11.6529 10.2796 11.4399C9.32938 10.4897 9.32938 8.94917 10.2796 7.99902ZM3.17668 8.23936C2.72406 8.23936 2.35714 8.60625 2.35714 9.0589C2.35714 9.51151 2.72407 9.87844 3.17668 9.87844C3.62933 9.87844 3.99622 9.51152 3.99622 9.0589C3.99622 8.60625 3.62933 8.23936 3.17668 8.23936ZM20.8233 8.23936C20.3707 8.23936 20.0038 8.60624 20.0038 9.0589C20.0038 9.51152 20.3707 9.87844 20.8233 9.87844C21.276 9.87844 21.6429 9.51152 21.6429 9.0589C21.6429 8.60625 21.276 8.23936 20.8233 8.23936ZM3.17668 14.1216C2.72406 14.1216 2.35714 14.4885 2.35714 14.9411C2.35714 15.3937 2.72407 15.7607 3.17668 15.7607C3.62933 15.7607 3.99622 15.3937 3.99622 14.9411C3.99622 14.4885 3.62933 14.1216 3.17668 14.1216ZM20.8233 14.1216C20.3707 14.1216 20.0038 14.4885 20.0038 14.9411C20.0038 15.3937 20.3707 15.7607 20.8233 15.7607C21.276 15.7607 21.6429 15.3937 21.6429 14.9411C21.6429 14.4885 21.276 14.1216 20.8233 14.1216ZM3.17668 20.0038C2.72407 20.0038 2.35714 20.3707 2.35714 20.8233C2.35714 21.2759 2.72407 21.6429 3.17668 21.6429C3.62933 21.6429 3.99622 21.2759 3.99622 20.8233C3.99622 20.3707 3.62933 20.0038 3.17668 20.0038ZM20.8233 20.0038C20.3707 20.0038 20.0038 20.3707 20.0038 20.8233C20.0038 21.2759 20.3707 21.6429 20.8233 21.6429C21.276 21.6429 21.6429 21.2759 21.6429 20.8233C21.6429 20.3707 21.276 20.0038 20.8233 20.0038Z" fill="white"/>
</svg>
