<svg width="24" height="24" viewBox="0 0 24 24" fill="none" xmlns="http://www.w3.org/2000/svg">
<path fill-rule="evenodd" clip-rule="evenodd" d="M3.73886 3.43902C3.39427 3.43902 3.06299 3.57972 2.81811 3.83146C2.57311 4.08334 2.43478 4.42578 2.43478 4.78365C2.43478 4.78365 2.43478 4.78365 2.43478 4.78365L2.43486 9.50157C2.43486 9.85945 2.57318 10.2019 2.81819 10.4538C3.06306 10.7055 3.39435 10.8462 3.73894 10.8462L11.4565 10.8462V10.8576C12.4238 9.74147 13.8449 9.03659 15.4291 9.03659C16.6812 9.03659 17.8314 9.47691 18.7362 10.2126V4.78366C18.7362 4.42578 18.5978 4.08334 18.3528 3.83146C18.108 3.57972 17.7767 3.43902 17.4321 3.43902H3.73886ZM19.171 10.6079C19.171 10.6078 19.171 10.608 19.171 10.6079L19.171 4.78366C19.171 4.31186 18.9887 3.85861 18.663 3.52382C18.3372 3.1889 17.8945 3 17.4321 3H3.73886C3.27641 3 2.83371 3.1889 2.50793 3.52382C2.18227 3.85861 2 4.31186 2 4.78366L2.00008 9.50158C2.00008 9.97337 2.18235 10.4266 2.508 10.7614C2.62594 10.8827 2.7592 10.9848 2.90318 11.0657C2.75917 11.1467 2.62588 11.2488 2.50793 11.37C2.18227 11.7048 2 12.1581 2 12.6299L2.00008 17.3478C2.00008 17.8196 2.18235 18.2728 2.508 18.6076C2.83379 18.9425 3.27649 19.1314 3.73894 19.1314H13.0678C13.7783 19.491 14.5803 19.6934 15.4291 19.6934C16.8053 19.6934 18.0584 19.1614 18.9979 18.29L21.6292 20.936C21.7143 21.0216 21.8519 21.0213 21.9366 20.9354C22.0214 20.8495 22.0211 20.7105 21.936 20.6249L19.3058 17.98C20.1749 17.0302 20.706 15.7602 20.706 14.365C20.706 12.899 20.1197 11.5713 19.171 10.6079ZM12.3496 18.6924C11.0187 17.7251 10.1522 16.1472 10.1522 14.365C10.1522 13.2176 10.5113 12.1549 11.1224 11.2852L3.73894 11.2852C3.39434 11.2852 3.06298 11.4259 2.81811 11.6777C2.57311 11.9295 2.43478 12.272 2.43478 12.6299L2.43486 17.3478C2.43486 17.7057 2.57318 18.0481 2.81819 18.3C3.06306 18.5517 3.39435 18.6924 3.73894 18.6924L12.3496 18.6924ZM6.40145 5.85324C5.86129 5.85324 5.4234 6.29541 5.4234 6.84084C5.4234 7.38628 5.86129 7.82844 6.40145 7.82844C6.94162 7.82844 7.37951 7.38628 7.37951 6.84084C7.37951 6.29541 6.94162 5.85324 6.40145 5.85324ZM4.98862 6.84084C4.98862 6.05294 5.62116 5.41422 6.40145 5.41422C7.18174 5.41422 7.81429 6.05294 7.81429 6.84084C7.81429 7.62875 7.18174 8.26746 6.40145 8.26746C5.62116 8.26746 4.98862 7.62874 4.98862 6.84084ZM11.1832 5.85324C10.6431 5.85324 10.2052 6.29541 10.2052 6.84084C10.2052 7.38628 10.6431 7.82844 11.1832 7.82844C11.7234 7.82844 12.1613 7.38628 12.1613 6.84084C12.1613 6.29541 11.7234 5.85324 11.1832 5.85324ZM9.7704 6.84084C9.7704 6.05294 10.4029 5.41422 11.1832 5.41422C11.9635 5.41422 12.5961 6.05294 12.5961 6.84084C12.5961 7.62875 11.9635 8.26746 11.1832 8.26746C10.4029 8.26746 9.7704 7.62874 9.7704 6.84084ZM15.4291 9.47561C12.7549 9.47561 10.587 11.6647 10.587 14.365C10.587 17.0653 12.7549 19.2544 15.4291 19.2544C18.1033 19.2544 20.2712 17.0653 20.2712 14.365C20.2712 11.6647 18.1033 9.47561 15.4291 9.47561ZM15.9976 11.9905C16.114 12.0199 16.1849 12.1391 16.1557 12.2567L15.0688 16.6469C15.0397 16.7646 14.9216 16.8361 14.8052 16.8067C14.6887 16.7773 14.6179 16.6581 14.647 16.5405L15.7339 12.1502C15.7631 12.0326 15.8811 11.9611 15.9976 11.9905ZM13.3812 13.1458C13.4661 13.2315 13.4661 13.3705 13.3812 13.4562L12.4479 14.3986L13.3812 15.3409C13.4661 15.4266 13.4661 15.5656 13.3812 15.6514C13.2963 15.7371 13.1586 15.7371 13.0737 15.6514L11.9868 14.5538C11.9019 14.4681 11.9019 14.3291 11.9868 14.2434L13.0737 13.1458C13.1586 13.0601 13.2963 13.0601 13.3812 13.1458ZM17.4216 13.1458C17.5064 13.0601 17.6441 13.0601 17.729 13.1458L18.8159 14.2434C18.8567 14.2845 18.8796 14.3404 18.8796 14.3986C18.8796 14.4568 18.8567 14.5126 18.8159 14.5538L17.729 15.6514C17.6441 15.7371 17.5064 15.7371 17.4216 15.6514C17.3367 15.5656 17.3367 15.4266 17.4216 15.3409L18.3548 14.3986L17.4216 13.4562C17.3367 13.3705 17.3367 13.2315 17.4216 13.1458ZM6.40145 13.6995C5.86129 13.6995 5.4234 14.1416 5.4234 14.6871C5.4234 15.2325 5.86129 15.6746 6.40145 15.6746C6.94162 15.6746 7.37951 15.2325 7.37951 14.6871C7.37951 14.1416 6.94162 13.6995 6.40145 13.6995ZM4.98862 14.6871C4.98862 13.8992 5.62116 13.2604 6.40145 13.2604C7.18174 13.2604 7.81429 13.8992 7.81429 14.6871C7.81429 15.475 7.18174 16.1137 6.40145 16.1137C5.62116 16.1137 4.98862 15.475 4.98862 14.6871Z" fill="white"/>
</svg>
