<svg width="24" height="24" viewBox="0 0 24 24" fill="none" xmlns="http://www.w3.org/2000/svg">
<path fill-rule="evenodd" clip-rule="evenodd" d="M9.62737 2.18889C9.62737 2.08457 9.71447 2 9.82192 2H14.1781C14.2855 2 14.3726 2.08457 14.3726 2.18889C14.3726 2.29321 14.2855 2.37777 14.1781 2.37777H12.1946V4.52598C14.1883 4.56703 16.0225 5.23755 17.4948 6.34106L18.4553 5.03668L17.6857 4.51848C17.5974 4.45904 17.5755 4.34135 17.6367 4.25563C17.6979 4.16991 17.8191 4.14861 17.9074 4.20806L19.768 5.46083C19.8563 5.52028 19.8783 5.63797 19.817 5.72369C19.7558 5.80941 19.6346 5.83071 19.5463 5.77126L18.7751 5.25198L17.7982 6.57871C19.7562 8.18159 21 10.5808 21 13.262C21 18.0879 16.9706 22 12 22C7.02944 22 3 18.0879 3 13.262C3 8.49924 6.92472 4.62647 11.8054 4.52598V2.37777H9.82192C9.71447 2.37777 9.62737 2.29321 9.62737 2.18889ZM17.3804 6.73432C17.3912 6.7473 17.404 6.7591 17.4187 6.76928C17.4268 6.7749 17.4352 6.77983 17.4438 6.78408C19.3768 8.31716 20.6109 10.6497 20.6109 13.262C20.6109 17.8792 16.7557 21.6222 12 21.6222C7.24433 21.6222 3.3891 17.8792 3.3891 13.262C3.3891 8.64476 7.24433 4.90175 12 4.90175C14.0357 4.90175 15.9065 5.58762 17.3804 6.73432ZM11.8054 7.0741C11.8054 6.96978 11.8926 6.88521 12 6.88521C15.6274 6.88521 18.568 9.7402 18.568 13.262C18.568 13.3121 18.5475 13.3602 18.511 13.3956C18.4745 13.431 18.4251 13.4509 18.3735 13.4509L12 13.4509C11.8926 13.4509 11.8054 13.3663 11.8054 13.262V7.0741ZM12.1946 7.2659V13.0731L18.1759 13.0731C18.0751 9.91008 15.4524 7.36374 12.1946 7.2659ZM7.38534 8.78171C7.46131 8.70794 7.58449 8.70794 7.66047 8.7817L8.34243 9.44377C8.41841 9.51753 8.41842 9.63713 8.34244 9.7109C8.26647 9.78466 8.14329 9.78467 8.06731 9.7109L7.38534 9.04883C7.30937 8.97507 7.30936 8.85547 7.38534 8.78171ZM5.47394 13.262C5.47394 13.1577 5.56104 13.0731 5.66849 13.0731H6.63286C6.74031 13.0731 6.82741 13.1577 6.82741 13.262C6.82741 13.3663 6.74031 13.4509 6.63286 13.4509H5.66849C5.56104 13.4509 5.47394 13.3663 5.47394 13.262ZM8.34244 16.8131C8.41842 16.8869 8.41841 17.0065 8.34243 17.0802L7.66047 17.7423C7.58449 17.8161 7.46131 17.8161 7.38534 17.7423C7.30936 17.6685 7.30937 17.5489 7.38534 17.4752L8.06731 16.8131C8.14329 16.7394 8.26647 16.7394 8.34244 16.8131ZM15.6576 16.8131C15.7335 16.7394 15.8567 16.7394 15.9327 16.8131L16.6146 17.4752C16.6906 17.549 16.6906 17.6686 16.6146 17.7423C16.5386 17.8161 16.4155 17.8161 16.3395 17.7423L15.6576 17.0802C15.5816 17.0065 15.5816 16.8869 15.6576 16.8131ZM12 18.284C12.1074 18.284 12.1946 18.3686 12.1946 18.4729V19.4092C12.1946 19.5136 12.1074 19.5981 12 19.5981C11.8926 19.5981 11.8054 19.5136 11.8054 19.4092V18.4729C11.8054 18.3686 11.8926 18.284 12 18.284Z" fill="white"/>
</svg>
