<svg width="24" height="24" viewBox="0 0 24 24" fill="none" xmlns="http://www.w3.org/2000/svg">
<path fill-rule="evenodd" clip-rule="evenodd" d="M18.2118 7.7826C18.2055 7.7826 18.1993 7.78436 18.1939 7.78767C18.1886 7.79097 18.1843 7.79568 18.1815 7.80128L17.5141 9.14554C17.4839 9.20638 17.4256 9.24853 17.3582 9.25827L15.8646 9.47426C15.8587 9.47509 15.853 9.47756 15.8484 9.4814C15.8438 9.48525 15.8404 9.49031 15.8385 9.49601C15.8367 9.50171 15.8364 9.50781 15.8379 9.51363C15.8393 9.51945 15.8424 9.52474 15.8467 9.52891L16.927 10.5758C16.976 10.6233 16.9984 10.6918 16.9868 10.759L16.732 12.2355C16.7311 12.2415 16.7319 12.2476 16.7342 12.2532C16.7366 12.259 16.7406 12.264 16.7457 12.2676C16.7508 12.2713 16.7568 12.2735 16.7631 12.274C16.7693 12.2744 16.7755 12.2731 16.781 12.2703L18.1157 11.5728C18.1759 11.5413 18.2477 11.5413 18.3079 11.5728L19.6438 12.271C19.6492 12.2738 19.6553 12.2751 19.6614 12.2747C19.6675 12.2742 19.6733 12.2721 19.6783 12.2686C19.6832 12.265 19.687 12.2601 19.6893 12.2544C19.6916 12.2488 19.6923 12.2426 19.6913 12.2366L19.4368 10.7589C19.4252 10.6918 19.4476 10.6233 19.4965 10.5758L20.5761 9.52966C20.5804 9.52543 20.5835 9.51998 20.585 9.51413C20.5864 9.50822 20.5862 9.50203 20.5843 9.49625C20.5824 9.49047 20.5789 9.48533 20.5743 9.48142C20.5696 9.47751 20.5639 9.47497 20.5579 9.47411L19.0653 9.25827C18.998 9.24853 18.9397 9.20638 18.9095 9.14554L18.2421 7.80136C18.2393 7.79575 18.235 7.79097 18.2296 7.78767C18.2243 7.78436 18.2181 7.7826 18.2118 7.7826ZM17.9758 7.43655C18.0467 7.39276 18.1284 7.36956 18.2118 7.36956C18.2951 7.36956 18.3769 7.39276 18.4477 7.43655C18.5186 7.48035 18.5758 7.543 18.6129 7.61745L19.2323 8.86506L20.6169 9.06527C20.6993 9.07715 20.777 9.1118 20.8408 9.16527C20.9046 9.21879 20.9521 9.28906 20.978 9.36812C21.0038 9.44718 21.007 9.53188 20.9871 9.61264C20.9672 9.6934 20.9251 9.767 20.8654 9.82512L20.865 9.82552L19.8634 10.7962L20.0993 12.1663C20.1135 12.2484 20.1044 12.3328 20.0729 12.41C20.0415 12.4872 19.9889 12.5541 19.9213 12.603C19.8536 12.6519 19.7736 12.6809 19.6903 12.6867C19.6071 12.6925 19.524 12.675 19.4504 12.6362L19.4498 12.6359L18.2118 11.9889L16.9729 12.6363L16.9724 12.6366C16.8987 12.6749 16.8158 12.6919 16.733 12.6859C16.6502 12.6799 16.5707 12.651 16.5033 12.6026C16.436 12.5541 16.3835 12.4879 16.3517 12.4114C16.3199 12.3348 16.3101 12.251 16.3232 12.1692L16.3236 12.167L16.5602 10.7962L15.5589 9.82587C15.4988 9.7679 15.4562 9.69411 15.436 9.61319C15.4158 9.53221 15.4189 9.4472 15.4449 9.36787C15.4708 9.28855 15.5186 9.2181 15.5828 9.16456C15.6468 9.11119 15.7245 9.07678 15.807 9.06523L17.1912 8.86506L17.8105 7.61775C17.8476 7.5433 17.905 7.48035 17.9758 7.43655Z" fill="white"/>
<path fill-rule="evenodd" clip-rule="evenodd" d="M5.78893 7.7826C5.78262 7.7826 5.77644 7.78436 5.77108 7.78767C5.76574 7.79097 5.76143 7.79568 5.75862 7.80128L5.09123 9.14554C5.06102 9.20638 5.00276 9.24853 4.9354 9.25827L3.44175 9.47426C3.43579 9.47509 3.43019 9.47756 3.42558 9.4814C3.42097 9.48525 3.41754 9.49031 3.41568 9.49601C3.41381 9.50171 3.41359 9.50781 3.41504 9.51363C3.41649 9.51945 3.41955 9.52474 3.42387 9.52891L4.50416 10.5758C4.55316 10.6233 4.57552 10.6918 4.56393 10.759L4.30914 12.2355C4.30828 12.2415 4.30905 12.2476 4.31138 12.2532C4.31379 12.259 4.31776 12.264 4.32285 12.2676C4.32795 12.2713 4.33396 12.2735 4.34023 12.274C4.34643 12.2744 4.35264 12.2731 4.35817 12.2703L5.69284 11.5728C5.75302 11.5413 5.82484 11.5413 5.88502 11.5728L7.22093 12.271C7.22632 12.2738 7.23241 12.2751 7.23851 12.2747C7.2446 12.2742 7.25045 12.2721 7.2554 12.2686C7.26034 12.265 7.26418 12.2601 7.26648 12.2544C7.26878 12.2488 7.26945 12.2426 7.26841 12.2366L7.01391 10.7589C7.00235 10.6918 7.02472 10.6233 7.0737 10.5758L8.15321 9.52966C8.15751 9.52543 8.16067 9.51998 8.16211 9.51413C8.16356 9.50822 8.16333 9.50203 8.16144 9.49625C8.15955 9.49047 8.15607 9.48533 8.15141 9.48142C8.14674 9.47751 8.14107 9.47497 8.13504 9.47411L6.64246 9.25827C6.5751 9.24853 6.51684 9.20638 6.48663 9.14554L5.81928 7.80136C5.81647 7.79575 5.81212 7.79097 5.80678 7.78767C5.80142 7.78436 5.79524 7.7826 5.78893 7.7826ZM5.55299 7.43655C5.62386 7.39276 5.70557 7.36956 5.78893 7.36956C5.87229 7.36956 5.954 7.39276 6.02487 7.43655C6.09574 7.48035 6.15294 7.543 6.19006 7.61745L6.80947 8.86506L8.194 9.06527C8.27644 9.07715 8.35414 9.1118 8.4179 9.16527C8.48171 9.21879 8.52924 9.28906 8.5551 9.36812C8.58097 9.44718 8.58414 9.53188 8.56425 9.61264C8.54437 9.6934 8.50222 9.767 8.44258 9.82512L8.44217 9.82552L7.4405 10.7962L7.67645 12.1663C7.69069 12.2484 7.68155 12.3328 7.65008 12.41C7.61861 12.4872 7.56607 12.5541 7.49843 12.603C7.43078 12.6519 7.35075 12.6809 7.2674 12.6867C7.18428 12.6925 7.10119 12.675 7.02753 12.6362L7.02694 12.6359L5.78893 11.9889L4.55002 12.6363L4.54952 12.6366C4.47586 12.6749 4.39299 12.6919 4.31016 12.6859C4.22734 12.6799 4.14782 12.651 4.08049 12.6026C4.01316 12.5541 3.96066 12.4879 3.92886 12.4114C3.89705 12.3348 3.8872 12.251 3.90039 12.1692L3.90075 12.167L4.13733 10.7962L3.13605 9.82587C3.07599 9.7679 3.0333 9.69411 3.01316 9.61319C2.99299 9.53221 2.99606 9.4472 3.02201 9.36787C3.04796 9.28855 3.09575 9.2181 3.15992 9.16456C3.2239 9.11119 3.3016 9.07678 3.38419 9.06523L4.76839 8.86506L5.38765 7.61775C5.42476 7.5433 5.48212 7.48035 5.55299 7.43655Z" fill="white"/>
<path fill-rule="evenodd" clip-rule="evenodd" d="M12.0004 2.41304C11.9941 2.41304 11.9879 2.4148 11.9825 2.41811C11.9772 2.42141 11.9729 2.42612 11.9701 2.43173L11.3027 3.77598C11.2725 3.83682 11.2142 3.87897 11.1468 3.88871L9.65319 4.10471C9.64723 4.10553 9.64163 4.108 9.63702 4.11184C9.63241 4.11569 9.62898 4.12075 9.62712 4.12645C9.62525 4.13215 9.62503 4.13825 9.62648 4.14407C9.62793 4.14989 9.63099 4.15518 9.63531 4.15935L10.7156 5.20623C10.7646 5.25371 10.787 5.32224 10.7754 5.38939L10.5206 6.86591C10.5197 6.8719 10.5205 6.87802 10.5228 6.88362C10.5252 6.88941 10.5292 6.89442 10.5343 6.89809C10.5394 6.90175 10.5454 6.90394 10.5517 6.90439C10.5579 6.90484 10.5641 6.90358 10.5696 6.90075L11.9043 6.20324C11.9645 6.17179 12.0363 6.17179 12.0965 6.20324L13.4324 6.9014C13.4378 6.90425 13.4439 6.90554 13.4499 6.90512C13.456 6.90469 13.4619 6.90257 13.4668 6.89899C13.4718 6.89542 13.4756 6.89053 13.4779 6.88489C13.4802 6.87924 13.4809 6.87307 13.4799 6.86706L13.2254 5.38932C13.2138 5.32219 13.2362 5.2537 13.2851 5.20623L14.3647 4.1601C14.369 4.15587 14.3721 4.15042 14.3735 4.14457C14.375 4.13866 14.3748 4.13247 14.3729 4.12669C14.371 4.12091 14.3675 4.11577 14.3628 4.11186C14.3582 4.10795 14.3525 4.10542 14.3465 4.10455L12.8539 3.88871C12.7865 3.87897 12.7283 3.83682 12.6981 3.77598L12.0307 2.4318C12.0279 2.42619 12.0236 2.42141 12.0182 2.41811C12.0129 2.4148 12.0067 2.41304 12.0004 2.41304ZM11.7644 2.06699C11.8353 2.0232 11.917 2 12.0004 2C12.0837 2 12.1654 2.0232 12.2363 2.06699C12.3072 2.11079 12.3644 2.17344 12.4015 2.24789L13.0209 3.4955L14.4054 3.69572C14.4879 3.70759 14.5656 3.74224 14.6293 3.79572C14.6932 3.84923 14.7407 3.9195 14.7665 3.99856C14.7924 4.07762 14.7956 4.16232 14.7757 4.24308C14.7558 4.32384 14.7137 4.39744 14.654 4.45556L14.6536 4.45596L13.6519 5.42665L13.8879 6.7967C13.9021 6.87881 13.893 6.96327 13.8615 7.04046C13.8301 7.11766 13.7775 7.18451 13.7099 7.23342C13.6422 7.28233 13.5622 7.31134 13.4788 7.31715C13.3957 7.32295 13.3126 7.30545 13.239 7.26663L13.2384 7.26631L12.0004 6.61932L10.7615 7.26679L10.761 7.26705C10.6873 7.30529 10.6044 7.32236 10.5216 7.31634C10.4388 7.31033 10.3593 7.28147 10.2919 7.23299C10.2246 7.18451 10.1721 7.11832 10.1403 7.04181C10.1085 6.96529 10.0986 6.88146 10.1118 6.79968L10.1122 6.79746L10.3488 5.42662L9.3475 4.45631C9.28743 4.39834 9.24474 4.32455 9.2246 4.24363C9.20443 4.16265 9.2075 4.07764 9.23345 3.99832C9.2594 3.91899 9.30719 3.84854 9.37136 3.795C9.43534 3.74163 9.51304 3.70722 9.59563 3.69567L10.9798 3.4955L11.5991 2.24819C11.6362 2.17374 11.6936 2.11079 11.7644 2.06699Z" fill="white"/>
<path fill-rule="evenodd" clip-rule="evenodd" d="M12.2854 9.38314C11.9595 9.38314 11.6465 9.51374 11.4154 9.74699C11.1841 9.98033 11.0538 10.2973 11.0538 10.6283V11.3541C11.0538 12.1781 10.7294 12.9689 10.1512 13.5523C9.6219 14.0864 8.91954 14.4066 8.17642 14.457V18.6125C8.17642 19.136 8.38254 19.6375 8.74869 20.007C9.11476 20.3764 9.61074 20.5834 10.1274 20.5834H15.1628C15.1687 20.5834 15.1746 20.5837 15.1805 20.5842C15.4192 20.6047 15.6701 20.5095 15.895 20.2826C16.1211 20.0544 16.3019 19.7104 16.399 19.2949L17.1136 15.6897C17.1086 15.3657 16.9789 15.0566 16.7521 14.8278C16.521 14.5946 16.208 14.464 15.8821 14.464H13.7241C13.6097 14.464 13.517 14.3715 13.517 14.2575V10.6283C13.517 10.2973 13.3867 9.98033 13.1555 9.74699C12.9243 9.51374 12.6113 9.38314 12.2854 9.38314ZM8.17642 19.9601V20.0641C8.17642 20.3106 8.0794 20.5475 7.90593 20.7226C7.73239 20.8977 7.4965 20.9965 7.25004 20.9965H5.81136C5.56489 20.9965 5.32901 20.8977 5.15546 20.7226C4.982 20.5475 4.88497 20.3106 4.88497 20.0641V14.9833C4.88497 14.7368 4.982 14.4999 5.15546 14.3249C5.32901 14.1498 5.56489 14.0509 5.81136 14.0509H7.96938C8.67681 14.0509 9.35576 13.7674 9.85672 13.2619C10.3578 12.7563 10.6397 12.0701 10.6397 11.3541V10.6283C10.6397 10.1893 10.8125 9.76777 11.1209 9.45662C11.4293 9.14539 11.8482 8.9701 12.2854 8.9701C12.7227 8.9701 13.1415 9.14539 13.4499 9.45662C13.7583 9.76777 13.9311 10.1893 13.9311 10.6283V14.0509H15.8821C16.3193 14.0509 16.7382 14.2262 17.0466 14.5375C17.355 14.8486 17.5278 15.2701 17.5278 15.7091C17.5278 15.7226 17.5265 15.736 17.5239 15.7492L16.8032 19.3849C16.6932 19.8585 16.4818 20.278 16.1895 20.5729C15.8978 20.8672 15.5349 21.0261 15.1543 20.9965H10.1274C9.49936 20.9965 8.89754 20.7447 8.4542 20.2974C8.35078 20.193 8.25796 20.08 8.17642 19.9601ZM7.76233 14.464H5.81136C5.67627 14.464 5.54622 14.5181 5.44996 14.6152C5.35362 14.7124 5.29907 14.8448 5.29907 14.9833V20.0641C5.29907 20.2026 5.35362 20.335 5.44996 20.4322C5.54622 20.5293 5.67627 20.5834 5.81136 20.5834H7.25004C7.38513 20.5834 7.51518 20.5293 7.61144 20.4322C7.70778 20.335 7.76233 20.2026 7.76233 20.0641V14.464Z" fill="white"/>
</svg>
