<svg width="24" height="24" viewBox="0 0 24 24" fill="none" xmlns="http://www.w3.org/2000/svg">
<path fill-rule="evenodd" clip-rule="evenodd" d="M5.10129 3.00085C4.48802 2.97167 4.13099 3.69817 4.57878 4.1405L5.38598 4.93794L5.08498 6.04766L3.96167 6.34499L3.25484 5.64674L3.15446 5.54758C3.07834 5.47239 2.99391 5.42017 2.90632 5.38826C2.47878 5.23253 1.97632 5.56094 2.00087 6.0638C2.03492 6.76218 2.32128 7.45097 2.86156 7.9847C3.66677 8.78018 4.81919 9.01792 5.83456 8.70544L9.7807 12.6039L2.89921 19.4021C2.5569 19.7403 2.55689 20.2886 2.89922 20.6268L3.38998 21.1117C3.73234 21.4498 4.28737 21.4498 4.6297 21.1117L11.5112 14.3134L15.4573 18.2118C15.1411 19.2149 15.3817 20.3534 16.1869 21.1489C16.7272 21.6826 17.4244 21.9655 18.1313 21.9991C18.7446 22.0284 19.1016 21.3018 18.6539 20.8595L17.8467 20.062L18.1476 18.9523L19.2709 18.655L20.0782 19.4524C20.5259 19.8947 21.2613 19.5421 21.2318 18.9362C21.1977 18.2379 20.9113 17.549 20.371 17.0153C19.5658 16.2198 18.4134 15.9821 17.3981 16.2945L13.4519 12.3961L16.7671 9.12115C17.1044 8.78789 17.6514 8.78789 17.9887 9.12115C18.326 9.45441 18.326 9.99474 17.9887 10.328C17.9545 10.3618 17.9352 10.4077 17.9352 10.4556C17.9352 10.5034 17.9545 10.5493 17.9887 10.5831L18.7286 11.3141C18.7629 11.3479 18.8093 11.3669 18.8577 11.3669C18.9062 11.3669 18.9526 11.3479 18.9869 11.3141L21.9465 8.39016C22.0178 8.31971 22.0178 8.2055 21.9465 8.13505L21.2066 7.40408C21.1353 7.33364 21.0197 7.33364 20.9484 7.40408C20.611 7.73734 20.0641 7.73734 19.7267 7.40408C19.3894 7.07083 19.3894 6.5305 19.7267 6.19724C19.7981 6.12679 19.7981 6.01257 19.7267 5.94213L17.507 3.7492C16.6184 2.87135 15.1777 2.87135 14.2891 3.7492C14.2177 3.81965 14.2177 3.93387 14.2891 4.00432L15.7689 5.46627C16.1062 5.79953 16.1062 6.33986 15.7689 6.67312L15.029 7.40407L15.027 7.40607C14.7759 7.66189 14.5918 7.8438 14.4088 8.02452L14.4031 8.03014C14.2221 8.2089 14.0414 8.38731 13.7986 8.63456L11.7215 10.6866L7.77534 6.78817C8.0916 5.78509 7.85095 4.64661 7.04574 3.85117C6.50546 3.31743 5.80822 3.03453 5.10129 3.00085ZM5.08371 3.36122C4.78469 3.347 4.63891 3.68971 4.837 3.88538L5.71877 4.75648C5.7649 4.80205 5.78291 4.86847 5.76603 4.93072L5.41045 6.24164C5.39356 6.30389 5.34434 6.35252 5.28133 6.3692L3.95436 6.72044C3.89135 6.73711 3.82412 6.71932 3.77799 6.67375L2.89623 5.8027C2.88643 5.79302 2.87627 5.78417 2.86581 5.77613C2.69241 5.64291 2.43602 5.73166 2.37743 5.93856C2.36806 5.97163 2.36375 6.00772 2.36564 6.04641C2.3955 6.6589 2.6463 7.26183 3.11979 7.72959C3.85046 8.45142 4.90843 8.64997 5.82279 8.32911C5.88918 8.30581 5.96321 8.32232 6.01303 8.37154L15.7953 18.0355C15.8451 18.0847 15.8618 18.1579 15.8383 18.2234C15.5135 19.1267 15.7145 20.1719 16.4451 20.8938C16.9186 21.3615 17.5289 21.6093 18.1489 21.6388C18.4479 21.653 18.5937 21.3104 18.3957 21.1146L17.5139 20.2435C17.4678 20.1979 17.4498 20.1315 17.4666 20.0693L17.8222 18.7584C17.8391 18.6961 17.8883 18.6475 17.9513 18.6308L19.2783 18.2795C19.3413 18.2628 19.4085 18.2806 19.4546 18.3262L20.3364 19.1973C20.5345 19.393 20.8814 19.249 20.867 18.9536C20.8371 18.3411 20.5863 17.7382 20.1128 17.2704C19.3821 16.5486 18.3241 16.35 17.4098 16.6708C17.3434 16.6941 17.2694 16.6776 17.2196 16.6284L7.43734 6.96449C7.38753 6.91528 7.37081 6.84214 7.39439 6.77656C7.71915 5.87325 7.51817 4.82808 6.7875 4.10629C6.31401 3.63853 5.70371 3.39076 5.08371 3.36122ZM16.3797 8.99359L15.1599 7.78848C14.9699 7.98054 14.8175 8.131 14.667 8.27969L14.6616 8.28501C14.4803 8.46398 14.3011 8.64098 14.0598 8.88672L14.0579 8.8887L11.9797 10.9417L13.1937 12.141L16.3797 8.99359ZM16.6475 8.7479L15.4163 7.53164L16.0271 6.92823C16.5071 6.45408 16.5071 5.68531 16.0271 5.21116L14.6825 3.88278C15.4329 3.26986 16.5463 3.31038 17.2487 4.00432L19.3489 6.07909C18.9926 6.55437 19.0324 7.22839 19.4685 7.6592C19.9046 8.09001 20.5869 8.12939 21.068 7.77734L21.5592 8.26261L18.8577 10.9314L18.3665 10.4461C18.7229 9.97087 18.683 9.29685 18.2469 8.86604C17.8109 8.43523 17.1286 8.39585 16.6475 8.7479ZM10.0389 12.859L3.15747 19.6572C2.95775 19.8545 2.95776 20.1744 3.15746 20.3717L3.6482 20.8565C3.84795 21.0538 4.17176 21.0538 4.37147 20.8565L11.2529 14.0583L10.0389 12.859Z" fill="white"/>
</svg>
