<?xml version="1.0" encoding="UTF-8"?>
<svg width="687px" height="687px" viewBox="0 0 687 687" version="1.1" xmlns="http://www.w3.org/2000/svg" xmlns:xlink="http://www.w3.org/1999/xlink">
    <title>TybeDB Cosmos Bot - colored -  transparent bg - 687x687</title>
    <defs>
        <linearGradient x1="100%" y1="50%" x2="-25.2959672%" y2="-34.0930684%" id="linearGradient-1">
            <stop stop-color="#FFFFFF" offset="0%"></stop>
            <stop stop-color="#A38BF6" offset="100%"></stop>
        </linearGradient>
        <linearGradient x1="100%" y1="50%" x2="-51.9913124%" y2="40.9956366%" id="linearGradient-2">
            <stop stop-color="#FFFFFF" offset="0%"></stop>
            <stop stop-color="#A38BF6" offset="100%"></stop>
        </linearGradient>
        <linearGradient x1="29.117677%" y1="45.8942275%" x2="64.2092792%" y2="48.1210924%" id="linearGradient-3">
            <stop stop-color="#C6B7FF" offset="0%"></stop>
            <stop stop-color="#FFFFFF" offset="100%"></stop>
        </linearGradient>
        <linearGradient x1="32.8876677%" y1="46.9823267%" x2="96.9692841%" y2="46.2228878%" id="linearGradient-4">
            <stop stop-color="#B9ACEE" offset="0%"></stop>
            <stop stop-color="#FFFFFF" offset="100%"></stop>
        </linearGradient>
    </defs>
    <g id="TybeDB-Cosmos-Bot---colored----transparent-bg---687x687" stroke="none" stroke-width="1" fill="none" fill-rule="evenodd">
        <g id="logo" transform="translate(80.000000, 90.000000)">
            <g id="space-logo" transform="translate(0.000000, 35.766988)">
                <path d="M458.173965,195.048731 L511.245755,195.0405 C519.656721,195.039195 526.931206,200.900758 528.718617,209.119609 L543.605805,277.573699 L543.605805,277.573699 L425.797233,277.59197 L440.707712,209.122957 C442.496579,200.908467 449.766951,195.050035 458.173965,195.048731 Z" id="Rectangle" fill="url(#linearGradient-1)" transform="translate(484.701519, 236.315117) rotate(89.000000) translate(-484.701519, -236.315117) "></path>
                <path d="M15.770928,195.048731 L68.8427176,195.0405 C77.2536835,195.039195 84.5281687,200.900758 86.3155795,209.119609 L101.202767,277.573699 L101.202767,277.573699 L-16.6058046,277.59197 L-1.69532543,209.122957 C0.0935418459,200.908467 7.36391392,195.050035 15.770928,195.048731 Z" id="Rectangle-Copy-2" fill="url(#linearGradient-2)" transform="translate(42.298481, 236.315117) scale(-1, 1) rotate(89.000000) translate(-42.298481, -236.315117) "></path>
                <ellipse id="Oval" fill="#261C5E" cx="263.960853" cy="235.616506" rx="237.71071" ry="235.616506"></ellipse>
                <path d="M263.960853,0 C347.554785,0 421.070593,42.7694344 463.450321,107.435864 C409.348822,79.1272761 340.531819,62.176578 265.611622,62.176578 C188.338643,62.176578 117.558203,80.2086269 62.7246867,110.139812 C104.812614,43.9647412 179.206841,0 263.960853,0 Z" id="Combined-Shape" fill="url(#linearGradient-3)"></path>
                <path d="M263.960853,361.093747 C347.554785,361.093747 421.070593,403.863181 463.450321,468.529611 C409.348822,440.221023 340.531819,423.270325 265.611622,423.270325 C188.338643,423.270325 117.558203,441.302374 62.7246867,471.233559 C104.812614,405.058488 179.206841,361.093747 263.960853,361.093747 Z" id="Combined-Shape-Copy" fill="url(#linearGradient-4)" transform="translate(263.088555, 416.163379) scale(1, -1) translate(-263.088555, -416.163379) "></path>
                <g id="Group" transform="translate(326.849114, 94.901093)"></g>
            </g>
            <g id="Group-2" transform="translate(49.550054, 153.587654)">
                <rect id="Rectangle" fill="#392D7F" x="0" y="0" width="428.261577" height="235.641333" rx="117.820666"></rect>
                <ellipse id="Oval" fill="#05E9A8" cx="140.135097" cy="118.16162" rx="52.2002102" ry="50.1271072"></ellipse>
                <ellipse id="Oval-Copy" fill="#05E9A8" cx="298.910736" cy="118.16162" rx="52.2002102" ry="50.1271072"></ellipse>
            </g>
            <path d="M112.614532,0 C126.562368,0 137.869322,11.4962601 137.869322,25.6776156 C137.869322,36.1851751 131.661863,45.2186312 122.772071,49.1938382 L122.772556,107.300964 L102.568724,107.300964 L102.567805,49.243066 C93.6188284,45.2935806 87.3597423,36.2287798 87.3597423,25.6776156 C87.3597423,11.4962601 98.6666969,0 112.614532,0 Z" id="Combined-Shape-Copy-16" fill="#C6B7FF"></path>
        </g>
    </g>
</svg>