<?xml version="1.0" encoding="UTF-8"?>
<svg width="1752px" height="280px" viewBox="0 0 1752 280" version="1.1" xmlns="http://www.w3.org/2000/svg" xmlns:xlink="http://www.w3.org/1999/xlink">
    <title>grakn-cosmos-4</title>
    <g id="grakn-cosmos-4" stroke="none" stroke-width="1" fill="none" fill-rule="evenodd">
        <rect id="Rectangle" x="0" y="0" width="1854" height="280"></rect>
        <g id="bot-copy-2" fill="#05E9A8" transform="translate(0.000000, 3.000000)">
            <path d="M124.5,26.9514788 C193.259451,26.9514788 249,82.9267469 249,151.975739 C249,221.024732 193.259451,277 124.5,277 C55.7405486,277 0,221.024732 0,151.975739 C0,82.9267469 55.7405486,26.9514788 124.5,26.9514788 Z M172.797803,91.3793648 L74.7808596,91.3793648 C74.676965,91.3793648 74.5730706,91.3796307 74.4691774,91.3801626 C40.8439146,91.5522999 13.7247982,118.950506 13.8969355,152.575769 C14.0702531,186.431606 41.5511345,213.792822 75.4074058,213.818392 L75.4074058,213.818392 L172.79782,213.891947 L172.79782,213.891947 L172.844067,213.891964 C206.662211,213.891964 234.077234,186.476941 234.077234,152.658796 C234.077234,118.815101 206.641498,91.3793648 172.797803,91.3793648 L172.797803,91.3793648 Z" id="Combined-Shape"></path>
            <ellipse id="Oval" cx="85.8282628" cy="153.018508" rx="26.8666653" ry="26.0775279"></ellipse>
            <ellipse id="Oval-Copy" cx="167.547703" cy="153.018508" rx="26.8666653" ry="26.0775279"></ellipse>
            <path d="M28.664958,0 C41.8879294,0 52.6072657,10.7644746 52.6072657,24.043127 C52.6072657,33.8817181 46.722547,42.3400717 38.2949165,46.0623089 L38.2950725,100.470805 L19.1412264,100.470805 L19.1409875,46.1088125 C10.6567485,42.4108745 4.72265029,33.9229103 4.72265029,24.043127 C4.72265029,10.7644746 15.4419866,0 28.664958,0 Z" id="Combined-Shape-Copy-16"></path>
        </g>
        <g id="cosmos" transform="translate(1075.000000, 73.000000)" fill="#05E9A8" fill-rule="nonzero">
            <path d="M12.6154981,6.19291976 C23.3145955,0.0914489837 36.0844859,-0.252295849 48.0778289,0.0914489837 C58.345511,0.778938649 69.3034575,2.75547144 76.9826484,10.0600491 C83.0224614,15.8177751 84.8344053,24.4973321 84.3167071,32.4893995 C83.8852919,35.4971668 85.2789085,39.4985571 82.345285,41.561026 C77.8585667,42.0766433 73.5313267,41.8564462 69.0446084,41.8564462 C67.4052306,42.0283186 65.6795697,41.0830203 65.5070036,39.2783599 C64.9893054,34.5518685 66.1109849,29.395696 63.6950597,25.0129494 C60.7614362,19.513032 54.290208,17.6224355 48.5955271,16.9349458 C41.3477515,16.2474561 33.6685606,16.3333923 27.0247663,19.513032 C22.1929159,21.7473734 19.5181415,27.1613546 19.7769907,32.4034633 C19.7769907,55.004686 19.7769907,77.6059088 19.7769907,100.293068 C19.7769907,104.589878 21.5026515,109.058561 25.1265394,111.636647 C30.2172389,115.160032 36.5159011,115.503777 42.5557141,115.847521 C48.6818102,115.503777 55.4118876,115.160032 60.5025871,111.292902 C63.7813428,108.886689 65.3344375,104.847687 65.4207206,100.894621 C65.4912323,95.8381866 65.3344375,96.1078908 65.4207206,88.5804998 C65.4207206,85.6429607 68.7291815,85.6429607 69.0446084,85.6586687 C81.4693666,85.6586687 67.9229288,85.6586687 80.3476871,85.6586687 C82.159631,85.4867963 84.230424,86.603967 84.230424,88.5804998 C84.3167071,100.35376 84.230424,92.0431917 84.3167071,103.816452 C84.3167071,112.152264 80.5202532,120.574013 73.4450436,125.214568 C63.6087767,131.74572 51.2703015,132.519146 39.7083737,132.519146 C28.5778611,132.089465 16.3256689,130.628549 7.78364765,122.722418 C2.26153288,117.824054 -0.240675374,110.175732 0.0181737563,102.95709 C0.1044568,77.691845 0.0181737563,52.512536 0.0181737563,27.333227 C0.277022886,18.7396062 5.10887331,10.403794 12.6154981,6.19291976 Z" id="C"></path>
            <path d="M118.4,107.25 C118.4,122.83 129.61,133.28 156.4,133.28 C183.19,133.28 194.4,122.83 194.4,107.25 L194.4,62.03 C194.4,46.45 183.19,36 156.4,36 C129.61,36 118.4,46.45 118.4,62.03 L118.4,107.25 Z M176.35,105.73 C176.35,113.9 170.65,118.46 156.4,118.46 C142.15,118.46 136.45,113.9 136.45,105.73 L136.45,63.55 C136.45,55.38 142.15,50.82 156.4,50.82 C170.65,50.82 176.35,55.38 176.35,63.55 L176.35,105.73 Z" id="Shape"></path>
            <path d="M280.348297,63.93 C280.348297,66.4 281.298297,67.35 283.578297,67.35 L293.458297,67.35 C296.118297,67.35 296.878297,66.4 296.878297,63.93 L296.878297,59.37 C296.878297,47.59 287.948297,36 262.488297,36 C236.838297,36 228.098297,47.59 228.098297,59.37 L228.098297,66.4 C228.098297,75.9 235.888297,83.12 242.918297,85.59 L271.418297,95.47 C277.688297,97.56 281.488297,100.03 281.488297,104.59 L281.488297,109.72 C281.488297,116.56 274.078297,119.79 262.108297,119.79 C249.948297,119.79 242.728297,116.56 242.728297,109.72 L242.728297,105.73 C242.728297,103.45 241.968297,102.31 239.498297,102.31 L229.428297,102.31 C227.148297,102.31 226.198297,103.45 226.198297,105.73 L226.198297,110.48 C226.198297,122.26 236.268297,133.28 262.108297,133.28 C287.758297,133.28 298.208297,122.26 298.208297,110.48 L298.208297,99.84 C298.208297,90.91 291.558297,84.83 281.108297,81.22 L252.608297,71.34 C249.188297,70.2 244.628297,67.54 244.628297,62.6 L244.628297,59.37 C244.628297,52.53 250.708297,49.3 262.298297,49.3 C274.078297,49.3 280.348297,52.53 280.348297,59.37 L280.348297,63.93 Z" id="Path"></path>
            <path d="M335.376594,37.52 C332.716594,37.52 331.766594,38.66 331.766594,41.13 L331.766594,127.96 C331.766594,130.62 332.716594,131.76 335.376594,131.76 L346.396594,131.76 C348.866594,131.76 349.816594,130.62 349.816594,127.96 L349.816594,61.84 C353.616594,58.61 362.356594,52.15 374.516594,52.15 C384.966594,52.15 388.576594,56.9 388.576594,64.69 L388.576594,127.96 C388.576594,130.62 389.716594,131.76 392.186594,131.76 L403.206594,131.76 C405.676594,131.76 406.626594,130.62 406.626594,127.96 L406.626594,64.5 C406.626594,63.74 406.626594,62.79 406.436594,62.03 C410.046594,58.8 418.786594,52.15 431.326594,52.15 C441.776594,52.15 445.386594,56.9 445.386594,64.69 L445.386594,127.96 C445.386594,130.62 446.526594,131.76 449.186594,131.76 L460.016594,131.76 C462.486594,131.76 463.626594,130.62 463.626594,127.96 L463.626594,60.32 C463.626594,46.26 454.316594,36 436.646594,36 C418.596594,36 408.716594,44.93 404.156594,48.92 C400.356594,41.13 392.186594,36 379.836594,36 C364.066594,36 354.566594,42.84 349.436594,47.21 L349.056594,41.13 C348.866594,38.66 348.106594,37.52 345.446594,37.52 L335.376594,37.52 Z" id="Path"></path>
            <path d="M496.654891,107.25 C496.654891,122.83 507.864891,133.28 534.654891,133.28 C561.444891,133.28 572.654891,122.83 572.654891,107.25 L572.654891,62.03 C572.654891,46.45 561.444891,36 534.654891,36 C507.864891,36 496.654891,46.45 496.654891,62.03 L496.654891,107.25 Z M554.604891,105.73 C554.604891,113.9 548.904891,118.46 534.654891,118.46 C520.404891,118.46 514.704891,113.9 514.704891,105.73 L514.704891,63.55 C514.704891,55.38 520.404891,50.82 534.654891,50.82 C548.904891,50.82 554.604891,55.38 554.604891,63.55 L554.604891,105.73 Z" id="Shape"></path>
            <path d="M658.603188,63.93 C658.603188,66.4 659.553188,67.35 661.833188,67.35 L671.713188,67.35 C674.373188,67.35 675.133188,66.4 675.133188,63.93 L675.133188,59.37 C675.133188,47.59 666.203188,36 640.743188,36 C615.093188,36 606.353188,47.59 606.353188,59.37 L606.353188,66.4 C606.353188,75.9 614.143188,83.12 621.173188,85.59 L649.673188,95.47 C655.943188,97.56 659.743188,100.03 659.743188,104.59 L659.743188,109.72 C659.743188,116.56 652.333188,119.79 640.363188,119.79 C628.203188,119.79 620.983188,116.56 620.983188,109.72 L620.983188,105.73 C620.983188,103.45 620.223188,102.31 617.753188,102.31 L607.683188,102.31 C605.403188,102.31 604.453188,103.45 604.453188,105.73 L604.453188,110.48 C604.453188,122.26 614.523188,133.28 640.363188,133.28 C666.013188,133.28 676.463188,122.26 676.463188,110.48 L676.463188,99.84 C676.463188,90.91 669.813188,84.83 659.363188,81.22 L630.863188,71.34 C627.443188,70.2 622.883188,67.54 622.883188,62.6 L622.883188,59.37 C622.883188,52.53 628.963188,49.3 640.553188,49.3 C652.333188,49.3 658.603188,52.53 658.603188,59.37 L658.603188,63.93 Z" id="Path"></path>
        </g>
        <g id="Group" transform="translate(356.850000, 75.000000)" fill="#FFFFFF" fill-rule="nonzero">
            <path d="M49.8955882,131 C52.4,131 53.3632353,129.844118 53.3632353,127.147059 L53.3632353,15.9897059 L84.1867647,15.9897059 C86.6911765,15.9897059 87.8470588,15.0264706 87.8470588,12.3294118 L87.8470588,3.66029412 C87.8470588,0.963235294 86.6911765,0 84.1867647,0 L3.66029412,0 C0.963235294,0 0,0.963235294 0,3.66029412 L0,12.3294118 C0,15.0264706 0.963235294,15.9897059 3.66029412,15.9897059 L34.4838235,15.9897059 L34.4838235,127.147059 C34.4838235,129.844118 35.4470588,131 37.9514706,131 L49.8955882,131 Z" id="T"></path>
            <path d="M136.475493,168.76 C138.978179,168.76 139.94075,167.027371 140.518293,165.102229 L184.026521,37.8502857 C184.796579,35.3476 183.256464,34 180.753779,34 L170.358007,34 C167.855321,34 166.89275,35.3476 166.122693,37.8502857 L147.063779,93.8719429 C146.855863,94.4956891 146.65072,95.1416131 146.450345,95.7970734 L146.251633,96.4552443 C146.185975,96.6753821 146.120921,96.8961113 146.056544,97.1169637 L145.86552,97.7794223 C144.669517,101.971404 143.744832,106.038846 143.598521,106.7704 C143.572606,106.666738 143.532736,106.447953 143.478912,106.133767 L143.429359,105.841562 C143.049742,103.586581 142.143558,97.9443604 140.710807,93.4869143 L122.036921,37.8502857 C121.266864,35.5401143 120.304293,34 117.801607,34 L106.443264,34 C103.940579,34 102.400464,35.3476 103.170521,37.8502857 L135.512921,131.0272 L124.732121,165.102229 C123.962064,167.604914 125.502179,168.76 128.197379,168.76 L136.475493,168.76 Z" id="y"></path>
            <path d="M230.320699,168 C232.786397,168 233.734743,166.864407 233.734743,164.403955 L233.734743,120.305085 C239.235147,124.468927 249.477279,130.903955 264.840478,130.903955 C283.238382,130.903955 291.583824,120.683616 291.583824,105.163842 L291.583824,59.740113 C291.583824,44.220339 283.238382,34 264.840478,34 C248.908272,34 238.66614,41.0028249 233.355404,45.1666667 L232.976066,39.299435 C232.786397,36.6497175 232.027721,35.5141243 229.372353,35.5141243 L219.31989,35.5141243 C216.664522,35.5141243 215.716176,36.6497175 215.716176,39.299435 L215.716176,164.403955 C215.716176,166.864407 216.664522,168 219.31989,168 L230.320699,168 Z M259.960574,113.808824 C247.761695,113.808824 238.565616,107.216047 234.436765,104.202206 L234.436765,59.5596886 C238.565616,56.3574827 247.761695,49.7647059 259.960574,49.7647059 C270.658053,49.7647059 273.848529,55.4156574 273.848529,62.0084343 L273.848529,101.565095 C273.848529,108.157872 270.658053,113.808824 259.960574,113.808824 Z" id="p"></path>
            <path d="M361.65,131 C388.786126,131 398.15,120.580078 398.15,105.044922 L398.15,101.824219 C398.15,99.3613281 397.003403,98.2246094 394.51911,98.2246094 L384.773037,98.2246094 C382.097644,98.2246094 381.142147,99.3613281 381.142147,101.824219 L381.142147,103.908203 C381.142147,111.675781 377.320157,116.601562 362.032199,116.601562 C346.744241,116.601562 342.922251,111.675781 342.922251,103.908203 L342.922251,86.4785156 L394.901309,86.4785156 C397.194503,86.4785156 398.15,85.3417969 398.15,83.0683594 L398.15,59.9550781 C398.15,44.4199219 388.977225,34 362.032199,34 C334.896073,34 325.15,44.4199219 325.15,59.9550781 L325.15,105.044922 C325.15,120.580078 334.513874,131 361.65,131 Z M381.15,73 L343.15,73 L343.15,61.3692308 C343.15,53.9846154 347.71,49 362.15,49 C376.4,49 381.15,53.9846154 381.15,61.3692308 L381.15,73 Z" id="e"></path>
            <path d="M607.711419,131 C640.723444,131 651.279615,117.948734 651.279615,102.210443 L651.279615,85.8963609 C651.279615,74.7643989 644.178191,66.5113926 629.591482,62.4808547 C641.107305,58.066456 645.713634,50.3892408 645.713634,40.4088611 L645.713634,28.3172472 C645.713634,12.7708865 635.157463,0.487342249 602.145438,0.487342249 L568.173761,0.487342249 C565.678666,0.487342249 564.719014,1.63892452 564.719014,4.32594983 L564.719014,127.161392 C564.719014,129.848418 565.678666,131 568.173761,131 L607.711419,131 Z M603.488951,56.7229433 L583.336261,56.7229433 L583.336261,16.033703 L602.145438,16.033703 C619.419172,16.033703 627.096387,20.640032 627.096387,31.1962029 L627.096387,40.0250003 C627.096387,50.5811712 619.419172,56.7229433 603.488951,56.7229433 Z M607.711419,115.453639 L583.336261,115.453639 L583.336261,71.3096521 L607.711419,71.3096521 C624.985153,71.3096521 632.662368,77.6433546 632.662368,87.2398736 L632.662368,98.9476267 C632.662368,109.503798 624.985153,115.453639 607.711419,115.453639 Z" id="B"></path>
            <path d="M485.645907,131 C518.466002,131 529.406034,117.181013 529.406034,101.442722 L529.406034,30.0446206 C529.406034,14.3063295 518.466002,0.487342249 485.645907,0.487342249 L445.532458,0.487342249 C443.037363,0.487342249 442.077711,1.63892452 442.077711,4.32594983 L442.077711,127.161392 C442.077711,129.656487 442.845433,131 445.148597,131 L485.645907,131 Z M485.645907,115.069779 L460.694958,115.069779 L460.694958,16.4175637 L485.645907,16.4175637 C502.919641,16.4175637 510.596857,22.7512662 510.596857,33.1155067 L510.596857,98.3718356 C510.596857,108.736076 502.919641,115.069779 485.645907,115.069779 Z" id="D" stroke="#FFFFFF" stroke-width="0.3"></path>
        </g>
    </g>
</svg>