<?xml version="1.0" encoding="UTF-8"?>
<svg width="1294px" height="1017px" viewBox="0 0 1294 1017" version="1.1" xmlns="http://www.w3.org/2000/svg" xmlns:xlink="http://www.w3.org/1999/xlink">
    <title>grakn-cosmos-7</title>
    <g id="grakn-cosmos-7" stroke="none" stroke-width="1" fill="none" fill-rule="evenodd">
        <g id="space-logo" transform="translate(251.339892, -0.067711)">
            <g id="bot-copy-2" transform="translate(84.000000, 4.000000)" fill="#05E9A8">
                <path d="M318,68.5949189 C493.62655,68.5949189 636,211.059049 636,386.797459 C636,562.53587 493.62655,705 318,705 C142.37345,705 0,562.53587 0,386.797459 C0,211.059049 142.37345,68.5949189 318,68.5949189 Z M441.920124,232.572029 L190.052188,232.572541 L190.052188,232.572541 L189.654144,232.574074 C104.075166,233.013742 35.056119,302.745633 35.495787,388.32461 C35.9384799,474.492385 105.881681,544.129559 192.050569,544.194406 L192.050569,544.194406 L441.920168,544.38245 L441.920168,544.38245 L442.037453,544.382494 C528.109135,544.382494 597.88402,474.607609 597.88402,388.535926 C597.88402,302.399444 528.056605,232.572029 441.920124,232.572029 L441.920124,232.572029 Z" id="Combined-Shape"></path>
                <ellipse id="Oval" cx="219.223997" cy="389.451438" rx="68.6232898" ry="66.3706034"></ellipse>
                <ellipse id="Oval-Copy" cx="427.95317" cy="389.451438" rx="68.6232898" ry="66.3706034"></ellipse>
                <path d="M73.2165192,0 C106.990856,0 134.370365,27.3969481 134.370365,61.1927963 C134.370365,86.2330092 119.339811,107.760412 97.8141519,117.234119 L97.8139202,255.710893 L48.8908433,255.710893 L48.8901631,117.352723 C27.2196141,107.940988 12.062673,86.338066 12.062673,61.1927963 C12.062673,27.3969481 39.4421826,0 73.2165192,0 Z" id="Combined-Shape-Copy-16"></path>
            </g>
            <g id="text-logo" transform="translate(401.660108, 856.067711)"></g>
        </g>
        <g id="Group-3" transform="translate(0.000000, 856.000000)" fill-rule="nonzero">
            <g id="Group-2" transform="translate(0.000000, 2.000000)" fill="#FFFFFF">
                <g id="Group" transform="translate(-0.000000, 0.000000)">
                    <path d="M44.364269,116.437544 C46.591047,116.437544 47.4475,115.410154 47.4475,113.012911 L47.4475,14.2122297 L74.8539983,14.2122297 C77.0807763,14.2122297 78.1085199,13.3560713 78.1085199,10.9588277 L78.1085199,3.25340198 C78.1085199,0.856158415 77.0807763,4.01921682e-13 74.8539983,4.01921682e-13 L3.25452166,4.01921682e-13 C0.856453069,4.01921682e-13 -5.36080009e-14,0.856158415 -5.36080009e-14,3.25340198 L-5.36080009e-14,10.9588277 C-5.36080009e-14,13.3560713 0.856453069,14.2122297 3.25452166,14.2122297 L30.6610199,14.2122297 L30.6610199,113.012911 C30.6610199,115.410154 31.517473,116.437544 33.7442509,116.437544 L44.364269,116.437544 Z" id="T"></path>
                    <path d="M127.570104,150 C129.795347,150 130.65121,148.459977 131.164727,146.74884 L169.849726,33.6427048 C170.534416,31.4182271 169.165036,30.2204314 166.939792,30.2204314 L157.696474,30.2204314 C155.471231,30.2204314 154.615368,31.4182271 153.930678,33.6427048 L136.984594,83.4367826 C136.799728,83.9911909 136.617326,84.5653115 136.439165,85.1479083 L136.262482,85.7329145 C136.204102,85.9285809 136.14626,86.124773 136.08902,86.3210746 L135.919173,86.9098918 C134.855755,90.6358769 134.033579,94.2511665 133.903488,94.9013984 C133.880446,94.8092603 133.844996,94.6147957 133.797138,94.3355361 L133.753079,94.0758134 C133.415545,92.0715049 132.609819,87.0564948 131.3359,83.0945552 L114.732162,33.6427048 C114.047471,31.5893407 113.191609,30.2204314 110.966365,30.2204314 L100.867184,30.2204314 C98.641941,30.2204314 97.2725605,31.4182271 97.9572507,33.6427048 L126.714241,116.461721 L117.128577,146.74884 C116.443887,148.973318 117.813268,150 120.209683,150 L127.570104,150 Z" id="y"></path>
                    <path d="M215.457539,149.324484 C217.649896,149.324484 218.49311,148.315128 218.49311,146.128189 L218.49311,106.931516 C223.383751,110.63249 232.490462,116.352176 246.150529,116.352176 C262.508881,116.352176 269.929164,107.267969 269.929164,93.4734313 L269.929164,53.099176 C269.929164,39.3046388 262.508881,30.2204314 246.150529,30.2204314 C231.984534,30.2204314 222.877822,36.4447957 218.155824,40.1457691 L217.818538,34.9307612 C217.649896,32.5755963 216.975324,31.5662399 214.614325,31.5662399 L205.676257,31.5662399 C203.315257,31.5662399 202.472043,32.5755963 202.472043,34.9307612 L202.472043,146.128189 C202.472043,148.315128 203.315257,149.324484 205.676257,149.324484 L215.457539,149.324484 Z M241.811601,101.157404 C230.965063,101.157404 222.788443,95.2975054 219.117307,92.6186945 L219.117307,52.9388083 C222.788443,50.0925717 230.965063,44.2326729 241.811601,44.2326729 C251.32318,44.2326729 254.159967,49.2554433 254.159967,55.1153421 L254.159967,90.274735 C254.159967,96.1346338 251.32318,101.157404 241.811601,101.157404 Z" id="p"></path>
                    <path d="M336.673663,116.437544 C360.801535,116.437544 369.12735,107.17594 369.12735,93.367731 L369.12735,90.5050534 C369.12735,88.315947 368.107863,87.3055902 365.898973,87.3055902 L357.233329,87.3055902 C354.854524,87.3055902 354.004951,88.315947 354.004951,90.5050534 L354.004951,92.3573742 C354.004951,99.2614789 350.60666,103.639692 337.013492,103.639692 C323.420325,103.639692 320.022033,99.2614789 320.022033,92.3573742 L320.022033,76.8652367 L366.238802,76.8652367 C368.277777,76.8652367 369.12735,75.8548799 369.12735,73.8341663 L369.12735,53.2902448 C369.12735,39.4820353 360.97145,30.2204314 337.013492,30.2204314 C312.88562,30.2204314 304.219976,39.4820353 304.219976,53.2902448 L304.219976,93.367731 C304.219976,107.17594 312.545791,116.437544 336.673663,116.437544 Z M354.011934,64.8850438 L320.224534,64.8850438 L320.224534,54.5471949 C320.224534,47.9834813 324.279022,43.5529746 337.118234,43.5529746 C349.788509,43.5529746 354.011934,47.9834813 354.011934,54.5471949 L354.011934,64.8850438 Z" id="e"></path>
                    <path d="M448.146221,115.668699 C477.034448,115.668699 486.663857,103.509419 486.663857,89.6613508 L486.663857,26.838407 C486.663857,12.9903387 477.034448,0.83105927 448.146221,0.83105927 L412.838387,0.83105927 C410.642206,0.83105927 409.797521,1.84433256 409.797521,4.20863689 L409.797521,112.291121 C409.797521,114.486546 410.473269,115.668699 412.500513,115.668699 L448.146221,115.668699 Z M448.146221,101.651751 L426.18441,101.651751 L426.18441,14.8480064 L448.146221,14.8480064 C463.350551,14.8480064 470.108031,20.4210095 470.108031,29.5404691 L470.108031,86.9592887 C470.108031,96.0787483 463.350551,101.651751 448.146221,101.651751 Z" id="D" stroke="#FFFFFF" stroke-width="0.888836217"></path>
                    <path d="M559.346376,116.437544 C588.698758,116.437544 598.084694,104.837107 598.084694,90.8483436 L598.084694,76.3477965 C598.084694,66.4533055 591.770519,59.1177346 578.800862,55.5352465 C589.040065,51.6115691 593.135746,44.7877822 593.135746,35.9168592 L593.135746,25.1693949 C593.135746,11.3512265 583.74981,0.433167441 554.397428,0.433167441 L524.191779,0.433167441 C521.973285,0.433167441 521.120018,1.45673547 521.120018,3.84506088 L521.120018,113.025651 C521.120018,115.413976 521.973285,116.437544 524.191779,116.437544 L559.346376,116.437544 Z M555.592002,50.4174064 L537.673397,50.4174064 L537.673397,14.2513359 L554.397428,14.2513359 C569.756233,14.2513359 576.582368,18.345608 576.582368,27.728315 L576.582368,35.5756699 C576.582368,44.9583768 569.756233,50.4174064 555.592002,50.4174064 Z M559.346376,102.619376 L537.673397,102.619376 L537.673397,63.3826014 L559.346376,63.3826014 C574.705181,63.3826014 581.531316,69.0122256 581.531316,77.5419592 L581.531316,87.9482342 C581.531316,97.3309412 574.705181,102.619376 559.346376,102.619376 Z" id="B"></path>
                </g>
            </g>
            <g id="cosmos" transform="translate(677.078196, 0.000000)" fill="#05E9A8">
                <path d="M11.3760127,5.57585813 C21.023913,0.0823370202 32.5391489,-0.227157127 43.3541339,0.0823370202 C52.6130059,0.701325314 62.4943232,2.48091666 69.4190258,9.05766729 C74.8654212,14.2416943 76.4993398,22.0564215 76.0325059,29.2521604 C75.6434776,31.9602342 76.90017,35.5629265 74.254778,37.4198914 C70.2088843,37.8841326 66.3067999,37.6858759 62.2609062,37.6858759 C60.7825989,37.840623 59.226486,36.9895141 59.0708747,35.3646698 C58.6040408,31.1091253 59.6155142,26.4667131 57.4369561,22.5206627 C54.7915641,17.5687563 48.9561405,15.8665385 43.8209678,15.2475502 C37.2852934,14.6285619 30.3605907,14.7059355 24.3695559,17.5687563 C20.0124396,19.5804683 17.6004645,24.4550011 17.8338815,29.1747869 C17.8338815,49.524027 17.8338815,69.8732672 17.8338815,90.2998809 C17.8338815,94.1685577 19.3899944,98.1919817 22.6578316,100.513188 C27.2483648,103.685503 32.9281771,103.994997 38.3745724,104.304491 C43.8987734,103.994997 49.9676139,103.685503 54.5581471,100.203694 C57.5147617,98.0372346 58.9152634,94.4006784 58.993069,90.8414957 C59.0566529,86.2888835 58.9152634,86.5317144 58.993069,79.7543515 C58.993069,77.1095085 61.9764703,77.1095085 62.2609062,77.1236513 C73.4649195,77.1236513 61.2494328,77.1236513 72.4534461,77.1236513 C74.0873647,76.9689042 75.9547002,77.9747602 75.9547002,79.7543515 C76.0325059,90.3545261 75.9547002,82.8720214 76.0325059,93.4721959 C76.0325059,100.977429 72.6090574,108.560036 66.2289943,112.738207 C57.3591504,118.618595 46.2329428,119.314957 35.8069861,119.314957 C25.7700575,118.92809 14.7216556,117.612739 7.01889645,110.494374 C2.039335,106.084082 -0.217028776,99.1978376 0.0163881665,92.6984605 C0.0941938141,69.9506407 0.0163881665,47.2801945 0.0163881665,24.6097482 C0.249805109,16.8723945 4.60692138,9.36716143 11.3760127,5.57585813 Z" id="C"></path>
                <path d="M107.767081,96.5636255 C107.767081,110.591236 117.875687,120 142.033543,120 C166.191398,120 176.300005,110.591236 176.300005,96.5636255 L176.300005,55.8493397 C176.300005,41.8217287 166.191398,32.4129652 142.033543,32.4129652 C117.875687,32.4129652 107.767081,41.8217287 107.767081,55.8493397 L107.767081,96.5636255 Z M160.023435,95.195078 C160.023435,102.55102 154.883466,106.656663 142.033543,106.656663 C129.18362,106.656663 124.04365,102.55102 124.04365,95.195078 L124.04365,57.2178872 C124.04365,49.8619448 129.18362,45.7563025 142.033543,45.7563025 C154.883466,45.7563025 160.023435,49.8619448 160.023435,57.2178872 L160.023435,95.195078 Z" id="Shape"></path>
                <path d="M254.803795,57.560024 C254.803795,59.7839136 255.660457,60.6392557 257.716444,60.6392557 L266.625724,60.6392557 C269.024377,60.6392557 269.709706,59.7839136 269.709706,57.560024 L269.709706,53.4543818 C269.709706,42.8481393 261.657087,32.4129652 238.698558,32.4129652 C215.568696,32.4129652 207.68741,42.8481393 207.68741,53.4543818 L207.68741,59.7839136 C207.68741,68.3373349 214.712035,74.8379352 221.05133,77.0618247 L246.751177,85.957383 C252.405143,87.8391357 255.831789,90.0630252 255.831789,94.1686675 L255.831789,98.787515 C255.831789,104.945978 249.149829,107.854142 238.355893,107.854142 C227.390626,107.854142 220.879998,104.945978 220.879998,98.787515 L220.879998,95.195078 C220.879998,93.1422569 220.194669,92.1158463 217.967349,92.1158463 L208.886736,92.1158463 C206.830749,92.1158463 205.974087,93.1422569 205.974087,95.195078 L205.974087,99.4717887 C205.974087,110.078031 215.054699,120 238.355893,120 C261.485755,120 270.909032,110.078031 270.909032,99.4717887 L270.909032,89.8919568 C270.909032,81.8517407 264.912401,76.377551 255.489124,73.1272509 L229.789278,64.2316927 C226.705296,63.2052821 222.593321,60.8103241 222.593321,56.362545 L222.593321,53.4543818 C222.593321,47.2959184 228.075955,44.3877551 238.527226,44.3877551 C249.149829,44.3877551 254.803795,47.2959184 254.803795,53.4543818 L254.803795,57.560024 Z" id="Path"></path>
                <path d="M306.425507,33.7815126 C304.026854,33.7815126 303.170193,34.8079232 303.170193,37.0318127 L303.170193,115.210084 C303.170193,117.605042 304.026854,118.631453 306.425507,118.631453 L316.362781,118.631453 C318.590101,118.631453 319.446762,117.605042 319.446762,115.210084 L319.446762,55.6782713 C322.873408,52.770108 330.754695,46.9537815 341.719962,46.9537815 C351.143239,46.9537815 354.398553,51.2304922 354.398553,58.2442977 L354.398553,115.210084 C354.398553,117.605042 355.426547,118.631453 357.653867,118.631453 L367.591141,118.631453 C369.818461,118.631453 370.675123,117.605042 370.675123,115.210084 L370.675123,58.0732293 C370.675123,57.3889556 370.675123,56.5336134 370.50379,55.8493397 C373.759104,52.9411765 381.64039,46.9537815 392.948323,46.9537815 C402.3716,46.9537815 405.626914,51.2304922 405.626914,58.2442977 L405.626914,115.210084 C405.626914,117.605042 406.654907,118.631453 409.05356,118.631453 L418.819501,118.631453 C421.046821,118.631453 422.074815,117.605042 422.074815,115.210084 L422.074815,54.3097239 C422.074815,41.6506603 413.679532,32.4129652 397.745627,32.4129652 C381.469058,32.4129652 372.559778,40.4531813 368.447803,44.0456182 C365.021156,37.0318127 357.653867,32.4129652 346.517267,32.4129652 C332.296685,32.4129652 323.73007,38.5714286 319.104097,42.5060024 L318.761433,37.0318127 C318.590101,34.8079232 317.904771,33.7815126 315.506119,33.7815126 L306.425507,33.7815126 Z" id="Path"></path>
                <path d="M453.858049,96.5636255 C453.858049,110.591236 463.966655,120 488.124511,120 C512.282366,120 522.390972,110.591236 522.390972,96.5636255 L522.390972,55.8493397 C522.390972,41.8217287 512.282366,32.4129652 488.124511,32.4129652 C463.966655,32.4129652 453.858049,41.8217287 453.858049,55.8493397 L453.858049,96.5636255 Z M506.114403,95.195078 C506.114403,102.55102 500.974434,106.656663 488.124511,106.656663 C475.274588,106.656663 470.134618,102.55102 470.134618,95.195078 L470.134618,57.2178872 C470.134618,49.8619448 475.274588,45.7563025 488.124511,45.7563025 C500.974434,45.7563025 506.114403,49.8619448 506.114403,57.2178872 L506.114403,95.195078 Z" id="Shape"></path>
                <path d="M600.894763,57.560024 C600.894763,59.7839136 601.751424,60.6392557 603.807412,60.6392557 L612.716692,60.6392557 C615.115345,60.6392557 615.800674,59.7839136 615.800674,57.560024 L615.800674,53.4543818 C615.800674,42.8481393 607.748055,32.4129652 584.789526,32.4129652 C561.659664,32.4129652 553.778378,42.8481393 553.778378,53.4543818 L553.778378,59.7839136 C553.778378,68.3373349 560.803003,74.8379352 567.142298,77.0618247 L592.842144,85.957383 C598.496111,87.8391357 601.922757,90.0630252 601.922757,94.1686675 L601.922757,98.787515 C601.922757,104.945978 595.240797,107.854142 584.446861,107.854142 C573.481593,107.854142 566.970966,104.945978 566.970966,98.787515 L566.970966,95.195078 C566.970966,93.1422569 566.285637,92.1158463 564.058316,92.1158463 L554.977704,92.1158463 C552.921716,92.1158463 552.065055,93.1422569 552.065055,95.195078 L552.065055,99.4717887 C552.065055,110.078031 561.145667,120 584.446861,120 C607.576723,120 617,110.078031 617,99.4717887 L617,89.8919568 C617,81.8517407 611.003369,76.377551 601.580092,73.1272509 L575.880246,64.2316927 C572.796264,63.2052821 568.684289,60.8103241 568.684289,56.362545 L568.684289,53.4543818 C568.684289,47.2959184 574.166923,44.3877551 584.618194,44.3877551 C595.240797,44.3877551 600.894763,47.2959184 600.894763,53.4543818 L600.894763,57.560024 Z" id="Path"></path>
            </g>
        </g>
    </g>
</svg>