<?xml version="1.0" standalone="no"?>
<!DOCTYPE svg PUBLIC "-//W3C//DTD SVG 20010904//EN"
 "http://www.w3.org/TR/2001/REC-SVG-20010904/DTD/svg10.dtd">
<svg version="1.0" xmlns="http://www.w3.org/2000/svg"
 width="1369.000000pt" height="1369.000000pt" viewBox="0 0 1369.000000 1369.000000"
 preserveAspectRatio="xMidYMid meet">
<metadata>
Created by potrace 1.14, written by Peter Selinger 2001-2017
</metadata>
<g transform="translate(0.000000,1369.000000) scale(0.100000,-0.100000)"
fill="#000000" stroke="none">
<path d="M1950 13683 c-114 -15 -167 -29 -285 -71 -357 -129 -638 -443 -735
-822 -47 -187 -44 -417 8 -606 92 -327 315 -595 630 -753 l42 -21 0 -969 0
-968 -64 -105 c-93 -155 -195 -343 -280 -520 -42 -87 -76 -160 -76 -163 0 -2
-11 -28 -24 -57 -79 -170 -178 -446 -264 -733 -23 -76 -98 -372 -106 -420 -3
-16 -17 -91 -31 -165 -24 -129 -36 -204 -50 -315 -4 -27 -8 -59 -10 -71 -2
-11 -6 -49 -10 -85 -3 -35 -8 -82 -10 -104 -27 -251 -27 -939 -1 -1105 3 -14
7 -59 11 -100 4 -41 8 -86 10 -100 2 -14 6 -50 9 -80 4 -30 9 -62 11 -70 2 -8
7 -35 10 -60 13 -95 17 -119 47 -260 16 -80 32 -154 34 -165 3 -11 7 -31 10
-45 8 -38 49 -194 79 -295 375 -1290 1163 -2424 2245 -3232 443 -330 930 -599
1475 -814 107 -42 440 -152 540 -179 201 -53 403 -101 485 -114 37 -6 56 -10
135 -26 55 -11 84 -15 165 -25 30 -4 62 -9 71 -10 8 -2 42 -6 74 -9 32 -4 72
-9 89 -11 149 -20 352 -29 661 -29 315 0 471 7 655 29 19 2 60 7 90 10 54 6
285 41 326 49 12 2 38 7 58 10 19 3 55 10 78 15 24 6 54 12 68 15 14 2 48 10
75 16 28 6 61 14 75 16 45 9 253 65 385 106 296 90 583 203 865 339 183 89
423 218 428 231 2 4 8 8 14 8 36 0 566 360 721 490 12 10 69 57 127 105 348
290 710 671 976 1030 32 44 61 82 64 85 20 19 222 326 287 436 152 254 314
576 413 819 29 72 59 144 66 160 19 44 121 347 145 430 34 114 107 400 113
440 4 21 8 40 10 44 2 3 7 23 10 43 3 21 10 57 15 81 6 23 20 103 31 177 12
74 23 149 26 166 5 31 8 58 19 170 4 33 8 74 10 90 20 152 27 719 12 954 -7
122 -9 143 -22 265 -3 33 -8 80 -11 105 -2 25 -6 54 -9 65 -2 11 -7 43 -10 70
-8 60 -28 179 -51 295 -9 47 -18 94 -20 105 -8 45 -85 345 -104 410 -12 39
-23 79 -25 91 -3 11 -29 92 -59 180 -177 519 -422 1018 -720 1459 -77 115
-205 295 -216 305 -3 3 -30 37 -60 75 -165 211 -372 439 -589 648 -85 83 -82
80 -238 218 -198 175 -573 448 -816 595 -27 16 -65 39 -85 51 -21 12 -44 25
-52 29 -8 4 -31 17 -50 29 -99 61 -350 186 -595 295 -237 105 -749 277 -972
325 -184 40 -305 65 -333 70 -19 3 -60 10 -90 15 -157 27 -274 42 -405 55 -33
3 -73 8 -90 10 -234 30 -938 24 -1185 -10 -19 -2 -61 -7 -93 -10 -32 -4 -68
-8 -79 -10 -12 -3 -42 -7 -67 -10 -64 -7 -371 -62 -418 -74 -21 -6 -49 -12
-63 -15 -214 -39 -665 -180 -964 -301 -281 -114 -619 -282 -834 -416 -26 -15
-60 -36 -77 -45 -159 -90 -647 -443 -765 -555 -9 -8 -49 -43 -90 -79 -41 -36
-86 -76 -101 -90 -14 -14 -40 -38 -57 -54 l-31 -29 2 387 2 387 30 17 c158 88
223 134 320 228 178 172 305 419 343 664 12 76 7 341 -7 405 -54 243 -157 438
-320 604 -147 150 -283 235 -478 300 -93 32 -119 37 -223 50 -64 9 -231 11
-280 4z m7529 -4517 c52 -4 101 -9 110 -11 9 -1 41 -6 71 -10 311 -39 635
-139 934 -286 144 -72 185 -95 336 -194 73 -48 219 -158 290 -218 95 -80 282
-271 360 -367 25 -30 47 -57 50 -60 22 -20 150 -207 212 -310 86 -143 139
-246 193 -375 20 -49 43 -103 50 -120 53 -121 148 -497 169 -670 21 -170 28
-515 13 -680 -8 -90 -43 -310 -59 -370 -5 -22 -11 -47 -13 -55 -15 -76 -100
-355 -114 -375 -4 -5 -16 -32 -26 -60 -82 -223 -257 -520 -444 -755 -70 -87
-308 -335 -391 -406 -102 -87 -265 -204 -405 -291 -138 -86 -378 -199 -555
-261 -108 -38 -349 -105 -415 -115 -44 -7 -166 -27 -195 -32 -13 -3 -58 -8
-100 -12 -100 -11 -5301 -10 -5410 0 -401 38 -764 140 -1105 310 -114 57 -234
126 -300 171 -16 12 -37 26 -46 31 -186 114 -569 469 -678 628 -8 12 -18 24
-21 27 -14 11 -180 246 -180 255 0 2 -26 47 -58 102 -140 237 -283 598 -318
803 -3 14 -8 34 -11 45 -4 11 -7 22 -8 25 -1 3 -5 28 -10 55 -5 28 -9 52 -10
55 -1 5 -14 89 -20 130 -20 143 -27 515 -13 675 11 111 36 273 59 375 6 25 13
55 15 68 11 56 78 263 124 379 53 137 140 315 209 428 23 39 47 79 54 90 54
90 208 292 297 390 397 437 882 736 1453 895 43 12 86 23 95 25 9 2 37 8 62
13 25 6 65 13 90 17 25 3 52 8 60 10 15 4 64 11 130 19 19 2 80 7 135 11 55 4
101 8 102 9 7 5 5159 -2 5232 -8z"/>
<path d="M4770 7409 c-25 -4 -63 -10 -85 -14 -468 -73 -880 -421 -1033 -871
-12 -34 -23 -72 -26 -85 -2 -13 -9 -44 -14 -69 -22 -94 -31 -314 -17 -395 20
-113 39 -196 62 -258 131 -368 414 -652 786 -791 161 -60 258 -77 457 -81 154
-3 188 0 285 21 61 13 130 30 155 38 444 144 776 499 880 941 25 105 32 170
32 282 -1 210 -41 379 -134 563 -146 288 -393 513 -693 629 -107 42 -233 75
-330 87 -81 10 -269 11 -325 3z"/>
<path d="M8898 7415 c-2 -1 -33 -5 -70 -9 -82 -7 -231 -38 -273 -56 -11 -5
-37 -14 -57 -20 -135 -41 -346 -178 -478 -310 -200 -199 -331 -459 -366 -730
-11 -83 -8 -297 5 -365 7 -33 14 -71 17 -85 15 -78 87 -257 140 -348 56 -98
195 -262 285 -337 110 -90 268 -183 384 -225 194 -70 314 -90 515 -85 197 4
284 19 444 75 104 37 301 144 343 186 8 8 18 14 23 14 5 0 56 46 112 103 104
102 201 234 259 349 29 58 87 218 96 268 29 153 32 187 29 315 -9 410 -185
740 -541 1013 -38 29 -154 94 -224 126 -133 60 -250 93 -391 111 -54 7 -247
15 -252 10z"/>
</g>
</svg>
