<?xml version="1.0" encoding="utf-8"?>
<!-- Generator: Adobe Illustrator 20.0.0, SVG Export Plug-In . SVG Version: 6.00 Build 0)  -->
<svg version="1.1" id="Layer_1" xmlns="http://www.w3.org/2000/svg" xmlns:xlink="http://www.w3.org/1999/xlink" x="0px" y="0px"
	 viewBox="0 0 200 200" style="enable-background:new 0 0 200 200;" xml:space="preserve">
<style type="text/css">
	.st0{fill:none;stroke:#000000;stroke-width:2;stroke-linejoin:round;stroke-miterlimit:10;}
</style>
<polygon vector-effect="non-scaling-stroke" class="st0" points="160,190 40,190 57.6,147.5 79.6,138.4 81.2,142.2 100,150 
	118.8,142.2 120.4,138.4 142.4,147.5 "/>
<polygon vector-effect="non-scaling-stroke" class="st0" points="126.7,103.3 126.7,123.3 120.4,138.4 118.8,142.2 100,150 
	81.2,142.2 79.6,138.4 73.3,123.3 73.3,103.3 81.2,84.5 100,76.7 118.8,84.5 "/>
<polygon vector-effect="non-scaling-stroke" class="st0" points="25,85 35.6,89.4 40,100 35.6,110.6 25,115 14.4,110.6 10,100 
	14.4,89.4 "/>
<polygon vector-effect="non-scaling-stroke" class="st0" points="100,12 115,38 85,38 "/>
<rect x="160" y="85" class="st0" width="30" height="30"/>
</svg>
