<?xml version="1.0" encoding="utf-8"?>
<!-- Generator: Adobe Illustrator 20.0.0, SVG Export Plug-In . SVG Version: 6.00 Build 0)  -->
<svg version="1.1" id="Layer_1" xmlns="http://www.w3.org/2000/svg" xmlns:xlink="http://www.w3.org/1999/xlink" x="0px" y="0px"
	 viewBox="0 0 200 200" style="enable-background:new 0 0 200 200;" xml:space="preserve">
<style type="text/css">
	.st0{fill:none;stroke:#000000;stroke-width:2;stroke-linejoin:round;}
	.st1{fill:none;stroke:#000000;stroke-width:2;stroke-linejoin:round;stroke-dasharray:23.3333,23.3333;}
	.st2{fill:none;stroke:#000000;stroke-width:2;stroke-linejoin:round;stroke-dasharray:23.3382,23.3382;}
	.st3{fill:none;stroke:#000000;stroke-width:2;stroke-linejoin:round;stroke-miterlimit:10;}
</style>
<g>
	<g vector-effect="non-scaling-stroke">
		<g>
			<line class="st0" x1="100" y1="111.7" x2="100" y2="101.7"/>
			<line class="st1" x1="100" y1="78.4" x2="100" y2="43.4"/>
			<line class="st0" x1="100" y1="31.7" x2="100" y2="21.7"/>
		</g>
	</g>
	<g vector-effect="non-scaling-stroke">
		<g>
			<line class="st0" x1="163.6" y1="175.4" x2="156.5" y2="168.3"/>
			<line class="st2" x1="140" y1="151.8" x2="115.3" y2="127"/>
			<line class="st0" x1="107.1" y1="118.8" x2="100" y2="111.7"/>
		</g>
	</g>
	<g vector-effect="non-scaling-stroke">
		<g>
			<line class="st0" x1="100" y1="111.7" x2="92.9" y2="118.8"/>
			<line class="st2" x1="76.4" y1="135.3" x2="51.7" y2="160.1"/>
			<line class="st0" x1="43.5" y1="168.3" x2="36.4" y2="175.4"/>
		</g>
	</g>
</g>
<g>
	<polygon vector-effect="non-scaling-stroke" class="st3" points="163.6,165.4 170.7,168.3 173.6,175.4 170.7,182.4 163.6,185.4 
		156.6,182.4 153.6,175.4 156.6,168.3 	"/>
	<polygon vector-effect="non-scaling-stroke" class="st3" points="36.4,165.4 43.4,168.3 46.4,175.4 43.4,182.4 36.4,185.4 
		29.3,182.4 26.4,175.4 29.3,168.3 	"/>
	<polygon vector-effect="non-scaling-stroke" class="st3" points="100,11.7 107.1,14.6 110,21.7 107.1,28.8 100,31.7 92.9,28.8 
		90,21.7 92.9,14.6 	"/>
	<polygon vector-effect="non-scaling-stroke" class="st3" points="100,71.7 128.3,83.4 140,111.7 128.3,140 100,151.7 71.7,140 
		60,111.7 71.7,83.4 	"/>
</g>
</svg>
