<?xml version="1.0" encoding="utf-8"?>
<!-- Generator: Adobe Illustrator 20.0.0, SVG Export Plug-In . SVG Version: 6.00 Build 0)  -->
<svg version="1.1" id="Layer_1" xmlns="http://www.w3.org/2000/svg" xmlns:xlink="http://www.w3.org/1999/xlink" x="0px" y="0px"
	 viewBox="0 0 200 200" style="enable-background:new 0 0 200 200;" xml:space="preserve">
<style type="text/css">
	.st0{fill:none;stroke:#000000;stroke-width:2;stroke-linejoin:round;stroke-miterlimit:10;}
	.st1{fill:none;stroke:#000000;stroke-width:2;stroke-linejoin:round;stroke-miterlimit:10;stroke-dasharray:10;}
</style>
<g>
	<polyline vector-effect="non-scaling-stroke" class="st0" points="177.7,130.2 195,140.2 100.3,194.9 5,139.9 22.4,129.9 	"/>
	<polyline vector-effect="non-scaling-stroke" class="st0" points="177.7,110.2 195,120.2 100.3,174.8 5,119.8 22.3,109.8 	"/>
	<polyline vector-effect="non-scaling-stroke" class="st0" points="177.7,90.2 195,100.2 100.3,154.8 5,99.8 22.3,89.8 	"/>
	<polyline vector-effect="non-scaling-stroke" class="st0" points="177.6,70.2 195,80.2 100.3,134.8 5,79.8 22.3,69.8 	"/>
	<polygon vector-effect="non-scaling-stroke" class="st0" points="100.3,114.8 5,59.8 99.7,5.1 195,60.1 	"/>
</g>
<g>
	<polyline vector-effect="non-scaling-stroke" class="st1" points="100.2,99.9 169.1,60.1 100,60 99.8,20.1 30.9,59.8 	"/>
	<polygon vector-effect="non-scaling-stroke" class="st0" points="37.8,55.9 40.7,59.8 37.8,63.8 30.9,65.5 24,63.8 21.2,59.8 
		24,55.8 30.9,54.2 	"/>
	<polygon vector-effect="non-scaling-stroke" class="st0" points="106.7,16.1 109.6,20.1 106.7,24.1 99.8,25.7 92.9,24 90,20.1 
		92.9,16.1 99.8,14.4 	"/>
	<polygon vector-effect="non-scaling-stroke" class="st0" points="106.9,56 109.8,60 106.9,64 100,65.6 93.1,63.9 90.3,60 93.1,56 
		100,54.3 	"/>
	<polygon vector-effect="non-scaling-stroke" class="st0" points="176,56.1 178.9,60.1 176,64.1 169.1,65.7 162.2,64.1 159.4,60.1 
		162.2,56.1 169.1,54.5 	"/>
	<polygon vector-effect="non-scaling-stroke" class="st0" points="107.1,95.9 110,99.9 107.1,103.9 100.2,105.5 93.3,103.9 
		90.5,99.9 93.3,95.9 100.2,94.2 	"/>
</g>
</svg>
