<?xml version="1.0" encoding="utf-8"?>
<!-- Generator: Adobe Illustrator 20.0.0, SVG Export Plug-In . SVG Version: 6.00 Build 0)  -->
<svg version="1.1" id="Layer_1" xmlns="http://www.w3.org/2000/svg" xmlns:xlink="http://www.w3.org/1999/xlink" x="0px" y="0px"
	 viewBox="0 0 200 200" style="enable-background:new 0 0 200 200;" xml:space="preserve">
<style type="text/css">
	.st0{fill:none;stroke:#000000;stroke-width:2;stroke-linejoin:round;stroke-miterlimit:10;stroke-dasharray:10;}
	.st1{fill:none;stroke:#000000;stroke-width:2;stroke-linejoin:round;stroke-miterlimit:10;}
</style>
<line vector-effect="non-scaling-stroke" class="st0" x1="37.1" y1="117.1" x2="46.4" y2="139.5"/>
<polyline vector-effect="non-scaling-stroke" class="st0" points="70.5,163.6 110,180 166.5,156.5 190,100 173.6,60.4 "/>
<polyline vector-effect="non-scaling-stroke" class="st0" points="149.5,36.3 110,20 53.5,43.4 37.1,82.9 "/>
<polygon vector-effect="non-scaling-stroke" class="st1" points="166.5,23.4 180.7,29.2 186.5,43.4 180.7,57.5 166.5,63.4 
	152.4,57.5 146.5,43.4 152.4,29.2 "/>
<polygon vector-effect="non-scaling-stroke" class="st1" points="53.5,136.5 67.6,142.4 73.5,156.5 67.6,170.7 53.5,176.5 
	39.3,170.7 33.5,156.5 39.3,142.4 "/>
<polygon vector-effect="non-scaling-stroke" class="st1" points="30,80 44.1,85.8 50,100 44.1,114.1 30,120 15.9,114.1 10,100 
	15.9,85.8 "/>
<polyline vector-effect="non-scaling-stroke" class="st1" points="145.6,27.1 149.5,36.3 140.2,40.1 "/>
<polyline vector-effect="non-scaling-stroke" class="st1" points="74.4,172.9 70.5,163.6 79.8,159.8 "/>
<polyline vector-effect="non-scaling-stroke" class="st1" points="33.3,126.3 37.1,117.1 46.3,120.9 "/>
</svg>
