<?xml version="1.0" encoding="utf-8"?>
<!-- Generator: Adobe Illustrator 20.0.0, SVG Export Plug-In . SVG Version: 6.00 Build 0)  -->
<svg version="1.1" id="Layer_1" xmlns="http://www.w3.org/2000/svg" xmlns:xlink="http://www.w3.org/1999/xlink" x="0px" y="0px"
	 viewBox="0 0 200 200" style="enable-background:new 0 0 200 200;" xml:space="preserve">
<style type="text/css">
	.st0{fill:none;stroke:#000000;stroke-width:2;stroke-linejoin:round;stroke-miterlimit:10;stroke-dasharray:40,5,20,5;}
</style>
<polyline vector-effect="non-scaling-stroke" class="st0" points="34.6,156.9 35,146.2 23,93.2 45,40.2 98,18.2 151,40.2 173,93.2 
	177,119.7 169.6,137.6 163.3,95.9 143.4,47.8 98,29 52.6,47.8 33.4,94.1 44.7,144 44.1,160.9 53.6,164.8 54.5,141.8 54.5,141.8 
	43.9,95 60.3,55.5 98,39.8 135.7,55.5 153.6,98.6 161.3,149.2 161.3,149.2 160.2,157.4 149.9,161.7 151.4,150.7 151.4,150.7 
	143.9,101.3 128.1,63.1 98,50.7 67.9,63.1 54.3,95.9 64.2,139.6 64.2,139.6 63.1,168.8 72.7,172.7 74,137.4 74,137.4 64.8,96.8 
	75.6,70.8 98,61.5 120.4,70.8 134.2,104 141.5,152.2 141.5,152.2 139.7,165.9 129.4,170.2 131.6,153.7 131.6,153.7 124.5,106.7 
	112.8,78.4 98,72.3 83.2,78.4 75.3,97.7 83.7,135.2 83.7,135.2 82.2,176.7 91.7,180.6 93.5,133 93.5,133 85.7,98.6 90.9,86.1 
	98,83.1 105.1,86.1 114.8,109.4 121.7,155.2 121.7,155.2 119.2,174.4 109,178.7 111.8,156.7 111.8,156.7 105.1,112.1 98,95 
	96.2,99.5 103.2,130.8 103.2,130.8 101.4,181.8 "/>
</svg>
