<?xml version="1.0" encoding="utf-8"?>
<!-- Generator: Adobe Illustrator 20.0.0, SVG Export Plug-In . SVG Version: 6.00 Build 0)  -->
<svg version="1.1" id="Layer_1" xmlns="http://www.w3.org/2000/svg" xmlns:xlink="http://www.w3.org/1999/xlink" x="0px" y="0px"
	 viewBox="0 0 200 200" style="enable-background:new 0 0 200 200;" xml:space="preserve">
<style type="text/css">
	.st0{fill:none;stroke:#000000;stroke-width:2;stroke-miterlimit:10;}
	.st1{fill:none;stroke:#000000;stroke-width:2;stroke-miterlimit:10;stroke-dasharray:10;}
</style>
<polygon vector-effect="non-scaling-stroke" class="st0" points="100,40 142.4,57.5 160,100 142.4,142.4 100,160 57.6,142.4 40,100 
	57.6,57.5 "/>
<line vector-effect="non-scaling-stroke" class="st0" x1="190" y1="190" x2="142.4" y2="142.4"/>
<line vector-effect="non-scaling-stroke" class="st0" x1="100" y1="100" x2="53.1" y2="131.6"/>
<line vector-effect="non-scaling-stroke" class="st0" x1="119.7" y1="151.8" x2="100" y2="100"/>
<line vector-effect="non-scaling-stroke" class="st0" x1="117.4" y1="47.2" x2="100" y2="100"/>
<line vector-effect="non-scaling-stroke" class="st1" x1="53.1" y1="131.6" x2="10" y2="160.7"/>
<line vector-effect="non-scaling-stroke" class="st1" x1="119.7" y1="151.8" x2="134.2" y2="190"/>
<line vector-effect="non-scaling-stroke" class="st1" x1="117.4" y1="47.2" x2="129.7" y2="10"/>
<polygon vector-effect="non-scaling-stroke" points="100,95 103.5,96.5 105,100 103.5,103.5 100,105 96.5,103.5 95,100 96.5,96.5 
	"/>
</svg>
