<svg viewBox="0 0 100 140">
    <defs>
        <clipPath id="ticketMask">
            <rect x="13" y="16" width="74" height="108"/>
        </clipPath>
    </defs>
    <polygon stroke-linejoin="round" vector-effect="non-scaling-stroke" points="15,10 10,15 10,125 17.9,132.9 20.8,130 23.8,132.9 26.7,130 29.6,132.9 32.5,130 35.4,132.9 38.3,130 41.3,132.9 44.2,130 47.1,132.9 50,130 52.9,132.9 55.9,130 58.8,132.9 61.7,130 64.6,132.9 67.5,130 70.5,132.9 73.4,130 76.3,132.9 79.2,130 82.1,132.9 90,125 90,15 85.1,10 82.1,12.9 79.2,10 76.3,12.9 73.4,10 70.5,12.9 67.5,10 64.6,12.9 61.7,10 58.8,12.9 55.9,10 52.9,12.9 50,10 47.1,12.9 44.2,10 41.3,12.9 38.3,10 35.4,12.9 32.5,10 29.6,12.9 26.7,10 23.8,12.9 20.8,10 17.9,12.9"/>
    <g clip-path="url(#ticketMask)">
        <polygon stroke-linejoin="round" vector-effect="non-scaling-stroke" points="50,45 75,70 50,95 25,70"/>
        <polygon stroke-linejoin="round" vector-effect="non-scaling-stroke" points="50,47.5 72.5,70 50,92.5 27.5,70"/>
        <polygon stroke-linejoin="round" vector-effect="non-scaling-stroke" points="50,42.5 77.5,70 50,97.5 22.5,70"/>
        <polygon stroke-linejoin="round" vector-effect="non-scaling-stroke" points="50,40 80,70 50,100 20,70"/>
        <polygon stroke-linejoin="round" vector-effect="non-scaling-stroke" points="50,37.5 82.5,70 50,102.5 17.5,70"/>
        <polygon stroke-linejoin="round" vector-effect="non-scaling-stroke" points="50,35 85,70 50,105 15,70"/>
        <polygon stroke-linejoin="round" vector-effect="non-scaling-stroke" points="50,32.5 87.5,70 50,107.5 12.5,70"/>
        <polygon stroke-linejoin="round" vector-effect="non-scaling-stroke" points="50,30 90,70 50,110 10,70"/>
        <polygon stroke-linejoin="round" vector-effect="non-scaling-stroke" points="50,27.5 92.5,70 50,112.5 7.5,70"/>
        <polygon stroke-linejoin="round" vector-effect="non-scaling-stroke" points="50,25 95,70 50,115 5,70"/>
        <polygon stroke-linejoin="round" vector-effect="non-scaling-stroke" points="50,22.5 97.5,70 50,117.5 2.5,70"/>
        <polygon stroke-linejoin="round" vector-effect="non-scaling-stroke" points="50,20 100,70 50,120 0,70"/>
        <polygon stroke-linejoin="round" vector-effect="non-scaling-stroke" points="50,17.5 102.5,70 50,122.5 -2.5,70"/>
        <polygon stroke-linejoin="round" vector-effect="non-scaling-stroke" points="50,15 105,70 50,125 -5,70"/>
        <polygon stroke-linejoin="round" vector-effect="non-scaling-stroke" points="50,12.5 107.5,70 50,127.5 -7.5,70"/>
        <polygon stroke-linejoin="round" vector-effect="non-scaling-stroke" points="50,10 110,70 50,130 -10,70"/>
        <polygon stroke-linejoin="round" vector-effect="non-scaling-stroke" points="50,7.5 112.5,70 50,132.5 -12.5,70"/>
        <polygon stroke-linejoin="round" vector-effect="non-scaling-stroke" points="50,5 115,70 50,135 -15,70"/>
        <polygon stroke-linejoin="round" vector-effect="non-scaling-stroke" points="50,2.5 117.5,70 50,137.5 -17.5,70"/>
        <polygon stroke-linejoin="round" vector-effect="non-scaling-stroke" points="50,0 120,70 50,140 -20,70"/>
        <polygon stroke-linejoin="round" vector-effect="non-scaling-stroke" points="50,-2.5 122.5,70 50,142.5 -22.5,70"/>
        <polygon stroke-linejoin="round" vector-effect="non-scaling-stroke" points="50,-5 125,70 50,145 -25,70"/>
        <polygon stroke-linejoin="round" vector-effect="non-scaling-stroke" points="50,-7.5 127.5,70 50,147.5 -27.5,70"/>
        <polygon stroke-linejoin="round" vector-effect="non-scaling-stroke" points="50,-10 130,70 50,150 -30,70"/>
        <polygon stroke-linejoin="round" vector-effect="non-scaling-stroke" points="50,-12.5 132.5,70 50,152.5 -32.5,70"/>
        <polygon stroke-linejoin="round" vector-effect="non-scaling-stroke" points="50,-15 135,70 50,155 -35,70"/>
        <polygon stroke-linejoin="round" vector-effect="non-scaling-stroke" points="50,-17.5 137.5,70 50,157.5 -37.5,70"/>
    </g>
    <rect stroke-linejoin="round" vector-effect="non-scaling-stroke" x="13" y="16" width="74" height="108"/>
    <g>
        <polygon stroke-linejoin="round" vector-effect="non-scaling-stroke" points="50,50 70,70 50,90 30,70 "/>
        <polyline stroke-linecap="round" stroke-linejoin="round" vector-effect="non-scaling-stroke" points="35.9,84.1 35.9,55.9 50,70 64.1,55.9 64.1,84.1  "/>
    </g>
</svg>