<svg viewBox="0 0 80 80">
    <path class="horse" d="M72.7,47c3.2-6.7-1.1-9.5-5.8-9.3c-3.5,0.2-5.3,1.9-6.1,2.8c-1.9-2.7-5-4.5-8.6-4.5c-0.5,0-1,0-1.4,0.1l0,0c0,0-9.1,0.3-11.6-1.3c-0.4-0.3-0.8-0.5-1.1-0.8c-0.5-1.2-1.1-2.2-2-3.1c0.1-1.8,0.5-6.4,2.8-7.4c1.2-0.5,3.2,0,4.1,0.2c0.1,0.1,0.3,0.1,0.5,0.2c0,0,0,0,0,0v0c0.8,0.2,1.6,0.3,2.4,0.2l6.6,1.9l0,0c0.6,0.3,1.3,0.4,2,0.1c1.3-0.5,2-1.9,1.5-3.2c-0.3-0.8-1-1.4-1.8-1.6l0,0l-3.2-5.3l2-1.9l0,0c0,0,0.1-0.1,0.1-0.2c0.1-0.2,0-0.5-0.2-0.7c-0.1-0.1-0.3-0.1-0.4,0l0,0L50.3,14l5.6-5.4c0.2-0.1,0.2-0.4,0.1-0.5l-0.1-0.2c-0.1-0.2-0.3-0.2-0.5-0.1L47,11.7l0.5-1.5l0,0c0-0.1,0-0.1,0-0.2c0-0.3-0.2-0.5-0.5-0.5c-0.1,0-0.3,0.1-0.4,0.2l0,0l-2.4,2.4c-0.4,0.1-0.8,0.1-1.2,0.3c-0.3,0.1-0.6,0.2-0.8,0.4c-0.8,0-5.5,0.2-10.6,3.2c-6.5,3.8-9,11.2-9.7,13.7c-4-4.4-9.8-7.2-16.2-7.2v4.2c5.8,0,10.9,2.8,14.1,7.2c-0.4,1.1-0.6,2.3-0.6,3.5c0,0.5,0,0.9,0.1,1.3c-3.9-3.5-9.1-5.5-14.5-5.5v4.2c6.2,0,11.8,3.2,15,8.5l0,0h0c1.2,1.1,2.6,1.8,4.1,2c0.8,0.1,1.6,0.1,2.4-0.1l0,0c0,0,3-1.1,9.6,3.9c1.5,1.2,3.9,1.8,6.5,2c1,6.5,6.2,11,12.4,11c0.4,0,0.8,0,1.2-0.1c2.4,3.5,3.4,7.9,2.8,12.4l4.2,0.6c0.8-5.4-0.4-10.9-3.5-15.4c-1.5-2.2-3.4-4.2-5.5-5.7c0.4-0.1,0.8-0.2,1.2-0.3c2.2,1.8,5,2.8,8,2.8c0.4,0,0.8,0,1.2-0.1c2.7,3.6,3.9,8.2,3.2,13l4.2,0.6c0.9-5.8-0.5-11.5-4-16.2c-1.7-2.3-3.8-4.2-6.2-5.7c0.7-1.4,1-2.9,1-4.5c0-1.1-0.2-2.2-0.5-3.2c2.8-0.9,5.6,0.7,4.3,3.6c-1.1,2.5-0.9,6.2,2.7,7.8c3.6,1.7,6-1.7,6-1.7C72.2,52.9,70.8,51,72.7,47z"/>
    <g class="stars">
        <path d="M60.4,17.7c0.8,0.8,1.1,1.9,1.2,2.8c0.1-1,0.4-2.1,1.2-2.8c0.8-0.8,1.9-1.1,2.8-1.2c0,0,0,0,0,0c-1-0.1-2.1-0.4-2.8-1.2c-0.8-0.8-1.1-1.9-1.2-2.8c-0.1,1-0.4,2.1-1.2,2.8c-0.8,0.8-1.9,1.1-2.8,1.2l0,0C58.6,16.6,59.7,17,60.4,17.7z"/>
        <path d="M67.9,8.9c1,1,1.4,2.4,1.5,3.6c0.1-1.2,0.5-2.6,1.5-3.6c1-1,2.4-1.4,3.6-1.5c0,0,0,0,0,0C73.4,7.3,72,6.9,71,5.9c-1-1-1.4-2.4-1.5-3.6c-0.1,1.2-0.5,2.6-1.5,3.6c-1,1-2.4,1.4-3.6,1.5l0,0C65.5,7.5,67,7.9,67.9,8.9z"/>
        <path d="M73.5,15.5c0,0.4-0.2,0.8-0.5,1.1c-0.3,0.3-0.8,0.4-1.1,0.5l0,0c0.4,0,0.8,0.2,1.1,0.5c0.3,0.3,0.4,0.8,0.5,1.1c0-0.4,0.2-0.8,0.5-1.1c0.3-0.3,0.8-0.4,1.1-0.5l0,0c-0.4,0-0.8-0.2-1.1-0.5C73.7,16.3,73.6,15.8,73.5,15.5z"/>
    </g>
</svg>