<?xml version="1.0" encoding="UTF-8"?>
<svg width="234px" height="55px" viewBox="0 0 234 55" version="1.1" xmlns="http://www.w3.org/2000/svg" xmlns:xlink="http://www.w3.org/1999/xlink">
    <title>Group 6</title>
    <g id="Page-1" stroke="none" stroke-width="1" fill="none" fill-rule="evenodd">
        <g id="Grakn-Orbit-4" transform="translate(-1034.000000, -26.000000)">
            <g id="Group-6" transform="translate(1034.936170, 26.640000)">
                <g id="Group-Copy-2" transform="translate(0.000000, 16.000000)" fill="#FFFFFF" fill-rule="nonzero">
                    <path d="M2.52417455,1.21505466 C4.66194637,0.0232835172 7.21364739,-0.0431176245 9.61012496,0.0232835172 C11.6625239,0.157810506 13.8520369,0.540695011 15.3878866,1.97047544 C16.5951801,3.09153368 16.9565058,4.79036808 16.8538859,6.35122609 C16.7676506,6.93848813 17.0953446,7.74392536 16.5089449,8.14750632 C15.6120983,8.24753921 14.6980047,8.18113807 13.8020204,8.18113807 C13.4743265,8.21390747 13.1293855,8.02936403 13.0948914,7.67752422 C12.9914091,6.7539447 13.2156207,5.74671699 12.7327033,4.89126332 C12.147166,3.81677212 10.8536373,3.44768525 9.71446961,3.31315827 C8.26657978,3.17863128 6.7324547,3.19587833 5.40270716,3.81677212 C4.43687237,4.25312248 3.90221383,5.31036663 3.95395498,6.33484139 L3.95395498,19.5935109 C3.95395498,20.4325799 4.29889597,21.306143 5.02327207,21.8088945 C6.040848,22.4987765 7.29902029,22.5643153 8.50631377,22.6315787 C9.72999196,22.5643153 11.0752618,22.4970518 12.0928378,21.7424933 C12.7473633,21.2725112 13.0578102,20.4834587 13.0750573,19.7107909 C13.0923043,18.5034974 13.0750573,17.2962039 13.0750573,16.0889104 C11.5409322,16.0725257 10.0059448,16.1061575 8.47181967,16.0725257 C8.07513753,16.0889104 7.86817293,15.6698071 7.86817293,15.334352 C7.85092588,14.6798264 7.81643178,14.0253009 7.88541998,13.3871601 C7.90266703,13.0180732 8.28210213,12.8162827 8.62704312,12.8335298 L16.0579345,12.8335298 C16.4201226,12.799898 16.8340518,13.0180732 16.8340518,13.4035448 C16.8512988,15.7034388 16.8340518,17.9860859 16.8512988,20.2851176 C16.8512988,21.9132391 16.0924286,23.5620571 14.6790329,24.4649401 C12.7128692,25.7403595 10.2474035,25.8912712 7.93716113,25.8912712 C5.71315406,25.8050359 3.26493534,25.5221843 1.5557527,23.977711 C0.45280387,23.0213621 -0.0473605744,21.5277676 0.00351822249,20.1178212 C0.0207652723,15.1834403 0.00351822249,10.265444 0.00351822249,5.34744779 C0.0672937574,3.62698569 1.02059654,2.06329479 2.52072514,1.21850407" id="Path-Copy"></path>
                    <path d="M57.4223964,1.24782405 C57.5258787,0.828720743 57.7673374,0.291475142 58.301996,0.307859839 C59.2321868,0.291762592 60.1632401,0.291762592 61.0951557,0.307859839 C61.5263319,0.325106889 61.7669283,0.744210199 61.8712729,1.11415942 C64.1823776,8.61605118 66.4929074,16.1127688 68.8028622,23.6043124 C68.9408386,24.1079262 69.1822973,24.594293 69.1650503,25.1315386 C69.1995444,25.4842408 68.7511211,25.567889 68.4751683,25.567889 C67.6128158,25.567889 66.7685727,25.585136 65.9062202,25.567889 C65.5095381,25.5515043 65.2508323,25.1815551 65.1645971,24.8460999 C64.2341187,21.8416639 63.3200251,18.8372278 62.4913043,15.816407 C61.8531635,13.6510399 60.4570148,8.3475721 59.6119094,4.57133055 C58.784051,8.02850168 58.5262076,9.20388813 56.9049849,14.8764428 C56.1633618,17.4781603 56.0943736,17.629072 55.5433303,19.4417369 C54.9914247,21.2880336 54.4395191,23.1170832 53.8703665,24.9607928 C53.7648835,25.308434 53.4565299,25.5554595 53.0942493,25.582549 C52.3020348,25.5986462 51.5089579,25.5986462 50.7150187,25.582549 C50.456313,25.582549 50.0768779,25.4307749 50.111372,25.1289516 C50.1286191,24.6425848 50.3355837,24.1889873 50.47356,23.7190052 C52.8019118,16.2337856 55.1181906,8.74252954 57.4223964,1.245237" id="Path-Copy-2"></path>
                    <path d="M25.800793,1.14865352 C25.7662989,0.778704298 25.9560164,0.275090444 26.4216868,0.325969241 C29.3013692,0.308722191 32.1807641,0.308722191 35.0598716,0.325969241 C37.0941612,0.393232735 39.2664271,0.728687854 40.9238686,1.97047544 C42.1130527,2.84317616 42.8029347,4.23673778 42.8719228,5.6630688 C42.9064169,7.07301512 42.8719228,8.48296144 42.8891699,9.89290776 C42.8891699,11.0846789 42.5442289,12.3074947 41.7508646,13.232799 C40.9411156,14.2063949 39.7338221,14.793657 38.527391,15.1627438 C40.044269,18.4526186 41.63186,21.7088616 43.0788874,25.0315057 C43.0271463,25.132401 42.940911,25.3341914 42.8891699,25.4342243 C42.216535,25.7532948 41.4576648,25.5687513 40.7332887,25.6187678 C40.1986301,25.5859984 39.4397599,25.7869265 39.1810542,25.1824174 C37.6986703,22.0270697 36.2490557,18.8553372 34.8020282,15.6827424 C33.0945703,15.6663577 31.3879747,15.6827424 29.6813792,15.6827424 C29.6813792,18.7872113 29.6986262,21.8916803 29.6813792,25.015121 C29.7158733,25.3678232 29.3709323,25.6360148 29.0259913,25.6187678 C28.1808858,25.6187678 27.3185333,25.6360148 26.4742903,25.6187678 C26.043114,25.6523995 25.8016553,25.2160492 25.8361494,24.8426505 C25.7844083,16.9210806 25.8016553,9.03227998 25.8016553,1.14434175 M29.6641321,3.55892873 L29.6641321,12.39373 C31.3026018,12.3764829 32.9220998,12.4101147 34.5605696,12.3764829 C35.9403335,12.2902477 37.5261998,12.124676 38.4411558,10.996719 C39.217273,10.0067383 38.9585673,8.68044016 39.009446,7.52230077 C39.0439401,6.54956716 38.992199,5.45782891 38.2514382,4.73690223 C37.3200975,3.81332271 35.9058394,3.62877928 34.6295578,3.57876283 C32.973841,3.54513109 31.3189865,3.56151578 29.6641321,3.56151578" id="Shape-Copy"></path>
                    <path d="M77.2677143,0.510512674 C77.4746789,0.275090444 77.8368669,0.325969241 78.1300668,0.308722191 C78.9406781,0.325969241 79.7685365,0.275090444 80.5782855,0.342353939 C80.9577206,0.393232735 81.0612029,0.829583095 81.0439558,1.14779116 L81.0439558,11.5537987 L81.7502225,11.5537987 C84.33728,8.08024283 86.9407221,4.62220935 89.5269173,1.14779116 C89.8373642,0.778704298 90.1823052,0.342353939 90.7161013,0.325969241 C91.5784538,0.308722191 92.4580534,0.325969241 93.3376529,0.325969241 C93.5782493,0.292337494 93.819708,0.359600988 93.9576844,0.577776168 C94.0094255,0.89684659 93.7852139,1.18142291 93.6299904,1.45047689 C90.7842272,5.22671844 87.9746828,9.00295999 85.1297819,12.7628169 C87.7332241,15.9681811 90.3202816,19.1744076 92.9237237,22.3797718 C93.6136057,23.319736 94.5095899,24.1424203 95.0442485,25.1824174 C94.889025,25.3548879 94.7855427,25.6523995 94.4923429,25.6023831 C93.474767,25.6187678 92.4408063,25.6023831 91.4232304,25.6187678 C90.9748071,25.6523995 90.612619,25.3678232 90.3720227,25.0487528 C87.5101622,21.5067836 84.6537633,17.9711384 81.802826,14.4418171 L81.0612029,14.4418171 L81.0612029,24.8642093 C81.095697,25.1824174 80.8887324,25.5687513 80.5265443,25.6023831 C79.6296977,25.6360148 78.7337135,25.6187678 77.8368669,25.6187678 C77.4056907,25.6523995 77.1124908,25.2496809 77.1469849,24.8642093 L77.1469849,1.68503677 C77.1469849,1.26593346 77.0779967,0.863214842 77.2677143,0.510512674" id="Path-Copy-3"></path>
                    <path d="M102.871822,0.980494781 C102.837328,0.645039662 103.113281,0.275090444 103.475469,0.325969241 C104.337821,0.325969241 105.200174,0.292337494 106.044417,0.342353939 C106.337617,0.359600988 106.441099,0.645039662 106.579075,0.845967793 C109.182805,5.31065408 111.786247,9.76412979 114.389402,14.2063949 C115.113778,15.4999237 115.958883,16.7408489 116.510789,18.1335482 C116.476295,12.4273617 116.493542,6.70392826 116.493542,0.996879478 C116.510789,0.040530567 117.682726,0.359600988 118.320867,0.306997486 C118.924514,0.393232735 119.992968,0.00517411494 120.148192,0.844243088 C120.165439,8.8842428 120.165439,16.9236676 120.148192,24.9625175 C120.113698,25.8015865 119.06249,25.5661643 118.493337,25.6006584 C117.855197,25.5144231 116.95835,25.8524653 116.545283,25.2143245 C113.87314,20.6490304 111.21192,16.0785622 108.561624,11.5029199 C107.871742,10.2611323 107.061993,9.08833289 106.544581,7.76031006 C106.579075,13.4518365 106.544581,19.1433629 106.561828,24.8124682 C106.630817,25.1815551 106.337617,25.6015207 105.923688,25.567889 C105.130323,25.585136 104.320574,25.585136 103.52721,25.567889 C103.113281,25.585136 102.837328,25.1815551 102.889069,24.8124682 C102.871822,16.8736512 102.866073,8.92937258 102.871822,0.979632429" id="Path-Copy-4"></path>
                </g>
                <text id="ORBIT" font-family="TitilliumWeb-SemiBold, Titillium Web" font-size="36.2188046" font-weight="500" letter-spacing="1.29592558" fill="#02DAC9">
                    <tspan x="129" y="41.36">ORBIT</tspan>
                </text>
            </g>
        </g>
    </g>
</svg>