<?xml version="1.0" encoding="UTF-8"?>
<svg width="1294px" height="1017px" viewBox="0 0 1294 1017" version="1.1" xmlns="http://www.w3.org/2000/svg" xmlns:xlink="http://www.w3.org/1999/xlink">
    <title>TybeDB Cosmos logo - green white - transparent bg - 1294x1017</title>
    <defs>
        <linearGradient x1="100%" y1="50%" x2="-25.2959672%" y2="-34.4097137%" id="linearGradient-1">
            <stop stop-color="#FFFFFF" offset="0%"></stop>
            <stop stop-color="#A38BF6" offset="100%"></stop>
        </linearGradient>
        <linearGradient x1="100%" y1="50%" x2="-51.9913124%" y2="40.9616192%" id="linearGradient-2">
            <stop stop-color="#FFFFFF" offset="0%"></stop>
            <stop stop-color="#A38BF6" offset="100%"></stop>
        </linearGradient>
        <linearGradient x1="29.117677%" y1="45.9093169%" x2="64.2092792%" y2="48.1279977%" id="linearGradient-3">
            <stop stop-color="#C6B7FF" offset="0%"></stop>
            <stop stop-color="#FFFFFF" offset="100%"></stop>
        </linearGradient>
        <linearGradient x1="32.8876677%" y1="46.9934171%" x2="96.9692841%" y2="46.2367693%" id="linearGradient-4">
            <stop stop-color="#B9ACEE" offset="0%"></stop>
            <stop stop-color="#FFFFFF" offset="100%"></stop>
        </linearGradient>
    </defs>
    <g id="TybeDB-Cosmos-logo---green-white---transparent-bg---1294x1017" stroke="none" stroke-width="1" fill="none" fill-rule="evenodd">
        <g id="space-logo" transform="translate(251.339892, -0.067711)">
            <g id="text-logo" transform="translate(401.660108, 856.067711)"></g>
        </g>
        <g id="logo" transform="translate(277.000000, 1.000000)">
            <g id="space-logo" transform="translate(1.445539, 50.012448)">
                <path d="M636.633467,272.627352 L721.398377,272.611455 C730.077631,272.609827 737.583478,278.660158 739.424417,287.141927 L761.364923,388.228581 L761.364923,388.228581 L596.634853,388.259475 L618.615666,287.151742 C620.45842,278.675409 627.959139,272.628979 636.633467,272.627352 Z" id="Rectangle" fill="url(#linearGradient-1)" transform="translate(678.999888, 330.434071) rotate(89.000000) translate(-678.999888, -330.434071) "></path>
                <path d="M16.8880962,272.627612 L101.652987,272.611183 C110.332293,272.609501 117.838209,278.659856 119.679147,287.141678 L141.619648,388.228934 L141.619648,388.228934 L-23.1104223,388.259828 L-1.12958893,287.152001 C0.713155996,278.675711 8.21381173,272.629293 16.8880962,272.627612 Z" id="Rectangle-Copy-2" fill="url(#linearGradient-2)" transform="translate(59.254613, 330.434065) scale(-1, 1) rotate(89.000000) translate(-59.254613, -330.434065) "></path>
                <ellipse id="Oval" fill="#261C5E" cx="369.773021" cy="329.459061" rx="333" ry="329.459061"></ellipse>
                <path d="M369.773021,0 C486.876463,0 589.861878,59.8037061 649.230083,150.225613 C573.440809,110.64231 477.037999,86.9405856 372.085521,86.9405856 C263.837416,86.9405856 164.684347,112.154202 87.8703444,154.006043 C146.829931,61.4742444 251.045278,0 369.773021,0 Z" id="Combined-Shape" fill="url(#linearGradient-3)"></path>
                <path d="M369.773021,504.912489 C486.876463,504.912489 589.861878,564.716195 649.230083,655.138102 C573.440809,615.554799 477.037999,591.853075 372.085521,591.853075 C263.837416,591.853075 164.684347,617.066691 87.8703444,658.918532 C146.829931,566.386733 251.045278,504.912489 369.773021,504.912489 Z" id="Combined-Shape-Copy" fill="url(#linearGradient-4)" transform="translate(368.550919, 581.915306) scale(1, -1) translate(-368.550919, -581.915306) "></path>
                <g id="Group" transform="translate(457.870822, 132.698789)"></g>
            </g>
            <g id="Group-2" transform="translate(70.858529, 214.759336)">
                <rect id="Rectangle" fill="#392D7F" x="0" y="0" width="599.935548" height="329.493776" rx="164.746888"></rect>
                <ellipse id="Oval" fill="#05E9A8" cx="196.30999" cy="165.223638" rx="73.1253125" ry="70.0919895"></ellipse>
                <ellipse id="Oval-Copy" fill="#05E9A8" cx="418.732816" cy="165.223638" rx="73.1253125" ry="70.0919895"></ellipse>
            </g>
            <path d="M159.203187,0 C178.742186,0 194.581673,16.0750498 194.581673,35.9046286 C194.581673,50.5969357 185.886182,63.2280981 173.433156,68.7867213 L173.43318,150.037344 L145.130392,150.037344 L145.129863,68.8561819 C132.593173,63.3338523 123.824701,50.6584622 123.824701,35.9046286 C123.824701,16.0750498 139.664189,0 159.203187,0 Z" id="Combined-Shape-Copy-16" fill="#C6B7FF"></path>
        </g>
        <g id="Name-Copy" transform="translate(2.000000, 857.000000)" fill-rule="nonzero">
            <g id="typeDB-Copy-2" transform="translate(0.000000, 0.487414)" fill="#FFFFFF">
                <polygon id="T" points="57.8650985 117.280804 57.8650985 18.866912 94.7966467 18.866912 94.7966467 0 0 0 0 18.866912 36.9315482 18.866912 36.9315482 117.280804"></polygon>
                <polygon id="y" points="147.679259 151.439513 186.653105 31.2691815 187.73788 28.2096823 167.421469 28.2096823 144.956196 100.107914 142.403324 100.107914 119.93805 28.2096823 99.7116097 28.2096823 100.706414 31.2691815 128.788006 117.445077 139.169686 117.445077 127.28522 151.439513"></polygon>
                <path d="M222.635172,151.512586 L222.635172,117.51815 L251.737912,117.51815 C269.551286,117.51815 278.457973,108.566282 278.457973,90.6625454 L278.457973,90.6625454 L278.457973,55.1383598 C278.457973,37.2346235 269.551286,28.2827554 251.737912,28.2827554 L251.737912,28.2827554 L202.72277,28.2827554 L202.72277,151.512586 L222.635172,151.512586 Z M250.716764,100.180988 L222.635172,100.180988 L222.635172,45.6199177 L250.716764,45.6199177 C255.935969,45.6199177 258.545571,48.2261578 258.545571,53.438638 L258.545571,53.438638 L258.545571,92.3622672 C258.545571,97.5747474 255.935969,100.180988 250.716764,100.180988 L250.716764,100.180988 Z" id="p"></path>
                <path d="M368.034574,117.50233 L373.224933,100.165167 L328.634769,100.165167 C323.415564,100.165167 320.805962,97.5589272 320.805962,92.346447 L320.805962,80.2784222 L376.628763,80.2784222 L376.628763,55.1225396 C376.628763,37.2188033 367.722076,28.2669351 349.908703,28.2669351 L327.783812,28.2669351 C309.856977,28.2669351 300.89356,37.2188033 300.89356,55.1225396 L300.89356,90.6467252 C300.89356,108.550462 309.856977,117.50233 327.783812,117.50233 L368.034574,117.50233 Z M356.716361,64.8109538 L320.805962,64.8109538 L320.805962,53.4228178 C320.805962,48.2103376 323.415564,45.6040975 328.634769,45.6040975 L348.887554,45.6040975 C354.106759,45.6040975 356.716361,48.2103376 356.716361,53.4228178 L356.716361,64.8109538 Z" id="e"></path>
                <path d="M447.883653,117.280804 C478.518117,117.280804 493.835349,101.926651 493.835349,71.2183434 L493.835349,71.2183434 L493.835349,46.0624608 C493.835349,15.3541536 478.518117,0 447.883653,0 L447.883653,0 L402.782915,0 L402.782915,117.280804 L447.883653,117.280804 Z M449.074994,98.4138922 L423.546274,98.4138922 L423.546274,18.866912 L449.074994,18.866912 C465.072992,18.866912 473.07199,26.8556044 473.07199,42.8329894 L473.07199,42.8329894 L473.07199,74.4478149 C473.07199,90.4251998 465.072992,98.4138922 449.074994,98.4138922 L449.074994,98.4138922 Z" id="D"></path>
                <path d="M577.610564,117.343945 C596.104704,117.343945 605.351773,108.10879 605.351773,89.6384801 L605.351773,89.6384801 L605.351773,75.0208726 C605.351773,69.0151889 603.479667,64.4825975 599.735455,61.4230982 L599.735455,61.4230982 L592.587413,55.4740719 L598.544115,48.3352404 C600.813334,45.6156855 601.947944,42.3295567 601.947944,38.4768539 L601.947944,38.4768539 L601.947944,27.7686066 C601.947944,9.29829636 592.700874,0.063141241 574.206735,0.063141241 L574.206735,0.063141241 L519.405083,0.063141241 L519.405083,117.343945 L577.610564,117.343945 Z M573.696161,47.1454351 L540.168442,47.1454351 L540.168442,18.9300532 L573.696161,18.9300532 C578.688444,18.9300532 581.184585,21.3663211 581.184585,26.238857 L581.184585,26.238857 L581.184585,39.6666592 C581.184585,44.6525098 578.688444,47.1454351 573.696161,47.1454351 L573.696161,47.1454351 Z M577.09999,98.4770335 L540.168442,98.4770335 L540.168442,66.0123471 L577.09999,66.0123471 C582.092273,66.0123471 584.588415,68.448615 584.588415,73.3211508 L584.588415,73.3211508 L584.588415,91.1682297 C584.588415,96.0407656 582.092273,98.4770335 577.09999,98.4770335 L577.09999,98.4770335 Z" id="B"></path>
            </g>
            <g id="Cosmos" transform="translate(671.582373, 0.000000)" fill="#05E9A8">
                <path d="M0,90.0889237 L0,27.8398408 C0,9.27994693 9.29191927,0 27.8757578,0 L78.6916349,0 L84.5631502,18.9177393 L28.431936,18.9177393 C23.437028,18.9177393 20.939574,21.3888312 20.939574,26.3310149 L20.939574,91.5977496 C20.939574,96.5399333 23.437028,99.0110252 28.431936,99.0110252 L84.5631502,99.0110252 L78.6916349,117.928764 L27.8757578,117.928764 C9.29191927,117.928764 0,108.648818 0,90.0889237 Z" id="Path"></path>
                <path d="M107.119831,90.9675143 L107.119831,55.1562659 C107.119831,37.1820991 116.118509,28.1950157 134.115865,28.1950157 L158.07431,28.1950157 C176.025317,28.1950157 185.000821,37.1820991 185.000821,55.1562659 L185.000821,90.9675143 C185.000821,108.941681 176.025317,117.928764 158.07431,117.928764 L134.115865,117.928764 C116.118509,117.928764 107.119831,108.941681 107.119831,90.9675143 Z M127.142246,92.6766269 C127.142246,97.8929807 129.753788,100.501158 134.976871,100.501158 L157.143781,100.501158 C162.366864,100.501158 164.978406,97.8929807 164.978406,92.6766269 L164.978406,53.4471534 C164.978406,48.2307995 162.366864,45.6226226 157.143781,45.6226226 L134.976871,45.6226226 C129.753788,45.6226226 127.142246,48.2307995 127.142246,53.4471534 L127.142246,92.6766269 Z" id="Shape"></path>
                <path d="M208.100154,100.501158 L247.599501,100.501158 C252.933107,100.501158 255.59991,97.6837925 255.59991,92.0490621 C255.59991,86.2986106 253.41085,83.0423951 249.032729,82.2804158 L229.895386,79.0945232 C215.365231,76.6358937 208.100154,68.4570781 208.100154,54.5580765 C208.100154,36.9827027 217.122006,28.1950157 235.16571,28.1950157 L266.264514,28.1950157 L271.381466,45.6226226 L235.989281,45.6226226 C230.609327,45.6226226 227.91935,48.4399877 227.91935,54.0747181 C227.91935,59.6204322 230.234976,62.7644871 234.866229,63.5068829 L254.003572,66.6927755 C268.326943,69.0374642 275.488628,77.3052961 275.488628,91.496271 C275.488628,109.117933 266.442711,117.928764 248.350876,117.928764 L213.157243,117.928764 L208.100154,100.501158 Z" id="Path"></path>
                <path d="M298.444979,117.928764 L298.444979,28.1950157 L400.738983,28.1950157 C418.68999,28.1950157 427.665494,37.1820991 427.665494,55.1562659 L427.665494,117.928764 L407.643079,117.928764 L407.643079,53.4471534 C407.643079,48.2307995 405.031538,45.6226226 399.808454,45.6226226 L373.117249,45.6226226 L373.117249,117.928764 L352.993224,117.928764 L352.993224,45.6226226 L318.467394,45.6226226 L318.467394,117.928764 L298.444979,117.928764 Z" id="Path"></path>
                <path d="M450.04883,90.9675143 L450.04883,55.1562659 C450.04883,37.1820991 459.047508,28.1950157 477.044863,28.1950157 L501.003308,28.1950157 C518.954316,28.1950157 527.92982,37.1820991 527.92982,55.1562659 L527.92982,90.9675143 C527.92982,108.941681 518.954316,117.928764 501.003308,117.928764 L477.044863,117.928764 C459.047508,117.928764 450.04883,108.941681 450.04883,90.9675143 Z M470.071245,92.6766269 C470.071245,97.8929807 472.682786,100.501158 477.90587,100.501158 L500.07278,100.501158 C505.295863,100.501158 507.907405,97.8929807 507.907405,92.6766269 L507.907405,53.4471534 C507.907405,48.2307995 505.295863,45.6226226 500.07278,45.6226226 L477.90587,45.6226226 C472.682786,45.6226226 470.071245,48.2307995 470.071245,53.4471534 L470.071245,92.6766269 Z" id="Shape"></path>
                <path d="M551.029153,100.501158 L590.5285,100.501158 C595.862106,100.501158 598.528909,97.6837925 598.528909,92.0490621 C598.528909,86.2986106 596.339849,83.0423951 591.961728,82.2804158 L572.824385,79.0945232 C558.29423,76.6358937 551.029153,68.4570781 551.029153,54.5580765 C551.029153,36.9827027 560.051005,28.1950157 578.094708,28.1950157 L608.998157,28.1950157 L614.310465,45.6226226 L578.91828,45.6226226 C573.538326,45.6226226 570.848348,48.4399877 570.848348,54.0747181 C570.848348,59.6204322 573.163975,62.7644871 577.795228,63.5068829 L596.932571,66.6927755 C611.255942,69.0374642 618.417627,77.3052961 618.417627,91.496271 C618.417627,109.117933 609.37171,117.928764 591.279875,117.928764 L556.361029,117.928764 L551.029153,100.501158 Z" id="Path"></path>
            </g>
        </g>
    </g>
</svg>