<?xml version="1.0" encoding="UTF-8"?>
<svg width="3478px" height="687px" viewBox="0 0 3478 687" version="1.1" xmlns="http://www.w3.org/2000/svg" xmlns:xlink="http://www.w3.org/1999/xlink">
    <title>TybeDB Cosmos logo - green white - transparent bg - 3478x687</title>
    <defs>
        <linearGradient x1="100%" y1="50%" x2="-25.2959672%" y2="-34.146956%" id="linearGradient-1">
            <stop stop-color="#FFFFFF" offset="0%"></stop>
            <stop stop-color="#A38BF6" offset="100%"></stop>
        </linearGradient>
        <linearGradient x1="100%" y1="50%" x2="-51.9913124%" y2="40.9898665%" id="linearGradient-2">
            <stop stop-color="#FFFFFF" offset="0%"></stop>
            <stop stop-color="#A38BF6" offset="100%"></stop>
        </linearGradient>
        <linearGradient x1="29.117677%" y1="45.8967719%" x2="64.2092792%" y2="48.1222568%" id="linearGradient-3">
            <stop stop-color="#C6B7FF" offset="0%"></stop>
            <stop stop-color="#FFFFFF" offset="100%"></stop>
        </linearGradient>
        <linearGradient x1="32.8876677%" y1="46.9841968%" x2="96.9692841%" y2="46.2252285%" id="linearGradient-4">
            <stop stop-color="#B9ACEE" offset="0%"></stop>
            <stop stop-color="#FFFFFF" offset="100%"></stop>
        </linearGradient>
    </defs>
    <g id="TybeDB-Cosmos-logo---green-white---transparent-bg---3478x687" stroke="none" stroke-width="1" fill="none" fill-rule="evenodd">
        <g id="Group-4-Copy" transform="translate(80.086817, 80.000000)">
            <g id="logo">
                <g id="space-logo" transform="translate(0.000000, 37.248461)">
                    <path d="M477.314502,203.114051 L532.575434,203.105175 C541.337385,203.103767 548.915314,209.210239 550.776712,217.772189 L566.280086,289.083696 L566.280086,289.083696 L443.591858,289.103403 L459.120352,217.775798 C460.983321,209.218553 468.556813,203.115457 477.314502,203.114051 Z" id="Rectangle" fill="url(#linearGradient-1)" transform="translate(504.935972, 246.103083) rotate(89.000000) translate(-504.935972, -246.103083) "></path>
                    <path d="M16.4425576,203.114051 L71.7034898,203.105175 C80.4654406,203.103767 88.0433699,209.210239 89.904768,217.772189 L105.408142,289.083696 L105.408142,289.083696 L-17.2800863,289.103403 L-1.75159208,217.775798 C0.111377203,209.218553 7.68486949,203.115457 16.4425576,203.114051 Z" id="Rectangle-Copy-2" fill="url(#linearGradient-2)" transform="translate(44.064028, 246.103083) scale(-1, 1) rotate(89.000000) translate(-44.064028, -246.103083) "></path>
                    <ellipse id="Oval" fill="#261C5E" cx="274.980092" cy="245.37577" rx="247.634429" ry="245.37577"></ellipse>
                    <path d="M274.980092,0 C362.06385,0 438.648746,44.5409763 482.797695,111.885932 C426.438558,82.4049782 354.748202,64.7519392 276.699775,64.7519392 C196.201751,64.7519392 122.467164,83.5304706 65.3447694,114.700802 C109.189681,45.7847054 186.688874,0 274.980092,0 Z" id="Combined-Shape" fill="url(#linearGradient-3)"></path>
                    <path d="M274.980092,376.0506 C362.06385,376.0506 438.648746,420.591577 482.797695,487.936532 C426.438558,458.455579 354.748202,440.80254 276.699775,440.80254 C196.201751,440.80254 122.467164,459.581071 65.3447694,490.751403 C109.189681,421.835306 186.688874,376.0506 274.980092,376.0506 Z" id="Combined-Shape-Copy" fill="url(#linearGradient-4)" transform="translate(274.070564, 433.401070) scale(1, -1) translate(-274.070564, -433.401070) "></path>
                    <g id="Group" transform="translate(340.493752, 98.831907)"></g>
                </g>
                <g id="Group-2" transform="translate(51.618277, 159.949273)">
                    <rect id="Rectangle" fill="#392D7F" x="0" y="0" width="446.140231" height="245.401624" rx="122.700812"></rect>
                    <ellipse id="Oval" fill="#05E9A8" cx="145.985322" cy="123.055888" rx="54.3794144" ry="52.2033779"></ellipse>
                    <ellipse id="Oval-Copy" fill="#05E9A8" cx="311.389374" cy="123.055888" rx="54.3794144" ry="52.2033779"></ellipse>
                </g>
                <path d="M117.315511,0 C131.845627,0 143.624613,11.9724366 143.624613,26.7411855 C143.624613,37.6834144 137.158667,47.0906381 127.898506,51.2308229 L127.897601,111.745383 L106.850319,111.745383 L106.849338,51.2827087 C97.5267807,47.1696293 91.006408,37.7293704 91.006408,26.7411855 C91.006408,11.9724366 102.785394,0 117.315511,0 Z" id="Combined-Shape-Copy-16" fill="#C6B7FF"></path>
            </g>
            <g id="Group-3" transform="translate(667.357653, 136.981949)" fill-rule="nonzero">
                <g id="cosmos-copy" transform="translate(1364.892050, 0.000000)" fill="#05E9A8">
                    <path d="M23.9765969,11.7821975 C44.3109462,0.173984168 68.580976,-0.479999684 91.3751256,0.173984168 C110.889541,1.48195187 131.715851,5.24235902 146.310666,19.1395159 C157.789734,30.0937454 161.233455,46.6068376 160.249534,61.8119622 C159.429601,67.5343209 162.078262,75.1470742 156.502715,79.0709774 C147.975407,80.0519531 139.751198,79.6330221 131.223891,79.6330221 C128.108144,79.960014 124.82841,78.1615585 124.500437,74.7281432 C123.516516,65.7358653 125.648343,55.9261075 121.056716,47.5878134 C115.481169,37.1240718 103.182167,33.5271606 92.3590457,32.2191929 C78.5841639,30.9112252 63.9893487,31.0747211 51.3623737,37.1240718 C42.1791192,41.3749668 37.0955319,51.6752125 37.587492,61.6484662 C37.587492,104.647904 37.587492,147.647343 37.587492,190.810277 C37.587492,198.985075 40.8672257,207.486865 47.7546666,212.391744 C57.4298812,219.095078 69.4009094,219.749062 80.8799776,220.403046 C92.5230324,219.749062 105.313994,219.095078 114.989209,211.73776 C121.220703,207.159873 124.172463,199.475563 124.33645,191.954749 C124.470462,182.334745 124.172463,182.847865 124.33645,168.526799 C124.33645,162.938052 130.624401,162.938052 131.223891,162.967936 C154.837974,162.967936 129.092064,162.967936 152.706147,162.967936 C156.149867,162.640945 160.085548,164.766392 160.085548,168.526799 C160.249534,190.925746 160.085548,175.114664 160.249534,197.513611 C160.249534,213.37272 153.03412,229.395324 139.587212,238.224106 C120.892729,250.649799 97.442633,252.121263 75.4684169,252.121263 C54.3141341,251.303783 31.0280244,248.524352 14.7933423,233.482723 C4.29819432,224.163453 -0.457419626,209.612313 0.0345404379,195.878652 C0.198527126,147.810839 0.0345404379,99.9065215 0.0345404379,52.0022044 C0.526500502,35.6526081 9.70975502,19.7934997 23.9765969,11.7821975 Z" id="C-Copy"></path>
                    <path d="M225.02711,204.046029 C225.02711,233.687401 246.332463,253.568809 297.248648,253.568809 C348.164833,253.568809 369.470187,233.687401 369.470187,204.046029 L369.470187,118.013755 C369.470187,88.3723827 348.164833,68.4909747 297.248648,68.4909747 C246.332463,68.4909747 225.02711,88.3723827 225.02711,118.013755 L225.02711,204.046029 Z M335.164956,201.154188 C335.164956,216.697834 324.331725,225.373357 297.248648,225.373357 C270.165571,225.373357 259.33234,216.697834 259.33234,201.154188 L259.33234,120.905596 C259.33234,105.361949 270.165571,96.686426 297.248648,96.686426 C324.331725,96.686426 335.164956,105.361949 335.164956,120.905596 L335.164956,201.154188 Z" id="Shape"></path>
                    <path d="M532.820667,121.628556 C532.820667,126.327798 534.626205,128.135199 538.959498,128.135199 L557.737098,128.135199 C562.792605,128.135199 564.237036,126.327798 564.237036,121.628556 L564.237036,112.953032 C564.237036,90.5412635 547.264975,68.4909747 498.876544,68.4909747 C450.127005,68.4909747 433.516051,90.5412635 433.516051,112.953032 L433.516051,126.327798 C433.516051,144.401805 448.321467,158.138051 461.682451,162.837292 L515.848605,181.63426 C527.765159,185.610542 534.987313,190.309783 534.987313,198.985307 L534.987313,208.745271 C534.987313,221.758556 520.904113,227.903718 498.154328,227.903718 C475.043436,227.903718 461.321344,221.758556 461.321344,208.745271 L461.321344,201.154188 C461.321344,196.816426 459.876913,194.647545 455.182513,194.647545 L436.043805,194.647545 C431.710513,194.647545 429.904974,196.816426 429.904974,201.154188 L429.904974,210.191191 C429.904974,232.60296 449.043682,253.568809 498.154328,253.568809 C546.903867,253.568809 566.76479,232.60296 566.76479,210.191191 L566.76479,189.948303 C566.76479,172.958736 554.126021,161.391372 534.265098,154.523249 L480.098944,135.726282 C473.599005,133.557401 464.932421,128.496679 464.932421,119.098195 L464.932421,112.953032 C464.932421,99.9397473 476.487867,93.7945848 498.515436,93.7945848 C520.904113,93.7945848 532.820667,99.9397473 532.820667,112.953032 L532.820667,121.628556 Z" id="Path"></path>
                    <path d="M637.405621,71.3828159 C632.350114,71.3828159 630.544575,73.5516968 630.544575,78.2509386 L630.544575,243.447365 C630.544575,248.508087 632.350114,250.676968 637.405621,250.676968 L658.349868,250.676968 C663.044268,250.676968 664.849806,248.508087 664.849806,243.447365 L664.849806,117.652274 C672.07196,111.507112 688.682914,99.216787 711.793806,99.216787 C731.654729,99.216787 738.515775,108.253791 738.515775,123.074477 L738.515775,243.447365 C738.515775,248.508087 740.682421,250.676968 745.376822,250.676968 L766.321068,250.676968 C771.015468,250.676968 772.821006,248.508087 772.821006,243.447365 L772.821006,122.712996 C772.821006,121.267076 772.821006,119.459675 772.459898,118.013755 C779.320945,111.868592 795.931898,99.216787 819.765006,99.216787 C839.625929,99.216787 846.486975,108.253791 846.486975,123.074477 L846.486975,243.447365 C846.486975,248.508087 848.653622,250.676968 853.709129,250.676968 L874.292268,250.676968 C878.986668,250.676968 881.153314,248.508087 881.153314,243.447365 L881.153314,114.760433 C881.153314,88.0109025 863.459037,68.4909747 829.876022,68.4909747 C795.570791,68.4909747 776.793191,85.4805415 768.126606,93.0716245 C760.904452,78.2509386 745.376822,68.4909747 721.904821,68.4909747 C691.932883,68.4909747 673.877498,81.5042599 664.127591,89.8183032 L663.405375,78.2509386 C663.044268,73.5516968 661.599837,71.3828159 656.544329,71.3828159 L637.405621,71.3828159 Z" id="Path"></path>
                    <path d="M943.925799,204.046029 C943.925799,233.687401 965.231153,253.568809 1016.14734,253.568809 C1067.06352,253.568809 1088.36888,233.687401 1088.36888,204.046029 L1088.36888,118.013755 C1088.36888,88.3723827 1067.06352,68.4909747 1016.14734,68.4909747 C965.231153,68.4909747 943.925799,88.3723827 943.925799,118.013755 L943.925799,204.046029 Z M1054.06365,201.154188 C1054.06365,216.697834 1043.23041,225.373357 1016.14734,225.373357 C989.06426,225.373357 978.23103,216.697834 978.23103,201.154188 L978.23103,120.905596 C978.23103,105.361949 989.06426,96.686426 1016.14734,96.686426 C1043.23041,96.686426 1054.06365,105.361949 1054.06365,120.905596 L1054.06365,201.154188 Z" id="Shape"></path>
                    <path d="M1251.71936,121.628556 C1251.71936,126.327798 1253.52489,128.135199 1257.85819,128.135199 L1276.63579,128.135199 C1281.69129,128.135199 1283.13573,126.327798 1283.13573,121.628556 L1283.13573,112.953032 C1283.13573,90.5412635 1266.16366,68.4909747 1217.77523,68.4909747 C1169.02569,68.4909747 1152.41474,90.5412635 1152.41474,112.953032 L1152.41474,126.327798 C1152.41474,144.401805 1167.22016,158.138051 1180.58114,162.837292 L1234.74729,181.63426 C1246.66385,185.610542 1253.886,190.309783 1253.886,198.985307 L1253.886,208.745271 C1253.886,221.758556 1239.8028,227.903718 1217.05302,227.903718 C1193.94213,227.903718 1180.22003,221.758556 1180.22003,208.745271 L1180.22003,201.154188 C1180.22003,196.816426 1178.7756,194.647545 1174.0812,194.647545 L1154.94249,194.647545 C1150.6092,194.647545 1148.80366,196.816426 1148.80366,201.154188 L1148.80366,210.191191 C1148.80366,232.60296 1167.94237,253.568809 1217.05302,253.568809 C1265.80256,253.568809 1285.66348,232.60296 1285.66348,210.191191 L1285.66348,189.948303 C1285.66348,172.958736 1273.02471,161.391372 1253.16379,154.523249 L1198.99763,135.726282 C1192.49769,133.557401 1183.83111,128.496679 1183.83111,119.098195 L1183.83111,112.953032 C1183.83111,99.9397473 1195.38656,93.7945848 1217.41413,93.7945848 C1239.8028,93.7945848 1251.71936,99.9397473 1251.71936,112.953032 L1251.71936,121.628556 Z" id="Path"></path>
                </g>
                <g id="Group" transform="translate(0.000000, 3.805054)" fill="#FFFFFF">
                    <path d="M94.8298987,249.231047 C99.5897005,249.231047 101.420394,247.031949 101.420394,241.900722 L101.420394,30.4208484 L160.00257,30.4208484 C164.762372,30.4208484 166.959204,28.5882671 166.959204,23.4570397 L166.959204,6.96380866 C166.959204,1.83258123 164.762372,0 160.00257,0 L6.95663349,0 C1.83069302,0 0,1.83258123 0,6.96380866 L0,23.4570397 C0,28.5882671 1.83069302,30.4208484 6.95663349,30.4208484 L65.5388103,30.4208484 L65.5388103,241.900722 C65.5388103,247.031949 67.3695033,249.231047 72.1293052,249.231047 L94.8298987,249.231047 Z" id="T"></path>
                    <path d="M259.380791,321.070469 C264.137313,321.070469 265.966744,317.774097 267.064403,314.11146 L349.754698,72.0111934 C351.218243,67.2497661 348.291153,64.6859206 343.534631,64.6859206 L323.776773,64.6859206 C319.020252,64.6859206 317.19082,67.2497661 315.727275,72.0111934 L279.504536,178.593913 C279.109378,179.780607 278.71949,181.009495 278.338664,182.256526 L277.960999,183.508714 C277.836211,183.927532 277.712571,184.347475 277.590219,184.767653 L277.227166,186.027998 C274.954081,194.003357 273.196656,201.741775 272.918583,203.133577 C272.869329,202.936358 272.793554,202.520112 272.691257,201.922366 L272.597079,201.366437 C271.87559,197.076275 270.153327,186.341798 267.430289,177.861386 L231.939322,72.0111934 C230.475777,67.6160297 228.646345,64.6859206 223.889824,64.6859206 L202.302535,64.6859206 C197.546013,64.6859206 194.618923,67.2497661 196.082468,72.0111934 L257.55136,249.282796 L237.061729,314.11146 C235.598184,318.872887 238.525274,321.070469 243.647682,321.070469 L259.380791,321.070469 Z" id="y"></path>
                    <path d="M437.739874,319.624549 C442.426099,319.624549 444.228493,317.464052 444.228493,312.782975 L444.228493,228.883681 C454.682379,236.805503 474.148236,249.048318 503.347021,249.048318 C538.313467,249.048318 554.174536,229.603847 554.174536,200.077056 L554.174536,113.657182 C554.174536,84.1303922 538.313467,64.6859206 503.347021,64.6859206 C473.066799,64.6859206 453.600942,78.0089845 443.507535,85.9308063 L442.786577,74.7682392 C442.426099,69.7270799 440.984183,67.566583 435.93748,67.566583 L416.832102,67.566583 C411.785398,67.566583 409.983004,69.7270799 409.983004,74.7682392 L409.983004,312.782975 C409.983004,317.464052 411.785398,319.624549 416.832102,319.624549 L437.739874,319.624549 Z M494.072438,216.524368 C470.887652,216.524368 453.409891,203.981432 445.562733,198.247518 L445.562733,113.31392 C453.409891,107.221637 470.887652,94.6787004 494.072438,94.6787004 C514.403711,94.6787004 520.467424,105.429789 520.467424,117.972725 L520.467424,193.230343 C520.467424,205.77328 514.403711,216.524368 494.072438,216.524368 Z" id="p"></path>
                    <path d="M687.339985,249.231047 C738.914004,249.231047 756.710673,229.406863 756.710673,199.850808 L756.710673,193.723333 C756.710673,189.037617 754.531489,186.874979 749.809924,186.874979 L731.286861,186.874979 C726.202098,186.874979 724.386111,189.037617 724.386111,193.723333 L724.386111,197.68817 C724.386111,212.466198 717.122165,221.83763 688.066379,221.83763 C659.010594,221.83763 651.746647,212.466198 651.746647,197.68817 L651.746647,164.527717 L750.536319,164.527717 C754.894686,164.527717 756.710673,162.365079 756.710673,158.039803 L756.710673,114.066159 C756.710673,84.5101041 739.277202,64.6859206 688.066379,64.6859206 C636.49236,64.6859206 617.969296,84.5101041 617.969296,114.066159 L617.969296,199.850808 C617.969296,229.406863 635.765965,249.231047 687.339985,249.231047 Z M724.401037,138.884477 L652.179499,138.884477 L652.179499,116.756623 C652.179499,102.707192 660.846083,93.2238267 688.290268,93.2238267 C715.373345,93.2238267 724.401037,102.707192 724.401037,116.756623 L724.401037,138.884477 Z" id="e"></path>
                    <path d="M1154.99615,249.231047 C1217.73771,249.231047 1237.80042,224.40066 1237.80042,194.458136 L1237.80042,163.420152 C1237.80042,142.241293 1224.30369,126.539725 1196.58067,118.871518 C1218.46726,110.473005 1227.2219,95.866895 1227.2219,76.8789523 L1227.2219,53.8743295 C1227.2219,24.2969574 1207.15919,0.927181824 1144.41763,0.927181824 L1079.85219,0.927181824 C1075.11009,0.927181824 1073.28621,3.11809828 1073.28621,8.23023668 L1073.28621,241.927992 C1073.28621,247.04013 1075.11009,249.231047 1079.85219,249.231047 L1154.99615,249.231047 Z M1146.97107,107.916935 L1108.66953,107.916935 L1108.66953,30.504554 L1144.41763,30.504554 C1177.24752,30.504554 1191.83858,39.2682198 1191.83858,59.3516207 L1191.83858,76.1486468 C1191.83858,96.2320477 1177.24752,107.916935 1146.97107,107.916935 Z M1154.99615,219.653675 L1108.66953,219.653675 L1108.66953,135.668544 L1154.99615,135.668544 C1187.82603,135.668544 1202.4171,147.718584 1202.4171,165.976222 L1202.4171,188.250539 C1202.4171,208.33394 1187.82603,219.653675 1154.99615,219.653675 Z" id="B"></path>
                    <path d="M923.00249,249.231047 C985.379273,249.231047 1006.17153,222.940049 1006.17153,192.997525 L1006.17153,57.1607042 C1006.17153,27.2181793 985.379273,0.927181824 923.00249,0.927181824 L846.7642,0.927181824 C842.022105,0.927181824 840.198223,3.11809828 840.198223,8.23023668 L840.198223,241.927992 C840.198223,246.674978 841.657329,249.231047 846.034647,249.231047 L923.00249,249.231047 Z M923.00249,218.923369 L875.581544,218.923369 L875.581544,31.2348595 L923.00249,31.2348595 C955.832376,31.2348595 970.423436,43.2849 970.423436,63.0031481 L970.423436,187.155081 C970.423436,206.873329 955.832376,218.923369 923.00249,218.923369 Z" id="D"></path>
                </g>
            </g>
        </g>
    </g>
</svg>