<?xml version="1.0" encoding="UTF-8"?>
<svg width="3572px" height="687px" viewBox="0 0 3572 687" version="1.1" xmlns="http://www.w3.org/2000/svg" xmlns:xlink="http://www.w3.org/1999/xlink">
    <title>TybeDB Cosmos logo - green white - transparent bg - 3572x687</title>
    <defs>
        <linearGradient x1="100%" y1="50%" x2="-25.2959672%" y2="-34.146956%" id="linearGradient-1">
            <stop stop-color="#FFFFFF" offset="0%"></stop>
            <stop stop-color="#A38BF6" offset="100%"></stop>
        </linearGradient>
        <linearGradient x1="100%" y1="50%" x2="-51.9913124%" y2="40.9898665%" id="linearGradient-2">
            <stop stop-color="#FFFFFF" offset="0%"></stop>
            <stop stop-color="#A38BF6" offset="100%"></stop>
        </linearGradient>
        <linearGradient x1="29.117677%" y1="45.8967719%" x2="64.2092792%" y2="48.1222568%" id="linearGradient-3">
            <stop stop-color="#C6B7FF" offset="0%"></stop>
            <stop stop-color="#FFFFFF" offset="100%"></stop>
        </linearGradient>
        <linearGradient x1="32.8876677%" y1="46.9841968%" x2="96.9692841%" y2="46.2252285%" id="linearGradient-4">
            <stop stop-color="#B9ACEE" offset="0%"></stop>
            <stop stop-color="#FFFFFF" offset="100%"></stop>
        </linearGradient>
    </defs>
    <g id="TybeDB-Cosmos-logo---green-white---transparent-bg---3572x687" stroke="none" stroke-width="1" fill="none" fill-rule="evenodd">
        <g id="Logo" transform="translate(80.086817, 80.000000)">
            <g id="logo">
                <g id="space-logo" transform="translate(0.000000, 37.248461)">
                    <path d="M477.314502,203.114051 L532.575434,203.105175 C541.337385,203.103767 548.915314,209.210239 550.776712,217.772189 L566.280086,289.083696 L566.280086,289.083696 L443.591858,289.103403 L459.120352,217.775798 C460.983321,209.218553 468.556813,203.115457 477.314502,203.114051 Z" id="Rectangle" fill="url(#linearGradient-1)" transform="translate(504.935972, 246.103083) rotate(89.000000) translate(-504.935972, -246.103083) "></path>
                    <path d="M16.4425576,203.114051 L71.7034898,203.105175 C80.4654406,203.103767 88.0433699,209.210239 89.904768,217.772189 L105.408142,289.083696 L105.408142,289.083696 L-17.2800863,289.103403 L-1.75159208,217.775798 C0.111377203,209.218553 7.68486949,203.115457 16.4425576,203.114051 Z" id="Rectangle-Copy-2" fill="url(#linearGradient-2)" transform="translate(44.064028, 246.103083) scale(-1, 1) rotate(89.000000) translate(-44.064028, -246.103083) "></path>
                    <ellipse id="Oval" fill="#261C5E" cx="274.980092" cy="245.37577" rx="247.634429" ry="245.37577"></ellipse>
                    <path d="M274.980092,0 C362.06385,0 438.648746,44.5409763 482.797695,111.885932 C426.438558,82.4049782 354.748202,64.7519392 276.699775,64.7519392 C196.201751,64.7519392 122.467164,83.5304706 65.3447694,114.700802 C109.189681,45.7847054 186.688874,0 274.980092,0 Z" id="Combined-Shape" fill="url(#linearGradient-3)"></path>
                    <path d="M274.980092,376.0506 C362.06385,376.0506 438.648746,420.591577 482.797695,487.936532 C426.438558,458.455579 354.748202,440.80254 276.699775,440.80254 C196.201751,440.80254 122.467164,459.581071 65.3447694,490.751403 C109.189681,421.835306 186.688874,376.0506 274.980092,376.0506 Z" id="Combined-Shape-Copy" fill="url(#linearGradient-4)" transform="translate(274.070564, 433.401070) scale(1, -1) translate(-274.070564, -433.401070) "></path>
                    <g id="Group" transform="translate(340.493752, 98.831907)"></g>
                </g>
                <g id="Group-2" transform="translate(51.618277, 159.949273)">
                    <rect id="Rectangle" fill="#392D7F" x="0" y="0" width="446.140231" height="245.401624" rx="122.700812"></rect>
                    <ellipse id="Oval" fill="#05E9A8" cx="145.985322" cy="123.055888" rx="54.3794144" ry="52.2033779"></ellipse>
                    <ellipse id="Oval-Copy" fill="#05E9A8" cx="311.389374" cy="123.055888" rx="54.3794144" ry="52.2033779"></ellipse>
                </g>
                <path d="M117.315511,0 C131.845627,0 143.624613,11.9724366 143.624613,26.7411855 C143.624613,37.6834144 137.158667,47.0906381 127.898506,51.2308229 L127.897601,111.745383 L106.850319,111.745383 L106.849338,51.2827087 C97.5267807,47.1696293 91.006408,37.7293704 91.006408,26.7411855 C91.006408,11.9724366 102.785394,0 117.315511,0 Z" id="Combined-Shape-Copy-16" fill="#C6B7FF"></path>
            </g>
            <g id="Name" transform="translate(667.179714, 155.627004)" fill-rule="nonzero">
                <g id="typeDB-Copy-2" transform="translate(-0.000000, 1.038075)" fill="#FFFFFF">
                    <polygon id="T" points="123.08 249.78 123.08 40.182 201.634 40.182 201.634 0 0 0 0 40.182 78.554 40.182 78.554 249.78"></polygon>
                    <polygon id="y" points="314.116171 322.529861 397.014171 66.5958611 399.321505 60.0798611 356.108171 60.0798611 308.324171 213.205861 302.894171 213.205861 255.110171 60.0798611 212.088206 60.0798611 214.204171 66.5958611 273.934171 250.129861 296.016171 250.129861 270.737721 322.529861"></polygon>
                    <path d="M473.548609,322.685489 L473.548609,250.285489 L535.450609,250.285489 C573.339943,250.285489 592.284609,231.220156 592.284609,193.089489 L592.284609,193.089489 L592.284609,117.431489 C592.284609,79.3008227 573.339943,60.2354893 535.450609,60.2354893 L535.450609,60.2354893 L431.194609,60.2354893 L431.194609,322.685489 L473.548609,322.685489 Z M533.278609,213.361489 L473.548609,213.361489 L473.548609,97.1594893 L533.278609,97.1594893 C544.379943,97.1594893 549.930609,102.710156 549.930609,113.811489 L549.930609,113.811489 L549.930609,196.709489 C549.930609,207.810823 544.379943,213.361489 533.278609,213.361489 L533.278609,213.361489 Z" id="p"></path>
                    <path d="M782.815489,250.251796 L793.855467,213.327796 L699.011467,213.327796 C687.910134,213.327796 682.359467,207.777129 682.359467,196.675796 L682.359467,170.973796 L801.095467,170.973796 L801.095467,117.397796 C801.095467,79.2671294 782.1508,60.201796 744.261467,60.201796 L697.201467,60.201796 C659.0708,60.201796 640.005467,79.2671294 640.005467,117.397796 L640.005467,193.055796 C640.005467,231.186463 659.0708,250.251796 697.201467,250.251796 L782.815489,250.251796 Z M758.741467,138.031796 L682.359467,138.031796 L682.359467,113.777796 C682.359467,102.676463 687.910134,97.125796 699.011467,97.125796 L742.089467,97.125796 C753.1908,97.125796 758.741467,102.676463 758.741467,113.777796 L758.741467,138.031796 Z" id="e"></path>
                    <path d="M952.655772,249.78 C1017.81577,249.78 1050.39577,217.079333 1050.39577,151.678 L1050.39577,151.678 L1050.39577,98.102 C1050.39577,32.7006667 1017.81577,0 952.655772,0 L952.655772,0 L856.725772,0 L856.725772,249.78 L952.655772,249.78 Z M955.189772,209.598 L900.889772,209.598 L900.889772,40.182 L955.189772,40.182 C989.217772,40.182 1006.23177,57.196 1006.23177,91.224 L1006.23177,91.224 L1006.23177,158.556 C1006.23177,192.584 989.217772,209.598 955.189772,209.598 L955.189772,209.598 Z" id="D"></path>
                    <path d="M1228.58701,249.914476 C1267.92434,249.914476 1287.59301,230.245809 1287.59301,190.908476 L1287.59301,190.908476 L1287.59301,159.776476 C1287.59301,146.985809 1283.61101,137.332476 1275.64701,130.816476 L1275.64701,130.816476 L1260.44301,118.146476 L1273.11301,102.942476 C1277.93968,97.1504757 1280.35301,90.151809 1280.35301,81.9464757 L1280.35301,81.9464757 L1280.35301,59.1404757 C1280.35301,19.8031424 1260.68434,0.134475708 1221.34701,0.134475708 L1221.34701,0.134475708 L1104.78301,0.134475708 L1104.78301,249.914476 L1228.58701,249.914476 Z M1220.26101,100.408476 L1148.94701,100.408476 L1148.94701,40.3164757 L1220.26101,40.3164757 C1230.87968,40.3164757 1236.18901,45.5051424 1236.18901,55.8824757 L1236.18901,55.8824757 L1236.18901,84.4804757 C1236.18901,95.0991424 1230.87968,100.408476 1220.26101,100.408476 L1220.26101,100.408476 Z M1227.50101,209.732476 L1148.94701,209.732476 L1148.94701,140.590476 L1227.50101,140.590476 C1238.11968,140.590476 1243.42901,145.779142 1243.42901,156.156476 L1243.42901,156.156476 L1243.42901,194.166476 C1243.42901,204.543809 1238.11968,209.732476 1227.50101,209.732476 L1227.50101,209.732476 Z" id="B"></path>
                </g>
                <g id="Cosmos" transform="translate(1428.466564, 0.000000)" fill="#05E9A8">
                    <path d="M0,191.867812 L0,59.2921875 C0,19.7640625 19.7640625,0 59.2921875,0 L167.37838,0 L179.867188,40.29025 L60.4751875,40.29025 C49.8509375,40.29025 44.5388125,45.5530833 44.5388125,56.07875 L44.5388125,195.08125 C44.5388125,205.606917 49.8509375,210.86975 60.4751875,210.86975 L179.867188,210.86975 L167.37838,251.16 L59.2921875,251.16 C19.7640625,251.16 0,231.395937 0,191.867812 Z" id="Path"></path>
                    <path d="M227.845612,193.739 L227.845612,117.469625 C227.845612,79.1889583 246.985945,60.048625 285.266612,60.048625 L336.226612,60.048625 C374.408695,60.048625 393.499737,79.1889583 393.499737,117.469625 L393.499737,193.739 C393.499737,232.019667 374.408695,251.16 336.226612,251.16 L285.266612,251.16 C246.985945,251.16 227.845612,232.019667 227.845612,193.739 Z M270.433612,197.379 C270.433612,208.488583 275.988404,214.043375 287.097987,214.043375 L334.247362,214.043375 C345.356945,214.043375 350.911737,208.488583 350.911737,197.379 L350.911737,113.829625 C350.911737,102.720042 345.356945,97.16525 334.247362,97.16525 L287.097987,97.16525 C275.988404,97.16525 270.433612,102.720042 270.433612,113.829625 L270.433612,197.379 Z" id="Shape"></path>
                    <path d="M442.632391,214.043375 L526.648141,214.043375 C537.992808,214.043375 543.665141,208.043062 543.665141,196.042437 C543.665141,183.795354 539.008974,176.860396 529.696641,175.237562 L488.991204,168.452375 C458.085329,163.216083 442.632391,145.797167 442.632391,116.195625 C442.632391,78.7642917 461.822016,60.048625 500.201266,60.048625 L566.348925,60.048625 L577.232766,97.16525 L501.953016,97.16525 C490.509766,97.16525 484.788141,103.165562 484.788141,115.166187 C484.788141,126.977229 489.713516,133.673312 499.564266,135.254437 L540.269704,142.039625 C570.735745,147.03325 585.968766,164.64175 585.968766,194.865125 C585.968766,232.395042 566.727954,251.16 528.246329,251.16 L453.388903,251.16 L442.632391,214.043375 Z" id="Path"></path>
                    <path d="M634.797295,251.16 L634.797295,60.048625 L852.378295,60.048625 C890.560378,60.048625 909.65142,79.1889583 909.65142,117.469625 L909.65142,251.16 L867.06342,251.16 L867.06342,113.829625 C867.06342,102.720042 861.508628,97.16525 850.399045,97.16525 L793.62642,97.16525 L793.62642,251.16 L750.822295,251.16 L750.822295,97.16525 L677.385295,97.16525 L677.385295,251.16 L634.797295,251.16 Z" id="Path"></path>
                    <path d="M957.261137,193.739 L957.261137,117.469625 C957.261137,79.1889583 976.40147,60.048625 1014.68214,60.048625 L1065.64214,60.048625 C1103.82422,60.048625 1122.91526,79.1889583 1122.91526,117.469625 L1122.91526,193.739 C1122.91526,232.019667 1103.82422,251.16 1065.64214,251.16 L1014.68214,251.16 C976.40147,251.16 957.261137,232.019667 957.261137,193.739 Z M999.849137,197.379 C999.849137,208.488583 1005.40393,214.043375 1016.51351,214.043375 L1063.66289,214.043375 C1074.77247,214.043375 1080.32726,208.488583 1080.32726,197.379 L1080.32726,113.829625 C1080.32726,102.720042 1074.77247,97.16525 1063.66289,97.16525 L1016.51351,97.16525 C1005.40393,97.16525 999.849137,102.720042 999.849137,113.829625 L999.849137,197.379 Z" id="Shape"></path>
                    <path d="M1172.04792,214.043375 L1256.06367,214.043375 C1267.40833,214.043375 1273.08067,208.043062 1273.08067,196.042437 C1273.08067,183.795354 1268.4245,176.860396 1259.11217,175.237562 L1218.40673,168.452375 C1187.50085,163.216083 1172.04792,145.797167 1172.04792,116.195625 C1172.04792,78.7642917 1191.23754,60.048625 1229.61679,60.048625 L1295.34893,60.048625 L1306.64829,97.16525 L1231.36854,97.16525 C1219.92529,97.16525 1214.20367,103.165562 1214.20367,115.166187 C1214.20367,126.977229 1219.12904,133.673312 1228.97979,135.254437 L1269.68523,142.039625 C1300.15127,147.03325 1315.38429,164.64175 1315.38429,194.865125 C1315.38429,232.395042 1296.14348,251.16 1257.66185,251.16 L1183.3889,251.16 L1172.04792,214.043375 Z" id="Path"></path>
                </g>
            </g>
        </g>
    </g>
</svg>