<?xml version="1.0" encoding="utf-8"?>
<!-- Generator: Adobe Illustrator 22.0.1, SVG Export Plug-In . SVG Version: 6.00 Build 0)  -->
<svg version="1.1" id="Layer_1" xmlns="http://www.w3.org/2000/svg" xmlns:xlink="http://www.w3.org/1999/xlink" x="0px" y="0px"
	 viewBox="0 0 1600 400" style="enable-background:new 0 0 1600 400;" xml:space="preserve">
<style type="text/css">
	.st0{fill:url(#path-2_3_);}
	.st1{filter:url(#Adobe_OpacityMaskFilter);}
	.st2{fill:#FFFFFF;}
	.st3{opacity:0.6451;mask:url(#mask-3_1_);}
	.st4{opacity:0.1079;fill:none;stroke:#FFFFFF;stroke-width:60;enable-background:new    ;}
	.st5{opacity:8.000000e-02;fill:none;stroke:#FFFFFF;stroke-width:60;enable-background:new    ;}
	.st6{opacity:5.000000e-02;fill:none;stroke:#FFFFFF;stroke-width:60;enable-background:new    ;}
	.st7{opacity:0.6428;fill:url(#Path-9_2_);enable-background:new    ;}
	.st8{opacity:0.864;fill:url(#Path-4_2_);enable-background:new    ;}
	.st9{opacity:0.5637;fill:url(#Path-9_3_);enable-background:new    ;}
	.st10{opacity:0.6561;fill:url(#Path-4_3_);enable-background:new    ;}
</style>
<title>Group 3</title>
<desc>Created with Sketch.</desc>
<g id="about-copy-4" transform="translate(0.000000, -74.000000)">
	<g id="Group-3" transform="translate(-25.000000, 74.000000)">
		<g id="Mask">
			
				<linearGradient id="path-2_3_" gradientUnits="userSpaceOnUse" x1="24.9797" y1="551.5607" x2="26.0967" y2="551.9678" gradientTransform="matrix(1600 0 0 -397 -39975 219212)">
				<stop  offset="0" style="stop-color:#FF9B81"/>
				<stop  offset="1" style="stop-color:#715CFF"/>
			</linearGradient>
			<path id="path-2_1_" class="st0" d="M23.1,0.3h1600v263.3c-273.6,89.1-540.3,133.7-800,133.7s-526.4-44.7-800-134V0.3z"/>
		</g>
		<defs>
			<filter id="Adobe_OpacityMaskFilter" filterUnits="userSpaceOnUse" x="414.1" y="-15.7" width="819" height="819">
				<feColorMatrix  type="matrix" values="1 0 0 0 0  0 1 0 0 0  0 0 1 0 0  0 0 0 1 0"/>
			</filter>
		</defs>
		<mask maskUnits="userSpaceOnUse" x="414.1" y="-15.7" width="819" height="819" id="mask-3_1_">
			<g class="st1">
				<path id="path-2_2_" class="st2" d="M23.1,0.3h1600v263.3c-273.6,89.1-540.3,133.7-800,133.7s-526.4-44.7-800-134V0.3z"/>
			</g>
		</mask>
		<g id="Group" class="st3">
			<g id="Oval-2" transform="translate(416.000000, 6.000000)">
				<circle class="st4" cx="407.6" cy="387.8" r="171.5"/>
				<circle class="st5" cx="407.6" cy="387.8" r="275.5"/>
				<circle class="st6" cx="407.6" cy="387.8" r="379.5"/>
			</g>
		</g>
		
			<linearGradient id="Path-9_2_" gradientUnits="userSpaceOnUse" x1="25.9397" y1="552.7311" x2="25.1816" y2="551.7986" gradientTransform="matrix(-411 0 0 300 10685.999 -165580.5)">
			<stop  offset="0" style="stop-color:#FFCB87"/>
			<stop  offset="1" style="stop-color:#DE8D95;stop-opacity:0"/>
		</linearGradient>
		<path id="Path-9" class="st7" d="M409.1,0.7L144.6,300.3c-48.4-14.2-89-26.5-121.7-37.1c-32.7-10.6-33-67.3-0.7-170.1l80.2-92.9
			L409.1,0.7z"/>
		
			<linearGradient id="Path-4_2_" gradientUnits="userSpaceOnUse" x1="25.2217" y1="552.8881" x2="26.0191" y2="551.7927" gradientTransform="matrix(-365 0 0 356 9515 -196463.5)">
			<stop  offset="0" style="stop-color:#FEC57A"/>
			<stop  offset="1" style="stop-color:#EF9187;stop-opacity:0"/>
		</linearGradient>
		<path id="Path-4" class="st8" d="M136.7,298.3c35.4,10.2,75.1,20.4,118.9,30.7c43.8,10.3,88,19.7,132.5,28.2L160.7,1.3H23.1
			l0.5,125.2L136.7,298.3z"/>
		
			<linearGradient id="Path-9_3_" gradientUnits="userSpaceOnUse" x1="25.9471" y1="552.6769" x2="25.1946" y2="551.7794" gradientTransform="matrix(375 0 0 299 -8125 -165029)">
			<stop  offset="0" style="stop-color:#A137FF"/>
			<stop  offset="1" style="stop-color:#734AFF;stop-opacity:0"/>
		</linearGradient>
		<path id="Path-9_1_" class="st9" d="M1248.1,0.3l256.9,299c76-21.6,115.3-33.9,118-36.8c0.2-0.1,0.1-60.5-0.3-181.3l-66.8-79.8
			L1248.1,0.3z"/>
		
			<linearGradient id="Path-4_3_" gradientUnits="userSpaceOnUse" x1="25.1357" y1="552.8118" x2="25.9331" y2="551.7165" gradientTransform="matrix(460 0 0 377 -10236 -208068)">
			<stop  offset="0" style="stop-color:#8F51FF"/>
			<stop  offset="1" style="stop-color:#6D6BFF;stop-opacity:0"/>
		</linearGradient>
		<path id="Path-4_1_" class="st10" d="M1514.2,296.6c-25.4,7.9-61.8,17.3-109.2,28.1c-47.4,10.8-95,21-142.9,30.6l240.1-377h219.9
			L1514.2,296.6z"/>
	</g>
</g>
</svg>
