<?xml version="1.0" encoding="utf-8"?>
<!-- Generator: Adobe Illustrator 21.1.0, SVG Export Plug-In . SVG Version: 6.00 Build 0)  -->
<svg version="1.1" id="Layer_1" xmlns="http://www.w3.org/2000/svg" xmlns:xlink="http://www.w3.org/1999/xlink" x="0px" y="0px"
	 viewBox="0 0 48 48" style="enable-background:new 0 0 48 48;" xml:space="preserve">
<style type="text/css">
	.st0{fill:#ffffff;fill-rule:evenodd;clip-rule:evenodd;}
</style>
<path class="st0" d="M35.2,33.6H32V21.1h3.2V33.6z M25.8,33.6h-3.2V13.4h3.2V33.6z M16.3,33.6h-3.2v-6.9h3.2V33.6z M38.8,33.6h-1.1
	V20.9c0-1.2-1-2.2-2.2-2.2h-3.5c-1.2,0-2.2,1-2.2,2.2v12.7h-1.4V13.2c0-1.2-1-2.2-2.2-2.2h-3.6c-1.2,0-2.2,1-2.2,2.2v20.4h-1.4v-7
	c0-1.2-1-2.2-2.2-2.2H13c-1.2,0-2.2,1-2.2,2.2v7H9.2c-0.7,0-1.2,0.5-1.2,1.2C8,35.5,8.6,36,9.2,36h2.7h5.6h3.8H27h3.8h5.6h2.4
	c0.7,0,1.2-0.5,1.2-1.2C40,34.2,39.5,33.6,38.8,33.6z"/>
</svg>
