<?xml version="1.0" encoding="UTF-8"?>
<svg width="60px" height="60px" viewBox="0 0 60 60" version="1.1" xmlns="http://www.w3.org/2000/svg" xmlns:xlink="http://www.w3.org/1999/xlink">
    <!-- Generator: Sketch 48.1 (47250) - http://www.bohemiancoding.com/sketch -->
    <title>Group 9</title>
    <desc>Created with Sketch.</desc>
    <defs></defs>
    <g id="grakn" stroke="none" stroke-width="1" fill="none" fill-rule="evenodd" transform="translate(-450.000000, -3405.000000)">
        <g id="Group-9" transform="translate(450.000000, 3405.000000)">
            <path d="M7.98082069,6.32827124e-14 L52.0184643,6.32827124e-14 C56.4263042,6.32827124e-14 60,4.02983505 60,9.00017531 L60,51.0003984 C60,55.9712487 56.4263042,60 52.0184643,60 L7.98082069,60 C3.57291583,60 5.46229728e-14,55.9712487 5.46229728e-14,51.0003984 L5.46229728e-14,9.00017531 C5.46229728e-14,4.02983505 3.57291583,6.32827124e-14 7.98082069,6.32827124e-14 Z" id="Rectangle" fill="#21B5FA"></path>
            <path d="M47.4962107,18.7658273 C47.4100025,20.9961029 45.6175432,23.0447664 43.5439833,23.5550564 L40.0024329,32.9772774 C41.1560615,33.9747662 41.7893863,35.300969 41.7407009,36.7880128 C41.6545304,39.4196111 39.4050847,41.5461032 36.7221091,41.5461032 C34.039322,41.5461032 31.9047075,39.4196111 31.9607843,36.7880128 C31.9749638,36.1277932 32.1614842,35.300969 32.5138216,34.6390095 L26.0137385,28.124031 C25.3278817,28.4601764 24.4744734,28.6291372 23.7935191,28.6291372 L23.62329,28.6291372 L20.6593646,37.2832953 C22.3380487,37.9411948 23.4978997,39.5839319 23.4754991,41.5461032 C23.4456317,44.1471428 21.2538467,46.25 18.5857671,46.25 C15.9178006,46.25 13.75,44.1471428 13.75,41.5461032 C13.75,39.4196111 15.4349441,37.4482323 17.4590267,36.9529136 L20.5684802,27.4500002 C19.5514045,26.6064286 18.8769743,25.253147 18.8859496,23.7257209 C18.9020146,20.9961029 21.1534967,18.7658273 23.908388,18.7658273 C26.6631283,18.7658273 28.8627196,20.9961029 28.8153541,23.7257209 C28.803475,24.4049717 28.6178973,25.253147 28.2647303,25.9306578 L34.9336095,32.477935 C35.4504439,32.1446533 36.3025324,31.9780125 36.9808468,31.9780125 L40.3010692,23.214851 C38.6076023,22.5333165 37.4541246,20.8254383 37.5102391,18.7658273 C37.5852847,16.0062305 39.897897,13.75 42.6685892,13.75 C45.4391684,13.75 47.6030093,16.0062305 47.4962107,18.7658273 Z M18.7707414,43.1738328 C19.6076321,43.1738328 20.4495763,42.522857 20.4572317,41.5461032 C20.4649248,40.5658694 19.79815,39.9114498 18.7900496,39.9114498 C17.7821,39.9114498 17.107519,40.5658694 17.1036724,41.5461032 C17.0997127,42.522857 17.9341145,43.1738328 18.7707414,43.1738328 Z M42.3874887,17.0435216 C41.5249164,17.0435216 40.6411504,17.7325599 40.6093974,18.7658273 C40.5774936,19.7967747 41.2438159,20.4829492 42.2747694,20.4829492 C43.3058737,20.4829492 44.0170348,19.7967747 44.0527475,18.7658273 C44.0887241,17.7325599 43.2500232,17.0435216 42.3874887,17.0435216 Z M23.8309288,25.4226516 C24.6850914,25.4226516 25.5487195,24.7445971 25.562635,23.7257209 C25.5765128,22.7040173 24.8996691,22.0219028 23.8703749,22.0219028 C22.8411938,22.0219028 22.1485113,22.7040173 22.1385555,23.7257209 C22.1287506,24.7445971 22.9765399,25.4226516 23.8309288,25.4226516 Z M36.8062809,38.4347736 C37.6477348,38.4347736 38.5130222,37.6125532 38.5368935,36.7880128 C38.5656673,35.7979915 37.7401653,35.1354882 36.8953552,35.1354882 C35.8817489,35.1354882 35.1852575,35.9628924 35.1646294,36.7880128 C35.1398153,37.776874 35.964827,38.4347736 36.8062809,38.4347736 Z" id="Combined-shape-97" fill="#FFFFFF"></path>
        </g>
    </g>
</svg>