<?xml version="1.0" encoding="UTF-8"?>
<svg width="287px" height="295px" viewBox="0 0 287 295" version="1.1" xmlns="http://www.w3.org/2000/svg" xmlns:xlink="http://www.w3.org/1999/xlink">
    <!-- Generator: Sketch 48.1 (47250) - http://www.bohemiancoding.com/sketch -->
    <title>Group 8</title>
    <desc>Created with Sketch.</desc>
    <defs></defs>
    <g id="services" stroke="none" stroke-width="1" fill="none" fill-rule="evenodd" transform="translate(-288.000000, -2490.000000)">
        <g id="Group-8" transform="translate(288.000000, 2490.000000)">
            <circle id="Oval-4" fill="#DFDDFF" cx="143.5" cy="165.5" r="129.5"></circle>
            <g id="Group-4">
                <path d="M285.907206,101.202488 L251.134708,80.3040774 C250.361986,79.5300622 248.816541,79.5300622 248.043819,80.3040774 L229.498487,91.1402903 C229.498487,91.1402903 229.498487,90.3662751 228.725765,90.3662751 C217.134932,77.2080166 201.680488,66.3718037 183.907878,58.6316517 C183.135156,58.6316517 183.135156,58.6316517 182.362434,58.6316517 L182.362434,23.8009675 C182.362434,23.0269523 181.589712,21.4789219 180.81699,21.4789219 L146.044492,0.580511403 C145.271769,-0.193503801 143.726325,-0.193503801 142.953603,0.580511403 L107.408383,21.4789219 C106.635661,22.2529371 105.862938,23.0269523 105.862938,23.8009675 L105.862938,57.0836213 L105.090216,57.0836213 C88.0903283,63.2757429 71.8631625,74.1119558 58.7268855,88.8182446 L57.9541633,89.5922598 L40.1815532,79.5300622 C39.4088311,78.756047 37.8633867,78.756047 37.0906645,79.5300622 L1.54544436,100.428473 C0.772722178,101.202488 0,101.976503 0,102.750518 L0,118.230822 L0,128.29302 L0,143.773324 C0,144.547339 0.772722178,146.09537 1.54544436,146.09537 L30.1361649,163.123704 C29.3634428,163.897719 29.3634428,164.671735 29.3634428,165.44575 C30.1361649,228.914997 81.1358287,280 144.499047,280 C207.862266,280 258.86193,228.140981 258.86193,165.44575 C258.86193,164.671735 258.86193,163.897719 258.089207,163.123704 L285.134484,146.869385 C285.907206,146.09537 286.679928,145.321355 286.679928,144.547339 L286.679928,103.524534 C287.45265,102.750518 286.679928,101.202488 285.907206,101.202488 Z" id="Path" fill="#DFDDFF"></path>
                <path d="M211.725877,101.202488 C210.953155,101.976503 210.180432,102.750518 210.180432,103.524534 L210.180432,141.451279 L181.589712,156.157567 C180.81699,156.931583 180.044267,157.705598 180.044267,158.479613 L180.044267,263.745681 C169.998879,267.615757 167.408046,269.937802 156.589936,269.937802 L156.589936,87.2702142 L181.589712,67.9198341 C197.816878,74.885971 210.953155,84.1741534 221.771265,95.7843815 L211.725877,101.202488 Z" id="Path" fill="#F3F4FA"></path>
                <path d="M107.408383,67.1458189 C107.923531,67.1458189 116.256789,73.5959456 132.408159,86.496199 L132.408159,270.711818 C120.817326,270.711818 119.771938,268.389772 109.726549,264.519696 L109.726549,158.479613 C109.726549,157.705598 108.953827,156.157567 108.181105,156.157567 L78.04494,140.677263 L78.04494,102.750518 C78.04494,101.976503 77.2722178,100.428473 76.4994956,100.428473 L66.4541073,94.2363511 C78.8176621,81.8521078 92.7266613,72.5639254 107.408383,67.1458189 Z" id="Path" fill="#F3F4FA"></path>
                <path d="M76.4994956,146.09537 L103.544772,160.027643 L103.544772,262.19765 C66.4541073,246.717346 40.1815532,210.338632 39.4088311,167.767795 C40.1815532,167.767795 40.1815532,167.767795 40.9542754,167.767795 L76.4994956,146.09537 Z" id="Path" fill="#F3F4FA"></path>
                <path d="M186.226045,262.19765 L186.226045,160.027643 L212.498599,146.869385 L248.816541,167.767795 L249.589263,167.767795 C248.043819,210.338632 222.543987,245.943331 186.226045,262.19765 Z" id="Path" fill="#F3F4FA"></path>
            </g>
            <polygon id="Polygon" fill="#7D72E5" points="144 14 169 29.5811001 169 59.3551357 144 74 119 59.3551357 119 29.5811001"></polygon>
            <polygon id="Polygon" fill="#7D72E5" points="249 94 274 109.5811 274 139.355136 249 154 224 139.355136 224 109.5811"></polygon>
            <polygon id="Polygon" fill="#7D72E5" points="38 94 63 109.5811 63 139.355136 38 154 13 139.355136 13 109.5811"></polygon>
        </g>
    </g>
</svg>