<?xml version="1.0" encoding="utf-8"?>
<!-- Generator: Adobe Illustrator 21.1.0, SVG Export Plug-In . SVG Version: 6.00 Build 0)  -->
<svg version="1.1" id="Layer_1" xmlns="http://www.w3.org/2000/svg" xmlns:xlink="http://www.w3.org/1999/xlink" x="0px" y="0px"
	 viewBox="0 0 1602 1165" style="enable-background:new 0 0 1602 1165;" xml:space="preserve">
<style type="text/css">
	.st0{fill:#FFFFFF;}
	.st1{fill:url(#Rectangle-3_3_);}
	.st2{fill:url(#Rectangle-3_4_);}
	.st3{fill:url(#Rectangle-3_5_);}
	.st4{opacity:0.75;}
	.st5{fill:url(#path-2_1_);}
	.st6{filter:url(#filter-3);}
	.st7{opacity:0.6;}
	.st8{fill:url(#path-5_1_);}
	.st9{filter:url(#filter-6);}
	.st10{fill:url(#path-8_1_);}
	.st11{filter:url(#filter-9);}
</style>
<filter  filterUnits="objectBoundingBox" height="101.2%" id="filter-9" width="100.5%" x="-0.3%" y="-0.6%">
	<feGaussianBlur  in="SourceAlpha" result="shadowBlurInner1" stdDeviation="3"></feGaussianBlur>
	<feOffset  dx="-2.1" dy="2.1" in="shadowBlurInner1" result="shadowOffsetInner1"></feOffset>
	<feComposite  in="shadowOffsetInner1" in2="SourceAlpha" k2="-1" k3="1" operator="arithmetic" result="shadowInnerInner1">
		</feComposite>
	<feColorMatrix  in="shadowInnerInner1" type="matrix" values="0 0 0 0 0   0 0 0 0 0   0 0 0 0 0  0 0 0 0.1 0"></feColorMatrix>
</filter>
<filter  filterUnits="objectBoundingBox" height="101.2%" id="filter-6" width="100.5%" x="-0.3%" y="-0.6%">
	<feGaussianBlur  in="SourceAlpha" result="shadowBlurInner1" stdDeviation="3"></feGaussianBlur>
	<feOffset  dx="2.1" dy="2.1" in="shadowBlurInner1" result="shadowOffsetInner1"></feOffset>
	<feComposite  in="shadowOffsetInner1" in2="SourceAlpha" k2="-1" k3="1" operator="arithmetic" result="shadowInnerInner1">
		</feComposite>
	<feColorMatrix  in="shadowInnerInner1" type="matrix" values="0 0 0 0 0   0 0 0 0 0   0 0 0 0 0  0 0 0 0.16 0"></feColorMatrix>
</filter>
<filter  filterUnits="objectBoundingBox" height="101.2%" id="filter-3" width="100.5%" x="-0.3%" y="-0.6%">
	<feGaussianBlur  in="SourceAlpha" result="shadowBlurInner1" stdDeviation="3"></feGaussianBlur>
	<feOffset  dx="2.1" dy="2.1" in="shadowBlurInner1" result="shadowOffsetInner1"></feOffset>
	<feComposite  in="shadowOffsetInner1" in2="SourceAlpha" k2="-1" k3="1" operator="arithmetic" result="shadowInnerInner1">
		</feComposite>
	<feColorMatrix  in="shadowInnerInner1" type="matrix" values="0 0 0 0 0   0 0 0 0 0   0 0 0 0 0  0 0 0 0.14 0"></feColorMatrix>
</filter>
<g id="Layer_2">
	<g id="Page-1_1_">
		<g id="Artboard" transform="translate(-1.000000, 0.000000)">
			<g id="Group" transform="translate(1.000000, 0.000000)">
				<rect id="Rectangle" x="1.2" class="st0" width="1600" height="740"/>
				
					<image style="overflow:visible;enable-background:new    ;" width="1281" height="740" id="Bitmap" xlink:href="22FC0CB26BFB35C6.png"  transform="matrix(0.9994 0 0 0.9994 161.0509 0.2165)">
				</image>
				
					<linearGradient id="Rectangle-3_3_" gradientUnits="userSpaceOnUse" x1="1.6098" y1="-231.8135" x2="2.9077" y2="-231.8135" gradientTransform="matrix(752 0 0 740 -654 171912)">
					<stop  offset="0" style="stop-color:#FFFFFF;stop-opacity:0"/>
					<stop  offset="1" style="stop-color:#F4F5FB"/>
				</linearGradient>
				<rect id="Rectangle-3" x="849.2" class="st1" width="752" height="740"/>
				
					<linearGradient id="Rectangle-3_4_" gradientUnits="userSpaceOnUse" x1="3.081" y1="-231.8135" x2="2.0622" y2="-231.8135" gradientTransform="matrix(752 0 0 740 -1502 171912)">
					<stop  offset="0" style="stop-color:#FFFFFF;stop-opacity:0"/>
					<stop  offset="1" style="stop-color:#F4F5FB"/>
				</linearGradient>
				<rect id="Rectangle-3_1_" x="1.2" class="st2" width="752" height="740"/>
			</g>
		</g>
	</g>
</g>
<g id="Layer_3">
	<g id="Layer_2_1_">
		
			<linearGradient id="Rectangle-3_5_" gradientUnits="userSpaceOnUse" x1="800.9" y1="1098.2" x2="800.9" y2="1165" gradientTransform="matrix(1 0 0 -1 0 1165)">
			<stop  offset="0" style="stop-color:#FFFFFF;stop-opacity:0"/>
			<stop  offset="1" style="stop-color:#FFFFFF"/>
		</linearGradient>
		<rect id="Rectangle-3_2_" x="0.8" class="st3" width="1600.2" height="66.8"/>
	</g>
</g>
<g id="Page-1">
	<g id="Group-8">
		<g id="Path" class="st4">
			<g>
				
					<linearGradient id="path-2_1_" gradientUnits="userSpaceOnUse" x1="1.4993" y1="1164.0452" x2="1.4993" y2="1163.8201" gradientTransform="matrix(1600.1586 0 0 -682.4244 -1598.3171 795042.0625)">
					<stop  offset="0" style="stop-color:#FBCD97;stop-opacity:0.7811"/>
					<stop  offset="1" style="stop-color:#FAA397"/>
				</linearGradient>
				<path id="path-2" class="st5" d="M0.1,699.1c123.4-76.8,764.8-430.3,1544.5-30.1c19.9,10.2,38.9,20.1,57,29.7
					c-0.2,0.1,0.1,465.3,0.1,465.3H0.2C0.2,1164-0.1,699.9,0.1,699.1z"/>
			</g>
			<g class="st6">
				<path id="path-2_2_" d="M0.1,699.1c123.4-76.8,764.8-430.3,1544.5-30.1c19.9,10.2,38.9,20.1,57,29.7
					c-0.2,0.1,0.1,465.3,0.1,465.3H0.2C0.2,1164-0.1,699.9,0.1,699.1z"/>
			</g>
		</g>
		<g id="Path_1_" class="st7">
			<g>
				
					<linearGradient id="path-5_1_" gradientUnits="userSpaceOnUse" x1="1.0362" y1="1163.8379" x2="1.9295" y2="1163.8379" gradientTransform="matrix(1600.3519 0 0 -700.7354 -1598.3519 816357.0625)">
					<stop  offset="0" style="stop-color:#748AE4"/>
					<stop  offset="1" style="stop-color:#FCA281"/>
				</linearGradient>
				<path id="path-5" class="st8" d="M0.2,544.4c0,0,203.2-57.4,796.7,125.6c390.6,120.4,663.8-64.9,804.9-205.7
					c0.5,0.5,0,700.7,0,700.7h-19.1c0,0-1582.5-4-1582.5,0C0.2,1169,0.2,544.4,0.2,544.4z"/>
			</g>
			<g class="st9">
				<path id="path-5_2_" d="M0.2,544.4c0,0,203.2-57.4,796.7,125.6c390.6,120.4,663.8-64.9,804.9-205.7c0.5,0.5,0,700.7,0,700.7
					h-19.1c0,0-1582.5-4-1582.5,0C0.2,1169,0.2,544.4,0.2,544.4z"/>
			</g>
		</g>
		<g id="Path_2_" class="st4">
			<g>
				
					<linearGradient id="path-8_1_" gradientUnits="userSpaceOnUse" x1="1.4988" y1="1163.8448" x2="1.503" y2="1163.3228" gradientTransform="matrix(1600 0 0 -685.0279 -1598 798073.4375)">
					<stop  offset="0" style="stop-color:#A885DC"/>
					<stop  offset="1" style="stop-color:#DC63A7"/>
				</linearGradient>
				<path id="path-8" class="st10" d="M1601.6,543.4c0,0-196.2-56.5-789.7,126.5c-396.8,122.3-672.3-57.4-811.4-190
					c0.2,0-0.3,685-0.3,685h26c0,0,1575.5-4,1575.5,0C1601.6,1169,1601.6,543.4,1601.6,543.4z"/>
			</g>
			<g class="st11">
				<path id="path-8_2_" d="M1601.6,543.4c0,0-196.2-56.5-789.7,126.5c-396.8,122.3-672.3-57.4-811.4-190c0.2,0-0.3,685-0.3,685h26
					c0,0,1575.5-4,1575.5,0C1601.6,1169,1601.6,543.4,1601.6,543.4z"/>
			</g>
		</g>
	</g>
</g>
</svg>
