<?xml version="1.0" encoding="utf-8"?>
<!-- Generator: Adobe Illustrator 22.0.1, SVG Export Plug-In . SVG Version: 6.00 Build 0)  -->
<svg version="1.1" id="Layer_1" xmlns="http://www.w3.org/2000/svg" xmlns:xlink="http://www.w3.org/1999/xlink" x="0px" y="0px"
	 viewBox="0 0 51 52" style="enable-background:new 0 0 51 52;" xml:space="preserve">
<style type="text/css">
	.st0{fill:#46CD90;}
</style>
<title>Group</title>
<desc>Created with Sketch.</desc>
<g id="Page-1">
	<g id="home_page" transform="translate(-603.000000, -5191.000000)">
		<g id="Layer-1" transform="translate(-492.000000, -6.000000)">
			<g id="Group" transform="translate(1093.000000, 5196.000000)">
				<path id="Combined-shape-300" class="st0" d="M19.2,34h-1v-2.2h1h3.5h1V34h-1H19.2z M32.1,34h-0.9v-2.2h0.9h3.7h0.9V34h-0.9
					H32.1z"/>
				<path id="Combined-shape-301" class="st0" d="M27.5,11.3c9.9,0,14.6,4.7,16.7,9V6.9V5.9H46v1.1v25v0.5v5.9c0,0,0,10.8-18.5,10.8
					S9,38.4,9,38.4v-5.9v-0.5v-25V5.9h1.9v1.1v13.4C12.9,16,17.6,11.3,27.5,11.3z M13.6,33c0,4.5,3.1,8.1,7,8.1h13.9
					c3.8,0,7-3.6,7-8.1c0-4.5-3.1-8.1-7-8.1H20.5C16.7,24.8,13.6,28.5,13.6,33z M10.8,5.9H9c0-0.6,0.4-1.1,0.9-1.1
					C10.4,4.8,10.8,5.3,10.8,5.9z M46,5.9h-1.9c0-0.6,0.4-1.1,0.9-1.1C45.6,4.8,46,5.3,46,5.9z"/>
			</g>
		</g>
	</g>
</g>
</svg>
