<?xml version="1.0" encoding="UTF-8"?>
<svg width="51px" height="52px" viewBox="0 0 51 52" version="1.1" xmlns="http://www.w3.org/2000/svg" xmlns:xlink="http://www.w3.org/1999/xlink">
    <!-- Generator: Sketch 47.1 (45422) - http://www.bohemiancoding.com/sketch -->
    <title>Group</title>
    <desc>Created with Sketch.</desc>
    <defs></defs>
    <g id="Page-1" stroke="none" stroke-width="1" fill="none" fill-rule="evenodd">
        <g id="home_page" transform="translate(-603.000000, -5191.000000)" fill="#46CD90">
            <g id="Layer-1" transform="translate(-492.000000, -6.000000)">
                <g id="Group" transform="translate(1093.000000, 5196.000000)">
                    <path d="M16.140874,35.243992 L14.750034,35.243992 L14.750034,32.707408 L16.140874,32.707408 L21.009075,32.707408 L22.400031,32.707408 L22.400031,35.243992 L21.009075,35.243992 L16.140874,35.243992 Z M33.875012,35.243992 L32.59994,35.243992 L32.59994,32.707408 L33.875012,32.707408 L38.974981,32.707408 L40.250024,32.707408 L40.250024,35.243992 L38.974981,35.243992 L33.875012,35.243992 Z" id="Combined-shape-300"></path>
                    <path d="M27.499986,8.61014 C41.16393,8.61014 47.506284,14.071695 50.449986,19.143465 L50.449986,3.499595 L50.449986,2.26842 L52.999974,2.26842 L52.999974,3.499595 L52.999974,32.7448 L52.999974,33.359645 L52.999974,40.317145 C52.999974,40.317145 52.999974,53.000035 27.499986,53.000035 C1.999998,53.000035 1.999998,40.317145 1.999998,40.317145 L1.999998,33.359645 L1.999998,32.7448 L1.999998,3.499595 L1.999998,2.26842 L4.549986,2.26842 L4.549986,3.499595 L4.549986,19.143465 C7.493796,14.071695 13.836042,8.61014 27.499986,8.61014 Z M8.375022,33.97592 C8.375022,39.2304 12.657762,43.488005 17.940852,43.488005 L37.059228,43.488005 C42.34869,43.488005 46.62495,39.229465 46.62495,33.97592 C46.62495,28.721 42.342318,24.46389 37.059228,24.46389 L17.940852,24.46389 C12.651444,24.46389 8.375022,28.72243 8.375022,33.97592 Z M4.549986,2.26842 L1.999998,2.26842 C1.999998,1.568215 2.570832,1.000395 3.275046,1.000395 C3.979206,1.000395 4.549986,1.568215 4.549986,2.26842 Z M52.999974,2.26842 L50.449986,2.26842 C50.449986,1.568215 51.020928,1.000395 51.724926,1.000395 C52.42914,1.000395 52.999974,1.568215 52.999974,2.26842 Z" id="Combined-shape-301"></path>
                </g>
            </g>
        </g>
    </g>
</svg>