<?xml version="1.0" encoding="utf-8"?>
<!-- Generator: Adobe Illustrator 21.1.0, SVG Export Plug-In . SVG Version: 6.00 Build 0)  -->
<svg version="1.1" id="Layer_1" xmlns="http://www.w3.org/2000/svg" xmlns:xlink="http://www.w3.org/1999/xlink" x="0px" y="0px"
	 viewBox="0 0 900 524.1" style="enable-background:new 0 0 900 524.1;" xml:space="preserve">
<style type="text/css">
	.st0{fill:#F3BD60;}
</style>
<path class="st0" d="M748.7,245.2c-42.3,0-76.7,35.9-76.7,80.3c0,44.3,34.3,80.3,76.7,80.3s76.7-36,76.7-80.3
	C825.4,281.1,791.1,245.2,748.7,245.2z M748.7,367.4c-22.1,0-40-18.8-40-41.9c0-23.2,17.9-41.9,40-41.9s40,18.8,40,41.9
	S770.8,367.4,748.7,367.4z M184.8,247.3c-42.3,0-76.7,35.9-76.7,80.3c0,44.3,34.3,80.3,76.7,80.3s76.7-36,76.7-80.3
	C261.6,283.2,227.2,247.3,184.8,247.3z M184.9,369.5c-22.1,0-40-18.8-40-41.9c0-23.2,17.9-41.9,40-41.9s40,18.8,40,41.9
	C224.9,350.8,207,369.5,184.9,369.5z M874.4,274.2c0,0,6.3-59.3-25.2-92.3c0,0-31.5-44.2-180.7-50.8c0,0-74.6-96-87.2-102.6
	c0,0-18-14.1-34.2-16H296.3c0,0-62.9-5.6-104.3,35.8c0,0-67.4,66.5-81.8,99.2c0,0-58.8,43.6-78.1,102.1C17.7,253.1,7,265.8,7,280.8
	c0,15.3,11.2,28.2,26,31.4c6,8.2,17.1,21,28.6,22.2h34.5c-0.4-3.7-0.7-7.5-0.7-11.4c0-51.5,39.9-93.2,89-93.2
	c49.2,0,89,41.7,89,93.2c0,3.9-0.3,7.6-0.7,11.4h387.7c-0.4-3.7-0.7-7.5-0.7-11.4c0-51.5,39.9-93.2,89-93.2c49.2,0,89,41.7,89,93.2
	c0,3.9-0.3,7.6-0.7,11.4h4.1c0,0,23.4-0.9,24.3-26.4c0,0,24.3,2.8,24.3-13.2C889.7,294.9,895.1,276.1,874.4,274.2z M348,122.7
	c-1.3,19.8-14.8,17-14.8,17H221.9c-34.4-5.6-22.2-26.2-22.2-26.2C239.4,32.3,333.1,43,333.1,43C346,43.8,348,55.6,348,55.6V122.7
	L348,122.7z M577.9,139.6H399.2c-18.9,0-25.6-16.2-25.6-16.2V66.9c1.3-29.7,31.7-23.3,31.7-23.3l116-0.6c18.2,0,35.1,20.3,35.1,20.3
	l33.7,44.5C616.4,142.4,577.9,139.6,577.9,139.6z"/>
</svg>
