<?xml version="1.0" encoding="UTF-8"?>
<svg width="396px" height="334px" viewBox="0 0 396 334" version="1.1" xmlns="http://www.w3.org/2000/svg" xmlns:xlink="http://www.w3.org/1999/xlink">
    <!-- Generator: Sketch 48.1 (47250) - http://www.bohemiancoding.com/sketch -->
    <title>Group 9</title>
    <desc>Created with Sketch.</desc>
    <defs>
        <linearGradient x1="105.091525%" y1="44.8532062%" x2="20.7092124%" y2="50%" id="linearGradient-1">
            <stop stop-color="#5D6471" offset="0%"></stop>
            <stop stop-color="#393F4C" offset="100%"></stop>
        </linearGradient>
        <linearGradient x1="103.76315%" y1="0%" x2="0%" y2="100%" id="linearGradient-2">
            <stop stop-color="#796DE3" offset="0%"></stop>
            <stop stop-color="#A69CFF" offset="100%"></stop>
        </linearGradient>
        <linearGradient x1="50%" y1="0%" x2="50%" y2="100%" id="linearGradient-3">
            <stop stop-color="#85ECBD" offset="0%"></stop>
            <stop stop-color="#A4F4D0" offset="100%"></stop>
        </linearGradient>
        <path d="M35.9796113,251 L64.9477607,251 C68.5482089,251 71.8707017,249.064497 73.6466282,245.932515 L87.4198563,221.642374 C89.1440412,218.601642 89.1553199,214.881308 87.4496032,211.830178 L73.6356989,187.120319 C71.8682092,183.958691 68.5292262,182 64.9070845,182 L36.5139862,182 C32.9454838,182 29.6473945,183.901597 27.8595514,186.989934 L13.6308332,211.568757 C11.8612483,214.625554 11.8354728,218.389132 13.5630236,221.469881 L27.2573669,245.891059 C29.0266951,249.046309 32.3621363,251 35.9796113,251 Z" id="path-4"></path>
        <filter x="-5.2%" y="-5.8%" width="110.5%" height="111.6%" filterUnits="objectBoundingBox" id="filter-6">
            <feGaussianBlur stdDeviation="3" in="SourceAlpha" result="shadowBlurInner1"></feGaussianBlur>
            <feOffset dx="2" dy="2" in="shadowBlurInner1" result="shadowOffsetInner1"></feOffset>
            <feComposite in="shadowOffsetInner1" in2="SourceAlpha" operator="arithmetic" k2="-1" k3="1" result="shadowInnerInner1"></feComposite>
            <feColorMatrix values="0 0 0 0 0.745748299   0 0 0 0 0.745748299   0 0 0 0 0.745748299  0 0 0 0.162109375 0" type="matrix" in="shadowInnerInner1"></feColorMatrix>
        </filter>
        <path d="M207.979611,79 L236.947761,79 C240.548209,79 243.870702,77.0644973 245.646628,73.9325151 L259.419856,49.6423744 C261.144041,46.6016424 261.15532,42.881308 259.449603,39.8301778 L245.635699,15.1203185 C243.868209,11.9586908 240.529226,10 236.907085,10 L208.513986,10 C204.945484,10 201.647394,11.9015972 199.859551,14.9899343 L185.630833,39.5687566 C183.861248,42.6255543 183.835473,46.3891324 185.563024,49.4698808 L199.257367,73.8910585 C201.026695,77.0463086 204.362136,79 207.979611,79 Z" id="path-7"></path>
        <filter x="-5.2%" y="-5.8%" width="110.5%" height="111.6%" filterUnits="objectBoundingBox" id="filter-9">
            <feGaussianBlur stdDeviation="3" in="SourceAlpha" result="shadowBlurInner1"></feGaussianBlur>
            <feOffset dx="2" dy="2" in="shadowBlurInner1" result="shadowOffsetInner1"></feOffset>
            <feComposite in="shadowOffsetInner1" in2="SourceAlpha" operator="arithmetic" k2="-1" k3="1" result="shadowInnerInner1"></feComposite>
            <feColorMatrix values="0 0 0 0 0.745748299   0 0 0 0 0.745748299   0 0 0 0 0.745748299  0 0 0 0.162109375 0" type="matrix" in="shadowInnerInner1"></feColorMatrix>
        </filter>
        <path d="M327.370047,285 L357.532781,285 C361.093944,285 364.386407,283.106151 366.176903,280.027839 L380.305614,255.737023 C382.102414,252.647872 382.114125,248.834665 380.336334,245.734535 L366.166677,221.025351 C364.384207,217.917062 361.074943,216 357.491836,216 L327.919975,216 C324.391116,216 321.123506,217.859923 319.321715,220.894127 L304.725261,245.474469 C302.881639,248.579116 302.854883,252.436522 304.655258,255.566446 L318.701785,279.986105 C320.486006,283.087943 323.79166,285 327.370047,285 Z" id="path-10"></path>
        <filter x="-5.1%" y="-5.8%" width="110.2%" height="111.6%" filterUnits="objectBoundingBox" id="filter-12">
            <feGaussianBlur stdDeviation="3" in="SourceAlpha" result="shadowBlurInner1"></feGaussianBlur>
            <feOffset dx="2" dy="2" in="shadowBlurInner1" result="shadowOffsetInner1"></feOffset>
            <feComposite in="shadowOffsetInner1" in2="SourceAlpha" operator="arithmetic" k2="-1" k3="1" result="shadowInnerInner1"></feComposite>
            <feColorMatrix values="0 0 0 0 0.745748299   0 0 0 0 0.745748299   0 0 0 0 0.745748299  0 0 0 0.162109375 0" type="matrix" in="shadowInnerInner1"></feColorMatrix>
        </filter>
        <path d="M327.370047,147 L357.532781,147 C361.093944,147 364.386407,145.106151 366.176903,142.027839 L380.305614,117.737023 C382.102414,114.647872 382.114125,110.834665 380.336334,107.734535 L366.166677,83.0253509 C364.384207,79.9170623 361.074943,78 357.491836,78 L327.919975,78 C324.391116,78 321.123506,79.8599225 319.321715,82.8941271 L304.725261,107.474469 C302.881639,110.579116 302.854883,114.436522 304.655258,117.566446 L318.701785,141.986105 C320.486006,145.087943 323.79166,147 327.370047,147 Z" id="path-13"></path>
        <filter x="-5.1%" y="-5.8%" width="110.2%" height="111.6%" filterUnits="objectBoundingBox" id="filter-15">
            <feGaussianBlur stdDeviation="3" in="SourceAlpha" result="shadowBlurInner1"></feGaussianBlur>
            <feOffset dx="2" dy="2" in="shadowBlurInner1" result="shadowOffsetInner1"></feOffset>
            <feComposite in="shadowOffsetInner1" in2="SourceAlpha" operator="arithmetic" k2="-1" k3="1" result="shadowInnerInner1"></feComposite>
            <feColorMatrix values="0 0 0 0 0.745748299   0 0 0 0 0.745748299   0 0 0 0 0.745748299  0 0 0 0.162109375 0" type="matrix" in="shadowInnerInner1"></feColorMatrix>
        </filter>
        <path d="M35.8456505,113 L65.0763202,113 C68.6680956,113 71.9839771,111.073731 73.7631986,107.953599 L87.6144755,83.6633092 C89.3545622,80.6118063 89.3659359,76.8710544 87.6444372,73.8090266 L73.7524229,49.0993165 C71.9815487,45.9494646 68.6491077,44 65.0355828,44 L36.3834354,44 C32.8236864,44 29.5323085,45.8923571 27.7413057,48.9687384 L13.4318498,73.5478969 C11.6460486,76.6153434 11.6200574,80.39955 13.3635557,83.4912369 L27.1352266,107.912079 C28.9079202,111.055536 32.2368044,113 35.8456505,113 Z" id="path-16"></path>
        <filter x="-5.2%" y="-5.8%" width="110.4%" height="111.6%" filterUnits="objectBoundingBox" id="filter-18">
            <feGaussianBlur stdDeviation="3" in="SourceAlpha" result="shadowBlurInner1"></feGaussianBlur>
            <feOffset dx="2" dy="2" in="shadowBlurInner1" result="shadowOffsetInner1"></feOffset>
            <feComposite in="shadowOffsetInner1" in2="SourceAlpha" operator="arithmetic" k2="-1" k3="1" result="shadowInnerInner1"></feComposite>
            <feColorMatrix values="0 0 0 0 0.745748299   0 0 0 0 0.745748299   0 0 0 0 0.745748299  0 0 0 0.162109375 0" type="matrix" in="shadowInnerInner1"></feColorMatrix>
        </filter>
    </defs>
    <g id="careers-copy" stroke="none" stroke-width="1" fill="none" fill-rule="evenodd" transform="translate(-974.000000, -587.000000)">
        <g id="Group-9" transform="translate(974.000000, 587.000000)">
            <g id="Group-8" opacity="0.367074275" fill="#D7DAE8">
                <path d="M82.8613139,88.9661356 C83.2397365,88.1597221 83.6260843,87.2991465 84.0381886,86.4526129 C85.0268426,84.4185251 85.9798337,82.3643772 87.0457573,80.3724155 C87.6183445,79.3072275 87.6599512,78.4085378 87.0734951,77.3152658 C85.8728451,75.0865956 84.8049403,72.7816973 83.6954288,70.502877 C83.4002195,69.8970639 83.1485981,69.2752028 82.8910329,68.6974737 C83.5963652,67.8368981 83.9529939,68.334387 84.3215103,68.9000801 C85.7401,71.0786001 87.2755847,73.1909221 88.5634105,75.4476763 C89.4807388,77.0544853 90.6516697,77.7204785 92.4585884,77.7365266 C94.8995138,77.7626046 97.3364765,78.0173671 99.7714581,78.1878774 C100.231113,78.2199735 100.682843,78.3122496 101.098909,78.3744358 C101.394119,79.4998039 100.682843,79.4396238 100.080536,79.4777378 C97.6415922,79.6301941 95.2026482,79.8989986 92.7617228,79.8909746 C90.8062088,79.8829506 89.4847013,80.4646917 88.4960473,82.2861431 C87.2914348,84.5047832 85.7638752,86.546895 84.3750046,88.667241 C84.034226,89.180778 83.719204,89.8046451 82.8613139,88.9661356" id="Fill-49"></path>
                <path d="M43.328409,182.118959 C41.5623338,182.263937 39.7523065,182.428774 37.9422792,182.555877 C36.4439123,182.665107 34.9415497,182.754476 33.4391871,182.798168 C32.460254,182.827958 31.8229486,183.25296 31.2935256,184.079132 C29.7871674,186.424587 28.2188766,188.728336 26.6565793,191.04003 C26.3688929,191.463046 26.0092848,191.84237 25.7056158,192.207792 C24.6407763,191.73314 25.1362363,191.155217 25.3899598,190.634888 C26.626612,188.138497 27.831299,185.626219 29.1458663,183.171534 C29.7172436,182.107043 29.7512066,181.23718 29.1658445,180.154815 C27.8392903,177.706088 26.6445924,175.185866 25.4039446,172.691461 C25.1502211,172.175104 24.678735,171.61704 25.623705,171.064935 C25.9233784,171.38468 26.2749952,171.672648 26.5167318,172.036085 C28.1169877,174.401399 29.7272327,176.762742 31.2615604,179.169763 C31.8309399,180.065445 32.5181909,180.478531 33.5830303,180.524209 C36.4479079,180.649326 39.3067921,180.843953 42.1716697,181.034608 C42.7270644,181.072342 43.5202,180.893603 43.328409,182.118959" id="Fill-63"></path>
                <path d="M75.3720315,55.7402597 C75.0207492,55.2512927 74.6175729,54.7265475 74.2523191,54.1819256 C72.7713449,51.9775984 71.2744032,49.7871849 69.8533066,47.5470796 C69.3223913,46.7122578 68.6717207,46.3425509 67.6997066,46.2908715 C64.7716887,46.1358331 61.8416749,45.937066 58.915653,45.7303482 C58.4466112,45.6965578 57.7280792,45.8993003 57.8178957,44.8040935 C58.1911332,44.716636 58.6082809,44.55961 59.0374042,44.5297949 C61.6221235,44.3548799 64.2088386,44.1402114 66.7995456,44.0785936 C68.3703364,44.0428155 69.4501303,43.5558361 70.2764421,42.136639 C71.5079261,40.0237446 72.9529738,38.0360735 74.3181846,36.002686 C74.6495077,35.5077559 75.0327247,35.0466163 75.3660437,34.5974026 C76.487752,34.8975409 76.0925594,35.4898669 75.8251058,36.0305134 C74.6175729,38.4673982 73.4639299,40.9360856 72.1585968,43.3173156 C71.4680077,44.5735237 71.4001463,45.605125 72.1186783,46.8931358 C73.4419747,49.2664151 74.5796504,51.7410656 75.7891792,54.1779503 C76.052641,54.7086585 76.5117031,55.2910461 75.3720315,55.7402597" id="Fill-99"></path>
                <path d="M43.3447709,44.8544793 C43.4627107,46.0374608 42.7450772,45.8474787 42.2713191,45.878816 C39.6826409,46.0570466 37.0939627,46.2803246 34.4972887,46.3292891 C32.7561777,46.3625849 31.6047656,46.9599514 30.7252148,48.4915599 C29.5897945,50.471683 28.2005039,52.3107884 26.9111623,54.204734 C26.5413511,54.7413846 26.1375573,55.2584494 25.783738,55.7402597 C24.6583127,55.3015381 25.0960891,54.7296331 25.3619534,54.2008169 C26.5753338,51.7995994 27.7167509,49.3631275 29.0400752,47.0265431 C29.7577088,45.7573841 29.6917425,44.7389231 28.9960977,43.5011014 C27.7187499,41.21544 26.5913256,38.8475184 25.4159258,36.5030997 C25.1700513,36.0056207 24.6503167,35.4630944 25.8577002,34.5974026 C26.071591,34.9930355 26.2514991,35.4082542 26.5013715,35.7803841 C28.000606,38.017081 29.5857966,40.206772 30.9990749,42.4924334 C31.764684,43.7302551 32.7141991,44.2101069 34.1494663,44.2414442 C36.6761761,44.2982429 39.1988879,44.5136866 41.7176018,44.6762486 C42.2553272,44.7075859 42.7870557,44.7898462 43.3447709,44.8544793" id="Fill-100"></path>
                <path d="M57.810219,182.07779 C57.8659904,180.794181 58.658742,181.069949 59.1845873,181.032254 C61.7640177,180.847747 64.3474317,180.643401 66.9308458,180.577931 C68.4306999,180.540236 69.4465374,180.070042 70.2372971,178.718979 C71.5080898,176.554499 72.9840419,174.515008 74.3862959,172.429886 C74.7129574,171.947789 75.0953903,171.50537 75.4359946,171.064935 C76.6330893,171.664085 75.9399297,172.304898 75.6809907,172.83461 C74.4380837,175.397862 73.1453808,177.93929 71.8785717,180.490638 C71.6993063,180.853699 71.5479266,181.232632 71.3347999,181.708777 C72.760956,184.571604 74.2309326,187.476093 75.653105,190.400422 C75.9080603,190.924183 76.6111791,191.539204 75.5435539,192.207792 C75.24677,191.890362 74.890231,191.604674 74.6492186,191.249549 C73.0896093,188.942226 71.5080898,186.64879 70.0341296,184.289884 C69.3887741,183.254267 68.5980143,182.805897 67.3989278,182.754314 C64.7457994,182.643214 62.0966546,182.440852 59.4475099,182.262297 C58.9156891,182.230554 58.387852,182.145244 57.810219,182.07779" id="Fill-109"></path>
                <path d="M84.6837754,136.467532 C86.4845399,139.173149 88.3032523,141.811025 90.0043067,144.518634 C90.628492,145.502856 91.3603642,145.881404 92.4970594,145.919258 C95.2251279,146.008914 97.9472138,146.204165 100.6693,146.391446 C101.28152,146.433286 102.150992,146.184241 102.13105,147.515134 C101.437068,147.604789 100.719155,147.730308 99.9992478,147.780117 C97.4107734,147.955444 94.8242933,148.154679 92.2378131,148.250312 C91.2387178,148.290159 90.618521,148.670699 90.086069,149.495533 C88.3192059,152.239004 86.4885283,154.940636 84.7116942,157.61039 C83.6168773,157.504795 83.7285526,156.966859 84.0516133,156.321337 C85.2102448,154.006222 86.2472299,151.61739 87.5554265,149.387946 C88.5365739,147.714369 88.5026725,146.34363 87.5235192,144.685991 C86.2472299,142.522295 85.2281926,140.199211 84.1253988,137.935897 C83.8821062,137.433824 83.3815614,136.786309 84.6837754,136.467532" id="Fill-127"></path>
                <path d="M102.130733,12.0047444 C101.432896,12.0904317 100.719109,12.2179664 99.9953527,12.2677846 C97.4093697,12.4471302 94.8213929,12.6424177 92.2354099,12.7420542 C91.2365067,12.7779233 90.6184228,13.16252 90.088067,13.9875099 C88.317556,16.7295054 86.4872303,19.4336389 84.7147254,22.1038961 C83.6161312,21.9883178 83.7357603,21.4482882 84.0567652,20.8046366 C85.2151739,18.4870925 86.2519597,16.0998029 87.5599048,13.8699389 C88.5428575,12.1980391 88.4989935,10.8270414 87.5260099,9.17307612 C86.247972,7.00299399 85.2291306,4.68345716 84.124555,2.41373857 C83.8813091,1.9115708 83.3868421,1.26991199 84.6708614,0.961038961 C85.2191615,1.77805795 85.819301,2.65685154 86.4114652,3.54361604 C87.6576019,5.41678152 88.9396274,7.26802698 90.1319311,9.17905431 C90.6622869,10.027957 91.3202471,10.3507791 92.2992121,10.3926264 C95.0925522,10.5042192 97.8858924,10.6895431 100.673251,10.8788523 C101.287347,10.9187069 102.158646,10.6736012 102.130733,12.0047444" id="Fill-143"></path>
                <path d="M57.810219,113.006727 C58.8647973,112.875762 59.6385474,112.742813 60.4181891,112.689237 C62.8985101,112.516602 65.3807949,112.330076 67.8670073,112.246735 C68.8548153,112.213002 69.4557482,111.832014 69.9761639,111.004555 C71.3803044,108.770218 72.8531791,106.577552 74.3142708,104.376949 C74.6697246,103.833247 75.0742741,103.31931 75.4238364,102.831169 C76.5019807,103.321294 76.0660098,103.896745 75.80482,104.43251 C74.5833159,106.93076 73.4030523,109.448853 72.1029949,111.901464 C71.5315196,112.980931 71.5472302,113.856013 72.1147779,114.927542 C73.4128715,117.380153 74.5892074,119.900231 75.8146392,122.396497 C76.0777928,122.938214 76.4901977,123.51565 75.4140172,123.974026 C75.0624912,123.477948 74.6599054,122.954089 74.300524,122.408403 C72.8787089,120.261376 71.4352918,118.128239 70.0763194,115.947479 C69.4852057,114.996993 68.799828,114.560444 67.6490219,114.532664 C65.0312326,114.473134 62.4154072,114.260813 59.7995817,114.082225 C59.1809744,114.040554 58.4465008,114.193346 57.810219,113.006727" id="Fill-180"></path>
                <path d="M159.928713,44.8544793 C160.046652,46.0374608 159.329019,45.8474787 158.855261,45.878816 C156.266583,46.0570466 153.677904,46.2803246 151.08123,46.3292891 C149.340119,46.3625849 148.188707,46.9599514 147.309156,48.4915599 C146.173736,50.471683 144.784446,52.3107884 143.495104,54.204734 C143.125293,54.7413846 142.721499,55.2584494 142.36768,55.7402597 C141.242254,55.3015381 141.680031,54.7296331 141.945895,54.2008169 C143.159275,51.7995994 144.300693,49.3631275 145.624017,47.0265431 C146.34165,45.7573841 146.275684,44.7389231 145.580039,43.5011014 C144.302692,41.21544 143.175267,38.8475184 141.999867,36.5030997 C141.753993,36.0056207 141.234258,35.4630944 142.441642,34.5974026 C142.655533,34.9930355 142.835441,35.4082542 143.085313,35.7803841 C144.584548,38.017081 146.169738,40.206772 147.583017,42.4924334 C148.348626,43.7302551 149.298141,44.2101069 150.733408,44.2414442 C153.260118,44.2982429 155.78283,44.5136866 158.301543,44.6762486 C158.839269,44.7075859 159.370997,44.7898462 159.928713,44.8544793" id="Fill-100"></path>
                <path d="M133.891259,158.086081 C133.202112,158.974299 132.840658,158.477057 132.469274,157.913651 C131.049274,155.740223 129.527988,153.620931 128.221191,151.377328 C127.305639,149.799388 126.191486,149.05553 124.334563,149.089615 C122.169809,149.133726 119.993138,148.86706 117.826398,148.714679 C117.095545,148.664554 116.366678,148.546259 115.665615,148.464053 C115.43921,147.355285 116.10651,147.355285 116.716216,147.317189 C119.431096,147.148769 122.142005,146.920198 124.858871,146.854033 C126.21929,146.827968 127.10108,146.384861 127.825975,145.181857 C129.275764,142.777854 130.874505,140.472096 132.421609,138.138268 C132.759231,137.628996 133.073022,136.971354 133.927007,137.883632 C133.4027,138.976361 132.86449,140.135255 132.298476,141.286129 C131.424631,143.06858 130.590505,144.873086 129.645163,146.615437 C129.132771,147.559795 129.112911,148.341748 129.617358,149.298136 C130.830813,151.599884 131.944966,153.953762 133.084938,156.28759 C133.380854,156.891097 133.637049,157.514654 133.891259,158.086081" id="Fill-128"></path>
                <path d="M133.891259,88.8912759 C133.202112,89.779494 132.840658,89.2822523 132.469274,88.7188454 C131.049274,86.5454179 129.527988,84.4261257 128.221191,82.1825231 C127.305639,80.6045827 126.191486,79.8607251 124.334563,79.8948103 C122.169809,79.9389204 119.993138,79.6722545 117.826398,79.519874 C117.095545,79.4697488 116.366678,79.3514534 115.665615,79.2692481 C115.43921,78.1604793 116.10651,78.1604793 116.716216,78.1223842 C119.431096,77.9539636 122.142005,77.7253929 124.858871,77.6592276 C126.21929,77.6331625 127.10108,77.190056 127.825975,75.9870519 C129.275764,73.5830487 130.874505,71.2772909 132.421609,68.9434629 C132.759231,68.4341912 133.073022,67.7765489 133.927007,68.688827 C133.4027,69.7815558 132.86449,70.9404497 132.298476,72.0913236 C131.424631,73.8737747 130.590505,75.6782809 129.645163,77.4206318 C129.132771,78.36499 129.112911,79.1469427 129.617358,80.103331 C130.830813,82.4050788 131.944966,84.7589568 133.084938,87.0927848 C133.380854,87.6962919 133.637049,88.319849 133.891259,88.8912759" id="Fill-128"></path>
                <path d="M133.891259,21.6185487 C133.202112,22.5067667 132.840658,22.009525 132.469274,21.4461181 C131.049274,19.2726907 129.527988,17.1533984 128.221191,14.9097958 C127.305639,13.3318554 126.191486,12.5879979 124.334563,12.622083 C122.169809,12.6661931 119.993138,12.3995272 117.826398,12.2471467 C117.095545,12.1970215 116.366678,12.0787261 115.665615,11.9965208 C115.43921,10.8877521 116.10651,10.8877521 116.716216,10.8496569 C119.431096,10.6812364 122.142005,10.4526656 124.858871,10.3865004 C126.21929,10.3604353 127.10108,9.91732876 127.825975,8.71432465 C129.275764,6.31032145 130.874505,4.00456359 132.421609,1.67073563 C132.759231,1.16146389 133.073022,0.50382165 133.927007,1.41609976 C133.4027,2.50882849 132.86449,3.66772244 132.298476,4.81859637 C131.424631,6.60104745 130.590505,8.4055536 129.645163,10.1479045 C129.132771,11.0922628 129.112911,11.8742154 129.617358,12.8306037 C130.830813,15.1323515 131.944966,17.4862296 133.084938,19.8200575 C133.380854,20.4235646 133.637049,21.0471217 133.891259,21.6185487" id="Fill-128"></path>
                <path d="M142.360573,123.974026 C141.294638,123.590008 141.659144,123.018956 141.933017,122.461832 C143.010773,120.267161 143.95652,117.988922 145.211604,115.901697 C146.293302,114.095023 146.180994,112.588798 145.162347,110.833858 C143.968342,108.782447 143.014714,106.589766 141.974393,104.450808 C141.724164,103.929499 141.235528,103.356457 142.252206,102.831169 C142.551692,103.193299 142.918169,103.55742 143.197952,103.977253 C144.742672,106.295286 146.301183,108.601382 147.771031,110.967169 C148.34439,111.886424 149.018234,112.226668 150.072347,112.258503 C152.631774,112.342072 155.18923,112.533086 157.744716,112.72012 C158.426441,112.765884 159.098315,112.94098 159.941606,113.084241 C159.423416,114.19252 158.680611,114.04727 158.065875,114.087064 C155.443399,114.268129 152.818953,114.469092 150.190566,114.546691 C149.067492,114.578527 148.332568,114.938668 147.727684,115.917614 C146.374084,118.118254 144.918029,120.247264 143.495469,122.400151 C143.125051,122.951305 142.717198,123.476594 142.360573,123.974026" id="Fill-179"></path>
                <path d="M255.328467,190.836265 C255.70689,190.029852 256.093238,189.169276 256.505342,188.322743 C257.493996,186.288655 258.446987,184.234507 259.512911,182.242545 C260.085498,181.177357 260.127104,180.278668 259.540648,179.185396 C258.339998,176.956725 257.272094,174.651827 256.162582,172.373007 C255.867373,171.767194 255.615751,171.145333 255.358186,170.567604 C256.063519,169.707028 256.420147,170.204517 256.788664,170.77021 C258.207253,172.94873 259.742738,175.061052 261.030564,177.317806 C261.947892,178.924615 263.118823,179.590608 264.925742,179.606656 C267.366667,179.632734 269.80363,179.887497 272.238611,180.058007 C272.698266,180.090103 273.149996,180.18238 273.566063,180.244566 C273.861272,181.369934 273.149996,181.309754 272.54769,181.347868 C270.108745,181.500324 267.669801,181.769128 265.228876,181.761104 C263.273362,181.75308 261.951855,182.334822 260.963201,184.156273 C259.758588,186.374913 258.231029,188.417025 256.842158,190.537371 C256.501379,191.050908 256.186357,191.674775 255.328467,190.836265" id="Fill-49"></path>
                <path d="M247.839185,157.61039 C247.487902,157.121423 247.084726,156.596677 246.719472,156.052055 C245.238498,153.847728 243.741557,151.657315 242.32046,149.417209 C241.789545,148.582388 241.138874,148.212681 240.16686,148.161001 C237.238842,148.005963 234.308828,147.807196 231.382806,147.600478 C230.913765,147.566688 230.195233,147.76943 230.285049,146.674223 C230.658286,146.586766 231.075434,146.42974 231.504557,146.399925 C234.089277,146.22501 236.675992,146.010341 239.266699,145.948723 C240.83749,145.912945 241.917284,145.425966 242.743595,144.006769 C243.975079,141.893874 245.420127,139.906203 246.785338,137.872816 C247.116661,137.377886 247.499878,136.916746 247.833197,136.467532 C248.954905,136.767671 248.559713,137.359997 248.292259,137.900643 C247.084726,140.337528 245.931083,142.806216 244.62575,145.187445 C243.935161,146.443654 243.8673,147.475255 244.585832,148.763266 C245.909128,151.136545 247.046804,153.611195 248.256333,156.04808 C248.519794,156.578788 248.978856,157.161176 247.839185,157.61039" id="Fill-99"></path>
                <path d="M190.737974,123.488679 C190.048828,124.376897 189.687373,123.879655 189.315989,123.316248 C187.895989,121.142821 186.374703,119.023528 185.067906,116.779926 C184.152354,115.201985 183.038201,114.458128 181.181279,114.492213 C179.016524,114.536323 176.839853,114.269657 174.673113,114.117277 C173.94226,114.067151 173.213393,113.948856 172.512331,113.866651 C172.285925,112.757882 172.953225,112.757882 173.562932,112.719787 C176.277812,112.551366 178.98872,112.322795 181.705586,112.25663 C183.066005,112.230565 183.947795,111.787459 184.67269,110.584455 C186.12248,108.180451 187.72122,105.874693 189.268325,103.540866 C189.605947,103.031594 189.919737,102.373952 190.773723,103.28623 C190.249415,104.378958 189.711206,105.537852 189.145192,106.688726 C188.271346,108.471177 187.43722,110.275683 186.491878,112.018034 C185.979487,112.962393 185.959626,113.744345 186.464074,114.700734 C187.677528,117.002481 188.791681,119.356359 189.931653,121.690187 C190.227569,122.293694 190.483765,122.917252 190.737974,123.488679" id="Fill-128"></path>
                <path d="M188.99249,123.974026 C187.293747,121.30274 185.562592,118.661379 183.922952,115.960169 C183.43678,115.16018 182.901037,114.731258 182.10219,114.587619 L182.10219,112.145756 C182.912477,111.966208 183.49207,111.501376 184.004934,110.641537 C185.587377,107.978232 187.29756,105.40071 188.927667,102.831169 C189.736047,102.841144 190.001059,103.160341 189.673131,103.860581 C188.923853,105.450585 188.149791,107.030613 187.419579,108.632587 C186.696994,110.228575 185.488236,111.834539 185.472984,113.448482 C185.457731,114.978636 186.696994,116.530735 187.404327,118.064879 C188.145978,119.658872 188.902881,121.246881 189.665504,122.830899 C189.926703,123.373535 189.8676,123.740613 188.99249,123.974026" id="Fill-141"></path>
                <path d="M275.56139,113.874874 C274.863553,113.960562 274.149766,114.088096 273.42601,114.137914 C270.840027,114.31726 268.25205,114.512548 265.666067,114.612184 C264.667164,114.648053 264.04908,115.03265 263.518724,115.85764 C261.748213,118.599635 259.917887,121.303769 258.145382,123.974026 C257.046788,123.858448 257.166417,123.318418 257.487422,122.674767 C258.645831,120.357222 259.682617,117.969933 260.990562,115.740069 C261.973514,114.068169 261.92965,112.697171 260.956667,111.043206 C259.678629,108.873124 258.659788,106.553587 257.555212,104.283868 C257.311966,103.781701 256.817499,103.140042 258.101518,102.831169 C258.649818,103.648188 259.249958,104.526981 259.842122,105.413746 C261.088259,107.286911 262.370284,109.138157 263.562588,111.049184 C264.092944,111.898087 264.750904,112.220909 265.729869,112.262756 C268.523209,112.374349 271.316549,112.559673 274.103908,112.748982 C274.718004,112.788837 275.589303,112.543731 275.56139,113.874874" id="Fill-143"></path>
                <path d="M214.861314,79.4187318 C214.241538,80.6295123 213.495839,80.4423193 212.87803,80.484139 C210.322191,80.6653578 207.76832,80.9063191 205.212481,80.9222504 C203.870616,80.9302161 203.140657,81.4838295 202.479563,82.5611853 C201.165244,84.7019568 199.746645,86.779003 198.363462,88.873972 C198.028979,89.3778001 197.661049,89.8537484 197.314761,90.3376623 C196.301476,90.110641 196.496263,89.5709674 196.793362,88.9655771 C197.938472,86.649561 198.955692,84.261854 200.242466,82.0314688 C201.177049,80.4164309 201.10425,79.0941311 200.209018,77.5129473 C198.975368,75.3323474 197.960115,73.0163313 196.854356,70.7600577 C196.580867,70.20047 196.212937,69.6289337 197.273443,69.1948052 C197.625633,69.6966419 198.025044,70.2243669 198.391007,70.775989 C199.850925,72.9864601 201.330517,75.1809998 202.733376,77.4293078 C203.260678,78.2716765 203.886356,78.6062343 204.862258,78.6440712 C207.418097,78.7416506 209.973936,78.9268522 212.52584,79.1040882 C213.232188,79.1538735 213.932633,79.2912812 214.861314,79.4187318" id="Fill-153"></path>
                <path d="M247.824887,90.3376623 C245.706055,87.1795249 243.632981,84.0868514 241.615614,81.0755118 C237.82161,80.7541436 234.166872,80.4486454 230.514124,80.1233096 C230.442502,80.1193421 230.388785,79.9090641 230.277372,79.6908511 C230.633495,78.9707481 231.383542,79.1115947 232.002281,79.0659684 C234.447394,78.8854467 236.898475,78.6136723 239.341599,78.6414449 C241.076455,78.6612824 242.061265,77.9729196 242.902829,76.5466 C244.108475,74.4993651 245.505114,72.5632206 246.834109,70.5893847 C247.166358,70.0954298 247.548345,69.6351987 247.876615,69.1948052 C248.942994,69.5836211 248.559018,70.15891 248.288444,70.70841 C247.138505,73.0214679 246.080083,75.3841197 244.804805,77.6257625 C243.981146,79.0778709 243.895597,80.2661399 244.761035,81.7539559 C246.05223,83.9817124 247.104683,86.3522992 248.242685,88.6713084 C248.497343,89.1831171 249.00268,89.758406 247.824887,90.3376623" id="Fill-154"></path>
                <path d="M230.277372,214.876857 C231.331951,214.745892 232.105701,214.612943 232.885342,214.559367 C235.365663,214.386731 237.847948,214.200206 240.334161,214.116865 C241.321969,214.083132 241.922901,213.702143 242.443317,212.874685 C243.847458,210.640348 245.320332,208.447682 246.781424,206.247079 C247.136878,205.703377 247.541427,205.18944 247.89099,204.701299 C248.969134,205.191424 248.533163,205.766875 248.271973,206.302639 C247.050469,208.80089 245.870206,211.318983 244.570148,213.771594 C243.998673,214.851061 244.014384,215.726143 244.581931,216.797672 C245.880025,219.250283 247.056361,221.770361 248.281792,224.266627 C248.544946,224.808344 248.957351,225.385779 247.881171,225.844156 C247.529644,225.348078 247.127059,224.824219 246.767677,224.278533 C245.345862,222.131506 243.902445,219.998369 242.543473,217.817609 C241.952359,216.867123 241.266981,216.430574 240.116175,216.402794 C237.498386,216.343264 234.88256,216.130943 232.266735,215.952355 C231.648128,215.910684 230.913654,216.063476 230.277372,214.876857" id="Fill-180"></path>
                <path d="M334.322873,146.724609 C334.440813,147.907591 333.723179,147.717609 333.249421,147.748946 C330.660743,147.927176 328.072065,148.150454 325.475391,148.199419 C323.73428,148.232715 322.582868,148.830081 321.703317,150.36169 C320.567897,152.341813 319.178606,154.180918 317.889264,156.074864 C317.519453,156.611514 317.11566,157.128579 316.76184,157.61039 C315.636415,157.171668 316.074191,156.599763 316.340056,156.070947 C317.553436,153.669729 318.694853,151.233257 320.018177,148.896673 C320.735811,147.627514 320.669845,146.609053 319.9742,145.371231 C318.696852,143.08557 317.569428,140.717648 316.394028,138.37323 C316.148154,137.875751 315.628419,137.333224 316.835802,136.467532 C317.049693,136.863165 317.229601,137.278384 317.479474,137.650514 C318.978708,139.887211 320.563899,142.076902 321.977177,144.362563 C322.742786,145.600385 323.692301,146.080237 325.127568,146.111574 C327.654278,146.168373 330.17699,146.383816 332.695704,146.546378 C333.233429,146.577716 333.765158,146.659976 334.322873,146.724609" id="Fill-100"></path>
                <path d="M308.28542,190.761406 C307.596273,191.649624 307.234819,191.152382 306.863434,190.588975 C305.443435,188.415548 303.922148,186.296256 302.615352,184.052653 C301.6998,182.474713 300.585646,181.730855 298.728724,181.76494 C296.563969,181.80905 294.387299,181.542384 292.220558,181.390004 C291.489705,181.339879 290.760838,181.221583 290.059776,181.139378 C289.83337,180.030609 290.500671,180.030609 291.110377,179.992514 C293.825257,179.824094 296.536165,179.595523 299.253031,179.529358 C300.61345,179.503292 301.49524,179.060186 302.220135,177.857182 C303.669925,175.453179 305.268665,173.147421 306.81577,170.813593 C307.153392,170.304321 307.467182,169.646679 308.321168,170.558957 C307.79686,171.651686 307.258651,172.81058 306.692637,173.961454 C305.818791,175.743905 304.984666,177.548411 304.039323,179.290762 C303.526932,180.23512 303.507072,181.017073 304.011519,181.973461 C305.224973,184.275209 306.339127,186.629087 307.479098,188.962915 C307.775014,189.566422 308.03121,190.189979 308.28542,190.761406" id="Fill-128"></path>
                <path d="M308.28542,123.488679 C307.596273,124.376897 307.234819,123.879655 306.863434,123.316248 C305.443435,121.142821 303.922148,119.023528 302.615352,116.779926 C301.6998,115.201985 300.585646,114.458128 298.728724,114.492213 C296.563969,114.536323 294.387299,114.269657 292.220558,114.117277 C291.489705,114.067151 290.760838,113.948856 290.059776,113.866651 C289.83337,112.757882 290.500671,112.757882 291.110377,112.719787 C293.825257,112.551366 296.536165,112.322795 299.253031,112.25663 C300.61345,112.230565 301.49524,111.787459 302.220135,110.584455 C303.669925,108.180451 305.268665,105.874693 306.81577,103.540866 C307.153392,103.031594 307.467182,102.373952 308.321168,103.28623 C307.79686,104.378958 307.258651,105.537852 306.692637,106.688726 C305.818791,108.471177 304.984666,110.275683 304.039323,112.018034 C303.526932,112.962393 303.507072,113.744345 304.011519,114.700734 C305.224973,117.002481 306.339127,119.356359 307.479098,121.690187 C307.775014,122.293694 308.03121,122.917252 308.28542,123.488679" id="Fill-128"></path>
                <path d="M306.539935,123.974026 C304.841192,121.30274 303.110037,118.661379 301.470398,115.960169 C300.984225,115.16018 300.448483,114.731258 299.649635,114.587619 L299.649635,112.145756 C300.459922,111.966208 301.039516,111.501376 301.55238,110.641537 C303.134823,107.978232 304.845005,105.40071 306.475112,102.831169 C307.283492,102.841144 307.548504,103.160341 307.220576,103.860581 C306.471299,105.450585 305.697236,107.030613 304.967025,108.632587 C304.244439,110.228575 303.035682,111.834539 303.020429,113.448482 C303.005177,114.978636 304.244439,116.530735 304.951772,118.064879 C305.693423,119.658872 306.450327,121.246881 307.21295,122.830899 C307.474148,123.373535 307.415045,123.740613 306.539935,123.974026" id="Fill-141"></path>
                <path d="M334.335766,79.4187318 C333.71599,80.6295123 332.970291,80.4423193 332.352483,80.484139 C329.796644,80.6653578 327.242772,80.9063191 324.686933,80.9222504 C323.345069,80.9302161 322.61511,81.4838295 321.954015,82.5611853 C320.639696,84.7019568 319.221097,86.779003 317.837914,88.873972 C317.503432,89.3778001 317.135501,89.8537484 316.789214,90.3376623 C315.775929,90.110641 315.970716,89.5709674 316.267815,88.9655771 C317.412925,86.649561 318.430145,84.261854 319.716918,82.0314688 C320.651502,80.4164309 320.578702,79.0941311 319.68347,77.5129473 C318.44982,75.3323474 317.434568,73.0163313 316.328809,70.7600577 C316.05532,70.20047 315.687389,69.6289337 316.747895,69.1948052 C317.100086,69.6966419 317.499497,70.2243669 317.86546,70.775989 C319.325377,72.9864601 320.80497,75.1809998 322.207828,77.4293078 C322.73513,78.2716765 323.360809,78.6062343 324.33671,78.6440712 C326.892549,78.7416506 329.448388,78.9268522 332.000292,79.1040882 C332.70664,79.1538735 333.407086,79.2912812 334.335766,79.4187318" id="Fill-153"></path>
                <path d="M257.150929,34.5974026 C258.951693,37.3030189 260.770406,39.9408951 262.47146,42.6485038 C263.095645,43.6327265 263.827517,44.0112737 264.964213,44.0491284 C267.692281,44.1387843 270.414367,44.334035 273.136453,44.5213162 C273.748673,44.5631557 274.618145,44.3141114 274.598203,45.6450037 C273.904221,45.7346596 273.186308,45.8601779 272.466401,45.9099867 C269.877927,46.0853139 267.291447,46.2845492 264.704966,46.3801822 C263.705871,46.4200293 263.085674,46.8005688 262.553222,47.6254032 C260.786359,50.3688742 258.955682,53.0705058 257.178848,55.7402597 C256.084031,55.634665 256.195706,55.0967295 256.518767,54.4512069 C257.677398,52.136092 258.714383,49.7472599 260.02258,47.5178161 C261.003727,45.8442391 260.969826,44.4734997 259.990673,42.8158615 C258.714383,40.6521654 257.695346,38.329081 256.592552,36.0657673 C256.349259,35.5636941 255.848715,34.9161792 257.150929,34.5974026" id="Fill-127"></path>
                <path d="M196.316777,21.1428571 C195.250842,20.7588395 195.615348,20.1877874 195.889221,19.6306633 C196.966978,17.4359926 197.912724,15.1577532 199.167809,13.0705278 C200.249506,11.2638542 200.137199,9.75762953 199.118551,8.00268882 C197.924546,5.95127854 196.970918,3.75859751 195.930597,1.61963916 C195.680369,1.09833024 195.191733,0.525288376 196.20841,0 C196.507897,0.362130623 196.874373,0.726250975 197.154157,1.14608373 C198.698876,3.46411766 200.257387,5.77021322 201.727235,8.13600065 C202.300594,9.0552553 202.974438,9.39549891 204.028552,9.42733457 C206.587978,9.51090318 209.145434,9.70191713 211.70092,9.88895163 C212.382646,9.93471539 213.05452,10.1098115 213.89781,10.253072 C213.37962,11.3613509 212.636815,11.2161007 212.02208,11.2558952 C209.399604,11.4369606 206.775157,11.6379232 204.14677,11.7155226 C203.023696,11.7473582 202.288772,12.1074991 201.683888,13.0864456 C200.330289,15.2870856 198.874233,17.4160953 197.451673,19.5689817 C197.081256,20.1201366 196.673402,20.645425 196.316777,21.1428571" id="Fill-179"></path>
                <path d="M229.313869,10.1755581 C230.368447,10.0445934 231.142197,9.91164443 231.921839,9.85806798 C234.40216,9.68543273 236.884445,9.49890729 239.370657,9.41556613 C240.358465,9.38183281 240.959398,9.00084467 241.479814,8.17338607 C242.883954,5.93904941 244.356829,3.74638332 245.81792,1.54577998 C246.173374,1.00207817 246.577924,0.488141047 246.927486,0 C248.00563,0.49012536 247.569659,1.06557619 247.30847,1.60134075 C246.086966,4.09959107 244.906702,6.61768452 243.606645,9.07029564 C243.035169,10.149762 243.05088,11.0248441 243.618428,12.0963733 C244.916521,14.5489844 246.092857,17.0690621 247.318289,19.5653281 C247.581442,20.1070457 247.993847,20.6844808 246.917667,21.1428571 C246.566141,20.6467788 246.163555,20.1229202 245.804174,19.577234 C244.382359,17.4302071 242.938941,15.2970705 241.579969,13.1163103 C240.988855,12.1658242 240.303478,11.7292753 239.152672,11.7014949 C236.534882,11.6419655 233.919057,11.429644 231.303231,11.2510558 C230.684624,11.2093853 229.95015,11.3621774 229.313869,10.1755581" id="Fill-180"></path>
                <path d="M307.321916,55.2549123 C306.632769,56.1431303 306.271315,55.6458886 305.89993,55.0824817 C304.479931,52.9090543 302.958645,50.7897621 301.651848,48.5461594 C300.736296,46.968219 299.622143,46.2243615 297.76522,46.2584466 C295.600466,46.3025568 293.423795,46.0358909 291.257055,45.8835103 C290.526202,45.8333852 289.797335,45.7150898 289.096272,45.6328845 C288.869867,44.5241157 289.537167,44.5241157 290.146873,44.4860206 C292.861753,44.3176 295.572661,44.0890292 298.289528,44.022864 C299.649947,43.9967989 300.531737,43.5536924 301.256631,42.3506883 C302.706421,39.9466851 304.305162,37.6409272 305.852266,35.3070993 C306.189888,34.7978275 306.503679,34.1401853 307.357664,35.0524634 C306.833357,36.1451921 306.295147,37.3040861 305.729133,38.45496 C304.855288,40.2374111 304.021162,42.0419172 303.07582,43.7842682 C302.563428,44.7286264 302.543568,45.5105791 303.048015,46.4669673 C304.26147,48.7687152 305.375623,51.1225932 306.515595,53.4564212 C306.811511,54.0599282 307.067706,54.6834854 307.321916,55.2549123" id="Fill-128"></path>
                <path d="M315.79123,21.1428571 C314.725295,20.7588395 315.089801,20.1877874 315.363673,19.6306633 C316.44143,17.4359926 317.387177,15.1577532 318.642261,13.0705278 C319.723959,11.2638542 319.611651,9.75762953 318.593004,8.00268882 C317.398999,5.95127854 316.445371,3.75859751 315.40505,1.61963916 C315.154821,1.09833024 314.666185,0.525288376 315.682863,0 C315.982349,0.362130623 316.348826,0.726250975 316.628609,1.14608373 C318.173329,3.46411766 319.73184,5.77021322 321.201688,8.13600065 C321.775047,9.0552553 322.448891,9.39549891 323.503004,9.42733457 C326.062431,9.51090318 328.619887,9.70191713 331.175373,9.88895163 C331.857098,9.93471539 332.528972,10.1098115 333.372263,10.253072 C332.854073,11.3613509 332.111267,11.2161007 331.496532,11.2558952 C328.874056,11.4369606 326.24961,11.6379232 323.621222,11.7155226 C322.498149,11.7473582 321.763225,12.1074991 321.158341,13.0864456 C319.804741,15.2870856 318.348686,17.4160953 316.926125,19.5689817 C316.555708,20.1201366 316.147855,20.645425 315.79123,21.1428571" id="Fill-179"></path>
                <path d="M334.335112,215.745004 C333.637276,215.830691 332.923488,215.958226 332.199732,216.008044 C329.613749,216.18739 327.025772,216.382677 324.439789,216.482314 C323.440886,216.518183 322.822802,216.90278 322.292447,217.72777 C320.521936,220.469765 318.69161,223.173899 316.919105,225.844156 C315.820511,225.728578 315.94014,225.188548 316.261145,224.544896 C317.419553,222.227352 318.456339,219.840063 319.764284,217.610199 C320.747237,215.938299 320.703373,214.567301 319.730389,212.913336 C318.452352,210.743254 317.43351,208.423717 316.328935,206.153998 C316.085689,205.651831 315.591222,205.010172 316.875241,204.701299 C317.423541,205.518318 318.023681,206.397111 318.615845,207.283876 C319.861981,209.157041 321.144007,211.008287 322.336311,212.919314 C322.866666,213.768217 323.524627,214.091039 324.503592,214.132886 C327.296932,214.244479 330.090272,214.429803 332.877631,214.619112 C333.491727,214.658967 334.363026,214.413861 334.335112,215.745004" id="Fill-143"></path>
                <path d="M102.130733,216.706043 C101.432896,216.79173 100.719109,216.919265 99.9953527,216.969083 C97.4093697,217.148429 94.8213929,217.343716 92.2354099,217.443353 C91.2365067,217.479222 90.6184228,217.863819 90.088067,218.688809 C88.317556,221.430804 86.4872303,224.134938 84.7147254,226.805195 C83.6161312,226.689617 83.7357603,226.149587 84.0567652,225.505935 C85.2151739,223.188391 86.2519597,220.801102 87.5599048,218.571238 C88.5428575,216.899338 88.4989935,215.52834 87.5260099,213.874375 C86.247972,211.704293 85.2291306,209.384756 84.124555,207.115037 C83.8813091,206.61287 83.3868421,205.971211 84.6708614,205.662338 C85.2191615,206.479357 85.819301,207.35815 86.4114652,208.244915 C87.6576019,210.11808 88.9396274,211.969326 90.1319311,213.880353 C90.6622869,214.729256 91.3202471,215.052078 92.2992121,215.093925 C95.0925522,215.205518 97.8858924,215.390842 100.673251,215.580151 C101.287347,215.620006 102.158646,215.3749 102.130733,216.706043" id="Fill-143"></path>
                <path d="M190.014668,55.7402597 C187.895836,52.5821223 185.822762,49.4894488 183.805395,46.4781092 C180.011391,46.156741 176.356654,45.8512428 172.703905,45.525907 C172.632283,45.5219395 172.578566,45.3116615 172.467153,45.0934485 C172.823276,44.3733456 173.573323,44.5141921 174.192062,44.4685658 C176.637175,44.2880441 179.088256,44.0162697 181.53138,44.0440423 C183.266236,44.0638798 184.251046,43.375517 185.09261,41.9491974 C186.298256,39.9019626 187.694895,37.965818 189.02389,35.9919821 C189.356139,35.4980272 189.738126,35.0377961 190.066396,34.5974026 C191.132775,34.9862185 190.748799,35.5615074 190.478225,36.1110074 C189.328286,38.4240653 188.269864,40.7867171 186.994586,43.0283599 C186.170927,44.4804683 186.085378,45.6687373 186.950817,47.1565533 C188.242011,49.3843098 189.294464,51.7548966 190.432466,54.0739058 C190.687124,54.5857145 191.192461,55.1610034 190.014668,55.7402597" id="Fill-154"></path>
                <path d="M159.928713,181.322012 C160.046652,182.504993 159.329019,182.315011 158.855261,182.346348 C156.266583,182.524579 153.677904,182.747857 151.08123,182.796822 C149.340119,182.830117 148.188707,183.427484 147.309156,184.959092 C146.173736,186.939215 144.784446,188.778321 143.495104,190.672267 C143.125293,191.208917 142.721499,191.725982 142.36768,192.207792 C141.242254,191.769071 141.680031,191.197166 141.945895,190.668349 C143.159275,188.267132 144.300693,185.83066 145.624017,183.494076 C146.34165,182.224917 146.275684,181.206456 145.580039,179.968634 C144.302692,177.682973 143.175267,175.315051 141.999867,172.970632 C141.753993,172.473153 141.234258,171.930627 142.441642,171.064935 C142.655533,171.460568 142.835441,171.875787 143.085313,172.247917 C144.584548,174.484613 146.169738,176.674304 147.583017,178.959966 C148.348626,180.197788 149.298141,180.677639 150.733408,180.708977 C153.260118,180.765775 155.78283,180.981219 158.301543,181.143781 C158.839269,181.175118 159.370997,181.257379 159.928713,181.322012" id="Fill-100"></path>
                <path d="M133.891259,226.319847 C133.202112,227.208065 132.840658,226.710824 132.469274,226.147417 C131.049274,223.973989 129.527988,221.854697 128.221191,219.611094 C127.305639,218.033154 126.191486,217.289297 124.334563,217.323382 C122.169809,217.367492 119.993138,217.100826 117.826398,216.948445 C117.095545,216.89832 116.366678,216.780025 115.665615,216.69782 C115.43921,215.589051 116.10651,215.589051 116.716216,215.550956 C119.431096,215.382535 122.142005,215.153964 124.858871,215.087799 C126.21929,215.061734 127.10108,214.618627 127.825975,213.415623 C129.275764,211.01162 130.874505,208.705862 132.421609,206.372034 C132.759231,205.862763 133.073022,205.20512 133.927007,206.117398 C133.4027,207.210127 132.86449,208.369021 132.298476,209.519895 C131.424631,211.302346 130.590505,213.106852 129.645163,214.849203 C129.132771,215.793561 129.112911,216.575514 129.617358,217.531902 C130.830813,219.83365 131.944966,222.187528 133.084938,224.521356 C133.380854,225.124863 133.637049,225.74842 133.891259,226.319847" id="Fill-128"></path>
                <path d="M18.2708211,225.358808 C17.5816745,226.247026 17.2202201,225.749785 16.8488356,225.186378 C15.4288361,223.01295 13.9075499,220.893658 12.6007532,218.650056 C11.6852011,217.072115 10.5710476,216.328258 8.71412522,216.362343 C6.54937075,216.406453 4.37270019,216.139787 2.20595971,215.987406 C1.47510682,215.937281 0.746239951,215.818986 0.0451772643,215.736781 C-0.181228249,214.628012 0.486072212,214.628012 1.09577829,214.589917 C3.81065844,214.421496 6.52156656,214.192925 9.23843272,214.12676 C10.5988518,214.100695 11.4806417,213.657588 12.2055366,212.454584 C13.6553262,210.050581 15.2540669,207.744823 16.8011713,205.410995 C17.1387935,204.901724 17.4525836,204.244081 18.3065693,205.15636 C17.7822618,206.249088 17.2440522,207.407982 16.6780385,208.558856 C15.8041926,210.341307 14.970067,212.145813 14.0247247,213.888164 C13.5123333,214.832523 13.4924732,215.614475 13.9969205,216.570863 C15.2103746,218.872611 16.3245281,221.226489 17.4644997,223.560317 C17.7604157,224.163824 18.0166114,224.787381 18.2708211,225.358808" id="Fill-128"></path>
                <path d="M84.6837754,273.896104 C86.4845399,276.60172 88.3032523,279.239596 90.0043067,281.947205 C90.628492,282.931428 91.3603642,283.309975 92.4970594,283.34783 C95.2251279,283.437486 97.9472138,283.632736 100.6693,283.820018 C101.28152,283.861857 102.150992,283.612813 102.13105,284.943705 C101.437068,285.033361 100.719155,285.158879 99.9992478,285.208688 C97.4107734,285.384015 94.8242933,285.583251 92.2378131,285.678883 C91.2387178,285.718731 90.618521,286.09927 90.086069,286.924105 C88.3192059,289.667576 86.4885283,292.369207 84.7116942,295.038961 C83.6168773,294.933366 83.7285526,294.395431 84.0516133,293.749908 C85.2102448,291.434793 86.2472299,289.045961 87.5554265,286.816517 C88.5365739,285.14294 88.5026725,283.772201 87.5235192,282.114563 C86.2472299,279.950867 85.2281926,277.627782 84.1253988,275.364469 C83.8821062,274.862395 83.3815614,274.21488 84.6837754,273.896104" id="Fill-127"></path>
                <path d="M25.7766311,261.402597 C24.710696,261.01858 25.0752025,260.447528 25.3490749,259.890404 C26.4268319,257.695733 27.3725783,255.417493 28.6276627,253.330268 C29.7093603,251.523594 29.5970529,250.01737 28.5784051,248.262429 C27.3844002,246.211019 26.4307725,244.018338 25.3904513,241.879379 C25.1402226,241.358071 24.6515869,240.785029 25.6682644,240.25974 C25.9677508,240.621871 26.3342275,240.985991 26.6140108,241.405824 C28.1587301,243.723858 29.7172415,246.029953 31.1870892,248.395741 C31.760448,249.314996 32.4342923,249.655239 33.4884056,249.687075 C36.047832,249.770643 38.6052881,249.961657 41.160774,250.148692 C41.8424996,250.194456 42.5143736,250.369552 43.3576642,250.512812 C42.839474,251.621091 42.0966689,251.475841 41.4819337,251.515636 C38.8594575,251.696701 36.235011,251.897663 33.6066239,251.975263 C32.48355,252.007098 31.7486261,252.367239 31.1437424,253.346186 C29.7901428,255.546826 28.3340873,257.675836 26.9115269,259.828722 C26.5411096,260.379877 26.1332564,260.905165 25.7766311,261.402597" id="Fill-179"></path>
                <path d="M57.810219,250.435298 C58.8647973,250.304334 59.6385474,250.171385 60.4181891,250.117808 C62.8985101,249.945173 65.3807949,249.758648 67.8670073,249.675306 C68.8548153,249.641573 69.4557482,249.260585 69.9761639,248.433126 C71.3803044,246.19879 72.8531791,244.006124 74.3142708,241.80552 C74.6697246,241.261818 75.0742741,240.747881 75.4238364,240.25974 C76.5019807,240.749866 76.0660098,241.325316 75.80482,241.861081 C74.5833159,244.359331 73.4030523,246.877425 72.1029949,249.330036 C71.5315196,250.409502 71.5472302,251.284584 72.1147779,252.356114 C73.4128715,254.808725 74.5892074,257.328802 75.8146392,259.825068 C76.0777928,260.366786 76.4901977,260.944221 75.4140172,261.402597 C75.0624912,260.906519 74.6599054,260.38266 74.300524,259.836974 C72.8787089,257.689947 71.4352918,255.556811 70.0763194,253.376051 C69.4852057,252.425564 68.799828,251.989016 67.6490219,251.961235 C65.0312326,251.901706 62.4154072,251.689384 59.7995817,251.510796 C59.1809744,251.469126 58.4465008,251.621918 57.810219,250.435298" id="Fill-180"></path>
                <path d="M133.891259,295.514653 C133.202112,296.402871 132.840658,295.905629 132.469274,295.342222 C131.049274,293.168795 129.527988,291.049502 128.221191,288.8059 C127.305639,287.227959 126.191486,286.484102 124.334563,286.518187 C122.169809,286.562297 119.993138,286.295631 117.826398,286.143251 C117.095545,286.093125 116.366678,285.97483 115.665615,285.892625 C115.43921,284.783856 116.10651,284.783856 116.716216,284.745761 C119.431096,284.57734 122.142005,284.348769 124.858871,284.282604 C126.21929,284.256539 127.10108,283.813433 127.825975,282.610429 C129.275764,280.206425 130.874505,277.900667 132.421609,275.56684 C132.759231,275.057568 133.073022,274.399926 133.927007,275.312204 C133.4027,276.404932 132.86449,277.563826 132.298476,278.7147 C131.424631,280.497151 130.590505,282.301657 129.645163,284.044008 C129.132771,284.988367 129.112911,285.770319 129.617358,286.726708 C130.830813,289.028455 131.944966,291.382333 133.084938,293.716161 C133.380854,294.319668 133.637049,294.943226 133.891259,295.514653" id="Fill-128"></path>
                <path d="M142.360573,261.402597 C141.294638,261.01858 141.659144,260.447528 141.933017,259.890404 C143.010773,257.695733 143.95652,255.417493 145.211604,253.330268 C146.293302,251.523594 146.180994,250.01737 145.162347,248.262429 C143.968342,246.211019 143.014714,244.018338 141.974393,241.879379 C141.724164,241.358071 141.235528,240.785029 142.252206,240.25974 C142.551692,240.621871 142.918169,240.985991 143.197952,241.405824 C144.742672,243.723858 146.301183,246.029953 147.771031,248.395741 C148.34439,249.314996 149.018234,249.655239 150.072347,249.687075 C152.631774,249.770643 155.18923,249.961657 157.744716,250.148692 C158.426441,250.194456 159.098315,250.369552 159.941606,250.512812 C159.423416,251.621091 158.680611,251.475841 158.065875,251.515636 C155.443399,251.696701 152.818953,251.897663 150.190566,251.975263 C149.067492,252.007098 148.332568,252.367239 147.727684,253.346186 C146.374084,255.546826 144.918029,257.675836 143.495469,259.828722 C143.125051,260.379877 142.717198,260.905165 142.360573,261.402597" id="Fill-179"></path>
                <path d="M247.839185,295.038961 C247.487902,294.549994 247.084726,294.025249 246.719472,293.480627 C245.238498,291.2763 243.741557,289.085886 242.32046,286.845781 C241.789545,286.010959 241.138874,285.641252 240.16686,285.589573 C237.238842,285.434534 234.308828,285.235767 231.382806,285.02905 C230.913765,284.995259 230.195233,285.198002 230.285049,284.102795 C230.658286,284.015337 231.075434,283.858311 231.504557,283.828496 C234.089277,283.653581 236.675992,283.438913 239.266699,283.377295 C240.83749,283.341517 241.917284,282.854537 242.743595,281.43534 C243.975079,279.322446 245.420127,277.334775 246.785338,275.301387 C247.116661,274.806457 247.499878,274.345318 247.833197,273.896104 C248.954905,274.196242 248.559713,274.788568 248.292259,275.329215 C247.084726,277.766099 245.931083,280.234787 244.62575,282.616017 C243.935161,283.872225 243.8673,284.903826 244.585832,286.191837 C245.909128,288.565116 247.046804,291.039767 248.256333,293.476652 C248.519794,294.00736 248.978856,294.589747 247.839185,295.038961" id="Fill-99"></path>
                <path d="M214.848421,284.153181 C214.96636,285.336162 214.248727,285.14618 213.774969,285.177517 C211.186291,285.355748 208.597612,285.579026 206.000938,285.62799 C204.259827,285.661286 203.108415,286.258653 202.228864,287.790261 C201.093444,289.770384 199.704154,291.60949 198.414812,293.503435 C198.045001,294.040086 197.641207,294.557151 197.287388,295.038961 C196.161962,294.600239 196.599739,294.028334 196.865603,293.499518 C198.078983,291.098301 199.220401,288.661829 200.543725,286.325244 C201.261358,285.056085 201.195392,284.037624 200.499747,282.799803 C199.2224,280.514141 198.094975,278.14622 196.919575,275.801801 C196.673701,275.304322 196.153966,274.761796 197.36135,273.896104 C197.575241,274.291737 197.755149,274.706955 198.005021,275.079085 C199.504256,277.315782 201.089446,279.505473 202.502725,281.791135 C203.268334,283.028956 204.217849,283.508808 205.653116,283.540145 C208.179826,283.596944 210.702538,283.812388 213.221251,283.97495 C213.758977,284.006287 214.290705,284.088547 214.848421,284.153181" id="Fill-100"></path>
                <path d="M190.737974,260.91725 C190.048828,261.805468 189.687373,261.308226 189.315989,260.744819 C187.895989,258.571392 186.374703,256.4521 185.067906,254.208497 C184.152354,252.630557 183.038201,251.886699 181.181279,251.920784 C179.016524,251.964894 176.839853,251.698229 174.673113,251.545848 C173.94226,251.495723 173.213393,251.377427 172.512331,251.295222 C172.285925,250.186453 172.953225,250.186453 173.562932,250.148358 C176.277812,249.979938 178.98872,249.751367 181.705586,249.685202 C183.066005,249.659137 183.947795,249.21603 184.67269,248.013026 C186.12248,245.609023 187.72122,243.303265 189.268325,240.969437 C189.605947,240.460165 189.919737,239.802523 190.773723,240.714801 C190.249415,241.80753 189.711206,242.966424 189.145192,244.117298 C188.271346,245.899749 187.43722,247.704255 186.491878,249.446606 C185.979487,250.390964 185.959626,251.172917 186.464074,252.129305 C187.677528,254.431053 188.791681,256.784931 189.931653,259.118759 C190.227569,259.722266 190.483765,260.345823 190.737974,260.91725" id="Fill-128"></path>
                <path d="M188.99249,261.402597 C187.293747,258.731312 185.562592,256.089951 183.922952,253.38874 C183.43678,252.588751 182.901037,252.159829 182.10219,252.01619 L182.10219,249.574328 C182.912477,249.394779 183.49207,248.929948 184.004934,248.070109 C185.587377,245.406803 187.29756,242.829282 188.927667,240.25974 C189.736047,240.269715 190.001059,240.588913 189.673131,241.289153 C188.923853,242.879156 188.149791,244.459185 187.419579,246.061158 C186.696994,247.657147 185.488236,249.26311 185.472984,250.877053 C185.457731,252.407207 186.696994,253.959306 187.404327,255.49345 C188.145978,257.087444 188.902881,258.675452 189.665504,260.259471 C189.926703,260.802107 189.8676,261.169184 188.99249,261.402597" id="Fill-141"></path>
                <path d="M275.56139,251.303446 C274.863553,251.389133 274.149766,251.516668 273.42601,251.566486 C270.840027,251.745832 268.25205,251.941119 265.666067,252.040755 C264.667164,252.076625 264.04908,252.461221 263.518724,253.286211 C261.748213,256.028207 259.917887,258.73234 258.145382,261.402597 C257.046788,261.287019 257.166417,260.746989 257.487422,260.103338 C258.645831,257.785794 259.682617,255.398504 260.990562,253.16864 C261.973514,251.49674 261.92965,250.125743 260.956667,248.471777 C259.678629,246.301695 258.659788,243.982158 257.555212,241.71244 C257.311966,241.210272 256.817499,240.568613 258.101518,240.25974 C258.649818,241.076759 259.249958,241.955553 259.842122,242.842317 C261.088259,244.715483 262.370284,246.566728 263.562588,248.477756 C264.092944,249.326658 264.750904,249.64948 265.729869,249.691328 C268.523209,249.802921 271.316549,249.988244 274.103908,250.177554 C274.718004,250.217408 275.589303,249.972303 275.56139,251.303446" id="Fill-143"></path>
                <path d="M308.28542,260.91725 C307.596273,261.805468 307.234819,261.308226 306.863434,260.744819 C305.443435,258.571392 303.922148,256.4521 302.615352,254.208497 C301.6998,252.630557 300.585646,251.886699 298.728724,251.920784 C296.563969,251.964894 294.387299,251.698229 292.220558,251.545848 C291.489705,251.495723 290.760838,251.377427 290.059776,251.295222 C289.83337,250.186453 290.500671,250.186453 291.110377,250.148358 C293.825257,249.979938 296.536165,249.751367 299.253031,249.685202 C300.61345,249.659137 301.49524,249.21603 302.220135,248.013026 C303.669925,245.609023 305.268665,243.303265 306.81577,240.969437 C307.153392,240.460165 307.467182,239.802523 308.321168,240.714801 C307.79686,241.80753 307.258651,242.966424 306.692637,244.117298 C305.818791,245.899749 304.984666,247.704255 304.039323,249.446606 C303.526932,250.390964 303.507072,251.172917 304.011519,252.129305 C305.224973,254.431053 306.339127,256.784931 307.479098,259.118759 C307.775014,259.722266 308.03121,260.345823 308.28542,260.91725" id="Fill-128"></path>
                <path d="M306.539935,261.402597 C304.841192,258.731312 303.110037,256.089951 301.470398,253.38874 C300.984225,252.588751 300.448483,252.159829 299.649635,252.01619 L299.649635,249.574328 C300.459922,249.394779 301.039516,248.929948 301.55238,248.070109 C303.134823,245.406803 304.845005,242.829282 306.475112,240.25974 C307.283492,240.269715 307.548504,240.588913 307.220576,241.289153 C306.471299,242.879156 305.697236,244.459185 304.967025,246.061158 C304.244439,247.657147 303.035682,249.26311 303.020429,250.877053 C303.005177,252.407207 304.244439,253.959306 304.951772,255.49345 C305.693423,257.087444 306.450327,258.675452 307.21295,260.259471 C307.474148,260.802107 307.415045,261.169184 306.539935,261.402597" id="Fill-141"></path>
                <path d="M369.240645,157.61039 C368.889362,157.121423 368.486186,156.596677 368.120932,156.052055 C366.639958,153.847728 365.143016,151.657315 363.72192,149.417209 C363.191004,148.582388 362.540334,148.212681 361.56832,148.161001 C358.640302,148.005963 355.710288,147.807196 352.784266,147.600478 C352.315224,147.566688 351.596692,147.76943 351.686509,146.674223 C352.059746,146.586766 352.476894,146.42974 352.906017,146.399925 C355.490737,146.22501 358.077452,146.010341 360.668159,145.948723 C362.23895,145.912945 363.318743,145.425966 364.145055,144.006769 C365.376539,141.893874 366.821587,139.906203 368.186798,137.872816 C368.518121,137.377886 368.901338,136.916746 369.234657,136.467532 C370.356365,136.767671 369.961173,137.359997 369.693719,137.900643 C368.486186,140.337528 367.332543,142.806216 366.02721,145.187445 C365.336621,146.443654 365.268759,147.475255 365.987291,148.763266 C367.310588,151.136545 368.448264,153.611195 369.657792,156.04808 C369.921254,156.578788 370.380316,157.161176 369.240645,157.61039" id="Fill-99"></path>
                <path d="M395.999346,113.874874 C395.301509,113.960562 394.587722,114.088096 393.863966,114.137914 C391.277983,114.31726 388.690006,114.512548 386.104023,114.612184 C385.10512,114.648053 384.487036,115.03265 383.95668,115.85764 C382.186169,118.599635 380.355843,121.303769 378.583339,123.974026 C377.484744,123.858448 377.604373,123.318418 377.925378,122.674767 C379.083787,120.357222 380.120573,117.969933 381.428518,115.740069 C382.411471,114.068169 382.367607,112.697171 381.394623,111.043206 C380.116585,108.873124 379.097744,106.553587 377.993168,104.283868 C377.749922,103.781701 377.255455,103.140042 378.539475,102.831169 C379.087775,103.648188 379.687914,104.526981 380.280078,105.413746 C381.526215,107.286911 382.808241,109.138157 384.000544,111.049184 C384.5309,111.898087 385.18886,112.220909 386.167825,112.262756 C388.961165,112.374349 391.754506,112.559673 394.541864,112.748982 C395.15596,112.788837 396.027259,112.543731 395.999346,113.874874" id="Fill-143"></path>
                <path d="M369.226347,90.3376623 C367.107515,87.1795249 365.034441,84.0868514 363.017073,81.0755118 C359.22307,80.7541436 355.568332,80.4486454 351.915584,80.1233096 C351.843962,80.1193421 351.790245,79.9090641 351.678832,79.6908511 C352.034955,78.9707481 352.785002,79.1115947 353.403741,79.0659684 C355.848854,78.8854467 358.299935,78.6136723 360.743059,78.6414449 C362.477915,78.6612824 363.462725,77.9729196 364.304289,76.5466 C365.509935,74.4993651 366.906574,72.5632206 368.235569,70.5893847 C368.567818,70.0954298 368.949805,69.6351987 369.278075,69.1948052 C370.344454,69.5836211 369.960478,70.15891 369.689904,70.70841 C368.539965,73.0214679 367.481543,75.3841197 366.206265,77.6257625 C365.382606,79.0778709 365.297057,80.2661399 366.162495,81.7539559 C367.45369,83.9817124 368.506143,86.3522992 369.644145,88.6713084 C369.898803,89.1831171 370.40414,89.758406 369.226347,90.3376623" id="Fill-154"></path>
                <path d="M351.678832,214.876857 C352.73341,214.745892 353.507161,214.612943 354.286802,214.559367 C356.767123,214.386731 359.249408,214.200206 361.73562,214.116865 C362.723428,214.083132 363.324361,213.702143 363.844777,212.874685 C365.248918,210.640348 366.721792,208.447682 368.182884,206.247079 C368.538338,205.703377 368.942887,205.18944 369.29245,204.701299 C370.370594,205.191424 369.934623,205.766875 369.673433,206.302639 C368.451929,208.80089 367.271665,211.318983 365.971608,213.771594 C365.400133,214.851061 365.415843,215.726143 365.983391,216.797672 C367.281485,219.250283 368.457821,221.770361 369.683252,224.266627 C369.946406,224.808344 370.358811,225.385779 369.28263,225.844156 C368.931104,225.348078 368.528519,224.824219 368.169137,224.278533 C366.747322,222.131506 365.303905,219.998369 363.944933,217.817609 C363.353819,216.867123 362.668441,216.430574 361.517635,216.402794 C358.899846,216.343264 356.28402,216.130943 353.668195,215.952355 C353.049587,215.910684 352.315114,216.063476 351.678832,214.876857" id="Fill-180"></path>
                <path d="M378.552389,34.5974026 C380.353153,37.3030189 382.171865,39.9408951 383.87292,42.6485038 C384.497105,43.6327265 385.228977,44.0112737 386.365673,44.0491284 C389.093741,44.1387843 391.815827,44.334035 394.537913,44.5213162 C395.150133,44.5631557 396.019605,44.3141114 395.999663,45.6450037 C395.305681,45.7346596 394.587768,45.8601779 393.867861,45.9099867 C391.279387,46.0853139 388.692906,46.2845492 386.106426,46.3801822 C385.107331,46.4200293 384.487134,46.8005688 383.954682,47.6254032 C382.187819,50.3688742 380.357141,53.0705058 378.580307,55.7402597 C377.48549,55.634665 377.597166,55.0967295 377.920226,54.4512069 C379.078858,52.136092 380.115843,49.7472599 381.42404,47.5178161 C382.405187,45.8442391 382.371286,44.4734997 381.392132,42.8158615 C380.115843,40.6521654 379.096806,38.329081 377.994012,36.0657673 C377.750719,35.5636941 377.250175,34.9161792 378.552389,34.5974026" id="Fill-127"></path>
                <path d="M350.715328,10.1755581 C351.769907,10.0445934 352.543657,9.91164443 353.323299,9.85806798 C355.80362,9.68543273 358.285904,9.49890729 360.772117,9.41556613 C361.759925,9.38183281 362.360858,9.00084467 362.881273,8.17338607 C364.285414,5.93904941 365.758289,3.74638332 367.21938,1.54577998 C367.574834,1.00207817 367.979384,0.488141047 368.328946,0 C369.40709,0.49012536 368.971119,1.06557619 368.709929,1.60134075 C367.488425,4.09959107 366.308162,6.61768452 365.008104,9.07029564 C364.436629,10.149762 364.45234,11.0248441 365.019887,12.0963733 C366.317981,14.5489844 367.494317,17.0690621 368.719749,19.5653281 C368.982902,20.1070457 369.395307,20.6844808 368.319127,21.1428571 C367.967601,20.6467788 367.565015,20.1229202 367.205633,19.577234 C365.783818,17.4302071 364.340401,15.2970705 362.981429,13.1163103 C362.390315,12.1658242 361.704937,11.7292753 360.554131,11.7014949 C357.936342,11.6419655 355.320517,11.429644 352.704691,11.2510558 C352.086084,11.2093853 351.35161,11.3621774 350.715328,10.1755581" id="Fill-180"></path>
            </g>
            <g id="noun_50985_cc" transform="translate(105.000000, 116.000000)">
                <g id="Group">
                    <path d="M60.0794071,52.6544318 C60.5935897,53.1672273 61.1326122,53.4199091 61.6418269,53.3332045 C61.8902244,53.2910909 62.1112981,53.1697045 62.314984,52.9814318 C64.8014423,60.6956591 69.5681891,68.3801591 75.5769231,72.9680682 C79.0420673,75.6137955 82.9170673,77.2289773 87.0106571,77.2289773 C91.1961538,77.2289773 95.1481571,75.5394773 98.6704327,72.7921818 C104.572356,68.1844545 109.249679,60.5965682 111.70633,52.9789545 C111.910016,53.1672273 112.13109,53.2886136 112.379487,53.3307273 C112.816667,53.4075227 113.278686,53.2316364 113.728285,52.8526136 C114.853526,51.9038182 115.906731,49.6817045 116.391106,46.9839545 C117.017067,43.4687045 116.448237,40.3869773 115.121795,39.7676591 C115.02492,39.7230682 114.928045,39.6883864 114.821234,39.6710455 C114.411378,39.5992045 113.984135,39.7503182 113.564343,40.0773182 L113.541987,40.1070455 C113.541987,40.1045682 113.537019,40.1020909 113.537019,40.0996136 C113.532051,40.1020909 113.532051,40.1045682 113.527083,40.1095227 C113.522115,40.0822727 113.522115,40.0575 113.522115,40.0327273 C111.927404,34.0030455 109.922837,30.3119091 107.85617,28.1120909 C107.451282,27.8965682 107.033974,27.7008636 106.569471,27.5695682 C106.517308,28.4564318 107.535737,29.8065455 107.642548,31.1269318 C104.771074,29.7892045 102.023798,27.7182045 98.0171474,27.5695682 C97.0757212,27.5348864 96.0647436,27.5423182 95.0239583,27.5646136 C85.3463942,31.0129773 74.7050481,27.1112727 74.7050481,27.1112727 C62.5708333,25.9890682 60.6432692,38.5637045 60.4967147,40.003 C60.4942308,40.0376818 60.4917468,40.0698864 60.4917468,40.1070455 C60.4892628,40.1070455 60.4892628,40.1070455 60.4867788,40.1070455 C60.0570513,39.7602273 59.6149038,39.5992045 59.1951122,39.6735227 C59.0112981,39.70325 58.8374199,39.7800455 58.6784455,39.8964773 C58.3008814,40.1665 58.0052885,40.6743409 57.7842147,41.3258636 C57.664984,43.0178409 57.5854968,44.7296364 57.5606571,46.4959318 C57.5830128,46.6594318 57.6004006,46.8179773 57.6302083,46.9839545 C58.0847756,49.5107727 59.0386218,51.6139773 60.0794071,52.6544318 Z" id="Shape"></path>
                    <path d="M157.168029,210.865455 L17.8369391,210.865455 C15.8745994,210.865455 14.2873397,212.465773 14.2873397,214.432727 C14.2873397,216.397205 15.8745994,217.997523 17.8369391,217.997523 L157.168029,217.997523 C159.127885,217.997523 160.715144,216.399682 160.715144,214.432727 C160.715144,212.465773 159.122917,210.865455 157.168029,210.865455 Z" id="Shape" fill="#9085F2" fill-rule="nonzero"></path>
                    <path d="M82.5792468,111.132932 L91.1713141,111.132932 L100.389343,111.132932 L129.536298,111.132932 L150.411619,111.132932 L151.705769,111.132932 C151.700801,111.118068 151.700801,111.103205 151.695833,111.088341 C144.350721,85.8895227 130.783253,85.0249545 127.859615,84.3461818 C122.111699,83.0035 115.144151,83.5732727 111.433093,82.4188636 C110.998397,86.0505455 100.396795,98.0058636 93.4540865,105.502091 L90.4410256,93.9282727 C92.7014423,92.5955 93.1957532,89.6599318 93.1957532,87.2222955 L81.786859,87.2222955 C81.786859,89.6401136 82.2762019,92.5484318 84.4919071,93.8935909 L81.5310096,105.497136 C74.5833333,98.0033864 63.9891827,86.0505455 63.5520032,82.4188636 C59.8359776,83.5732727 52.8733974,83.0035 47.1229968,84.3461818 C44.2018429,85.0249545 30.631891,85.892 23.2867788,111.088341 C23.2842949,111.103205 23.2842949,111.118068 23.2793269,111.132932 L73.7313301,111.132932 L82.5792468,111.132932 Z" id="Shape" fill="url(#linearGradient-1)" fill-rule="nonzero"></path>
                    <path d="M25.0831731,208.142136 L149.239663,208.142136 C153.852404,208.142136 157.598237,204.411364 157.598237,199.806114 L174.315385,121.336023 C174.315385,116.73325 170.572035,113 165.956811,113 L155.096875,113 L151.375881,113 L150.079247,113 L129.203926,113 L100.049519,113 L90.8314904,113 L82.2419071,113 L82.2394231,113 L73.3939904,113 L22.9419872,113 L19.1911859,113 L8.36105769,113 C3.74334936,113 0,116.730773 0,121.336023 L16.7196314,199.806114 C16.7196314,204.411364 20.4629808,208.142136 25.0831731,208.142136 Z" id="Shape" fill="url(#linearGradient-2)" fill-rule="nonzero"></path>
                    <path d="M57.275,55.5974318 C59.9825321,62.8583182 64.2649038,69.9111136 69.5657051,75.0712727 C72.5613782,77.9919773 75.8824519,80.3032727 79.4270833,81.7054091 C81.8613782,82.6665909 84.402484,83.2016818 87.015625,83.2016818 C89.6237981,83.2016818 92.1673878,82.6665909 94.6016827,81.7054091 C98.2680288,80.2562045 101.698397,77.8284773 104.778526,74.7640909 C109.947676,69.6187955 114.125721,62.675 116.773638,55.5379773 C118.815465,54.9384773 120.956651,51.1284318 121.823558,46.2605909 C122.77492,40.9740909 121.875721,36.3663636 119.833894,35.5959318 C119.905929,34.30775 119.955609,33.0047045 119.955609,31.6694545 C119.903446,12.5176591 108.646074,1.38231818 90.8955929,0.195704545 C75.4104968,-0.842272727 63.7507212,5.29145455 58.4375,15.4854318 C56.6515224,18.9139773 55.628125,23.2070909 55.238141,27.8668409 C54.6419872,30.2945682 54.2942308,32.8164318 54.2942308,35.4225227 L54.3488782,35.4225227 C54.3488782,35.4448182 54.3439103,35.4646364 54.3439103,35.4844545 C54.3066506,35.4894091 54.269391,35.4894091 54.2321314,35.4968409 C51.9667468,35.8907273 50.9358974,40.7065455 51.9319712,46.2581136 C52.8411058,51.3588182 55.1487179,55.3001591 57.275,55.5974318 Z M57.7866987,41.3283409 C58.0077724,40.6768182 58.3033654,40.1689773 58.6809295,39.8989545 C58.8399038,39.785 59.0137821,39.7057273 59.1975962,39.676 C59.6173878,39.6016818 60.0595353,39.7651818 60.4892628,40.1095227 C60.4917468,40.1095227 60.4917468,40.1095227 60.4942308,40.1095227 C60.4942308,40.0748409 60.4967147,40.0401591 60.4991987,40.0054773 C60.6457532,38.5661818 62.5708333,25.9940227 74.7075321,27.11375 C74.7075321,27.11375 85.3488782,31.0154545 95.0289263,27.5670909 C96.0672276,27.5447955 97.0806891,27.5373636 98.0171474,27.5720455 C102.028766,27.7206818 104.773558,29.7916818 107.647516,31.1294091 C107.540705,29.8090227 106.52476,28.4589091 106.574439,27.5720455 C107.036458,27.7033409 107.453766,27.8965682 107.85617,28.1145682 C109.922837,30.3143864 111.934856,34.0030455 113.522115,40.0352045 C113.527083,40.0599773 113.527083,40.08475 113.527083,40.112 C113.532051,40.1095227 113.537019,40.1045682 113.541987,40.1020909 C113.541987,40.1045682 113.546955,40.1045682 113.546955,40.1095227 L113.566827,40.0797955 C113.986619,39.7527955 114.413862,39.6016818 114.823718,39.6735227 C114.930529,39.6908636 115.027404,39.7255455 115.124279,39.7701364 C116.453205,40.3894545 117.019551,43.4711818 116.39359,46.9864318 C115.911699,49.6841818 114.853526,51.9038182 113.728285,52.8550909 C113.28117,53.2341136 112.821635,53.41 112.379487,53.3332045 C112.133574,53.2910909 111.9125,53.1697045 111.708814,52.9814318 C109.252163,60.5990455 104.57484,68.1869318 98.6729167,72.7946591 C95.150641,75.5419545 91.1961538,77.2314545 87.013141,77.2314545 C82.9195513,77.2314545 79.0445513,75.6162727 75.5794071,72.9705455 C69.5706731,68.3801591 64.8039263,60.6981364 62.3174679,52.9839091 C62.1137821,53.1721818 61.8927083,53.2935682 61.6443109,53.3356818 C61.1326122,53.4223864 60.5960737,53.1697045 60.081891,52.6569091 C59.0411058,51.6164545 58.0872596,49.51325 57.6376603,46.9889091 C57.6053686,46.8229318 57.5904647,46.6643864 57.568109,46.5008864 C57.5879808,44.7321136 57.6674679,43.0178409 57.7866987,41.3283409 Z" id="Shape" fill="url(#linearGradient-1)" fill-rule="nonzero"></path>
                </g>
            </g>
            <mask id="mask-5" fill="white">
                <use xlink:href="#path-4"></use>
            </mask>
            <g id="Mask">
                <use fill="url(#linearGradient-3)" fill-rule="evenodd" xlink:href="#path-4"></use>
                <use fill="black" fill-opacity="1" filter="url(#filter-6)" xlink:href="#path-4"></use>
            </g>
            <g id="Group" mask="url(#mask-5)" fill="#FFFFFF" fill-rule="nonzero">
                <g transform="translate(39.000000, 205.000000)" id="Shape">
                    <path d="M6.65454545,19.0909091 C6.36363636,19.0909091 6.07272727,18.9818182 5.85454545,18.7636364 L0.4,12.9454545 C-3.53883589e-15,12.5090909 -3.53883589e-15,11.8909091 0.4,11.4545455 L5.85454545,5.63636364 C6.25454545,5.2 6.94545455,5.16363636 7.38181818,5.56363636 C7.81818182,5.96363636 7.85454545,6.65454545 7.45454545,7.09090909 C7.45454545,7.09090909 7.45454545,7.09090909 7.41818182,7.12727273 L2.65454545,12.2181818 L7.41818182,17.3090909 C7.81818182,17.7454545 7.81818182,18.4363636 7.38181818,18.8363636 C7.16363636,19.0181818 6.90909091,19.1272727 6.65454545,19.1272727 L6.65454545,19.0909091 Z"></path>
                    <path d="M17.3454545,19.0909091 C16.7272727,19.0909091 16.2545455,18.6181818 16.2545455,18 C16.2545455,17.7090909 16.3636364,17.4545455 16.5454545,17.2727273 L21.3090909,12.1818182 L16.5454545,7.09090909 C16.1454545,6.65454545 16.1818182,5.96363636 16.6181818,5.56363636 C17.0545455,5.16363636 17.7454545,5.2 18.1454545,5.6 L23.6,11.4181818 C24,11.8545455 24,12.4727273 23.6,12.9090909 L18.1454545,18.7272727 C17.9272727,18.9454545 17.6363636,19.0909091 17.3454545,19.0909091 Z"></path>
                    <path d="M9.81818182,23.7454545 C9.74545455,23.7454545 9.67272727,23.7454545 9.6,23.7090909 C9.01818182,23.6 8.61818182,23.0181818 8.76363636,22.4363636 C8.76363636,22.4363636 8.76363636,22.4363636 8.76363636,22.4363636 L13.1272727,1.09090909 C13.2363636,0.509090909 13.8181818,0.109090909 14.4,0.254545455 C14.9818182,0.4 15.3818182,0.945454545 15.2363636,1.52727273 L10.8727273,22.8727273 C10.8,23.3818182 10.3272727,23.7454545 9.81818182,23.7454545 Z"></path>
                </g>
            </g>
            <mask id="mask-8" fill="white">
                <use xlink:href="#path-7"></use>
            </mask>
            <g id="Mask">
                <use fill="url(#linearGradient-3)" fill-rule="evenodd" xlink:href="#path-7"></use>
                <use fill="black" fill-opacity="1" filter="url(#filter-9)" xlink:href="#path-7"></use>
            </g>
            <g id="noun_370133_cc" transform="translate(211.000000, 32.000000)" fill="#FFFFFF" fill-rule="nonzero">
                <path d="M18.9142857,17.7377778 C19.6571429,17.7377778 20.2571429,17.1311111 20.2571429,16.38 L20.2571429,6.96222222 C20.2571429,6.21111111 19.6571429,5.60444444 18.9142857,5.60444444 L5.08571429,5.60444444 C4.34285714,5.60444444 3.74285714,6.21111111 3.74285714,6.96222222 L3.74285714,16.4088889 C3.74285714,17.16 4.34285714,17.7666667 5.08571429,17.7666667 L10.5142857,17.7666667 L10.5142857,19.4422222 L9.45714286,19.4422222 C9.28571429,19.4422222 9.14285714,19.5866667 9.14285714,19.76 L9.14285714,20.6844444 C9.14285714,20.8577778 9.28571429,21.0022222 9.45714286,21.0022222 L14.5428571,21.0022222 C14.7142857,21.0022222 14.8571429,20.8577778 14.8571429,20.6844444 L14.8571429,19.76 C14.8571429,19.5866667 14.7142857,19.4422222 14.5428571,19.4422222 L13.4857143,19.4422222 L13.4857143,17.7666667 L18.9142857,17.7666667 L18.9142857,17.7377778 Z M5.57142857,15.8888889 L5.57142857,7.45333333 L18.4285714,7.45333333 L18.4285714,15.8888889 L5.57142857,15.8888889 Z M0.314285714,23.3711111 L3.22857143,21.3777778 C3.4,21.2622222 3.6,21.3777778 3.6,21.58 L3.6,22.6488889 L21.9714286,22.6488889 L21.9714286,6.06666667 C21.9714286,5.92222222 22.0285714,5.80666667 22.1428571,5.74888889 L23.5714286,4.79555556 C23.6571429,4.73777778 23.7714286,4.79555556 23.7714286,4.91111111 L23.7714286,23.6311111 C23.7714286,24.1222222 23.3714286,24.5555556 22.8571429,24.5555556 L3.6,24.5555556 L3.6,25.6244444 C3.6,25.8266667 3.37142857,25.9422222 3.22857143,25.8266667 L0.314285714,23.7755556 C0.171428571,23.6888889 0.171428571,23.4866667 0.314285714,23.3711111 Z M20.4,4.39111111 L20.4,3.32222222 L2.02857143,3.32222222 L2.02857143,19.9333333 C2.02857143,20.0777778 1.97142857,20.1933333 1.85714286,20.2511111 L0.428571429,21.2044444 C0.342857143,21.2622222 0.228571429,21.2044444 0.228571429,21.0888889 L0.228571429,2.42666667 C0.228571429,1.93555556 0.628571429,1.50222222 1.14285714,1.50222222 L20.4,1.50222222 L20.4,0.433333333 C20.4,0.231111111 20.6285714,0.115555556 20.7714286,0.231111111 L23.6857143,2.22444444 C23.8285714,2.31111111 23.8285714,2.54222222 23.6857143,2.62888889 L20.7714286,4.62222222 C20.6,4.70888889 20.4,4.59333333 20.4,4.39111111 Z" id="Shape"></path>
            </g>
            <mask id="mask-11" fill="white">
                <use xlink:href="#path-10"></use>
            </mask>
            <g id="Mask">
                <use fill="url(#linearGradient-3)" fill-rule="evenodd" xlink:href="#path-10"></use>
                <use fill="black" fill-opacity="1" filter="url(#filter-12)" xlink:href="#path-10"></use>
            </g>
            <g id="Group" mask="url(#mask-11)" fill="#FFFFFF" fill-rule="nonzero">
                <g transform="translate(333.000000, 238.000000)" id="Shape">
                    <path d="M19.9998611,5.41306301 C19.9998611,3.71041527 18.6574167,2.37289699 16.8488056,1.49035914 C15.0403889,0.60782129 12.6404722,0.101246237 10,0.101246237 C7.35952778,0.101246237 4.95961111,0.607824086 3.15105556,1.49035914 C1.34244444,2.37289419 0,3.71040968 0,5.41306301 C0.00361111111,9.26131462 0,16.6123226 0,20.5098624 C0,22.2125269 1.34244444,23.5412946 3.15105556,24.4238409 C4.95961111,25.3063871 7.35952778,25.8216903 10,25.8216903 C12.6404722,25.8216903 15.0403889,25.3063871 16.8489444,24.4238409 C18.6575556,23.5412946 20,22.2125269 20,20.5098624 L19.9998611,5.41306301 Z M10,1.77866559 C12.4221389,1.77866559 14.6106667,2.26537441 16.1197778,3.00178387 C17.6289167,3.73819333 18.3333333,4.64528581 18.3333333,5.41306301 C18.3333333,6.18087376 17.6289444,7.0792157 16.1197778,7.81563075 C14.6106667,8.55204581 12.4221389,9.04747161 10,9.04747161 C7.57788889,9.04747161 5.38933333,8.55204581 3.88022222,7.81563075 C2.37108333,7.0792157 1.66666667,6.18084581 1.66666667,5.41306301 C1.66666667,4.6452914 2.37105556,3.73819613 3.88022222,3.00178387 C5.38933333,2.26537161 7.57788889,1.77866559 10,1.77866559 Z M1.66666667,8.41843935 C2.102,8.76203075 2.60788889,9.06200925 3.15105556,9.32704151 C4.95961111,10.2095877 7.35952778,10.724891 10,10.724891 C12.6404722,10.724891 15.0403889,10.2095877 16.8489444,9.32704151 C17.3921111,9.06200925 17.898,8.76203075 18.3333333,8.41843935 L18.3333333,10.4453211 C18.3333333,11.2131318 17.6289444,12.1114738 16.1197778,12.847886 C14.6106667,13.5843011 12.4221389,14.0797548 10,14.0797548 C7.57788889,14.0797548 5.38933333,13.5843011 3.88022222,12.847886 C2.37105556,12.1114738 1.66666667,11.2131039 1.66666667,10.4453211 L1.66666667,8.41843935 Z M1.66666667,13.4507226 C2.102,13.794286 2.60783333,14.0942925 3.15105556,14.3593247 C4.95961111,15.241843 7.35952778,15.7571742 10,15.7571742 C12.6404722,15.7571742 15.0403889,15.241871 16.8489444,14.3593247 C17.3921667,14.0942925 17.898,13.794286 18.3333333,13.4507226 L18.3333333,15.4776043 C18.3333333,16.2453871 17.6289444,17.143757 16.1197778,17.8801441 C14.6106667,18.6165591 12.4221389,19.1120129 10,19.1120129 C7.57788889,19.1120129 5.38933333,18.6165591 3.88022222,17.8801441 C2.37105556,17.143729 1.66666667,16.2453871 1.66666667,15.4776043 L1.66666667,13.4507226 Z M1.66666667,18.4829806 C2.102,18.8265441 2.60786111,19.1265505 3.15105556,19.3915828 C4.95961111,20.2741011 7.35952778,20.7894323 10,20.7894323 C12.6404722,20.7894323 15.0403889,20.274129 16.8489444,19.3915828 C17.3921389,19.1265505 17.898,18.8265441 18.3333333,18.4829806 L18.3333333,20.5098624 C18.3333333,21.2776452 17.6289444,22.1760151 16.1197778,22.9124022 C14.6106667,23.6488172 12.4221389,24.144271 10,24.144271 C7.57788889,24.144271 5.38933333,23.6488172 3.88022222,22.9124022 C2.37105556,22.1760151 1.66666667,21.2776452 1.66666667,20.5098624 L1.66666667,18.4829806 Z"></path>
                </g>
            </g>
            <mask id="mask-14" fill="white">
                <use xlink:href="#path-13"></use>
            </mask>
            <g id="Mask">
                <use fill="#95F1C7" fill-rule="evenodd" xlink:href="#path-13"></use>
                <use fill="black" fill-opacity="1" filter="url(#filter-15)" xlink:href="#path-13"></use>
            </g>
            <path d="M354.997193,104.703996 C354.933335,106.350968 353.605588,107.863827 352.069617,108.240657 L349.446247,115.198605 C350.300786,115.935212 350.769916,116.914562 350.733853,118.012686 C350.670023,119.95602 349.003766,121.526353 347.016377,121.526353 C345.029127,121.526353 343.447931,119.95602 343.48947,118.012686 C343.499973,117.52514 343.638136,116.914562 343.899127,116.42573 L339.084251,111.614669 C338.576209,111.8629 337.944054,111.987671 337.439644,111.987671 L337.313548,111.987671 L335.118048,118.378433 C336.361518,118.864267 337.220666,120.077365 337.204073,121.526353 C337.181949,123.447121 335.558405,125 333.58205,125 C331.605778,125 330,123.447121 330,121.526353 C330,119.95602 331.248107,118.500233 332.747427,118.134459 L335.050726,111.116923 C334.297337,110.493978 333.797759,109.494632 333.804407,108.366686 C333.816307,106.350968 335.484072,104.703996 337.524732,104.703996 C339.56528,104.703996 341.194607,106.350968 341.159522,108.366686 C341.150722,108.868287 341.013257,109.494632 340.751652,109.994947 L345.691563,114.82986 C346.074403,114.583744 346.70558,114.460686 347.208035,114.460686 L349.667459,107.989428 C348.413039,107.486141 347.558611,106.224939 347.600177,104.703996 C347.655766,102.666139 349.368813,101 351.421177,101 C353.473458,101 355.076303,102.666139 354.997193,104.703996 Z M333.719068,122.728369 C334.338987,122.728369 334.962649,122.247648 334.96832,121.526353 C334.974018,120.802488 334.480111,120.319224 333.73337,120.319224 C332.986741,120.319224 332.487051,120.802488 332.484202,121.526353 C332.481269,122.247648 333.099344,122.728369 333.719068,122.728369 Z M351.212955,103.432139 C350.574012,103.432139 349.919371,103.940967 349.89585,104.703996 C349.872217,105.465311 350.36579,105.972024 351.129459,105.972024 C351.89324,105.972024 352.420026,105.465311 352.44648,104.703996 C352.473129,103.940967 351.851869,103.432139 351.212955,103.432139 Z M337.467355,109.619804 C338.100068,109.619804 338.739792,109.119087 338.7501,108.366686 C338.76038,107.612197 338.259014,107.108482 337.496574,107.108482 C336.734218,107.108482 336.221119,107.612197 336.213745,108.366686 C336.206482,109.119087 336.834474,109.619804 337.467355,109.619804 Z M347.078727,119.228756 C347.702026,119.228756 348.342979,118.621578 348.360662,118.012686 C348.381976,117.281594 347.770493,116.792361 347.144708,116.792361 C346.393888,116.792361 345.877969,117.403367 345.862688,118.012686 C345.844308,118.742922 346.455427,119.228756 347.078727,119.228756 Z" id="Combined-shape-97" fill="#FFFFFF" mask="url(#mask-14)"></path>
            <mask id="mask-17" fill="white">
                <use xlink:href="#path-16"></use>
            </mask>
            <g id="Mask">
                <use fill="url(#linearGradient-3)" fill-rule="evenodd" xlink:href="#path-16"></use>
                <use fill="black" fill-opacity="1" filter="url(#filter-18)" xlink:href="#path-16"></use>
            </g>
            <g id="Group" transform="translate(39.000000, 66.000000)" fill="#FFFFFF" fill-rule="nonzero">
                <path d="M3.8525,11.7288889 C3.3761544,11.7288889 2.99,12.1169088 2.99,12.5955556 L2.99,13.4333333 C2.99,13.9119801 3.3761544,14.3 3.8525,14.3 C4.3288456,14.3 4.715,13.9119801 4.715,13.4333333 L4.715,12.5955556 C4.715,12.1169088 4.3288456,11.7288889 3.8525,11.7288889 Z" id="Shape"></path>
                <path d="M6.555,11.7288889 C6.0786544,11.7288889 5.6925,12.1169088 5.6925,12.5955556 L5.6925,13.4333333 C5.6925,13.9119801 6.0786544,14.3 6.555,14.3 C7.0313456,14.3 7.4175,13.9119801 7.4175,13.4333333 L7.4175,12.5955556 C7.4175,12.1169088 7.0313456,11.7288889 6.555,11.7288889 Z" id="Shape"></path>
                <path d="M9.28625,11.7288889 C8.8099044,11.7288889 8.42375,12.1169088 8.42375,12.5955556 L8.42375,13.4333333 C8.42375,13.9119801 8.8099044,14.3 9.28625,14.3 C9.7625956,14.3 10.14875,13.9119801 10.14875,13.4333333 L10.14875,12.5955556 C10.14875,12.1169088 9.7625956,11.7288889 9.28625,11.7288889 Z" id="Shape"></path>
                <path d="M18.63,12.1333333 L14.05875,12.1333333 C13.5824044,12.1333334 13.19625,12.5213532 13.19625,13 C13.19625,13.4786468 13.5824044,13.8666666 14.05875,13.8666667 L18.63,13.8666667 C19.1063456,13.8666667 19.4925,13.4786468 19.4925,13 C19.4925,12.5213532 19.1063456,12.1333333 18.63,12.1333333 Z" id="Shape"></path>
                <path d="M19.75125,-1.26318709e-15 L2.67375,-1.26318709e-15 C1.24471321,-1.77635684e-15 0.08625,1.16405965 0.08625,2.6 L0.08625,5.22888889 C0.0863999599,6.40880515 0.877247895,7.44068807 2.0125,7.74222222 L2.0125,9.18666667 C0.877247895,9.48820082 0.0863999599,10.5200837 0.08625,11.7 L0.08625,14.3288889 C0.0993470445,15.4980429 0.887512035,16.5146047 2.0125,16.8133333 L2.0125,18.2577778 C0.877247895,18.5593119 0.0863999599,19.5911948 0.08625,20.7711111 L0.08625,23.4 C0.08625,24.8359403 1.24471321,26 2.67375,26 L19.75125,26 C21.1802868,26 22.33875,24.8359403 22.33875,23.4 L22.33875,20.7711111 C22.3386,19.5911948 21.5477521,18.5593119 20.4125,18.2577778 L20.4125,16.8133333 C21.5477521,16.5117992 22.3386,15.4799163 22.33875,14.3 L22.33875,11.6711111 C22.325653,10.5019571 21.537488,9.48539533 20.4125,9.18666667 L20.4125,7.74222222 C21.5477521,7.44068807 22.3386,6.40880515 22.33875,5.22888889 L22.33875,2.6 C22.33875,1.16405965 21.1802868,-1.77635684e-15 19.75125,-1.26318709e-15 Z M3.7375,9.07111111 L3.7375,7.82888889 L18.6875,7.82888889 L18.6875,9.07111111 L3.7375,9.07111111 Z M3.7375,18.1422222 L3.7375,16.9288889 L18.6875,16.9288889 L18.6875,18.1711111 L3.7375,18.1422222 Z M20.61375,23.4 C20.61375,23.8786468 20.2275956,24.2666667 19.75125,24.2666667 L2.67375,24.2666667 C2.1974044,24.2666667 1.81125,23.8786468 1.81125,23.4 L1.81125,20.7711111 C1.81125,20.2924643 2.1974044,19.9044444 2.67375,19.9044444 L19.75125,19.9044444 C20.2275956,19.9044444 20.61375,20.2924643 20.61375,20.7711111 L20.61375,23.4 Z M20.61375,14.3288889 C20.61375,14.8075357 20.2275956,15.1955556 19.75125,15.1955556 L2.67375,15.1955556 C2.1974044,15.1955556 1.81125,14.8075357 1.81125,14.3288889 L1.81125,11.6711111 C1.81125,11.1924643 2.1974044,10.8044444 2.67375,10.8044444 L19.75125,10.8044444 C20.2275956,10.8044444 20.61375,11.1924643 20.61375,11.6711111 L20.61375,14.3288889 Z M20.61375,5.25777778 C20.61375,5.73642456 20.2275956,6.12444444 19.75125,6.12444444 L2.67375,6.12444444 C2.1974044,6.12444444 1.81125,5.73642456 1.81125,5.25777778 L1.81125,2.6 C1.81125,2.12135322 2.1974044,1.73333333 2.67375,1.73333333 L19.75125,1.73333333 C20.2275956,1.73333333 20.61375,2.12135322 20.61375,2.6 L20.61375,5.25777778 Z" id="Shape"></path>
                <path d="M3.8525,2.62888889 C3.62375078,2.62888889 3.40437053,2.72019815 3.2426204,2.88272968 C3.08087027,3.04526121 2.99,3.26570126 2.99,3.49555556 L2.99,4.33333333 C2.99,4.81198012 3.3761544,5.2 3.8525,5.2 C4.3288456,5.2 4.715,4.81198012 4.715,4.33333333 L4.715,3.49555556 C4.715,3.26570126 4.62412973,3.04526121 4.4623796,2.88272968 C4.30062947,2.72019815 4.08124922,2.62888889 3.8525,2.62888889 Z" id="Shape"></path>
                <path d="M6.555,2.62888889 C6.32625078,2.62888889 6.10687053,2.72019815 5.9451204,2.88272968 C5.78337027,3.04526121 5.6925,3.26570126 5.6925,3.49555556 L5.6925,4.33333333 C5.6925,4.81198012 6.0786544,5.2 6.555,5.2 C7.0313456,5.2 7.4175,4.81198012 7.4175,4.33333333 L7.4175,3.49555556 C7.4175,3.26570126 7.32662973,3.04526121 7.1648796,2.88272968 C7.00312947,2.72019815 6.78374922,2.62888889 6.555,2.62888889 Z" id="Shape"></path>
                <path d="M9.28625,2.62888889 C9.05750078,2.62888889 8.83812053,2.72019815 8.6763704,2.88272968 C8.51462027,3.04526121 8.42375,3.26570126 8.42375,3.49555556 L8.42375,4.33333333 C8.42375,4.81198012 8.8099044,5.2 9.28625,5.2 C9.7625956,5.2 10.14875,4.81198012 10.14875,4.33333333 L10.14875,3.49555556 C10.14875,3.26570126 10.0578797,3.04526121 9.8961296,2.88272968 C9.73437947,2.72019815 9.51499922,2.62888889 9.28625,2.62888889 Z" id="Shape"></path>
                <path d="M18.63,3.06222222 L14.05875,3.06222222 C13.5824044,3.06222222 13.19625,3.45024211 13.19625,3.92888889 C13.19625,4.40753567 13.5824044,4.79555556 14.05875,4.79555556 L18.63,4.79555556 C19.1063456,4.79555556 19.4925,4.40753567 19.4925,3.92888889 C19.4925,3.45024211 19.1063456,3.06222222 18.63,3.06222222 Z" id="Shape"></path>
                <path d="M3.8525,20.8 C3.3761544,20.8 2.99,21.1880199 2.99,21.6666667 L2.99,22.5044444 C2.99,22.9830912 3.3761544,23.3711111 3.8525,23.3711111 C4.3288456,23.3711111 4.715,22.9830912 4.715,22.5044444 L4.715,21.6666667 C4.715,21.1880199 4.3288456,20.8 3.8525,20.8 Z" id="Shape"></path>
                <path d="M6.555,20.8 C6.0786544,20.8 5.6925,21.1880199 5.6925,21.6666667 L5.6925,22.5044444 C5.6925,22.9830912 6.0786544,23.3711111 6.555,23.3711111 C7.0313456,23.3711111 7.4175,22.9830912 7.4175,22.5044444 L7.4175,21.6666667 C7.4175,21.1880199 7.0313456,20.8 6.555,20.8 Z" id="Shape"></path>
                <path d="M9.28625,20.8 C8.8099044,20.8 8.42375,21.1880199 8.42375,21.6666667 L8.42375,22.5044444 C8.42375,22.9830912 8.8099044,23.3711111 9.28625,23.3711111 C9.7625956,23.3711111 10.14875,22.9830912 10.14875,22.5044444 L10.14875,21.6666667 C10.14875,21.1880199 9.7625956,20.8 9.28625,20.8 Z" id="Shape"></path>
                <path d="M18.63,21.2044444 L14.05875,21.2044444 C13.5824044,21.2044444 13.19625,21.5924643 13.19625,22.0711111 C13.19625,22.5497579 13.5824044,22.9377778 14.05875,22.9377778 L18.63,22.9377778 C19.1063456,22.9377778 19.4925,22.5497579 19.4925,22.0711111 C19.4925,21.5924643 19.1063456,21.2044444 18.63,21.2044444 Z" id="Shape"></path>
            </g>
            <g id="logo" transform="translate(174.000000, 262.000000)" fill="#FFFFFF" fill-rule="nonzero">
                <path d="M27.7089782,0 L5.98424596,0 C5.28020371,0 4.48500535,0.0813441685 3.81121137,0.325376674 C1.79627586,0.976130022 0.561674985,2.68435756 0.834482769,4.47392927 C1.80659222,10.9001186 2.76694004,17.3263079 3.71552624,23.7524972 C3.83476181,24.5659389 4.12334728,25.4607247 4.60874864,26.1114781 C5.38689016,27.2502965 6.49172975,28.0637381 7.66837659,28.3077706 L6.05679115,13.8285086 C5.96491629,13.015067 5.95377924,12.1202811 6.51513469,11.4695278 C7.07602084,10.7374302 7.94379952,10.2493652 9.03079353,10.0866769 L8.71659171,6.26350098 C8.02188234,5.9381243 7.4994667,5.45005929 7.24611745,4.79930594 C6.97470074,3.98586426 7.27959521,3.0910784 8.12569456,2.68435756 C8.97180825,2.19629255 10.1612027,2.27763672 11.0775565,2.76570173 C11.8884963,3.25376674 12.3272553,4.22989676 12.0784738,5.04333845 C11.9163763,5.61274763 11.4612847,6.01946847 10.904528,6.26350098 L11.1429419,10.0866769 L25.8361478,10.0866769 C26.9381382,10.0866769 27.9173886,10.4120536 28.5753191,11.1441511 C29.2321318,11.7949044 29.4936242,12.6896903 29.3938154,13.5844761 L28.8793563,18.2210938 C28.7268079,19.6039446 27.6745992,20.9054513 26.3098805,21.3935163 C25.7144808,21.6375488 25.1403303,21.6375488 24.5661798,21.6375488 L14.8056208,21.6375488 L15.0129466,28.470459 L26.9188636,28.470459 C28.6742232,28.470459 30.5422225,27.0876081 31.3402241,25.2980364 C31.7753066,24.4845947 31.8263177,23.5898089 31.9571932,22.695023 L34.6348845,4.71796177 C35.0418162,2.68435756 33.6307661,0.813441685 31.3010155,0.244032506 C30.6166377,0.0813441685 30.0136,0.0813441685 29.3100561,0.0813441685 L28.5060058,0.0813441685 C28.2118655,0 27.9101331,0 27.7089782,0 Z" id="Shape"></path>
                <path d="M14.0193197,13.7925508 C12.9914547,14.1056112 12.2798558,15.0447924 12.2007893,16.0622386 C12.1217227,17.0014198 12.6751885,17.9406009 13.4658539,18.4101915 C14.1774528,18.801517 15.0471847,18.801517 15.7587836,18.4884566 C16.9447817,17.9406009 17.4982475,16.5318292 17.0238483,15.3578527 C16.7075821,14.4186716 15.6797171,13.7142857 14.651852,13.7142857 C14.4146524,13.7142857 14.2565193,13.7142857 14.0193197,13.7925508 Z" id="Shape"></path>
                <path d="M21.6283216,13.8686656 C20.3737917,14.2546155 19.6681186,15.5668449 19.9817511,16.8018843 C20.2169755,18.0369238 21.6283216,18.9632033 22.9612597,18.6544435 C24.2941977,18.4228736 25.1566871,16.8790743 24.8430546,15.6440348 C24.6078302,14.5633753 23.5101165,13.7142857 22.4124029,13.7142857 C22.0987704,13.7914757 21.863546,13.7914757 21.6283216,13.8686656 Z" id="Shape"></path>
            </g>
        </g>
    </g>
</svg>