<?xml version="1.0" encoding="UTF-8"?>
<svg width="1600px" height="390px" viewBox="0 0 1600 390" version="1.1" xmlns="http://www.w3.org/2000/svg" xmlns:xlink="http://www.w3.org/1999/xlink">
    <!-- Generator: Sketch 48.1 (47250) - http://www.bohemiancoding.com/sketch -->
    <title>Group 6</title>
    <desc>Created with Sketch.</desc>
    <defs>
        <linearGradient x1="104.412944%" y1="25.7791775%" x2="0%" y2="100%" id="linearGradient-1">
            <stop stop-color="#F8A089" offset="0%"></stop>
            <stop stop-color="#7283FF" offset="100%"></stop>
        </linearGradient>
        <linearGradient x1="-0.231640749%" y1="50%" x2="99.1845129%" y2="50%" id="linearGradient-2">
            <stop stop-color="#FFC132" offset="0%"></stop>
            <stop stop-color="#FECE60" offset="27.71%"></stop>
            <stop stop-color="#FFDF94" offset="100%"></stop>
        </linearGradient>
        <polygon id="path-3" points="0.019995 0.3876 92.9229429 0.3876 92.9229429 0.8876 0.019995 0.8876"></polygon>
        <linearGradient x1="-0.231640749%" y1="50%" x2="99.1845129%" y2="50%" id="linearGradient-5">
            <stop stop-color="#00BEEB" offset="0%"></stop>
            <stop stop-color="#00CEFF" offset="27.71%"></stop>
            <stop stop-color="#53DEFF" offset="100%"></stop>
        </linearGradient>
    </defs>
    <g id="community" stroke="none" stroke-width="1" fill="none" fill-rule="evenodd" transform="translate(0.000000, -95.000000)">
        <g id="Group-6" transform="translate(-16.000000, 96.000000)">
            <rect id="Rectangle-2" fill="url(#linearGradient-1)" x="16" y="0" width="1600" height="388"></rect>
            <g id="Group-4" transform="translate(1340.000000, 4.000000)">
                <path d="M257.0301,242.7318 L357.6141,242.6218" id="Stroke-1" stroke="#FFFFFF" stroke-width="1.332"></path>
                <path d="M231.908,217.3441 L172.512,217.3441" id="Stroke-3" stroke="#3BE296" stroke-width="1.332"></path>
                <path d="M131.5564,260.7445 L173.5994,216.7905" id="Fill-4" fill="#FFFFFF"></path>
                <path d="M131.5564,260.7445 L173.5994,216.7905" id="Stroke-5" stroke="#3BE296" stroke-width="1.998"></path>
                <path d="M132.6766,260.1913 L53.0046,260.1913" id="Stroke-7" stroke="#3BE296" stroke-width="1.332"></path>
                <path d="M0.0223,194.3968 L31.4223,145.4768" id="Stroke-10" stroke="#3BE296" stroke-width="1.332"></path>
                <path d="M30.1356,145.2494 L137.8006,145.2494" id="Stroke-11" stroke="#3BE296" stroke-width="1.332"></path>
                <path d="M175.1219,203.8773 L136.8099,144.5023" id="Stroke-12" stroke="#3BE296" stroke-width="1.332"></path>
                <path d="M174.1014,203.1302 L246.7044,203.1302" id="Stroke-13" stroke="#3DE09A" stroke-width="1.332"></path>
                <path d="M200.2566,111.6224 L255.9566,197.9454" id="Stroke-16" stroke="#00CEFF" stroke-width="1.332"></path>
                <path d="M201.74,112.0423 L36.186,112.0423" id="Stroke-17" stroke="#00CEFF" stroke-width="1.332"></path>
                <path d="M62.89,295.78 C43.652,295.78 28,280.129 28,260.89 C28,241.652 43.652,226 62.89,226 C82.128,226 97.781,241.652 97.781,260.89 C97.781,280.129 82.128,295.78 62.89,295.78" id="Fill-18" fill="#DF9AA0"></path>
                <path d="M63.554,224 C42.814,224 26,240.813 26,261.555 C26,282.295 42.814,299.109 63.554,299.109 C84.295,299.109 101.109,282.295 101.109,261.555 C101.109,240.813 84.295,224 63.554,224 M63.554,229.329 C81.324,229.329 95.781,243.785 95.781,261.555 C95.781,279.324 81.324,293.78 63.554,293.78 C45.785,293.78 31.329,279.324 31.329,261.555 C31.329,243.785 45.785,229.329 63.554,229.329" id="Fill-20" fill="#FECE60"></path>
                <path d="M246.6707,112.3534 L220.0757,112.5494 L239.3327,139.3124 L266.1447,139.3094 L246.6707,112.3534 Z M245.9927,113.6904 L263.5387,137.9774 L240.0167,137.9804 L222.6617,113.8624 L245.9927,113.6904 Z" id="Fill-24" fill="#00CEFF"></path>
                <path d="M73.4637,164.2 L40.5107,165.318 L25.6017,187.6 L58.8337,186.41 L73.4637,164.2 Z M70.9347,165.619 L58.0997,185.103 L28.1567,186.176 L41.2377,166.626 L70.9347,165.619 Z" id="Fill-26" fill="#FECE60"></path>
                <path d="M255.0926,210.5384 L255.0866,213.7484" id="Stroke-28" stroke="#FFFFFF" stroke-width="0.666"></path>
                <path d="M255.076,219.9872 L255.302,384.121094" id="Stroke-30" stroke="#FFD77C" stroke-width="0.666" stroke-dasharray="6.238,6.238"></path>
                <path d="M254.268,281.534 C217.728,281.534 188,251.807 188,215.267 C188,178.727 217.728,149 254.268,149 C290.808,149 320.537,178.727 320.537,215.267 C320.537,251.807 290.808,281.534 254.268,281.534" id="Fill-34" fill="#F09E8F"></path>
                <path d="M254.0438,145.9251 C215.9748,145.9251 185.1118,176.7871 185.1118,214.8571 C185.1118,252.9261 215.9748,283.7881 254.0438,283.7881 C292.1138,283.7881 322.9758,252.9261 322.9758,214.8571 C322.9758,176.7871 292.1138,145.9251 254.0438,145.9251 M254.0438,151.2541 C289.1148,151.2541 317.6478,179.7861 317.6478,214.8571 C317.6478,249.9271 289.1148,278.4601 254.0438,278.4601 C218.9738,278.4601 190.4408,249.9271 190.4408,214.8571 C190.4408,179.7861 218.9738,151.2541 254.0438,151.2541" id="Fill-36" fill="#FECE60"></path>
                <path d="M153.827,111.3285 L85.237,3.4645" id="Stroke-38" stroke="#00CEFF" stroke-width="1.332"></path>
                <path d="M124.354,26.678 C124.354,41.411 112.411,53.355 97.677,53.355 C82.944,53.355 71,41.411 71,26.678 C71,11.944 82.944,0 97.677,0 C112.411,0 124.354,11.944 124.354,26.678" id="Fill-40" fill="#FECE60"></path>
                <path d="M149.575,248.7987 C149.575,252.1097 146.891,254.7937 143.58,254.7937 C140.269,254.7937 137.585,252.1097 137.585,248.7987 C137.585,245.4877 140.269,242.8037 143.58,242.8037 C146.891,242.8037 149.575,245.4877 149.575,248.7987" id="Fill-42" fill="#00CEFF"></path>
                <path d="M163.4383,231.1883 C163.4383,234.4993 160.7543,237.1833 157.4433,237.1833 C154.1323,237.1833 151.4483,234.4993 151.4483,231.1883 C151.4483,227.8773 154.1323,225.1933 157.4433,225.1933 C160.7543,225.1933 163.4383,227.8773 163.4383,231.1883" id="Fill-44" fill="#00CEFF"></path>
                <path d="M65.249561,274.905504 L65.249561,263.089696 L69.450784,263.089696 L70.079855,258.482848 L65.249561,258.482848 L65.249561,255.544 C65.249561,254.210624 65.64155,253.30176 67.667045,253.30176 L70.250019,253.300352 L70.250019,249.182048 C69.803215,249.125088 68.269991,249 66.486233,249 C62.761872,249 60.212414,251.146656 60.212414,255.08784 L60.212414,258.483552 L56,258.483552 L56,263.089696 L60.21211,263.089696 L60.21211,274.905504 L65.249561,274.905504 L65.249561,274.905504 Z" id="Path" fill="#3B5999"></path>
                <g id="Group-2" transform="translate(226.000000, 187.000000)" fill-rule="nonzero">
                    <path d="M45.1056807,0 C44.6258331,0 44.1459854,0 43.826087,0 L9.2770549,0 C8.15741035,0 6.87781657,0.16 5.75817201,0.64 C2.39923834,1.92 0,5.28 0,8.8 C0,21.44 0,34.08 0,46.72 C0,48.32 0.319898445,50.08 1.11964456,51.36 C2.39923834,53.6 4.47857823,55.2 6.87781657,55.68 L6.87781657,27.2 C6.87781657,25.6 7.03776579,23.84 8.15741035,22.56 C9.2770549,21.12 10.8765471,20.16 12.7959378,19.84 L12.7959378,12.32 C11.6762932,11.68 10.8765471,10.72 10.5566487,9.44 C10.2367502,7.84 10.8765471,6.08 12.3160901,5.28 C13.7556331,4.32 15.6750238,4.48 17.1145668,5.44 C18.3941606,6.4 19.0339575,8.32 18.5541098,9.92 C18.2342114,11.04 17.4344652,11.84 16.4747699,12.32 L16.4747699,19.84 L42.0666455,19.84 C43.9860362,19.84 45.7454776,20.48 47.0250714,21.92 C48.3046652,23.2 48.9444621,24.96 48.9444621,26.72 L48.9444621,35.84 C48.9444621,38.56 47.1850206,41.12 44.6258331,42.08 C43.5061885,42.56 42.386544,42.56 41.2668994,42.56 L22.2329419,42.56 L22.2329419,56 L47.1850206,56 C50.8638527,56 54.3827356,53.28 55.5023802,49.76 C56.1421771,48.16 55.9822279,46.4 55.9822279,44.64 L55.9822279,9.28 C56.1421771,5.28 53.4230403,1.6 49.584259,0.48 C48.4646144,0.16 47.5049191,0.16 46.3852745,0.16 L45.1056807,0.16 L45.1056807,0 Z" id="Shape" fill="url(#linearGradient-2)"></path>
                    <path d="M20.6520848,26.1565302 C18.5963547,26.782651 17.173157,28.6610133 17.0150239,30.6959058 C16.8568908,32.5742681 17.9638224,34.4526304 19.5451532,35.3918116 C20.968351,36.1744626 22.7078149,36.1744626 24.1310126,35.5483418 C26.5030088,34.4526304 27.6099404,31.635087 26.6611419,29.2871341 C26.0286096,27.4087717 23.9728795,26 21.9171494,26 C21.4427502,26 21.126484,26 20.6520848,26.1565302 Z" id="Shape" fill="#FECE60"></path>
                    <path d="M34.4415172,26.3087599 C31.9324574,27.0806595 30.5211112,29.7051183 31.1483762,32.1751972 C31.6188249,34.6452761 34.4415172,36.4978353 37.1073933,35.8803155 C39.7732694,35.4171758 41.4982481,32.3295771 40.8709831,29.8594983 C40.4005344,27.6981792 38.205107,26 36.0096797,26 C35.3824147,26.1543799 34.911966,26.1543799 34.4415172,26.3087599 Z" id="Shape" fill="#FECE60"></path>
                </g>
            </g>
            <g id="Group-5">
                <path d="M80.5,222.628 L158.5,222.5" id="Stroke-1" stroke="#00CEFF" stroke-width="2.345" transform="translate(119.500000, 223.000000) rotate(90.000000) translate(-119.500000, -223.000000) "></path>
                <path d="M106.5,260.5 L119.5,274.5" id="Stroke-2" stroke="#00CEFF" stroke-width="2.345" transform="translate(113.000000, 267.500000) rotate(90.000000) translate(-113.000000, -267.500000) "></path>
                <path d="M83,296 L128,296" id="Stroke-3" stroke="#00CEFF" stroke-width="2.345" transform="translate(105.500000, 296.500000) rotate(90.000000) translate(-105.500000, -296.500000) "></path>
                <path d="M123,319 L107,335" id="Stroke-4" stroke="#00CEFF" stroke-width="2.345" transform="translate(115.000000, 327.000000) rotate(90.000000) translate(-115.000000, -327.000000) "></path>
                <g id="Group-7" transform="translate(122.000000, 380.500000) rotate(90.000000) translate(-122.000000, -380.500000) translate(75.500000, 379.500000)">
                    <mask id="mask-4" fill="white">
                        <use xlink:href="#path-3"></use>
                    </mask>
                    <g id="Clip-6"></g>
                </g>
                <path d="M116,245 L203,245.262" id="Stroke-8" stroke="#00CEFF" stroke-width="2.345" transform="translate(159.500000, 245.500000) rotate(90.000000) translate(-159.500000, -245.500000) "></path>
                <path d="M159.5,315.5 L186.5,287.5" id="Stroke-9" stroke="#00CEFF" stroke-width="2.345" transform="translate(173.000000, 301.500000) rotate(90.000000) translate(-173.000000, -301.500000) "></path>
                <path d="M161.5,141.5 L115.5,141.5" id="Stroke-10" stroke="#00DEAA" stroke-width="2.345" transform="translate(138.500000, 142.000000) rotate(90.000000) translate(-138.500000, -142.000000) "></path>
                <path d="M106.5,120.5 L139.5,86.5" id="Stroke-11" stroke="#00DEAA" stroke-width="2.345" transform="translate(123.000000, 103.500000) rotate(90.000000) translate(-123.000000, -103.500000) "></path>
                <path d="M136.5,56.5 L74.5,56.5" id="Stroke-12" stroke="#00DEAA" stroke-width="2.345" transform="translate(105.500000, 57.000000) rotate(90.000000) translate(-105.500000, -57.000000) "></path>
                <path d="M183.090332,12.559082 L192.440918,-1.90966797" id="Stroke-13" stroke="#00CEFF" stroke-width="2.345" transform="translate(187.765625, 5.324707) rotate(90.000000) translate(-187.765625, -5.324707) "></path>
                <path d="M153,50 L236,50" id="Stroke-14" stroke="#00CEFF" stroke-width="2.345" transform="translate(194.500000, 50.500000) rotate(90.000000) translate(-194.500000, -50.500000) "></path>
                <path d="M188,129 L158,83" id="Stroke-15" stroke="#00CEFF" stroke-width="2.345" transform="translate(173.000000, 106.000000) rotate(90.000000) translate(-173.000000, -106.000000) "></path>
                <path d="M122.5,147.5 L178.5,147.5" id="Stroke-16" stroke="#00CEFF" stroke-width="2.345" transform="translate(150.500000, 148.000000) rotate(90.000000) translate(-150.500000, -148.000000) "></path>
                <path d="M74.5,271.5 L218.5,271.854" id="Stroke-17" stroke="#FFD763" stroke-width="0.782" transform="translate(146.500000, 272.000000) rotate(90.000000) translate(-146.500000, -272.000000) "></path>
                <path d="M145.5,377.5 L179.5,344.5" id="Stroke-18" stroke="#FFD763" stroke-width="0.782" transform="translate(162.500000, 361.000000) rotate(90.000000) translate(-162.500000, -361.000000) "></path>
                <path d="M175.037109,382.962891 L184.962891,382.962891" id="Stroke-19" stroke="#FFD763" stroke-width="0.782" transform="translate(180.000000, 382.962891) rotate(90.000000) translate(-180.000000, -382.962891) "></path>
                <path d="M201.492187,60.5703125 L281.570312,179.507812" id="Stroke-20" stroke="#3DCE8C" stroke-width="1.563" transform="translate(241.531250, 120.039062) rotate(90.000000) translate(-241.531250, -120.039062) "></path>
                <path d="M323.38623,72.3862305 L278.61377,72.3862305" id="Stroke-21" stroke="#3DCE8C" stroke-width="1.563" transform="translate(301.000000, 72.386230) rotate(90.000000) translate(-301.000000, -72.386230) "></path>
                <path d="M139.893497,34.0531579 C139.893497,50.0881218 126.887174,63.0864702 110.842373,63.0864702 C94.7982309,63.0864702 81.791249,50.0881218 81.791249,34.0531579 C81.791249,18.0188529 94.7982309,5.02050449 110.842373,5.02050449 C126.887174,5.02050449 139.893497,18.0188529 139.893497,34.0531579" id="Fill-22" fill="#7D85F4" transform="translate(110.842373, 34.053487) rotate(90.000000) translate(-110.842373, -34.053487) "></path>
                <path d="M140.102248,34.0326534 C140.102248,50.0676173 127.095925,63.0659657 111.051124,63.0659657 C95.0069819,63.0659657 82,50.0676173 82,34.0326534 C82,17.9983484 95.0069819,5 111.051124,5 C127.095925,5 140.102248,17.9983484 140.102248,34.0326534 Z" id="Stroke-24" stroke="#7465E5" stroke-width="7.57" transform="translate(111.051124, 34.032983) rotate(90.000000) translate(-111.051124, -34.032983) "></path>
                <path d="M322.273599,44.6244765 C322.273599,56.0152437 313.034225,65.2489531 301.63647,65.2489531 C290.238715,65.2489531 281,56.0152437 281,44.6244765 C281,33.2343682 290.238715,24 301.63647,24 C313.034225,24 322.273599,33.2343682 322.273599,44.6244765 Z" id="Stroke-28" stroke="#7465E5" stroke-width="5.378" fill="#8E89E8" transform="translate(301.636800, 44.624477) rotate(90.000000) translate(-301.636800, -44.624477) "></path>
                <g id="Group" transform="translate(291.000000, 37.000000)" fill="#7465E5" fill-rule="nonzero">
                    <path d="M11.8133333,8.4 L20.8533333,0.586666667 C20.5333333,0.24 20.0533333,0 19.52,0 L1.81333333,0 C1.30666667,0 0.826666667,0.213333333 0.506666667,0.56 L9.52,8.4 C10.1866667,8.96 11.1466667,8.96 11.8133333,8.4 Z" id="Shape"></path>
                    <path d="M21.3333333,14.1866667 L21.3333333,1.81333333 C21.3333333,1.73333333 21.3333333,1.65333333 21.3066667,1.57333333 L12.5066667,9.2 C11.9733333,9.65333333 11.3066667,9.89333333 10.6666667,9.89333333 C10,9.89333333 9.36,9.65333333 8.82666667,9.2 L0.0266666667,1.57333333 C0.0266666667,1.65333333 8.8817842e-15,1.73333333 8.8817842e-15,1.81333333 L8.8817842e-15,14.1866667 C8.8817842e-15,14.3466667 0.0266666667,14.48 0.0533333333,14.64 L6.56,9.01333333 C6.77333333,8.82666667 7.12,8.85333333 7.30666667,9.06666667 C7.49333333,9.28 7.46666667,9.62666667 7.25333333,9.81333333 L0.613333333,15.5466667 C0.933333333,15.8133333 1.33333333,16 1.81333333,16 L19.52,16 C19.92,16 20.2666667,15.8666667 20.56,15.6533333 L13.8133333,9.78666667 C13.6,9.6 13.5733333,9.25333333 13.76,9.04 C13.9466667,8.82666667 14.2933333,8.8 14.5066667,8.98666667 L21.2,14.8 C21.28,14.6133333 21.3333333,14.4 21.3333333,14.1866667 Z" id="Shape"></path>
                </g>
                <path d="M200.693316,345.564644 C189.29622,345.564644 180.056846,336.330276 180.056846,324.940167 C180.056846,313.5494 189.29622,304.315032 200.693316,304.315032 C212.091071,304.315032 221.330445,313.5494 221.330445,324.940167 C221.330445,336.330276 212.091071,345.564644 200.693316,345.564644 Z" id="Fill-30" fill="#8286F1" transform="translate(200.693645, 324.939838) rotate(90.000000) translate(-200.693645, -324.939838) "></path>
                <path d="M221.330445,324.940167 C221.330445,336.330276 212.091071,345.564644 200.693316,345.564644 C189.29622,345.564644 180.056846,336.330276 180.056846,324.940167 C180.056846,313.5494 189.29622,304.315032 200.693316,304.315032 C212.091071,304.315032 221.330445,313.5494 221.330445,324.940167 Z" id="Stroke-32" stroke="#7465E5" stroke-width="5.378" transform="translate(200.693645, 324.939838) rotate(90.000000) translate(-200.693645, -324.939838) "></path>
                <path d="M67.0239159,305.241234 L92.7087235,356.567624" id="Stroke-34" stroke="#00CEFF" stroke-width="2.345" transform="translate(79.866320, 330.904429) rotate(90.000000) translate(-79.866320, -330.904429) "></path>
                <polygon id="Stroke-38" stroke="#3DCE8C" stroke-width="1.563" transform="translate(210.238329, 173.322994) rotate(90.000000) translate(-210.238329, -173.322994) " points="207.316538 183.744271 192.419489 163.053251 212.992672 162.901717 228.057169 183.741636"></polygon>
                <polygon id="Stroke-40" stroke="#00CEFF" stroke-width="2.345" transform="translate(171.531727, 23.577098) rotate(90.000000) translate(-171.531727, -23.577098) " points="164.552587 15.396223 190.044426 14.5318187 178.727099 31.702631 153.019027 32.6223783"></polygon>
                <path d="M142.88364,181.371855 L142.878366,184.461178" id="Stroke-42" stroke="#00D0FF" stroke-width="2.345" transform="translate(143.207990, 182.916517) rotate(90.000000) translate(-143.207990, -182.916517) "></path>
                <path d="M79.645971,129.702253 L79.645971,235.451226" id="Stroke-44" stroke="#00CEFF" stroke-width="2.345" stroke-dasharray="9.323,9.323" transform="translate(79.645971, 182.576740) rotate(90.000000) translate(-79.645971, -182.576740) "></path>
                <path d="M28.3997792,182.825393 L31.0011756,184.494247" id="Stroke-48" stroke="#00D0FF" stroke-width="2.345" transform="translate(29.700477, 183.659820) rotate(90.000000) translate(-29.700477, -183.659820) "></path>
                <path d="M4.82662834,194.22109 L30.472072,210.671785" id="Stroke-50" stroke="#00CEFF" stroke-width="2.345" stroke-dasharray="8.404999999999999,8.404999999999999" transform="translate(17.649350, 202.446437) rotate(90.000000) translate(-17.649350, -202.446437) "></path>
                <path d="M182.993232,180.284861 C182.993232,199.363688 167.516703,214.830727 148.426172,214.830727 C129.335641,214.830727 113.860431,199.363688 113.860431,180.284861 C113.860431,161.206034 129.335641,145.739653 148.426172,145.739653 C167.516703,145.739653 182.993232,161.206034 182.993232,180.284861" id="Fill-60" fill="#7F85F3" transform="translate(148.426831, 180.285190) rotate(90.000000) translate(-148.426831, -180.285190) "></path>
                <path d="M183.132801,180.545208 C183.132801,199.624034 167.656273,215.091074 148.565741,215.091074 C129.47521,215.091074 114,199.624034 114,180.545208 C114,161.466381 129.47521,146 148.565741,146 C167.656273,146 183.132801,161.466381 183.132801,180.545208 Z" id="Stroke-62" stroke="#00CEFF" stroke-width="8.963" transform="translate(148.566401, 180.545537) rotate(90.000000) translate(-148.566401, -180.545537) "></path>
                <path d="M418.84872,118.09978 L325.295728,-23.1405376" id="Stroke-64" stroke="#3DCE8C" stroke-width="1.563" transform="translate(372.072224, 47.479621) rotate(90.000000) translate(-372.072224, -47.479621) "></path>
                <path d="M110.252256,297.196005 C110.252256,299.756276 108.176281,301.830978 105.614439,301.830978 C103.053257,301.830978 100.977282,299.756276 100.977282,297.196005 C100.977282,294.636393 103.053257,292.561691 105.614439,292.561691 C108.176281,292.561691 110.252256,294.636393 110.252256,297.196005" id="Fill-68" fill="#00CEFF" transform="translate(105.614769, 297.196334) rotate(90.000000) translate(-105.614769, -297.196334) "></path>
                <path d="M119.811303,96.3291766 C119.811303,98.8894473 117.735328,100.964149 115.174146,100.964149 C112.612304,100.964149 110.536329,98.8894473 110.536329,96.3291766 C110.536329,93.7695646 112.612304,91.6948625 115.174146,91.6948625 C117.735328,91.6948625 119.811303,93.7695646 119.811303,96.3291766" id="Fill-70" fill="#00CEFF" transform="translate(115.173816, 96.329506) rotate(90.000000) translate(-115.173816, -96.329506) "></path>
                <path d="M133.42633,107.054234 C133.42633,109.613846 131.350355,111.688548 128.789173,111.688548 C126.227331,111.688548 124.151356,109.613846 124.151356,107.054234 C124.151356,104.493963 126.227331,102.419261 128.789173,102.419261 C131.350355,102.419261 133.42633,104.493963 133.42633,107.054234" id="Fill-72" fill="#00CEFF" transform="translate(128.788843, 107.053904) rotate(90.000000) translate(-128.788843, -107.053904) "></path>
                <path d="M157,166.416667 C156.75,166.416667 156.5,166.416667 156.333333,166.416667 L138.333333,166.416667 C137.75,166.416667 137.083333,166.5 136.5,166.75 C134.75,167.416667 133.5,169.166667 133.5,171 C133.5,177.583333 133.5,184.166667 133.5,190.75 C133.5,191.583333 133.666667,192.5 134.083333,193.166667 C134.75,194.333333 135.833333,195.166667 137.083333,195.416667 L137.083333,180.583333 C137.083333,179.75 137.166667,178.833333 137.75,178.166667 C138.333333,177.416667 139.166667,176.916667 140.166667,176.75 L140.166667,172.833333 C139.583333,172.5 139.166667,172 139,171.333333 C138.833333,170.5 139.166667,169.583333 139.916667,169.166667 C140.666667,168.666667 141.666667,168.75 142.416667,169.25 C143.083333,169.75 143.416667,170.75 143.166667,171.583333 C143,172.166667 142.583333,172.583333 142.083333,172.833333 L142.083333,176.75 L155.416667,176.75 C156.416667,176.75 157.333333,177.083333 158,177.833333 C158.666667,178.5 159,179.416667 159,180.333333 L159,185.083333 C159,186.5 158.083333,187.833333 156.75,188.333333 C156.166667,188.583333 155.583333,188.583333 155,188.583333 L145.083333,188.583333 L145.083333,195.583333 L158.083333,195.583333 C160,195.583333 161.833333,194.166667 162.416667,192.333333 C162.75,191.5 162.666667,190.583333 162.666667,189.666667 L162.666667,171.25 C162.75,169.166667 161.333333,167.25 159.333333,166.666667 C158.75,166.5 158.25,166.5 157.666667,166.5 L157,166.5 L157,166.416667 Z" id="Shape" fill="url(#linearGradient-5)" fill-rule="nonzero"></path>
                <path d="M144.25,180.166667 C143.166667,180.5 142.416667,181.5 142.333333,182.583333 C142.25,183.583333 142.833333,184.583333 143.666667,185.083333 C144.416667,185.5 145.333333,185.5 146.083333,185.166667 C147.333333,184.583333 147.916667,183.083333 147.416667,181.833333 C147.083333,180.833333 146,180.083333 144.916667,180.083333 C144.666667,180.083333 144.5,180.083333 144.25,180.166667 Z" id="Shape" fill="#00CEFF" fill-rule="nonzero"></path>
                <path d="M152,180.166667 C150.666667,180.583333 149.916667,182 150.25,183.333333 C150.5,184.666667 152,185.666667 153.416667,185.333333 C154.833333,185.083333 155.75,183.416667 155.416667,182.083333 C155.166667,180.916667 154,180 152.833333,180 C152.5,180.083333 152.25,180.083333 152,180.166667 Z" id="Shape" fill="#00CEFF" fill-rule="nonzero"></path>
                <path d="M121.940776,25.3516597 C121.045313,25.8999969 120.055721,26.2998501 118.998544,26.5140363 C118.156768,25.5817298 116.95316,25 115.620442,25 C113.066115,25 110.99309,27.1472538 110.99309,29.7962758 C110.99309,30.1720548 111.032957,30.5374099 111.112325,30.8879865 C107.265382,30.6886014 103.854989,28.780172 101.570874,25.8753361 C101.171788,26.5863492 100.944029,27.4107391 100.944029,28.2888277 C100.944029,29.95295 101.761248,31.4215228 103.003364,32.2804333 C102.245946,32.2585251 101.530668,32.0399618 100.905991,31.6839025 L100.905991,31.7414144 C100.905991,34.0672506 102.501449,36.0069065 104.620898,36.4456801 C104.232784,36.5579738 103.823404,36.6138387 103.400857,36.6138387 C103.102457,36.6138387 102.811397,36.5848233 102.529194,36.5283944 C103.118994,38.4340937 104.827469,39.8210352 106.853704,39.8582859 C105.269479,41.1461102 103.272662,41.9124241 101.104046,41.9124241 C100.731136,41.9124241 100.361937,41.8899744 100,41.847241 C102.048336,43.2062726 104.482618,44 107.095491,44 C115.611167,44 120.266498,36.6927173 120.266498,30.3533673 C120.266498,30.1441223 120.262867,29.9365019 120.253906,29.7321982 C121.158904,29.0551416 121.94472,28.2110321 122.5625,27.2496877 C121.73363,27.6298438 120.841119,27.8894935 119.904535,28.0039758 C120.861261,27.4107391 121.594566,26.4707613 121.940776,25.3516597 L121.940776,25.3516597 Z" id="Path" fill="#00DAFF"></path>
                <g id="Group-3" transform="translate(192.000000, 315.000000)" fill="#2071E7">
                    <polygon id="Path" points="-5.68434189e-14 17 4 17 4 5 -5.68434189e-14 5"></polygon>
                    <path d="M14.1343158,5 C11.9378403,5 10.5615831,6.16410906 10.3074256,6.97880322 L10.3074256,5.11441319 L6,5.11441319 C6.05569169,6.10382252 6,17 6,17 L10.3074256,17 L10.3074256,10.5679748 C10.3074256,10.2104857 10.2897507,9.85298113 10.4007365,9.59709143 C10.6969361,8.88163461 11.3332989,8.13957761 12.476751,8.13957761 C13.9723924,8.13957761 14.6524704,9.23960231 14.6524704,10.8495075 L14.6524704,17 L19,17 L19,10.3908821 C19,6.70960571 16.8592162,5 14.1343158,5 L14.1343158,5 Z" id="Path"></path>
                    <path d="M2.01294088,8.08242362e-14 C0.796198882,8.08242362e-14 -1.7985613e-14,0.863262076 -1.7985613e-14,2.0018405 C-1.7985613e-14,3.11832495 0.773370823,4 1.96593231,4 L1.99019824,4 C3.22892124,4 4,3.1155622 4,1.99861463 C3.97632487,0.860954465 3.22892124,8.08242362e-14 2.01294088,8.08242362e-14 L2.01294088,8.08242362e-14 Z" id="Path"></path>
                </g>
                <path d="M56.6439889,354.30463 C56.6439889,369.937699 43.9639944,382.609919 28.3219944,382.609919 C12.6799944,382.609919 0,369.937699 0,354.30463 C0,338.67222 12.6799944,326 28.3219944,326 C43.9639944,326 56.6439889,338.67222 56.6439889,354.30463" id="Fill-36" fill="#7465E5" transform="translate(28.321994, 354.304959) rotate(90.000000) translate(-28.321994, -354.304959) "></path>
                <path d="M39.935008,347.163695 C38.647392,344.980768 36.90064,343.252983 34.694528,341.979813 C32.488128,340.705651 30.079264,340.069066 27.466464,340.069066 C24.854048,340.069066 22.44448,340.705651 20.238464,341.979813 C18.032256,343.252983 16.285536,344.980768 14.997888,347.163695 C13.710336,349.346126 13.066624,351.729251 13.066624,354.313535 C13.066624,357.417565 13.982144,360.20896 15.813504,362.688247 C17.644672,365.167007 20.010304,366.882485 22.91008,367.83465 C23.247712,367.896774 23.497632,367.853374 23.66,367.704946 C23.822656,367.55751 23.903712,367.371138 23.903712,367.14924 C23.903712,367.111761 23.90048,366.777953 23.894368,366.147289 C23.887872,365.517121 23.884896,364.966313 23.884896,364.496911 L23.4536,364.570846 C23.178624,364.620167 22.831744,364.641371 22.412928,364.635946 C21.994336,364.629529 21.559872,364.586625 21.109856,364.505777 C20.659808,364.42589 20.24112,364.239983 19.853632,363.949575 C19.466272,363.659136 19.1912,363.278952 19.028736,362.809054 L18.84128,362.382525 C18.716352,362.098007 18.519616,361.782923 18.250752,361.436281 C17.981888,361.090104 17.71008,360.855403 17.435232,360.731651 L17.304,360.63893 C17.216512,360.576806 17.135232,360.502344 17.06016,360.416071 C16.985088,360.329271 16.929024,360.242998 16.891488,360.156694 C16.853952,360.069429 16.885088,359.998408 16.98528,359.942701 C17.085376,359.886467 17.266368,359.859838 17.529024,359.859838 L17.903872,359.91508 C18.15392,359.964866 18.463168,360.112798 18.832,360.360333 C19.200768,360.607868 19.503712,360.928873 19.741216,361.324836 C20.028896,361.831717 20.375488,362.217822 20.781984,362.484081 C21.187968,362.749875 21.597504,362.882524 22.00992,362.882524 C22.4224,362.882524 22.778656,362.851431 23.078624,362.790299 C23.378528,362.728175 23.65968,362.634989 23.922336,362.512198 C24.034848,361.682824 24.341152,361.046239 24.841024,360.600986 C24.12864,360.52702 23.488064,360.415575 22.919232,360.267147 C22.350592,360.118719 21.763008,359.878097 21.156832,359.543793 C20.550368,359.209458 20.047232,358.795763 19.647328,358.301189 C19.247456,357.806119 18.9192,357.157196 18.663136,356.353459 C18.407008,355.549722 18.278816,354.622233 18.278816,353.571426 C18.278816,352.074901 18.772704,350.801235 19.76016,349.749963 C19.2976,348.624725 19.341344,347.363893 19.891264,345.966475 C20.253824,345.85503 20.791552,345.938854 21.50384,346.216955 C22.216416,346.495552 22.737952,346.733725 23.069472,346.931443 C23.400896,347.128696 23.6664,347.296344 23.8664,347.431938 C25.02912,347.110437 26.22896,346.949702 27.466336,346.949702 C28.703744,346.949702 29.903904,347.110437 31.066624,347.431938 L31.779104,346.987181 C32.266368,346.690325 32.841728,346.418145 33.503744,346.17061 C34.166272,345.923571 34.672864,345.85503 35.023008,345.966475 C35.585344,347.364389 35.635488,348.625221 35.172736,349.750459 C36.160288,350.801235 36.654272,352.075893 36.654272,353.571426 C36.654272,354.622233 36.5256,355.552698 36.269856,356.362852 C36.0136,357.17251 35.682592,357.821402 35.276512,358.310055 C34.870016,358.798708 34.363616,359.209458 33.757536,359.543793 C33.151264,359.877601 32.563488,360.118719 31.994848,360.267147 C31.426016,360.415575 30.785536,360.52702 30.073152,360.601451 C30.72288,361.157684 31.047776,362.035883 31.047776,363.235087 L31.047776,367.148744 C31.047776,367.370642 31.126016,367.556549 31.282368,367.704481 C31.438624,367.852878 31.685408,367.896278 32.02304,367.833658 C34.923104,366.881989 37.288736,365.166511 39.119904,362.687751 C40.950752,360.207968 41.866688,357.417069 41.866688,354.313039 C41.865952,351.729251 41.221856,349.346126 39.935008,347.163695 Z" id="Path" fill="#000000"></path>
            </g>
        </g>
    </g>
</svg>