<?xml version="1.0" encoding="UTF-8"?>
<svg width="60px" height="60px" viewBox="0 0 60 60" version="1.1" xmlns="http://www.w3.org/2000/svg" xmlns:xlink="http://www.w3.org/1999/xlink">
    <!-- Generator: Sketch 48.1 (47250) - http://www.bohemiancoding.com/sketch -->
    <title>Group 7</title>
    <desc>Created with Sketch.</desc>
    <defs></defs>
    <g id="careers-copy" stroke="none" stroke-width="1" fill="none" fill-rule="evenodd" transform="translate(-770.000000, -3861.000000)">
        <g id="Group-7" transform="translate(770.000000, 3861.000000)">
            <path d="M7.98082069,6.32827124e-14 L52.0184643,6.32827124e-14 C56.4263042,6.32827124e-14 60,4.02983505 60,9.00017531 L60,51.0003984 C60,55.9712487 56.4263042,60 52.0184643,60 L7.98082069,60 C3.57291583,60 5.46229728e-14,55.9712487 5.46229728e-14,51.0003984 L5.46229728e-14,9.00017531 C5.46229728e-14,4.02983505 3.57291583,6.32827124e-14 7.98082069,6.32827124e-14 Z" id="Rectangle" fill="#FECE60"></path>
            <g id="noun_1073942_cc" transform="translate(12.000000, 12.000000)" fill="#FFFFFF" fill-rule="nonzero">
                <path d="M30.37932,24.30036 L30.37932,26.63496 C30.37932,26.92764 30.14172,27.1656 29.84832,27.1656 L21.31092,27.1656 C21.01824,27.1656 20.78064,26.928 20.78064,26.63496 L20.78064,24.30036 C20.78064,24.00768 21.01788,23.76972 21.31092,23.76972 L24.30216,23.76972 L24.30216,21.582 L26.85744,21.582 L26.85744,23.76972 L29.84868,23.76972 C30.14172,23.76972 30.37932,24.00768 30.37932,24.30036 Z M31.30272,26.2602 L36,26.2602 L36,24.82776 L31.30272,24.82776 L31.30272,26.2602 Z M36,0.45 L36,5.77188 C36,6.01992 35.79804,6.22188 35.55,6.22188 L13.40424,6.22188 C13.15548,6.22188 12.95388,6.01992 12.95388,5.77188 L12.95388,0.45 C12.95388,0.20196 13.15548,0 13.40424,0 L35.55,0 C35.79804,0 36,0.20196 36,0.45 Z M26.2062,3.4128 C26.2062,3.28824 26.1054,3.1878 25.9812,3.1878 L14.62104,3.1878 C14.49684,3.1878 14.39604,3.28824 14.39604,3.4128 L14.39604,4.15404 C14.39604,4.27824 14.49684,4.37904 14.62104,4.37904 L25.9812,4.37904 C26.1054,4.37904 26.2062,4.27824 26.2062,4.15404 L26.2062,3.4128 Z M29.9448,1.71252 C29.9448,1.58832 29.844,1.48752 29.7198,1.48752 L28.54944,1.48752 C28.42488,1.48752 28.32408,1.58832 28.32408,1.71252 L28.32408,2.36736 C28.32408,2.49156 28.42488,2.59236 28.54944,2.59236 L29.7198,2.59236 C29.844,2.59236 29.9448,2.49156 29.9448,2.36736 L29.9448,1.71252 Z M32.25168,1.71252 C32.25168,1.58832 32.15052,1.48752 32.02632,1.48752 L30.85596,1.48752 C30.7314,1.48752 30.63096,1.58832 30.63096,1.71252 L30.63096,2.36736 C30.63096,2.49156 30.7314,2.59236 30.85596,2.59236 L32.02632,2.59236 C32.15052,2.59236 32.25168,2.49156 32.25168,2.36736 L32.25168,1.71252 Z M34.55784,1.71252 C34.55784,1.58832 34.4574,1.48752 34.3332,1.48752 L33.16284,1.48752 C33.03828,1.48752 32.93784,1.58832 32.93784,1.71252 L32.93784,2.36736 C32.93784,2.49156 33.03828,2.59236 33.16284,2.59236 L34.3332,2.59236 C34.4574,2.59236 34.55784,2.49156 34.55784,2.36736 L34.55784,1.71252 Z M36,7.69644 L36,13.01832 C36,13.26636 35.79804,13.46832 35.55,13.46832 L15.2172,13.46832 C14.81472,12.14388 14.00508,11.02752 12.95388,10.2348 L12.95388,7.69644 C12.95388,7.4484 13.15548,7.24644 13.40424,7.24644 L35.55,7.24644 C35.79804,7.24644 36,7.44804 36,7.69644 Z M26.2062,10.65924 C26.2062,10.53468 26.1054,10.43424 25.9812,10.43424 L14.62104,10.43424 C14.49684,10.43424 14.39604,10.53468 14.39604,10.65924 L14.39604,11.40048 C14.39604,11.52468 14.49684,11.62548 14.62104,11.62548 L25.9812,11.62548 C26.1054,11.62548 26.2062,11.52468 26.2062,11.40048 L26.2062,10.65924 Z M29.9448,8.95932 C29.9448,8.83476 29.844,8.73396 29.7198,8.73396 L28.54944,8.73396 C28.42488,8.73396 28.32408,8.83476 28.32408,8.95932 L28.32408,9.6138 C28.32408,9.73836 28.42488,9.8388 28.54944,9.8388 L29.7198,9.8388 C29.844,9.8388 29.9448,9.73836 29.9448,9.6138 L29.9448,8.95932 Z M32.25168,8.95932 C32.25168,8.83476 32.15052,8.73396 32.02632,8.73396 L30.85596,8.73396 C30.7314,8.73396 30.63096,8.83476 30.63096,8.95932 L30.63096,9.6138 C30.63096,9.73836 30.7314,9.8388 30.85596,9.8388 L32.02632,9.8388 C32.15052,9.8388 32.25168,9.73836 32.25168,9.6138 L32.25168,8.95932 Z M34.55784,8.95932 C34.55784,8.83476 34.4574,8.73396 34.3332,8.73396 L33.16284,8.73396 C33.03828,8.73396 32.93784,8.83476 32.93784,8.95932 L32.93784,9.6138 C32.93784,9.73836 33.03828,9.8388 33.16284,9.8388 L34.3332,9.8388 C34.4574,9.8388 34.55784,9.73836 34.55784,9.6138 L34.55784,8.95932 Z M36,14.94324 L36,20.26476 C36,20.51316 35.79804,20.71476 35.55,20.71476 L13.40424,20.71476 C13.2084,20.71476 13.04244,20.58948 12.98016,20.41524 C13.55076,19.97928 14.04216,19.4652 14.43492,18.87192 L25.9812,18.87192 C26.1054,18.87192 26.2062,18.77148 26.2062,18.64692 L26.2062,17.90568 C26.2062,17.78112 26.1054,17.68068 25.9812,17.68068 L15.0498,17.68068 C15.43896,16.69824 15.588,15.6078 15.43932,14.49324 L35.55,14.49324 C35.79804,14.49324 36,14.69448 36,14.94324 Z M29.9448,16.20576 C29.9448,16.0812 29.844,15.98076 29.7198,15.98076 L28.54944,15.98076 C28.42488,15.98076 28.32408,16.0812 28.32408,16.20576 L28.32408,16.86024 C28.32408,16.9848 28.42488,17.08524 28.54944,17.08524 L29.7198,17.08524 C29.844,17.08524 29.9448,16.9848 29.9448,16.86024 L29.9448,16.20576 Z M32.25168,16.20576 C32.25168,16.0812 32.15052,15.98076 32.02632,15.98076 L30.85596,15.98076 C30.7314,15.98076 30.63096,16.0812 30.63096,16.20576 L30.63096,16.86024 C30.63096,16.9848 30.7314,17.08524 30.85596,17.08524 L32.02632,17.08524 C32.15052,17.08524 32.25168,16.9848 32.25168,16.86024 L32.25168,16.20576 Z M34.55784,16.20576 C34.55784,16.0812 34.4574,15.98076 34.3332,15.98076 L33.16284,15.98076 C33.03828,15.98076 32.93784,16.0812 32.93784,16.20576 L32.93784,16.86024 C32.93784,16.9848 33.03828,17.08524 33.16284,17.08524 L34.3332,17.08524 C34.4574,17.08524 34.55784,16.9848 34.55784,16.86024 L34.55784,16.20576 Z M9.10656,20.71224 C12.07656,20.71224 14.4846,18.30456 14.4846,15.33456 C14.4846,12.36384 12.07656,9.95688 9.10656,9.95688 C6.13656,9.95688 3.72852,12.3642 3.72852,15.33456 C3.72816,18.30492 6.13656,20.71224 9.10656,20.71224 Z M11.2986,21.48048 C11.2986,21.48012 9.33624,23.87808 9.33624,23.87808 L11.30004,32.95836 L9.10764,35.19792 L6.9156,32.95836 L8.87904,23.87808 L6.9156,21.47904 C3.40344,21.47904 0,24.32592 0,27.83808 L0,36 L3.60756,36 C3.60756,34.34076 3.60756,29.57256 3.60756,28.63332 C3.60756,27.44568 4.71384,27.38772 4.71384,27.38772 L4.71384,36 L13.5,36 C13.50036,33.93864 13.50036,27.38772 13.50036,27.38772 C13.50036,27.38772 14.607,27.47016 14.607,28.63332 C14.607,29.55384 14.607,34.33644 14.607,36 L18.2142,36 L18.2142,27.83808 C18.2142,27.29304 18.13212,26.76492 17.98092,26.2602 L19.85688,26.2602 L19.85688,24.82776 L17.3304,24.82776 C16.09236,22.8348 13.72104,21.48048 11.2986,21.48048 Z" id="Shape"></path>
            </g>
        </g>
    </g>
</svg>