<?xml version="1.0" encoding="UTF-8"?>
<svg width="300px" height="300px" viewBox="0 0 300 300" version="1.1" xmlns="http://www.w3.org/2000/svg" xmlns:xlink="http://www.w3.org/1999/xlink">
    <!-- Generator: Sketch 48.1 (47250) - http://www.bohemiancoding.com/sketch -->
    <title>Group</title>
    <desc>Created with Sketch.</desc>
    <defs>
        <circle id="path-1" cx="33.5740072" cy="33.5740072" r="33.5740072"></circle>
    </defs>
    <g id="services" stroke="none" stroke-width="1" fill="none" fill-rule="evenodd" transform="translate(-1052.000000, -3070.000000)">
        <g id="Group" transform="translate(1052.000000, 3070.000000)">
            <path d="M149.958345,0 C67.1346848,0 0,67.1346848 0,149.958345 C0,232.782005 67.1346848,299.920022 149.958345,299.920022 C232.782005,299.920022 299.91669,232.782005 299.91669,149.958345 C299.91669,67.1346848 232.782005,0 149.958345,0 Z M289.792835,144.959733 L274.797001,144.959733 C272.234379,79.9244654 219.995557,27.6823105 154.956956,25.119689 L154.956956,10.1238545 C228.16662,12.7098028 287.206887,71.7600666 289.792835,144.959733 Z M149.958345,214.940294 C114.128298,214.940294 84.9763954,185.795057 84.9763954,149.958345 C84.9763954,114.124965 114.128298,84.9763954 149.958345,84.9763954 C185.795057,84.9763954 214.946959,114.124965 214.946959,149.958345 C214.946959,185.795057 185.795057,214.940294 149.958345,214.940294 Z M144.959733,75.1657873 C107.540128,77.631769 77.6284365,107.540128 75.1624549,144.963066 L60.1299639,144.963066 C62.6425993,99.3224104 99.3224104,62.6425993 144.959733,60.1299639 L144.959733,75.1657873 Z M75.1624549,154.956956 C77.6284365,192.379894 107.540128,222.288253 144.959733,224.754235 L144.959733,239.790058 C99.3224104,237.277423 62.6425993,200.597612 60.1299639,154.956956 L75.1624549,154.956956 Z M154.956956,224.754235 C192.379894,222.288253 222.288253,192.379894 224.754235,154.956956 L239.786726,154.956956 C237.274091,200.597612 200.597612,237.277423 154.956956,239.790058 L154.956956,224.754235 Z M224.754235,144.959733 C222.288253,107.536795 192.379894,77.6284365 154.956956,75.1624549 L154.956956,60.1299639 C200.597612,62.6392669 237.274091,99.319078 239.786726,144.959733 L224.754235,144.959733 Z M144.959733,50.1160789 C93.727298,52.6387115 52.6353791,93.727298 50.1127465,144.959733 L35.116912,144.959733 C37.6728686,85.5395723 85.5429047,37.6762011 144.959733,35.1202444 L144.959733,50.1160789 Z M50.1127465,154.956956 C52.6353791,206.196057 93.7239656,247.281311 144.959733,249.807276 L144.959733,264.80311 C85.5429047,262.243821 37.6762011,214.383782 35.116912,154.956956 L50.1127465,154.956956 Z M154.956956,249.807276 C206.196057,247.281311 247.281311,206.196057 249.803943,154.956956 L264.799778,154.956956 C262.240489,214.383782 214.38045,262.243821 154.956956,264.80311 L154.956956,249.807276 Z M249.803943,144.959733 C247.281311,93.727298 206.196057,52.6387115 154.956956,50.1160789 L154.956956,35.1202444 C214.38045,37.6762011 262.243821,85.5395723 264.799778,144.963066 L249.803943,144.963066 L249.803943,144.959733 Z M144.959733,10.1238545 L144.959733,25.119689 C79.921133,27.6823105 27.6823105,79.9244654 25.119689,144.959733 L10.1238545,144.959733 C12.7098028,71.7600666 71.7567342,12.7098028 144.959733,10.1238545 Z M10.1238545,154.956956 L25.119689,154.956956 C27.6823105,219.998889 79.9244654,272.234379 144.959733,274.800333 L144.959733,289.796168 C71.7600666,287.210219 12.7098028,228.159956 10.1238545,154.956956 Z M154.956956,289.796168 L154.956956,274.800333 C219.992224,272.234379 272.234379,219.998889 274.797001,154.956956 L289.792835,154.956956 C287.206887,228.163288 228.163288,287.210219 154.956956,289.796168 Z" id="Shape" fill="#D7F2FF" fill-rule="nonzero"></path>
            <path d="M149.958345,180.639822 C133.016384,180.639822 119.276868,166.903638 119.276868,149.961677 C119.276868,133.016384 133.016384,119.283532 149.958345,119.283532 C166.90697,119.283532 180.633157,133.016384 180.633157,149.961677 C180.633157,166.903638 166.90697,180.639822 149.958345,180.639822 Z M192.269925,149.915024 L192.269925,107.650097 L149.958345,107.650097 C126.591502,107.650097 107.646765,126.594835 107.646765,149.961677 C107.646765,173.32852 126.591502,192.269925 149.958345,192.269925 C173.331852,192.269925 192.269925,173.32852 192.269925,149.961677 C192.269925,149.945015 192.269925,149.931686 192.269925,149.915024 Z" id="Shape" fill="#21B5FB" fill-rule="nonzero"></path>
            <g id="Group-5" transform="translate(116.967509, 116.967509)">
                <mask id="mask-2" fill="white">
                    <use xlink:href="#path-1"></use>
                </mask>
                <use id="Mask" fill="#FFFFFF" xlink:href="#path-1"></use>
                <g mask="url(#mask-2)" fill="#21B5FB" fill-rule="nonzero" id="Shape">
                    <g transform="translate(-1.034483, -1.034483)">
                        <path d="M55.8266122,0 C55.2327121,0 54.638812,0 54.2428786,0 L11.4820692,0 C10.0963022,0 8.51256853,0.198029557 7.12680156,0.792118227 C2.96950065,2.37635468 0,6.53497537 0,10.8916256 C0,26.5359606 0,42.1802956 0,57.8246305 C0,59.8049261 0.39593342,61.9832512 1.38576697,63.5674877 C2.96950065,66.3399015 5.54306788,68.320197 8.51256853,68.9142857 L8.51256853,33.6650246 C8.51256853,31.6847291 8.71053524,29.5064039 10.0963022,27.9221675 C11.4820692,26.1399015 13.4617363,24.9517241 15.8373368,24.555665 L15.8373368,15.2482759 C14.4515698,14.4561576 13.4617363,13.2679803 13.0658029,11.6837438 C12.6698694,9.70344828 13.4617363,7.52512315 15.2434367,6.53497537 C17.0251371,5.34679803 19.4007376,5.54482759 21.182438,6.73300493 C22.7661717,7.92118227 23.5580385,10.2975369 22.9641384,12.2778325 C22.5682049,13.6640394 21.5783714,14.6541872 20.3905711,15.2482759 L20.3905711,24.555665 L52.0652447,24.555665 C54.4408453,24.555665 56.6184791,25.3477833 58.2022128,27.1300493 C59.7859464,28.7142857 60.5778133,30.8926108 60.5778133,33.070936 L60.5778133,44.3586207 C60.5778133,47.7251232 58.4001795,50.8935961 55.2327121,52.0817734 C53.8469451,52.6758621 52.4611782,52.6758621 51.0754112,52.6758621 L27.5173727,52.6758621 L27.5173727,69.3103448 L58.4001795,69.3103448 C62.9534138,69.3103448 67.3086814,65.9438424 68.6944484,61.5871921 C69.4863152,59.6068966 69.2883485,57.4285714 69.2883485,55.2502463 L69.2883485,11.4857143 C69.4863152,6.53497537 66.1208812,1.98029557 61.3696801,0.59408867 C59.9839132,0.198029557 58.7961129,0.198029557 57.4103459,0.198029557 L55.8266122,0.198029557 L55.8266122,0 Z"></path>
                        <path d="M25.9993785,32.1896821 C23.3689165,32.990851 21.5478274,35.3943576 21.3454842,37.9981564 C21.1431409,40.401663 22.5595436,42.8051696 24.5829759,44.0069229 C26.404065,45.0083839 28.6298406,45.0083839 30.4509297,44.2072151 C33.4860781,42.8051696 34.9024808,39.1999097 33.6884214,36.1955265 C32.8790484,33.7920199 30.2485864,31.9893899 27.6181244,31.9893899 C27.0110947,31.9893899 26.6064082,31.9893899 25.9993785,32.1896821 Z"></path>
                        <path d="M43.8572624,32.3844715 C40.6467306,33.3721755 38.8408065,36.7303689 39.6434394,39.8910216 C40.2454141,43.0516742 43.8572624,45.4221637 47.2684524,44.6320006 C50.6796424,44.0393782 52.886883,40.0885624 52.08425,36.9279097 C51.4822753,34.1623386 48.67306,31.9893899 45.8638447,31.9893899 C45.0612118,32.1869307 44.4592371,32.1869307 43.8572624,32.3844715 Z"></path>
                    </g>
                </g>
            </g>
            <circle id="Oval-3" stroke="#D7F2FF" stroke-width="8" fill="#21B5FB" cx="150.541516" cy="268.592058" r="18.4115523"></circle>
            <circle id="Oval-3" stroke="#D7F2FF" stroke-width="8" fill="#21B5FB" cx="150.541516" cy="30.3249097" r="18.4115523"></circle>
            <circle id="Oval-3" stroke="#D7F2FF" stroke-width="8" fill="#21B5FB" cx="31.4079422" cy="150.541516" r="18.4115523"></circle>
            <circle id="Oval-3" stroke="#D7F2FF" stroke-width="8" fill="#21B5FB" cx="268.592058" cy="150.541516" r="18.4115523"></circle>
        </g>
    </g>
</svg>