<?xml version="1.0" encoding="UTF-8"?>
<svg width="511px" height="412px" viewBox="0 0 511 412" version="1.1" xmlns="http://www.w3.org/2000/svg" xmlns:xlink="http://www.w3.org/1999/xlink">
    <!-- Generator: Sketch 48.1 (47250) - http://www.bohemiancoding.com/sketch -->
    <title>Group 5</title>
    <desc>Created with Sketch.</desc>
    <defs>
        <linearGradient x1="0%" y1="83.048018%" x2="100%" y2="-5.80184891%" id="linearGradient-1">
            <stop stop-color="#8A80E5" offset="0%"></stop>
            <stop stop-color="#F67377" offset="100%"></stop>
        </linearGradient>
        <path d="M177.515672,330 L227.187113,330 C234.344781,330 240.956775,326.174938 244.524886,319.970037 L268.689009,277.94892 C272.25712,271.744019 278.869114,267.918957 286.026782,267.918957 L334.538452,267.918957 C341.640323,267.918957 348.209542,264.152806 351.797819,258.024116 L376.259286,216.244525 C379.922821,209.987295 379.912795,202.237312 376.233081,195.989582 L351.805968,154.515161 C348.211219,148.411691 341.656207,144.664945 334.572806,144.664945 L286.080712,144.664945 C278.894191,144.664945 272.260163,140.809247 268.702842,134.564926 L244.511054,92.1000192 C240.953733,85.8556978 234.319704,82 227.133183,82 L177.56978,82 C170.423747,82 163.820654,85.8127416 160.248263,92.0017485 L135.678563,134.567638 C132.076668,140.807758 132.109595,148.502937 135.764758,154.712005 L160.066256,195.99324 C163.743096,202.239129 163.753115,209.98547 160.092445,216.240851 L135.748739,257.839557 C132.104317,264.067172 132.096964,271.775036 135.729495,278.009593 L160.234916,320.06854 C163.817812,326.217907 170.39866,330 177.515672,330 Z" id="path-2"></path>
        <filter x="-1.6%" y="-1.6%" width="103.3%" height="103.3%" filterUnits="objectBoundingBox" id="filter-3">
            <feGaussianBlur stdDeviation="3" in="SourceAlpha" result="shadowBlurInner1"></feGaussianBlur>
            <feOffset dx="2.1" dy="2.1" in="shadowBlurInner1" result="shadowOffsetInner1"></feOffset>
            <feComposite in="shadowOffsetInner1" in2="SourceAlpha" operator="arithmetic" k2="-1" k3="1" result="shadowInnerInner1"></feComposite>
            <feColorMatrix values="0 0 0 0 0   0 0 0 0 0   0 0 0 0 0  0 0 0 0.200492527 0" type="matrix" in="shadowInnerInner1"></feColorMatrix>
        </filter>
    </defs>
    <g id="deployment" stroke="none" stroke-width="1" fill="none" fill-rule="evenodd" transform="translate(-918.000000, -681.000000)">
        <g id="Group-5" transform="translate(918.000000, 681.000000)">
            <g id="Group-10" opacity="0.4" fill="#D7DAE8">
                <path d="M153,225.474569 C153.729514,223.939152 154.474306,222.30061 155.26875,220.688805 C157.174653,216.815888 159.011806,212.904777 161.066667,209.112069 C162.170486,207.083944 162.250694,205.372833 161.120139,203.291235 C158.805556,199.047833 156.746875,194.659291 154.607986,190.320402 C154.038889,189.16693 153.553819,187.982902 153.057292,186.882902 C154.417014,185.24436 155.104514,186.191583 155.814931,187.268666 C158.549653,191.416583 161.509722,195.438458 163.992361,199.735333 C165.760764,202.794708 168.018056,204.062763 171.501389,204.093319 C176.206944,204.142971 180.904861,204.628041 185.598958,204.952694 C186.485069,205.013805 187.355903,205.189499 188.157986,205.307902 C188.727083,207.45061 187.355903,207.336027 186.194792,207.408596 C181.493056,207.698874 176.791319,208.21068 172.085764,208.195402 C168.315972,208.180124 165.768403,209.287763 163.8625,212.755819 C161.540278,216.980124 158.595486,220.868319 155.918056,224.905471 C155.261111,225.883249 154.653819,227.071096 153,225.474569" id="Fill-49"></path>
                <path d="M140.606704,164.627431 C139.934482,163.687847 139.162954,162.679514 138.463996,161.632986 C135.629968,157.397222 132.765385,153.188194 130.04594,148.883681 C129.029968,147.279514 127.784829,146.569097 125.92476,146.469792 C120.321635,146.171875 114.71469,145.789931 109.115385,145.392708 C108.217815,145.327778 106.842815,145.717361 107.01469,143.612847 C107.728927,143.444792 108.52719,143.143056 109.348371,143.085764 C114.294552,142.749653 119.244552,142.337153 124.20219,142.21875 C127.208093,142.15 129.274413,141.214236 130.855663,138.487153 C133.21226,134.427083 135.977538,130.607639 138.590038,126.700347 C139.224065,125.749306 139.957399,124.863194 140.595246,124 C142.741774,124.576736 141.985524,125.714931 141.473718,126.753819 C139.162954,131.436458 136.955315,136.180208 134.457399,140.755903 C133.135871,143.169792 133.00601,145.152083 134.38101,147.627083 C136.913302,152.1875 139.090385,156.942708 141.404968,161.625347 C141.909135,162.645139 142.787607,163.764236 140.606704,164.627431" id="Fill-99"></path>
                <path d="M80.9536787,143.002431 C81.1790259,145.309375 79.8078453,144.938889 78.902637,145 C73.9564565,145.347569 69.0102759,145.782986 64.0488176,145.878472 C60.7220815,145.943403 58.5220815,147.108333 56.8415259,150.095139 C54.6720815,153.956597 52.0175676,157.543056 49.5540259,161.236458 C48.8474287,162.282986 48.0759009,163.291319 47.3998592,164.230903 C45.249512,163.375347 46.0859703,162.260069 46.5939565,161.228819 C48.9123592,156.546181 51.093262,151.794792 53.6217342,147.238194 C54.9929148,144.763194 54.8668731,142.777083 53.5377065,140.363194 C51.0970815,135.905903 48.9429148,131.288194 46.6970815,126.716319 C46.2272898,125.746181 45.2342342,124.688194 47.5411787,123 C47.9498592,123.771528 48.2936092,124.58125 48.7710398,125.306944 C51.6356231,129.66875 54.6644426,133.938889 57.3647898,138.396181 C58.827637,140.810069 60.6418731,141.745833 63.3842342,141.806944 C68.212012,141.917708 73.0321509,142.337847 77.8446509,142.654861 C78.8720815,142.715972 79.8880537,142.876389 80.9536787,143.002431" id="Fill-100"></path>
                <path d="M155.64514,309 C159.094098,314.186806 162.577432,319.24375 165.835418,324.434375 C167.030904,326.321181 168.43264,327.046875 170.609723,327.119444 C175.834723,327.291319 181.048265,327.665625 186.261807,328.024653 C187.434376,328.104861 189.099654,327.627431 189.06146,330.178819 C187.732293,330.350694 186.357293,330.591319 184.978473,330.686806 C180.020835,331.022917 175.067015,331.404861 170.113196,331.588194 C168.199654,331.664583 167.011807,332.394097 165.992015,333.975347 C162.607987,339.234722 159.101737,344.413889 155.698612,349.531944 C153.601737,349.329514 153.815626,348.298264 154.434376,347.060764 C156.653473,342.622569 158.639585,338.043056 161.14514,333.769097 C163.024307,330.560764 162.959376,327.932986 161.084029,324.755208 C158.639585,320.607292 156.687848,316.153819 154.575696,311.814931 C154.109723,310.852431 153.151043,309.611111 155.64514,309" id="Fill-127"></path>
                <path d="M35.1379253,225.351592 C33.8125781,227.043606 33.1174392,226.096383 32.4032031,225.02312 C29.6723003,220.882842 26.7466059,216.845689 24.2334114,212.571731 C22.4726475,209.565828 20.3299392,208.148814 16.7587586,208.213745 C12.5955642,208.297772 8.40945308,207.789786 4.24243919,207.499508 C2.83688363,207.404022 1.43514752,207.178675 0.0868836342,207.022078 C-0.348533032,204.909925 0.934800301,204.909925 2.10736975,204.837356 C7.3285503,204.516522 12.542092,204.081106 17.767092,203.955064 C20.3834114,203.905411 22.0792447,203.061314 23.473342,200.769647 C26.2615364,196.190133 29.3361892,191.797772 32.3115364,187.351939 C32.960842,186.3818 33.5643142,185.129022 35.2066753,186.86687 C34.198342,188.948467 33.1632725,191.156106 32.0747309,193.348467 C30.3941753,196.743953 28.7900086,200.181453 26.9719531,203.50055 C25.9865364,205.299508 25.948342,206.789092 26.9184809,208.610967 C29.2521614,212.995689 31.3948697,217.479717 33.5872309,221.92555 C34.1563281,223.075203 34.6490364,224.26305 35.1379253,225.351592" id="Fill-128"></path>
                <path d="M35.1379253,101.351592 C33.8125781,103.043606 33.1174392,102.096383 32.4032031,101.02312 C29.6723003,96.8828418 26.7466059,92.845689 24.2334114,88.5717307 C22.4726475,85.5658279 20.3299392,84.148814 16.7587586,84.2137446 C12.5955642,84.2977724 8.40945308,83.7897863 4.24243919,83.4995085 C2.83688363,83.4040224 1.43514752,83.1786751 0.0868836342,83.0220779 C-0.348533032,80.9099251 0.934800301,80.9099251 2.10736975,80.8373557 C7.3285503,80.5165224 12.542092,80.0811057 17.767092,79.955064 C20.3834114,79.9054113 22.0792447,79.061314 23.473342,76.7696474 C26.2615364,72.1901335 29.3361892,67.7977724 32.3115364,63.351939 C32.960842,62.3818001 33.5643142,61.1290224 35.2066753,62.8668696 C34.198342,64.9484668 33.1632725,67.1561057 32.0747309,69.3484668 C30.3941753,72.7439529 28.7900086,76.1814529 26.9719531,79.5005501 C25.9865364,81.2995085 25.948342,82.7890918 26.9184809,84.6109668 C29.2521614,88.995689 31.3948697,93.4797168 33.5872309,97.9255501 C34.1563281,99.0752029 34.6490364,100.26305 35.1379253,101.351592" id="Fill-128"></path>
                <path d="M32.8034722,102.478472 C29.4003472,97.3642361 25.9322917,92.3072917 22.6475694,87.1357639 C21.6736111,85.6041667 20.6003472,84.7829861 19,84.5079861 L19,79.8329861 C20.6232639,79.4892361 21.784375,78.5993056 22.8118056,76.953125 C25.9819444,71.8541667 29.4079861,66.9194444 32.6736111,62 C34.2930556,62.0190972 34.8239583,62.6302083 34.1670139,63.9708333 C32.6659722,67.0149306 31.1152778,70.0399306 29.6524306,73.1069444 C28.2048611,76.1625 25.7833333,79.2371528 25.7527778,82.3270833 C25.7222222,85.2565972 28.2048611,88.228125 29.621875,91.1652778 C31.1076389,94.2170139 32.6239583,97.2572917 34.1517361,100.289931 C34.675,101.328819 34.5565972,102.031597 32.8034722,102.478472" id="Fill-141"></path>
                <path d="M189.067593,83.1673611 C187.730787,83.3315972 186.363426,83.5760417 184.976968,83.6715278 C180.023148,84.0152778 175.065509,84.3895833 170.11169,84.5805556 C168.198148,84.6493056 167.014121,85.3864583 165.998148,86.9677083 C162.606482,92.2232639 159.100232,97.40625 155.704746,102.524306 C153.600232,102.302778 153.829398,101.267708 154.444329,100.034028 C156.663426,95.5920139 158.649537,91.0163194 161.155093,86.7423611 C163.038079,83.5378472 162.954051,80.9100694 161.090162,77.7399306 C158.641898,73.5805556 156.690162,69.1347222 154.57419,64.784375 C154.108218,63.821875 153.160996,62.5920139 155.620718,62 C156.671065,63.5659722 157.820718,65.2503472 158.955093,66.95 C161.342246,70.5402778 163.798148,74.0885417 166.082176,77.7513889 C167.098148,79.3784722 168.358565,79.9972222 170.233912,80.0774306 C175.584954,80.2913194 180.935996,80.6465278 186.275579,81.009375 C187.451968,81.0857639 189.121065,80.6159722 189.067593,83.1673611" id="Fill-143"></path>
                <path d="M81.5371688,19.6090278 C80.3340438,21.93125 78.8864744,21.5722222 77.6871688,21.6524306 C72.7257105,22 67.7680716,22.4621528 62.8066133,22.4927083 C60.2017522,22.5079861 58.7847383,23.5697917 57.5014049,25.6361111 C54.950016,29.7420139 52.1961966,33.7256944 49.5111272,37.74375 C48.8618216,38.7100694 48.1475855,39.6229167 47.4753633,40.5510417 C45.5083494,40.115625 45.8864744,39.0805556 46.4632105,37.9194444 C48.6861272,33.4774306 50.6607799,28.8979167 53.1586966,24.6201389 C54.9729327,21.5225694 54.8316133,18.9864583 53.093766,15.9538194 C50.6989744,11.7715278 48.728141,7.32951389 46.5816133,3.00208333 C46.0507105,1.92881944 45.3364744,0.832638889 47.3951549,0 C48.0788355,0.9625 48.8541827,1.97465278 49.5645994,3.03263889 C52.3986272,7.27222222 55.2708494,11.48125 57.9941133,15.7934028 C59.0177244,17.4090278 60.2323077,18.0506944 62.1267522,18.1232639 C67.0882105,18.3104167 72.0496688,18.665625 77.0034883,19.0055556 C78.3746688,19.1010417 79.734391,19.3645833 81.5371688,19.6090278" id="Fill-153"></path>
                <path d="M140.6875,40.7076389 C136.619792,34.6270833 132.639931,28.6725694 128.767014,22.8746528 C121.483333,22.2559028 114.467014,21.6677083 107.454514,21.0413194 C107.317014,21.0336806 107.213889,20.6288194 107,20.2086806 C107.683681,18.8222222 109.123611,19.0934028 110.311458,19.0055556 C115.005556,18.6579861 119.711111,18.1347222 124.401389,18.1881944 C127.731944,18.2263889 129.622569,16.9010417 131.238194,14.1548611 C133.552778,10.2131944 136.234028,6.48541667 138.785417,2.68506944 C139.423264,1.73402778 140.156597,0.847916667 140.786806,0 C142.834028,0.748611111 142.096875,1.85625 141.577431,2.91423611 C139.369792,7.36770833 137.337847,11.9166667 134.889583,16.2326389 C133.308333,19.0284722 133.144097,21.3163194 134.805556,24.1809028 C137.284375,28.4701389 139.304861,33.034375 141.489583,37.4993056 C141.978472,38.4847222 142.948611,39.5923611 140.6875,40.7076389" id="Fill-154"></path>
                <path d="M47.4064549,288.585417 C45.3401355,287.848264 46.0467327,286.752083 46.5776355,285.682639 C48.6668716,281.469792 50.5002049,277.096528 52.933191,273.089931 C55.030066,269.621875 54.8123577,266.730556 52.8377049,263.361806 C50.5231216,259.423958 48.6745105,255.214931 46.6578438,251.109028 C46.1727744,250.108333 45.2255522,249.008333 47.1963855,248 C47.776941,248.695139 48.4873577,249.394097 49.0297188,250.2 C52.0241633,254.649653 55.0453438,259.076389 57.8946494,263.617708 C59.0061077,265.382292 60.3123577,266.035417 62.3557605,266.096528 C67.3172188,266.256944 72.2748577,266.623611 77.2286772,266.982639 C78.5502049,267.070486 79.8526355,267.406597 81.4873577,267.681597 C80.4828438,269.809028 79.0429133,269.530208 77.8512466,269.606597 C72.767566,269.954167 67.680066,270.339931 62.5849272,270.488889 C60.4078438,270.55 58.983191,271.241319 57.8106216,273.120486 C55.1866633,277.344792 52.3640938,281.431597 49.6064549,285.564236 C48.8883994,286.622222 48.0977744,287.630556 47.4064549,288.585417" id="Fill-179"></path>
                <path d="M106,267.586111 C108.051042,267.334028 109.555903,267.078125 111.072222,266.975 C115.896181,266.642708 120.723958,266.283681 125.559375,266.123264 C127.480556,266.058333 128.649306,265.325 129.661458,263.732292 C132.392361,259.431597 135.256944,255.211111 138.098611,250.975347 C138.789931,249.928819 139.576736,248.939583 140.256597,248 C142.353472,248.943403 141.505556,250.051042 140.997569,251.082292 C138.621875,255.890972 136.326389,260.737847 133.797917,265.458681 C132.686458,267.536458 132.717014,269.220833 133.820833,271.283333 C136.345486,276.004167 138.633333,280.854861 141.016667,285.659722 C141.528472,286.702431 142.330556,287.813889 140.2375,288.696181 C139.553819,287.741319 138.770833,286.732986 138.071875,285.682639 C135.306597,281.55 132.499306,277.444097 129.85625,273.246528 C128.706597,271.417014 127.373611,270.576736 125.135417,270.523264 C120.044097,270.408681 114.956597,270 109.869097,269.65625 C108.665972,269.576042 107.2375,269.870139 106,267.586111" id="Fill-180"></path>
                <path d="M368,225.474569 C368.729514,223.939152 369.474306,222.30061 370.26875,220.688805 C372.174653,216.815888 374.011806,212.904777 376.066667,209.112069 C377.170486,207.083944 377.250694,205.372833 376.120139,203.291235 C373.805556,199.047833 371.746875,194.659291 369.607986,190.320402 C369.038889,189.16693 368.553819,187.982902 368.057292,186.882902 C369.417014,185.24436 370.104514,186.191583 370.814931,187.268666 C373.549653,191.416583 376.509722,195.438458 378.992361,199.735333 C380.760764,202.794708 383.018056,204.062763 386.501389,204.093319 C391.206944,204.142971 395.904861,204.628041 400.598958,204.952694 C401.485069,205.013805 402.355903,205.189499 403.157986,205.307902 C403.727083,207.45061 402.355903,207.336027 401.194792,207.408596 C396.493056,207.698874 391.791319,208.21068 387.085764,208.195402 C383.315972,208.180124 380.768403,209.287763 378.8625,212.755819 C376.540278,216.980124 373.595486,220.868319 370.918056,224.905471 C370.261111,225.883249 369.653819,227.071096 368,225.474569" id="Fill-49"></path>
                <path d="M295.942635,392.259028 C292.566246,392.537847 289.105829,392.854861 285.645413,393.099306 C282.780829,393.309375 279.908607,393.48125 277.036385,393.565278 C275.164857,393.622569 273.946454,394.439931 272.934301,396.028819 C270.05444,400.539583 267.056176,404.970139 264.069371,409.415972 C263.519371,410.229514 262.831871,410.959028 262.251315,411.661806 C260.215551,410.748958 261.162774,409.6375 261.647843,408.636806 C264.012079,403.835764 266.315204,399.004167 268.828399,394.283333 C269.92076,392.236111 269.98569,390.563194 268.866593,388.481597 C266.330482,383.772222 264.046454,378.925347 261.674579,374.128125 C261.18951,373.135069 260.288121,372.061806 262.094718,371 C262.667635,371.614931 263.339857,372.16875 263.80201,372.867708 C266.861385,377.416667 269.939857,381.957986 272.87319,386.587153 C273.961732,388.309722 275.275621,389.104167 277.311385,389.192014 C282.788468,389.432639 288.254093,389.806944 293.731176,390.173611 C294.792982,390.246181 296.309301,389.902431 295.942635,392.259028" id="Fill-63"></path>
                <path d="M355.606704,164.627431 C354.934482,163.687847 354.162954,162.679514 353.463996,161.632986 C350.629968,157.397222 347.765385,153.188194 345.04594,148.883681 C344.029968,147.279514 342.784829,146.569097 340.92476,146.469792 C335.321635,146.171875 329.71469,145.789931 324.115385,145.392708 C323.217815,145.327778 321.842815,145.717361 322.01469,143.612847 C322.728927,143.444792 323.52719,143.143056 324.348371,143.085764 C329.294552,142.749653 334.244552,142.337153 339.20219,142.21875 C342.208093,142.15 344.274413,141.214236 345.855663,138.487153 C348.21226,134.427083 350.977538,130.607639 353.590038,126.700347 C354.224065,125.749306 354.957399,124.863194 355.595246,124 C357.741774,124.576736 356.985524,125.714931 356.473718,126.753819 C354.162954,131.436458 351.955315,136.180208 349.457399,140.755903 C348.135871,143.169792 348.00601,145.152083 349.38101,147.627083 C351.913302,152.1875 354.090385,156.942708 356.404968,161.625347 C356.909135,162.645139 357.787607,163.764236 355.606704,164.627431" id="Fill-99"></path>
                <path d="M295.953679,143.002431 C296.179026,145.309375 294.807845,144.938889 293.902637,145 C288.956456,145.347569 284.010276,145.782986 279.048818,145.878472 C275.722081,145.943403 273.522081,147.108333 271.841526,150.095139 C269.672081,153.956597 267.017568,157.543056 264.554026,161.236458 C263.847429,162.282986 263.075901,163.291319 262.399859,164.230903 C260.249512,163.375347 261.08597,162.260069 261.593956,161.228819 C263.912359,156.546181 266.093262,151.794792 268.621734,147.238194 C269.992915,144.763194 269.866873,142.777083 268.537706,140.363194 C266.097081,135.905903 263.942915,131.288194 261.697081,126.716319 C261.22729,125.746181 260.234234,124.688194 262.541179,123 C262.949859,123.771528 263.293609,124.58125 263.77104,125.306944 C266.635623,129.66875 269.664443,133.938889 272.36479,138.396181 C273.827637,140.810069 275.641873,141.745833 278.384234,141.806944 C283.212012,141.917708 288.032151,142.337847 292.844651,142.654861 C293.872081,142.715972 294.888054,142.876389 295.953679,143.002431" id="Fill-100"></path>
                <path d="M322,392.201736 C322.106944,389.730556 323.627083,390.261458 324.635417,390.188889 C329.581597,389.833681 334.535417,389.440278 339.489236,389.314236 C342.365278,389.241667 344.313194,388.336458 345.829514,385.735417 C348.266319,381.568403 351.096528,377.642014 353.785417,373.627778 C354.411806,372.699653 355.145139,371.847917 355.798264,371 C358.09375,372.153472 356.764583,373.387153 356.268056,374.406944 C353.884722,379.341667 351.405903,384.234375 348.976736,389.146181 C348.632986,389.845139 348.342708,390.574653 347.934028,391.491319 C350.66875,397.002778 353.4875,402.594444 356.214583,408.224306 C356.703472,409.232639 358.051736,410.416667 356.004514,411.703819 C355.435417,411.092708 354.751736,410.542708 354.289583,409.859028 C351.298958,405.417014 348.266319,401.001736 345.439931,396.460417 C344.202431,394.466667 342.686111,393.603472 340.386806,393.504167 C335.299306,393.290278 330.219444,392.900694 325.139583,392.556944 C324.119792,392.495833 323.107639,392.331597 322,392.201736" id="Fill-109"></path>
                <path d="M370.64514,309 C374.094098,314.186806 377.577432,319.24375 380.835418,324.434375 C382.030904,326.321181 383.43264,327.046875 385.609723,327.119444 C390.834723,327.291319 396.048265,327.665625 401.261807,328.024653 C402.434376,328.104861 404.099654,327.627431 404.06146,330.178819 C402.732293,330.350694 401.357293,330.591319 399.978473,330.686806 C395.020835,331.022917 390.067015,331.404861 385.113196,331.588194 C383.199654,331.664583 382.011807,332.394097 380.992015,333.975347 C377.607987,339.234722 374.101737,344.413889 370.698612,349.531944 C368.601737,349.329514 368.815626,348.298264 369.434376,347.060764 C371.653473,342.622569 373.639585,338.043056 376.14514,333.769097 C378.024307,330.560764 377.959376,327.932986 376.084029,324.755208 C373.639585,320.607292 371.687848,316.153819 369.575696,311.814931 C369.109723,310.852431 368.151043,309.611111 370.64514,309" id="Fill-127"></path>
                <path d="M250.137925,349.351592 C248.812578,351.043606 248.117439,350.096383 247.403203,349.02312 C244.6723,344.882842 241.746606,340.845689 239.233411,336.571731 C237.472648,333.565828 235.329939,332.148814 231.758759,332.213745 C227.595564,332.297772 223.409453,331.789786 219.242439,331.499508 C217.836884,331.404022 216.435148,331.178675 215.086884,331.022078 C214.651467,328.909925 215.9348,328.909925 217.10737,328.837356 C222.32855,328.516522 227.542092,328.081106 232.767092,327.955064 C235.383411,327.905411 237.079245,327.061314 238.473342,324.769647 C241.261536,320.190133 244.336189,315.797772 247.311536,311.351939 C247.960842,310.3818 248.564314,309.129022 250.206675,310.86687 C249.198342,312.948467 248.163273,315.156106 247.074731,317.348467 C245.394175,320.743953 243.790009,324.181453 241.971953,327.50055 C240.986536,329.299508 240.948342,330.789092 241.918481,332.610967 C244.252161,336.995689 246.39487,341.479717 248.587231,345.92555 C249.156328,347.075203 249.649036,348.26305 250.137925,349.351592" id="Fill-128"></path>
                <path d="M250.137925,225.351592 C248.812578,227.043606 248.117439,226.096383 247.403203,225.02312 C244.6723,220.882842 241.746606,216.845689 239.233411,212.571731 C237.472648,209.565828 235.329939,208.148814 231.758759,208.213745 C227.595564,208.297772 223.409453,207.789786 219.242439,207.499508 C217.836884,207.404022 216.435148,207.178675 215.086884,207.022078 C214.651467,204.909925 215.9348,204.909925 217.10737,204.837356 C222.32855,204.516522 227.542092,204.081106 232.767092,203.955064 C235.383411,203.905411 237.079245,203.061314 238.473342,200.769647 C241.261536,196.190133 244.336189,191.797772 247.311536,187.351939 C247.960842,186.3818 248.564314,185.129022 250.206675,186.86687 C249.198342,188.948467 248.163273,191.156106 247.074731,193.348467 C245.394175,196.743953 243.790009,200.181453 241.971953,203.50055 C240.986536,205.299508 240.948342,206.789092 241.918481,208.610967 C244.252161,212.995689 246.39487,217.479717 248.587231,221.92555 C249.156328,223.075203 249.649036,224.26305 250.137925,225.351592" id="Fill-128"></path>
                <path d="M250.137925,101.351592 C248.812578,103.043606 248.117439,102.096383 247.403203,101.02312 C244.6723,96.8828418 241.746606,92.845689 239.233411,88.5717307 C237.472648,85.5658279 235.329939,84.148814 231.758759,84.2137446 C227.595564,84.2977724 223.409453,83.7897863 219.242439,83.4995085 C217.836884,83.4040224 216.435148,83.1786751 215.086884,83.0220779 C214.651467,80.9099251 215.9348,80.9099251 217.10737,80.8373557 C222.32855,80.5165224 227.542092,80.0811057 232.767092,79.955064 C235.383411,79.9054113 237.079245,79.061314 238.473342,76.7696474 C241.261536,72.1901335 244.336189,67.7977724 247.311536,63.351939 C247.960842,62.3818001 248.564314,61.1290224 250.206675,62.8668696 C249.198342,64.9484668 248.163273,67.1561057 247.074731,69.3484668 C245.394175,72.7439529 243.790009,76.1814529 241.971953,79.5005501 C240.986536,81.2995085 240.948342,82.7890918 241.918481,84.6109668 C244.252161,88.995689 246.39487,93.4797168 248.587231,97.9255501 C249.156328,99.0752029 249.649036,100.26305 250.137925,101.351592" id="Fill-128"></path>
                <path d="M247.803472,102.478472 C244.400347,97.3642361 240.932292,92.3072917 237.647569,87.1357639 C236.673611,85.6041667 235.600347,84.7829861 234,84.5079861 L234,79.8329861 C235.623264,79.4892361 236.784375,78.5993056 237.811806,76.953125 C240.981944,71.8541667 244.407986,66.9194444 247.673611,62 C249.293056,62.0190972 249.823958,62.6302083 249.167014,63.9708333 C247.665972,67.0149306 246.115278,70.0399306 244.652431,73.1069444 C243.204861,76.1625 240.783333,79.2371528 240.752778,82.3270833 C240.722222,85.2565972 243.204861,88.228125 244.621875,91.1652778 C246.107639,94.2170139 247.623958,97.2572917 249.151736,100.289931 C249.675,101.328819 249.556597,102.031597 247.803472,102.478472" id="Fill-141"></path>
                <path d="M404.067593,83.1673611 C402.730787,83.3315972 401.363426,83.5760417 399.976968,83.6715278 C395.023148,84.0152778 390.065509,84.3895833 385.11169,84.5805556 C383.198148,84.6493056 382.014121,85.3864583 380.998148,86.9677083 C377.606482,92.2232639 374.100232,97.40625 370.704746,102.524306 C368.600232,102.302778 368.829398,101.267708 369.444329,100.034028 C371.663426,95.5920139 373.649537,91.0163194 376.155093,86.7423611 C378.038079,83.5378472 377.954051,80.9100694 376.090162,77.7399306 C373.641898,73.5805556 371.690162,69.1347222 369.57419,64.784375 C369.108218,63.821875 368.160996,62.5920139 370.620718,62 C371.671065,63.5659722 372.820718,65.2503472 373.955093,66.95 C376.342246,70.5402778 378.798148,74.0885417 381.082176,77.7513889 C382.098148,79.3784722 383.358565,79.9972222 385.233912,80.0774306 C390.584954,80.2913194 395.935996,80.6465278 401.275579,81.009375 C402.451968,81.0857639 404.121065,80.6159722 404.067593,83.1673611" id="Fill-143"></path>
                <path d="M296.537169,19.6090278 C295.334044,21.93125 293.886474,21.5722222 292.687169,21.6524306 C287.72571,22 282.768072,22.4621528 277.806613,22.4927083 C275.201752,22.5079861 273.784738,23.5697917 272.501405,25.6361111 C269.950016,29.7420139 267.196197,33.7256944 264.511127,37.74375 C263.861822,38.7100694 263.147585,39.6229167 262.475363,40.5510417 C260.508349,40.115625 260.886474,39.0805556 261.46321,37.9194444 C263.686127,33.4774306 265.66078,28.8979167 268.158697,24.6201389 C269.972933,21.5225694 269.831613,18.9864583 268.093766,15.9538194 C265.698974,11.7715278 263.728141,7.32951389 261.581613,3.00208333 C261.05071,1.92881944 260.336474,0.832638889 262.395155,0 C263.078835,0.9625 263.854183,1.97465278 264.564599,3.03263889 C267.398627,7.27222222 270.270849,11.48125 272.994113,15.7934028 C274.017724,17.4090278 275.232308,18.0506944 277.126752,18.1232639 C282.08821,18.3104167 287.049669,18.665625 292.003488,19.0055556 C293.374669,19.1010417 294.734391,19.3645833 296.537169,19.6090278" id="Fill-153"></path>
                <path d="M355.6875,40.7076389 C351.619792,34.6270833 347.639931,28.6725694 343.767014,22.8746528 C336.483333,22.2559028 329.467014,21.6677083 322.454514,21.0413194 C322.317014,21.0336806 322.213889,20.6288194 322,20.2086806 C322.683681,18.8222222 324.123611,19.0934028 325.311458,19.0055556 C330.005556,18.6579861 334.711111,18.1347222 339.401389,18.1881944 C342.731944,18.2263889 344.622569,16.9010417 346.238194,14.1548611 C348.552778,10.2131944 351.234028,6.48541667 353.785417,2.68506944 C354.423264,1.73402778 355.156597,0.847916667 355.786806,0 C357.834028,0.748611111 357.096875,1.85625 356.577431,2.91423611 C354.369792,7.36770833 352.337847,11.9166667 349.889583,16.2326389 C348.308333,19.0284722 348.144097,21.3163194 349.805556,24.1809028 C352.284375,28.4701389 354.304861,33.034375 356.489583,37.4993056 C356.978472,38.4847222 357.948611,39.5923611 355.6875,40.7076389" id="Fill-154"></path>
                <path d="M262.406455,288.585417 C260.340135,287.848264 261.046733,286.752083 261.577635,285.682639 C263.666872,281.469792 265.500205,277.096528 267.933191,273.089931 C270.030066,269.621875 269.812358,266.730556 267.837705,263.361806 C265.523122,259.423958 263.67451,255.214931 261.657844,251.109028 C261.172774,250.108333 260.225552,249.008333 262.196385,248 C262.776941,248.695139 263.487358,249.394097 264.029719,250.2 C267.024163,254.649653 270.045344,259.076389 272.894649,263.617708 C274.006108,265.382292 275.312358,266.035417 277.35576,266.096528 C282.317219,266.256944 287.274858,266.623611 292.228677,266.982639 C293.550205,267.070486 294.852635,267.406597 296.487358,267.681597 C295.482844,269.809028 294.042913,269.530208 292.851247,269.606597 C287.767566,269.954167 282.680066,270.339931 277.584927,270.488889 C275.407844,270.55 273.983191,271.241319 272.810622,273.120486 C270.186663,277.344792 267.364094,281.431597 264.606455,285.564236 C263.888399,286.622222 263.097774,287.630556 262.406455,288.585417" id="Fill-179"></path>
                <path d="M321,267.586111 C323.051042,267.334028 324.555903,267.078125 326.072222,266.975 C330.896181,266.642708 335.723958,266.283681 340.559375,266.123264 C342.480556,266.058333 343.649306,265.325 344.661458,263.732292 C347.392361,259.431597 350.256944,255.211111 353.098611,250.975347 C353.789931,249.928819 354.576736,248.939583 355.256597,248 C357.353472,248.943403 356.505556,250.051042 355.997569,251.082292 C353.621875,255.890972 351.326389,260.737847 348.797917,265.458681 C347.686458,267.536458 347.717014,269.220833 348.820833,271.283333 C351.345486,276.004167 353.633333,280.854861 356.016667,285.659722 C356.528472,286.702431 357.330556,287.813889 355.2375,288.696181 C354.553819,287.741319 353.770833,286.732986 353.071875,285.682639 C350.306597,281.55 347.499306,277.444097 344.85625,273.246528 C343.706597,271.417014 342.373611,270.576736 340.135417,270.523264 C335.044097,270.408681 329.956597,270 324.869097,269.65625 C323.665972,269.576042 322.2375,269.870139 321,267.586111" id="Fill-180"></path>
                <path d="M509.953679,143.002431 C510.179026,145.309375 508.807845,144.938889 507.902637,145 C502.956456,145.347569 498.010276,145.782986 493.048818,145.878472 C489.722081,145.943403 487.522081,147.108333 485.841526,150.095139 C483.672081,153.956597 481.017568,157.543056 478.554026,161.236458 C477.847429,162.282986 477.075901,163.291319 476.399859,164.230903 C474.249512,163.375347 475.08597,162.260069 475.593956,161.228819 C477.912359,156.546181 480.093262,151.794792 482.621734,147.238194 C483.992915,144.763194 483.866873,142.777083 482.537706,140.363194 C480.097081,135.905903 477.942915,131.288194 475.697081,126.716319 C475.22729,125.746181 474.234234,124.688194 476.541179,123 C476.949859,123.771528 477.293609,124.58125 477.77104,125.306944 C480.635623,129.66875 483.664443,133.938889 486.36479,138.396181 C487.827637,140.810069 489.641873,141.745833 492.384234,141.806944 C497.212012,141.917708 502.032151,142.337847 506.844651,142.654861 C507.872081,142.715972 508.888054,142.876389 509.953679,143.002431" id="Fill-100"></path>
                <path d="M464.137925,349.351592 C462.812578,351.043606 462.117439,350.096383 461.403203,349.02312 C458.6723,344.882842 455.746606,340.845689 453.233411,336.571731 C451.472648,333.565828 449.329939,332.148814 445.758759,332.213745 C441.595564,332.297772 437.409453,331.789786 433.242439,331.499508 C431.836884,331.404022 430.435148,331.178675 429.086884,331.022078 C428.651467,328.909925 429.9348,328.909925 431.10737,328.837356 C436.32855,328.516522 441.542092,328.081106 446.767092,327.955064 C449.383411,327.905411 451.079245,327.061314 452.473342,324.769647 C455.261536,320.190133 458.336189,315.797772 461.311536,311.351939 C461.960842,310.3818 462.564314,309.129022 464.206675,310.86687 C463.198342,312.948467 462.163273,315.156106 461.074731,317.348467 C459.394175,320.743953 457.790009,324.181453 455.971953,327.50055 C454.986536,329.299508 454.948342,330.789092 455.918481,332.610967 C458.252161,336.995689 460.39487,341.479717 462.587231,345.92555 C463.156328,347.075203 463.649036,348.26305 464.137925,349.351592" id="Fill-128"></path>
                <path d="M464.137925,225.351592 C462.812578,227.043606 462.117439,226.096383 461.403203,225.02312 C458.6723,220.882842 455.746606,216.845689 453.233411,212.571731 C451.472648,209.565828 449.329939,208.148814 445.758759,208.213745 C441.595564,208.297772 437.409453,207.789786 433.242439,207.499508 C431.836884,207.404022 430.435148,207.178675 429.086884,207.022078 C428.651467,204.909925 429.9348,204.909925 431.10737,204.837356 C436.32855,204.516522 441.542092,204.081106 446.767092,203.955064 C449.383411,203.905411 451.079245,203.061314 452.473342,200.769647 C455.261536,196.190133 458.336189,191.797772 461.311536,187.351939 C461.960842,186.3818 462.564314,185.129022 464.206675,186.86687 C463.198342,188.948467 462.163273,191.156106 461.074731,193.348467 C459.394175,196.743953 457.790009,200.181453 455.971953,203.50055 C454.986536,205.299508 454.948342,206.789092 455.918481,208.610967 C458.252161,212.995689 460.39487,217.479717 462.587231,221.92555 C463.156328,223.075203 463.649036,224.26305 464.137925,225.351592" id="Fill-128"></path>
                <path d="M464.137925,101.351592 C462.812578,103.043606 462.117439,102.096383 461.403203,101.02312 C458.6723,96.8828418 455.746606,92.845689 453.233411,88.5717307 C451.472648,85.5658279 449.329939,84.148814 445.758759,84.2137446 C441.595564,84.2977724 437.409453,83.7897863 433.242439,83.4995085 C431.836884,83.4040224 430.435148,83.1786751 429.086884,83.0220779 C428.651467,80.9099251 429.9348,80.9099251 431.10737,80.8373557 C436.32855,80.5165224 441.542092,80.0811057 446.767092,79.955064 C449.383411,79.9054113 451.079245,79.061314 452.473342,76.7696474 C455.261536,72.1901335 458.336189,67.7977724 461.311536,63.351939 C461.960842,62.3818001 462.564314,61.1290224 464.206675,62.8668696 C463.198342,64.9484668 462.163273,67.1561057 461.074731,69.3484668 C459.394175,72.7439529 457.790009,76.1814529 455.971953,79.5005501 C454.986536,81.2995085 454.948342,82.7890918 455.918481,84.6109668 C458.252161,88.995689 460.39487,93.4797168 462.587231,97.9255501 C463.156328,99.0752029 463.649036,100.26305 464.137925,101.351592" id="Fill-128"></path>
                <path d="M461.803472,102.478472 C458.400347,97.3642361 454.932292,92.3072917 451.647569,87.1357639 C450.673611,85.6041667 449.600347,84.7829861 448,84.5079861 L448,79.8329861 C449.623264,79.4892361 450.784375,78.5993056 451.811806,76.953125 C454.981944,71.8541667 458.407986,66.9194444 461.673611,62 C463.293056,62.0190972 463.823958,62.6302083 463.167014,63.9708333 C461.665972,67.0149306 460.115278,70.0399306 458.652431,73.1069444 C457.204861,76.1625 454.783333,79.2371528 454.752778,82.3270833 C454.722222,85.2565972 457.204861,88.228125 458.621875,91.1652778 C460.107639,94.2170139 461.623958,97.2572917 463.151736,100.289931 C463.675,101.328819 463.556597,102.031597 461.803472,102.478472" id="Fill-141"></path>
                <path d="M476.406455,288.585417 C474.340135,287.848264 475.046733,286.752083 475.577635,285.682639 C477.666872,281.469792 479.500205,277.096528 481.933191,273.089931 C484.030066,269.621875 483.812358,266.730556 481.837705,263.361806 C479.523122,259.423958 477.67451,255.214931 475.657844,251.109028 C475.172774,250.108333 474.225552,249.008333 476.196385,248 C476.776941,248.695139 477.487358,249.394097 478.029719,250.2 C481.024163,254.649653 484.045344,259.076389 486.894649,263.617708 C488.006108,265.382292 489.312358,266.035417 491.35576,266.096528 C496.317219,266.256944 501.274858,266.623611 506.228677,266.982639 C507.550205,267.070486 508.852635,267.406597 510.487358,267.681597 C509.482844,269.809028 508.042913,269.530208 506.851247,269.606597 C501.767566,269.954167 496.680066,270.339931 491.584927,270.488889 C489.407844,270.55 487.983191,271.241319 486.810622,273.120486 C484.186663,277.344792 481.364094,281.431597 478.606455,285.564236 C477.888399,286.622222 477.097774,287.630556 476.406455,288.585417" id="Fill-179"></path>
            </g>
            <g id="Path-4" opacity="0.850147192">
                <use fill="url(#linearGradient-1)" fill-rule="evenodd" xlink:href="#path-2"></use>
                <use fill="black" fill-opacity="1" filter="url(#filter-3)" xlink:href="#path-2"></use>
            </g>
            <g id="Group-6" transform="translate(213.000000, 171.000000)" fill="#FFFFFF" fill-rule="nonzero">
                <path d="M54.1694915,0.958333333 C53.5932203,0.958333333 53.0169492,0.958333333 52.6327684,0.958333333 L11.1412429,0.958333333 C9.79661017,0.958333333 8.25988701,1.15 6.91525424,1.725 C2.88135593,3.25833333 0,7.28333333 0,11.5 C0,26.6416667 0,41.7833333 0,56.925 C0,58.8416667 0.384180791,60.95 1.34463277,62.4833333 C2.88135593,65.1666667 5.37853107,67.0833333 8.25988701,67.6583333 L8.25988701,33.5416667 C8.25988701,31.625 8.4519774,29.5166667 9.79661017,27.9833333 C11.1412429,26.2583333 13.0621469,25.1083333 15.3672316,24.725 L15.3672316,15.7166667 C14.0225989,14.95 13.0621469,13.8 12.6779661,12.2666667 C12.2937853,10.35 13.0621469,8.24166667 14.7909605,7.28333333 C16.519774,6.13333333 18.8248588,6.325 20.5536723,7.475 C22.0903955,8.625 22.8587571,10.925 22.2824859,12.8416667 C21.8983051,14.1833333 20.9378531,15.1416667 19.7853107,15.7166667 L19.7853107,24.725 L50.519774,24.725 C52.8248588,24.725 54.9378531,25.4916667 56.4745763,27.2166667 C58.0112994,28.75 58.779661,30.8583333 58.779661,32.9666667 L58.779661,43.8916667 C58.779661,47.15 56.6666667,50.2166667 53.5932203,51.3666667 C52.2485876,51.9416667 50.9039548,51.9416667 49.559322,51.9416667 L26.700565,51.9416667 L26.700565,68.0416667 L56.6666667,68.0416667 C61.0847458,68.0416667 65.3107345,64.7833333 66.6553672,60.5666667 C67.4237288,58.65 67.2316384,56.5416667 67.2316384,54.4333333 L67.2316384,12.075 C67.4237288,7.28333333 64.1581921,2.875 59.5480226,1.53333333 C58.2033898,1.15 57.0508475,1.15 55.7062147,1.15 L54.1694915,1.15 L54.1694915,0.958333333 Z" id="Shape"></path>
                <path d="M24.779661,32.5833333 C22.2824859,33.35 20.5536723,35.65 20.3615819,38.1416667 C20.1694915,40.4416667 21.5141243,42.7416667 23.4350282,43.8916667 C25.1638418,44.85 27.2768362,44.85 29.0056497,44.0833333 C31.8870056,42.7416667 33.2316384,39.2916667 32.079096,36.4166667 C31.3107345,34.1166667 28.8135593,32.3916667 26.3163842,32.3916667 C25.740113,32.3916667 25.3559322,32.3916667 24.779661,32.5833333 Z" id="Shape"></path>
                <path d="M42.6440678,32.5833333 C39.5706215,33.5416667 37.8418079,36.8 38.6101695,39.8666667 C39.1864407,42.9333333 42.6440678,45.2333333 45.9096045,44.4666667 C49.1751412,43.8916667 51.2881356,40.0583333 50.519774,36.9916667 C49.9435028,34.3083333 47.2542373,32.2 44.5649718,32.2 C43.7966102,32.3916667 43.220339,32.3916667 42.6440678,32.5833333 Z" id="Shape"></path>
            </g>
            <g id="Group" transform="translate(399.000000, 126.000000)" fill="#8378E6">
                <path d="M35.3221351,9.95877 L33.6468681,9.95877 L33.6468681,12.390042 L35.3221351,12.390042 C35.9692041,12.390042 36.4937593,12.911704 36.4937593,13.555426 L36.4937593,20.444914 C36.4937593,21.088262 35.9692041,21.609924 35.3221351,21.609924 L33.6468681,21.609924 L33.6468681,24.04089 L35.3221351,24.04089 C35.9692041,24.04089 36.4937593,24.562858 36.4937593,25.20624 L36.4937593,32.095728 C36.4937593,32.73945 35.9692041,33.260738 35.3221351,33.260738 L1.90143181,33.260738 C1.25440074,33.260738 0.729921488,32.73945 0.729921488,32.095728 L0.729921488,25.20624 C0.729921488,24.562858 1.25440074,24.04089 1.90143181,24.04089 L3.57673674,24.04089 L3.57673674,21.609924 L1.90143181,21.609924 C1.25440074,21.609924 0.729921488,21.088262 0.729921488,20.444914 L0.729921488,13.555426 C0.729921488,12.911704 1.25440074,12.390042 1.90143181,12.390042 L3.57673674,12.390042 L3.57673674,9.95877 L1.90143181,9.95877 C1.25440074,9.95877 0.729921488,9.437448 0.729921488,8.79376 L0.729921488,1.903898 C0.729921488,1.26089 1.25440074,0.739228 1.90143181,0.739228 L35.3221351,0.739228 C35.9692041,0.739228 36.4937593,1.26089 36.4937593,1.903898 L36.4937593,8.79376 C36.4937593,9.437448 35.9692041,9.95877 35.3221351,9.95877 Z M34.9316316,25.594894 L2.29193526,25.594894 L2.29193526,31.70772 L34.9316316,31.70772 L34.9316316,25.594894 Z M5.13890233,24.04089 L32.0847405,24.04089 L32.0847405,21.609924 L5.13890233,21.609924 L5.13890233,24.04089 Z M34.9316316,13.9434 L2.29193526,13.9434 L2.29193526,20.056566 L34.9316316,20.056566 L34.9316316,13.9434 Z M5.13890233,12.390042 L32.0847405,12.390042 L32.0847405,9.95877 L5.13890233,9.95877 L5.13890233,12.390042 Z M2.29193526,8.405412 L34.9316316,8.405412 L34.9316316,2.292586 L2.29193526,2.292586 L2.29193526,8.405412 Z" id="Combined-shape-1787"></path>
                <path d="M8.41144697,3.94345083 C9.19215169,3.94345083 9.82508011,4.57249517 9.82508011,5.34883048 C9.82508011,6.12584874 9.19215169,6.75489309 8.41144697,6.75489309 C7.63067073,6.75489309 6.9977423,6.12584874 6.9977423,5.34883048 C6.9977423,4.57249517 7.63067073,3.94345083 8.41144697,3.94345083 Z" id="Path"></path>
                <path d="M12.9961335,3.94345083 C13.7769046,3.94345083 14.4098382,4.57249517 14.4098382,5.34883048 C14.4098382,6.12584874 13.7769046,6.75489309 12.9961335,6.75489309 C12.2153572,6.75489309 11.5824288,6.12584874 11.5824288,5.34883048 C11.5824288,4.57249517 12.2153572,3.94345083 12.9961335,3.94345083 Z" id="Path"></path>
                <path d="M17.5808207,3.94345083 C18.361597,3.94345083 18.9945254,4.57249517 18.9945254,5.34883048 C18.9945254,6.12584874 18.361597,6.75489309 17.5808207,6.75489309 C16.800116,6.75489309 16.1671161,6.12584874 16.1671161,5.34883048 C16.1671161,4.57249517 16.800116,3.94345083 17.5808207,3.94345083 Z" id="Path"></path>
                <path d="M8.41144697,15.59393 C9.19215169,15.59393 9.82508011,16.2236558 9.82508011,17.0003326 C9.82508011,17.775985 9.19215169,18.4057152 8.41144697,18.4057152 C7.63067073,18.4057152 6.9977423,17.775985 6.9977423,17.0003326 C6.9977423,16.2236558 7.63067073,15.59393 8.41144697,15.59393 Z" id="Path"></path>
                <path d="M12.9961335,15.59393 C13.7769046,15.59393 14.4098382,16.2236558 14.4098382,17.0003326 C14.4098382,17.775985 13.7769046,18.4057152 12.9961335,18.4057152 C12.2153572,18.4057152 11.5824288,17.775985 11.5824288,17.0003326 C11.5824288,16.2236558 12.2153572,15.59393 12.9961335,15.59393 Z" id="Path"></path>
                <path d="M17.5808207,15.59393 C18.361597,15.59393 18.9945254,16.2236558 18.9945254,17.0003326 C18.9945254,17.775985 18.361597,18.4057152 17.5808207,18.4057152 C16.800116,18.4057152 16.1671161,17.775985 16.1671161,17.0003326 C16.1671161,16.2236558 16.800116,15.59393 17.5808207,15.59393 Z" id="Path"></path>
                <path d="M8.41144697,27.2447447 C9.19215169,27.2447447 9.82508011,27.8744772 9.82508011,28.6508073 C9.82508011,29.4274841 9.19215169,30.0572114 8.41144697,30.0572114 C7.63067073,30.0572114 6.9977423,29.4274841 6.9977423,28.6508073 C6.9977423,27.8744772 7.63067073,27.2447447 8.41144697,27.2447447 Z" id="Path"></path>
                <path d="M12.9961335,27.2447447 C13.7769046,27.2447447 14.4098382,27.8744772 14.4098382,28.6508073 C14.4098382,29.4274841 13.7769046,30.0572114 12.9961335,30.0572114 C12.2153572,30.0572114 11.5824288,29.4274841 11.5824288,28.6508073 C11.5824288,27.8744772 12.2153572,27.2447447 12.9961335,27.2447447 Z" id="Path"></path>
                <path d="M17.5808207,27.2447447 C18.361597,27.2447447 18.9945254,27.8744772 18.9945254,28.6508073 C18.9945254,29.4274841 18.361597,30.0572114 17.5808207,30.0572114 C16.800116,30.0572114 16.1671161,29.4274841 16.1671161,28.6508073 C16.1671161,27.8744772 16.800116,27.2447447 17.5808207,27.2447447 Z" id="Path"></path>
            </g>
            <g id="Group" transform="translate(405.000000, 250.000000)" fill="#23B6FB" fill-rule="nonzero">
                <path d="M26.2725448,7.07862086 C26.2725448,4.85208151 24.509061,3.10301914 22.1332037,1.94893118 C19.7576018,0.794843226 16.604984,0.132398925 13.1363636,0.132398925 C9.66774331,0.132398925 6.51512551,0.794846882 4.13934116,1.94893118 C1.76348384,3.10301548 0,4.85207419 0,7.07862086 C0.00474368687,12.1109499 0,21.7238065 0,26.8205892 C0,29.0471505 1.76348384,30.7847699 4.13934116,31.9388688 C6.51512551,33.0929677 9.66774331,33.7668258 13.1363636,33.7668258 C16.604984,33.7668258 19.7576018,33.0929677 22.1333861,31.9388688 C24.5092434,30.7847699 26.2727273,29.0471505 26.2727273,26.8205892 L26.2725448,7.07862086 Z M13.1363636,2.32594731 C16.3181734,2.32594731 19.193103,2.96241269 21.1755263,3.92540968 C23.157986,4.88840667 24.0833333,6.07460452 24.0833333,7.07862086 C24.0833333,8.08268108 23.1580225,9.25743591 21.1755263,10.2204402 C19.193103,11.1834445 16.3181734,11.831309 13.1363636,11.831309 C9.9545904,11.831309 7.07962424,11.1834445 5.09720101,10.2204402 C3.11474129,9.25743591 2.18939394,8.08264452 2.18939394,7.07862086 C2.18939394,6.07461183 3.1147048,4.88841032 5.09720101,3.92540968 C7.07962424,2.96240903 9.9545904,2.32594731 13.1363636,2.32594731 Z M2.18939394,11.0087284 C2.76126364,11.4580402 3.42581768,11.8503198 4.13934116,12.1969004 C6.51512551,13.3509994 9.66774331,14.0248574 13.1363636,14.0248574 C16.604984,14.0248574 19.7576018,13.3509994 22.1333861,12.1969004 C22.8469096,11.8503198 23.5114636,11.4580402 24.0833333,11.0087284 L24.0833333,13.659266 C24.0833333,14.6633262 23.1580225,15.8380811 21.1755263,16.8010817 C19.193103,17.764086 16.3181734,18.4119871 13.1363636,18.4119871 C9.9545904,18.4119871 7.07962424,17.764086 5.09720101,16.8010817 C3.1147048,15.8380811 2.18939394,14.6632897 2.18939394,13.659266 L2.18939394,11.0087284 Z M2.18939394,17.5894065 C2.76126364,18.0386817 3.4257447,18.4309978 4.13934116,18.7775785 C6.51512551,19.9316409 9.66774331,20.6055355 13.1363636,20.6055355 C16.604984,20.6055355 19.7576018,19.9316774 22.1333861,18.7775785 C22.8469826,18.4309978 23.5114636,18.0386817 24.0833333,17.5894065 L24.0833333,20.2399441 C24.0833333,21.2439677 23.1580225,22.4187591 21.1755263,23.3817269 C19.193103,24.3447312 16.3181734,24.9926323 13.1363636,24.9926323 C9.9545904,24.9926323 7.07962424,24.3447312 5.09720101,23.3817269 C3.1147048,22.4187226 2.18939394,21.2439677 2.18939394,20.2399441 L2.18939394,17.5894065 Z M2.18939394,24.1700516 C2.76126364,24.6193269 3.42578119,25.011643 4.13934116,25.3582237 C6.51512551,26.512286 9.66774331,27.1861806 13.1363636,27.1861806 C16.604984,27.1861806 19.7576018,26.5123226 22.1333861,25.3582237 C22.8469461,25.011643 23.5114636,24.6193269 24.0833333,24.1700516 L24.0833333,26.8205892 C24.0833333,27.8246129 23.1580225,28.9994043 21.1755263,29.962372 C19.193103,30.9253763 16.3181734,31.5732774 13.1363636,31.5732774 C9.9545904,31.5732774 7.07962424,30.9253763 5.09720101,29.962372 C3.1147048,28.9994043 2.18939394,27.8246129 2.18939394,26.8205892 L2.18939394,24.1700516 Z" id="Shape"></path>
            </g>
            <g id="noun_774592_cc-(1)" transform="translate(82.000000, 66.000000)" fill="#7D72E5" fill-rule="nonzero">
                <path d="M13.4313196,8.5 C10.8622417,8.5 8.78895072,9.55675676 7.12130366,11.4864865 C6.49030207,12.2675676 5.90437202,13.0945946 5.40858506,13.9675676 C4.64236884,15.3459459 3.65079491,16.4945946 2.34372019,17.4135135 C2.16343402,17.5513514 1.93807631,17.6891892 1.75779014,17.7810811 C1.30707472,18.0108108 0.766216216,17.827027 0.540858506,17.4135135 C0.315500795,16.9540541 0.450715421,16.4486486 0.8563593,16.172973 C1.93807631,15.5297297 2.79443561,14.6108108 3.47050874,13.5540541 C3.740938,13.1405405 3.96629571,12.727027 4.23672496,12.3135135 C5.04801272,10.9810811 5.9945151,9.78648649 7.21144674,8.82162162 C8.78895072,7.53513514 10.6368839,6.84594595 12.6651033,6.70810811 C15.0088235,6.57027027 17.2173291,7.02972973 19.1554054,8.36216216 C21.363911,9.83243243 22.8512719,11.9459459 23.5724165,14.5189189 C23.7527027,15.2081081 23.7977742,15.9432432 23.7076312,16.6783784 C23.527345,18.1027027 23.3470588,19.527027 23.1667727,20.9513514 C23.0766296,21.5027027 23.031558,22.1 22.9864865,22.6513514 C22.9414149,23.4324324 23.2569157,24.0756757 23.6174881,24.7189189 C24.023132,25.3621622 24.5189189,25.9135135 25.0597774,26.4189189 C25.4203498,26.7864865 25.4654213,27.3378378 25.1499205,27.7054054 C24.8344197,28.072973 24.2935612,28.1648649 23.9329889,27.8432432 C22.6709857,26.6945946 21.5892687,25.3621622 21.2286963,23.6162162 C21.0934817,22.972973 21.0934817,22.3297297 21.1836248,21.6864865 C21.363911,20.3540541 21.5892687,19.0216216 21.7695548,17.6432432 C21.8596979,16.8162162 21.9949126,15.9432432 21.8596979,15.1162162 C21.7244833,14.1972973 21.3188394,13.3702703 20.8230525,12.5891892 C19.4709062,10.3837838 17.5328299,9.00540541 14.963752,8.54594595 C14.467965,8.54594595 13.9721781,8.54594595 13.4313196,8.5 Z" id="Shape"></path>
                <path d="M13.6566773,13.2324324 C15.2792528,13.3243243 16.4961844,14.2891892 17.2624006,15.9432432 C17.9384738,17.5054054 17.8032591,19.0216216 17.127186,20.5378378 C16.4961844,21.9621622 15.5947536,23.2027027 14.6482512,24.3972973 C12.890461,26.4648649 10.9523847,28.3027027 8.8790938,30.0027027 C7.97766296,30.7378378 7.03116057,31.472973 6.12972973,32.1621622 C5.58887122,32.5756757 4.82265501,32.3 4.68744038,31.6567568 C4.5972973,31.2891892 4.73251192,30.9216216 5.04801272,30.6459459 C6.21987281,29.6810811 7.43680445,28.7621622 8.60866455,27.7972973 C10.5467409,26.1432432 12.3496025,24.3972973 13.882035,22.4216216 C14.6031797,21.4567568 15.2792528,20.4459459 15.6848967,19.2972973 C16.0905405,18.1945946 16.0003975,17.1837838 15.3693959,16.172973 C14.6933227,15.0702703 13.4763911,14.7486486 12.3496025,15.3459459 C11.6735294,15.7135135 11.222814,16.2648649 10.9073132,16.9540541 C10.4565978,17.872973 10.0058824,18.7918919 9.46502385,19.6648649 C8.47344992,21.3189189 7.12130366,22.6054054 5.63394277,23.7540541 C4.41701113,24.672973 3.20007949,25.5918919 1.93807631,26.5108108 C1.48736089,26.8324324 0.946502385,26.7405405 0.63100159,26.327027 C0.315500795,25.9135135 0.450715421,25.3621622 0.901430843,24.9945946 C2.07329094,24.1216216 3.20007949,23.2945946 4.37193959,22.4216216 C6.53537361,20.8135135 8.15794913,18.7918919 9.23966614,16.2648649 C9.78052464,15.0702703 10.5918124,14.1513514 11.808744,13.6 C12.2594595,13.3702703 12.890461,13.2324324 13.6566773,13.2324324 Z" id="Shape"></path>
                <path d="M20.5976948,17.1837838 C20.5976948,18.3324324 20.372337,19.4810811 20.1920509,20.6297297 C19.9666932,21.7324324 19.7413355,22.7891892 19.8314785,23.8918919 C19.9216216,24.9486486 20.1469793,26.0054054 20.6878378,26.9243243 C21.0934817,27.7054054 21.7244833,28.2108108 22.5357711,28.5324324 C22.6709857,28.5783784 22.8512719,28.6702703 22.9864865,28.7162162 C23.4822734,28.9 23.7076312,29.4054054 23.5724165,29.9108108 C23.3921304,30.4162162 22.8963434,30.6459459 22.4005564,30.4621622 C20.4624801,29.8189189 19.2004769,28.5324324 18.5244038,26.5567568 C18.1187599,25.3162162 17.8483307,24.0756757 17.9835453,22.7891892 C18.0736884,21.8702703 18.2539746,20.9972973 18.3891892,20.1243243 C18.5694754,19.1594595 18.7497615,18.2405405 18.7948331,17.2756757 C18.8399046,15.3 18.0286169,13.8297297 16.4961844,12.727027 C14.2876789,11.1648649 11.5833863,11.4405405 9.60023847,13.3243243 C8.78895072,14.1054054 8.11287758,15.0243243 7.66216216,16.0810811 C7.03116057,17.5972973 6.03958665,18.8378378 4.82265501,19.9405405 C3.87615262,20.8135135 2.8845787,21.5945946 1.80286169,22.2837838 C1.21693164,22.6513514 0.540858506,22.3756757 0.405643879,21.6864865 C0.315500795,21.3189189 0.495786963,20.9513514 0.8563593,20.7216216 C1.66764706,20.1243243 2.52400636,19.4810811 3.33529412,18.8378378 C4.23672496,18.1027027 5.00294118,17.2756757 5.58887122,16.2189189 C5.90437202,15.6675676 6.12972973,15.0243243 6.44523052,14.472973 C7.25651828,13.0486486 8.29316375,11.8081081 9.69038156,10.9351351 C12.4848172,9.18918919 15.9102544,9.55675676 18.3891892,11.8540541 C19.6962639,13.0486486 20.4624801,14.5189189 20.6427663,16.3108108 C20.6427663,16.3567568 20.6427663,16.4027027 20.6427663,16.4486486 C20.5976948,16.7243243 20.5976948,16.9540541 20.5976948,17.1837838 Z" id="Shape"></path>
                <path d="M25.4203498,10.4297297 C25.4203498,10.8432432 25.1949921,11.1648649 24.7893482,11.3027027 C24.3837043,11.4405405 23.9780604,11.3027027 23.7527027,10.9351351 C23.2118442,10.2 22.6259141,9.51081081 21.949841,8.86756757 C20.2371224,7.25945946 18.2990461,6.06486486 16.0003975,5.51351351 C14.6933227,5.23783784 13.4313196,5.19189189 12.1242448,5.32972973 C10.8171701,5.46756757 9.51009539,5.78918919 8.33823529,6.38648649 C6.89594595,7.12162162 5.67901431,8.17837838 4.64236884,9.41891892 C3.87615262,10.3837838 3.15500795,11.3945946 2.52400636,12.4513514 C2.29864865,12.8648649 1.84793323,13.0027027 1.44228935,12.8648649 C1.03664547,12.727027 0.766216216,12.3594595 0.811287758,11.9 C0.811287758,11.7621622 0.8563593,11.6243243 0.946502385,11.5324324 C2.11836248,9.6027027 3.38036566,7.76486486 5.09308426,6.29459459 C6.76073132,4.87027027 8.65373609,3.9972973 10.7720986,3.58378378 C12.2594595,3.30810811 13.7468203,3.26216216 15.2341812,3.44594595 C17.2173291,3.67567568 19.0201908,4.41081081 20.6878378,5.46756757 C22.445628,6.57027027 23.9329889,7.99459459 25.1499205,9.69459459 C25.2851351,9.87837838 25.3302067,10.1081081 25.4654213,10.2918919 C25.4654213,10.3837838 25.4203498,10.3837838 25.4203498,10.4297297 Z" id="Shape"></path>
                <path d="M13.3411765,0.183783784 C17.2624006,0.22972973 20.7329094,1.42432432 23.7977742,3.90540541 C24.113275,4.18108108 24.2935612,4.45675676 24.2034181,4.91621622 C24.0682035,5.60540541 23.3019873,5.88108108 22.7611288,5.46756757 C22.3554849,5.19189189 21.9949126,4.87027027 21.5892687,4.59459459 C19.6511924,3.26216216 17.4877583,2.48108108 15.1440382,2.20540541 C13.0256757,1.97567568 10.9073132,2.11351351 8.8790938,2.8027027 C7.07623211,3.4 5.49872814,4.31891892 4.14658188,5.6972973 C3.96629571,5.88108108 3.78600954,6.11081081 3.60572337,6.29459459 C3.24515103,6.70810811 2.70429253,6.8 2.29864865,6.47837838 C1.89300477,6.15675676 1.84793323,5.60540541 2.16343402,5.14594595 C2.83950715,4.27297297 3.65079491,3.53783784 4.55222576,2.89459459 C6.49030207,1.51621622 8.65373609,0.689189189 10.9974563,0.413513514 C11.808744,0.275675676 12.5749603,0.22972973 13.3411765,0.183783784 Z" id="Shape"></path>
                <path d="M14.3327504,17.872973 C14.2876789,18.0108108 14.2426073,18.1945946 14.1975358,18.3324324 C13.6566773,19.6189189 12.890461,20.7216216 12.0791733,21.8243243 C10.0960254,24.4432432 7.7072337,26.6486486 5.1381558,28.6702703 C4.55222576,29.1297297 4.01136725,29.5432432 3.4254372,29.9567568 C2.83950715,30.3702703 2.07329094,30.0027027 1.98314785,29.3135135 C1.93807631,28.9459459 2.11836248,28.6702703 2.38879173,28.4405405 C3.33529412,27.7054054 4.32686804,26.9702703 5.22829889,26.2351351 C7.34666137,24.4891892 9.28473768,22.5594595 10.8622417,20.3540541 C11.4932432,19.4810811 12.0791733,18.5621622 12.5298887,17.5054054 C12.7101749,17.0918919 13.1158188,16.9081081 13.5665342,17 C14.0172496,17.0459459 14.3327504,17.4135135 14.3327504,17.872973 Z" id="Shape"></path>
                <path d="M26.6372814,18.4243243 C26.6372814,20.2162162 26.4119237,21.9621622 26.0062798,23.7081081 C25.9161367,24.1675676 25.5555644,24.4891892 25.1499205,24.4891892 C24.7442766,24.4891892 24.3386328,24.2135135 24.2484897,23.8459459 C24.2034181,23.6621622 24.2034181,23.4783784 24.2484897,23.2945946 C24.609062,21.6405405 24.8344197,19.9405405 24.7893482,18.2405405 C24.7893482,16.9081081 24.6541335,15.5756757 24.2034181,14.3351351 C24.1583466,14.1972973 24.0682035,14.0135135 24.023132,13.8756757 C23.8428458,13.4162162 24.023132,12.8648649 24.4738474,12.6810811 C24.9245628,12.4513514 25.4654213,12.6351351 25.6457075,13.1405405 C25.8710652,13.7837838 26.0964229,14.427027 26.2316375,15.0702703 C26.5471383,16.127027 26.6372814,17.2756757 26.6372814,18.4243243 Z" id="Shape"></path>
                <path d="M15.7299682,32.8972973 C15.7299682,33.4486486 15.4144674,33.8162162 14.963752,33.9081081 C14.5581081,34 14.1073927,33.7243243 13.9721781,33.3108108 C13.8369634,32.9891892 13.7918919,32.7135135 13.6566773,32.3918919 C13.4763911,32.0702703 13.2961049,31.7486486 13.0707472,31.472973 C12.7552464,31.0594595 12.2594595,30.9216216 11.6735294,31.2432432 C10.9974563,31.6567568 10.4115262,32.2081081 9.91573927,32.8513514 C9.7354531,33.0351351 9.55516693,33.2189189 9.28473768,33.2648649 C8.92416534,33.3108108 8.60866455,33.2189189 8.38330684,32.8972973 C8.15794913,32.5756757 8.11287758,32.2081081 8.33823529,31.8864865 C9.19459459,30.7837838 10.141097,29.8189189 11.4481717,29.3594595 C12.4848172,28.9918919 13.4313196,29.3135135 14.1975358,30.0486486 C14.8736089,30.6459459 15.2341812,31.427027 15.5046105,32.3 C15.5947536,32.5297297 15.6848967,32.7594595 15.7299682,32.8972973 Z" id="Shape"></path>
                <path d="M14.8736089,27.0621622 C14.8736089,26.2351351 15.0538951,25.4081081 15.459539,24.672973 C15.6398251,24.3054054 16.045469,24.1216216 16.4511129,24.2135135 C16.8567568,24.3054054 17.127186,24.627027 17.1722576,25.0405405 C17.1722576,25.2243243 17.1722576,25.4081081 17.0821145,25.5459459 C16.5863275,26.5567568 16.5863275,27.6135135 17.0821145,28.6243243 C17.5328299,29.6351351 18.2990461,30.4162162 19.1554054,31.0594595 C19.5159777,31.3351351 19.6511924,31.7027027 19.5610493,32.1162162 C19.3807631,32.7135135 18.70469,32.9891892 18.2539746,32.6675676 C16.6764706,31.5189189 15.459539,30.1405405 15.0538951,28.1648649 C14.9186804,27.9351351 14.8736089,27.7513514 14.8736089,27.5675676 C14.8736089,27.3837838 14.8736089,27.2459459 14.8736089,27.0621622 Z" id="Shape"></path>
                <path d="M12.5298887,32.8054054 C12.6651033,33.0810811 12.8453895,33.5405405 12.5298887,33.5405405 C12.2143879,33.5405405 11.0875994,33.3108108 11.0875994,32.9891892 C11.0875994,32.6675676 11.6284579,32.1621622 11.9439587,32.1621622 C12.2594595,32.1621622 12.3496025,32.4837838 12.5298887,32.8054054 Z" id="Shape"></path>
            </g>
            <g id="Group" transform="translate(293.000000, 312.000000)" fill="#50DB9C" fill-rule="nonzero">
                <path d="M9.42727273,27.0454545 C9.01515152,27.0454545 8.6030303,26.8909091 8.29393939,26.5818182 L0.566666667,18.3393939 C-4.94049246e-15,17.7212121 -4.94049246e-15,16.8454545 0.566666667,16.2272727 L8.29393939,7.98484848 C8.86060606,7.36666667 9.83939394,7.31515152 10.4575758,7.88181818 C11.0757576,8.44848485 11.1272727,9.42727273 10.5606061,10.0454545 C10.5606061,10.0454545 10.5606061,10.0454545 10.5090909,10.0969697 L3.76060606,17.3090909 L10.5090909,24.5212121 C11.0757576,25.1393939 11.0757576,26.1181818 10.4575758,26.6848485 C10.1484848,26.9424242 9.78787879,27.0969697 9.42727273,27.0969697 L9.42727273,27.0454545 Z" id="Shape"></path>
                <path d="M24.5727273,27.0454545 C23.6969697,27.0454545 23.0272727,26.3757576 23.0272727,25.5 C23.0272727,25.0878788 23.1818182,24.7272727 23.4393939,24.469697 L30.1878788,17.2575758 L23.4393939,10.0454545 C22.8727273,9.42727273 22.9242424,8.44848485 23.5424242,7.88181818 C24.1606061,7.31515152 25.1393939,7.36666667 25.7060606,7.93333333 L33.4333333,16.1757576 C34,16.7939394 34,17.669697 33.4333333,18.2878788 L25.7060606,26.530303 C25.3969697,26.8393939 24.9848485,27.0454545 24.5727273,27.0454545 Z" id="Shape"></path>
                <path d="M13.9090909,33.6393939 C13.8060606,33.6393939 13.7030303,33.6393939 13.6,33.5878788 C12.7757576,33.4333333 12.2090909,32.6090909 12.4151515,31.7848485 C12.4151515,31.7848485 12.4151515,31.7848485 12.4151515,31.7848485 L18.5969697,1.54545455 C18.7515152,0.721212121 19.5757576,0.154545455 20.4,0.360606061 C21.2242424,0.566666667 21.7909091,1.33939394 21.5848485,2.16363636 L15.4030303,32.4030303 C15.3,33.1242424 14.630303,33.6393939 13.9090909,33.6393939 Z" id="Shape"></path>
            </g>
            <g id="Group" transform="translate(77.000000, 186.000000)" fill="#F75E61">
                <path d="M15.3254768,0.289518795 C15.243912,0.288760177 15.1626247,0.299295259 15.0838492,0.320834458 L13.0777448,0.870232048 C12.5983502,1.00151451 12.3140274,1.50322652 12.4424034,1.99134651 L13.0896914,4.4510453 C10.4035761,5.5456559 7.98633722,7.38058434 6.16165931,9.86175084 L3.99615955,8.58897976 C3.56623407,8.33636908 3.01653675,8.48593105 2.76778493,8.92319663 L1.72874892,10.7499436 C1.6091373,10.9602663 1.57656424,11.210357 1.6382034,11.4451374 C1.69984256,11.6799177 1.85063854,11.8801321 2.05738108,12.0016865 L4.22316421,13.2747414 C3.02638798,16.1222371 2.67608437,19.1713663 3.08573899,22.086012 L0.668626191,22.7451518 C0.438018641,22.8080635 0.241434051,22.9616921 0.122164036,23.1722059 C0.00289402003,23.3827196 -0.0292800803,23.6328542 0.0327270747,23.8675253 L0.572486111,25.909453 C0.701523264,26.3974234 1.19451063,26.6867707 1.67407133,26.5560024 L4.09033401,25.8971831 C5.16551602,28.6315349 6.96750606,31.0946675 9.40246252,32.9496169 L8.15525481,35.1540747 C7.90773297,35.5916391 8.05486808,36.1505682 8.48417047,36.4035422 L10.2788693,37.4611325 C10.4855006,37.5828794 10.7312018,37.6160347 10.961862,37.5532966 C11.1925222,37.4905585 11.3892239,37.3370726 11.5086473,37.126641 L12.7592285,34.9223205 C15.3142453,36.0316916 17.9783475,36.3779494 20.6096323,36.1149711 C20.9322437,36.0864317 21.2148973,35.8836239 21.3497273,35.583943 C21.4845574,35.2842621 21.4507597,34.9339489 21.261232,34.6666892 C21.0717042,34.3994295 20.7556907,34.2564616 20.4337878,34.2923446 C17.8326755,34.552347 15.2623565,34.1578337 12.7855147,32.9210024 C12.3606071,32.7089225 11.8469211,32.868153 11.6102749,33.2852988 L10.4008773,35.417053 L10.1623443,35.2764072 L11.3697718,33.1425012 C11.6058159,32.7251807 11.4840036,32.1930796 11.0910402,31.9249446 C8.39345497,30.0843711 6.48636035,27.4452024 5.4997528,24.5014843 C5.34686229,24.0453618 4.87281121,23.7879135 4.41545337,23.9126217 L2.07649754,24.5504265 L2.0042508,24.2768723 L4.34138043,23.6396169 C4.79839077,23.5149556 5.08245136,23.0513022 4.99134027,22.5787301 C4.40263859,19.5266434 4.75739071,16.271893 6.18907007,13.3013552 C6.39746178,12.8689042 6.2411054,12.3460561 5.83134027,12.1051243 L3.73696276,10.8741304 L3.87456983,10.6323405 L5.97063409,11.8643371 C6.38058058,12.1052105 6.90378353,11.9815634 7.16752276,11.5814798 C8.98090622,8.83008747 11.5692037,6.88947783 14.4610167,5.88534386 C14.9090764,5.72973545 15.1620023,5.24731295 15.039571,4.78182843 L14.4129467,2.40096361 L14.6815623,2.32742217 L15.3076243,4.70628627 C15.4300984,5.17145541 15.8856147,5.46058792 16.3498945,5.36785253 C19.3484493,4.76863831 22.5456265,5.1298947 25.4636673,6.59126482 C25.8886719,6.80408099 26.4029979,6.64504993 26.6398922,6.22757277 L27.8501355,4.09436723 L28.0868423,4.23328699 L26.8803954,6.36563639 C26.6443912,6.7828517 26.7660683,7.31482833 27.1588481,7.58304193 C29.4490142,9.14713566 31.066609,11.2149675 32.1483896,13.6425814 C32.2781222,13.9453924 32.5580301,14.1536107 32.8808763,14.1874648 C33.2037225,14.2213189 33.5194578,14.0755605 33.7071194,13.8060319 C33.8947809,13.5365033 33.9252764,13.1849881 33.7869226,12.8861571 C32.6933888,10.4321675 31.0689525,8.2559441 28.8475652,6.55849783 L30.0949123,4.35404 C30.3427583,3.91591465 30.1948983,3.35624312 29.7645933,3.1037347 L27.9698945,2.05072265 C27.5396382,1.79832806 26.9898389,1.94849358 26.7415199,2.38622602 L25.4912175,4.58996964 C22.6933901,3.36830627 19.69748,3.01126651 16.8339909,3.42822265 L16.1865589,0.968093494 C16.0818901,0.570688325 15.7296809,0.293122792 15.3254768,0.289500482 L15.3254768,0.289518795 Z" id="Shape"></path>
                <path d="M19.3337499,8.69201012 C18.8787555,8.68834747 18.41853,8.71389446 17.9551154,8.77027181 C17.9548905,8.77031759 17.9546656,8.77040916 17.9543957,8.77040916 C12.0200734,9.48846723 7.76377658,14.9916181 8.46883682,21.0318554 C8.4688818,21.0318554 8.46892678,21.0318554 8.46897176,21.0318554 C9.17884035,27.0763277 14.5859215,31.4045735 20.5199379,30.6869229 C20.8418096,30.6515589 21.120196,30.4429022 21.2489091,30.1405429 C21.3776222,29.8381837 21.3368125,29.4887503 21.1420465,29.2255309 C20.9472805,28.9623115 20.6285941,28.8258985 20.3075472,28.8683253 C15.3386155,29.4692289 10.8503436,25.8773133 10.2555202,20.8150723 C9.66518573,15.7577301 13.1990511,11.1889901 18.1674881,10.5881414 C18.167728,10.5880958 18.1679679,10.58805 18.1682077,10.5880041 C23.1365412,9.98298916 27.6252044,13.5797395 28.2196725,18.6373976 C28.2529747,18.9663958 28.4579788,19.251552 28.7559831,19.3833939 C29.0539875,19.5152358 29.3986803,19.4732742 29.6577329,19.2736184 C29.9167856,19.0739626 30.0499397,18.7476404 30.006077,18.4199277 C29.3515967,12.851632 24.7053959,8.73442361 19.3337544,8.69129133 L19.3337499,8.69201012 Z" id="Shape"></path>
                <path d="M31.2591906,21.3978 C30.8011508,21.4491345 30.4552636,21.8444341 30.4579857,22.3134627 L30.4579857,22.771294 C29.5858701,22.9461398 28.766165,23.300547 28.0543713,23.7871301 L27.7451343,23.458041 C27.5761426,23.2841877 27.3458508,23.1863615 27.1055761,23.1863615 C26.8653014,23.1863615 26.6350095,23.2841877 26.4660179,23.458041 L25.9178251,24.0160458 C25.7470288,24.1880543 25.6509233,24.4224536 25.6509233,24.6670133 C25.6509233,24.9115729 25.7470288,25.1459722 25.9178251,25.3179807 L26.2411183,25.6470699 C25.7631347,26.3714964 25.4148911,27.1916554 25.2431263,28.0792988 L24.7933271,28.0792988 C24.2965132,28.0793494 23.8937784,28.4892759 23.8937287,28.9949614 L23.8937287,29.7818361 C23.8937784,30.2875217 24.2965132,30.6974482 24.7933271,30.6974988 L25.2431263,30.6974988 C25.4148956,31.5837687 25.7629772,32.4046145 26.2411183,33.1297277 L25.9178251,33.4588169 C25.7470288,33.6308254 25.6509233,33.8652247 25.6509233,34.1097843 C25.6509233,34.354344 25.7470288,34.5887433 25.9178251,34.7607518 L26.4660179,35.3187566 C26.6350095,35.4926099 26.8653014,35.5904361 27.1055761,35.5904361 C27.3458508,35.5904361 27.5761426,35.4926099 27.7451343,35.3187566 L28.0543713,34.9896675 C28.7656792,35.4739157 29.5861265,35.8165566 30.4579857,35.9911735 L30.4579857,36.4633349 C30.4580354,36.9690205 30.8607702,37.378947 31.3575841,37.3789976 L32.1306765,37.3789976 C32.6274904,37.378947 33.0302252,36.9690205 33.0302749,36.4633349 L33.0302749,35.9911735 C33.9007488,35.8165566 34.7079179,35.474053 35.4198331,34.9896675 L35.7431263,35.3187566 C36.0936263,35.6714615 36.6576866,35.6714615 37.0081865,35.3187566 L37.5563793,34.7607518 C37.7271756,34.5887433 37.8232811,34.354344 37.8232811,34.1097843 C37.8232811,33.8652247 37.7271756,33.6308254 37.5563793,33.4588169 L37.2471424,33.1297277 C37.7230434,32.4050723 38.0595022,31.5835855 38.2310781,30.6974988 L38.6808773,30.6974988 C39.1776912,30.6974482 39.580426,30.2875217 39.5804757,29.7818361 L39.5804757,28.9949614 C39.580426,28.4892759 39.1776912,28.0793494 38.6808773,28.0792988 L38.2310781,28.0792988 C38.0595022,27.1918843 37.722859,26.3710386 37.2471424,25.6470699 L37.5563793,25.3179807 C37.7271756,25.1459722 37.8232811,24.9115729 37.8232811,24.6670133 C37.8232811,24.4224536 37.7271756,24.1880543 37.5563793,24.0160458 L37.0081865,23.458041 C36.6576866,23.1053361 36.0936263,23.1053361 35.7431263,23.458041 L35.4198331,23.7871301 C34.7074322,23.3004096 33.9010097,22.9461398 33.0302749,22.771294 L33.0302749,22.3134627 C33.0302252,21.8077771 32.6274904,21.3978506 32.1306765,21.3978 L31.3575841,21.3978 C31.3248108,21.3959732 31.2919639,21.3959732 31.2591906,21.3978 Z M31.7371022,24.4023181 C31.8386556,24.4512275 31.9483104,24.4803439 32.0603954,24.4881614 C33.145464,24.5615518 34.1449538,25.0037711 34.913809,25.6899687 C34.9963957,25.7642397 35.0916857,25.8224346 35.1949335,25.8616554 C35.2361,25.9729394 35.2981657,26.0749975 35.3776644,26.1621301 C36.049498,26.9463952 36.4721743,27.9427277 36.5443311,29.0521904 C36.5502382,29.1711415 36.5788857,29.2877775 36.6286685,29.3955639 C36.5806198,29.4989236 36.5520143,29.6105286 36.5443311,29.7246072 C36.4722463,30.8290337 36.04854,31.8315012 35.3776644,32.6146675 C35.2981657,32.7018001 35.2361,32.8038582 35.1949335,32.9151422 C35.0916857,32.954363 34.9963957,33.0125579 34.913809,33.0868289 C34.144387,33.7696843 33.145464,34.2009157 32.0603954,34.274306 C31.9473819,34.2866118 31.8376827,34.3206025 31.7371022,34.3744795 C31.6365217,34.3206025 31.5268225,34.2866118 31.413809,34.274306 C30.3238151,34.2008699 29.3449756,33.7706458 28.5744516,33.0868289 C28.4876719,33.0110256 28.38749,32.9527566 28.2792709,32.9151422 C28.242319,32.8049825 28.185072,32.7030037 28.1105962,32.6146675 C27.4364281,31.8320964 27.0019581,30.8290337 26.9298733,29.7246072 C26.9221901,29.6105286 26.8935846,29.4989236 26.8455359,29.3955639 C26.8953187,29.2877775 26.9239662,29.1711415 26.9298733,29.0521904 C27.0020346,27.9427277 27.4354611,26.9458 28.1105962,26.1621301 C28.185072,26.0737939 28.242319,25.9718151 28.2792709,25.8616554 C28.38749,25.824041 28.4876719,25.765772 28.5744516,25.6899687 C29.3444044,25.0027639 30.3238151,24.5615976 31.413809,24.4881614 C31.525894,24.4803439 31.6355488,24.4512275 31.7371022,24.4023181 Z" id="Shape"></path>
                <path d="M31.739774,25.9187928 C29.8675973,25.9187928 28.3302961,27.4835229 28.3302961,29.3891542 C28.3302961,31.2947398 29.8695449,32.8549373 31.739774,32.8549373 C33.6100031,32.8549373 35.1447539,31.2927711 35.1447539,29.3891542 C35.1447539,27.4854916 33.6119507,25.9187928 31.739774,25.9187928 Z" id="Shape"></path>
            </g>
            <g id="Group-12" transform="translate(293.000000, 62.000000)" fill="#F75E61">
                <path d="M3.67276,22.6171424 C4.4802,21.6862256 5.33996,20.8042112 6.24776,19.9739072 C2.1596,16.2437168 -0.35528,12.3792176 1.0892,9.9409664 C2.12516,8.2224704 4.77332,7.7855024 8.77544,8.7586256 C9.81948,9.0148448 10.84964,9.3270512 11.862,9.6923504 C12.92808,4.4092496 14.87124,0.4570112 17.60088,0.4570112 C20.33076,0.4570112 22.27368,4.4182784 23.3656,9.7094576 C28.36088,7.9169168 32.70688,7.5682064 34.11256,9.9452432 C35.55704,12.3839696 33.038,16.2574544 28.92408,20.0042768 C33.038,23.7520496 35.55704,27.6212576 34.11256,30.0637856 C33.42052,31.2328208 32.0578,31.7433584 30.1578,31.7433584 C28.25768,31.7433584 25.88464,31.2024944 23.34416,30.2948192 C22.27368,35.5817216 20.33076,39.5429888 17.60088,39.5429888 C14.87124,39.5429888 12.92808,35.5907504 11.86624,30.2815568 C10.85404,30.6468992 9.8238,30.958112 8.77976,31.2152816 C7.56216,31.5293888 6.31312,31.701152 5.05688,31.725344 C3.10532,31.725344 1.7598,31.1588192 1.09344,30.033416 C0.06168,28.3191968 0.95588,25.7447792 3.67276,22.6171424 Z M32.64672,29.1608624 C33.3604,27.9391232 31.66664,24.7986992 27.63004,21.12968 C26.55104,22.0240496 25.3946,22.9184192 24.19104,23.7691136 C24.09224,25.4221184 23.90716,27.0314912 23.66236,28.5678128 C24.7012,28.9525952 25.76024,29.278064 26.8348,29.5446944 C30.44156,30.4129712 32.21684,29.9157392 32.64672,29.1608624 Z M24.2856,18.4205216 C24.31428,18.9504992 24.3214,19.4766752 24.30712,20 C24.29276,20.5233248 24.2856,21.0490256 24.2856,21.5752016 C24.98772,21.0542528 25.65976,20.5280768 26.30164,19.9961984 C25.67404,19.4747744 25.002,18.9504992 24.2856,18.4205216 Z M30.17492,10.0064576 C28.593,10.0064576 26.34908,10.4553056 23.65364,11.397584 C23.89864,12.9414656 24.07492,14.5565408 24.1824,16.19624 C25.38608,17.0469776 26.54252,17.9370704 27.62152,18.839 C28.54524,18.0210512 29.41952,17.1480224 30.23936,16.2219008 C32.68988,13.3997744 33.068,11.5897376 32.63824,10.835336 C32.32436,10.2982304 31.46456,10.0064576 30.17492,10.0064576 Z M12.82928,25.0031648 C12.91948,26.0114096 13.03128,26.9793056 13.1646,27.926336 C14.02436,27.5771072 14.88412,27.2018288 15.74392,26.7658112 C15.20652,26.4607328 14.67336,26.1509024 14.14888,25.8325184 C13.70472,25.57064 13.26484,25.2945056 12.82928,25.0031648 Z M17.60088,37.7984 C18.97652,37.7984 20.70468,34.8311216 21.7234,29.6756768 C20.36516,29.1253088 18.98072,28.4847824 17.60528,27.7735376 C16.20372,28.5018464 14.8196,29.1433232 13.47836,29.688464 C13.68828,30.786392 13.95816,31.8709712 14.2866,32.9390048 C15.40852,36.5197664 16.74112,37.7984 17.60088,37.7984 Z M22.02868,27.926336 C22.16924,27.0039728 22.27948,26.0289488 22.35956,24.9989312 C21.924,25.2840512 21.48404,25.5616112 21.04,25.8325184 C20.50976,26.1637328 19.9796,26.4749456 19.44936,26.7658112 C20.33496,27.1937504 21.169,27.5771072 22.02868,27.926336 Z M22.37268,14.9920832 L22.37268,14.9968352 C22.2824,13.9885904 22.16628,13.0202192 22.0416,12.0604016 C21.20764,12.401552 20.34788,12.7887104 19.46236,13.2256784 C19.99252,13.5279056 20.52264,13.8405872 21.0528,14.1632048 C21.49708,14.4255584 21.93692,14.7007424 22.37268,14.9920832 Z M17.60088,2.2020752 C16.22964,2.2020752 14.4972,5.1684032 13.47836,10.311536 C14.8196,10.857152 16.20372,11.4934016 17.60528,12.2221856 C18.98072,11.5152608 20.36516,10.8699824 21.7234,10.3205648 C21.5138,9.2197856 21.24404,8.13188 20.91528,7.0614704 C19.79336,3.4798016 18.46068,2.2020752 17.60088,2.2020752 Z M13.17312,12.0741392 C13.03272,12.995552 12.9224,13.9696256 12.84212,14.9968352 C13.27484,14.7168992 13.7148,14.44124 14.16188,14.1679568 C14.68636,13.8358352 15.21652,13.5250544 15.75244,13.2341888 C14.87124,12.8067248 14.03288,12.4228928 13.17312,12.0741392 Z M12.67884,17.1774416 L12.68316,17.1774416 C12.64004,18.0850736 12.6014,19.0449344 12.6014,20 C12.6014,20.9551088 12.6272,21.902096 12.67024,22.8268352 C13.41392,23.333096 14.16188,23.8170224 15.02168,24.3403472 C15.88132,24.8641472 16.74112,25.3476416 17.60088,25.8102272 C18.46068,25.3476416 19.32044,24.8641472 20.1802,24.3403472 C20.97972,23.8459664 21.76644,23.3425568 22.54024,22.831112 C22.58316,21.9196784 22.609,20.9598176 22.609,20.0042768 C22.609,19.0486928 22.58316,18.102656 22.54024,17.1774416 C21.79656,16.671656 21.0486,16.1867792 20.1888,15.6639296 C19.32904,15.1401296 18.46936,14.65616 17.6096,14.1940496 C16.74972,14.6428976 15.89004,15.131576 15.03016,15.6639296 C14.22216,16.1583104 13.43816,16.6626704 12.67884,17.1774416 Z M2.55504,10.8391376 C1.84148,12.0604016 3.5352,15.2013008 7.57184,18.853256 C8.62492,17.9802272 9.78136,17.1077168 11.01084,16.2356384 C11.10964,14.5778816 11.29452,12.9680336 11.53952,11.4369392 C10.50068,11.0521568 9.44156,10.7257376 8.36708,10.4595824 C4.76464,9.5917808 2.98492,10.084736 2.55504,10.8391376 Z M10.91628,21.578528 C10.8876,21.0533024 10.88048,20.5280768 10.89476,20.0042768 C10.90912,19.4814272 10.91628,18.9562016 10.91628,18.4295504 C10.21124,18.9504992 9.53924,19.4747744 8.90016,20.0042768 C9.52772,20.5257008 10.1998,21.049976 10.91628,21.578528 Z M7.58036,21.1429856 L7.58036,21.1387088 C6.65544,21.9690128 5.7812,22.8572048 4.96232,23.7956816 C2.512,26.6172896 2.11664,28.4325968 2.56364,29.1822464 C3.01076,29.932328 4.77332,30.434312 8.37568,29.5622768 C9.45016,29.2960784 10.50936,28.9696592 11.54824,28.585352 C11.3032,27.0362432 11.12684,25.4268704 11.01936,23.7861776 C9.81576,22.9359584 8.65932,22.0458656 7.58036,21.1429856 Z" id="Combined-shape-1784"></path>
                <path d="M17.6008862,16.802624 C19.3412738,16.802624 20.7520215,18.2335931 20.7520215,20 C20.7520215,21.7664171 19.3412738,23.1978594 17.6008862,23.1978594 C15.8607015,23.1978594 14.4498523,21.7664171 14.4498523,20 C14.4498523,18.2335931 15.8607015,16.802624 17.6008862,16.802624 Z" id="Path"></path>
            </g>
        </g>
    </g>
</svg>