<?xml version="1.0" encoding="UTF-8"?>
<svg width="1604px" height="930px" viewBox="0 0 1604 930" version="1.1" xmlns="http://www.w3.org/2000/svg" xmlns:xlink="http://www.w3.org/1999/xlink">
    <!-- Generator: Sketch 48.1 (47250) - http://www.bohemiancoding.com/sketch -->
    <title>Group 11</title>
    <desc>Created with Sketch.</desc>
    <defs>
        <linearGradient x1="0%" y1="93.7785073%" x2="96.9767595%" y2="9.64581894%" id="linearGradient-1">
            <stop stop-color="#FF9F98" offset="0%"></stop>
            <stop stop-color="#7B6DFF" offset="100%"></stop>
        </linearGradient>
        <path d="M1603.04362,87.2000979 C1356.87999,292.499671 1181.42013,399.987659 1076.66406,409.664063 C817.6875,433.585938 652.173968,233.217768 372.015625,309.679688 C185.243397,360.6543 61.404855,491.886071 0.5,703.375 L0.5,929.46875 C112.197082,669.046755 260.76479,523.37488 446.203125,492.453125 C724.360627,446.070493 860.25,623.445313 1130.875,567.296875 C1291.50389,533.970089 1448.87127,387.051621 1602.97712,126.541471 C1602.81269,126.464344 1602.83485,113.350553 1603.04362,87.2000979 Z" id="path-2"></path>
        <filter x="-0.2%" y="-0.5%" width="100.5%" height="100.9%" filterUnits="objectBoundingBox" id="filter-4">
            <feGaussianBlur stdDeviation="3" in="SourceAlpha" result="shadowBlurInner1"></feGaussianBlur>
            <feOffset dx="2" dy="2" in="shadowBlurInner1" result="shadowOffsetInner1"></feOffset>
            <feComposite in="shadowOffsetInner1" in2="SourceAlpha" operator="arithmetic" k2="-1" k3="1" result="shadowInnerInner1"></feComposite>
            <feColorMatrix values="0 0 0 0 0.207801871   0 0 0 0 0.207801871   0 0 0 0 0.207801871  0 0 0 0.193359375 0" type="matrix" in="shadowInnerInner1"></feColorMatrix>
        </filter>
        <linearGradient x1="50%" y1="9.23721493%" x2="50%" y2="89.4860055%" id="linearGradient-5">
            <stop stop-color="#FF9F98" offset="0%"></stop>
            <stop stop-color="#7B6DFF" offset="100%"></stop>
        </linearGradient>
        <path d="M1603.74999,0.178959014 C1412.1306,165.41619 1235.26863,255.244557 1079.16406,269.664062 C820.1875,293.585937 654.673968,133.217768 374.515625,209.679687 C187.743397,260.6543 63.904855,411.886071 3,663.375 L3,889.46875 C114.697082,629.046755 263.26479,483.37488 448.703125,452.453125 C726.860627,406.070493 862.75,583.445312 1133.375,527.296875 C1292.76791,494.226527 1450.94931,348.305862 1603.91918,91.5348824 C1603.32031,92.8046875 1603.89062,0.2890625 1603.74999,0.178959014 Z" id="path-6"></path>
        <filter x="-0.2%" y="-0.4%" width="100.5%" height="100.9%" filterUnits="objectBoundingBox" id="filter-8">
            <feGaussianBlur stdDeviation="3" in="SourceAlpha" result="shadowBlurInner1"></feGaussianBlur>
            <feOffset dx="2" dy="2" in="shadowBlurInner1" result="shadowOffsetInner1"></feOffset>
            <feComposite in="shadowOffsetInner1" in2="SourceAlpha" operator="arithmetic" k2="-1" k3="1" result="shadowInnerInner1"></feComposite>
            <feColorMatrix values="0 0 0 0 0.207801871   0 0 0 0 0.207801871   0 0 0 0 0.207801871  0 0 0 0.193359375 0" type="matrix" in="shadowInnerInner1"></feColorMatrix>
        </filter>
    </defs>
    <g id="Page-1" stroke="none" stroke-width="1" fill="none" fill-rule="evenodd">
        <g id="Group-11">
            <mask id="mask-3" fill="white">
                <use xlink:href="#path-2"></use>
            </mask>
            <g id="Mask">
                <use fill="url(#linearGradient-1)" fill-rule="evenodd" xlink:href="#path-2"></use>
                <use fill="black" fill-opacity="1" filter="url(#filter-4)" xlink:href="#path-2"></use>
            </g>
            <mask id="mask-7" fill="white">
                <use xlink:href="#path-6"></use>
            </mask>
            <g id="Mask">
                <use fill="url(#linearGradient-5)" fill-rule="evenodd" xlink:href="#path-6"></use>
                <use fill="black" fill-opacity="1" filter="url(#filter-8)" xlink:href="#path-6"></use>
            </g>
            <g id="Group-8" opacity="0.234375" mask="url(#mask-7)" fill="#F4F5FB">
                <g transform="translate(203.000000, 140.000000)">
                    <path d="M36.3238582,267 C38.8009814,267.768884 37.935231,268.996618 37.3801565,270.11274 C34.8698946,275.180759 32.4880453,280.319053 29.7623813,285.267193 C28.3167024,287.900413 28.2711366,290.049981 29.7375273,292.708005 C32.4756183,297.643743 34.8491828,302.782037 37.3553024,307.85419 C37.9020922,308.962044 38.8216931,310.177377 36.4729826,311 C35.7273603,309.974821 34.8657522,308.895904 34.1035605,307.750846 C31.1873485,303.410372 28.1634356,299.127772 25.466768,294.655017 C24.0459432,292.294626 22.2771612,291.389327 19.6343442,291.290116 C14.1167387,291.079293 8.61156018,290.645246 3.098097,290.285607 C2.12050323,290.2236 1.15947885,290.078918 0.260589662,289.979707 C-0.493317399,288.177377 0.504988104,287.850808 1.76840378,287.768132 C6.01016658,287.487035 10.2850682,286.734686 14.4812651,287.04472 C21.0841654,287.528373 25.2969318,285.010898 28.2959907,279.173995 C30.5245731,274.837655 33.6603294,270.972567 36.3238582,267" id="Fill-101"></path>
                    <path d="M51.9393447,378 C49.5038886,377.50469 50.4059094,376.171482 50.9307214,375.085929 C53.4071785,370.013133 55.7811332,364.882552 58.4912956,359.933583 C59.9345289,357.304315 59.9919302,355.162101 58.5609972,352.495685 C55.5597281,346.906942 52.9028669,341.136585 50,335.225891 C50.6724155,334.817261 51.2218282,334.474672 51.9885458,334 C55.6581304,339.563977 59.3359151,344.888555 62.7225931,350.394747 C64.1412258,352.706191 65.7812636,353.659662 68.4668255,353.758724 C74.9039738,354.006379 81.3247217,354.571857 87.6675679,354.988743 C88.6064895,357.180488 87.4010617,357.390994 85.9865291,357.477674 C80.6564063,357.787242 75.3344837,358.373358 70.008461,358.356848 C66.1789728,358.344465 63.8214184,359.772608 61.935375,363.070544 C59.4794184,367.350844 56.5765515,371.362852 53.8417885,375.478049 C53.2390746,376.381989 52.5297583,377.21576 51.9393447,378" id="Fill-110"></path>
                    <path d="M52.7804154,244 C50.527759,243.5525 50.8613334,242.495904 51.4131724,241.373011 C52.9822073,238.199077 54.6006606,235.045861 56.1161588,231.85121 C57.6934301,228.536397 60.324961,225.20501 60.3743795,221.844618 C60.4155615,218.666541 57.7181393,215.442885 56.1820501,212.264808 C54.6418426,209.078444 53.0316257,205.921085 51.4749454,202.743008 C50.9807612,201.723703 50.3877402,200.609097 52.4674321,200 C52.9822073,200.621527 53.6328832,201.292777 54.139422,202.063471 C57.2033641,206.654487 60.3579067,211.191638 63.2159387,215.906959 C64.7602644,218.459365 66.5722731,219.652698 69.6238606,219.685846 C74.9734048,219.747999 80.3229489,220.23279 85.6560202,220.59742 C86.8214713,220.68029 88.3122603,220.224503 89,222.520011 C88.0651682,222.793483 87.142691,223.24927 86.203741,223.31971 C80.5782774,223.750636 74.9528137,224.285149 69.3273501,224.38045 C66.3869541,224.430172 64.7520279,225.673227 63.2777117,228.018457 C59.9049045,233.409172 56.3097143,238.667294 52.7804154,244" id="Fill-130"></path>
                    <path d="M36.4243873,445 C32.0262045,438.42766 27.7230059,431.991556 23.5354403,425.724714 C15.6600087,425.05592 8.07365955,424.420154 0.491440146,423.743104 C0.342769178,423.734847 0.231265951,423.297242 0,422.843123 C0.739225094,421.34453 2.29614052,421.637643 3.5804925,421.542691 C8.65595418,421.167011 13.7438051,420.601426 18.815137,420.659223 C22.4162783,420.700507 24.4605041,419.267968 26.207388,416.299681 C28.7100159,412.039219 31.6090998,408.009946 34.3677723,403.902233 C35.0574404,402.874273 35.8503522,401.916495 36.5317608,401 C38.7453063,401.809157 37.9482648,403.00638 37.3866189,404.149934 C34.9996239,408.963595 32.8025973,413.880465 30.1554281,418.545506 C28.445712,421.567461 28.2681328,424.040345 30.0645737,427.136611 C32.7447808,431.772753 34.9294181,436.706136 37.2916346,441.532182 C37.8202425,442.597298 38.8691988,443.794521 36.4243873,445" id="Fill-154"></path>
                    <path d="M0.0949573883,155.124789 C1.5688612,154.926628 3.03863643,154.637643 4.51666882,154.534434 C9.87969697,154.167011 15.2385965,153.783074 20.6016247,153.584913 C22.6576586,153.506474 23.9581619,152.78814 25.0604934,151.050103 C28.0041724,146.39332 31.1171233,141.835616 34.1805312,137.257272 C34.9401903,136.113717 35.7865496,135.032089 36.5255658,134 C38.7632573,134.949521 37.9375409,136.138488 37.3719252,137.282042 C34.7915614,142.467255 32.3144121,147.706136 29.5895479,152.817039 C28.4087734,155.042222 28.3551019,156.866954 29.5565193,159.116907 C32.2978978,164.215425 34.7709185,169.462563 37.3430251,174.651905 C37.8879979,175.76656 38.8045432,176.955526 36.5585945,178 C35.8113211,176.97204 34.9649618,175.898668 34.2135599,174.775755 C31.377224,170.544192 28.4211592,166.395196 25.824281,162.027397 C24.2884485,159.430662 22.4677438,158.324263 19.4167216,158.291237 C14.0536935,158.245825 8.69066532,157.758679 3.33176576,157.37887 C2.20879142,157.296303 1.10646,156.899981 0,156.644023 C0.0330286568,156.136236 0.0619287315,155.632576 0.0949573883,155.124789" id="Fill-155"></path>
                    <path d="M152.465105,377 C151.826257,377 151.369937,376.310335 150.921913,375.645155 C147.852123,371.111322 144.591508,366.67951 141.783065,361.982443 C140.50122,359.844073 139.040996,358.566765 137,358.015849 L137,352.910696 C138.899951,352.45364 140.277208,351.380374 141.463641,349.454209 C144.404832,344.675524 147.694485,340.100883 150.838946,335.444624 C151.303563,334.767201 151.726696,334 152.448511,334 C152.850903,334 153.348707,334.240771 154,334.877384 C152.531479,337.844168 150.959248,340.925216 149.478282,344.051153 C147.615666,347.944292 145.823572,351.878239 144.00244,355.795862 C145.856759,359.566575 147.711079,363.333207 149.569546,367.10392 C151.050512,370.099269 152.531479,373.090538 153.958516,375.975705 C153.357003,376.718421 152.875793,377 152.465105,377" id="Fill-87"></path>
                    <path d="M268.323858,267 C270.800981,267.768884 269.935231,268.996618 269.380157,270.11274 C266.869895,275.180759 264.488045,280.319053 261.762381,285.267193 C260.316702,287.900413 260.271137,290.049981 261.737527,292.708005 C264.475618,297.643743 266.849183,302.782037 269.355302,307.85419 C269.902092,308.962044 270.821693,310.177377 268.472983,311 C267.72736,309.974821 266.865752,308.895904 266.10356,307.750846 C263.187349,303.410372 260.163436,299.127772 257.466768,294.655017 C256.045943,292.294626 254.277161,291.389327 251.634344,291.290116 C246.116739,291.079293 240.61156,290.645246 235.098097,290.285607 C234.120503,290.2236 233.159479,290.078918 232.26059,289.979707 C231.506683,288.177377 232.504988,287.850808 233.768404,287.768132 C238.010167,287.487035 242.285068,286.734686 246.481265,287.04472 C253.084165,287.528373 257.296932,285.010898 260.295991,279.173995 C262.524573,274.837655 265.660329,270.972567 268.323858,267" id="Fill-101"></path>
                    <path d="M167.44452,311 C165.179145,309.671279 166.260253,308.515333 166.767796,307.470456 C169.128078,302.669783 171.529623,297.902019 173.910536,293.113687 C174.58726,291.731488 175.230973,290.332835 175.91595,288.901272 C172.862439,282.767764 169.82956,276.741212 166.866829,270.677636 C166.326275,269.566941 164.931563,268.217651 167.494037,267 C168.253288,268.044877 169.074435,269.122663 169.82956,270.249813 C172.651994,274.458115 175.64361,278.571803 178.181325,282.944652 C179.823619,285.762528 181.952824,286.692221 185.047599,286.770381 C190.399496,286.910247 195.743141,287.350411 201.090912,287.708302 C202.21741,287.782349 203.735913,287.387435 204,289.641735 C203.075694,289.851533 202.209157,290.155946 201.334367,290.217651 C195.57396,290.616679 189.801173,291.040389 184.02426,291.28721 C181.531935,291.390052 179.897894,292.348542 178.577457,294.495886 C175.833423,298.922214 172.862439,303.200449 169.961604,307.523934 C169.194099,308.667539 168.348194,309.753553 167.44452,311" id="Fill-105"></path>
                    <path d="M151.323858,69 C153.800981,69.7688839 152.935231,70.9966178 152.380157,72.1127396 C149.869895,77.1807591 147.488045,82.319053 144.762381,87.2671928 C143.316702,89.9004134 143.271137,92.0499812 144.737527,94.7080045 C147.475618,99.643743 149.849183,104.782037 152.355302,109.85419 C152.902092,110.962044 153.821693,112.177377 151.472983,113 C150.72736,111.974821 149.865752,110.895904 149.10356,109.750846 C146.187349,105.410372 143.163436,101.127772 140.466768,96.6550169 C139.045943,94.2946261 137.277161,93.3893273 134.634344,93.2901165 C129.116739,93.0792935 123.61156,92.6452461 118.098097,92.2856069 C117.120503,92.2236002 116.159479,92.0789177 115.26059,91.9797069 C114.506683,90.1773769 115.504988,89.850808 116.768404,89.7681323 C121.010167,89.4870349 125.285068,88.7346862 129.481265,89.04472 C136.084165,89.5283728 140.296932,87.0108982 143.295991,81.1739947 C145.524573,76.837655 148.660329,72.9725667 151.323858,69" id="Fill-101"></path>
                    <path d="M282.44452,113 C280.179145,111.671279 281.260253,110.515333 281.767796,109.470456 C284.128078,104.669783 286.529623,99.9020194 288.910536,95.1136874 C289.58726,93.7314884 290.230973,92.3328347 290.91595,90.9012715 C287.862439,84.7677636 284.82956,78.7412117 281.866829,72.6776365 C281.326275,71.5669409 279.931563,70.2176515 282.494037,69 C283.253288,70.0448766 284.074435,71.1226627 284.82956,72.249813 C287.651994,76.4581152 290.64361,80.5718025 293.181325,84.9446522 C294.823619,87.762528 296.952824,88.6922214 300.047599,88.7703815 C305.399496,88.9102468 310.743141,89.3504114 316.090912,89.7083022 C317.21741,89.7823485 318.735913,89.3874346 319,91.6417352 C318.075694,91.8515333 317.209157,92.1559461 316.334367,92.2176515 C310.57396,92.6166791 304.801173,93.0403889 299.02426,93.2872102 C296.531935,93.3900524 294.897894,94.3485415 293.577457,96.4958863 C290.833423,100.922214 287.862439,105.200449 284.961604,109.523934 C284.194099,110.667539 283.348194,111.753553 282.44452,113" id="Fill-105"></path>
                    <path d="M382.323858,69 C384.800981,69.7688839 383.935231,70.9966178 383.380157,72.1127396 C380.869895,77.1807591 378.488045,82.319053 375.762381,87.2671928 C374.316702,89.9004134 374.271137,92.0499812 375.737527,94.7080045 C378.475618,99.643743 380.849183,104.782037 383.355302,109.85419 C383.902092,110.962044 384.821693,112.177377 382.472983,113 C381.72736,111.974821 380.865752,110.895904 380.10356,109.750846 C377.187349,105.410372 374.163436,101.127772 371.466768,96.6550169 C370.045943,94.2946261 368.277161,93.3893273 365.634344,93.2901165 C360.116739,93.0792935 354.61156,92.6452461 349.098097,92.2856069 C348.120503,92.2236002 347.159479,92.0789177 346.26059,91.9797069 C345.506683,90.1773769 346.504988,89.850808 347.768404,89.7681323 C352.010167,89.4870349 356.285068,88.7346862 360.481265,89.04472 C367.084165,89.5283728 371.296932,87.0108982 374.295991,81.1739947 C376.524573,76.837655 379.660329,72.9725667 382.323858,69" id="Fill-101"></path>
                    <path d="M513.44452,113 C511.179145,111.671279 512.260253,110.515333 512.767796,109.470456 C515.128078,104.669783 517.529623,99.9020194 519.910536,95.1136874 C520.58726,93.7314884 521.230973,92.3328347 521.91595,90.9012715 C518.862439,84.7677636 515.82956,78.7412117 512.866829,72.6776365 C512.326275,71.5669409 510.931563,70.2176515 513.494037,69 C514.253288,70.0448766 515.074435,71.1226627 515.82956,72.249813 C518.651994,76.4581152 521.64361,80.5718025 524.181325,84.9446522 C525.823619,87.762528 527.952824,88.6922214 531.047599,88.7703815 C536.399496,88.9102468 541.743141,89.3504114 547.090912,89.7083022 C548.21741,89.7823485 549.735913,89.3874346 550,91.6417352 C549.075694,91.8515333 548.209157,92.1559461 547.334367,92.2176515 C541.57396,92.6166791 535.801173,93.0403889 530.02426,93.2872102 C527.531935,93.3900524 525.897894,94.3485415 524.577457,96.4958863 C521.833423,100.922214 518.862439,105.200449 515.961604,109.523934 C515.194099,110.667539 514.348194,111.753553 513.44452,113" id="Fill-105"></path>
                    <path d="M619.323858,69 C621.800981,69.7688839 620.935231,70.9966178 620.380157,72.1127396 C617.869895,77.1807591 615.488045,82.319053 612.762381,87.2671928 C611.316702,89.9004134 611.271137,92.0499812 612.737527,94.7080045 C615.475618,99.643743 617.849183,104.782037 620.355302,109.85419 C620.902092,110.962044 621.821693,112.177377 619.472983,113 C618.72736,111.974821 617.865752,110.895904 617.10356,109.750846 C614.187349,105.410372 611.163436,101.127772 608.466768,96.6550169 C607.045943,94.2946261 605.277161,93.3893273 602.634344,93.2901165 C597.116739,93.0792935 591.61156,92.6452461 586.098097,92.2856069 C585.120503,92.2236002 584.159479,92.0789177 583.26059,91.9797069 C582.506683,90.1773769 583.504988,89.850808 584.768404,89.7681323 C589.010167,89.4870349 593.285068,88.7346862 597.481265,89.04472 C604.084165,89.5283728 608.296932,87.0108982 611.295991,81.1739947 C613.524573,76.837655 616.660329,72.9725667 619.323858,69" id="Fill-101"></path>
                    <path d="M750.44452,113 C748.179145,111.671279 749.260253,110.515333 749.767796,109.470456 C752.128078,104.669783 754.529623,99.9020194 756.910536,95.1136874 C757.58726,93.7314884 758.230973,92.3328347 758.91595,90.9012715 C755.862439,84.7677636 752.82956,78.7412117 749.866829,72.6776365 C749.326275,71.5669409 747.931563,70.2176515 750.494037,69 C751.253288,70.0448766 752.074435,71.1226627 752.82956,72.249813 C755.651994,76.4581152 758.64361,80.5718025 761.181325,84.9446522 C762.823619,87.762528 764.952824,88.6922214 768.047599,88.7703815 C773.399496,88.9102468 778.743141,89.3504114 784.090912,89.7083022 C785.21741,89.7823485 786.735913,89.3874346 787,91.6417352 C786.075694,91.8515333 785.209157,92.1559461 784.334367,92.2176515 C778.57396,92.6166791 772.801173,93.0403889 767.02426,93.2872102 C764.531935,93.3900524 762.897894,94.3485415 761.577457,96.4958863 C758.833423,100.922214 755.862439,105.200449 752.961604,109.523934 C752.194099,110.667539 751.348194,111.753553 750.44452,113" id="Fill-105"></path>
                    <path d="M1079.32386,67 C1081.80098,67.7688839 1080.93523,68.9966178 1080.38016,70.1127396 C1077.86989,75.1807591 1075.48805,80.319053 1072.76238,85.2671928 C1071.3167,87.9004134 1071.27114,90.0499812 1072.73753,92.7080045 C1075.47562,97.643743 1077.84918,102.782037 1080.3553,107.85419 C1080.90209,108.962044 1081.82169,110.177377 1079.47298,111 C1078.72736,109.974821 1077.86575,108.895904 1077.10356,107.750846 C1074.18735,103.410372 1071.16344,99.1277715 1068.46677,94.6550169 C1067.04594,92.2946261 1065.27716,91.3893273 1062.63434,91.2901165 C1057.11674,91.0792935 1051.61156,90.6452461 1046.0981,90.2856069 C1045.1205,90.2236002 1044.15948,90.0789177 1043.26059,89.9797069 C1042.50668,88.1773769 1043.50499,87.850808 1044.7684,87.7681323 C1049.01017,87.4870349 1053.28507,86.7346862 1057.48127,87.04472 C1064.08417,87.5283728 1068.29693,85.0108982 1071.29599,79.1739947 C1073.52457,74.837655 1076.66033,70.9725667 1079.32386,67" id="Fill-101"></path>
                    <path d="M1210.44452,111 C1208.17914,109.671279 1209.26025,108.515333 1209.7678,107.470456 C1212.12808,102.669783 1214.52962,97.9020194 1216.91054,93.1136874 C1217.58726,91.7314884 1218.23097,90.3328347 1218.91595,88.9012715 C1215.86244,82.7677636 1212.82956,76.7412117 1209.86683,70.6776365 C1209.32627,69.5669409 1207.93156,68.2176515 1210.49404,67 C1211.25329,68.0448766 1212.07443,69.1226627 1212.82956,70.249813 C1215.65199,74.4581152 1218.64361,78.5718025 1221.18133,82.9446522 C1222.82362,85.762528 1224.95282,86.6922214 1228.0476,86.7703815 C1233.3995,86.9102468 1238.74314,87.3504114 1244.09091,87.7083022 C1245.21741,87.7823485 1246.73591,87.3874346 1247,89.6417352 C1246.07569,89.8515333 1245.20916,90.1559461 1244.33437,90.2176515 C1238.57396,90.6166791 1232.80117,91.0403889 1227.02426,91.2872102 C1224.53193,91.3900524 1222.89789,92.3485415 1221.57746,94.4958863 C1218.83342,98.9222139 1215.86244,103.200449 1212.9616,107.523934 C1212.1941,108.667539 1211.34819,109.753553 1210.44452,111" id="Fill-105"></path>
                    <path d="M1194.32386,0 C1196.80098,0.768883878 1195.93523,1.99661781 1195.38016,3.11273957 C1192.86989,8.18075911 1190.48805,13.319053 1187.76238,18.2671928 C1186.3167,20.9004134 1186.27114,23.0499812 1187.73753,25.7080045 C1190.47562,30.643743 1192.84918,35.7820368 1195.3553,40.8541902 C1195.90209,41.9620443 1196.82169,43.1773769 1194.47298,44 C1193.72736,42.9748215 1192.86575,41.8959038 1192.10356,40.7508455 C1189.18735,36.410372 1186.16344,32.1277715 1183.46677,27.6550169 C1182.04594,25.2946261 1180.27716,24.3893273 1177.63434,24.2901165 C1172.11674,24.0792935 1166.61156,23.6452461 1161.0981,23.2856069 C1160.1205,23.2236002 1159.15948,23.0789177 1158.26059,22.9797069 C1157.50668,21.1773769 1158.50499,20.850808 1159.7684,20.7681323 C1164.01017,20.4870349 1168.28507,19.7346862 1172.48127,20.04472 C1179.08417,20.5283728 1183.29693,18.0108982 1186.29599,12.1739947 C1188.52457,7.83765502 1191.66033,3.9725667 1194.32386,0" id="Fill-101"></path>
                    <path d="M1325.44452,44 C1323.17914,42.671279 1324.26025,41.5153328 1324.7678,40.4704562 C1327.12808,35.6697831 1329.52962,30.9020194 1331.91054,26.1136874 C1332.58726,24.7314884 1333.23097,23.3328347 1333.91595,21.9012715 C1330.86244,15.7677636 1327.82956,9.74121167 1324.86683,3.6776365 C1324.32627,2.56694091 1322.93156,1.21765146 1325.49404,0 C1326.25329,1.04487659 1327.07443,2.12266268 1327.82956,3.24981301 C1330.65199,7.45811518 1333.64361,11.5718025 1336.18133,15.9446522 C1337.82362,18.762528 1339.95282,19.6922214 1343.0476,19.7703815 C1348.3995,19.9102468 1353.74314,20.3504114 1359.09091,20.7083022 C1360.21741,20.7823485 1361.73591,20.3874346 1362,22.6417352 C1361.07569,22.8515333 1360.20916,23.1559461 1359.33437,23.2176515 C1353.57396,23.6166791 1347.80117,24.0403889 1342.02426,24.2872102 C1339.53193,24.3900524 1337.89789,25.3485415 1336.57746,27.4958863 C1333.83342,31.9222139 1330.86244,36.2004488 1327.9616,40.5239342 C1327.1941,41.6675393 1326.34819,42.7535527 1325.44452,44" id="Fill-105"></path>
                    <path d="M282.939345,378 C280.503889,377.50469 281.405909,376.171482 281.930721,375.085929 C284.407179,370.013133 286.781133,364.882552 289.491296,359.933583 C290.934529,357.304315 290.99193,355.162101 289.560997,352.495685 C286.559728,346.906942 283.902867,341.136585 281,335.225891 C281.672415,334.817261 282.221828,334.474672 282.988546,334 C286.65813,339.563977 290.335915,344.888555 293.722593,350.394747 C295.141226,352.706191 296.781264,353.659662 299.466825,353.758724 C305.903974,354.006379 312.324722,354.571857 318.667568,354.988743 C319.606489,357.180488 318.401062,357.390994 316.986529,357.477674 C311.656406,357.787242 306.334484,358.373358 301.008461,358.356848 C297.178973,358.344465 294.821418,359.772608 292.935375,363.070544 C290.479418,367.350844 287.576552,371.362852 284.841789,375.478049 C284.239075,376.381989 283.529758,377.21576 282.939345,378" id="Fill-110"></path>
                    <path d="M153.925795,376.012908 C152.495294,377.819352 151.745002,376.80807 150.974098,375.662222 C148.026523,371.24194 144.868702,366.931758 142.156109,362.368755 C140.255645,359.159566 137.942932,357.64672 134.088411,357.716042 C129.594906,357.805753 125.076666,357.263412 120.579038,356.953503 C119.061964,356.851559 117.549013,356.610972 116.093777,356.443784 C115.623814,354.188788 117.008968,354.188788 118.27457,354.111311 C123.910003,353.76878 129.537191,353.303916 135.176747,353.169351 C138.000647,353.11634 139.831029,352.215157 141.335735,349.768507 C144.345147,344.879284 147.663745,340.189871 150.875159,335.44337 C151.575981,334.407621 152.227333,333.070119 154,334.925495 C152.911665,337.147869 151.794472,339.504809 150.619565,341.845438 C148.805673,345.470558 147.07423,349.140533 145.111929,352.684098 C144.048328,354.604719 144.007103,356.195041 145.054214,358.140128 C147.57305,362.821386 149.885763,367.608665 152.252068,372.355166 C152.866317,373.582569 153.398118,374.850749 153.925795,376.012908" id="Fill-128"></path>
                    <path d="M153.925795,242.012908 C152.495294,243.819352 151.745002,242.80807 150.974098,241.662222 C148.026523,237.24194 144.868702,232.931758 142.156109,228.368755 C140.255645,225.159566 137.942932,223.64672 134.088411,223.716042 C129.594906,223.805753 125.076666,223.263412 120.579038,222.953503 C119.061964,222.851559 117.549013,222.610972 116.093777,222.443784 C115.623814,220.188788 117.008968,220.188788 118.27457,220.111311 C123.910003,219.76878 129.537191,219.303916 135.176747,219.169351 C138.000647,219.11634 139.831029,218.215157 141.335735,215.768507 C144.345147,210.879284 147.663745,206.189871 150.875159,201.44337 C151.575981,200.407621 152.227333,199.070119 154,200.925495 C152.911665,203.147869 151.794472,205.504809 150.619565,207.845438 C148.805673,211.470558 147.07423,215.140533 145.111929,218.684098 C144.048328,220.604719 144.007103,222.195041 145.054214,224.140128 C147.57305,228.821386 149.885763,233.608665 152.252068,238.355166 C152.866317,239.582569 153.398118,240.850749 153.925795,242.012908" id="Fill-128"></path>
                    <path d="M283.780415,244 C281.527759,243.5525 281.861333,242.495904 282.413172,241.373011 C283.982207,238.199077 285.600661,235.045861 287.116159,231.85121 C288.69343,228.536397 291.324961,225.20501 291.374379,221.844618 C291.415561,218.666541 288.718139,215.442885 287.18205,212.264808 C285.641843,209.078444 284.031626,205.921085 282.474945,202.743008 C281.980761,201.723703 281.38774,200.609097 283.467432,200 C283.982207,200.621527 284.632883,201.292777 285.139422,202.063471 C288.203364,206.654487 291.357907,211.191638 294.215939,215.906959 C295.760264,218.459365 297.572273,219.652698 300.623861,219.685846 C305.973405,219.747999 311.322949,220.23279 316.65602,220.59742 C317.821471,220.68029 319.31226,220.224503 320,222.520011 C319.065168,222.793483 318.142691,223.24927 317.203741,223.31971 C311.578277,223.750636 305.952814,224.285149 300.32735,224.38045 C297.386954,224.430172 295.752028,225.673227 294.277712,228.018457 C290.904904,233.409172 287.309714,238.667294 283.780415,244" id="Fill-130"></path>
                    <path d="M153.2358,244 C149.535938,238.574785 145.757178,233.198264 142.194347,227.704067 C140.907077,225.727942 139.445403,224.883929 137.036962,224.814948 C135.924097,224.786543 134.811231,224.741908 133.702518,224.693215 C133.175153,223.20402 132.610415,221.743229 132,220.298669 C133.515656,220.22563 135.02716,220.168821 136.542817,220.140417 C139.266846,220.083609 140.948602,219.14221 142.389514,216.882042 C145.836075,211.469001 149.569157,206.222327 153.119531,201 C155.424159,201.077097 155.220687,202.184864 154.547985,203.507691 C152.71674,207.115033 150.839817,210.698028 149.066707,214.329716 C147.725455,217.068699 145.562011,219.848259 145.520486,222.627819 C145.495571,225.245069 147.742065,227.906955 149.050097,230.520147 C150.856427,234.139662 152.725045,237.730773 154.547985,241.334057 C155.07535,242.380957 155.594411,243.460319 153.2358,244" id="Fill-150"></path>
                    <path d="M204,421.793256 C202.713495,424.255722 201.165605,423.875012 199.883184,423.960064 C194.577881,424.328624 189.276664,424.818687 183.971361,424.851088 C181.185976,424.867288 179.670759,425.993218 178.298486,428.184327 C175.570279,432.538193 172.625611,436.762456 169.754459,441.02317 C169.060154,442.047848 168.29642,443.015824 167.57761,444 C165.474277,443.538288 165.878607,442.440708 166.495312,441.209475 C168.872284,436.499199 170.983786,431.64312 173.654816,427.106998 C175.594784,423.82236 175.44367,421.133088 173.585385,417.917302 C171.024627,413.482434 168.917209,408.772158 166.621921,404.183385 C166.054225,403.045305 165.29049,401.882924 167.491843,401 C168.222905,402.020627 169.051986,403.093906 169.811637,404.215786 C172.842071,408.711406 175.913347,413.174626 178.825341,417.747198 C179.919891,419.460394 181.218649,420.140812 183.244384,420.217764 C188.549686,420.416219 193.854988,420.792879 199.152122,421.153339 C200.618329,421.254592 202.072284,421.534049 204,421.793256" id="Fill-153"></path>
                    <path d="M268.424387,445 C264.026204,438.42766 259.723006,431.991556 255.53544,425.724714 C247.660009,425.05592 240.07366,424.420154 232.49144,423.743104 C232.342769,423.734847 232.231266,423.297242 232,422.843123 C232.739225,421.34453 234.296141,421.637643 235.580492,421.542691 C240.655954,421.167011 245.743805,420.601426 250.815137,420.659223 C254.416278,420.700507 256.460504,419.267968 258.207388,416.299681 C260.710016,412.039219 263.6091,408.009946 266.367772,403.902233 C267.05744,402.874273 267.850352,401.916495 268.531761,401 C270.745306,401.809157 269.948265,403.00638 269.386619,404.149934 C266.999624,408.963595 264.802597,413.880465 262.155428,418.545506 C260.445712,421.567461 260.268133,424.040345 262.064574,427.136611 C264.744781,431.772753 266.929418,436.706136 269.291635,441.532182 C269.820243,442.597298 270.869199,443.794521 268.424387,445" id="Fill-154"></path>
                    <path d="M232.094957,155.124789 C233.568861,154.926628 235.038636,154.637643 236.516669,154.534434 C241.879697,154.167011 247.238597,153.783074 252.601625,153.584913 C254.657659,153.506474 255.958162,152.78814 257.060493,151.050103 C260.004172,146.39332 263.117123,141.835616 266.180531,137.257272 C266.94019,136.113717 267.78655,135.032089 268.525566,134 C270.763257,134.949521 269.937541,136.138488 269.371925,137.282042 C266.791561,142.467255 264.314412,147.706136 261.589548,152.817039 C260.408773,155.042222 260.355102,156.866954 261.556519,159.116907 C264.297898,164.215425 266.770918,169.462563 269.343025,174.651905 C269.887998,175.76656 270.804543,176.955526 268.558595,178 C267.811321,176.97204 266.964962,175.898668 266.21356,174.775755 C263.377224,170.544192 260.421159,166.395196 257.824281,162.027397 C256.288448,159.430662 254.467744,158.324263 251.416722,158.291237 C246.053693,158.245825 240.690665,157.758679 235.331766,157.37887 C234.208791,157.296303 233.10646,156.899981 232,156.644023 C232.033029,156.136236 232.061929,155.632576 232.094957,155.124789" id="Fill-155"></path>
                    <path d="M204,156.296296 C202.711928,156.515126 201.432114,156.84337 200.139914,156.932523 C194.640839,157.297239 189.141764,157.706531 183.634433,157.852417 C181.384436,157.917256 180.022053,158.715578 178.845449,160.547262 C175.988572,165.008953 172.958301,169.361229 169.965186,173.737819 C169.201426,174.872491 168.34684,175.950429 167.570694,177 C165.345468,176.396193 165.977118,175.249364 166.563356,174.082273 C169.089958,169.118085 171.451423,164.064744 174.176189,159.214023 C175.641784,156.616436 175.641784,154.484874 174.192703,151.899444 C171.546376,147.158138 169.201426,142.258788 166.773906,137.39591 C166.274366,136.38281 165.106019,135.223824 167.223906,134 C167.855556,134.69296 168.63583,135.389973 169.209683,136.216662 C172.363807,140.824239 175.5716,145.395344 178.556458,150.104231 C179.877557,152.203374 181.409206,153.151635 183.981221,153.212421 C189.199562,153.329941 194.413775,153.75139 199.632116,154.112054 C201.085325,154.213363 202.530277,154.517293 203.975229,154.728018 C203.983486,155.250777 203.991743,155.769484 204,156.296296" id="Fill-156"></path>
                    <path d="M383.465105,377 C382.826257,377 382.369937,376.310335 381.921913,375.645155 C378.852123,371.111322 375.591508,366.67951 372.783065,361.982443 C371.50122,359.844073 370.040996,358.566765 368,358.015849 L368,352.910696 C369.899951,352.45364 371.277208,351.380374 372.463641,349.454209 C375.404832,344.675524 378.694485,340.100883 381.838946,335.444624 C382.303563,334.767201 382.726696,334 383.448511,334 C383.850903,334 384.348707,334.240771 385,334.877384 C383.531479,337.844168 381.959248,340.925216 380.478282,344.051153 C378.615666,347.944292 376.823572,351.878239 375.00244,355.795862 C376.856759,359.566575 378.711079,363.333207 380.569546,367.10392 C382.050512,370.099269 383.531479,373.090538 384.958516,375.975705 C384.357003,376.718421 383.875793,377 383.465105,377" id="Fill-87"></path>
                    <path d="M498.323858,267 C500.800981,267.768884 499.935231,268.996618 499.380157,270.11274 C496.869895,275.180759 494.488045,280.319053 491.762381,285.267193 C490.316702,287.900413 490.271137,290.049981 491.737527,292.708005 C494.475618,297.643743 496.849183,302.782037 499.355302,307.85419 C499.902092,308.962044 500.821693,310.177377 498.472983,311 C497.72736,309.974821 496.865752,308.895904 496.10356,307.750846 C493.187349,303.410372 490.163436,299.127772 487.466768,294.655017 C486.045943,292.294626 484.277161,291.389327 481.634344,291.290116 C476.116739,291.079293 470.61156,290.645246 465.098097,290.285607 C464.120503,290.2236 463.159479,290.078918 462.26059,289.979707 C461.506683,288.177377 462.504988,287.850808 463.768404,287.768132 C468.010167,287.487035 472.285068,286.734686 476.481265,287.04472 C483.084165,287.528373 487.296932,285.010898 490.295991,279.173995 C492.524573,274.837655 495.660329,270.972567 498.323858,267" id="Fill-101"></path>
                    <path d="M398.44452,311 C396.179145,309.671279 397.260253,308.515333 397.767796,307.470456 C400.128078,302.669783 402.529623,297.902019 404.910536,293.113687 C405.58726,291.731488 406.230973,290.332835 406.91595,288.901272 C403.862439,282.767764 400.82956,276.741212 397.866829,270.677636 C397.326275,269.566941 395.931563,268.217651 398.494037,267 C399.253288,268.044877 400.074435,269.122663 400.82956,270.249813 C403.651994,274.458115 406.64361,278.571803 409.181325,282.944652 C410.823619,285.762528 412.952824,286.692221 416.047599,286.770381 C421.399496,286.910247 426.743141,287.350411 432.090912,287.708302 C433.21741,287.782349 434.735913,287.387435 435,289.641735 C434.075694,289.851533 433.209157,290.155946 432.334367,290.217651 C426.57396,290.616679 420.801173,291.040389 415.02426,291.28721 C412.531935,291.390052 410.897894,292.348542 409.577457,294.495886 C406.833423,298.922214 403.862439,303.200449 400.961604,307.523934 C400.194099,308.667539 399.348194,309.753553 398.44452,311" id="Fill-105"></path>
                    <path d="M514.939345,378 C512.503889,377.50469 513.405909,376.171482 513.930721,375.085929 C516.407179,370.013133 518.781133,364.882552 521.491296,359.933583 C522.934529,357.304315 522.99193,355.162101 521.560997,352.495685 C518.559728,346.906942 515.902867,341.136585 513,335.225891 C513.672415,334.817261 514.221828,334.474672 514.988546,334 C518.65813,339.563977 522.335915,344.888555 525.722593,350.394747 C527.141226,352.706191 528.781264,353.659662 531.466825,353.758724 C537.903974,354.006379 544.324722,354.571857 550.667568,354.988743 C551.606489,357.180488 550.401062,357.390994 548.986529,357.477674 C543.656406,357.787242 538.334484,358.373358 533.008461,358.356848 C529.178973,358.344465 526.821418,359.772608 524.935375,363.070544 C522.479418,367.350844 519.576552,371.362852 516.841789,375.478049 C516.239075,376.381989 515.529758,377.21576 514.939345,378" id="Fill-110"></path>
                    <path d="M385.925795,376.012908 C384.495294,377.819352 383.745002,376.80807 382.974098,375.662222 C380.026523,371.24194 376.868702,366.931758 374.156109,362.368755 C372.255645,359.159566 369.942932,357.64672 366.088411,357.716042 C361.594906,357.805753 357.076666,357.263412 352.579038,356.953503 C351.061964,356.851559 349.549013,356.610972 348.093777,356.443784 C347.623814,354.188788 349.008968,354.188788 350.27457,354.111311 C355.910003,353.76878 361.537191,353.303916 367.176747,353.169351 C370.000647,353.11634 371.831029,352.215157 373.335735,349.768507 C376.345147,344.879284 379.663745,340.189871 382.875159,335.44337 C383.575981,334.407621 384.227333,333.070119 386,334.925495 C384.911665,337.147869 383.794472,339.504809 382.619565,341.845438 C380.805673,345.470558 379.07423,349.140533 377.111929,352.684098 C376.048328,354.604719 376.007103,356.195041 377.054214,358.140128 C379.57305,362.821386 381.885763,367.608665 384.252068,372.355166 C384.866317,373.582569 385.398118,374.850749 385.925795,376.012908" id="Fill-128"></path>
                    <path d="M385.925795,242.012908 C384.495294,243.819352 383.745002,242.80807 382.974098,241.662222 C380.026523,237.24194 376.868702,232.931758 374.156109,228.368755 C372.255645,225.159566 369.942932,223.64672 366.088411,223.716042 C361.594906,223.805753 357.076666,223.263412 352.579038,222.953503 C351.061964,222.851559 349.549013,222.610972 348.093777,222.443784 C347.623814,220.188788 349.008968,220.188788 350.27457,220.111311 C355.910003,219.76878 361.537191,219.303916 367.176747,219.169351 C370.000647,219.11634 371.831029,218.215157 373.335735,215.768507 C376.345147,210.879284 379.663745,206.189871 382.875159,201.44337 C383.575981,200.407621 384.227333,199.070119 386,200.925495 C384.911665,203.147869 383.794472,205.504809 382.619565,207.845438 C380.805673,211.470558 379.07423,215.140533 377.111929,218.684098 C376.048328,220.604719 376.007103,222.195041 377.054214,224.140128 C379.57305,228.821386 381.885763,233.608665 384.252068,238.355166 C384.866317,239.582569 385.398118,240.850749 385.925795,242.012908" id="Fill-128"></path>
                    <path d="M515.780415,244 C513.527759,243.5525 513.861333,242.495904 514.413172,241.373011 C515.982207,238.199077 517.600661,235.045861 519.116159,231.85121 C520.69343,228.536397 523.324961,225.20501 523.374379,221.844618 C523.415561,218.666541 520.718139,215.442885 519.18205,212.264808 C517.641843,209.078444 516.031626,205.921085 514.474945,202.743008 C513.980761,201.723703 513.38774,200.609097 515.467432,200 C515.982207,200.621527 516.632883,201.292777 517.139422,202.063471 C520.203364,206.654487 523.357907,211.191638 526.215939,215.906959 C527.760264,218.459365 529.572273,219.652698 532.623861,219.685846 C537.973405,219.747999 543.322949,220.23279 548.65602,220.59742 C549.821471,220.68029 551.31226,220.224503 552,222.520011 C551.065168,222.793483 550.142691,223.24927 549.203741,223.31971 C543.578277,223.750636 537.952814,224.285149 532.32735,224.38045 C529.386954,224.430172 527.752028,225.673227 526.277712,228.018457 C522.904904,233.409172 519.309714,238.667294 515.780415,244" id="Fill-130"></path>
                    <path d="M384.2358,244 C380.535938,238.574785 376.757178,233.198264 373.194347,227.704067 C371.907077,225.727942 370.445403,224.883929 368.036962,224.814948 C366.924097,224.786543 365.811231,224.741908 364.702518,224.693215 C364.175153,223.20402 363.610415,221.743229 363,220.298669 C364.515656,220.22563 366.02716,220.168821 367.542817,220.140417 C370.266846,220.083609 371.948602,219.14221 373.389514,216.882042 C376.836075,211.469001 380.569157,206.222327 384.119531,201 C386.424159,201.077097 386.220687,202.184864 385.547985,203.507691 C383.71674,207.115033 381.839817,210.698028 380.066707,214.329716 C378.725455,217.068699 376.562011,219.848259 376.520486,222.627819 C376.495571,225.245069 378.742065,227.906955 380.050097,230.520147 C381.856427,234.139662 383.725045,237.730773 385.547985,241.334057 C386.07535,242.380957 386.594411,243.460319 384.2358,244" id="Fill-150"></path>
                    <path d="M435,421.793256 C433.713495,424.255722 432.165605,423.875012 430.883184,423.960064 C425.577881,424.328624 420.276664,424.818687 414.971361,424.851088 C412.185976,424.867288 410.670759,425.993218 409.298486,428.184327 C406.570279,432.538193 403.625611,436.762456 400.754459,441.02317 C400.060154,442.047848 399.29642,443.015824 398.57761,444 C396.474277,443.538288 396.878607,442.440708 397.495312,441.209475 C399.872284,436.499199 401.983786,431.64312 404.654816,427.106998 C406.594784,423.82236 406.44367,421.133088 404.585385,417.917302 C402.024627,413.482434 399.917209,408.772158 397.621921,404.183385 C397.054225,403.045305 396.29049,401.882924 398.491843,401 C399.222905,402.020627 400.051986,403.093906 400.811637,404.215786 C403.842071,408.711406 406.913347,413.174626 409.825341,417.747198 C410.919891,419.460394 412.218649,420.140812 414.244384,420.217764 C419.549686,420.416219 424.854988,420.792879 430.152122,421.153339 C431.618329,421.254592 433.072284,421.534049 435,421.793256" id="Fill-153"></path>
                    <path d="M498.424387,445 C494.026204,438.42766 489.723006,431.991556 485.53544,425.724714 C477.660009,425.05592 470.07366,424.420154 462.49144,423.743104 C462.342769,423.734847 462.231266,423.297242 462,422.843123 C462.739225,421.34453 464.296141,421.637643 465.580492,421.542691 C470.655954,421.167011 475.743805,420.601426 480.815137,420.659223 C484.416278,420.700507 486.460504,419.267968 488.207388,416.299681 C490.710016,412.039219 493.6091,408.009946 496.367772,403.902233 C497.05744,402.874273 497.850352,401.916495 498.531761,401 C500.745306,401.809157 499.948265,403.00638 499.386619,404.149934 C496.999624,408.963595 494.802597,413.880465 492.155428,418.545506 C490.445712,421.567461 490.268133,424.040345 492.064574,427.136611 C494.744781,431.772753 496.929418,436.706136 499.291635,441.532182 C499.820243,442.597298 500.869199,443.794521 498.424387,445" id="Fill-154"></path>
                    <path d="M462.094957,155.124789 C463.568861,154.926628 465.038636,154.637643 466.516669,154.534434 C471.879697,154.167011 477.238597,153.783074 482.601625,153.584913 C484.657659,153.506474 485.958162,152.78814 487.060493,151.050103 C490.004172,146.39332 493.117123,141.835616 496.180531,137.257272 C496.94019,136.113717 497.78655,135.032089 498.525566,134 C500.763257,134.949521 499.937541,136.138488 499.371925,137.282042 C496.791561,142.467255 494.314412,147.706136 491.589548,152.817039 C490.408773,155.042222 490.355102,156.866954 491.556519,159.116907 C494.297898,164.215425 496.770918,169.462563 499.343025,174.651905 C499.887998,175.76656 500.804543,176.955526 498.558595,178 C497.811321,176.97204 496.964962,175.898668 496.21356,174.775755 C493.377224,170.544192 490.421159,166.395196 487.824281,162.027397 C486.288448,159.430662 484.467744,158.324263 481.416722,158.291237 C476.053693,158.245825 470.690665,157.758679 465.331766,157.37887 C464.208791,157.296303 463.10646,156.899981 462,156.644023 C462.033029,156.136236 462.061929,155.632576 462.094957,155.124789" id="Fill-155"></path>
                    <path d="M435,156.296296 C433.711928,156.515126 432.432114,156.84337 431.139914,156.932523 C425.640839,157.297239 420.141764,157.706531 414.634433,157.852417 C412.384436,157.917256 411.022053,158.715578 409.845449,160.547262 C406.988572,165.008953 403.958301,169.361229 400.965186,173.737819 C400.201426,174.872491 399.34684,175.950429 398.570694,177 C396.345468,176.396193 396.977118,175.249364 397.563356,174.082273 C400.089958,169.118085 402.451423,164.064744 405.176189,159.214023 C406.641784,156.616436 406.641784,154.484874 405.192703,151.899444 C402.546376,147.158138 400.201426,142.258788 397.773906,137.39591 C397.274366,136.38281 396.106019,135.223824 398.223906,134 C398.855556,134.69296 399.63583,135.389973 400.209683,136.216662 C403.363807,140.824239 406.5716,145.395344 409.556458,150.104231 C410.877557,152.203374 412.409206,153.151635 414.981221,153.212421 C420.199562,153.329941 425.413775,153.75139 430.632116,154.112054 C432.085325,154.213363 433.530277,154.517293 434.975229,154.728018 C434.983486,155.250777 434.991743,155.769484 435,156.296296" id="Fill-156"></path>
                    <path d="M615.465105,377 C614.826257,377 614.369937,376.310335 613.921913,375.645155 C610.852123,371.111322 607.591508,366.67951 604.783065,361.982443 C603.50122,359.844073 602.040996,358.566765 600,358.015849 L600,352.910696 C601.899951,352.45364 603.277208,351.380374 604.463641,349.454209 C607.404832,344.675524 610.694485,340.100883 613.838946,335.444624 C614.303563,334.767201 614.726696,334 615.448511,334 C615.850903,334 616.348707,334.240771 617,334.877384 C615.531479,337.844168 613.959248,340.925216 612.478282,344.051153 C610.615666,347.944292 608.823572,351.878239 607.00244,355.795862 C608.856759,359.566575 610.711079,363.333207 612.569546,367.10392 C614.050512,370.099269 615.531479,373.090538 616.958516,375.975705 C616.357003,376.718421 615.875793,377 615.465105,377" id="Fill-87"></path>
                    <path d="M731.323858,267 C733.800981,267.768884 732.935231,268.996618 732.380157,270.11274 C729.869895,275.180759 727.488045,280.319053 724.762381,285.267193 C723.316702,287.900413 723.271137,290.049981 724.737527,292.708005 C727.475618,297.643743 729.849183,302.782037 732.355302,307.85419 C732.902092,308.962044 733.821693,310.177377 731.472983,311 C730.72736,309.974821 729.865752,308.895904 729.10356,307.750846 C726.187349,303.410372 723.163436,299.127772 720.466768,294.655017 C719.045943,292.294626 717.277161,291.389327 714.634344,291.290116 C709.116739,291.079293 703.61156,290.645246 698.098097,290.285607 C697.120503,290.2236 696.159479,290.078918 695.26059,289.979707 C694.506683,288.177377 695.504988,287.850808 696.768404,287.768132 C701.010167,287.487035 705.285068,286.734686 709.481265,287.04472 C716.084165,287.528373 720.296932,285.010898 723.295991,279.173995 C725.524573,274.837655 728.660329,270.972567 731.323858,267" id="Fill-101"></path>
                    <path d="M630.44452,311 C628.179145,309.671279 629.260253,308.515333 629.767796,307.470456 C632.128078,302.669783 634.529623,297.902019 636.910536,293.113687 C637.58726,291.731488 638.230973,290.332835 638.91595,288.901272 C635.862439,282.767764 632.82956,276.741212 629.866829,270.677636 C629.326275,269.566941 627.931563,268.217651 630.494037,267 C631.253288,268.044877 632.074435,269.122663 632.82956,270.249813 C635.651994,274.458115 638.64361,278.571803 641.181325,282.944652 C642.823619,285.762528 644.952824,286.692221 648.047599,286.770381 C653.399496,286.910247 658.743141,287.350411 664.090912,287.708302 C665.21741,287.782349 666.735913,287.387435 667,289.641735 C666.075694,289.851533 665.209157,290.155946 664.334367,290.217651 C658.57396,290.616679 652.801173,291.040389 647.02426,291.28721 C644.531935,291.390052 642.897894,292.348542 641.577457,294.495886 C638.833423,298.922214 635.862439,303.200449 632.961604,307.523934 C632.194099,308.667539 631.348194,309.753553 630.44452,311" id="Fill-105"></path>
                    <path d="M745.939345,378 C743.503889,377.50469 744.405909,376.171482 744.930721,375.085929 C747.407179,370.013133 749.781133,364.882552 752.491296,359.933583 C753.934529,357.304315 753.99193,355.162101 752.560997,352.495685 C749.559728,346.906942 746.902867,341.136585 744,335.225891 C744.672415,334.817261 745.221828,334.474672 745.988546,334 C749.65813,339.563977 753.335915,344.888555 756.722593,350.394747 C758.141226,352.706191 759.781264,353.659662 762.466825,353.758724 C768.903974,354.006379 775.324722,354.571857 781.667568,354.988743 C782.606489,357.180488 781.401062,357.390994 779.986529,357.477674 C774.656406,357.787242 769.334484,358.373358 764.008461,358.356848 C760.178973,358.344465 757.821418,359.772608 755.935375,363.070544 C753.479418,367.350844 750.576552,371.362852 747.841789,375.478049 C747.239075,376.381989 746.529758,377.21576 745.939345,378" id="Fill-110"></path>
                    <path d="M616.925795,376.012908 C615.495294,377.819352 614.745002,376.80807 613.974098,375.662222 C611.026523,371.24194 607.868702,366.931758 605.156109,362.368755 C603.255645,359.159566 600.942932,357.64672 597.088411,357.716042 C592.594906,357.805753 588.076666,357.263412 583.579038,356.953503 C582.061964,356.851559 580.549013,356.610972 579.093777,356.443784 C578.623814,354.188788 580.008968,354.188788 581.27457,354.111311 C586.910003,353.76878 592.537191,353.303916 598.176747,353.169351 C601.000647,353.11634 602.831029,352.215157 604.335735,349.768507 C607.345147,344.879284 610.663745,340.189871 613.875159,335.44337 C614.575981,334.407621 615.227333,333.070119 617,334.925495 C615.911665,337.147869 614.794472,339.504809 613.619565,341.845438 C611.805673,345.470558 610.07423,349.140533 608.111929,352.684098 C607.048328,354.604719 607.007103,356.195041 608.054214,358.140128 C610.57305,362.821386 612.885763,367.608665 615.252068,372.355166 C615.866317,373.582569 616.398118,374.850749 616.925795,376.012908" id="Fill-128"></path>
                    <path d="M616.925795,242.012908 C615.495294,243.819352 614.745002,242.80807 613.974098,241.662222 C611.026523,237.24194 607.868702,232.931758 605.156109,228.368755 C603.255645,225.159566 600.942932,223.64672 597.088411,223.716042 C592.594906,223.805753 588.076666,223.263412 583.579038,222.953503 C582.061964,222.851559 580.549013,222.610972 579.093777,222.443784 C578.623814,220.188788 580.008968,220.188788 581.27457,220.111311 C586.910003,219.76878 592.537191,219.303916 598.176747,219.169351 C601.000647,219.11634 602.831029,218.215157 604.335735,215.768507 C607.345147,210.879284 610.663745,206.189871 613.875159,201.44337 C614.575981,200.407621 615.227333,199.070119 617,200.925495 C615.911665,203.147869 614.794472,205.504809 613.619565,207.845438 C611.805673,211.470558 610.07423,215.140533 608.111929,218.684098 C607.048328,220.604719 607.007103,222.195041 608.054214,224.140128 C610.57305,228.821386 612.885763,233.608665 615.252068,238.355166 C615.866317,239.582569 616.398118,240.850749 616.925795,242.012908" id="Fill-128"></path>
                    <path d="M746.780415,244 C744.527759,243.5525 744.861333,242.495904 745.413172,241.373011 C746.982207,238.199077 748.600661,235.045861 750.116159,231.85121 C751.69343,228.536397 754.324961,225.20501 754.374379,221.844618 C754.415561,218.666541 751.718139,215.442885 750.18205,212.264808 C748.641843,209.078444 747.031626,205.921085 745.474945,202.743008 C744.980761,201.723703 744.38774,200.609097 746.467432,200 C746.982207,200.621527 747.632883,201.292777 748.139422,202.063471 C751.203364,206.654487 754.357907,211.191638 757.215939,215.906959 C758.760264,218.459365 760.572273,219.652698 763.623861,219.685846 C768.973405,219.747999 774.322949,220.23279 779.65602,220.59742 C780.821471,220.68029 782.31226,220.224503 783,222.520011 C782.065168,222.793483 781.142691,223.24927 780.203741,223.31971 C774.578277,223.750636 768.952814,224.285149 763.32735,224.38045 C760.386954,224.430172 758.752028,225.673227 757.277712,228.018457 C753.904904,233.409172 750.309714,238.667294 746.780415,244" id="Fill-130"></path>
                    <path d="M615.2358,244 C611.535938,238.574785 607.757178,233.198264 604.194347,227.704067 C602.907077,225.727942 601.445403,224.883929 599.036962,224.814948 C597.924097,224.786543 596.811231,224.741908 595.702518,224.693215 C595.175153,223.20402 594.610415,221.743229 594,220.298669 C595.515656,220.22563 597.02716,220.168821 598.542817,220.140417 C601.266846,220.083609 602.948602,219.14221 604.389514,216.882042 C607.836075,211.469001 611.569157,206.222327 615.119531,201 C617.424159,201.077097 617.220687,202.184864 616.547985,203.507691 C614.71674,207.115033 612.839817,210.698028 611.066707,214.329716 C609.725455,217.068699 607.562011,219.848259 607.520486,222.627819 C607.495571,225.245069 609.742065,227.906955 611.050097,230.520147 C612.856427,234.139662 614.725045,237.730773 616.547985,241.334057 C617.07535,242.380957 617.594411,243.460319 615.2358,244" id="Fill-150"></path>
                    <path d="M667,421.793256 C665.713495,424.255722 664.165605,423.875012 662.883184,423.960064 C657.577881,424.328624 652.276664,424.818687 646.971361,424.851088 C644.185976,424.867288 642.670759,425.993218 641.298486,428.184327 C638.570279,432.538193 635.625611,436.762456 632.754459,441.02317 C632.060154,442.047848 631.29642,443.015824 630.57761,444 C628.474277,443.538288 628.878607,442.440708 629.495312,441.209475 C631.872284,436.499199 633.983786,431.64312 636.654816,427.106998 C638.594784,423.82236 638.44367,421.133088 636.585385,417.917302 C634.024627,413.482434 631.917209,408.772158 629.621921,404.183385 C629.054225,403.045305 628.29049,401.882924 630.491843,401 C631.222905,402.020627 632.051986,403.093906 632.811637,404.215786 C635.842071,408.711406 638.913347,413.174626 641.825341,417.747198 C642.919891,419.460394 644.218649,420.140812 646.244384,420.217764 C651.549686,420.416219 656.854988,420.792879 662.152122,421.153339 C663.618329,421.254592 665.072284,421.534049 667,421.793256" id="Fill-153"></path>
                    <path d="M731.424387,445 C727.026204,438.42766 722.723006,431.991556 718.53544,425.724714 C710.660009,425.05592 703.07366,424.420154 695.49144,423.743104 C695.342769,423.734847 695.231266,423.297242 695,422.843123 C695.739225,421.34453 697.296141,421.637643 698.580492,421.542691 C703.655954,421.167011 708.743805,420.601426 713.815137,420.659223 C717.416278,420.700507 719.460504,419.267968 721.207388,416.299681 C723.710016,412.039219 726.6091,408.009946 729.367772,403.902233 C730.05744,402.874273 730.850352,401.916495 731.531761,401 C733.745306,401.809157 732.948265,403.00638 732.386619,404.149934 C729.999624,408.963595 727.802597,413.880465 725.155428,418.545506 C723.445712,421.567461 723.268133,424.040345 725.064574,427.136611 C727.744781,431.772753 729.929418,436.706136 732.291635,441.532182 C732.820243,442.597298 733.869199,443.794521 731.424387,445" id="Fill-154"></path>
                    <path d="M695.094957,155.124789 C696.568861,154.926628 698.038636,154.637643 699.516669,154.534434 C704.879697,154.167011 710.238597,153.783074 715.601625,153.584913 C717.657659,153.506474 718.958162,152.78814 720.060493,151.050103 C723.004172,146.39332 726.117123,141.835616 729.180531,137.257272 C729.94019,136.113717 730.78655,135.032089 731.525566,134 C733.763257,134.949521 732.937541,136.138488 732.371925,137.282042 C729.791561,142.467255 727.314412,147.706136 724.589548,152.817039 C723.408773,155.042222 723.355102,156.866954 724.556519,159.116907 C727.297898,164.215425 729.770918,169.462563 732.343025,174.651905 C732.887998,175.76656 733.804543,176.955526 731.558595,178 C730.811321,176.97204 729.964962,175.898668 729.21356,174.775755 C726.377224,170.544192 723.421159,166.395196 720.824281,162.027397 C719.288448,159.430662 717.467744,158.324263 714.416722,158.291237 C709.053693,158.245825 703.690665,157.758679 698.331766,157.37887 C697.208791,157.296303 696.10646,156.899981 695,156.644023 C695.033029,156.136236 695.061929,155.632576 695.094957,155.124789" id="Fill-155"></path>
                    <path d="M667,156.296296 C665.711928,156.515126 664.432114,156.84337 663.139914,156.932523 C657.640839,157.297239 652.141764,157.706531 646.634433,157.852417 C644.384436,157.917256 643.022053,158.715578 641.845449,160.547262 C638.988572,165.008953 635.958301,169.361229 632.965186,173.737819 C632.201426,174.872491 631.34684,175.950429 630.570694,177 C628.345468,176.396193 628.977118,175.249364 629.563356,174.082273 C632.089958,169.118085 634.451423,164.064744 637.176189,159.214023 C638.641784,156.616436 638.641784,154.484874 637.192703,151.899444 C634.546376,147.158138 632.201426,142.258788 629.773906,137.39591 C629.274366,136.38281 628.106019,135.223824 630.223906,134 C630.855556,134.69296 631.63583,135.389973 632.209683,136.216662 C635.363807,140.824239 638.5716,145.395344 641.556458,150.104231 C642.877557,152.203374 644.409206,153.151635 646.981221,153.212421 C652.199562,153.329941 657.413775,153.75139 662.632116,154.112054 C664.085325,154.213363 665.530277,154.517293 666.975229,154.728018 C666.983486,155.250777 666.991743,155.769484 667,156.296296" id="Fill-156"></path>
                    <path d="M845.465105,377 C844.826257,377 844.369937,376.310335 843.921913,375.645155 C840.852123,371.111322 837.591508,366.67951 834.783065,361.982443 C833.50122,359.844073 832.040996,358.566765 830,358.015849 L830,352.910696 C831.899951,352.45364 833.277208,351.380374 834.463641,349.454209 C837.404832,344.675524 840.694485,340.100883 843.838946,335.444624 C844.303563,334.767201 844.726696,334 845.448511,334 C845.850903,334 846.348707,334.240771 847,334.877384 C845.531479,337.844168 843.959248,340.925216 842.478282,344.051153 C840.615666,347.944292 838.823572,351.878239 837.00244,355.795862 C838.856759,359.566575 840.711079,363.333207 842.569546,367.10392 C844.050512,370.099269 845.531479,373.090538 846.958516,375.975705 C846.357003,376.718421 845.875793,377 845.465105,377" id="Fill-87"></path>
                    <path d="M961.323858,267 C963.800981,267.768884 962.935231,268.996618 962.380157,270.11274 C959.869895,275.180759 957.488045,280.319053 954.762381,285.267193 C953.316702,287.900413 953.271137,290.049981 954.737527,292.708005 C957.475618,297.643743 959.849183,302.782037 962.355302,307.85419 C962.902092,308.962044 963.821693,310.177377 961.472983,311 C960.72736,309.974821 959.865752,308.895904 959.10356,307.750846 C956.187349,303.410372 953.163436,299.127772 950.466768,294.655017 C949.045943,292.294626 947.277161,291.389327 944.634344,291.290116 C939.116739,291.079293 933.61156,290.645246 928.098097,290.285607 C927.120503,290.2236 926.159479,290.078918 925.26059,289.979707 C924.506683,288.177377 925.504988,287.850808 926.768404,287.768132 C931.010167,287.487035 935.285068,286.734686 939.481265,287.04472 C946.084165,287.528373 950.296932,285.010898 953.295991,279.173995 C955.524573,274.837655 958.660329,270.972567 961.323858,267" id="Fill-101"></path>
                    <path d="M860.44452,311 C858.179145,309.671279 859.260253,308.515333 859.767796,307.470456 C862.128078,302.669783 864.529623,297.902019 866.910536,293.113687 C867.58726,291.731488 868.230973,290.332835 868.91595,288.901272 C865.862439,282.767764 862.82956,276.741212 859.866829,270.677636 C859.326275,269.566941 857.931563,268.217651 860.494037,267 C861.253288,268.044877 862.074435,269.122663 862.82956,270.249813 C865.651994,274.458115 868.64361,278.571803 871.181325,282.944652 C872.823619,285.762528 874.952824,286.692221 878.047599,286.770381 C883.399496,286.910247 888.743141,287.350411 894.090912,287.708302 C895.21741,287.782349 896.735913,287.387435 897,289.641735 C896.075694,289.851533 895.209157,290.155946 894.334367,290.217651 C888.57396,290.616679 882.801173,291.040389 877.02426,291.28721 C874.531935,291.390052 872.897894,292.348542 871.577457,294.495886 C868.833423,298.922214 865.862439,303.200449 862.961604,307.523934 C862.194099,308.667539 861.348194,309.753553 860.44452,311" id="Fill-105"></path>
                    <path d="M976.939345,378 C974.503889,377.50469 975.405909,376.171482 975.930721,375.085929 C978.407179,370.013133 980.781133,364.882552 983.491296,359.933583 C984.934529,357.304315 984.99193,355.162101 983.560997,352.495685 C980.559728,346.906942 977.902867,341.136585 975,335.225891 C975.672415,334.817261 976.221828,334.474672 976.988546,334 C980.65813,339.563977 984.335915,344.888555 987.722593,350.394747 C989.141226,352.706191 990.781264,353.659662 993.466825,353.758724 C999.903974,354.006379 1006.32472,354.571857 1012.66757,354.988743 C1013.60649,357.180488 1012.40106,357.390994 1010.98653,357.477674 C1005.65641,357.787242 1000.33448,358.373358 995.008461,358.356848 C991.178973,358.344465 988.821418,359.772608 986.935375,363.070544 C984.479418,367.350844 981.576552,371.362852 978.841789,375.478049 C978.239075,376.381989 977.529758,377.21576 976.939345,378" id="Fill-110"></path>
                    <path d="M847.925795,376.012908 C846.495294,377.819352 845.745002,376.80807 844.974098,375.662222 C842.026523,371.24194 838.868702,366.931758 836.156109,362.368755 C834.255645,359.159566 831.942932,357.64672 828.088411,357.716042 C823.594906,357.805753 819.076666,357.263412 814.579038,356.953503 C813.061964,356.851559 811.549013,356.610972 810.093777,356.443784 C809.623814,354.188788 811.008968,354.188788 812.27457,354.111311 C817.910003,353.76878 823.537191,353.303916 829.176747,353.169351 C832.000647,353.11634 833.831029,352.215157 835.335735,349.768507 C838.345147,344.879284 841.663745,340.189871 844.875159,335.44337 C845.575981,334.407621 846.227333,333.070119 848,334.925495 C846.911665,337.147869 845.794472,339.504809 844.619565,341.845438 C842.805673,345.470558 841.07423,349.140533 839.111929,352.684098 C838.048328,354.604719 838.007103,356.195041 839.054214,358.140128 C841.57305,362.821386 843.885763,367.608665 846.252068,372.355166 C846.866317,373.582569 847.398118,374.850749 847.925795,376.012908" id="Fill-128"></path>
                    <path d="M847.925795,242.012908 C846.495294,243.819352 845.745002,242.80807 844.974098,241.662222 C842.026523,237.24194 838.868702,232.931758 836.156109,228.368755 C834.255645,225.159566 831.942932,223.64672 828.088411,223.716042 C823.594906,223.805753 819.076666,223.263412 814.579038,222.953503 C813.061964,222.851559 811.549013,222.610972 810.093777,222.443784 C809.623814,220.188788 811.008968,220.188788 812.27457,220.111311 C817.910003,219.76878 823.537191,219.303916 829.176747,219.169351 C832.000647,219.11634 833.831029,218.215157 835.335735,215.768507 C838.345147,210.879284 841.663745,206.189871 844.875159,201.44337 C845.575981,200.407621 846.227333,199.070119 848,200.925495 C846.911665,203.147869 845.794472,205.504809 844.619565,207.845438 C842.805673,211.470558 841.07423,215.140533 839.111929,218.684098 C838.048328,220.604719 838.007103,222.195041 839.054214,224.140128 C841.57305,228.821386 843.885763,233.608665 846.252068,238.355166 C846.866317,239.582569 847.398118,240.850749 847.925795,242.012908" id="Fill-128"></path>
                    <path d="M977.780415,244 C975.527759,243.5525 975.861333,242.495904 976.413172,241.373011 C977.982207,238.199077 979.600661,235.045861 981.116159,231.85121 C982.69343,228.536397 985.324961,225.20501 985.374379,221.844618 C985.415561,218.666541 982.718139,215.442885 981.18205,212.264808 C979.641843,209.078444 978.031626,205.921085 976.474945,202.743008 C975.980761,201.723703 975.38774,200.609097 977.467432,200 C977.982207,200.621527 978.632883,201.292777 979.139422,202.063471 C982.203364,206.654487 985.357907,211.191638 988.215939,215.906959 C989.760264,218.459365 991.572273,219.652698 994.623861,219.685846 C999.973405,219.747999 1005.32295,220.23279 1010.65602,220.59742 C1011.82147,220.68029 1013.31226,220.224503 1014,222.520011 C1013.06517,222.793483 1012.14269,223.24927 1011.20374,223.31971 C1005.57828,223.750636 999.952814,224.285149 994.32735,224.38045 C991.386954,224.430172 989.752028,225.673227 988.277712,228.018457 C984.904904,233.409172 981.309714,238.667294 977.780415,244" id="Fill-130"></path>
                    <path d="M846.2358,244 C842.535938,238.574785 838.757178,233.198264 835.194347,227.704067 C833.907077,225.727942 832.445403,224.883929 830.036962,224.814948 C828.924097,224.786543 827.811231,224.741908 826.702518,224.693215 C826.175153,223.20402 825.610415,221.743229 825,220.298669 C826.515656,220.22563 828.02716,220.168821 829.542817,220.140417 C832.266846,220.083609 833.948602,219.14221 835.389514,216.882042 C838.836075,211.469001 842.569157,206.222327 846.119531,201 C848.424159,201.077097 848.220687,202.184864 847.547985,203.507691 C845.71674,207.115033 843.839817,210.698028 842.066707,214.329716 C840.725455,217.068699 838.562011,219.848259 838.520486,222.627819 C838.495571,225.245069 840.742065,227.906955 842.050097,230.520147 C843.856427,234.139662 845.725045,237.730773 847.547985,241.334057 C848.07535,242.380957 848.594411,243.460319 846.2358,244" id="Fill-150"></path>
                    <path d="M897,421.793256 C895.713495,424.255722 894.165605,423.875012 892.883184,423.960064 C887.577881,424.328624 882.276664,424.818687 876.971361,424.851088 C874.185976,424.867288 872.670759,425.993218 871.298486,428.184327 C868.570279,432.538193 865.625611,436.762456 862.754459,441.02317 C862.060154,442.047848 861.29642,443.015824 860.57761,444 C858.474277,443.538288 858.878607,442.440708 859.495312,441.209475 C861.872284,436.499199 863.983786,431.64312 866.654816,427.106998 C868.594784,423.82236 868.44367,421.133088 866.585385,417.917302 C864.024627,413.482434 861.917209,408.772158 859.621921,404.183385 C859.054225,403.045305 858.29049,401.882924 860.491843,401 C861.222905,402.020627 862.051986,403.093906 862.811637,404.215786 C865.842071,408.711406 868.913347,413.174626 871.825341,417.747198 C872.919891,419.460394 874.218649,420.140812 876.244384,420.217764 C881.549686,420.416219 886.854988,420.792879 892.152122,421.153339 C893.618329,421.254592 895.072284,421.534049 897,421.793256" id="Fill-153"></path>
                    <path d="M961.424387,445 C957.026204,438.42766 952.723006,431.991556 948.53544,425.724714 C940.660009,425.05592 933.07366,424.420154 925.49144,423.743104 C925.342769,423.734847 925.231266,423.297242 925,422.843123 C925.739225,421.34453 927.296141,421.637643 928.580492,421.542691 C933.655954,421.167011 938.743805,420.601426 943.815137,420.659223 C947.416278,420.700507 949.460504,419.267968 951.207388,416.299681 C953.710016,412.039219 956.6091,408.009946 959.367772,403.902233 C960.05744,402.874273 960.850352,401.916495 961.531761,401 C963.745306,401.809157 962.948265,403.00638 962.386619,404.149934 C959.999624,408.963595 957.802597,413.880465 955.155428,418.545506 C953.445712,421.567461 953.268133,424.040345 955.064574,427.136611 C957.744781,431.772753 959.929418,436.706136 962.291635,441.532182 C962.820243,442.597298 963.869199,443.794521 961.424387,445" id="Fill-154"></path>
                    <path d="M925.094957,155.124789 C926.568861,154.926628 928.038636,154.637643 929.516669,154.534434 C934.879697,154.167011 940.238597,153.783074 945.601625,153.584913 C947.657659,153.506474 948.958162,152.78814 950.060493,151.050103 C953.004172,146.39332 956.117123,141.835616 959.180531,137.257272 C959.94019,136.113717 960.78655,135.032089 961.525566,134 C963.763257,134.949521 962.937541,136.138488 962.371925,137.282042 C959.791561,142.467255 957.314412,147.706136 954.589548,152.817039 C953.408773,155.042222 953.355102,156.866954 954.556519,159.116907 C957.297898,164.215425 959.770918,169.462563 962.343025,174.651905 C962.887998,175.76656 963.804543,176.955526 961.558595,178 C960.811321,176.97204 959.964962,175.898668 959.21356,174.775755 C956.377224,170.544192 953.421159,166.395196 950.824281,162.027397 C949.288448,159.430662 947.467744,158.324263 944.416722,158.291237 C939.053693,158.245825 933.690665,157.758679 928.331766,157.37887 C927.208791,157.296303 926.10646,156.899981 925,156.644023 C925.033029,156.136236 925.061929,155.632576 925.094957,155.124789" id="Fill-155"></path>
                    <path d="M897,156.296296 C895.711928,156.515126 894.432114,156.84337 893.139914,156.932523 C887.640839,157.297239 882.141764,157.706531 876.634433,157.852417 C874.384436,157.917256 873.022053,158.715578 871.845449,160.547262 C868.988572,165.008953 865.958301,169.361229 862.965186,173.737819 C862.201426,174.872491 861.34684,175.950429 860.570694,177 C858.345468,176.396193 858.977118,175.249364 859.563356,174.082273 C862.089958,169.118085 864.451423,164.064744 867.176189,159.214023 C868.641784,156.616436 868.641784,154.484874 867.192703,151.899444 C864.546376,147.158138 862.201426,142.258788 859.773906,137.39591 C859.274366,136.38281 858.106019,135.223824 860.223906,134 C860.855556,134.69296 861.63583,135.389973 862.209683,136.216662 C865.363807,140.824239 868.5716,145.395344 871.556458,150.104231 C872.877557,152.203374 874.409206,153.151635 876.981221,153.212421 C882.199562,153.329941 887.413775,153.75139 892.632116,154.112054 C894.085325,154.213363 895.530277,154.517293 896.975229,154.728018 C896.983486,155.250777 896.991743,155.769484 897,156.296296" id="Fill-156"></path>
                    <path d="M1076.4651,377 C1075.82626,377 1075.36994,376.310335 1074.92191,375.645155 C1071.85212,371.111322 1068.59151,366.67951 1065.78306,361.982443 C1064.50122,359.844073 1063.041,358.566765 1061,358.015849 L1061,352.910696 C1062.89995,352.45364 1064.27721,351.380374 1065.46364,349.454209 C1068.40483,344.675524 1071.69449,340.100883 1074.83895,335.444624 C1075.30356,334.767201 1075.7267,334 1076.44851,334 C1076.8509,334 1077.34871,334.240771 1078,334.877384 C1076.53148,337.844168 1074.95925,340.925216 1073.47828,344.051153 C1071.61567,347.944292 1069.82357,351.878239 1068.00244,355.795862 C1069.85676,359.566575 1071.71108,363.333207 1073.56955,367.10392 C1075.05051,370.099269 1076.53148,373.090538 1077.95852,375.975705 C1077.357,376.718421 1076.87579,377 1076.4651,377" id="Fill-87"></path>
                    <path d="M1092.44452,311 C1090.17914,309.671279 1091.26025,308.515333 1091.7678,307.470456 C1094.12808,302.669783 1096.52962,297.902019 1098.91054,293.113687 C1099.58726,291.731488 1100.23097,290.332835 1100.91595,288.901272 C1097.86244,282.767764 1094.82956,276.741212 1091.86683,270.677636 C1091.32627,269.566941 1089.93156,268.217651 1092.49404,267 C1093.25329,268.044877 1094.07443,269.122663 1094.82956,270.249813 C1097.65199,274.458115 1100.64361,278.571803 1103.18133,282.944652 C1104.82362,285.762528 1106.95282,286.692221 1110.0476,286.770381 C1115.3995,286.910247 1120.74314,287.350411 1126.09091,287.708302 C1127.21741,287.782349 1128.73591,287.387435 1129,289.641735 C1128.07569,289.851533 1127.20916,290.155946 1126.33437,290.217651 C1120.57396,290.616679 1114.80117,291.040389 1109.02426,291.28721 C1106.53193,291.390052 1104.89789,292.348542 1103.57746,294.495886 C1100.83342,298.922214 1097.86244,303.200449 1094.9616,307.523934 C1094.1941,308.667539 1093.34819,309.753553 1092.44452,311" id="Fill-105"></path>
                    <path d="M1077.9258,376.012908 C1076.49529,377.819352 1075.745,376.80807 1074.9741,375.662222 C1072.02652,371.24194 1068.8687,366.931758 1066.15611,362.368755 C1064.25564,359.159566 1061.94293,357.64672 1058.08841,357.716042 C1053.59491,357.805753 1049.07667,357.263412 1044.57904,356.953503 C1043.06196,356.851559 1041.54901,356.610972 1040.09378,356.443784 C1039.62381,354.188788 1041.00897,354.188788 1042.27457,354.111311 C1047.91,353.76878 1053.53719,353.303916 1059.17675,353.169351 C1062.00065,353.11634 1063.83103,352.215157 1065.33573,349.768507 C1068.34515,344.879284 1071.66375,340.189871 1074.87516,335.44337 C1075.57598,334.407621 1076.22733,333.070119 1078,334.925495 C1076.91166,337.147869 1075.79447,339.504809 1074.61956,341.845438 C1072.80567,345.470558 1071.07423,349.140533 1069.11193,352.684098 C1068.04833,354.604719 1068.0071,356.195041 1069.05421,358.140128 C1071.57305,362.821386 1073.88576,367.608665 1076.25207,372.355166 C1076.86632,373.582569 1077.39812,374.850749 1077.9258,376.012908" id="Fill-128"></path>
                    <path d="M1077.9258,242.012908 C1076.49529,243.819352 1075.745,242.80807 1074.9741,241.662222 C1072.02652,237.24194 1068.8687,232.931758 1066.15611,228.368755 C1064.25564,225.159566 1061.94293,223.64672 1058.08841,223.716042 C1053.59491,223.805753 1049.07667,223.263412 1044.57904,222.953503 C1043.06196,222.851559 1041.54901,222.610972 1040.09378,222.443784 C1039.62381,220.188788 1041.00897,220.188788 1042.27457,220.111311 C1047.91,219.76878 1053.53719,219.303916 1059.17675,219.169351 C1062.00065,219.11634 1063.83103,218.215157 1065.33573,215.768507 C1068.34515,210.879284 1071.66375,206.189871 1074.87516,201.44337 C1075.57598,200.407621 1076.22733,199.070119 1078,200.925495 C1076.91166,203.147869 1075.79447,205.504809 1074.61956,207.845438 C1072.80567,211.470558 1071.07423,215.140533 1069.11193,218.684098 C1068.04833,220.604719 1068.0071,222.195041 1069.05421,224.140128 C1071.57305,228.821386 1073.88576,233.608665 1076.25207,238.355166 C1076.86632,239.582569 1077.39812,240.850749 1077.9258,242.012908" id="Fill-128"></path>
                    <path d="M1076.2358,244 C1072.53594,238.574785 1068.75718,233.198264 1065.19435,227.704067 C1063.90708,225.727942 1062.4454,224.883929 1060.03696,224.814948 C1058.9241,224.786543 1057.81123,224.741908 1056.70252,224.693215 C1056.17515,223.20402 1055.61042,221.743229 1055,220.298669 C1056.51566,220.22563 1058.02716,220.168821 1059.54282,220.140417 C1062.26685,220.083609 1063.9486,219.14221 1065.38951,216.882042 C1068.83607,211.469001 1072.56916,206.222327 1076.11953,201 C1078.42416,201.077097 1078.22069,202.184864 1077.54799,203.507691 C1075.71674,207.115033 1073.83982,210.698028 1072.06671,214.329716 C1070.72545,217.068699 1068.56201,219.848259 1068.52049,222.627819 C1068.49557,225.245069 1070.74206,227.906955 1072.0501,230.520147 C1073.85643,234.139662 1075.72504,237.730773 1077.54799,241.334057 C1078.07535,242.380957 1078.59441,243.460319 1076.2358,244" id="Fill-150"></path>
                    <path d="M1129,421.793256 C1127.71349,424.255722 1126.1656,423.875012 1124.88318,423.960064 C1119.57788,424.328624 1114.27666,424.818687 1108.97136,424.851088 C1106.18598,424.867288 1104.67076,425.993218 1103.29849,428.184327 C1100.57028,432.538193 1097.62561,436.762456 1094.75446,441.02317 C1094.06015,442.047848 1093.29642,443.015824 1092.57761,444 C1090.47428,443.538288 1090.87861,442.440708 1091.49531,441.209475 C1093.87228,436.499199 1095.98379,431.64312 1098.65482,427.106998 C1100.59478,423.82236 1100.44367,421.133088 1098.58539,417.917302 C1096.02463,413.482434 1093.91721,408.772158 1091.62192,404.183385 C1091.05422,403.045305 1090.29049,401.882924 1092.49184,401 C1093.2229,402.020627 1094.05199,403.093906 1094.81164,404.215786 C1097.84207,408.711406 1100.91335,413.174626 1103.82534,417.747198 C1104.91989,419.460394 1106.21865,420.140812 1108.24438,420.217764 C1113.54969,420.416219 1118.85499,420.792879 1124.15212,421.153339 C1125.61833,421.254592 1127.07228,421.534049 1129,421.793256" id="Fill-153"></path>
                    <path d="M1129,156.296296 C1127.71193,156.515126 1126.43211,156.84337 1125.13991,156.932523 C1119.64084,157.297239 1114.14176,157.706531 1108.63443,157.852417 C1106.38444,157.917256 1105.02205,158.715578 1103.84545,160.547262 C1100.98857,165.008953 1097.9583,169.361229 1094.96519,173.737819 C1094.20143,174.872491 1093.34684,175.950429 1092.57069,177 C1090.34547,176.396193 1090.97712,175.249364 1091.56336,174.082273 C1094.08996,169.118085 1096.45142,164.064744 1099.17619,159.214023 C1100.64178,156.616436 1100.64178,154.484874 1099.1927,151.899444 C1096.54638,147.158138 1094.20143,142.258788 1091.77391,137.39591 C1091.27437,136.38281 1090.10602,135.223824 1092.22391,134 C1092.85556,134.69296 1093.63583,135.389973 1094.20968,136.216662 C1097.36381,140.824239 1100.5716,145.395344 1103.55646,150.104231 C1104.87756,152.203374 1106.40921,153.151635 1108.98122,153.212421 C1114.19956,153.329941 1119.41378,153.75139 1124.63212,154.112054 C1126.08533,154.213363 1127.53028,154.517293 1128.97523,154.728018 C1128.98349,155.250777 1128.99174,155.769484 1129,156.296296" id="Fill-156"></path>
                </g>
            </g>
            <g id="Group-8" opacity="0.234375" mask="url(#mask-7)" fill="#F4F5FB">
                <g transform="translate(-28.000000, 409.000000)">
                    <path d="M36.4243873,311 C32.0262045,304.42766 27.7230059,297.991556 23.5354403,291.724714 C15.6600087,291.05592 8.07365955,290.420154 0.491440146,289.743104 C0.342769178,289.734847 0.231265951,289.297242 0,288.843123 C0.739225094,287.34453 2.29614052,287.637643 3.5804925,287.542691 C8.65595418,287.167011 13.7438051,286.601426 18.815137,286.659223 C22.4162783,286.700507 24.4605041,285.267968 26.207388,282.299681 C28.7100159,278.039219 31.6090998,274.009946 34.3677723,269.902233 C35.0574404,268.874273 35.8503522,267.916495 36.5317608,267 C38.7453063,267.809157 37.9482648,269.00638 37.3866189,270.149934 C34.9996239,274.963595 32.8025973,279.880465 30.1554281,284.545506 C28.445712,287.567461 28.2681328,290.040345 30.0645737,293.136611 C32.7447808,297.772753 34.9294181,302.706136 37.2916346,307.532182 C37.8202425,308.597298 38.8691988,309.794521 36.4243873,311" id="Fill-154"></path>
                    <path d="M151.465105,243 C150.826257,243 150.369937,242.310335 149.921913,241.645155 C146.852123,237.111322 143.591508,232.67951 140.783065,227.982443 C139.50122,225.844073 138.040996,224.566765 136,224.015849 L136,218.910696 C137.899951,218.45364 139.277208,217.380374 140.463641,215.454209 C143.404832,210.675524 146.694485,206.100883 149.838946,201.444624 C150.303563,200.767201 150.726696,200 151.448511,200 C151.850903,200 152.348707,200.240771 153,200.877384 C151.531479,203.844168 149.959248,206.925216 148.478282,210.051153 C146.615666,213.944292 144.823572,217.878239 143.00244,221.795862 C144.856759,225.566575 146.711079,229.333207 148.569546,233.10392 C150.050512,236.099269 151.531479,239.090538 152.958516,241.975705 C152.357003,242.718421 151.875793,243 151.465105,243" id="Fill-87"></path>
                    <path d="M167.44452,177 C165.179145,175.671279 166.260253,174.515333 166.767796,173.470456 C169.128078,168.669783 171.529623,163.902019 173.910536,159.113687 C174.58726,157.731488 175.230973,156.332835 175.91595,154.901272 C172.862439,148.767764 169.82956,142.741212 166.866829,136.677636 C166.326275,135.566941 164.931563,134.217651 167.494037,133 C168.253288,134.044877 169.074435,135.122663 169.82956,136.249813 C172.651994,140.458115 175.64361,144.571803 178.181325,148.944652 C179.823619,151.762528 181.952824,152.692221 185.047599,152.770381 C190.399496,152.910247 195.743141,153.350411 201.090912,153.708302 C202.21741,153.782349 203.735913,153.387435 204,155.641735 C203.075694,155.851533 202.209157,156.155946 201.334367,156.217651 C195.57396,156.616679 189.801173,157.040389 184.02426,157.28721 C181.531935,157.390052 179.897894,158.348542 178.577457,160.495886 C175.833423,164.922214 172.862439,169.200449 169.961604,173.523934 C169.194099,174.667539 168.348194,175.753553 167.44452,177" id="Fill-105"></path>
                    <path d="M51.4445201,244 C49.179145,242.671279 50.260253,241.515333 50.767796,240.470456 C53.1280776,235.669783 55.5296228,230.902019 57.9105362,226.113687 C58.5872603,224.731488 59.2309735,223.332835 59.9159503,221.901272 C56.8624392,215.767764 53.8295599,209.741212 50.8668288,203.677636 C50.3262748,202.566941 48.931563,201.217651 51.4940365,200 C52.2532879,201.044877 53.0744348,202.122663 53.8295599,203.249813 C56.6519945,207.458115 59.6436101,211.571803 62.1813255,215.944652 C63.8236193,218.762528 65.9528244,219.692221 69.0475991,219.770381 C74.3994964,219.910247 79.7431408,220.350411 85.0909117,220.708302 C86.2174097,220.782349 87.7359126,220.387435 88,222.641735 C87.0756939,222.851533 86.209157,223.155946 85.3343673,223.217651 C79.5739598,223.616679 73.8011732,224.040389 68.0242603,224.28721 C65.531935,224.390052 63.8978939,225.348542 62.5774566,227.495886 C59.833423,231.922214 56.8624392,236.200449 53.9616036,240.523934 C53.1940995,241.667539 52.3481943,242.753553 51.4445201,244" id="Fill-105"></path>
                    <path d="M152.925795,242.012908 C151.495294,243.819352 150.745002,242.80807 149.974098,241.662222 C147.026523,237.24194 143.868702,232.931758 141.156109,228.368755 C139.255645,225.159566 136.942932,223.64672 133.088411,223.716042 C128.594906,223.805753 124.076666,223.263412 119.579038,222.953503 C118.061964,222.851559 116.549013,222.610972 115.093777,222.443784 C114.623814,220.188788 116.008968,220.188788 117.27457,220.111311 C122.910003,219.76878 128.537191,219.303916 134.176747,219.169351 C137.000647,219.11634 138.831029,218.215157 140.335735,215.768507 C143.345147,210.879284 146.663745,206.189871 149.875159,201.44337 C150.575981,200.407621 151.227333,199.070119 153,200.925495 C151.911665,203.147869 150.794472,205.504809 149.619565,207.845438 C147.805673,211.470558 146.07423,215.140533 144.111929,218.684098 C143.048328,220.604719 143.007103,222.195041 144.054214,224.140128 C146.57305,228.821386 148.885763,233.608665 151.252068,238.355166 C151.866317,239.582569 152.398118,240.850749 152.925795,242.012908" id="Fill-128"></path>
                    <path d="M152.925795,108.012908 C151.495294,109.819352 150.745002,108.80807 149.974098,107.662222 C147.026523,103.24194 143.868702,98.9317581 141.156109,94.3687554 C139.255645,91.1595659 136.942932,89.6467205 133.088411,89.7160422 C128.594906,89.8057527 124.076666,89.2634119 119.579038,88.9535029 C118.061964,88.8515591 116.549013,88.6109719 115.093777,88.4437841 C114.623814,86.1887881 116.008968,86.1887881 117.27457,86.1113109 C122.910003,85.7687799 128.537191,85.3039163 134.176747,85.1693505 C137.000647,85.1163398 138.831029,84.215157 140.335735,81.7685067 C143.345147,76.879284 146.663745,72.189871 149.875159,67.4433696 C150.575981,66.407621 151.227333,65.0701188 153,66.9254953 C151.911665,69.1478692 150.794472,71.504809 149.619565,73.8454377 C147.805673,77.4705578 146.07423,81.1405332 144.111929,84.6840982 C143.048328,86.6047187 143.007103,88.1950413 144.054214,90.1401283 C146.57305,94.8213857 148.885763,99.6086647 151.252068,104.355166 C151.866317,105.582569 152.398118,106.850749 152.925795,108.012908" id="Fill-128"></path>
                    <path d="M151.2358,110 C147.535938,104.574785 143.757178,99.1982637 140.194347,93.7040672 C138.907077,91.7279419 137.445403,90.8839294 135.036962,90.8149476 C133.924097,90.7865434 132.811231,90.7419081 131.702518,90.6932151 C131.175153,89.20402 130.610415,87.7432292 130,86.2986694 C131.515656,86.2256299 133.02716,86.1688214 134.542817,86.1404171 C137.266846,86.0836086 138.948602,85.1422101 140.389514,82.8820421 C143.836075,77.4690007 147.569157,72.2223271 151.119531,67 C153.424159,67.0770973 153.220687,68.1848636 152.547985,69.5076909 C150.71674,73.1150326 148.839817,76.6980277 147.066707,80.329716 C145.725455,83.0686987 143.562011,85.8482589 143.520486,88.6278192 C143.495571,91.2450694 145.742065,93.9069548 147.050097,96.5201472 C148.856427,100.139662 150.725045,103.730773 152.547985,107.334057 C153.07535,108.380957 153.594411,109.460319 151.2358,110" id="Fill-150"></path>
                    <path d="M204,287.793256 C202.713495,290.255722 201.165605,289.875012 199.883184,289.960064 C194.577881,290.328624 189.276664,290.818687 183.971361,290.851088 C181.185976,290.867288 179.670759,291.993218 178.298486,294.184327 C175.570279,298.538193 172.625611,302.762456 169.754459,307.02317 C169.060154,308.047848 168.29642,309.015824 167.57761,310 C165.474277,309.538288 165.878607,308.440708 166.495312,307.209475 C168.872284,302.499199 170.983786,297.64312 173.654816,293.106998 C175.594784,289.82236 175.44367,287.133088 173.585385,283.917302 C171.024627,279.482434 168.917209,274.772158 166.621921,270.183385 C166.054225,269.045305 165.29049,267.882924 167.491843,267 C168.222905,268.020627 169.051986,269.093906 169.811637,270.215786 C172.842071,274.711406 175.913347,279.174626 178.825341,283.747198 C179.919891,285.460394 181.218649,286.140812 183.244384,286.217764 C188.549686,286.416219 193.854988,286.792879 199.152122,287.153339 C200.618329,287.254592 202.072284,287.534049 204,287.793256" id="Fill-153"></path>
                    <path d="M204,22.2962963 C202.711928,22.5151258 201.432114,22.8433701 200.139914,22.9325229 C194.640839,23.2972387 189.141764,23.706531 183.634433,23.8524173 C181.384436,23.9172557 180.022053,24.7155782 178.845449,26.5472623 C175.988572,31.008953 172.958301,35.3612289 169.965186,39.7378192 C169.201426,40.8724908 168.34684,41.9504288 167.570694,43 C165.345468,42.3961926 165.977118,41.2493639 166.563356,40.0822731 C169.089958,35.118085 171.451423,30.0647441 174.176189,25.2140232 C175.641784,22.6164358 175.641784,20.4848742 174.192703,17.899444 C171.546376,13.1581378 169.201426,8.25878805 166.773906,3.3959099 C166.274366,2.38281029 165.106019,1.22382433 167.223906,0 C167.855556,0.692960136 168.63583,1.38997267 169.209683,2.21666195 C172.363807,6.824239 175.5716,11.3953445 178.556458,16.1042315 C179.877557,18.2033739 181.409206,19.1516351 183.981221,19.2124211 C189.199562,19.3299406 194.413775,19.7513901 199.632116,20.1120535 C201.085325,20.2133635 202.530277,20.5172934 203.975229,20.7280181 C203.983486,21.2507775 203.991743,21.7694845 204,22.2962963" id="Fill-156"></path>
                </g>
            </g>
            <g id="Group-8" opacity="0.234375" mask="url(#mask-7)" fill="#F4F5FB">
                <g transform="translate(1361.000000, 78.000000)">
                    <path d="M36.3238582,195 C38.8009814,195.768884 37.935231,196.996618 37.3801565,198.11274 C34.8698946,203.180759 32.4880453,208.319053 29.7623813,213.267193 C28.3167024,215.900413 28.2711366,218.049981 29.7375273,220.708005 C32.4756183,225.643743 34.8491828,230.782037 37.3553024,235.85419 C37.9020922,236.962044 38.8216931,238.177377 36.4729826,239 C35.7273603,237.974821 34.8657522,236.895904 34.1035605,235.750846 C31.1873485,231.410372 28.1634356,227.127772 25.466768,222.655017 C24.0459432,220.294626 22.2771612,219.389327 19.6343442,219.290116 C14.1167387,219.079293 8.61156018,218.645246 3.098097,218.285607 C2.12050323,218.2236 1.15947885,218.078918 0.260589662,217.979707 C-0.493317399,216.177377 0.504988104,215.850808 1.76840378,215.768132 C6.01016658,215.487035 10.2850682,214.734686 14.4812651,215.04472 C21.0841654,215.528373 25.2969318,213.010898 28.2959907,207.173995 C30.5245731,202.837655 33.6603294,198.972567 36.3238582,195" id="Fill-101"></path>
                    <path d="M152.323858,0 C154.800981,0.768883878 153.935231,1.99661781 153.380157,3.11273957 C150.869895,8.18075911 148.488045,13.319053 145.762381,18.2671928 C144.316702,20.9004134 144.271137,23.0499812 145.737527,25.7080045 C148.475618,30.643743 150.849183,35.7820368 153.355302,40.8541902 C153.902092,41.9620443 154.821693,43.1773769 152.472983,44 C151.72736,42.9748215 150.865752,41.8959038 150.10356,40.7508455 C147.187349,36.410372 144.163436,32.1277715 141.466768,27.6550169 C140.045943,25.2946261 138.277161,24.3893273 135.634344,24.2901165 C130.116739,24.0792935 124.61156,23.6452461 119.098097,23.2856069 C118.120503,23.2236002 117.159479,23.0789177 116.26059,22.9797069 C115.506683,21.1773769 116.504988,20.850808 117.768404,20.7681323 C122.010167,20.4870349 126.285068,19.7346862 130.481265,20.04472 C137.084165,20.5283728 141.296932,18.0108982 144.295991,12.1739947 C146.524573,7.83765502 149.660329,3.9725667 152.323858,0" id="Fill-101"></path>
                    <path d="M51.9393447,306 C49.5038886,305.50469 50.4059094,304.171482 50.9307214,303.085929 C53.4071785,298.013133 55.7811332,292.882552 58.4912956,287.933583 C59.9345289,285.304315 59.9919302,283.162101 58.5609972,280.495685 C55.5597281,274.906942 52.9028669,269.136585 50,263.225891 C50.6724155,262.817261 51.2218282,262.474672 51.9885458,262 C55.6581304,267.563977 59.3359151,272.888555 62.7225931,278.394747 C64.1412258,280.706191 65.7812636,281.659662 68.4668255,281.758724 C74.9039738,282.006379 81.3247217,282.571857 87.6675679,282.988743 C88.6064895,285.180488 87.4010617,285.390994 85.9865291,285.477674 C80.6564063,285.787242 75.3344837,286.373358 70.008461,286.356848 C66.1789728,286.344465 63.8214184,287.772608 61.935375,291.070544 C59.4794184,295.350844 56.5765515,299.362852 53.8417885,303.478049 C53.2390746,304.381989 52.5297583,305.21576 51.9393447,306" id="Fill-110"></path>
                    <path d="M153.925795,170.012908 C152.495294,171.819352 151.745002,170.80807 150.974098,169.662222 C148.026523,165.24194 144.868702,160.931758 142.156109,156.368755 C140.255645,153.159566 137.942932,151.64672 134.088411,151.716042 C129.594906,151.805753 125.076666,151.263412 120.579038,150.953503 C119.061964,150.851559 117.549013,150.610972 116.093777,150.443784 C115.623814,148.188788 117.008968,148.188788 118.27457,148.111311 C123.910003,147.76878 129.537191,147.303916 135.176747,147.169351 C138.000647,147.11634 139.831029,146.215157 141.335735,143.768507 C144.345147,138.879284 147.663745,134.189871 150.875159,129.44337 C151.575981,128.407621 152.227333,127.070119 154,128.925495 C152.911665,131.147869 151.794472,133.504809 150.619565,135.845438 C148.805673,139.470558 147.07423,143.140533 145.111929,146.684098 C144.048328,148.604719 144.007103,150.195041 145.054214,152.140128 C147.57305,156.821386 149.885763,161.608665 152.252068,166.355166 C152.866317,167.582569 153.398118,168.850749 153.925795,170.012908" id="Fill-128"></path>
                    <path d="M153.2358,172 C149.535938,166.574785 145.757178,161.198264 142.194347,155.704067 C140.907077,153.727942 139.445403,152.883929 137.036962,152.814948 C135.924097,152.786543 134.811231,152.741908 133.702518,152.693215 C133.175153,151.20402 132.610415,149.743229 132,148.298669 C133.515656,148.22563 135.02716,148.168821 136.542817,148.140417 C139.266846,148.083609 140.948602,147.14221 142.389514,144.882042 C145.836075,139.469001 149.569157,134.222327 153.119531,129 C155.424159,129.077097 155.220687,130.184864 154.547985,131.507691 C152.71674,135.115033 150.839817,138.698028 149.066707,142.329716 C147.725455,145.068699 145.562011,147.848259 145.520486,150.627819 C145.495571,153.245069 147.742065,155.906955 149.050097,158.520147 C150.856427,162.139662 152.725045,165.730773 154.547985,169.334057 C155.07535,170.380957 155.594411,171.460319 153.2358,172" id="Fill-150"></path>
                    <path d="M232.094957,83.1247889 C233.568861,82.9266279 235.038636,82.6376431 236.516669,82.5344342 C241.879697,82.1670107 247.238597,81.7830737 252.601625,81.5849127 C254.657659,81.506474 255.958162,80.7881404 257.060493,79.0501032 C260.004172,74.3933196 263.117123,69.8356164 266.180531,65.2572715 C266.94019,64.1137174 267.78655,63.0320886 268.525566,62 C270.763257,62.9495215 269.937541,64.1384875 269.371925,65.2820417 C266.791561,70.4672546 264.314412,75.7061362 261.589548,80.8170388 C260.408773,83.0422218 260.355102,84.8669544 261.556519,87.1169075 C264.297898,92.215425 266.770918,97.4625633 269.343025,102.651905 C269.887998,103.76656 270.804543,104.955526 268.558595,106 C267.811321,104.97204 266.964962,103.898668 266.21356,102.775755 C263.377224,98.5441922 260.421159,94.3951961 257.824281,90.0273973 C256.288448,87.4306624 254.467744,86.3242635 251.416722,86.2912366 C246.053693,86.2458247 240.690665,85.7586789 235.331766,85.3788703 C234.208791,85.2963032 233.10646,84.8999812 232,84.6440233 C232.033029,84.1362357 232.061929,83.6325765 232.094957,83.1247889" id="Fill-155"></path>
                </g>
            </g>
            <path d="M206.999771,481.67389 C206.999771,478.893565 204.784738,476.709475 201.800529,475.268341 C198.816642,473.827208 194.856779,473 190.5,473 C186.143221,473 182.183358,473.827212 179.199242,475.268341 C176.215033,476.70947 174,478.893555 174,481.67389 C174.005958,487.957863 174,499.961634 174,506.326092 C174,509.106445 176.215033,511.276246 179.199242,512.717393 C182.183358,514.15854 186.143221,515 190.5,515 C194.856779,515 198.816642,514.15854 201.800758,512.717393 C204.784967,511.276246 207,509.106445 207,506.326092 L206.999771,481.67389 Z M190.5,475.739129 C194.496529,475.739129 198.1076,476.533896 200.597633,477.73641 C203.087713,478.938925 204.25,480.420154 204.25,481.67389 C204.25,482.927681 203.087758,484.394621 200.597633,485.597144 C198.1076,486.799668 194.496529,487.608669 190.5,487.608669 C186.503517,487.608669 182.8924,486.799668 180.402367,485.597144 C177.912287,484.394621 176.75,482.927635 176.75,481.67389 C176.75,480.420163 177.912242,478.938929 180.402367,477.73641 C182.8924,476.533892 186.503517,475.739129 190.5,475.739129 Z M176.75,486.581496 C177.4683,487.142561 178.303017,487.632409 179.199242,488.065191 C182.183358,489.506338 186.143221,490.347798 190.5,490.347798 C194.856779,490.347798 198.816642,489.506338 201.800758,488.065191 C202.696983,487.632409 203.5317,487.142561 204.25,486.581496 L204.25,489.891277 C204.25,491.145068 203.087758,492.612008 200.597633,493.814527 C198.1076,495.01705 194.496529,495.826097 190.5,495.826097 C186.503517,495.826097 182.8924,495.01705 180.402367,493.814527 C177.912242,492.612008 176.75,491.145022 176.75,489.891277 L176.75,486.581496 Z M176.75,494.798924 C177.4683,495.359943 178.302925,495.849836 179.199242,496.282619 C182.183358,497.72372 186.143221,498.565226 190.5,498.565226 C194.856779,498.565226 198.816642,497.723766 201.800758,496.282619 C202.697075,495.849836 203.5317,495.359943 204.25,494.798924 L204.25,498.108705 C204.25,499.36245 203.087758,500.829436 200.597633,502.031914 C198.1076,503.234437 194.496529,504.043484 190.5,504.043484 C186.503517,504.043484 182.8924,503.234437 180.402367,502.031914 C177.912242,500.82939 176.75,499.36245 176.75,498.108705 L176.75,494.798924 Z M176.75,503.016311 C177.4683,503.57733 178.302971,504.067223 179.199242,504.500006 C182.183358,505.941107 186.143221,506.782613 190.5,506.782613 C194.856779,506.782613 198.816642,505.941153 201.800758,504.500006 C202.697029,504.067223 203.5317,503.57733 204.25,503.016311 L204.25,506.326092 C204.25,507.579837 203.087758,509.046823 200.597633,510.2493 C198.1076,511.451824 194.496529,512.260871 190.5,512.260871 C186.503517,512.260871 182.8924,511.451824 180.402367,510.2493 C177.912242,509.046823 176.75,507.579837 176.75,506.326092 L176.75,503.016311 Z" id="Shape" fill="#FFFFFF" fill-rule="nonzero" opacity="0.320199275" mask="url(#mask-7)"></path>
            <g id="Group" opacity="0.32" mask="url(#mask-7)" fill="#FFFFFF" fill-rule="nonzero">
                <g transform="translate(1212.000000, 408.000000)" id="Shape">
                    <path d="M11.0909091,31.8181818 C10.6060606,31.8181818 10.1212121,31.6363636 9.75757576,31.2727273 L0.666666667,21.5757576 C-5.77315973e-15,20.8484848 -5.77315973e-15,19.8181818 0.666666667,19.0909091 L9.75757576,9.39393939 C10.4242424,8.66666667 11.5757576,8.60606061 12.3030303,9.27272727 C13.030303,9.93939394 13.0909091,11.0909091 12.4242424,11.8181818 C12.4242424,11.8181818 12.4242424,11.8181818 12.3636364,11.8787879 L4.42424242,20.3636364 L12.3636364,28.8484848 C13.030303,29.5757576 13.030303,30.7272727 12.3030303,31.3939394 C11.9393939,31.6969697 11.5151515,31.8787879 11.0909091,31.8787879 L11.0909091,31.8181818 Z"></path>
                    <path d="M28.9090909,31.8181818 C27.8787879,31.8181818 27.0909091,31.030303 27.0909091,30 C27.0909091,29.5151515 27.2727273,29.0909091 27.5757576,28.7878788 L35.5151515,20.3030303 L27.5757576,11.8181818 C26.9090909,11.0909091 26.969697,9.93939394 27.6969697,9.27272727 C28.4242424,8.60606061 29.5757576,8.66666667 30.2424242,9.33333333 L39.3333333,19.030303 C40,19.7575758 40,20.7878788 39.3333333,21.5151515 L30.2424242,31.2121212 C29.8787879,31.5757576 29.3939394,31.8181818 28.9090909,31.8181818 Z"></path>
                    <path d="M16.3636364,39.5757576 C16.2424242,39.5757576 16.1212121,39.5757576 16,39.5151515 C15.030303,39.3333333 14.3636364,38.3636364 14.6060606,37.3939394 C14.6060606,37.3939394 14.6060606,37.3939394 14.6060606,37.3939394 L21.8787879,1.81818182 C22.0606061,0.848484848 23.030303,0.181818182 24,0.424242424 C24.969697,0.666666667 25.6363636,1.57575758 25.3939394,2.54545455 L18.1212121,38.1212121 C18,38.969697 17.2121212,39.5757576 16.3636364,39.5757576 Z"></path>
                </g>
            </g>
            <g id="Group-9" opacity="0.32" mask="url(#mask-7)">
                <g transform="translate(1328.000000, 206.000000)">
                    <polygon id="Shape" fill="#FFFFFF" fill-rule="nonzero" points="0 14 1.75 14 1.75 1.75 14 1.75 14 0 0 0"></polygon>
                    <polygon id="Shape" fill="#FFFFFF" fill-rule="nonzero" points="42 0 28 0 28 1.75 40.25 1.75 40.25 14 42 14"></polygon>
                    <polygon id="Shape" fill="#FFFFFF" fill-rule="nonzero" points="42 28 40.25 28 40.25 40.25 28 40.25 28 42 42 42"></polygon>
                    <polygon id="Shape" fill="#FFFFFF" fill-rule="nonzero" points="0 42 14 42 14 40.25 1.75 40.25 1.75 28 0 28"></polygon>
                    <g id="Group" stroke-width="1" fill="none" fill-rule="evenodd" transform="translate(11.846154, 10.769231)">
                        <path d="M19.7658965,0.116009298 L7.94041106,0.116009298 L7.94041106,7.2813105 L12.3029341,7.2813105 C12.4344437,7.28132365 12.5410499,7.38792993 12.5410631,7.51943949 L12.5410631,11.9438832 L19.7658965,11.9438832 L19.7658965,0.116009298 Z" id="Shape" fill="#FFFFFF"></path>
                        <polygon id="Shape" fill="#FFFFFF" points="12.0648051 7.75756848 7.94041106 7.75756848 7.94041106 11.9438832 12.0648051 11.9438832"></polygon>
                        <path d="M7.46415308,7.75756848 L0.236938342,7.75756848 L0.236938342,19.5830611 L12.0648051,19.5830611 L12.0648051,12.4201412 L7.70228207,12.4201412 C7.57077251,12.420128 7.46416623,12.3135218 7.46415308,12.1820122 L7.46415308,7.75756848 Z" id="Shape" fill="#FFFFFF"></path>
                    </g>
                </g>
            </g>
            <path d="M301.302227,315.025957 C292.003794,311.503494 285.993578,303.521449 286.000053,294.702761 L286.000053,283.26284 C285.995779,282.845965 286.25029,282.45849 286.666373,282.248956 L303.613886,274.139931 C304.010716,273.953356 304.489693,273.953356 304.886394,274.139931 L322.307013,282.248956 C322.729139,282.449857 322.993923,282.832338 322.999967,283.25136 L322.999967,294.481747 C323.016586,303.422422 316.838019,311.492014 307.344473,314.928377 L304.679669,315.906375 C304.345905,316.031208 303.968068,316.031208 303.634044,315.906375 L301.302227,315.025957 Z M306.332087,312.802233 L306.332087,312.79794 C313.139159,310.332435 318.151968,305.155304 319.782328,298.901848 L304.266824,291.679727 L289.171072,298.901848 C290.720106,305.142377 295.629401,310.351802 302.361838,312.90056 L304.173454,313.585117 L306.332087,312.802233 Z M288.638094,283.93517 L288.638094,294.725721 C288.638094,295.304764 288.678239,295.884553 288.738068,296.462896 L302.981106,289.63469 C303.774595,289.259395 304.732289,289.259395 305.525778,289.63469 L320.222066,296.475123 C320.295147,295.819966 320.348501,295.159817 320.348501,294.493927 L320.348501,283.94091 L304.266824,276.457595 L288.638094,283.93517 Z" id="Combined-shape-312" fill="#FFFFFF" opacity="0.329999983" mask="url(#mask-7)"></path>
            <path d="M90.7195275,705.371843 C91.0936531,705.746062 91.0936531,706.354345 90.7185528,706.727883 L87.7282765,709.718324 C87.5476708,709.897515 87.3042479,710 87.0487392,710 C86.7954721,710 86.5520005,709.899464 86.3712973,709.718324 L76.0554777,699.402217 C75.6803774,699.02868 75.6803774,698.419714 76.0554777,698.045495 L76.8871117,697.213089 L75.0509379,695.375082 C72.1774753,697.936431 68.3921637,699.498074 64.2488572,699.498074 C55.2892858,699.498074 48,692.208764 48,683.248696 C48,674.288629 55.2883598,667 64.2488572,667 C73.2077464,667 80.498153,674.288629 80.498153,683.248696 C80.498153,687.375003 78.9504803,691.147606 76.4061139,694.017044 L78.2454555,695.856416 L79.0456565,695.055736 C79.2252388,694.875229 79.4688566,694.774742 79.7241705,694.774742 C79.9774863,694.774742 80.22203,694.874596 80.4027332,695.055736 L90.7195275,705.371843 Z M49.9178022,683.248696 C49.9178022,691.150238 56.3459703,697.576734 64.2471028,697.576734 C72.1483815,697.576734 78.5762572,691.151602 78.5762572,683.248696 C78.5762572,675.347155 72.1483815,668.920025 64.2471028,668.920025 C56.3459703,668.920025 49.9178022,675.34847 49.9178022,683.248696 Z M87.0500062,707.681925 L88.6829134,706.049522 L79.7241705,697.091452 L78.0911171,698.72254 L87.0500062,707.681925 Z" id="Combined-shape-311" fill="#FFFFFF" opacity="0.290000021" mask="url(#mask-7)"></path>
            <text id="Coming-soon" mask="url(#mask-7)" font-family="TitilliumWeb-SemiBold, Titillium Web" font-size="86" font-weight="500" line-spacing="80" fill="#FFFFFF">
                <tspan x="529" y="419">Coming soon</tspan>
            </text>
        </g>
    </g>
</svg>