<?xml version="1.0" encoding="utf-8"?>
<!-- Generator: Adobe Illustrator 21.1.0, SVG Export Plug-In . SVG Version: 6.00 Build 0)  -->
<svg version="1.1" id="Layer_1" xmlns="http://www.w3.org/2000/svg" xmlns:xlink="http://www.w3.org/1999/xlink" x="0px" y="0px"
	 width="60px" height="60px" viewBox="0 0 60 60" style="enable-background:new 0 0 60 60;" xml:space="preserve">
<style type="text/css">
	.st0{fill:#FF40E9;}
	.st1{fill:#FFFFFF;}
</style>
<title>Group 4</title>
<desc>Created with Sketch.</desc>
<g id="careers-copy" transform="translate(-771.000000, -1172.000000)">
	<g id="Group-4" transform="translate(771.000000, 1172.000000)">
		<path id="Rectangle" class="st0" d="M8,0h44c4.4,0,8,4,8,9v42c0,5-3.6,9-8,9H8c-4.4,0-8-4-8-9V9C0,4,3.6,0,8,0z"/>
		<g id="Group" transform="translate(13.000000, 13.000000)">
			<path id="Shape" class="st1" d="M30,30.8c0,0.4-0.4,0.9-0.9,0.9s-0.9-0.4-0.9-0.9v-7.3h-1.9v7.3c0,0.5-0.4,0.9-0.9,0.9
				s-0.9-0.4-0.9-0.9V16h-1.9v14.7c0,1.5,1.2,2.6,2.7,2.6c0.7,0,1.3-0.3,1.8-0.7c0.5,0.4,1.1,0.7,1.8,0.7c1.5,0,2.7-1.2,2.7-2.6V16
				h-1.9v14.7L30,30.8L30,30.8z"/>
			<path id="Shape_1_" class="st1" d="M30.4,9.6c1.3-0.9,2.1-2.4,2.1-4.1c0-2.8-2.3-5.1-5.1-5.1s-5.1,2.3-5.1,5.1
				c0,1.7,0.9,3.2,2.1,4.1c-2.6,0.8-4.5,3.2-4.5,6v6.5h1.9v-6.5c0-2.4,2-4.4,4.5-4.4h2.4c2.5,0,4.5,2,4.5,4.4v6.5h1.9v-6.5
				C34.8,12.7,33,10.3,30.4,9.6z M27.3,8.7c-1.8,0-3.3-1.5-3.3-3.2s1.5-3.3,3.3-3.3s3.3,1.5,3.3,3.3C30.7,7.2,29.1,8.7,27.3,8.7z"/>
			<path id="Shape_2_" class="st1" d="M16.1,31.8v-8.5h-5.4C12.3,28,15.3,31.1,16.1,31.8z"/>
			<path id="Shape_3_" class="st1" d="M9.7,17.2c0,1.5,0.2,2.9,0.5,4.2H16V13h-5.9C9.9,14.4,9.7,15.8,9.7,17.2z"/>
			<path id="Shape_4_" class="st1" d="M14.7,1.6C14.8,1.5,15,1.3,15.4,1C9.1,1.6,3.9,5.7,1.6,11.2h7.1C10.6,5.2,14.5,1.8,14.7,1.6z"
				/>
			<path id="Shape_5_" class="st1" d="M7.8,17.2c0-1.5,0.2-2.9,0.4-4.2H1c-0.4,1.3-0.5,2.8-0.5,4.2c0,1.5,0.2,2.9,0.5,4.2h7.3
				C8,20.1,7.8,18.7,7.8,17.2z"/>
			<path id="Shape_6_" class="st1" d="M10.7,11.2H16V2.9c0,0,0,0-0.1,0.1C15.9,3,12.4,6,10.7,11.2z"/>
			<path id="Shape_7_" class="st1" d="M8.8,23.3H1.6c2.2,5.5,7.4,9.4,13.5,10.1H15C14.8,33.1,10.6,29.5,8.8,23.3z"/>
		</g>
	</g>
</g>
</svg>
