<?xml version="1.0" encoding="utf-8"?>
<!-- Generator: Adobe Illustrator 21.1.0, SVG Export Plug-In . SVG Version: 6.00 Build 0)  -->
<svg version="1.1" id="Layer_1" xmlns="http://www.w3.org/2000/svg" xmlns:xlink="http://www.w3.org/1999/xlink" x="0px" y="0px"
	 viewBox="0 0 48 48" style="enable-background:new 0 0 48 48;" xml:space="preserve">
<style type="text/css">
	.st0{fill:#F13F32;}
</style>
<g>
	<path class="st0" d="M20.3,22v3h3.9c-0.6,1.9-1.6,3-3.9,3c-2.4,0-4.3-2-4.3-4.5s1.9-4.5,4.3-4.5c1.3,0,2.1,0.5,2.8,1.1
		c0.6-0.6,0.6-0.7,2.1-2.2c-1.3-1.2-3-2-4.9-2c-4,0-7.3,3.4-7.3,7.5s3.3,7.5,7.3,7.5c6,0,7.5-5.4,7-9h-7V22z"/>
	<polygon class="st0" points="33.5,22.2 33.5,19.6 31.7,19.6 31.7,22.2 29.1,22.2 29.1,24 31.7,24 31.7,26.7 33.5,26.7 33.5,24 
		36,24 36,22.2 	"/>
</g>
</svg>
