<?xml version="1.0" encoding="UTF-8"?>
<svg width="48px" height="81px" viewBox="0 0 48 81" version="1.1" xmlns="http://www.w3.org/2000/svg" xmlns:xlink="http://www.w3.org/1999/xlink">
    <!-- Generator: Sketch 48.1 (47250) - http://www.bohemiancoding.com/sketch -->
    <title>noun_197969_cc</title>
    <desc>Created with Sketch.</desc>
    <defs>
        <linearGradient x1="100%" y1="29.6494746%" x2="0%" y2="100%" id="linearGradient-1">
            <stop stop-color="#FF9B81" offset="0%"></stop>
            <stop stop-color="#6275FF" offset="100%"></stop>
        </linearGradient>
        <linearGradient x1="100%" y1="50%" x2="0%" y2="50%" id="linearGradient-2">
            <stop stop-color="#FF8D77" offset="0%"></stop>
            <stop stop-color="#725FFF" offset="100%"></stop>
        </linearGradient>
    </defs>
    <g id="grakn" stroke="none" stroke-width="1" fill="none" fill-rule="evenodd" transform="translate(-776.000000, -4010.000000)">
        <g id="noun_197969_cc" transform="translate(799.925926, 4050.500000) rotate(90.000000) translate(-799.925926, -4050.500000) translate(760.000000, 4026.000000)" fill="url(#linearGradient-2)" fill-rule="nonzero">
            <path d="M76.4998889,29.8936296 L79.6141111,24.5 L76.4989815,19.1072778 L71.2623333,19.1072778 L67.0238333,11.7654444 L69.976537,6.6522037 L66.5510741,0.718666667 L59.7001481,0.718666667 L56.7701296,5.7937963 L48.7831296,5.7937963 L45.8531111,0.718666667 L39.0012778,0.718666667 L35.5767222,6.6512963 L38.5294259,11.7654444 L34.6021667,18.5673704 L28.7421296,18.5673704 L25.8121111,23.6425 L13.8116481,23.6425 C13.3887963,20.2841852 10.5286481,17.684463 7.05509259,17.684463 C3.29116667,17.684463 0.237740741,20.7360741 0.237740741,24.5009074 C0.237740741,28.2666481 3.29025926,31.3182593 7.05509259,31.3182593 C10.5286481,31.3182593 13.3887963,28.718537 13.8116481,25.3593148 L25.8130185,25.3593148 L28.743037,30.4353519 L34.6030741,30.4353519 L38.5303333,37.2372778 L35.5776296,42.3514259 L39.0021852,48.284963 L45.8540185,48.284963 L48.784037,43.2098333 L56.7719444,43.2098333 L59.701963,48.284963 L66.5528889,48.284963 L69.9783519,42.3514259 L67.0256481,37.2381852 L71.2641481,29.8972593 L76.4998889,29.8972593 L76.4998889,29.8936296 Z M67.6535741,23.6415926 L59.1321111,23.6415926 L56.697537,19.4257778 L60.6474815,12.5848333 L65.5166296,12.5848333 L69.7769074,19.962963 L67.6535741,23.6415926 Z M59.1838333,11.6883148 L55.2130185,18.566463 L50.3792593,18.566463 L46.4120741,11.617537 L48.7831296,7.5097037 L56.771037,7.5097037 L59.1838333,11.6883148 Z M44.9874444,12.5848333 L48.8738704,19.3940185 L46.4211481,23.6425 L38.5230741,23.6425 L36.0885,19.4248704 L40.037537,12.5857407 L44.9874444,12.5857407 L44.9874444,12.5848333 Z M38.5239815,25.3575 L46.4211481,25.3575 L48.8566296,29.5751296 L44.9066852,36.4151667 L40.037537,36.4151667 L36.0885,29.5751296 L38.5239815,25.3575 Z M46.3712407,37.3116852 L50.342963,30.4326296 L55.1767222,30.4326296 L59.143,37.3815556 L56.771037,41.4902963 L48.7831296,41.4902963 L46.3712407,37.3116852 Z M60.5676296,36.4151667 L56.6802963,29.6050741 L59.1330185,25.3565926 L67.6535741,25.3565926 L69.776,29.037037 L65.5166296,36.4160741 L60.5676296,36.4160741 L60.5676296,36.4151667 Z" id="Shape"></path>
        </g>
    </g>
</svg>