<?xml version="1.0" encoding="UTF-8"?>
<svg width="58px" height="56px" viewBox="0 0 58 56" version="1.1" xmlns="http://www.w3.org/2000/svg" xmlns:xlink="http://www.w3.org/1999/xlink">
    <!-- Generator: Sketch 48.1 (47250) - http://www.bohemiancoding.com/sketch -->
    <title>Group 3</title>
    <desc>Created with Sketch.</desc>
    <defs></defs>
    <g id="grakn" stroke="none" stroke-width="1" fill="none" fill-rule="evenodd" transform="translate(-275.000000, -1767.000000)">
        <g id="Group-3" transform="translate(275.000000, 1767.000000)">
            <path d="M46.806,41.6116721 L40.9829841,35.8032787 L16.5714286,35.8032787 C13.5204444,35.8032787 11.047619,33.3374426 11.047619,30.295082 L11.047619,11.0163934 L2.76190476,11.0163934 C1.2364127,11.0163934 0,12.2493115 0,13.7704918 L0,44.9836066 C0,46.5038689 1.23457143,47.7358689 2.75822222,47.7377049 L5.98412698,47.7377049 L6.44444444,47.7377049 L6.44444444,53.2459016 C6.44444444,53.4359344 6.46377778,53.621377 6.50060317,53.8013115 C6.52638095,53.9261639 6.57057143,54.0436721 6.61292063,54.1620984 C6.63133333,54.2144262 6.64053968,54.2685902 6.66171429,54.3181639 C6.70590476,54.4237377 6.7675873,54.5192131 6.82466667,54.6174426 C6.85688889,54.6734426 6.8808254,54.7331148 6.91673016,54.7863607 C7.00695238,54.9203934 7.11190476,55.0415738 7.22330159,55.1572459 C7.23434921,55.1682623 7.24263492,55.1820328 7.25368254,55.1939672 C7.74530159,55.6851148 8.42380952,55.9871475 9.17228571,55.9972459 C9.18425397,55.9963279 9.19438095,56 9.20634921,56 C9.96863492,56 10.6591111,55.691541 11.1590159,55.1930492 L18.6364127,47.7377049 L19.3333333,47.7377049 L22.0952381,47.7377049 L28.447619,47.7377049 L47.8730159,47.7377049 C49.3985079,47.7377049 50.6349206,46.5047869 50.6349206,44.9836066 L50.6349206,43.147541 C49.1499365,43.147541 47.8067302,42.5554098 46.8142857,41.6034098 L46.806,41.6116721 Z" id="Path" fill="#FFD8D9"></path>
            <path d="M55.2380952,0 L16.5714286,0 C15.0459365,0 13.8095238,1.23291803 13.8095238,2.75409836 L13.8095238,30.295082 C13.8095238,31.8162623 15.0459365,33.0491803 16.5714286,33.0491803 L42.1254921,33.0491803 L48.6813333,39.5864918 C49.1821587,40.0849836 49.8726349,40.3934426 50.6349206,40.3934426 C50.6478095,40.3934426 50.6579365,40.3897705 50.6689841,40.3897705 C51.4165397,40.3805902 52.0959683,40.0776393 52.5875873,39.5864918 C52.5986349,39.5754754 52.6069206,39.5607869 52.6179683,39.5497705 C52.7293651,39.4340984 52.8333968,39.312 52.923619,39.1788852 C52.9595238,39.1265574 52.9834603,39.0668852 53.0166032,39.0099672 C53.0736825,38.9117377 53.1344444,38.8162623 53.1795556,38.7106885 C53.2007302,38.6611148 53.2099365,38.6060328 53.2283492,38.554623 C53.271619,38.4361967 53.3158095,38.3186885 53.3415873,38.192918 C53.3774921,38.0148197 53.3968254,37.829377 53.3968254,37.6393443 L53.3968254,33.0491803 L55.2380952,33.0491803 C56.7635873,33.0491803 58,31.8162623 58,30.295082 L58,2.75409836 C58,1.23291803 56.7635873,0 55.2380952,0 Z" id="Path" fill="#F75E62"></path>
        </g>
    </g>
</svg>