<?xml version="1.0" encoding="UTF-8"?>
<svg width="48px" height="60px" viewBox="0 0 48 60" version="1.1" xmlns="http://www.w3.org/2000/svg" xmlns:xlink="http://www.w3.org/1999/xlink">
    <!-- Generator: Sketch 48.1 (47250) - http://www.bohemiancoding.com/sketch -->
    <title>Group</title>
    <desc>Created with Sketch.</desc>
    <defs></defs>
    <g id="grakn" stroke="none" stroke-width="1" fill="none" fill-rule="evenodd" transform="translate(-876.000000, -1480.000000)">
        <g id="Group" transform="translate(876.000000, 1480.000000)" fill-rule="nonzero">
            <g id="Shape">
                <path d="M32.2133333,0 L1.6,0 C0.853333333,0 0.48,0.75 0.48,1.5 L0.48,43.5 C0.48,44.25 1.22666667,45 1.97333333,45 L9.06666667,45 C9.81333333,45 10.56,44.25 10.56,43.5 L10.56,10.875 C10.56,10.125 11.3066667,9.375 12.0533333,9.375 L32.96,9.375 C33.7066667,9.375 34.4533333,8.625 34.4533333,7.875 L34.4533333,1.5 C33.7066667,0.75 32.96,0 32.2133333,0 Z" fill="#FFE5AB"></path>
                <path d="M31.4666667,27.375 L31.4666667,16.125 C31.4666667,15 30.3466667,13.875 29.2266667,13.875 L16.5333333,13.875 C15.4133333,13.875 14.2933333,15 14.2933333,16.125 L14.2933333,58.125 C14.2933333,58.875 15.4133333,60 16.5333333,60 L45.28,60 C46.4,60 47.52,58.875 47.52,57.75 L47.52,31.875 C47.52,30.75 46.4,29.625 45.28,29.625 L33.7066667,29.625 C32.5866667,29.625 31.4666667,28.875 31.4666667,27.375 Z" fill="#FECE60"></path>
            </g>
            <path d="M35.5733333,15.375 L35.5733333,24.375 C35.5733333,25.125 36.32,25.875 37.0666667,25.875 L46.4,25.875 C47.52,25.875 48.2666667,24.375 47.52,23.625 L38.1866667,14.25 C37.0666667,13.5 35.5733333,14.25 35.5733333,15.375 Z" id="Shape" fill="#FECE60"></path>
        </g>
    </g>
</svg>