<?xml version="1.0" encoding="UTF-8"?>
<svg width="74px" height="77px" viewBox="0 0 74 77" version="1.1" xmlns="http://www.w3.org/2000/svg" xmlns:xlink="http://www.w3.org/1999/xlink">
    <!-- Generator: Sketch 48.1 (47250) - http://www.bohemiancoding.com/sketch -->
    <title>Group 8</title>
    <desc>Created with Sketch.</desc>
    <defs>
        <linearGradient x1="-0.231640749%" y1="50%" x2="99.1845129%" y2="50%" id="linearGradient-1">
            <stop stop-color="#7F68FC" offset="0%"></stop>
            <stop stop-color="#9084FC" offset="27.71%"></stop>
            <stop stop-color="#A197FD" offset="100%"></stop>
        </linearGradient>
    </defs>
    <g id="grakn" stroke="none" stroke-width="1" fill="none" fill-rule="evenodd" transform="translate(-861.000000, -1759.000000)">
        <g id="Group-8" transform="translate(861.000000, 1753.000000)" fill-rule="nonzero">
            <g id="Group-7" transform="translate(0.000000, 27.000000)">
                <path d="M32.4624023,0.777777778 C32.4624023,0.155555556 28.5956023,0.777777778 26.5175781,0.777777778 C22.8371287,0.777777778 17.3164545,0.777777778 9.95555556,0.777777778 C8.86666667,0.777777778 7.62222222,0.933333333 6.53333333,1.4 C3.26666667,2.64444444 0.933333333,5.91111111 0.933333333,9.33333333 C0.933333333,21.6222222 0.933333333,33.9111111 0.933333333,46.2 C0.933333333,47.7555556 1.24444444,49.4666667 2.02222222,50.7111111 C3.26666667,52.8888889 5.28888889,54.4444444 7.62222222,54.9111111 L7.62222222,27.2222222 C7.62222222,25.6666667 7.77777778,23.9555556 8.86666667,22.7111111 C9.95555556,21.3111111 11.5111111,20.3777778 13.3777778,20.0666667 L13.3777778,12.7555556 C12.2888889,12.1333333 11.5111111,11.2 11.2,9.95555556 C10.8888889,8.4 11.5111111,6.68888889 12.9111111,5.91111111 C14.3111111,4.97777778 16.1777778,5.13333333 17.5777778,6.06666667 C18.8222222,7 19.4444444,8.86666667 18.9777778,10.4222222 C18.6666667,11.5111111 17.8888889,12.2888889 16.9555556,12.7555556 L16.9555556,20.0666667 L41.8444444,20.0666667 C43.7111111,20.0666667 45.4222222,20.6888889 46.6666667,22.0888889 C47.9111111,23.3333333 48.5333333,25.0444444 48.5333333,26.7555556 L48.5333333,35.6222222 C48.5333333,38.2666667 46.8222222,40.7555556 44.3333333,41.6888889 C43.2444444,42.1555556 42.1555556,42.1555556 41.0666667,42.1555556 L22.5555556,42.1555556 L22.5555556,55.2222222 L46.8222222,55.2222222 C50.4,55.2222222 53.8222222,52.5777778 54.9111111,49.1555556 C55.5333333,47.6 55.3777778,45.8888889 55.3777778,44.1777778 L55.3777778,9.8 C55.4347988,8.3744747 53.1696676,6.09846227 54.5044223,5.756101 C54.5044223,5.756101 50.8735537,6.64241369 43.6118164,8.41503906 C36.1788737,3.73834635 32.4624023,1.19259259 32.4624023,0.777777778 Z" id="Shape" fill="url(#linearGradient-1)"></path>
                <path d="M21,26.4444444 C18.9777778,27.0666667 17.5777778,28.9333333 17.4222222,30.9555556 C17.2666667,32.8222222 18.3555556,34.6888889 19.9111111,35.6222222 C21.3111111,36.4 23.0222222,36.4 24.4222222,35.7777778 C26.7555556,34.6888889 27.8444444,31.8888889 26.9111111,29.5555556 C26.2888889,27.6888889 24.2666667,26.2888889 22.2444444,26.2888889 C21.7777778,26.2888889 21.4666667,26.2888889 21,26.4444444 Z" id="Shape" fill="#7F72D0"></path>
                <path d="M35.4666667,26.4444444 C32.9777778,27.2222222 31.5777778,29.8666667 32.2,32.3555556 C32.6666667,34.8444444 35.4666667,36.7111111 38.1111111,36.0888889 C40.7555556,35.6222222 42.4666667,32.5111111 41.8444444,30.0222222 C41.3777778,27.8444444 39.2,26.1333333 37.0222222,26.1333333 C36.4,26.2888889 35.9333333,26.2888889 35.4666667,26.4444444 Z" id="Shape" fill="#7F72D0"></path>
            </g>
            <g id="Group" transform="translate(45.056763, 24.340387) rotate(13.000000) translate(-45.056763, -24.340387) translate(17.056763, 5.840387)">
                <path d="M31.3760643,27.6526344 C30.3876741,28.1102098 29.1161478,28.3626205 27.7961394,28.3626205 C26.476131,28.3626205 25.2046048,28.1102098 24.2162145,27.6526344 L12.2288315,22.1002456 L10.023215,25.362816 C9.10657842,26.7187147 9.57071458,28.3904504 11.054916,29.0777842 L25.0972975,35.5815674 C26.581499,36.2689012 29.0107799,36.2689012 30.4949813,35.5815674 L41.1500738,30.6472612 L41.1500738,23.1254214 L31.3760643,27.6526344 Z" id="Shape" fill="#85D8FF"></path>
                <path d="M54.7847466,11.7033963 L30.4982849,0.490394719 C29.7894565,0.163248968 28.8573341,0 27.9232644,0 C26.9898438,0 26.0570723,0.163248968 25.3488929,0.490394719 L1.06178216,11.7033963 C-0.353927388,12.35704 -0.353927388,13.4272277 1.06178216,14.0808713 L14.2095112,20.1508826 L25.3488929,25.2932251 C26.0564232,25.619723 26.9898438,25.7836198 27.9232644,25.7836198 C28.856685,25.7836198 29.7894565,25.619723 30.4982849,25.2932251 L40.8892425,20.4955193 L29.1792928,14.5621967 C28.75088,14.6606643 28.2926081,14.7163763 27.8135647,14.7163763 C25.4923463,14.7163763 23.6099265,13.4602661 23.6099265,11.9106966 C23.6099265,10.361127 25.4916972,9.10436906 27.8135647,9.10436906 C30.1347831,9.10436906 32.0159048,10.3604792 32.0159048,11.9106966 C32.0159048,11.9657607 32.0081155,12.0195292 32.0042208,12.0739455 L38.3330462,15.2812695 L44.9370943,18.6272256 L54.7847466,14.0808713 C56.2004561,13.4272277 56.2004561,12.35704 54.7847466,11.7033963 Z" id="Shape" fill="#21B5FA"></path>
                <polygon id="Shape" fill="#21B5FA" points="44.0893648 22.6351716 44.0893648 29.6038818 44.0893648 36.0970677 48.4983013 34.088792 48.4983013 20.6268959"></polygon>
            </g>
        </g>
    </g>
</svg>