<?xml version="1.0" encoding="UTF-8"?>
<svg width="660px" height="455px" viewBox="0 0 660 455" version="1.1" xmlns="http://www.w3.org/2000/svg" xmlns:xlink="http://www.w3.org/1999/xlink">
    <!-- Generator: Sketch 48.1 (47250) - http://www.bohemiancoding.com/sketch -->
    <title>Group 13</title>
    <desc>Created with Sketch.</desc>
    <defs>
        <path d="M173.188749,177.690141 L207.434587,114.473577 C210.930565,108.02013 217.680475,104 225.020015,104 L296.763705,104 C304.071966,104 310.798323,107.98625 314.307404,114.396947 L348.426196,176.728148 C351.691481,182.693457 351.701832,189.909228 348.453675,195.883881 L313.296083,260.55268 C309.795585,266.991488 303.053734,271 295.724905,271 L225.92279,271 C218.634804,271 211.923751,267.035637 208.406331,260.652651 L173.257718,196.869215 C169.970991,190.904862 169.945003,183.677978 173.188749,177.690141 Z" id="path-1"></path>
        <filter x="-2.2%" y="-2.4%" width="104.5%" height="104.9%" filterUnits="objectBoundingBox" id="filter-2">
            <feGaussianBlur stdDeviation="3" in="SourceAlpha" result="shadowBlurInner1"></feGaussianBlur>
            <feOffset dx="2.1" dy="2.1" in="shadowBlurInner1" result="shadowOffsetInner1"></feOffset>
            <feComposite in="shadowOffsetInner1" in2="SourceAlpha" operator="arithmetic" k2="-1" k3="1" result="shadowInnerInner1"></feComposite>
            <feColorMatrix values="0 0 0 0 0   0 0 0 0 0   0 0 0 0 0  0 0 0 0.200492527 0" type="matrix" in="shadowInnerInner1"></feColorMatrix>
        </filter>
        <path d="M312.393082,262.486055 L348.318832,195.542651 C351.83987,188.981611 358.7143,184.919853 366.159992,185.001199 L434.26038,185.745213 C441.291397,185.822029 447.765587,189.585394 451.311886,195.657039 L487.400545,257.444708 C490.96459,263.546737 491.043955,271.076628 487.609317,277.252422 L452.311725,340.720732 C448.783042,347.065628 442.093073,351 434.832956,351 L363.669352,351 C356.483719,351 349.850367,347.145247 346.292711,340.902139 L312.63911,281.845549 C309.230924,275.864739 309.137986,268.551545 312.393082,262.486055 Z" id="path-3"></path>
        <filter x="-2.2%" y="-2.4%" width="104.5%" height="104.9%" filterUnits="objectBoundingBox" id="filter-4">
            <feGaussianBlur stdDeviation="3" in="SourceAlpha" result="shadowBlurInner1"></feGaussianBlur>
            <feOffset dx="2.1" dy="2.1" in="shadowBlurInner1" result="shadowOffsetInner1"></feOffset>
            <feComposite in="shadowOffsetInner1" in2="SourceAlpha" operator="arithmetic" k2="-1" k3="1" result="shadowInnerInner1"></feComposite>
            <feColorMatrix values="0 0 0 0 0   0 0 0 0 0   0 0 0 0 0  0 0 0 0.200492527 0" type="matrix" in="shadowInnerInner1"></feColorMatrix>
        </filter>
    </defs>
    <g id="grakn" stroke="none" stroke-width="1" fill="none" fill-rule="evenodd" transform="translate(-794.000000, -2124.000000)">
        <g id="Group-13" transform="translate(794.000000, 2124.000000)">
            <g id="Group-11" opacity="0.379812047" fill="#D7DAE8">
                <path d="M198.201842,293.517805 C199.149474,291.512183 200.116951,289.371855 201.148926,287.26645 C203.624676,282.207494 206.011119,277.098646 208.680364,272.14446 C210.114214,269.495243 210.218404,267.260122 208.749824,264.541057 C205.743202,258.998157 203.068996,253.26567 200.290601,247.598042 C199.551349,246.091331 198.921248,244.544707 198.276264,243.107843 C200.04253,240.967516 200.935585,242.204815 201.85841,243.611743 C205.410787,249.029916 209.255889,254.283448 212.480812,259.896196 C214.77795,263.892473 217.71015,265.548857 222.234966,265.58877 C228.347437,265.653629 234.449985,266.287246 240.547571,266.71132 C241.698621,266.791146 242.829825,267.020645 243.871724,267.175307 C244.610975,269.974197 242.829825,269.824524 241.321553,269.919317 C235.214044,270.29849 229.106534,270.96703 222.994064,270.947074 C218.097141,270.927117 214.787873,272.373959 212.312124,276.90407 C209.29558,282.422025 205.470324,287.500939 201.992368,292.774427 C201.139004,294.051639 200.350138,295.603252 198.201842,293.517805" id="Fill-49"></path>
                <path d="M182.853733,213.640013 C181.974065,212.423908 180.964446,211.118821 180.049792,209.764298 C176.341194,204.28194 172.59261,198.834187 169.033955,193.262847 C167.704458,191.186571 166.075073,190.267077 163.640993,190.138546 C156.308764,189.752952 148.971537,189.2586 141.644306,188.744475 C140.46975,188.660435 138.67043,189.164673 138.895345,186.440797 C139.829991,186.223282 140.874597,185.832745 141.949191,185.758592 C148.421745,185.323563 154.899297,184.789663 161.386845,184.636414 C165.320358,184.547431 168.024337,183.33627 170.093555,179.806601 C173.177389,174.551645 176.796022,169.608131 180.21473,164.550915 C181.044416,163.31998 182.004054,162.173085 182.838738,161.055851 C185.647677,161.802321 184.658051,163.275489 183.988304,164.620125 C180.964446,170.680873 178.075538,176.820718 174.806774,182.743048 C173.077427,185.867349 172.907491,188.433033 174.706811,191.636431 C178.020559,197.538987 180.869482,203.693662 183.898338,209.754411 C184.558088,211.074329 185.707654,212.522779 182.853733,213.640013" id="Fill-99"></path>
                <path d="M105.136038,185.871908 C105.431378,188.889529 103.634308,188.404911 102.447941,188.484848 C95.9654732,188.939489 89.4830054,189.50904 82.9805146,189.633942 C78.6204919,189.718875 75.7371704,191.242673 73.5346331,195.149593 C70.6913576,200.20061 67.2123498,204.891911 63.9836304,209.723101 C63.0575636,211.092022 62.0463987,212.410982 61.160378,213.640013 C58.3421314,212.520895 59.4383943,211.062046 60.1041613,209.713109 C63.1426616,203.587939 66.0009543,197.37284 69.3147718,191.412539 C71.111842,188.175092 70.9466517,185.577141 69.2046449,182.41963 C66.0059601,176.589228 63.1827077,170.54899 60.239317,164.568706 C59.6236077,163.299706 58.3221083,161.915798 61.3455914,159.707539 C61.8812084,160.716743 62.3317274,161.775908 62.9574482,162.725159 C66.7117732,168.430661 70.6813461,174.016256 74.2204231,179.846659 C76.1376317,183.004169 78.5153708,184.228204 82.1095112,184.308141 C88.4368002,184.453027 94.7540777,185.002594 101.061344,185.417267 C102.407895,185.497204 103.739429,185.707038 105.136038,185.871908" id="Fill-100"></path>
                <path d="M201.701123,402.403672 C206.210528,409.13278 210.764877,415.693413 215.024592,422.427476 C216.587653,424.875325 218.420379,425.816805 221.266847,425.910953 C228.09837,426.133936 234.914913,426.619541 241.731455,427.085326 C243.264553,427.189385 245.441851,426.56999 245.391913,429.880037 C243.65407,430.103019 241.8563,430.415194 240.053537,430.539073 C233.57158,430.975127 227.094616,431.470643 220.617652,431.708491 C218.115757,431.807594 216.562684,432.75403 215.229338,434.805466 C210.804828,441.628722 206.220516,448.34792 201.771037,454.987835 C199.029438,454.725211 199.309091,453.387318 200.118087,451.781846 C203.019487,446.023949 205.616265,440.082712 208.892201,434.537888 C211.349152,430.375553 211.264258,426.966402 208.8123,422.843709 C205.616265,417.462405 203.064432,411.684688 200.302858,406.055626 C199.693614,404.806925 198.440169,403.196498 201.701123,402.403672" id="Fill-127"></path>
                <path d="M45.7530836,293.331622 C44.0273493,295.540699 43.1222092,294.304015 42.1922025,292.902772 C38.6362947,287.497265 34.8267487,282.226397 31.5543189,276.646358 C29.2616286,272.72188 26.4716087,270.871841 21.8215754,270.956613 C16.4006809,271.066319 10.9499467,270.403097 5.52407899,270.024114 C3.69390546,269.899448 1.86870523,269.605237 0.113131158,269.400785 C-0.453824773,266.643178 1.21720323,266.643178 2.74400561,266.548432 C9.54250349,266.129556 16.3310548,265.56108 23.1345259,265.396521 C26.5412348,265.331695 28.749379,264.22965 30.5646326,261.237672 C34.1951399,255.258702 38.1986445,249.524078 42.0728434,243.71964 C42.918304,242.453036 43.704085,240.817422 45.842603,243.086338 C44.5296524,245.804052 43.1818887,248.686324 41.7644989,251.54865 C39.5762479,255.981764 37.4874629,260.469731 35.1201733,264.803112 C33.8370625,267.151815 33.7873295,269.0966 35.0505471,271.475223 C38.089232,277.199874 40.8792519,283.054178 43.7339248,288.858615 C44.4749461,290.359591 45.1165015,291.910432 45.7530836,293.331622" id="Fill-128"></path>
                <path d="M45.7530836,131.5342 C44.0273493,133.743277 43.1222092,132.506593 42.1922025,131.10535 C38.6362947,125.699843 34.8267487,120.428975 31.5543189,114.848936 C29.2616286,110.924458 26.4716087,109.074418 21.8215754,109.159191 C16.4006809,109.268897 10.9499467,108.605675 5.52407899,108.226691 C3.69390546,108.102026 1.86870523,107.807814 0.113131158,107.603363 C-0.453824773,104.845756 1.21720323,104.845756 2.74400561,104.75101 C9.54250349,104.332133 16.3310548,103.763657 23.1345259,103.599099 C26.5412348,103.534272 28.749379,102.432227 30.5646326,99.4402493 C34.1951399,93.46128 38.1986445,87.7266555 42.0728434,81.9222182 C42.918304,80.6556142 43.704085,79.0199996 45.842603,81.2889162 C44.5296524,84.0066295 43.1818887,86.8889017 41.7644989,89.7512273 C39.5762479,94.1843413 37.4874629,98.6723083 35.1201733,103.00569 C33.8370625,105.354392 33.7873295,107.299178 35.0505471,109.677801 C38.089232,115.402452 40.8792519,121.256755 43.7339248,127.061193 C44.4749461,128.562168 45.1165015,130.11301 45.7530836,131.5342" id="Fill-128"></path>
                <path d="M42.3486953,132.741302 C37.8914563,126.097577 33.3491744,119.528278 29.0470133,112.810128 C27.7713724,110.820484 26.3656663,109.753717 24.2696133,109.396474 L24.2696133,103.323346 C26.3956814,102.876792 27.9164453,101.720715 29.2621213,99.5822194 C33.4142071,92.9583416 37.9014613,86.5478172 42.1786099,80.1571396 C44.2996754,80.1819481 44.9950247,80.9758211 44.1345925,82.71738 C42.1686049,86.6718598 40.1375846,90.6015312 38.2216221,94.5857812 C36.3256697,98.5551462 33.1540764,102.54932 33.1140563,106.56334 C33.0740362,110.368969 36.3256697,114.229176 38.181602,118.044728 C40.1275796,122.009131 42.1135772,125.958649 44.1145824,129.898244 C44.7999267,131.247828 44.6448488,132.160782 42.3486953,132.741302" id="Fill-141"></path>
                <path d="M245.391119,107.623815 C243.643623,107.836927 241.856185,108.154117 240.043783,108.27802 C233.568064,108.724068 227.087353,109.209765 220.611634,109.45757 C218.110219,109.54678 216.562438,110.503306 215.234341,112.555129 C210.800696,119.374715 206.217265,126.100135 201.778627,132.741302 C199.02757,132.453848 199.327141,131.110747 200.130988,129.509928 C203.031831,123.74599 205.62811,117.808589 208.903415,112.26272 C211.364887,108.104556 211.255045,104.694763 208.818537,100.581205 C205.618124,95.184018 203.066781,89.4151241 200.300745,83.7701325 C199.691618,82.5211967 198.453393,80.9253343 201.668784,80.1571396 C203.041816,82.1891383 204.544663,84.374776 206.027537,86.580238 C209.148065,91.2389668 212.358463,95.8431786 215.344184,100.596073 C216.67228,102.707369 218.319919,103.510257 220.771405,103.614335 C227.76638,103.891876 234.761354,104.352793 241.74135,104.823622 C243.279146,104.922744 245.461019,104.313144 245.391119,107.623815" id="Fill-143"></path>
                <path d="M105.168324,26.0345532 C103.616305,29.0458719 101.748954,28.5803062 100.201862,28.6843155 C93.8016287,29.1350228 87.4063227,29.7343148 81.0060895,29.7739374 C77.645844,29.7937487 75.8179098,31.1706346 74.1624223,33.8501139 C70.8711554,39.1744027 67.318755,44.3402011 63.8550415,49.5505749 C63.0174436,50.80364 62.0960859,51.9873657 61.2289258,53.1909026 C58.691497,52.6262803 59.1792746,51.2840643 59.9232585,49.7784049 C62.7907995,44.0182673 65.3380824,38.079828 68.5603707,32.5326619 C70.9007176,28.5159194 70.7184169,25.2272424 68.4766109,21.2946979 C65.3873529,15.8713526 62.844997,10.111215 60.075997,4.49966221 C59.3911375,3.10791787 58.4697799,1.68645658 61.1254578,0.606740334 C62.0073991,1.85485269 63.0075895,3.16735179 63.9240201,4.53928482 C67.5798885,10.0369226 71.2850272,15.4949377 74.7980112,21.0866792 C76.1184596,23.1817249 77.6852604,24.0137998 80.1290753,24.1079035 C86.5293084,24.3505921 92.9295415,24.811205 99.3199205,25.2520065 C101.08873,25.3758272 102.842759,25.7175723 105.168324,26.0345532" id="Fill-153"></path>
                <path d="M182.817929,53.1909026 C177.512031,45.3363345 172.32072,37.644581 167.268906,30.1551122 C157.768109,29.3558409 148.616057,28.5960397 139.468986,27.7869008 C139.289632,27.7770332 139.155116,27.2540532 138.876121,26.711338 C139.76791,24.9203781 141.646149,25.2706761 143.195571,25.1571993 C149.318528,24.7082258 155.456431,24.0322988 161.574406,24.1013717 C165.918767,24.1507094 168.384889,22.4386898 170.492302,18.8913064 C173.511433,13.7996517 177.008842,8.98428842 180.336861,4.07518339 C181.168866,2.84667368 182.125422,1.70203814 182.947463,0.606740334 C185.61785,1.57376002 184.656311,3.00455445 183.97875,4.37120982 C181.099117,10.1239902 178.448659,16.0001149 175.255156,21.5752794 C173.192581,25.1868019 172.978352,28.1421325 175.14555,31.8424629 C178.37891,37.383091 181.014422,43.2789508 183.864163,49.0465325 C184.501867,50.3194462 185.767312,51.7502406 182.817929,53.1909026" id="Fill-154"></path>
                <path d="M61.1425813,375.437435 C58.4733079,374.482349 59.3860909,373.062092 60.0719116,371.676475 C62.7707888,366.218134 65.1390906,360.551951 68.2820244,355.360836 C70.9907695,350.867478 70.7095337,347.121364 68.1586753,342.75667 C65.1686944,337.654631 62.7806567,332.201239 60.1755248,326.881459 C59.5489116,325.584918 58.325289,324.159712 60.8712134,322.853273 C61.6211757,323.753924 62.5388926,324.659524 63.2395152,325.703685 C67.1077414,331.468841 71.0105054,337.204305 74.6912411,343.088229 C76.127024,345.374497 77.814439,346.220713 80.4541087,346.299891 C86.8633254,346.507733 93.2676081,346.982802 99.6669568,347.447973 C101.374108,347.561792 103.056589,347.997272 105.168324,348.353573 C103.870692,351.109961 102.010589,350.748711 100.471193,350.847684 C93.9040892,351.298009 87.3320518,351.797821 80.7501464,351.990817 C77.9377881,352.069996 76.0974202,352.965698 74.5826939,355.400425 C71.193062,360.873612 67.546864,366.168648 63.9845435,371.523067 C63.0569586,372.893838 62.0356285,374.200277 61.1425813,375.437435" id="Fill-179"></path>
                <path d="M137.527809,348.160789 C140.168643,347.835068 142.106238,347.504412 144.058587,347.371163 C150.269711,346.941804 156.485752,346.477899 162.711629,346.270622 C165.18526,346.186724 166.690093,345.239173 167.993298,343.18121 C171.509492,337.624216 175.197808,332.170861 178.856617,326.697765 C179.746731,325.34553 180.759788,324.067323 181.635149,322.853273 C184.334996,324.072258 183.243254,325.503456 182.589193,326.83595 C179.53035,333.04932 176.574779,339.312042 173.319226,345.411903 C171.888159,348.096632 171.927501,350.273039 173.348732,352.938027 C176.599368,359.037888 179.545103,365.305546 182.613782,371.513981 C183.272761,372.86128 184.305489,374.297413 181.61056,375.437435 C180.730282,374.203645 179.722142,372.900761 178.822193,371.543592 C175.261739,366.203745 171.647189,360.898445 168.244103,355.474701 C166.763859,353.110758 165.047563,352.025022 162.165759,351.95593 C155.610392,351.807875 149.059943,351.279812 142.509494,350.835647 C140.960402,350.732009 139.121161,351.112017 137.527809,348.160789" id="Fill-180"></path>
                <path d="M475.954084,293.517805 C476.901715,291.512183 477.869192,289.371855 478.901168,287.26645 C481.376917,282.207494 483.763361,277.098646 486.432605,272.14446 C487.866456,269.495243 487.970646,267.260122 486.502065,264.541057 C483.495444,258.998157 480.821238,253.26567 478.042842,247.598042 C477.30359,246.091331 476.67349,244.544707 476.028505,243.107843 C477.794771,240.967516 478.687827,242.204815 479.610651,243.611743 C483.163029,249.029916 487.00813,254.283448 490.233054,259.896196 C492.530192,263.892473 495.462392,265.548857 499.987208,265.58877 C506.099678,265.653629 512.202226,266.287246 518.299813,266.71132 C519.450863,266.791146 520.582067,267.020645 521.623965,267.175307 C522.363217,269.974197 520.582067,269.824524 519.073795,269.919317 C512.966285,270.29849 506.858776,270.96703 500.746305,270.947074 C495.849382,270.927117 492.540115,272.373959 490.064365,276.90407 C487.047821,282.422025 483.222566,287.500939 479.74461,292.774427 C478.891245,294.051639 478.102379,295.603252 475.954084,293.517805" id="Fill-49"></path>
                <path d="M460.605974,213.640013 C459.726307,212.423908 458.716688,211.118821 457.802034,209.764298 C454.093435,204.28194 450.344852,198.834187 446.786197,193.262847 C445.456699,191.186571 443.827315,190.267077 441.393235,190.138546 C434.061006,189.752952 426.723778,189.2586 419.396547,188.744475 C418.221991,188.660435 416.422671,189.164673 416.647586,186.440797 C417.582233,186.223282 418.626838,185.832745 419.701432,185.758592 C426.173986,185.323563 432.651538,184.789663 439.139087,184.636414 C443.0726,184.547431 445.776578,183.33627 447.845796,179.806601 C450.929631,174.551645 454.548263,169.608131 457.966971,164.550915 C458.796658,163.31998 459.756295,162.173085 460.59098,161.055851 C463.399918,161.802321 462.410292,163.275489 461.740545,164.620125 C458.716688,170.680873 455.82778,176.820718 452.559015,182.743048 C450.829669,185.867349 450.659733,188.433033 452.459053,191.636431 C455.772801,197.538987 458.621724,203.693662 461.650579,209.754411 C462.31033,211.074329 463.459896,212.522779 460.605974,213.640013" id="Fill-99"></path>
                <path d="M382.888279,185.871908 C383.183619,188.889529 381.386549,188.404911 380.200183,188.484848 C373.717715,188.939489 367.235247,189.50904 360.732756,189.633942 C356.372733,189.718875 353.489412,191.242673 351.286875,195.149593 C348.443599,200.20061 344.964591,204.891911 341.735872,209.723101 C340.809805,211.092022 339.79864,212.410982 338.91262,213.640013 C336.094373,212.520895 337.190636,211.062046 337.856403,209.713109 C340.894903,203.587939 343.753196,197.37284 347.067013,191.412539 C348.864084,188.175092 348.698893,185.577141 346.956887,182.41963 C343.758202,176.589228 340.934949,170.54899 337.991559,164.568706 C337.375849,163.299706 336.07435,161.915798 339.097833,159.707539 C339.63345,160.716743 340.083969,161.775908 340.70969,162.725159 C344.464015,168.430661 348.433588,174.016256 351.972665,179.846659 C353.889873,183.004169 356.267612,184.228204 359.861753,184.308141 C366.189042,184.453027 372.506319,185.002594 378.813585,185.417267 C380.160136,185.497204 381.49167,185.707038 382.888279,185.871908" id="Fill-100"></path>
                <path d="M323.505325,453.780732 C321.779591,455.989809 320.874451,454.753125 319.944444,453.351882 C316.388536,447.946375 312.57899,442.675507 309.30656,437.095469 C307.01387,433.170991 304.22385,431.320951 299.573817,431.405724 C294.152923,431.51543 288.702188,430.852208 283.276321,430.473224 C281.446147,430.348558 279.620947,430.054347 277.865373,429.849895 C277.298417,427.092289 278.969445,427.092289 280.496247,426.997543 C287.294745,426.578666 294.083296,426.01019 300.886768,425.845631 C304.293476,425.780805 306.501621,424.67876 308.316874,421.686782 C311.947381,415.707813 315.950886,409.973188 319.825085,404.168751 C320.670546,402.902147 321.456327,401.266532 323.594845,403.535449 C322.281894,406.253162 320.93413,409.135434 319.51674,411.99776 C317.32849,416.430874 315.239705,420.918841 312.872415,425.252222 C311.589304,427.600925 311.539571,429.545711 312.802789,431.924333 C315.841474,437.648984 318.631493,443.503288 321.486166,449.307725 C322.227188,450.808701 322.868743,452.359543 323.505325,453.780732" id="Fill-128"></path>
                <path d="M323.505325,293.331622 C321.779591,295.540699 320.874451,294.304015 319.944444,292.902772 C316.388536,287.497265 312.57899,282.226397 309.30656,276.646358 C307.01387,272.72188 304.22385,270.871841 299.573817,270.956613 C294.152923,271.066319 288.702188,270.403097 283.276321,270.024114 C281.446147,269.899448 279.620947,269.605237 277.865373,269.400785 C277.298417,266.643178 278.969445,266.643178 280.496247,266.548432 C287.294745,266.129556 294.083296,265.56108 300.886768,265.396521 C304.293476,265.331695 306.501621,264.22965 308.316874,261.237672 C311.947381,255.258702 315.950886,249.524078 319.825085,243.71964 C320.670546,242.453036 321.456327,240.817422 323.594845,243.086338 C322.281894,245.804052 320.93413,248.686324 319.51674,251.54865 C317.32849,255.981764 315.239705,260.469731 312.872415,264.803112 C311.589304,267.151815 311.539571,269.0966 312.802789,271.475223 C315.841474,277.199874 318.631493,283.054178 321.486166,288.858615 C322.227188,290.359591 322.868743,291.910432 323.505325,293.331622" id="Fill-128"></path>
                <path d="M323.505325,131.5342 C321.779591,133.743277 320.874451,132.506593 319.944444,131.10535 C316.388536,125.699843 312.57899,120.428975 309.30656,114.848936 C307.01387,110.924458 304.22385,109.074418 299.573817,109.159191 C294.152923,109.268897 288.702188,108.605675 283.276321,108.226691 C281.446147,108.102026 279.620947,107.807814 277.865373,107.603363 C277.298417,104.845756 278.969445,104.845756 280.496247,104.75101 C287.294745,104.332133 294.083296,103.763657 300.886768,103.599099 C304.293476,103.534272 306.501621,102.432227 308.316874,99.4402493 C311.947381,93.46128 315.950886,87.7266555 319.825085,81.9222182 C320.670546,80.6556142 321.456327,79.0199996 323.594845,81.2889162 C322.281894,84.0066295 320.93413,86.8889017 319.51674,89.7512273 C317.32849,94.1843413 315.239705,98.6723083 312.872415,103.00569 C311.589304,105.354392 311.539571,107.299178 312.802789,109.677801 C315.841474,115.402452 318.631493,121.256755 321.486166,127.061193 C322.227188,128.562168 322.868743,130.11301 323.505325,131.5342" id="Fill-128"></path>
                <path d="M320.100937,132.741302 C315.643698,126.097577 311.101416,119.528278 306.799255,112.810128 C305.523614,110.820484 304.117908,109.753717 302.021855,109.396474 L302.021855,103.323346 C304.147923,102.876792 305.668687,101.720715 307.014363,99.5822194 C311.166449,92.9583416 315.653703,86.5478172 319.930851,80.1571396 C322.051917,80.1819481 322.747266,80.9758211 321.886834,82.71738 C319.920846,86.6718598 317.889826,90.6015312 315.973864,94.5857812 C314.077911,98.5551462 310.906318,102.54932 310.866298,106.56334 C310.826278,110.368969 314.077911,114.229176 315.933844,118.044728 C317.879821,122.009131 319.865819,125.958649 321.866824,129.898244 C322.552168,131.247828 322.39709,132.160782 320.100937,132.741302" id="Fill-141"></path>
                <path d="M523.14336,107.623815 C521.395865,107.836927 519.608427,108.154117 517.796024,108.27802 C511.320306,108.724068 504.839594,109.209765 498.363876,109.45757 C495.862461,109.54678 494.314679,110.503306 492.986583,112.555129 C488.552938,119.374715 483.969507,126.100135 479.530869,132.741302 C476.779812,132.453848 477.079382,131.110747 477.88323,129.509928 C480.784072,123.74599 483.380351,117.808589 486.655657,112.26272 C489.117129,108.104556 489.007286,104.694763 486.570778,100.581205 C483.370366,95.184018 480.819022,89.4151241 478.052987,83.7701325 C477.44386,82.5211967 476.205634,80.9253343 479.421026,80.1571396 C480.794058,82.1891383 482.296904,84.374776 483.779779,86.580238 C486.900306,91.2389668 490.110705,95.8431786 493.096426,100.596073 C494.424522,102.707369 496.072161,103.510257 498.523647,103.614335 C505.518621,103.891876 512.513596,104.352793 519.493591,104.823622 C521.031387,104.922744 523.21326,104.313144 523.14336,107.623815" id="Fill-143"></path>
                <path d="M382.920566,26.0345532 C381.368546,29.0458719 379.501196,28.5803062 377.954103,28.6843155 C371.55387,29.1350228 365.158564,29.7343148 358.758331,29.7739374 C355.398086,29.7937487 353.570151,31.1706346 351.914664,33.8501139 C348.623397,39.1744027 345.070997,44.3402011 341.607283,49.5505749 C340.769685,50.80364 339.848328,51.9873657 338.981167,53.1909026 C336.443739,52.6262803 336.931516,51.2840643 337.6755,49.7784049 C340.543041,44.0182673 343.090324,38.079828 346.312612,32.5326619 C348.652959,28.5159194 348.470658,25.2272424 346.228852,21.2946979 C343.139594,15.8713526 340.597239,10.111215 337.828239,4.49966221 C337.143379,3.10791787 336.222021,1.68645658 338.877699,0.606740334 C339.759641,1.85485269 340.759831,3.16735179 341.676262,4.53928482 C345.33213,10.0369226 349.037269,15.4949377 352.550253,21.0866792 C353.870701,23.1817249 355.437502,24.0137998 357.881317,24.1079035 C364.28155,24.3505921 370.681783,24.811205 377.072162,25.2520065 C378.840972,25.3758272 380.595,25.7175723 382.920566,26.0345532" id="Fill-153"></path>
                <path d="M460.570171,53.1909026 C455.264272,45.3363345 450.072961,37.644581 445.021148,30.1551122 C435.520351,29.3558409 426.368298,28.5960397 417.221228,27.7869008 C417.041874,27.7770332 416.907358,27.2540532 416.628362,26.711338 C417.520152,24.9203781 419.39839,25.2706761 420.947812,25.1571993 C427.070769,24.7082258 433.208673,24.0322988 439.326648,24.1013717 C443.671008,24.1507094 446.13713,22.4386898 448.244543,18.8913064 C451.263675,13.7996517 454.761084,8.98428842 458.089103,4.07518339 C458.921108,2.84667368 459.877664,1.70203814 460.699705,0.606740334 C463.370091,1.57376002 462.408553,3.00455445 461.730992,4.37120982 C458.851359,10.1239902 456.2009,16.0001149 453.007397,21.5752794 C450.944822,25.1868019 450.730594,28.1421325 452.897792,31.8424629 C456.131152,37.383091 458.766664,43.2789508 461.616404,49.0465325 C462.254109,50.3194462 463.519553,51.7502406 460.570171,53.1909026" id="Fill-154"></path>
                <path d="M338.894823,375.437435 C336.225549,374.482349 337.138332,373.062092 337.824153,371.676475 C340.52303,366.218134 342.891332,360.551951 346.034266,355.360836 C348.743011,350.867478 348.461775,347.121364 345.910917,342.75667 C342.920936,337.654631 340.532898,332.201239 337.927766,326.881459 C337.301153,325.584918 336.077531,324.159712 338.623455,322.853273 C339.373417,323.753924 340.291134,324.659524 340.991757,325.703685 C344.859983,331.468841 348.762747,337.204305 352.443483,343.088229 C353.879266,345.374497 355.566681,346.220713 358.20635,346.299891 C364.615567,346.507733 371.01985,346.982802 377.419198,347.447973 C379.126349,347.561792 380.80883,347.997272 382.920566,348.353573 C381.622934,351.109961 379.76283,350.748711 378.223434,350.847684 C371.656331,351.298009 365.084293,351.797821 358.502388,351.990817 C355.69003,352.069996 353.849662,352.965698 352.334935,355.400425 C348.945304,360.873612 345.299106,366.168648 341.736785,371.523067 C340.8092,372.893838 339.78787,374.200277 338.894823,375.437435" id="Fill-179"></path>
                <path d="M415.280051,348.160789 C417.920885,347.835068 419.85848,347.504412 421.810828,347.371163 C428.021952,346.941804 434.237994,346.477899 440.463871,346.270622 C442.937501,346.186724 444.442334,345.239173 445.745539,343.18121 C449.261734,337.624216 452.95005,332.170861 456.608859,326.697765 C457.498972,325.34553 458.51203,324.067323 459.38739,322.853273 C462.087237,324.072258 460.995496,325.503456 460.341434,326.83595 C457.282591,333.04932 454.327021,339.312042 451.071467,345.411903 C449.640401,348.096632 449.679743,350.273039 451.100974,352.938027 C454.35161,359.037888 457.297344,365.305546 460.366023,371.513981 C461.025002,372.86128 462.057731,374.297413 459.362801,375.437435 C458.482523,374.203645 457.474384,372.900761 456.574435,371.543592 C453.01398,366.203745 449.399431,360.898445 445.996345,355.474701 C444.516101,353.110758 442.799804,352.025022 439.918,351.95593 C433.362634,351.807875 426.812185,351.279812 420.261736,350.835647 C418.712643,350.732009 416.873403,351.112017 415.280051,348.160789" id="Fill-180"></path>
            </g>
            <g id="Group-11" opacity="0.379812047" transform="translate(277.000000, 80.000000)" fill="#D7DAE8">
                <path d="M201.701123,322.328247 C206.210528,329.057354 210.764877,335.617987 215.024592,342.35205 C216.587653,344.799899 218.420379,345.741379 221.266847,345.835527 C228.09837,346.05851 234.914913,346.544115 241.731455,347.009901 C243.264553,347.113959 245.441851,346.494564 245.391913,349.804611 C243.65407,350.027593 241.8563,350.339768 240.053537,350.463647 C233.57158,350.899701 227.094616,351.395217 220.617652,351.633065 C218.115757,351.732168 216.562684,352.678604 215.229338,354.73004 C210.804828,361.553296 206.220516,368.272494 201.771037,374.912409 C199.029438,374.649785 199.309091,373.311892 200.118087,371.70642 C203.019487,365.948524 205.616265,360.007286 208.892201,354.462462 C211.349152,350.300127 211.264258,346.890977 208.8123,342.768283 C205.616265,337.386979 203.064432,331.609262 200.302858,325.9802 C199.693614,324.731499 198.440169,323.121072 201.701123,322.328247" id="Fill-127"></path>
                <path d="M45.7530836,51.4587739 C44.0273493,53.667851 43.1222092,52.4311668 42.1922025,51.0299237 C38.6362947,45.6244169 34.8267487,40.353549 31.5543189,34.7735101 C29.2616286,30.8490323 26.4716087,28.9989926 21.8215754,29.0837653 C16.4006809,29.1934711 10.9499467,28.5302494 5.52407899,28.1512655 C3.69390546,28.0265997 1.86870523,27.7323886 0.113131158,27.5279367 C-0.453824773,24.7703304 1.21720323,24.7703304 2.74400561,24.6755844 C9.54250349,24.2567075 16.3310548,23.6882317 23.1345259,23.5236729 C26.5412348,23.4588467 28.749379,22.3568015 30.5646326,19.3648235 C34.1951399,13.3858542 38.1986445,7.65122971 42.0728434,1.84679243 C42.918304,0.580188421 43.704085,-1.05542621 45.842603,1.21349043 C44.5296524,3.93120375 43.1818887,6.81347587 41.7644989,9.67580147 C39.5762479,14.1089155 37.4874629,18.5968825 35.1201733,22.9302639 C33.8370625,25.2789666 33.7873295,27.2237523 35.0505471,29.6023748 C38.089232,35.327026 40.8792519,41.1813296 43.7339248,46.9857668 C44.4749461,48.4867425 45.1165015,50.0375844 45.7530836,51.4587739" id="Fill-128"></path>
                <path d="M382.888279,105.796482 C383.183619,108.814103 381.386549,108.329485 380.200183,108.409422 C373.717715,108.864064 367.235247,109.433615 360.732756,109.558516 C356.372733,109.643449 353.489412,111.167248 351.286875,115.074167 C348.443599,120.125184 344.964591,124.816485 341.735872,129.647676 C340.809805,131.016596 339.79864,132.335556 338.91262,133.564587 C336.094373,132.44547 337.190636,130.98662 337.856403,129.637684 C340.894903,123.512513 343.753196,117.297414 347.067013,111.337114 C348.864084,108.099666 348.698893,105.501715 346.956887,102.344205 C343.758202,96.5138019 340.934949,90.4735646 337.991559,84.4932801 C337.375849,83.2242807 336.07435,81.8403719 339.097833,79.6321131 C339.63345,80.6413174 340.083969,81.7004822 340.70969,82.6497337 C344.464015,88.3552349 348.433588,93.9408306 351.972665,99.7712334 C353.889873,102.928744 356.267612,104.152778 359.861753,104.232715 C366.189042,104.377601 372.506319,104.927168 378.813585,105.341841 C380.160136,105.421778 381.49167,105.631612 382.888279,105.796482" id="Fill-100"></path>
                <path d="M323.505325,373.705307 C321.779591,375.914384 320.874451,374.677699 319.944444,373.276456 C316.388536,367.87095 312.57899,362.600082 309.30656,357.020043 C307.01387,353.095565 304.22385,351.245525 299.573817,351.330298 C294.152923,351.440004 288.702188,350.776782 283.276321,350.397798 C281.446147,350.273132 279.620947,349.978921 277.865373,349.774469 C277.298417,347.016863 278.969445,347.016863 280.496247,346.922117 C287.294745,346.50324 294.083296,345.934764 300.886768,345.770206 C304.293476,345.705379 306.501621,344.603334 308.316874,341.611356 C311.947381,335.632387 315.950886,329.897762 319.825085,324.093325 C320.670546,322.826721 321.456327,321.191106 323.594845,323.460023 C322.281894,326.177736 320.93413,329.060009 319.51674,331.922334 C317.32849,336.355448 315.239705,340.843415 312.872415,345.176797 C311.589304,347.525499 311.539571,349.470285 312.802789,351.848907 C315.841474,357.573559 318.631493,363.427862 321.486166,369.2323 C322.227188,370.733275 322.868743,372.284117 323.505325,373.705307" id="Fill-128"></path>
                <path d="M323.505325,213.256196 C321.779591,215.465273 320.874451,214.228589 319.944444,212.827346 C316.388536,207.421839 312.57899,202.150971 309.30656,196.570932 C307.01387,192.646455 304.22385,190.796415 299.573817,190.881188 C294.152923,190.990893 288.702188,190.327672 283.276321,189.948688 C281.446147,189.824022 279.620947,189.529811 277.865373,189.325359 C277.298417,186.567753 278.969445,186.567753 280.496247,186.473007 C287.294745,186.05413 294.083296,185.485654 300.886768,185.321095 C304.293476,185.256269 306.501621,184.154224 308.316874,181.162246 C311.947381,175.183276 315.950886,169.448652 319.825085,163.644215 C320.670546,162.377611 321.456327,160.741996 323.594845,163.010913 C322.281894,165.728626 320.93413,168.610898 319.51674,171.473224 C317.32849,175.906338 315.239705,180.394305 312.872415,184.727686 C311.589304,187.076389 311.539571,189.021175 312.802789,191.399797 C315.841474,197.124448 318.631493,202.978752 321.486166,208.783189 C322.227188,210.284165 322.868743,211.835007 323.505325,213.256196" id="Fill-128"></path>
                <path d="M323.505325,51.4587739 C321.779591,53.667851 320.874451,52.4311668 319.944444,51.0299237 C316.388536,45.6244169 312.57899,40.353549 309.30656,34.7735101 C307.01387,30.8490323 304.22385,28.9989926 299.573817,29.0837653 C294.152923,29.1934711 288.702188,28.5302494 283.276321,28.1512655 C281.446147,28.0265997 279.620947,27.7323886 277.865373,27.5279367 C277.298417,24.7703304 278.969445,24.7703304 280.496247,24.6755844 C287.294745,24.2567075 294.083296,23.6882317 300.886768,23.5236729 C304.293476,23.4588467 306.501621,22.3568015 308.316874,19.3648235 C311.947381,13.3858542 315.950886,7.65122971 319.825085,1.84679243 C320.670546,0.580188421 321.456327,-1.05542621 323.594845,1.21349043 C322.281894,3.93120375 320.93413,6.81347587 319.51674,9.67580147 C317.32849,14.1089155 315.239705,18.5968825 312.872415,22.9302639 C311.589304,25.2789666 311.539571,27.2237523 312.802789,29.6023748 C315.841474,35.327026 318.631493,41.1813296 321.486166,46.9857668 C322.227188,48.4867425 322.868743,50.0375844 323.505325,51.4587739" id="Fill-128"></path>
                <path d="M320.100937,52.6658761 C315.643698,46.0221515 311.101416,39.4528525 306.799255,32.7347023 C305.523614,30.7450581 304.117908,29.6782913 302.021855,29.3210484 L302.021855,23.24792 C304.147923,22.8013665 305.668687,21.6452889 307.014363,19.5067936 C311.166449,12.8829158 315.653703,6.4723914 319.930851,0.0817138269 C322.051917,0.106522358 322.747266,0.900395349 321.886834,2.64195422 C319.920846,6.59643406 317.889826,10.5261054 315.973864,14.5103554 C314.077911,18.4797204 310.906318,22.4738939 310.866298,26.4879142 C310.826278,30.2935428 314.077911,34.1537503 315.933844,37.9693023 C317.879821,41.9337056 319.865819,45.8832237 321.866824,49.8228184 C322.552168,51.1724025 322.39709,52.0853564 320.100937,52.6658761" id="Fill-141"></path>
                <path d="M338.894823,295.362009 C336.225549,294.406924 337.138332,292.986666 337.824153,291.601049 C340.52303,286.142708 342.891332,280.476525 346.034266,275.28541 C348.743011,270.792052 348.461775,267.045938 345.910917,262.681245 C342.920936,257.579205 340.532898,252.125813 337.927766,246.806034 C337.301153,245.509492 336.077531,244.084286 338.623455,242.777847 C339.373417,243.678498 340.291134,244.584098 340.991757,245.628259 C344.859983,251.393415 348.762747,257.12888 352.443483,263.012803 C353.879266,265.299071 355.566681,266.145287 358.20635,266.224465 C364.615567,266.432308 371.01985,266.907376 377.419198,267.372548 C379.126349,267.486366 380.80883,267.921846 382.920566,268.278147 C381.622934,271.034535 379.76283,270.673285 378.223434,270.772258 C371.656331,271.222583 365.084293,271.722395 358.502388,271.915392 C355.69003,271.99457 353.849662,272.890272 352.334935,275.324999 C348.945304,280.798186 345.299106,286.093222 341.736785,291.447642 C340.8092,292.818413 339.78787,294.124852 338.894823,295.362009" id="Fill-179"></path>
            </g>
            <g id="Path-2" opacity="0.860563859">
                <use fill="#796DE3" fill-rule="evenodd" xlink:href="#path-1"></use>
                <use fill="black" fill-opacity="1" filter="url(#filter-2)" xlink:href="#path-1"></use>
            </g>
            <g id="Group" transform="translate(237.000000, 155.000000)" fill="#FFFFFF" fill-rule="nonzero">
                <path d="M50.9996458,13.7408523 C50.9996458,9.41874645 47.5764125,6.02350774 42.9644542,3.78321935 C38.3529917,1.54293097 32.2332042,0.257009677 25.5,0.257009677 C18.7667958,0.257009677 12.6470083,1.54293806 8.03519167,3.78321935 C3.42323333,6.02350065 0,9.41873226 0,13.7408523 C0.00920833333,23.509491 0,42.1697419 0,52.0634968 C0,56.3856452 3.42323333,59.758671 8.03519167,61.9989806 C12.6470083,64.2392903 18.7667958,65.5473677 25.5,65.5473677 C32.2332042,65.5473677 38.3529917,64.2392903 42.9648083,61.9989806 C47.5767667,59.758671 51,56.3856452 51,52.0634968 L50.9996458,13.7408523 Z M25.5,4.51507419 C31.6764542,4.51507419 37.2572,5.75056581 41.1054333,7.6199129 C44.9537375,9.48926 46.75,11.7918794 46.75,13.7408523 C46.75,15.6899103 44.9538083,17.9703168 41.1054333,19.8396781 C37.2572,21.7090394 31.6764542,22.9666587 25.5,22.9666587 C19.3236167,22.9666587 13.7428,21.7090394 9.89456667,19.8396781 C6.0462625,17.9703168 4.25,15.6898394 4.25,13.7408523 C4.25,11.7918935 6.04619167,9.4892671 9.89456667,7.6199129 C13.7428,5.75055871 19.3236167,4.51507419 25.5,4.51507419 Z M4.25,21.3698845 C5.3601,22.2420781 6.65011667,23.0035619 8.03519167,23.6763361 C12.6470083,25.9166458 18.7667958,27.2247232 25.5,27.2247232 C32.2332042,27.2247232 38.3529917,25.9166458 42.9648083,23.6763361 C44.3498833,23.0035619 45.6399,22.2420781 46.75,21.3698845 L46.75,26.5150458 C46.75,28.4641039 44.9538083,30.7445103 41.1054333,32.6138645 C37.2572,34.4832258 31.6764542,35.7409161 25.5,35.7409161 C19.3236167,35.7409161 13.7428,34.4832258 9.89456667,32.6138645 C6.04619167,30.7445103 4.25,28.4640329 4.25,26.5150458 L4.25,21.3698845 Z M4.25,34.1441419 C5.3601,35.0162645 6.649975,35.7778194 8.03519167,36.4505935 C12.6470083,38.6908323 18.7667958,39.9989806 25.5,39.9989806 C32.2332042,39.9989806 38.3529917,38.6909032 42.9648083,36.4505935 C44.350025,35.7778194 45.6399,35.0162645 46.75,34.1441419 L46.75,39.2893032 C46.75,41.2382903 44.9538083,43.5187677 41.1054333,45.3880581 C37.2572,47.2574194 31.6764542,48.5151097 25.5,48.5151097 C19.3236167,48.5151097 13.7428,47.2574194 9.89456667,45.3880581 C6.04619167,43.5186968 4.25,41.2382903 4.25,39.2893032 L4.25,34.1441419 Z M4.25,46.9183355 C5.3601,47.7904581 6.65004583,48.5520129 8.03519167,49.2247871 C12.6470083,51.4650258 18.7667958,52.7731742 25.5,52.7731742 C32.2332042,52.7731742 38.3529917,51.4650968 42.9648083,49.2247871 C44.3499542,48.5520129 45.6399,47.7904581 46.75,46.9183355 L46.75,52.0634968 C46.75,54.0124839 44.9538083,56.2929613 41.1054333,58.1622516 C37.2572,60.0316129 31.6764542,61.2893032 25.5,61.2893032 C19.3236167,61.2893032 13.7428,60.0316129 9.89456667,58.1622516 C6.04619167,56.2929613 4.25,54.0124839 4.25,52.0634968 L4.25,46.9183355 Z" id="Shape"></path>
            </g>
            <g id="Path-2" opacity="0.856014493">
                <use fill="#F75E62" fill-rule="evenodd" xlink:href="#path-3"></use>
                <use fill="black" fill-opacity="1" filter="url(#filter-4)" xlink:href="#path-3"></use>
            </g>
            <g id="Group" transform="translate(369.000000, 240.000000)" fill="#FFFFFF" fill-rule="nonzero">
                <path d="M17.4681818,50.1136364 C16.7045455,50.1136364 15.9409091,49.8272727 15.3681818,49.2545455 L1.05,33.9818182 C-9.1038288e-15,32.8363636 -9.1038288e-15,31.2136364 1.05,30.0681818 L15.3681818,14.7954545 C16.4181818,13.65 18.2318182,13.5545455 19.3772727,14.6045455 C20.5227273,15.6545455 20.6181818,17.4681818 19.5681818,18.6136364 C19.5681818,18.6136364 19.5681818,18.6136364 19.4727273,18.7090909 L6.96818182,32.0727273 L19.4727273,45.4363636 C20.5227273,46.5818182 20.5227273,48.3954545 19.3772727,49.4454545 C18.8045455,49.9227273 18.1363636,50.2090909 17.4681818,50.2090909 L17.4681818,50.1136364 Z" id="Shape"></path>
                <path d="M45.5318182,50.1136364 C43.9090909,50.1136364 42.6681818,48.8727273 42.6681818,47.25 C42.6681818,46.4863636 42.9545455,45.8181818 43.4318182,45.3409091 L55.9363636,31.9772727 L43.4318182,18.6136364 C42.3818182,17.4681818 42.4772727,15.6545455 43.6227273,14.6045455 C44.7681818,13.5545455 46.5818182,13.65 47.6318182,14.7 L61.95,29.9727273 C63,31.1181818 63,32.7409091 61.95,33.8863636 L47.6318182,49.1590909 C47.0590909,49.7318182 46.2954545,50.1136364 45.5318182,50.1136364 Z" id="Shape"></path>
                <path d="M25.7727273,62.3318182 C25.5818182,62.3318182 25.3909091,62.3318182 25.2,62.2363636 C23.6727273,61.95 22.6227273,60.4227273 23.0045455,58.8954545 C23.0045455,58.8954545 23.0045455,58.8954545 23.0045455,58.8954545 L34.4590909,2.86363636 C34.7454545,1.33636364 36.2727273,0.286363636 37.8,0.668181818 C39.3272727,1.05 40.3772727,2.48181818 39.9954545,4.00909091 L28.5409091,60.0409091 C28.35,61.3772727 27.1090909,62.3318182 25.7727273,62.3318182 Z" id="Shape"></path>
            </g>
            <path d="M287,364.840258 C287,365.458874 286.440128,366 285.799931,366 L240.200069,366 C239.560029,366 239,365.458874 239,364.840258 C239,364.220947 239.560029,363.679821 240.200069,363.679821 L285.799931,363.679821 C286.440128,363.679821 287,364.220947 287,364.840258 Z M244.440056,345.271235 C244.12001,345.271235 243.800016,345.116257 243.559876,344.884438 C243.159975,344.420801 243.159975,343.724001 243.640045,343.259715 L255.96,332.19851 C256.440122,331.812408 257.080005,331.734872 257.55997,332.122365 L268.919995,340.93949 L279.000096,326.784511 L276.60001,327.17066 C275.959969,327.325638 275.319929,326.861352 275.240022,326.243385 C275.080103,325.62477 275.559911,325.006108 276.200109,324.92797 L281.799926,324 C282.119973,324 282.440124,324 282.680106,324.232514 C282.919932,324.464332 283.080164,324.696151 283.160019,325.006108 L284.119949,330.419457 C284.280181,331.038768 283.799955,331.657383 283.160019,331.734872 L282.919932,331.734872 C282.36006,331.734872 281.799926,331.271235 281.719915,330.728765 L281.240054,327.78997 L270.200076,343.259715 C270.040105,343.491534 269.719954,343.646512 269.400065,343.724001 C269.000007,343.80149 268.680012,343.724001 268.44003,343.491534 L256.840023,334.596873 L245.240015,344.961279 C245.000033,345.193746 244.759946,345.271235 244.440056,345.271235 Z M245.640073,346.585353 L245.640073,362.210076 L243.240144,362.210076 L243.240144,346.508513 C243.640045,346.663491 244.040103,346.81782 244.520068,346.81782 C244.920021,346.81782 245.320079,346.740331 245.640073,346.585353 Z M255.640006,362.132587 L255.640006,337.923206 L257.080005,336.607744 L258.04004,337.380736 L258.04004,362.132587 L255.640006,362.132587 Z M269.319896,345.348724 L269.800018,345.348724 C269.959936,345.348724 270.200076,345.271235 270.440058,345.193746 L270.440058,362.210076 L268.040129,362.210076 L268.040129,345.039417 C268.44003,345.271235 268.840088,345.348724 269.319896,345.348724 Z M280.440095,331.812408 C280.839996,332.662842 281.719915,333.281458 282.759961,333.359642 L282.759961,362.132587 L280.360032,362.132587 L280.440095,331.812408 Z" id="Combined-shape-314" fill="#F75E61"></path>
            <path d="M146.719527,284.371843 C147.093653,284.746062 147.093653,285.354345 146.718553,285.727883 L143.728277,288.718324 C143.547671,288.897515 143.304248,289 143.048739,289 C142.795472,289 142.552,288.899464 142.371297,288.718324 L132.055478,278.402217 C131.680377,278.02868 131.680377,277.419714 132.055478,277.045495 L132.887112,276.213089 L131.050938,274.375082 C128.177475,276.936431 124.392164,278.498074 120.248857,278.498074 C111.289286,278.498074 104,271.208764 104,262.248696 C104,253.288629 111.28836,246 120.248857,246 C129.207746,246 136.498153,253.288629 136.498153,262.248696 C136.498153,266.375003 134.95048,270.147606 132.406114,273.017044 L134.245455,274.856416 L135.045657,274.055736 C135.225239,273.875229 135.468857,273.774742 135.72417,273.774742 C135.977486,273.774742 136.22203,273.874596 136.402733,274.055736 L146.719527,284.371843 Z M105.917802,262.248696 C105.917802,270.150238 112.34597,276.576734 120.247103,276.576734 C128.148382,276.576734 134.576257,270.151602 134.576257,262.248696 C134.576257,254.347155 128.148382,247.920025 120.247103,247.920025 C112.34597,247.920025 105.917802,254.34847 105.917802,262.248696 Z M143.050006,286.681925 L144.682913,285.049522 L135.72417,276.091452 L134.091117,277.72254 L143.050006,286.681925 Z" id="Combined-shape-311" fill="#9686FF"></path>
            <path d="M121.302227,125.025957 C112.003794,121.503494 105.993578,113.521449 106.000053,104.702761 L106.000053,93.2628404 C105.995779,92.8459651 106.25029,92.4584899 106.666373,92.2489556 L123.613886,84.1399307 C124.010716,83.9533564 124.489693,83.9533564 124.886394,84.1399307 L142.307013,92.2489556 C142.729139,92.4498566 142.993923,92.8323384 142.999967,93.2513604 L142.999967,104.481747 C143.016586,113.422422 136.838019,121.492014 127.344473,124.928377 L124.679669,125.906375 C124.345905,126.031208 123.968068,126.031208 123.634044,125.906375 L121.302227,125.025957 Z M126.332087,122.802233 L126.332087,122.79794 C133.139159,120.332435 138.151968,115.155304 139.782328,108.901848 L124.266824,101.679727 L109.171072,108.901848 C110.720106,115.142377 115.629401,120.351802 122.361838,122.90056 L124.173454,123.585117 L126.332087,122.802233 Z M108.638094,93.9351702 L108.638094,104.725721 C108.638094,105.304764 108.678239,105.884553 108.738068,106.462896 L122.981106,99.6346905 C123.774595,99.2593954 124.732289,99.2593954 125.525778,99.6346905 L140.222066,106.475123 C140.295147,105.819966 140.348501,105.159817 140.348501,104.493927 L140.348501,93.9409103 L124.266824,86.4575949 L108.638094,93.9351702 Z" id="Combined-shape-312" fill="#40CC71"></path>
            <path d="M523.034185,351.289806 C523.034185,351.229446 522.977528,351.229446 523.034185,351.289806 C520.420486,348.544542 519,344.963477 519,341.203497 C519,337.444225 520.420486,333.86316 522.977528,331.178255 C525.534223,328.491187 528.9432,327 532.522941,327 C535.875062,327 539.000011,328.253326 541.50005,330.581065 C543.999939,328.253326 547.125087,327 550.477208,327 C554.0568,327 557.465926,328.491187 560.022621,331.178255 C562.579663,333.86316 564,337.383821 564,341.203497 C564,344.963477 562.579663,348.544542 560.022621,351.229446 L559.965815,351.289806 L542.238819,367.702487 C542.011498,367.881445 541.727371,368 541.50005,368 C541.272778,368 540.988651,367.881445 540.76133,367.702487 L523.034185,351.289806 Z M541.50005,365.195083 L558.375112,349.618954 C558.772601,349.260331 559.056728,348.783153 559.39771,348.365628 L558.488772,348.365628 C557.409219,348.365628 556.386223,347.710198 555.931779,346.635079 L554.738566,343.948761 C554.624905,343.650497 554.340927,343.591595 554.227117,343.591595 C554.113457,343.591595 553.829479,343.650497 553.715868,343.948761 L550.534063,351.707375 C550.136276,352.722841 549.227338,353.437879 548.147636,353.497532 L547.97717,353.497532 C546.954621,353.497532 546.045534,352.960701 545.534086,352.065954 L543.37488,348.305975 C543.261219,348.127016 543.033898,348.008462 542.863432,348.008462 L541.443244,348.008462 C540.363691,348.008462 539.340844,347.350868 538.88635,346.277206 L537.295548,342.637239 C537.125081,342.277866 536.840954,342.277866 536.727443,342.277866 C536.613782,342.277866 536.329655,342.338269 536.215994,342.696141 L534.511382,347.710198 C534.1704,348.664598 533.375172,349.379636 532.40928,349.618954 C531.386234,349.797912 530.420491,349.439996 529.738577,348.664598 L527.068221,345.560711 C527.011415,345.441405 526.840949,345.381046 526.670582,345.381046 L522.068292,345.381046 C522.579592,346.933343 523.431972,348.305975 524.568033,349.499648 L541.50005,365.195083 Z M524.568033,332.849107 C522.465931,335.05754 521.272866,338.040664 521.386378,340.964886 C521.386378,341.621729 521.443233,342.218213 521.556993,342.815447 L526.727288,342.815447 C527.522814,342.815447 528.318091,343.232972 528.829539,343.830913 L531.500044,346.933343 C531.67051,347.17191 531.897683,347.112257 532.011343,347.112257 C532.068298,347.112257 532.295619,347.052648 532.40928,346.754384 L534.113594,341.740328 C534.511382,340.607014 535.53408,339.830866 536.670439,339.771213 C537.863503,339.71156 538.88635,340.368403 539.39765,341.503174 L540.988651,345.143141 C541.102262,345.381046 541.272778,345.501765 541.50005,345.501765 L542.920585,345.501765 C543.943134,345.501765 544.852221,346.038595 545.363768,346.933343 L547.522874,350.693322 C547.693043,350.990835 547.920364,350.990835 548.034025,350.990835 C548.09083,350.990835 548.374957,350.931933 548.488618,350.632963 L551.670571,342.874349 C552.125015,341.800688 553.091057,341.083441 554.227117,341.083441 L554.283972,341.083441 C555.363625,341.083441 556.386223,341.740328 556.841114,342.815447 L558.034179,345.501765 C558.14784,345.740376 558.318306,345.858931 558.545578,345.858931 L560.818196,345.858931 C561.38645,344.427396 561.727233,342.815447 561.727233,341.203497 C561.727233,338.040664 560.534218,335.05754 558.431967,332.849107 C556.329517,330.640674 553.488844,329.38589 550.477208,329.38589 C547.466019,329.38589 544.625048,330.640674 542.522797,332.849107 L542.295476,333.087718 C541.841032,333.563439 541.159117,333.563439 540.704524,333.087718 L540.477203,332.849107 C538.318097,330.640674 535.53408,329.38589 532.522941,329.38589 C529.511305,329.38589 526.670582,330.640674 524.568033,332.849107 Z" id="Combined-shape-313" fill="#21B5FA"></path>
            <g id="Group" transform="translate(376.000000, 86.000000)" fill="#F75E62">
                <path d="M44.672112,12.594915 L42.553392,12.594915 L42.553392,15.669759 L44.672112,15.669759 C45.490464,15.669759 46.153872,16.329508 46.153872,17.143627 L46.153872,25.856803 C46.153872,26.670449 45.490464,27.330198 44.672112,27.330198 L42.553392,27.330198 L42.553392,30.404655 L44.672112,30.404655 C45.490464,30.404655 46.153872,31.064791 46.153872,31.87848 L46.153872,40.591656 C46.153872,41.405775 45.490464,42.065051 44.672112,42.065051 L2.404752,42.065051 C1.586448,42.065051 0.923136,41.405775 0.923136,40.591656 L0.923136,31.87848 C0.923136,31.064791 1.586448,30.404655 2.404752,30.404655 L4.52352,30.404655 L4.52352,27.330198 L2.404752,27.330198 C1.586448,27.330198 0.923136,26.670449 0.923136,25.856803 L0.923136,17.143627 C0.923136,16.329508 1.586448,15.669759 2.404752,15.669759 L4.52352,15.669759 L4.52352,12.594915 L2.404752,12.594915 C1.586448,12.594915 0.923136,11.935596 0.923136,11.12152 L0.923136,2.407871 C0.923136,1.594655 1.586448,0.934906 2.404752,0.934906 L44.672112,0.934906 C45.490464,0.934906 46.153872,1.594655 46.153872,2.407871 L46.153872,11.12152 C46.153872,11.935596 45.490464,12.594915 44.672112,12.594915 Z M44.17824,32.370013 L2.898624,32.370013 L2.898624,40.10094 L44.17824,40.10094 L44.17824,32.370013 Z M6.4992,30.404655 L40.57776,30.404655 L40.57776,27.330198 L6.4992,27.330198 L6.4992,30.404655 Z M44.17824,17.6343 L2.898624,17.6343 L2.898624,25.365657 L44.17824,25.365657 L44.17824,17.6343 Z M6.4992,15.669759 L40.57776,15.669759 L40.57776,12.594915 L6.4992,12.594915 L6.4992,15.669759 Z M2.898624,10.630374 L44.17824,10.630374 L44.17824,2.899447 L2.898624,2.899447 L2.898624,10.630374 Z" id="Combined-shape-1787"></path>
                <path d="M10.6380065,4.98730546 C11.6253683,4.98730546 12.4258366,5.78286154 12.4258366,6.76469737 C12.4258366,7.74739693 11.6253683,8.54295302 10.6380065,8.54295302 C9.65055415,8.54295302 8.85008585,7.74739693 8.85008585,6.76469737 C8.85008585,5.78286154 9.65055415,4.98730546 10.6380065,4.98730546 Z" id="Path"></path>
                <path d="M16.4362865,4.98730546 C17.4237323,4.98730546 18.2242071,5.78286154 18.2242071,6.76469737 C18.2242071,7.74739693 17.4237323,8.54295302 16.4362865,8.54295302 C15.4488342,8.54295302 14.6483658,7.74739693 14.6483658,6.76469737 C14.6483658,5.78286154 15.4488342,4.98730546 16.4362865,4.98730546 Z" id="Path"></path>
                <path d="M22.2345674,4.98730546 C23.2220197,4.98730546 24.022488,5.78286154 24.022488,6.76469737 C24.022488,7.74739693 23.2220197,8.54295302 22.2345674,8.54295302 C21.2472055,8.54295302 20.4466468,7.74739693 20.4466468,6.76469737 C20.4466468,5.78286154 21.2472055,4.98730546 22.2345674,4.98730546 Z" id="Path"></path>
                <path d="M10.6380065,19.721735 C11.6253683,19.721735 12.4258366,20.518153 12.4258366,21.5004207 C12.4258366,22.4813927 11.6253683,23.2778163 10.6380065,23.2778163 C9.65055415,23.2778163 8.85008585,22.4813927 8.85008585,21.5004207 C8.85008585,20.518153 9.65055415,19.721735 10.6380065,19.721735 Z" id="Path"></path>
                <path d="M16.4362865,19.721735 C17.4237323,19.721735 18.2242071,20.518153 18.2242071,21.5004207 C18.2242071,22.4813927 17.4237323,23.2778163 16.4362865,23.2778163 C15.4488342,23.2778163 14.6483658,22.4813927 14.6483658,21.5004207 C14.6483658,20.518153 15.4488342,19.721735 16.4362865,19.721735 Z" id="Path"></path>
                <path d="M22.2345674,19.721735 C23.2220197,19.721735 24.022488,20.518153 24.022488,21.5004207 C24.022488,22.4813927 23.2220197,23.2778163 22.2345674,23.2778163 C21.2472055,23.2778163 20.4466468,22.4813927 20.4466468,21.5004207 C20.4466468,20.518153 21.2472055,19.721735 22.2345674,19.721735 Z" id="Path"></path>
                <path d="M10.6380065,34.4565889 C11.6253683,34.4565889 12.4258366,35.2530153 12.4258366,36.2348446 C12.4258366,37.2171123 11.6253683,38.0135321 10.6380065,38.0135321 C9.65055415,38.0135321 8.85008585,37.2171123 8.85008585,36.2348446 C8.85008585,35.2530153 9.65055415,34.4565889 10.6380065,34.4565889 Z" id="Path"></path>
                <path d="M16.4362865,34.4565889 C17.4237323,34.4565889 18.2242071,35.2530153 18.2242071,36.2348446 C18.2242071,37.2171123 17.4237323,38.0135321 16.4362865,38.0135321 C15.4488342,38.0135321 14.6483658,37.2171123 14.6483658,36.2348446 C14.6483658,35.2530153 15.4488342,34.4565889 16.4362865,34.4565889 Z" id="Path"></path>
                <path d="M22.2345674,34.4565889 C23.2220197,34.4565889 24.022488,35.2530153 24.022488,36.2348446 C24.022488,37.2171123 23.2220197,38.0135321 22.2345674,38.0135321 C21.2472055,38.0135321 20.4466468,37.2171123 20.4466468,36.2348446 C20.4466468,35.2530153 21.2472055,34.4565889 22.2345674,34.4565889 Z" id="Path"></path>
            </g>
            <g id="Group-12" transform="translate(518.000000, 161.000000)" fill="#9685FF">
                <path d="M4.59095,28.271428 C5.60025,27.107782 6.67495,26.005264 7.8097,24.967384 C2.6995,20.304646 -0.4441,15.474022 1.3615,12.426208 C2.65645,10.278088 5.96665,9.731878 10.9693,10.948282 C12.27435,11.268556 13.56205,11.658814 14.8275,12.115438 C16.1601,5.511562 18.58905,0.571264 22.0011,0.571264 C25.41345,0.571264 27.8421,5.522848 29.207,12.136822 C35.4511,9.896146 40.8836,9.460258 42.6407,12.431554 C44.4463,15.479962 41.2975,20.321818 36.1551,25.005346 C41.2975,29.690062 44.4463,34.526572 42.6407,37.579732 C41.77565,39.041026 40.07225,39.679198 37.69725,39.679198 C35.3221,39.679198 32.3558,39.003118 29.1802,37.868524 C27.8421,44.477152 25.41345,49.428736 22.0011,49.428736 C18.58905,49.428736 16.1601,44.488438 14.8328,37.851946 C13.56755,38.308624 12.27975,38.69764 10.9747,39.019102 C9.4527,39.411736 7.8914,39.62644 6.3211,39.65668 C3.88165,39.65668 2.19975,38.948524 1.3668,37.54177 C0.0771,35.398996 1.19485,32.180974 4.59095,28.271428 Z M40.8084,36.451078 C41.7005,34.923904 39.5833,30.998374 34.53755,26.4121 C33.1888,27.530062 31.74325,28.648024 30.2388,29.711392 C30.1153,31.777648 29.88395,33.789364 29.57795,35.709766 C30.8765,36.190744 32.2003,36.59758 33.5435,36.930868 C38.05195,38.016214 40.27105,37.394674 40.8084,36.451078 Z M30.357,23.025652 C30.39285,23.688124 30.40175,24.345844 30.3839,25 C30.36595,25.654156 30.357,26.311282 30.357,26.969002 C31.23465,26.317816 32.0747,25.660096 32.87705,24.995248 C32.09255,24.343468 31.2525,23.688124 30.357,23.025652 Z M37.71865,12.508072 C35.74125,12.508072 32.93635,13.069132 29.56705,14.24698 C29.8733,16.176832 30.09365,18.195676 30.228,20.2453 C31.7326,21.308722 33.17815,22.421338 34.5269,23.54875 C35.68155,22.526314 36.7744,21.435028 37.7992,20.277376 C40.86235,16.749718 41.335,14.487172 40.7978,13.54417 C40.40545,12.872788 39.3307,12.508072 37.71865,12.508072 Z M16.0366,31.253956 C16.14935,32.514262 16.2891,33.724132 16.45575,34.90792 C17.53045,34.471384 18.60515,34.002286 19.6799,33.457264 C19.00815,33.075916 18.3417,32.688628 17.6861,32.290648 C17.1309,31.9633 16.58105,31.618132 16.0366,31.253956 Z M22.0011,47.248 C23.72065,47.248 25.88085,43.538902 27.15425,37.094596 C25.45645,36.406636 23.7259,35.605978 22.0066,34.716922 C20.25465,35.627308 18.5245,36.429154 16.84795,37.11058 C17.11035,38.48299 17.4477,39.838714 17.85825,41.173756 C19.26065,45.649708 20.9264,47.248 22.0011,47.248 Z M27.53585,34.90792 C27.71155,33.754966 27.84935,32.536186 27.94945,31.248664 C27.405,31.605064 26.85505,31.952014 26.3,32.290648 C25.6372,32.704666 24.9745,33.093682 24.3117,33.457264 C25.4187,33.992188 26.46125,34.471384 27.53585,34.90792 Z M27.96585,18.740104 L27.96585,18.746044 C27.853,17.485738 27.70785,16.275274 27.552,15.075502 C26.50955,15.50194 25.43485,15.985888 24.32795,16.532098 C24.99065,16.909882 25.6533,17.300734 26.316,17.704006 C26.87135,18.031948 27.42115,18.375928 27.96585,18.740104 Z M22.0011,2.752594 C20.28705,2.752594 18.1215,6.460504 16.84795,12.88942 C18.5245,13.57144 20.25465,14.366752 22.0066,15.277732 C23.7259,14.394076 25.45645,13.587478 27.15425,12.900706 C26.89225,11.524732 26.55505,10.16485 26.1441,8.826838 C24.7417,4.349752 23.07585,2.752594 22.0011,2.752594 Z M16.4664,15.092674 C16.2909,16.24444 16.153,17.462032 16.05265,18.746044 C16.59355,18.396124 17.1435,18.05155 17.70235,17.709946 C18.35795,17.294794 19.02065,16.906318 19.69055,16.542736 C18.58905,16.008406 17.5411,15.528616 16.4664,15.092674 Z M15.84855,21.471802 L15.85395,21.471802 C15.80005,22.606342 15.75175,23.806168 15.75175,25 C15.75175,26.193886 15.784,27.37762 15.8378,28.533544 C16.7674,29.16637 17.70235,29.771278 18.7771,30.425434 C19.85165,31.080184 20.9264,31.684552 22.0011,32.262784 C23.07585,31.684552 24.15055,31.080184 25.22525,30.425434 C26.22465,29.807458 27.20805,29.178196 28.1753,28.53889 C28.22895,27.399598 28.26125,26.199772 28.26125,25.005346 C28.26125,23.810866 28.22895,22.62832 28.1753,21.471802 C27.2457,20.83957 26.31075,20.233474 25.236,19.579912 C24.1613,18.925162 23.0867,18.3202 22.012,17.742562 C20.93715,18.303622 19.86255,18.91447 18.7877,19.579912 C17.7777,20.197888 16.7977,20.828338 15.84855,21.471802 Z M3.1938,13.548922 C2.30185,15.075502 4.419,19.001626 9.4648,23.56657 C10.78115,22.475284 12.2267,21.384646 13.76355,20.294548 C13.88705,18.222352 14.11815,16.210042 14.4244,14.296174 C13.12585,13.815196 11.80195,13.407172 10.45885,13.074478 C5.9558,11.989726 3.73115,12.60592 3.1938,13.548922 Z M13.64535,26.97316 C13.6095,26.316628 13.6006,25.660096 13.61845,25.005346 C13.6364,24.351784 13.64535,23.695252 13.64535,23.036938 C12.76405,23.688124 11.92405,24.343468 11.1252,25.005346 C11.90965,25.657126 12.74975,26.31247 13.64535,26.97316 Z M9.47545,26.428732 L9.47545,26.423386 C8.3193,27.461266 7.2265,28.571506 6.2029,29.744602 C3.14,33.271612 2.6458,35.540746 3.20455,36.477808 C3.76345,37.41541 5.96665,38.04289 10.4696,36.952846 C11.8127,36.620098 13.1367,36.212074 14.4353,35.73169 C14.129,33.795304 13.90855,31.783588 13.7742,29.732722 C12.2697,28.669948 10.82415,27.557332 9.47545,26.428732 Z" id="Combined-shape-1784"></path>
                <path d="M22.0011077,21.00328 C24.1765923,21.00328 25.9400269,22.7919914 25.9400269,25 C25.9400269,27.2080214 24.1765923,28.9973243 22.0011077,28.9973243 C19.8258769,28.9973243 18.0623154,27.2080214 18.0623154,25 C18.0623154,22.7919914 19.8258769,21.00328 22.0011077,21.00328 Z" id="Path"></path>
            </g>
        </g>
    </g>
</svg>