<?xml version="1.0" encoding="UTF-8"?>
<svg width="54px" height="54px" viewBox="0 0 54 54" version="1.1" xmlns="http://www.w3.org/2000/svg" xmlns:xlink="http://www.w3.org/1999/xlink">
    <!-- Generator: Sketch 48.1 (47250) - http://www.bohemiancoding.com/sketch -->
    <title>Group 2</title>
    <desc>Created with Sketch.</desc>
    <defs></defs>
    <g id="grakn" stroke="none" stroke-width="1" fill="none" fill-rule="evenodd" transform="translate(-277.000000, -1483.000000)">
        <g id="Group-2" transform="translate(277.000000, 1483.000000)">
            <path d="M26.9176364,0 C12.0518182,0 0,12.0518182 0,26.9165455 C0,41.7807273 12.0518182,53.8330909 26.9181818,53.8330909 C41.7834545,53.8325455 53.8341818,41.7807273 53.8341818,26.9165455 C53.8341818,12.0518182 41.7834545,0 26.9176364,0 Z" id="Path" fill="#46CD90"></path>
            <path d="M24.5967273,11.0378182 C24.5967273,9.75381818 25.6352727,8.71527273 26.9176364,8.71527273 C28.1983636,8.71527273 29.2385455,9.75381818 29.2385455,11.0378182 L29.2385455,29.6018182 C29.2385455,30.8841818 28.1983636,31.9227273 26.9176364,31.9227273 C25.6352727,31.9227273 24.5967273,30.8841818 24.5967273,29.6018182 L24.5967273,11.0378182 Z" id="Path" fill="#FFFFFF"></path>
            <path d="M26.9176364,42.48 C18.5994545,42.4772727 11.8570909,35.7365455 11.8538182,27.4161818 C11.8565455,20.5592727 16.44,14.7752727 22.7078182,12.9545455 L22.7078182,17.8963636 C19.0570909,19.5152727 16.5070909,23.1616364 16.4983636,27.4167273 C16.5098182,33.1701818 21.1663636,37.8256364 26.9170909,37.8354545 C32.6710909,37.8250909 37.3243636,33.1701818 37.3358182,27.4167273 C37.3287273,23.1616364 34.7787273,19.5152727 31.1263636,17.8963636 L31.1263636,12.9545455 C37.3941818,14.7752727 41.9781818,20.5592727 41.9781818,27.4161818 C41.9787273,35.7365455 35.2385455,42.4772727 26.9176364,42.48 Z" id="Path" fill="#FFFFFF"></path>
        </g>
    </g>
</svg>