<svg id="Green_on_White" data-name="Green on White" xmlns="http://www.w3.org/2000/svg" xmlns:xlink="http://www.w3.org/1999/xlink" viewBox="0 0 1404.5 294.11"><defs><style>.cls-1{fill:url(#linear-gradient);}.cls-2{fill:url(#linear-gradient-2);}.cls-3{fill:url(#linear-gradient-3);}.cls-4{fill:url(#linear-gradient-4);}.cls-5{fill:url(#linear-gradient-5);}.cls-6{fill:url(#linear-gradient-6);}.cls-7{fill:#00eca2;}</style><linearGradient id="linear-gradient" x1="88.15" y1="352.53" x2="380.97" y2="352.53" gradientUnits="userSpaceOnUse"><stop offset="0" stop-color="#00d8ce"/><stop offset="1" stop-color="#00eca2"/></linearGradient><linearGradient id="linear-gradient-2" x1="1313.39" y1="354.82" x2="1423.8" y2="354.82" xlink:href="#linear-gradient"/><linearGradient id="linear-gradient-3" x1="1470.14" y1="354.81" x2="1492.64" y2="354.81" xlink:href="#linear-gradient"/><linearGradient id="linear-gradient-4" x1="178.06" y1="370.14" x2="231.2" y2="370.14" xlink:href="#linear-gradient"/><linearGradient id="linear-gradient-5" x1="256.54" y1="370.17" x2="309.76" y2="370.17" xlink:href="#linear-gradient"/><linearGradient id="linear-gradient-6" x1="1247.94" y1="416.51" x2="1270.42" y2="416.51" xlink:href="#linear-gradient"/></defs><title>grakn-logo</title><path class="cls-1" d="M124.68,498.44a47.62,47.62,0,0,1-36.52-47.53q0-99.53,0-199c.14-18.86,12.8-36.77,30.48-43.28A49.4,49.4,0,0,1,137,205.51H319c9.41.22,19.08-.89,28.21,2,20,5.67,34.5,25.68,33.73,46.42q0,93,0,186c-.11,9,.76,18.24-2.28,26.89-5.78,18.62-24,32.56-43.61,32.76q-65.52.06-131,0,0-35.16,0-70.33,50,0,100,0c6.05.16,12.27-.11,17.92-2.49a36.19,36.19,0,0,0,22.57-32.82c0-16,0-32,0-47.95a36.51,36.51,0,0,0-10.23-25.33A35.63,35.63,0,0,0,308,309.85H173.58c0-13,0-26,0-39.06,5.18-2.76,9.51-7.31,11.18-13a21.35,21.35,0,1,0-41.23-2,22.08,22.08,0,0,0,11.73,15c0,13.09,0,26.17,0,39.25a36.2,36.2,0,0,0-24,14.09c-5.4,7-6.63,15.9-6.58,24.68" transform="translate(-88.15 -205.47)"/><path class="cls-2" d="M1355.61,285.24c.63-2.25,1.57-5,4.15-5.58,5.37-.33,10.77-.09,16.16-.13,2.79-.37,4.83,2.08,5.43,4.56q19.49,65,39,130c1.09,4.5,3.29,8.81,3.42,13.5.16,2.09-2.47,2.51-4,2.54-5,0-9.91.1-14.85,0-2.3-.07-3.76-2.28-4.29-4.29-3.38-11.3-6.82-22.58-10.16-33.9q-22.57,0-45.14,0-5.05,17.26-10.15,34.5a4.92,4.92,0,0,1-4.54,3.69c-4,.15-8,0-11.91.07-1.84,0-4.15.09-5.2-1.72-.43-1.7.16-3.39.6-5Q1334.84,354.34,1355.61,285.24Zm5.53,53.85c-3.55,11.48-7.05,23-10.61,34.43,11.64,0,23.27,0,34.91,0-3.58-11.92-7.24-23.81-10.88-35.7-3.39-10.22-4.74-20.95-6.5-31.52C1366.49,317.35,1364.66,328.46,1361.14,339.09Z" transform="translate(-88.15 -205.47)"/><path class="cls-3" d="M1472,279.87c5.84-.72,11.85-.32,17.75-.23,2.41.12,3,2.86,2.84,4.8q-.06,70.56,0,141.11c.27,2.05-.92,4.29-3.13,4.5-5.18.22-10.37.1-15.55.05-2.47.19-3.94-2.33-3.75-4.53q-.06-70.54,0-141.1C1470.09,282.79,1470.5,280.83,1472,279.87Z" transform="translate(-88.15 -205.47)"/><path class="cls-4" d="M197.23,344.11c13-4.19,28,3.81,32.29,16.66,4.88,12.63-1.25,28.3-13.61,34a26.11,26.11,0,0,1-24.31-.93,27.29,27.29,0,0,1-13.47-25.33C178.64,357.43,186.57,347.15,197.23,344.11Z" transform="translate(-88.15 -205.47)"/><path class="cls-5" d="M275.27,344.26c14.11-4.92,30.53,4.84,33.61,19.28,3.91,14.1-5.62,30.27-20.08,33.13-13.79,3.47-28.68-6.49-31.5-20.26C253.93,363.16,262.11,348.2,275.27,344.26Z" transform="translate(-88.15 -205.47)"/><path class="cls-6" d="M1251.12,403c5.16-.29,10.35-.16,15.53-.07,2.48-.22,3.91,2.33,3.75,4.54,0,6.3.07,12.61,0,18.91a3.64,3.64,0,0,1-3.71,3.69c-4.93.1-9.87.07-14.79,0-2,.1-4.06-1.51-3.86-3.61-.12-6.35,0-12.7,0-19C1247.77,405.46,1248.92,403.23,1251.12,403Z" transform="translate(-88.15 -205.47)"/><path class="cls-7" d="M508.21,284.88c12.4-7.1,27.21-7.54,41.12-7.09,11.85.76,24.64,3.11,33.54,11.62,7,6.69,9.14,16.78,8.55,26.12-.48,3.5,1.43,8.35-2,10.73-5.2.56-10.47.17-15.7.24a3.56,3.56,0,0,1-4.1-3c-.58-5.54.69-11.52-2.15-16.63-3.35-6.35-10.91-8.57-17.55-9.38-8.38-.75-17.29-.67-25,3.05-5.62,2.61-8.67,8.92-8.43,14.95q0,39.48,0,79c0,5,2,10.24,6.23,13.16,5.86,4.05,13.25,4.52,20.15,4.89,7.13-.44,14.89-.8,20.82-5.28,3.8-2.77,5.61-7.52,5.73-12.11.12-7.2,0-14.4,0-21.6-8.9-.07-17.81.1-26.7-.07-2.3.11-3.49-2.38-3.46-4.36a75.48,75.48,0,0,1,.15-11.65c.13-2.23,2.29-3.44,4.34-3.3q21.54-.06,43.09,0c2.1-.25,4.52,1.13,4.53,3.44.15,13.66,0,27.33.07,41,0,9.65-4.37,19.47-12.58,24.86-11.42,7.61-25.74,8.53-39.06,8.48-12.9-.5-27.12-2.21-37-11.35-6.42-5.74-9.29-14.59-9-23,.05-29.35,0-58.7,0-88A28.88,28.88,0,0,1,508.21,284.88Z" transform="translate(-88.15 -205.47)"/><path class="cls-7" d="M643.15,284.48c-.2-2.17.94-5.21,3.59-4.92,16.68-.08,33.38-.05,50.07,0,11.83.37,24.37,2.42,34,9.77a29.31,29.31,0,0,1,11.26,22c.19,8.38,0,16.77.09,25.16,0,7.1-2,14.38-6.59,19.9-4.68,5.83-11.65,9.27-18.66,11.45,8.75,19.62,18,39,26.42,58.79l-1.09,2.43c-3.9,1.91-8.35.76-12.5,1.07-3.1-.18-7.5,1-9-2.61q-12.84-28.23-25.41-56.61c-9.9-.07-19.81,0-29.72,0,0,18.52.09,37,0,55.58.21,2.09-1.84,3.72-3.82,3.64-4.94,0-9.89.07-14.83,0-2.47.18-3.93-2.37-3.74-4.56Q643.13,355,643.15,284.48Zm22.46,14.43q0,26.29,0,52.61c9.46-.06,18.93.12,28.39-.09,8-.5,17.18-1.53,22.52-8.25,4.49-5.91,3-13.75,3.27-20.66.23-5.75-.08-12.27-4.39-16.61-5.43-5.49-13.61-6.61-21-6.94C684.83,298.82,675.22,299,665.61,298.91Z" transform="translate(-88.15 -205.47)"/><path class="cls-7" d="M826.63,285.16c.61-2.52,2-5.67,5.1-5.6,5.4-.06,10.81-.12,16.22,0,2.5.09,3.94,2.63,4.52,4.8q20,67,40.21,134c.81,3,2.2,6,2.12,9.13.22,2.13-2.42,2.59-4,2.61-5,0-9.92.09-14.86,0-2.31-.08-3.78-2.29-4.3-4.32-5.43-17.87-10.72-35.78-15.47-53.84-3.75-12.87-11.75-44.5-16.68-67-4.78,20.58-6.32,27.56-15.72,61.39-4.35,15.54-4.73,16.38-7.91,27.18-3.18,11-6.43,22-9.66,32.91a4.93,4.93,0,0,1-4.47,3.67c-4.6.09-9.21.06-13.81,0-1.54,0-3.67-.86-3.51-2.7.1-2.91,1.31-5.64,2.07-8.42Q806.51,352.08,826.63,285.16Z" transform="translate(-88.15 -205.47)"/><path class="cls-7" d="M941.72,280.68c1.25-1.43,3.34-1.11,5-1.18,4.72.12,9.45-.18,14.17.16,2.19.34,2.81,2.92,2.69,4.82q0,31,0,62l4.11,0q22.54-31,45.08-62c1.77-2.15,3.82-4.78,6.86-4.93,5.05-.13,10.12,0,15.18-.05a3.54,3.54,0,0,1,3.6,1.48c.34,1.91-1,3.65-1.93,5.17q-24.67,33.68-49.27,67.41,22.62,28.64,45.22,57.31c4,5.61,9.16,10.47,12.3,16.66-.92,1-1.5,2.79-3.18,2.55-5.95.14-11.9,0-17.84,0-2.55.22-4.67-1.5-6.13-3.4q-24.84-31.62-49.68-63.24l-4.32,0q0,31,0,62.09c.19,1.95-1,4.25-3.13,4.42-5.19.25-10.38.08-15.56.09-2.49.23-4.22-2.17-3.95-4.49q0-69.06,0-138.13C941,285.23,940.59,282.77,941.72,280.68Z" transform="translate(-88.15 -205.47)"/><path class="cls-7" d="M1090.17,283.51c-.17-2,1.37-4.16,3.51-3.95,5,0,10-.22,14.93.12,1.65.11,2.26,1.81,3.06,3q22.59,39.82,45.3,79.58c4.21,7.74,9.12,15.15,12.27,23.42-.17-34-.06-68.06-.06-102.08.06-5.73,6.88-3.76,10.58-4.08,3.49.5,9.68-1.78,10.6,3.19q.18,71.83,0,143.69c-.2,5-6.27,3.65-9.59,3.77-3.7-.53-8.94,1.53-11.35-2.26q-23.19-40.83-46.35-81.67c-4-7.38-8.71-14.44-11.74-22.31.16,33.88,0,67.76.07,101.64.35,2.22-1.33,4.66-3.7,4.55q-6.95.12-13.87,0c-2.38.1-4-2.32-3.69-4.53Q1090.18,354.54,1090.17,283.51Z" transform="translate(-88.15 -205.47)"/></svg>