<?xml version="1.0" encoding="UTF-8"?>
<svg width="74px" height="72px" viewBox="0 0 74 72" version="1.1" xmlns="http://www.w3.org/2000/svg" xmlns:xlink="http://www.w3.org/1999/xlink">
    <!-- Generator: Sketch 48.1 (47250) - http://www.bohemiancoding.com/sketch -->
    <title>Group 7</title>
    <desc>Created with Sketch.</desc>
    <defs>
        <linearGradient x1="-0.231640749%" y1="50%" x2="99.1845129%" y2="50%" id="linearGradient-1">
            <stop stop-color="#7F68FC" offset="0%"></stop>
            <stop stop-color="#9084FC" offset="27.71%"></stop>
            <stop stop-color="#A197FD" offset="100%"></stop>
        </linearGradient>
        <linearGradient x1="43.71941%" y1="29.8423979%" x2="43.7194109%" y2="124.927836%" id="linearGradient-2">
            <stop stop-color="#3D424E" offset="0%"></stop>
            <stop stop-color="#636E8A" offset="100%"></stop>
        </linearGradient>
        <linearGradient x1="105.091525%" y1="44.8532062%" x2="20.7092124%" y2="50%" id="linearGradient-3">
            <stop stop-color="#5D6471" offset="0%"></stop>
            <stop stop-color="#393F4C" offset="100%"></stop>
        </linearGradient>
        <linearGradient x1="84.8045378%" y1="-24.124183%" x2="37.9549696%" y2="64.2315161%" id="linearGradient-4">
            <stop stop-color="#555C69" offset="0%"></stop>
            <stop stop-color="#393F4C" offset="100%"></stop>
        </linearGradient>
    </defs>
    <g id="grakn" stroke="none" stroke-width="1" fill="none" fill-rule="evenodd" transform="translate(-856.000000, -1756.000000)">
        <g id="Group-7" transform="translate(846.000000, 1742.000000)" fill-rule="nonzero">
            <g id="logo" transform="translate(34.000000, 36.000000)">
                <path d="M39.1304348,0 C32.2426027,0 26.9100619,0 23.1328125,0 C21.0790703,0 18.3586507,6.82708881 13.8769531,8.85714286 C8.28431084,11.3904165 0,9.26443964 0,9.58398438 C0,20.2940848 0,31.0041853 0,41.7142857 C0,43.1428571 0.285623612,44.7142857 0.99968264,45.8571429 C2.14217709,47.8571429 3.99873056,49.2857143 6.14090765,49.7142857 L6.14090765,24.2857143 C6.14090765,22.8571429 6.28371945,21.2857143 7.28340209,20.1428571 C8.28308474,18.8571429 9.71120279,18 11.4249445,17.7142857 L11.4249445,11 C10.4252618,10.4285714 16.9946049,7.42857143 16.5661695,8.85714286 C16.2805459,9.85714286 15.5664868,10.5714286 14.709616,11 L14.709616,17.7142857 L37.5595049,17.7142857 C39.2732466,17.7142857 40.8441765,18.2857143 41.9866709,19.5714286 C43.1291653,20.7142857 43.7004126,22.2857143 43.7004126,23.8571429 L43.7004126,32 C43.7004126,34.4285714 42.1294827,36.7142857 39.8444938,37.5714286 C38.8448112,38 37.8451285,38 36.8454459,38 L19.850841,38 L19.850841,50 L42.1294827,50 C45.4141542,50 48.556014,47.5714286 49.5556966,44.4285714 C50.1269438,43 49.984132,41.4285714 49.984132,39.8571429 L49.984132,8.28571429 C50.1269438,4.71428571 47.6991431,1.42857143 44.2716598,0.428571429 C43.2719772,0.142857143 42.4151063,0.142857143 41.4154237,0.142857143 L40.2729292,0.142857143 C39.8444938,0 39.4160584,0 39.1304348,0 Z" id="Shape" fill="url(#linearGradient-1)"></path>
                <path d="M18.0928044,22.8695729 C16.2239588,23.4387736 14.9301427,25.1463757 14.7863854,26.996278 C14.642628,28.7038801 15.6489294,30.4114822 17.0865029,31.2652833 C18.380319,31.9767842 19.9616499,31.9767842 21.255466,31.4075835 C23.4118262,30.4114822 24.4181276,27.8500791 23.5555836,25.7155764 C22.9805542,24.0079743 21.1117087,22.7272727 19.2428631,22.7272727 C18.8115911,22.7272727 18.5240764,22.7272727 18.0928044,22.8695729 Z" id="Shape" fill="#7F72D0"></path>
                <path d="M30.4013793,23.0079635 C28.1204158,23.7096905 26.8373738,26.0955621 27.4076147,28.3410884 C27.8352954,30.5866146 30.4013793,32.2707593 32.824903,31.7093778 C35.2484268,31.2883416 36.8165892,28.4814338 36.2463483,26.2359075 C35.8186676,24.271072 33.8228246,22.7272727 31.8269815,22.7272727 C31.2567406,22.8676181 30.82906,22.8676181 30.4013793,23.0079635 Z" id="Shape" fill="#7F72D0"></path>
            </g>
            <g id="Group-8" transform="translate(42.292088, 37.521852) rotate(-12.000000) translate(-42.292088, -37.521852) translate(5.792088, 7.021852)">
                <g id="Group" transform="translate(36.273776, 30.164384) scale(-1, 1) rotate(11.000000) translate(-36.273776, -30.164384) translate(4.273776, 5.664384)">
                    <path d="M34.0755529,32.3420278 C32.9182853,32.8919261 31.4295048,33.1952646 29.8839583,33.1952646 C28.3384119,33.1952646 27.6214493,33.0340415 26.4641817,32.4841432 C23.0732319,30.8274778 20.5283211,29.5817691 18.8294492,28.7470171 C18.8298232,28.7481845 16.1663951,29.8787426 10.8391648,32.1386916 L26.5706831,40.1508433 C28.3084767,40.9768574 31.365525,40.7055175 33.1033186,39.8795034 L45.0639641,34.8025106 L42.4760833,28.7058456 L34.0755529,32.3420278 Z" id="Shape" fill="url(#linearGradient-2)"></path>
                    <path d="M61.8224204,14.9219873 L33.3863487,1.44658972 C32.5564091,1.05343726 31.4650233,0.857250298 30.3713574,0.857250298 C29.2784516,0.857250298 28.1863058,1.05343726 27.3571262,1.44658972 L1.59499112,14.6141324 C0.168015817,15.2163132 0.270970773,17.5443258 1.68734056,18.2449166 L14.3144581,25.0738843 L27.3571262,31.2537738 C28.1855458,31.6461477 29.2784516,31.8431132 30.3713574,31.8431132 C31.4642633,31.8431132 32.5564091,31.6461477 33.3863487,31.2537738 L45.5527161,25.4880568 L31.8419922,18.3575948 C31.3403803,18.4759298 30.8038077,18.5428825 30.2429144,18.5428825 C27.5250902,18.5428825 25.3210381,17.0333328 25.3210381,15.1711136 C25.3210381,13.3088945 27.5243302,11.7985663 30.2429144,11.7985663 C32.9607386,11.7985663 35.1632706,13.308116 35.1632706,15.1711136 C35.1632706,15.2372878 35.1541504,15.301905 35.1495903,15.3673006 L42.5597654,19.2217517 L50.292188,23.242806 L61.8224204,17.7791547 C63.4800196,16.9936283 63.4800196,15.7075137 61.8224204,14.9219873 Z" id="Shape" fill="url(#linearGradient-3)"></path>
                    <polygon id="Shape" fill="url(#linearGradient-4)" transform="translate(52.880340, 35.994156) rotate(-28.000000) translate(-52.880340, -35.994156) " points="51.3846868 24.1944444 49.2955501 47.7938673 54.6090943 45.7384093 56.4651305 24.5238182"></polygon>
                </g>
            </g>
        </g>
    </g>
</svg>