<?xml version="1.0" encoding="utf-8"?>
<!-- Generator: Adobe Illustrator 21.1.0, SVG Export Plug-In . SVG Version: 6.00 Build 0)  -->
<svg version="1.1" id="Layer_1" xmlns="http://www.w3.org/2000/svg" xmlns:xlink="http://www.w3.org/1999/xlink" x="0px" y="0px"
	 viewBox="0 0 100 125" style="enable-background:new 0 0 100 125;" xml:space="preserve">
<style type="text/css">
	.st0{fill:#46CD90;}
</style>
<title>Artboard 6</title>
<path class="st0" d="M26,95.9L1,75.4l14.3-14.1c7.8-7.7,19.5-10.1,29.7-6h17.6c3.7,0,6.6,3,6.6,6.6c0,3.7-3,6.6-6.6,6.6H49
	c-1.2,0-2.2,1-2.2,2.2s1,2.2,2.2,2.2h15.5c2.2,0,4.4-1,5.8-2.6l16.7-19c2.6-2.8,6.9-3,9.7-0.5c2.7,2.5,3,6.7,0.6,9.5L76.5,84.6
	c-3.1,3.6-7.6,5.6-12.3,5.6H31.6L26,95.9z M60.7,40.6c0,6.2,5.1,11.3,11.3,11.3s11.3-5.1,11.3-11.3s-5-11.3-11.3-11.3l0,0
	C65.8,29.3,60.7,34.4,60.7,40.6z M47.6,37c5,0,9-4,9-9s-4-9-9-9s-9,4-9,9S42.6,37,47.6,37z M65.6,20.7c4.6,0,8.3-3.7,8.3-8.3
	s-3.7-8.3-8.3-8.3s-8.3,3.7-8.3,8.3S61,20.7,65.6,20.7L65.6,20.7L65.6,20.7z"/>
</svg>
