<?xml version="1.0" encoding="utf-8"?>
<!-- Generator: Adobe Illustrator 21.1.0, SVG Export Plug-In . SVG Version: 6.00 Build 0)  -->
<svg version="1.1" id="Layer_1" xmlns="http://www.w3.org/2000/svg" xmlns:xlink="http://www.w3.org/1999/xlink" x="0px" y="0px"
	 viewBox="0 0 100 125" style="enable-background:new 0 0 100 125;" xml:space="preserve">
<style type="text/css">
	.st0{fill:#796DE3;}
</style>
<g>
	<circle class="st0" cx="58.9" cy="28.6" r="8.7"/>
	<path class="st0" d="M63.4,47.2c3.1,0,5.6,2.5,5.6,5.6s-2.5,5.6-5.6,5.6s-5.6-2.5-5.6-5.6C57.8,49.7,60.3,47.2,63.4,47.2z"/>
	<path class="st0" d="M35.5,95h50.2c0,0-14.6-11.7-14.3-24.6c0.2-7.2,14.3-16.3,14.2-36.2c0-10-9.7-26.6-26.2-28.7
		C43,3.5,30.6,7.1,25.3,17.3c-5.4,10.2-5.8,19.1-5.4,20.7c0.4,1.7,2.2,4.8,2.2,4.8s-8.3,12.7-7.8,14.8s6.2,3.2,6.2,3.2
		S21,62.2,20,65c-1,2.8,1.9,6,2.8,7.2c0.9,1.1-1.2,4.7-0.5,6.6c0.7,2,4.1,4.3,8.1,3.8c3.9-0.5,9-1.4,10.7-1.8
		C45.1,90.2,35.5,95,35.5,95z M72.7,57L71,59.6l-1.7-1.1c-0.8,0.8-1.7,1.4-2.7,1.9l0.4,1.9L64,63l-0.4-2c-1.1,0-2.2-0.2-3.2-0.6
		l-1.1,1.7l-2.6-1.7l1.1-1.7C56.9,58,56.3,57,55.9,56l-2,0.4l-0.6-3.1l2-0.4c0-1.1,0.2-2.2,0.6-3.2l-1.7-1.1l1.7-2.6l1.7,1.1
		c0.8-0.8,1.7-1.4,2.7-1.9l-0.4-1.9l3.1-0.6l0.4,1.9c1.1,0,2.2,0.2,3.2,0.6l1.1-1.7l2.6,1.7l-1.1,1.7c0.8,0.8,1.4,1.7,1.8,2.7
		l1.9-0.4l0.6,3.1l-1.9,0.4c0,1.1-0.2,2.2-0.6,3.2L72.7,57z M44.2,22.7l3,0.7c0.7-1.6,1.7-3,3-4.2l-1.6-2.6l4.1-2.6l1.6,2.6
		c1.6-0.6,3.4-0.9,5-0.9l0.7-3l4.7,1.1l-0.7,3c1.5,0.7,3,1.7,4.2,3l2.6-1.6l2.6,4.1L70.8,24c0.6,1.6,0.9,3.4,0.9,5.1l3,0.7l-1.1,4.7
		l-3-0.7c-0.7,1.5-1.7,3-3,4.2l1.6,2.6l-4.1,2.6l-1.6-2.6c-1.6,0.6-3.4,0.9-5.1,0.9l-0.7,3L53,43.3l0.7-3c-1.5-0.7-3-1.7-4.2-3
		l-2.6,1.6l-2.6-4.1l2.6-1.6c-0.6-1.6-0.9-3.4-0.9-5l-3-0.7L44.2,22.7z"/>
</g>
</svg>
