<?xml version="1.0" encoding="UTF-8"?>
<svg width="60px" height="60px" viewBox="0 0 60 60" version="1.1" xmlns="http://www.w3.org/2000/svg" xmlns:xlink="http://www.w3.org/1999/xlink">
    <!-- Generator: Sketch 48.1 (47250) - http://www.bohemiancoding.com/sketch -->
    <title>Group 4</title>
    <desc>Created with Sketch.</desc>
    <defs></defs>
    <g id="grakn" stroke="none" stroke-width="1" fill="none" fill-rule="evenodd" transform="translate(-1090.000000, -3405.000000)">
        <g id="Group-4" transform="translate(1090.000000, 3405.000000)">
            <path d="M7.98069069,-1.25011113e-13 L52.0184643,-1.25011113e-13 C56.4262392,-1.25011113e-13 60,4.0298834 60,9.00076875 L60,51.0004188 C60,55.9713041 56.4262392,60 52.0184643,60 L7.98069069,60 C3.57285083,60 5.46229728e-14,55.9713041 5.46229728e-14,51.0004188 L5.46229728e-14,9.00076875 C5.46229728e-14,4.0298834 3.57285083,-1.25011113e-13 7.98069069,-1.25011113e-13 Z" id="Rectangle" fill="#46CD90"></path>
            <path d="M33.0570322,18.7535917 C33.2573122,18.7380267 33.4580722,18.7731992 33.6447522,18.8562216 C34.3365122,19.1675762 34.6761522,20.0572825 34.4032722,20.844909 L28.1208321,40.2515244 C27.861432,41.0449258 27.086072,41.4485428 26.388952,41.1533307 C25.691912,40.8581186 25.337152,39.9759197 25.596672,39.1819407 L31.8791122,19.7753254 C32.0572322,19.1981561 32.5203522,18.7956666 33.0570322,18.7535917 Z M22.7218319,22.3452246 C23.2451519,22.2927547 23.7471519,22.5920093 24.0079919,23.1115387 C24.3769119,23.8461177 24.1527119,24.7819415 23.5071919,25.201701 L16.4673917,30.0220874 L23.5071919,34.8251488 C23.5341119,34.8418687 23.5603519,34.8597437 23.5862319,34.8787737 C24.2121919,35.3354381 24.3943519,36.2833619 23.9929519,36.9954735 C23.5917119,37.7075851 22.7589119,37.9151548 22.1328319,37.4590679 L13.1579116,31.3297932 C12.9652716,31.1994984 12.8043116,31.0167061 12.6896316,30.7970364 C12.3093516,30.0705148 12.5189516,29.130071 13.1579116,28.6970566 L22.1328319,22.5683593 C22.3112719,22.4426845 22.5129519,22.3659871 22.7218319,22.3452246 Z M37.0958323,22.3452246 C37.3667923,22.3290822 37.6357523,22.4063571 37.8671123,22.5683593 L46.8421526,28.6970566 C47.0347926,28.8273514 47.1956326,29.0101437 47.3102726,29.2298134 C47.6906726,29.9569124 47.4811126,30.8973563 46.8421526,31.3297932 L37.8671123,37.4590679 C37.8412723,37.4769429 37.8150323,37.4953954 37.7879923,37.5126928 C37.1361523,37.9186198 36.3177523,37.6470302 35.9600323,36.9055211 C35.6023923,36.1640121 35.8409123,35.2328082 36.4928723,34.8251488 L43.5325525,30.0220874 L36.4928723,25.201701 C36.0984323,24.9422388 35.8460723,24.4734469 35.8221123,23.9556776 C35.7829923,23.1109612 36.3532723,22.3890596 37.0958323,22.3452246 Z" id="Combined-shape-150" fill="#FFFFFF"></path>
        </g>
    </g>
</svg>