<?xml version="1.0" encoding="utf-8"?>
<!-- Generator: Adobe Illustrator 21.1.0, SVG Export Plug-In . SVG Version: 6.00 Build 0)  -->
<svg version="1.1" id="Layer_1" xmlns="http://www.w3.org/2000/svg" xmlns:xlink="http://www.w3.org/1999/xlink" x="0px" y="0px"
	 viewBox="0 0 48 48" style="enable-background:new 0 0 48 48;" xml:space="preserve">
<style type="text/css">
	.st0{fill:#46CD90;}
</style>
<path class="st0" d="M29.7,16.9c-0.6,0-1.1,0.6-1,1.3c0,0.4,0.2,0.8,0.5,1l5.6,3.9l-5.6,3.8c-0.5,0.3-0.7,1.1-0.4,1.7
	c0.3,0.6,0.9,0.8,1.5,0.5h0.1l7.2-4.9c0.5-0.3,0.7-1.1,0.4-1.7c-0.1-0.2-0.2-0.3-0.4-0.4L30.3,17C30.1,16.9,29.9,16.9,29.7,16.9z
	 M18.2,16.9c-0.2,0-0.3,0.1-0.5,0.2L10.5,22c-0.5,0.3-0.7,1.1-0.4,1.7c0.1,0.2,0.2,0.3,0.4,0.4l7.2,4.9c0.5,0.4,1.2,0.2,1.5-0.4
	s0.2-1.3-0.3-1.7h-0.1L13.2,23l5.6-3.9c0.5-0.3,0.7-1.1,0.4-1.7C19,17.1,18.6,16.8,18.2,16.9z M26.5,14c-0.4,0-0.8,0.4-1,0.8
	l-5,15.5c-0.2,0.6,0.1,1.3,0.6,1.6c0.6,0.2,1.2-0.1,1.4-0.7l5-15.5c0.2-0.6-0.1-1.4-0.6-1.6C26.8,14,26.6,14,26.5,14z"/>
</svg>
