<?xml version="1.0" encoding="UTF-8"?>
<svg width="482px" height="281px" viewBox="0 0 482 281" version="1.1" xmlns="http://www.w3.org/2000/svg" xmlns:xlink="http://www.w3.org/1999/xlink">
    <!-- Generator: Sketch 47.1 (45422) - http://www.bohemiancoding.com/sketch -->
    <title>Group 6</title>
    <desc>Created with Sketch.</desc>
    <defs></defs>
    <g id="Page-1" stroke="none" stroke-width="1" fill="none" fill-rule="evenodd">
        <g id="home_page" transform="translate(-261.000000, -3096.000000)">
            <g id="Group-6" transform="translate(259.000000, 3095.000000)">
                <path d="M7.500078,54.999995 L179.500044,54.999995 C182.53761,54.999995 184.999878,57.462305 184.999878,60.499835 C184.999878,63.537365 182.53761,66.00014 179.500044,66.00014 L7.500078,66.00014 C4.462512,66.00014 2.000058,63.537365 2.000058,60.499835 C2.000058,57.462305 4.462512,54.999995 7.500078,54.999995 Z" id="Rounded-Rectangle-707" fill="#FECE60" opacity="0.5"></path>
                <path d="M7.500078,73.000076 L179.500044,73.000076 C182.53761,73.000076 184.999878,75.462382 184.999878,78.49992 C184.999878,81.537444 182.53761,84.000226 179.500044,84.000226 L7.500078,84.000226 C4.462512,84.000226 2.000058,81.537444 2.000058,78.49992 C2.000058,75.462382 4.462512,73.000076 7.500078,73.000076 Z" id="Rounded-Rectangle-707-copy" fill="#FECE60" opacity="0.5"></path>
                <path d="M7.500078,252.999965 L179.500044,252.999965 C182.53761,252.999965 184.999878,255.462275 184.999878,258.499805 C184.999878,261.53735 182.53761,264.000125 179.500044,264.000125 L7.500078,264.000125 C4.462512,264.000125 2.000058,261.53735 2.000058,258.499805 C2.000058,255.462275 4.462512,252.999965 7.500078,252.999965 Z" id="Rounded-Rectangle-707-copy-8" fill="#FECE60" opacity="0.5"></path>
                <path d="M7.500078,271.000048 L179.500044,271.000048 C182.53761,271.000048 184.999878,273.462368 184.999878,276.499892 C184.999878,279.53743 182.53761,282.000198 179.500044,282.000198 L7.500078,282.000198 C4.462512,282.000198 2.000058,279.53743 2.000058,276.499892 C2.000058,273.462368 4.462512,271.000048 7.500078,271.000048 Z" id="Rounded-Rectangle-707-copy-8" fill="#FECE60" opacity="0.5"></path>
                <path d="M7.500078,100.999788 L179.500044,100.999788 C182.53761,100.999788 184.999878,103.462556 184.999878,106.500108 L184.999878,120.499968 C184.999878,123.537492 182.53761,125.999812 179.500044,125.999812 L7.500078,125.999812 C4.462512,125.999812 2.000058,123.537492 2.000058,120.499968 L2.000058,106.500108 C2.000058,103.462556 4.462512,100.999788 7.500078,100.999788 Z" id="Rounded-Rectangle-707-copy-7" fill="#FECE60" opacity="0.5"></path>
                <path d="M8.00002,208.84392 L61.99998,208.84392 C65.31371,208.84392 68.00003,211.52994 68.00003,214.84377 L68.00003,230.00007 C68.00003,233.3139 65.31371,235.99995 61.99998,235.99995 L8.00002,235.99995 C4.68629,235.99995 1.99997,233.3139 1.99997,230.00007 L1.99997,214.84377 C1.99997,211.52994 4.68629,208.84392 8.00002,208.84392 Z" id="Rounded-Rectangle-707-copy-4" fill="#FECE60"></path>
                <path d="M89.937488,208.84392 L178.999968,208.84392 C182.31372,208.84392 184.999936,211.52994 184.999936,214.84377 L184.999936,230.00007 C184.999936,233.3139 182.31372,235.99995 178.999968,235.99995 L89.937488,235.99995 C86.623736,235.99995 83.93752,233.3139 83.93752,230.00007 L83.93752,214.84377 C83.93752,211.52994 86.623736,208.84392 89.937488,208.84392 Z" id="Rounded-Rectangle-707-copy-5" fill="#FECE60" opacity="0.5"></path>
                <path d="M8.000046,143.249839 L179.000076,143.249839 C182.313666,143.249839 184.999878,145.936344 184.999878,149.250172 L184.999878,153.062655 C184.999878,156.376027 182.313666,159.062532 179.000076,159.062532 L8.000046,159.062532 C4.68627,159.062532 2.000058,156.376027 2.000058,153.062655 L2.000058,149.250172 C2.000058,145.936344 4.68627,143.249839 8.000046,143.249839 Z" id="Rounded-Rectangle-707-copy-2" fill="#FECE60"></path>
                <path d="M8.000046,176.031184 L179.000076,176.031184 C182.313666,176.031184 184.999878,178.717684 184.999878,182.03107 L184.999878,185.874916 C184.999878,189.188752 182.313666,191.874784 179.000076,191.874784 L8.000046,191.874784 C4.68627,191.874784 2.000058,189.188752 2.000058,185.874916 L2.000058,182.03107 C2.000058,178.717684 4.68627,176.031184 8.000046,176.031184 Z" id="Rounded-Rectangle-707-copy-3" fill="#FECE60"></path>
                <path d="M306.999981,114.84374 L361.000002,114.84374 C364.313727,114.84374 367.000035,117.53024 367.000035,120.84362 L367.000035,135.99989 C367.000035,139.31372 364.313727,141.99977 361.000002,141.99977 L306.999981,141.99977 C303.686256,141.99977 301.000017,139.31372 301.000017,135.99989 L301.000017,120.84362 C301.000017,117.53024 303.686256,114.84374 306.999981,114.84374 Z" id="Rounded-Rectangle-707-copy-6" fill="#46CD90"></path>
                <path d="M388.937475,114.84374 L477.999945,114.84374 C481.313745,114.84374 484.000065,117.53024 484.000065,120.84362 L484.000065,135.99989 C484.000065,139.31372 481.313745,141.99977 477.999945,141.99977 L388.937475,141.99977 C385.62378,141.99977 382.937565,139.31372 382.937565,135.99989 L382.937565,120.84362 C382.937565,117.53024 385.62378,114.84374 388.937475,114.84374 Z" id="Rounded-Rectangle-707-copy-6" fill="#46CD90" opacity="0.5"></path>
                <path d="M306.999924,49.250124 L477.999954,49.250124 C481.31373,49.250124 483.999942,51.936173 483.999942,55.250001 L483.999942,59.062484 C483.999942,62.376331 481.31373,65.062361 477.999954,65.062361 L306.999924,65.062361 C303.686334,65.062361 301.000122,62.376331 301.000122,59.062484 L301.000122,55.250001 C301.000122,51.936173 303.686334,49.250124 306.999924,49.250124 Z" id="Rounded-Rectangle-707-copy-6" fill="#46CD90"></path>
                <path d="M306.999924,82.031472 L477.999954,82.031472 C481.31373,82.031472 483.999942,84.717522 483.999942,88.031358 L483.999942,91.875204 C483.999942,95.188572 481.31373,97.875072 477.999954,97.875072 L306.999924,97.875072 C303.686334,97.875072 301.000122,95.188572 301.000122,91.875204 L301.000122,88.031358 C301.000122,84.717522 303.686334,82.031472 306.999924,82.031472 Z" id="Rounded-Rectangle-707-copy-6" fill="#46CD90"></path>
                <path d="M93.999955,1.9998 C111.120825,1.9998 125.000015,15.87927 125.000015,33.000132 C125.000015,50.12106 111.120825,64.000002 93.999955,64.000002 C76.87915,64.000002 63.000025,50.12106 63.000025,33.000132 C63.000025,15.87927 76.87915,1.9998 93.999955,1.9998 Z" id="Ellipse-713" fill="#FFF3D8"></path>
                <path d="M96.445568,25.002924 C96.605792,24.990472 96.7664,25.018148 96.915744,25.08549 C97.469152,25.333672 97.740864,26.045416 97.52256,26.67554 L92.496608,42.200852 C92.289088,42.835574 91.6688,43.15893 91.111104,42.922298 C90.553504,42.686106 90.269664,41.980346 90.47728,41.345624 L95.503264,25.81985 C95.645728,25.358114 96.016224,25.036606 96.445568,25.002924 Z M88.177408,27.875794 C88.596064,27.834258 88.997664,28.073222 89.206336,28.488824 C89.501504,29.076488 89.322112,29.82561 88.805696,30.160956 L83.173856,34.01727 L88.805696,37.859746 C88.827232,37.873584 88.848224,37.887884 88.868928,37.902624 C89.369696,38.26844 89.515424,39.026318 89.194304,39.596448 C88.873312,40.165676 88.207072,40.332656 87.706208,39.966862 L80.526272,35.06392 C80.37216,34.959662 80.243424,34.81345 80.15168,34.63723 C79.847456,34.056012 80.015104,33.303678 80.526272,32.957244 L87.706208,28.054302 C87.84896,27.95374 88.010336,27.892382 88.177408,27.875794 Z M99.67664,27.875794 C99.893408,27.86332 100.108544,27.924678 100.293664,28.054302 L107.473664,32.957244 C107.627776,33.061502 107.756448,33.208176 107.848192,33.383934 C108.152512,33.965152 107.984832,34.717486 107.473664,35.06392 L100.293664,39.966862 C100.27296,39.981624 100.251968,39.995924 100.230336,40.009762 C99.708864,40.334966 99.054176,40.117694 98.767968,39.524486 C98.481856,38.9313 98.672704,38.185852 99.19424,37.859746 L104.825984,34.01727 L99.19424,30.160956 C98.878688,29.953848 98.6768,29.578374 98.657632,29.164598 C98.626336,28.488362 99.082592,27.911302 99.67664,27.875794 Z" id="Combined-shape-862" fill="#FECE60"></path>
                <path d="M393.000064,1.000192 C410.120768,1.000192 424,14.879232 424,32.000064 C424,49.12096 410.120768,63 393.000064,63 C375.879232,63 362,49.12096 362,32.000064 C362,14.879232 375.879232,1.000192 393.000064,1.000192 Z" id="Ellipse-713-copy" fill="#BFF1DA"></path>
                <path d="M395.445664,24.00288 C395.605856,23.990428 395.766464,24.018566 395.915808,24.085446 C396.469216,24.333606 396.740928,25.045372 396.522624,25.675936 L391.496672,41.200786 C391.289152,41.835508 390.668896,42.158864 390.111168,41.922232 C389.553568,41.686062 389.26976,40.980302 389.477376,40.34558 L394.503328,24.819806 C394.645792,24.35807 395.01632,24.03654 395.445664,24.00288 Z M387.177472,26.875728 C387.59616,26.834214 387.997728,27.073618 388.2064,27.48878 C388.501568,28.076444 388.322176,28.825566 387.80576,29.160912 L382.17392,33.017204 L387.80576,36.85968 C387.827328,36.873518 387.848288,36.887818 387.868992,36.90258 C388.36976,37.268374 388.515488,38.026252 388.1944,38.596404 C387.873376,39.16561 387.207136,39.332612 386.706272,38.966818 L379.526336,34.063854 C379.372224,33.959618 379.243488,33.813384 379.151744,33.637626 C378.84752,33.055968 379.015168,32.303612 379.526336,31.957662 L386.706272,27.054236 C386.849024,26.953674 387.0104,26.8928 387.177472,26.875728 Z M398.676704,26.875728 C398.893472,26.863276 399.108608,26.925074 399.293728,27.054236 L406.47376,31.957662 C406.627872,32.061436 406.756512,32.208132 406.848256,32.383868 C407.152576,32.965086 406.984928,33.717442 406.47376,34.063854 L399.293728,38.966818 C399.273024,38.98158 399.252064,38.995858 399.2304,39.009718 C398.708928,39.3349 398.05424,39.11765 397.768032,38.524904 C397.48192,37.931234 397.672768,37.185808 398.194336,36.85968 L403.826048,33.017204 L398.194336,29.160912 C397.878752,28.953804 397.676864,28.578308 397.657696,28.164554 C397.6264,27.488318 398.082656,26.911236 398.676704,26.875728 Z" id="Combined-shape-863" fill="#46CD90"></path>
                <polygon id="Polygon" fill="#FEE6AF" points="213.333148 89.000039 205.999965 93.000266 205.999965 85.000285"></polygon>
                <polygon id="Polygon" fill="#FFDB8A" points="230.333148 89.000039 222.999965 93.000266 222.999965 85.000285"></polygon>
                <polygon id="Polygon" fill="#FECE60" points="246.333236 89.000039 238.999954 93.000266 238.999954 85.000285"></polygon>
                <polygon id="Polygon" fill="#A2E6C7" points="263.333148 89.000039 255.999965 93.000266 255.999965 85.000285"></polygon>
                <polygon id="Polygon" fill="#46CD90" points="280.333148 89.000039 272.999965 93.000266 272.999965 85.000285"></polygon>
            </g>
        </g>
    </g>
</svg>