<?xml version="1.0" encoding="utf-8"?>
<!-- Generator: Adobe Illustrator 21.1.0, SVG Export Plug-In . SVG Version: 6.00 Build 0)  -->
<svg version="1.1" id="Layer_1" xmlns="http://www.w3.org/2000/svg" xmlns:xlink="http://www.w3.org/1999/xlink" x="0px" y="0px"
	 viewBox="0 0 100 125" style="enable-background:new 0 0 100 125;" xml:space="preserve">
<style type="text/css">
	.st0{fill:#46CD90;}
</style>
<title>Home 11.7</title>
<desc>Created with Sketch.</desc>
<g>
	<g>
		<path class="st0" d="M56,71c0,1.1,0.9,2,2,2h8c1.1,0,2-0.9,2-2V52.3c0-0.6,0.3-0.7,0.7-0.3l-0.2-0.2c0.8,0.8,2.1,0.7,2.8-0.1
			l1.4-1.4c0.8-0.8,0.7-2.1-0.1-2.8L51.5,27.2c-0.8-0.8-2.1-0.8-2.9,0L27.4,47.4c-0.8,0.8-0.8,2-0.1,2.8l1.4,1.4
			c0.8,0.8,2,0.8,2.8,0.1L31.3,52c0.4-0.4,0.7-0.2,0.7,0.3V71c0,1.1,0.9,2,2,2h8c1.1,0,2-0.9,2-2V54c0-1.1,0.9-2,2-2h8
			c1.1,0,2,0.9,2,2V71z"/>
	</g>
</g>
</svg>
