<?xml version="1.0" encoding="UTF-8"?>
<svg width="60px" height="60px" viewBox="0 0 60 60" version="1.1" xmlns="http://www.w3.org/2000/svg" xmlns:xlink="http://www.w3.org/1999/xlink">
    <!-- Generator: Sketch 48.1 (47250) - http://www.bohemiancoding.com/sketch -->
    <title>Group 5</title>
    <desc>Created with Sketch.</desc>
    <defs></defs>
    <g id="grakn" stroke="none" stroke-width="1" fill="none" fill-rule="evenodd" transform="translate(-1090.000000, -2857.000000)">
        <g id="Group-5" transform="translate(1090.000000, 2857.000000)">
            <path d="M7.98082069,-1.76747506e-13 L52.0184643,-1.76747506e-13 C56.4263042,-1.76747506e-13 60,4.0298391 60,9.00067599 L60,51.000494 C60,55.9707459 56.4263042,60 52.0184643,60 L7.98082069,60 C3.57291583,60 5.46229728e-14,55.9707459 5.46229728e-14,51.000494 L5.46229728e-14,9.00067599 C5.46229728e-14,4.0298391 3.57291583,-1.76747506e-13 7.98082069,-1.76747506e-13 Z" id="Rectangle" fill="#796DE3"></path>
            <path d="M17.5,20.9153112 L17.5,29.3725286 C17.5005486,30.1604575 17.9376578,30.8838968 18.6367818,31.2539638 C19.3399836,31.6312443 20.1936554,31.5986844 20.8657656,31.168948 C21.3375674,30.8731477 21.9077328,30.7748325 22.4520592,30.8954191 L22.4966388,30.8954191 C23.4385352,31.0668475 24.190961,31.7735046 24.4172799,32.6992312 C24.5748923,33.4013372 24.3980513,34.1365242 23.9380484,34.6915565 C23.488812,35.2579064 22.8056615,35.5909709 22.0805618,35.5971589 C21.6420271,35.5875693 21.2123958,35.4721381 20.8286159,35.2607923 C20.2194039,34.8715218 19.4498205,34.8280467 18.8002406,35.1462059 C18.0511347,35.4989947 17.5747314,36.2510767 17.5780144,37.0756934 L17.5780144,44.7714655 C17.5780144,45.5880376 18.2433145,46.25 19.0640037,46.25 L42.2640108,46.25 C43.0847,46.25 43.75,45.5880376 43.75,44.7714655 L43.75,20.9153112 C43.75,20.0987392 43.0847,19.4367767 42.2640108,19.4367767 L35.7962426,19.4367767 C36.0646111,18.5996162 36.1030901,17.7062779 35.9076918,16.8493413 C35.4043159,14.1401544 32.9038663,12.2627265 30.1473885,12.5242975 C27.3909107,12.7858686 25.2922063,15.099725 25.3125885,17.8547448 C25.3121861,18.3981086 25.3974277,18.938174 25.5652066,19.4552584 L18.9859892,19.4552584 C18.1724996,19.4551952 17.5101686,20.1059658 17.5,20.9153112 Z M20.4719785,22.3938457 L26.7205633,22.3938457 C27.5400425,22.3987827 28.2961568,21.9559069 28.689499,21.2405888 C29.0461645,20.5729481 29.0264433,19.7684379 28.6374894,19.1188918 C28.4093866,18.7283131 28.281775,18.2877222 28.2659921,17.8362631 C28.2601901,17.1090163 28.5903866,16.4194051 29.1616469,15.9656993 C29.7329073,15.5119936 30.48194,15.3444605 31.1933909,15.5112676 C32.1173793,15.7460946 32.8168874,16.4985258 32.980293,17.4333625 L32.980293,17.4777185 C33.1014145,18.0209717 33.0012263,18.5898443 32.70167,19.0597504 C32.2697669,19.7284889 32.2370428,20.5778781 32.6162256,21.2775522 C32.9881585,21.9731689 33.7152453,22.4080852 34.5071469,22.4086311 L40.7780215,22.4086311 L40.7780215,43.292931 L20.546278,43.292931 L20.546278,38.325055 C21.042315,38.4757242 21.5582121,38.5517239 22.0768469,38.5505316 C24.8457574,38.5708115 27.1712803,36.4826356 27.4341702,33.7399862 C27.6970601,30.9973368 25.8101662,28.5094311 23.0873196,28.0085805 C22.2260952,27.813801 21.3281561,27.8520911 20.4868384,28.1194706 L20.4719785,22.3938457 Z" id="Shape" fill="#FFFFFF" fill-rule="nonzero"></path>
        </g>
    </g>
</svg>