<?xml version="1.0" encoding="UTF-8"?>
<svg width="60px" height="60px" viewBox="0 0 60 60" version="1.1" xmlns="http://www.w3.org/2000/svg" xmlns:xlink="http://www.w3.org/1999/xlink">
    <!-- Generator: Sketch 48.1 (47250) - http://www.bohemiancoding.com/sketch -->
    <title>Group 5</title>
    <desc>Created with Sketch.</desc>
    <defs></defs>
    <g id="careers-copy" stroke="none" stroke-width="1" fill="none" fill-rule="evenodd" transform="translate(-770.000000, -1984.000000)">
        <g id="Group-5" transform="translate(770.000000, 1984.000000)">
            <path d="M7.98082069,6.32827124e-14 L52.0184643,6.32827124e-14 C56.4263042,6.32827124e-14 60,4.02983505 60,9.00017531 L60,51.0003984 C60,55.9712487 56.4263042,60 52.0184643,60 L7.98082069,60 C3.57291583,60 5.46229728e-14,55.9712487 5.46229728e-14,51.0003984 L5.46229728e-14,9.00017531 C5.46229728e-14,4.02983505 3.57291583,6.32827124e-14 7.98082069,6.32827124e-14 Z" id="Rectangle" fill="#3DCE8C"></path>
            <g id="Group" transform="translate(14.000000, 13.000000)" fill="#FFFFFF" fill-rule="nonzero">
                <path d="M16.1904762,3.4 C18.497619,3.4 20.4809524,4.6952381 21.4928571,6.63809524 L22.2214286,6.23333333 L22.2214286,10.847619 C22.2214286,11.9404762 23.1119048,12.7904762 24.1642857,12.7904762 L24.3261905,12.7904762 L24.3261905,11.7380952 L24.2857143,11.7380952 C23.7595238,11.7380952 23.3142857,11.2928571 23.3142857,10.7666667 L23.3142857,5.62619048 L25.0547619,4.6952381 L16.1904762,0.202380952 L7.32619048,4.89761905 L10.847619,6.71904762 C11.8595238,4.73571429 13.8428571,3.4 16.1904762,3.4 Z" id="Shape"></path>
                <path d="M16.1904762,4.41190476 C13.4380952,4.41190476 11.1714286,6.67857143 11.1714286,9.47142857 C11.1714286,12.2642857 13.397619,14.5309524 16.1904762,14.5309524 C18.9428571,14.5309524 21.2095238,12.2642857 21.2095238,9.47142857 C21.2095238,6.67857143 18.9428571,4.41190476 16.1904762,4.41190476 Z" id="Shape"></path>
                <path d="M31.6928571,27.9690476 L24.3261905,17.7285714 C24.3261905,17.7285714 23.3547619,15.8666667 21.0880952,15.7857143 L11.3333333,15.7857143 C9.02619048,15.8666667 8.0952381,17.7285714 8.0952381,17.7285714 L0.688095238,27.9690476 C0.364285714,28.4142857 0.202380952,28.9809524 0.202380952,29.5880952 C0.202380952,31.1666667 1.49761905,32.4619048 3.07619048,32.4619048 L7.08333333,32.4619048 L7.08333333,33.1904762 C7.08333333,33.5952381 7.40714286,33.9190476 7.81190476,33.9190476 L24.6904762,33.9190476 C25.0952381,33.9190476 25.4190476,33.5952381 25.4190476,33.1904762 L25.4190476,32.4619048 L29.4261905,32.4619048 C31.0047619,32.4619048 32.3,31.1666667 32.3,29.5880952 C32.1785714,28.9809524 32.0166667,28.4142857 31.6928571,27.9690476 Z M25.3380952,32.3809524 L7.04285714,32.3809524 L7.04285714,21.3714286 C7.04285714,20.8857143 7.44761905,20.5214286 7.89285714,20.5214286 L16.1904762,20.5214286 L24.4880952,20.5214286 C24.9738095,20.5214286 25.3380952,20.9261905 25.3380952,21.3714286 L25.3380952,32.3809524 Z" id="Shape"></path>
                <path d="M16.1904762,24.6904762 C15.1380952,24.6904762 14.247619,25.5404762 14.247619,26.6333333 C14.247619,27.7261905 15.097619,28.5761905 16.1904762,28.5761905 C17.2428571,28.5761905 18.1333333,27.6857143 18.1333333,26.6333333 C18.1333333,25.5809524 17.2428571,24.6904762 16.1904762,24.6904762 Z" id="Shape"></path>
            </g>
        </g>
    </g>
</svg>