<?xml version="1.0" encoding="UTF-8"?>
<svg width="43px" height="41px" viewBox="0 0 43 41" version="1.1" xmlns="http://www.w3.org/2000/svg" xmlns:xlink="http://www.w3.org/1999/xlink">
    <!-- Generator: Sketch 48.1 (47250) - http://www.bohemiancoding.com/sketch -->
    <title>Group</title>
    <desc>Created with Sketch.</desc>
    <defs></defs>
    <g id="KBMS-Copy" stroke="none" stroke-width="1" fill="none" fill-rule="evenodd" transform="translate(-908.000000, -1945.000000)">
        <g id="Group" transform="translate(908.000000, 1945.000000)" fill="#8F85E8" fill-rule="nonzero">
            <path d="M41.82,19.68 L39.36,19.68 L39.36,15.58 C39.36,15.27742 39.19354,14.99944 38.92704,14.85676 C38.66136,14.71408 38.33582,14.73048 38.08572,14.89776 L30.70572,19.81776 C30.47694,19.97028 30.34,20.22612 30.34,20.5 C30.34,20.77388 30.47694,21.02972 30.7049,21.18224 L38.0849,26.10224 C38.22184,26.19326 38.38092,26.24 38.54,26.24 C38.67284,26.24 38.80568,26.20802 38.92704,26.14324 C39.19354,26.00056 39.36,25.72258 39.36,25.42 L39.36,21.32 L41.82,21.32 C42.27346,21.32 42.64,20.95264 42.64,20.5 C42.64,20.04736 42.27346,19.68 41.82,19.68 Z" id="Shape" transform="translate(36.490000, 20.500015) scale(-1, 1) translate(-36.490000, -20.500015) "></path>
            <path d="M21.32,0 C20.86736,0 20.5,0.36736 20.5,0.82 L20.5,40.18 C20.5,40.63346 20.86736,41 21.32,41 C21.77264,41 22.14,40.63346 22.14,40.18 L22.14,0.82 C22.14,0.36736 21.77264,0 21.32,0 Z" id="Shape"></path>
            <path d="M12.30082,20.5 C12.30082,20.22612 12.16388,19.97028 11.93592,19.81776 L4.55592,14.89776 C4.30336,14.72966 3.97946,14.71408 3.7146,14.85676 C3.4481,14.99944 3.28164,15.27742 3.28164,15.58 L3.28164,19.68 L0.82164,19.68 C0.369,19.68 0.00164,20.04736 0.00164,20.5 C0.00164,20.95264 0.369,21.32 0.82164,21.32 L3.28164,21.32 L3.28164,25.42 C3.28164,25.72258 3.4481,26.00056 3.7146,26.14324 C3.83514,26.20802 3.96798,26.24 4.10082,26.24 C4.2599,26.24 4.41816,26.19326 4.55592,26.10224 L11.93592,21.18224 C12.16388,21.02972 12.30082,20.77388 12.30082,20.5 Z" id="Shape" transform="translate(6.151230, 20.499876) scale(-1, 1) translate(-6.151230, -20.499876) "></path>
            <path d="M27.06,20.5 C27.06,12.56568 31.8652,1.25624 31.91358,1.14308 C32.09234,0.72652 31.89882,0.24436 31.48308,0.06642 C31.06898,-0.11152 30.58518,0.08036 30.40724,0.49692 C30.20306,0.97252 25.42,12.22702 25.42,20.5 C25.42,28.77298 30.20306,40.02748 30.40642,40.50308 C30.53926,40.81386 30.84184,41 31.16,41 C31.26824,41 31.37812,40.9795 31.48308,40.93358 C31.89964,40.75482 32.09234,40.27348 31.91358,39.85774 C31.8652,39.74376 27.06,28.43432 27.06,20.5 Z" id="Shape"></path>
            <path d="M11.15692,0.06642 C10.74118,0.24436 10.54766,0.72652 10.72642,1.14308 C10.7748,1.25624 15.58,12.56568 15.58,20.5 C15.58,28.43432 10.7748,39.74376 10.72642,39.85692 C10.54766,40.27348 10.74118,40.75482 11.15692,40.93276 C11.2627,40.9795 11.37176,41 11.48,41 C11.79816,41 12.10074,40.81386 12.23358,40.50308 C12.43694,40.02748 17.22,28.77298 17.22,20.5 C17.22,12.22702 12.43694,0.97252 12.23358,0.49692 C12.05646,0.08118 11.57348,-0.11234 11.15692,0.06642 Z" id="Shape"></path>
        </g>
    </g>
</svg>