<?xml version="1.0" encoding="UTF-8"?>
<svg width="82px" height="96px" viewBox="0 0 82 96" version="1.1" xmlns="http://www.w3.org/2000/svg" xmlns:xlink="http://www.w3.org/1999/xlink">
    <!-- Generator: Sketch 48.1 (47250) - http://www.bohemiancoding.com/sketch -->
    <title>Group</title>
    <desc>Created with Sketch.</desc>
    <defs>
        <linearGradient x1="50%" y1="20.0132979%" x2="50%" y2="100%" id="linearGradient-1">
            <stop stop-color="#7FDAFF" offset="0%"></stop>
            <stop stop-color="#06B4FD" offset="100%"></stop>
        </linearGradient>
    </defs>
    <g id="KBMS-Copy" stroke="none" stroke-width="1" fill="none" fill-rule="evenodd" transform="translate(-1179.000000, -1276.000000)">
        <g id="Group" transform="translate(1179.000000, 1276.000000)">
            <path d="M34.2577778,67.8060831 C30.1394197,59.1000165 2.30047315,58.2434972 2.30047315,42.6666667 L2.30047315,29.2860775 C0.87330002,27.7616807 0,25.7157883 0,23.4666667 C0,18.7538368 3.83443239,14.9333333 8.56444444,14.9333333 C13.2944565,14.9333333 17.1288889,18.7538368 17.1288889,23.4666667 C17.1288889,25.5431404 16.3845162,27.4463882 15.1471398,28.9259539 L15.1471398,36.2666667 C15.1471398,44.960419 25.3745561,47.3353949 34.2577778,50.4930921 L34.2577778,14.1777587 C32.9252286,12.6734746 32.1166667,10.6974858 32.1166667,8.53333333 C32.1166667,3.82050347 35.9510991,0 40.6811111,0 C45.4111232,0 49.2455556,3.82050347 49.2455556,8.53333333 C49.2455556,10.6974858 48.4369936,12.6734746 47.1044444,14.1777587 L47.1044444,62.2264254 C55.9876661,59.0687282 66.2150824,56.6937523 66.2150824,48 L66.2150824,26.7926206 C64.977706,25.3130548 64.2333333,23.409807 64.2333333,21.3333333 C64.2333333,16.6205035 68.0677657,12.8 72.7977778,12.8 C77.5277898,12.8 81.3622222,16.6205035 81.3622222,21.3333333 C81.3622222,23.5824549 80.4889222,25.6283474 79.0617491,27.1527442 L79.0617491,54.4 C79.0617491,69.9768305 51.2228025,70.8333499 47.1044423,79.5394209 L47.1044444,81.8222413 C48.4369936,83.3265254 49.2455556,85.3025142 49.2455556,87.4666667 C49.2455556,92.1794965 45.4111232,96 40.6811111,96 C35.9510991,96 32.1166667,92.1794965 32.1166667,87.4666667 C32.1166667,85.3025142 32.9252286,83.3265254 34.2577778,81.8222413 L34.2577778,67.8060831 Z" id="Path" fill="url(#linearGradient-1)"></path>
            <path d="M8.56444444,28.8 C11.5207019,28.8 13.9172222,26.4121853 13.9172222,23.4666667 C13.9172222,20.5211481 11.5207019,18.1333333 8.56444444,18.1333333 C5.60818696,18.1333333 3.21166667,20.5211481 3.21166667,23.4666667 C3.21166667,26.4121853 5.60818696,28.8 8.56444444,28.8 Z" id="Path" fill="#FFFFFF"></path>
            <path d="M40.6811111,13.8666667 C43.6373686,13.8666667 46.0338889,11.4788519 46.0338889,8.53333333 C46.0338889,5.58781472 43.6373686,3.2 40.6811111,3.2 C37.7248536,3.2 35.3283333,5.58781472 35.3283333,8.53333333 C35.3283333,11.4788519 37.7248536,13.8666667 40.6811111,13.8666667 Z" id="Path" fill="#FFFFFF"></path>
            <path d="M72.7977778,26.6666667 C69.8415203,26.6666667 67.445,24.2788519 67.445,21.3333333 C67.445,18.3878147 69.8415203,16 72.7977778,16 C75.7540353,16 78.1505556,18.3878147 78.1505556,21.3333333 C78.1505556,24.2788519 75.7540353,26.6666667 72.7977778,26.6666667 Z" id="Path" fill="#FFFFFF"></path>
            <path d="M40.6811111,92.8 C43.6373686,92.8 46.0338889,90.4121853 46.0338889,87.4666667 C46.0338889,84.5211481 43.6373686,82.1333333 40.6811111,82.1333333 C37.7248536,82.1333333 35.3283333,84.5211481 35.3283333,87.4666667 C35.3283333,90.4121853 37.7248536,92.8 40.6811111,92.8 Z" id="Path" fill="#FFFFFF"></path>
        </g>
    </g>
</svg>