<?xml version="1.0" encoding="UTF-8"?>
<svg width="40px" height="44px" viewBox="0 0 40 44" version="1.1" xmlns="http://www.w3.org/2000/svg" xmlns:xlink="http://www.w3.org/1999/xlink">
    <!-- Generator: Sketch 48.1 (47250) - http://www.bohemiancoding.com/sketch -->
    <title>Group</title>
    <desc>Created with Sketch.</desc>
    <defs></defs>
    <g id="KBMS-Copy" stroke="none" stroke-width="1" fill="none" fill-rule="evenodd" transform="translate(-910.000000, -2383.000000)">
        <g id="Group" transform="translate(910.000000, 2383.000000)" fill="#5CD29C" fill-rule="nonzero">
            <path d="M0.562837943,0.569171429 C0.226297231,0.679429175 0.0050936701,1.00117981 0.0226593714,1.35488571 L0.0226593714,37.4977429 C0.0227027396,37.9316629 0.374453604,38.2834138 0.808373657,38.2834571 L31.8931951,38.2834571 L36.6074808,42.9977429 C37.0851579,43.4954859 37.7957554,43.6940274 38.4622553,43.5159684 C39.1287552,43.3379095 39.6456576,42.8114349 39.8114542,42.1417844 C39.9772508,41.4721339 39.7656978,40.7653064 39.2592665,40.29685 L37.2458737,38.23435 C37.5454626,38.1131571 37.7403012,37.8208992 37.7369451,37.4977429 L37.7369451,9.99774286 L37.7369451,1.35488571 C37.7369017,0.920965662 37.3851509,0.569214797 36.9512308,0.569171429 L0.808373657,0.569171429 C0.727034053,0.556305391 0.644177547,0.556305391 0.562837943,0.569171429 Z M1.59408794,2.1406 L36.1655165,2.1406 L36.1655165,6.85488571 L1.59408794,6.85488571 L1.59408794,2.1406 Z M1.59408794,8.42631429 L36.1655165,8.42631429 L36.1655165,9.99774286 L36.1655165,36.7120286 L35.6744451,36.7120286 L31.8440879,32.8816714 C31.3486389,32.3711992 30.6088638,32.1815132 29.9289094,32.3906 L27.6208737,30.1316714 C30.7531237,26.4147903 30.5889392,20.9210634 27.1298022,17.4620286 C23.4748794,13.8070429 17.5215819,13.8115214 13.8217665,17.5111357 C10.1219621,21.2109071 10.0686262,27.2132929 13.7235522,30.8682786 C13.8505991,30.9953207 13.9839395,31.0940394 14.1164094,31.2120286 L11.0226594,31.2120286 C10.9413198,31.1991625 10.8584633,31.1991625 10.7771237,31.2120286 C10.4405829,31.3222863 10.2193794,31.644037 10.2369451,31.9977429 L10.2369451,35.1406 C10.2369885,35.5745201 10.5887393,35.9262709 11.0226594,35.9263143 L14.1655165,35.9263143 C14.5994366,35.9262709 14.9511874,35.5745201 14.9512308,35.1406 L14.9512308,31.9977429 C14.937172,31.9638997 14.9207629,31.9310815 14.9021237,31.8995286 C15.4132874,32.2610593 15.9624608,32.5386914 16.5226594,32.7834571 L16.5226594,35.1406 C16.5227027,35.5745201 16.8744536,35.9262709 17.3083737,35.9263143 L20.4512308,35.9263143 C20.8851509,35.9262709 21.2369017,35.5745201 21.2369451,35.1406 L21.2369451,33.5200643 C21.7726828,33.4652026 22.2851744,33.3218129 22.8083737,33.1763143 L22.8083737,35.1406 C22.808417,35.5745201 23.1601679,35.9262709 23.5940879,35.9263143 L26.7369451,35.9263143 C27.1708651,35.9262709 27.522616,35.5745201 27.5226594,35.1406 L27.5226594,32.3414929 L28.7012308,33.5200643 C28.4382894,34.219604 28.6114314,35.008362 29.1431951,35.5334571 L30.3217665,36.7120286 L1.59408794,36.7120286 L1.59408794,8.42631429 Z M20.5003379,16.2834571 C22.5090762,16.2741669 24.5271331,17.0199857 26.0494451,18.5423857 C28.4144734,20.9072993 28.8727444,24.4313127 27.5226594,27.3325643 L27.5226594,24.1406 C27.522616,23.7066799 27.1708651,23.3549291 26.7369451,23.3548857 L23.5940879,23.3548857 C23.5127483,23.3420197 23.4298918,23.3420197 23.3485522,23.3548857 C23.0120115,23.4651435 22.790808,23.7868941 22.8083737,24.1406 L22.8083737,31.5557786 C22.2885341,31.7335967 21.7746204,31.8323484 21.2369451,31.8995286 L21.2369451,20.9977429 C21.2369017,20.5638228 20.8851509,20.2120719 20.4512308,20.2120286 L17.3083737,20.2120286 C17.2270341,20.1991625 17.1441775,20.1991625 17.0628379,20.2120286 C16.7262972,20.3222863 16.5050937,20.644037 16.5226594,20.9977429 L16.5226594,31.0156 C15.9143908,30.6781467 15.3204097,30.3045301 14.8039094,29.7879214 C11.7592854,26.7432786 11.8423291,21.7495143 14.9512308,18.6406 C16.5056879,17.0862214 18.4915997,16.2927474 20.5003379,16.2834571 Z M18.0940879,21.7834571 L19.6655165,21.7834571 L19.6655165,31.9486357 C19.1312167,31.9077487 18.6104484,31.8050166 18.0940879,31.6539929 L18.0940879,21.7834571 Z M24.3798022,24.9263143 L25.9512308,24.9263143 L25.9512308,29.6406 C25.4805817,30.1112507 24.9221604,30.487897 24.3798022,30.8191714 L24.3798022,24.9263143 Z M4.49140937,26.4977429 C4.15486866,26.6080006 3.9336651,26.9297512 3.9512308,27.2834571 L3.9512308,35.1406 C3.95127417,35.5745201 4.30302503,35.9262709 4.73694509,35.9263143 L7.87980223,35.9263143 C8.31372228,35.9262709 8.66547315,35.5745201 8.66551651,35.1406 L8.66551651,27.2834571 C8.66547315,26.8495371 8.31372228,26.4977862 7.87980223,26.4977429 L4.73694509,26.4977429 C4.65560548,26.4848768 4.57274898,26.4848768 4.49140937,26.4977429 Z M5.52265937,28.0691714 L7.09408794,28.0691714 L7.09408794,34.3548857 L5.52265937,34.3548857 L5.52265937,28.0691714 Z M25.9512308,31.7031 L25.9512308,34.3548857 L24.3798022,34.3548857 L24.3798022,32.6361357 C24.9281114,32.37553 25.4498508,32.0727267 25.9512308,31.7031 Z M11.8083737,32.7834571 L13.3798022,32.7834571 L13.3798022,34.3548857 L11.8083737,34.3548857 L11.8083737,32.7834571 Z M18.0940879,33.3236357 C18.6157834,33.4477361 19.1314791,33.4867846 19.6655165,33.5200643 L19.6655165,34.3548857 L18.0940879,34.3548857 L18.0940879,33.3236357 Z" id="Shape"></path>
        </g>
    </g>
</svg>