<?xml version="1.0" encoding="UTF-8"?>
<svg width="62px" height="942px" viewBox="0 0 62 942" version="1.1" xmlns="http://www.w3.org/2000/svg" xmlns:xlink="http://www.w3.org/1999/xlink">
    <!-- Generator: Sketch 48.1 (47250) - http://www.bohemiancoding.com/sketch -->
    <title>Group 5</title>
    <desc>Created with Sketch.</desc>
    <defs>
        <linearGradient x1="50%" y1="0%" x2="50%" y2="100%" id="linearGradient-1">
            <stop stop-color="#8F85E8" offset="0%"></stop>
            <stop stop-color="#FA7677" offset="100%"></stop>
        </linearGradient>
        <linearGradient x1="50%" y1="0%" x2="50%" y2="100%" id="linearGradient-2">
            <stop stop-color="#FA7677" offset="0%"></stop>
            <stop stop-color="#93ECC3" offset="100%"></stop>
        </linearGradient>
        <linearGradient x1="50%" y1="0%" x2="50%" y2="100%" id="linearGradient-3">
            <stop stop-color="#93ECC3" offset="0%"></stop>
            <stop stop-color="#FCCB94" offset="100%"></stop>
        </linearGradient>
        <linearGradient x1="50%" y1="0%" x2="50%" y2="100%" id="linearGradient-4">
            <stop stop-color="#FCCB94" offset="0%"></stop>
            <stop stop-color="#93DCFF" offset="100%"></stop>
        </linearGradient>
    </defs>
    <g id="KBMS-Copy" stroke="none" stroke-width="1" fill="none" fill-rule="evenodd" transform="translate(-769.000000, -1934.000000)">
        <g id="Group-5" transform="translate(770.000000, 1935.000000)">
            <circle id="Oval" stroke="#D2CDF8" fill="#EAE8FF" cx="30" cy="30" r="30"></circle>
            <circle id="Oval-4" fill="#8F85E8" cx="30" cy="30" r="4"></circle>
            <circle id="Oval" stroke="#FFD5D6" fill="#FFECEC" cx="30" cy="250" r="30"></circle>
            <circle id="Oval-4" fill="#FA7677" cx="30" cy="250" r="4"></circle>
            <circle id="Oval" stroke="#CBF4E1" fill="#E2F9EE" cx="30" cy="470" r="30"></circle>
            <circle id="Oval-4" fill="#93ECC3" cx="30" cy="470" r="4"></circle>
            <circle id="Oval" stroke="#FFE6CA" fill="#FFF1E1" cx="30" cy="690" r="30"></circle>
            <circle id="Oval-4" fill="#FCCB94" cx="30" cy="690" r="4"></circle>
            <circle id="Oval" stroke="#C9EEFF" fill="#E4F6FF" cx="30" cy="910" r="30"></circle>
            <circle id="Oval-4" fill="#93DCFF" cx="30" cy="910" r="4"></circle>
            <rect id="Rectangle-5" fill="url(#linearGradient-1)" x="29" y="72" width="2" height="136" rx="1"></rect>
            <rect id="Rectangle-5" fill="url(#linearGradient-2)" x="29" y="292" width="2" height="136" rx="1"></rect>
            <rect id="Rectangle-5" fill="url(#linearGradient-3)" x="29" y="512" width="2" height="136" rx="1"></rect>
            <rect id="Rectangle-5" fill="url(#linearGradient-4)" x="29" y="732" width="2" height="136" rx="1"></rect>
        </g>
    </g>
</svg>