<?xml version="1.0" encoding="UTF-8"?>
<svg width="45px" height="42px" viewBox="0 0 45 42" version="1.1" xmlns="http://www.w3.org/2000/svg" xmlns:xlink="http://www.w3.org/1999/xlink">
    <!-- Generator: Sketch 48.1 (47250) - http://www.bohemiancoding.com/sketch -->
    <title>Group</title>
    <desc>Created with Sketch.</desc>
    <defs></defs>
    <g id="KBMS-Copy" stroke="none" stroke-width="1" fill="none" fill-rule="evenodd" transform="translate(-908.000000, -2604.000000)">
        <g id="Group" transform="translate(908.000000, 2604.000000)" fill="#FCCB94">
            <path d="M17.2411614,0.319994458 C17.149401,0.319155985 17.0579527,0.330800023 16.9693303,0.354606506 L14.7124629,0.961835422 C14.173144,1.10693709 13.8532808,1.66146089 13.9977038,2.20096193 L14.7259029,4.91957639 C11.7040231,6.12940916 8.98462937,8.15748795 6.93186672,10.8998299 L4.49567949,9.49308289 C4.01201333,9.21388162 3.39360384,9.37918695 3.11375805,9.86248048 L1.94484254,11.8815166 C1.81027947,12.1139786 1.77363477,12.3903946 1.84297882,12.6498887 C1.91232287,12.9093828 2.08196835,13.1306723 2.31455371,13.2650219 L4.75105973,14.6720827 C3.40468648,17.8193147 3.01059492,21.1894048 3.47145636,24.4108554 L0.752204465,25.1393783 C0.492770971,25.2089123 0.271613308,25.3787123 0.13743454,25.6113854 C0.00325577253,25.8440585 -0.0329400904,26.1205231 0.036817959,26.3798964 L0.644046875,28.6367639 C0.789213672,29.1760996 1.34382445,29.4959044 1.88333025,29.3513711 L4.60162576,28.6232024 C5.81120552,31.6453807 7.83844431,34.3677904 10.5777703,36.4179976 L9.17466166,38.8545036 C8.8961996,39.3381274 9.06172659,39.9558912 9.54469178,40.235494 L11.5637279,41.4044096 C11.7961882,41.5389719 12.0726021,41.5756172 12.3320948,41.5062752 C12.5915875,41.4369331 12.8128769,41.2672907 12.9472282,41.0347084 L14.354132,38.5983542 C17.228526,39.8245012 20.2256409,40.2072072 23.1858364,39.916547 C23.5487741,39.8850034 23.8667594,39.6608475 24.0184433,39.3296212 C24.1701271,38.998395 24.1321046,38.6112067 23.9188859,38.3158143 C23.7056672,38.020422 23.350152,37.8624049 22.9880113,37.9020651 C20.06176,38.1894361 17.1701511,37.7533952 14.3837041,36.3863711 C13.905683,36.151967 13.3277863,36.3279585 13.0615593,36.7890145 L11.700987,39.1451639 L11.4326373,38.9897133 L12.7909932,36.6311855 C13.0565429,36.1699366 12.9195041,35.5818248 12.4774202,35.2854651 C9.44263684,33.251147 7.2971554,30.3341711 6.1872219,27.080588 C6.01522008,26.5764525 5.48191261,26.2919044 4.96738504,26.4297398 L2.33605973,27.1346819 L2.25478214,26.8323325 L4.88405299,26.1279976 C5.39818962,25.9902141 5.71775778,25.4777551 5.61525781,24.9554386 C4.95296841,21.5820795 5.35206455,17.9847239 6.96270383,14.7014978 C7.1971445,14.2235256 7.02124357,13.645641 6.56025781,13.379348 L4.20408311,12.0187757 L4.35889106,11.7515342 L6.71696335,13.1132147 C7.17815316,13.3794432 7.76675647,13.2427806 8.06346311,12.8005829 C10.1035195,9.75957036 13.0153542,7.61468602 16.2686438,6.50485373 C16.772711,6.3328655 17.0572525,5.79966168 16.9195173,5.2851788 L16.214565,2.65369663 L16.5167576,2.57241398 L17.2210773,5.20168482 C17.3588607,5.71581913 17.8713165,6.03538665 18.3936313,5.93288964 C21.7670055,5.27060024 25.3638299,5.66988361 28.6466258,7.28508217 C29.1247559,7.52030004 29.7033727,7.34452887 29.9698788,6.88310675 L31.3314024,4.52535325 L31.5976976,4.67889614 L30.2404448,7.03570337 C29.9749401,7.49683609 30.1118268,8.08481026 30.5537041,8.38125687 C33.1301409,10.109992 34.9499352,12.3954904 36.1669383,15.0786427 C36.3128875,15.4133285 36.6277838,15.6434645 36.9909858,15.6808822 C37.3541878,15.7182999 37.7093901,15.5571985 37.9205093,15.2592985 C38.1316285,14.9613984 38.165936,14.5728816 38.0102879,14.2425947 C36.7800624,11.5302904 34.9525715,9.12499084 32.4535108,7.24886602 L33.8567764,4.81236 C34.1356031,4.32811619 33.9692606,3.70953187 33.4851674,3.43044361 L31.4661313,2.26658819 C30.982093,1.98762575 30.3635688,2.15359817 30.0842099,2.63740771 L28.6776197,5.07312434 C25.5300638,3.72286482 22.159665,3.32824193 18.9382397,3.78908819 L18.2098788,1.06999807 C18.0921264,0.630760781 17.695891,0.323977823 17.2411614,0.319974217 L17.2411614,0.319994458 Z" id="Shape"></path>
            <path d="M21.7504687,9.60695855 C21.2386,9.60291036 20.7208462,9.63114651 20.1995048,9.69345831 C20.1992518,9.69350892 20.1989988,9.69361012 20.1986952,9.69361012 C13.5225826,10.4872533 8.73424865,16.5696831 9.52744142,23.2457349 C9.52749202,23.2457349 9.52754263,23.2457349 9.52759323,23.2457349 C10.3261954,29.9264675 16.4091617,34.7103181 23.0849301,33.9171253 C23.4470358,33.8780388 23.7602205,33.6474182 23.9050228,33.3132317 C24.049825,32.9790452 24.0039141,32.5928293 23.7848024,32.3019026 C23.5656906,32.0109759 23.2071683,31.8602036 22.8459906,31.9070964 C17.2559424,32.571253 12.2066366,28.601241 11.5374602,23.0061325 C10.873334,17.4164386 14.8489325,12.3667786 20.4384241,11.7026827 C20.438694,11.7026322 20.4389639,11.7025816 20.4392337,11.7025308 C26.0286089,11.0338301 31.0783549,15.0091858 31.7471315,20.5992289 C31.7845965,20.9628585 32.0152262,21.2780312 32.350481,21.4237512 C32.6857359,21.5694711 33.0735153,21.5230926 33.3649495,21.3024204 C33.6563838,21.0817482 33.8061822,20.7210762 33.7568366,20.3588675 C33.0205462,14.2044354 27.7935703,9.65383663 21.7504737,9.6061641 L21.7504687,9.60695855 Z" id="Shape"></path>
            <path d="M35.1665894,23.6502 C34.6512947,23.7069381 34.2621715,24.1438483 34.265234,24.6622482 L34.265234,25.1682723 C33.2841038,25.3615229 32.3619356,25.7532361 31.5611677,26.2910386 L31.2132761,25.9273084 C31.0231605,25.7351548 30.7640821,25.6270311 30.4937731,25.6270311 C30.2234641,25.6270311 29.9643857,25.7351548 29.7742701,25.9273084 L29.1575532,26.5440506 C28.9654074,26.7341653 28.8572887,26.9932382 28.8572887,27.263541 C28.8572887,27.5338437 28.9654074,27.7929167 29.1575532,27.9830313 L29.521258,28.3467614 C28.9835265,29.1474434 28.5917525,30.0539349 28.3985171,31.0350145 L27.892493,31.0350145 C27.3335774,31.0350703 26.8805007,31.488147 26.8804448,32.0470627 L26.8804448,32.9167663 C26.8805007,33.4756819 27.3335774,33.9287586 27.892493,33.9288145 L28.3985171,33.9288145 C28.5917576,34.9083759 28.9833494,35.8156265 29.521258,36.6170675 L29.1575532,36.9807976 C28.9654074,37.1709123 28.8572887,37.4299852 28.8572887,37.700288 C28.8572887,37.9705907 28.9654074,38.2296636 29.1575532,38.4197783 L29.7742701,39.0365205 C29.9643857,39.2286741 30.2234641,39.3367978 30.4937731,39.3367978 C30.7640821,39.3367978 31.0231605,39.2286741 31.2132761,39.0365205 L31.5611677,38.6727904 C32.3613891,39.208012 33.2843923,39.5867205 34.265234,39.7797181 L34.265234,40.3015807 C34.2652898,40.8604964 34.7183665,41.313573 35.2772821,41.3136289 L36.1470111,41.3136289 C36.7059267,41.313573 37.1590034,40.8604964 37.1590593,40.3015807 L37.1590593,39.7797181 C38.1383424,39.5867205 39.0464077,39.2081639 39.8473123,38.6727904 L40.2110171,39.0365205 C40.6053296,39.4263521 41.2398974,39.4263521 41.6342099,39.0365205 L42.2509267,38.4197783 C42.4430725,38.2296636 42.5511913,37.9705907 42.5511913,37.700288 C42.5511913,37.4299852 42.4430725,37.1709123 42.2509267,36.9807976 L41.9030352,36.6170675 C42.4384238,35.8161325 42.81694,34.9081735 43.0099629,33.9288145 L43.515987,33.9288145 C44.0749026,33.9287586 44.5279793,33.4756819 44.5280352,32.9167663 L44.5280352,32.0470627 C44.5279793,31.488147 44.0749026,31.0350703 43.515987,31.0350145 L43.0099629,31.0350145 C42.81694,30.054188 42.4382164,29.1469373 41.9030352,28.3467614 L42.2509267,27.9830313 C42.4430725,27.7929167 42.5511913,27.5338437 42.5511913,27.263541 C42.5511913,26.9932382 42.4430725,26.7341653 42.2509267,26.5440506 L41.6342099,25.9273084 C41.2398974,25.5374768 40.6053296,25.5374768 40.2110171,25.9273084 L39.8473123,26.2910386 C39.0458612,25.7530843 38.1386359,25.3615229 37.1590593,25.1682723 L37.1590593,24.6622482 C37.1590034,24.1033326 36.7059267,23.6502559 36.1470111,23.6502 L35.2772821,23.6502 C35.2404122,23.6481809 35.2034593,23.6481809 35.1665894,23.6502 Z M35.70424,26.9709831 C35.8184875,27.0250409 35.9418493,27.0572222 36.0679448,27.0658627 C37.288647,27.1469783 38.413073,27.635747 39.2780352,28.3941759 C39.3709452,28.4762649 39.4781464,28.5405856 39.5943002,28.5839349 C39.6406125,28.706933 39.7104364,28.8197341 39.7998725,28.9160386 C40.5556853,29.7828578 41.0311961,30.8840675 41.1123725,32.1103157 C41.119018,32.241788 41.1512464,32.3707014 41.207252,32.4898337 C41.1531973,32.6040735 41.1210161,32.7274263 41.1123725,32.8535133 C41.0312771,34.0741952 40.5546074,35.1821855 39.7998725,36.0477904 C39.7104364,36.1440948 39.6406125,36.2568959 39.5943002,36.379894 C39.4781464,36.4232433 39.3709452,36.487564 39.2780352,36.569653 C38.4124354,37.324388 37.288647,37.801012 36.0679448,37.8821277 C35.9408047,37.8957289 35.817393,37.9332975 35.70424,37.9928458 C35.5910869,37.9332975 35.4676753,37.8957289 35.3405352,37.8821277 C34.114292,37.8009614 33.0130976,37.3254506 32.146258,36.569653 C32.0486309,36.4858704 31.9359262,36.4214678 31.8141797,36.379894 C31.7726088,36.2581385 31.7082061,36.1454251 31.6244207,36.0477904 C30.8659817,35.1828434 30.3772029,34.0741952 30.2961074,32.8535133 C30.2874639,32.7274263 30.2552826,32.6040735 30.2012279,32.4898337 C30.2572336,32.3707014 30.2894619,32.241788 30.2961074,32.1103157 C30.3772889,30.8840675 30.8648937,29.7822 31.6244207,28.9160386 C31.7082061,28.8184038 31.7726088,28.7056904 31.8141797,28.5839349 C31.9359262,28.5423611 32.0486309,28.4779585 32.146258,28.3941759 C33.0124549,27.6346337 34.114292,27.1470289 35.3405352,27.0658627 C35.4666307,27.0572222 35.5899924,27.0250409 35.70424,26.9709831 Z" id="Shape"></path>
            <path d="M35.7072458,28.6470867 C33.601047,28.6470867 31.8715831,30.3765253 31.8715831,32.4827494 C31.8715831,34.5889229 33.603238,36.3133518 35.7072458,36.3133518 C37.8112535,36.3133518 39.5378482,34.586747 39.5378482,32.4827494 C39.5378482,30.3787012 37.8134446,28.6470867 35.7072458,28.6470867 Z" id="Shape"></path>
        </g>
    </g>
</svg>