<?xml version="1.0" encoding="UTF-8"?>
<svg width="38px" height="38px" viewBox="0 0 38 38" version="1.1" xmlns="http://www.w3.org/2000/svg" xmlns:xlink="http://www.w3.org/1999/xlink">
    <!-- Generator: Sketch 48.1 (47250) - http://www.bohemiancoding.com/sketch -->
    <title>Group 2</title>
    <desc>Created with Sketch.</desc>
    <defs></defs>
    <g id="KBMS-Copy" stroke="none" stroke-width="1" fill="none" fill-rule="evenodd" transform="translate(-260.000000, -2166.000000)">
        <g id="Group-2" transform="translate(260.000000, 2166.000000)" fill="#FA7677">
            <polygon id="Shape" fill-rule="nonzero" points="0 12.6666667 1.58333333 12.6666667 1.58333333 1.58333333 12.6666667 1.58333333 12.6666667 0 0 0"></polygon>
            <polygon id="Shape" fill-rule="nonzero" points="38 0 25.3333333 0 25.3333333 1.58333333 36.4166667 1.58333333 36.4166667 12.6666667 38 12.6666667"></polygon>
            <polygon id="Shape" fill-rule="nonzero" points="38 25.3333333 36.4166667 25.3333333 36.4166667 36.4166667 25.3333333 36.4166667 25.3333333 38 38 38"></polygon>
            <polygon id="Shape" fill-rule="nonzero" points="0 38 12.6666667 38 12.6666667 36.4166667 1.58333333 36.4166667 1.58333333 25.3333333 0 25.3333333"></polygon>
            <g id="Group" transform="translate(10.717949, 9.743590)">
                <path d="M17.8834302,0.104960794 L7.18418143,0.104960794 L7.18418143,6.58785236 L11.1312261,6.58785236 C11.2502109,6.58786426 11.3466642,6.68431755 11.3466761,6.8033024 L11.3466761,10.8063705 L17.8834302,10.8063705 L17.8834302,0.104960794 Z" id="Shape"></path>
                <polygon id="Shape" points="10.915776 7.01875243 7.18418143 7.01875243 7.18418143 10.8063705 10.915776 10.8063705"></polygon>
                <path d="M6.75328136,7.01875243 L0.214372785,7.01875243 L0.214372785,17.7180077 L10.915776,17.7180077 L10.915776,11.2372706 L6.9687314,11.2372706 C6.84974656,11.2372587 6.75329326,11.1408054 6.75328136,11.0218206 L6.75328136,7.01875243 Z" id="Shape"></path>
            </g>
        </g>
    </g>
</svg>