<?xml version="1.0" encoding="UTF-8"?>
<svg width="86px" height="86px" viewBox="0 0 86 86" version="1.1" xmlns="http://www.w3.org/2000/svg" xmlns:xlink="http://www.w3.org/1999/xlink">
    <!-- Generator: Sketch 48.1 (47250) - http://www.bohemiancoding.com/sketch -->
    <title>Group 4</title>
    <desc>Created with Sketch.</desc>
    <defs>
        <linearGradient x1="16.1249911%" y1="86.4183834%" x2="100%" y2="0%" id="linearGradient-1">
            <stop stop-color="#7969E6" offset="0%"></stop>
            <stop stop-color="#C6BEFF" offset="100%"></stop>
        </linearGradient>
        <linearGradient x1="90.6924884%" y1="87.4116249%" x2="0%" y2="0%" id="linearGradient-2">
            <stop stop-color="#7969E6" offset="0%"></stop>
            <stop stop-color="#C6BEFF" offset="100%"></stop>
        </linearGradient>
        <linearGradient x1="14.4294746%" y1="14.2766035%" x2="100%" y2="100%" id="linearGradient-3">
            <stop stop-color="#7969E6" offset="0%"></stop>
            <stop stop-color="#C6BEFF" offset="100%"></stop>
        </linearGradient>
        <linearGradient x1="86.2382613%" y1="14.2751567%" x2="0%" y2="100%" id="linearGradient-4">
            <stop stop-color="#7969E6" offset="0%"></stop>
            <stop stop-color="#C6BEFF" offset="100%"></stop>
        </linearGradient>
    </defs>
    <g id="KBMS-Copy" stroke="none" stroke-width="1" fill="none" fill-rule="evenodd" transform="translate(-756.000000, -1281.000000)">
        <g id="Group-4" transform="translate(756.000000, 1281.000000)" fill-rule="nonzero">
            <path d="M61.6942588,32.2619535 L70.1905765,23.767907 L76.2642,29.8306977 C78.0942706,31.6572093 80.0348824,31.0831628 80.5691647,28.5506047 L85.8567176,3.71311628 C86.391,1.18669767 84.7697294,-0.428 82.2426353,0.130697674 L57.5643176,5.57953488 C55.0402941,6.14130233 54.4722353,8.08753488 56.3023059,9.91711628 L62.5693765,16.164093 L54.1805294,24.5506977 C57.2910353,26.4447442 59.8856824,29.0939535 61.6942588,32.2619535 Z" id="Shape" fill="url(#linearGradient-1)"></path>
            <path d="M9.89650588,29.7907907 L15.8902941,23.780186 L24.4203882,32.308 C26.2258941,29.1338605 28.8113294,26.4785116 31.9218353,24.5813953 L23.4992118,16.1579535 L29.8154118,9.83116279 C31.6454824,8.0015814 31.0651412,6.06455814 28.5380471,5.52734884 L3.69391765,0.241209302 C1.16375294,-0.286790698 -0.448305882,1.32790698 0.110541176,3.85125581 L5.56083529,28.519907 C6.11968235,31.0493953 8.06643529,31.6173023 9.89650588,29.7907907 Z" id="Shape" fill="url(#linearGradient-2)"></path>
            <path d="M85.9611176,82.2377674 L80.5138941,57.5691163 C79.9519765,55.0457674 78.0052235,54.4778605 76.1751529,56.3074419 L69.9265059,62.5728372 L61.3687765,54.0173953 C59.4680824,57.124 56.8150941,59.711814 53.6370353,61.5106977 L62.3175882,70.1889302 L56.2531765,76.2609302 C54.4261765,78.0905116 55.0003765,80.0306047 57.5336118,80.5647442 L82.3777412,85.8508837 C84.9048353,86.3850233 86.5199647,84.764186 85.9611176,82.2377674 Z" id="Shape" fill="url(#linearGradient-3)"></path>
            <path d="M24.7489412,53.9682791 L16.1390118,62.575907 L9.8136,56.2613953 C7.98352941,54.431814 6.04598824,55.012 5.50863529,57.5384186 L0.218011765,82.375907 C-0.310129412,84.9023256 1.305,86.5170233 3.82902353,85.9583256 L28.5042706,80.5094884 C31.0344353,79.9507907 31.6055647,78.0045581 29.7754941,76.1749767 L23.7632824,70.1827907 L32.4622588,61.4861395 C29.2934118,59.6780465 26.6404235,57.084093 24.7489412,53.9682791 Z" id="Shape" fill="url(#linearGradient-4)"></path>
            <ellipse id="Oval" fill="#7969E6" cx="43.0711412" cy="42.868" rx="9.27317647" ry="9.27069767"></ellipse>
        </g>
    </g>
</svg>