<?xml version="1.0" encoding="UTF-8"?>
<svg width="51px" height="50px" viewBox="0 0 51 50" version="1.1" xmlns="http://www.w3.org/2000/svg" xmlns:xlink="http://www.w3.org/1999/xlink">
    <!-- Generator: Sketch 48.2 (47327) - http://www.bohemiancoding.com/sketch -->
    <title>Group</title>
    <desc>Created with Sketch.</desc>
    <defs></defs>
    <g id="KBMS-Copy" stroke="none" stroke-width="1" fill="none" fill-rule="evenodd" transform="translate(-904.000000, -2600.000000)">
        <g id="Group" transform="translate(904.000000, 2600.000000)" fill="#FCCB94" fill-rule="nonzero">
            <path d="M15.8333333,18.3333333 C15.3730961,18.3333333 15,18.7064294 15,19.1666667 L15,22.5 C15,22.9602373 15.3730961,23.3333333 15.8333333,23.3333333 C16.2935706,23.3333333 16.6666667,22.9602373 16.6666667,22.5 L16.6666667,19.1666667 C16.6666667,18.7064294 16.2935706,18.3333333 15.8333333,18.3333333 Z" id="Shape"></path>
            <path d="M19.1666667,18.3333333 C18.7064294,18.3333333 18.3333333,18.7064294 18.3333333,19.1666667 L18.3333333,22.5 C18.3333333,22.9602373 18.7064294,23.3333333 19.1666667,23.3333333 C19.6269039,23.3333333 20,22.9602373 20,22.5 L20,19.1666667 C20,18.7064294 19.6269039,18.3333333 19.1666667,18.3333333 Z" id="Shape"></path>
            <path d="M22.5,18.3333333 C22.0397628,18.3333333 21.6666667,18.7064294 21.6666667,19.1666667 L21.6666667,22.5 C21.6666667,22.9602373 22.0397628,23.3333333 22.5,23.3333333 C22.9602372,23.3333333 23.3333333,22.9602373 23.3333333,22.5 L23.3333333,19.1666667 C23.3333333,18.7064294 22.9602372,18.3333333 22.5,18.3333333 Z" id="Shape"></path>
            <path d="M25.8333333,18.3333333 C25.3730961,18.3333333 25,18.7064294 25,19.1666667 L25,22.5 C25,22.9602373 25.3730961,23.3333333 25.8333333,23.3333333 C26.2935706,23.3333333 26.6666667,22.9602373 26.6666667,22.5 L26.6666667,19.1666667 C26.6666667,18.7064294 26.2935706,18.3333333 25.8333333,18.3333333 Z" id="Shape"></path>
            <path d="M35.8333333,21.6666667 L29.1666667,21.6666667 C28.7064294,21.6666667 28.3333333,22.0397628 28.3333333,22.5 C28.3333333,22.9602373 28.7064294,23.3333333 29.1666667,23.3333333 L35.8333333,23.3333333 C36.2935706,23.3333333 36.6666667,22.9602373 36.6666667,22.5 C36.6666667,22.0397628 36.2935706,21.6666667 35.8333333,21.6666667 Z" id="Shape"></path>
            <path d="M15.8333333,33.3333333 C16.2935706,33.3333333 16.6666667,32.9602373 16.6666667,32.5 L16.6666667,29.1666667 C16.6666667,28.7064294 16.2935706,28.3333333 15.8333333,28.3333333 C15.3730961,28.3333333 15,28.7064294 15,29.1666667 L15,32.5 C15,32.9602373 15.3730961,33.3333333 15.8333333,33.3333333 Z" id="Shape"></path>
            <path d="M19.1666667,33.3333333 C19.6269039,33.3333333 20,32.9602373 20,32.5 L20,29.1666667 C20,28.7064294 19.6269039,28.3333333 19.1666667,28.3333333 C18.7064294,28.3333333 18.3333333,28.7064294 18.3333333,29.1666667 L18.3333333,32.5 C18.3333333,32.9602373 18.7064294,33.3333333 19.1666667,33.3333333 Z" id="Shape"></path>
            <path d="M22.5,33.3333333 C22.9602372,33.3333333 23.3333333,32.9602373 23.3333333,32.5 L23.3333333,29.1666667 C23.3333333,28.7064294 22.9602372,28.3333333 22.5,28.3333333 C22.0397628,28.3333333 21.6666667,28.7064294 21.6666667,29.1666667 L21.6666667,32.5 C21.6666667,32.9602373 22.0397628,33.3333333 22.5,33.3333333 Z" id="Shape"></path>
            <path d="M25.8333333,33.3333333 C26.2935706,33.3333333 26.6666667,32.9602373 26.6666667,32.5 L26.6666667,29.1666667 C26.6666667,28.7064294 26.2935706,28.3333333 25.8333333,28.3333333 C25.3730961,28.3333333 25,28.7064294 25,29.1666667 L25,32.5 C25,32.9602373 25.3730961,33.3333333 25.8333333,33.3333333 Z" id="Shape"></path>
            <path d="M29.1666667,33.3333333 L35.8333333,33.3333333 C36.2935706,33.3333333 36.6666667,32.9602373 36.6666667,32.5 C36.6666667,32.0397628 36.2935706,31.6666667 35.8333333,31.6666667 L29.1666667,31.6666667 C28.7064294,31.6666667 28.3333333,32.0397628 28.3333333,32.5 C28.3333333,32.9602373 28.7064294,33.3333333 29.1666667,33.3333333 Z" id="Shape"></path>
            <path d="M15.8333333,38.3333333 C15.3730961,38.3333333 15,38.7064294 15,39.1666667 L15,42.5 C15,42.9602373 15.3730961,43.3333333 15.8333333,43.3333333 C16.2935706,43.3333333 16.6666667,42.9602373 16.6666667,42.5 L16.6666667,39.1666667 C16.6666667,38.7064294 16.2935706,38.3333333 15.8333333,38.3333333 Z" id="Shape"></path>
            <path d="M19.1666667,38.3333333 C18.7064294,38.3333333 18.3333333,38.7064294 18.3333333,39.1666667 L18.3333333,42.5 C18.3333333,42.9602373 18.7064294,43.3333333 19.1666667,43.3333333 C19.6269039,43.3333333 20,42.9602373 20,42.5 L20,39.1666667 C20,38.7064294 19.6269039,38.3333333 19.1666667,38.3333333 Z" id="Shape"></path>
            <path d="M22.5,38.3333333 C22.0397628,38.3333333 21.6666667,38.7064294 21.6666667,39.1666667 L21.6666667,42.5 C21.6666667,42.9602373 22.0397628,43.3333333 22.5,43.3333333 C22.9602372,43.3333333 23.3333333,42.9602373 23.3333333,42.5 L23.3333333,39.1666667 C23.3333333,38.7064294 22.9602372,38.3333333 22.5,38.3333333 Z" id="Shape"></path>
            <path d="M25.8333333,38.3333333 C25.3730961,38.3333333 25,38.7064294 25,39.1666667 L25,42.5 C25,42.9602373 25.3730961,43.3333333 25.8333333,43.3333333 C26.2935706,43.3333333 26.6666667,42.9602373 26.6666667,42.5 L26.6666667,39.1666667 C26.6666667,38.7064294 26.2935706,38.3333333 25.8333333,38.3333333 Z" id="Shape"></path>
            <path d="M35.8333333,41.6666667 L29.1666667,41.6666667 C28.7064294,41.6666667 28.3333333,42.0397628 28.3333333,42.5 C28.3333333,42.9602373 28.7064294,43.3333333 29.1666667,43.3333333 L35.8333333,43.3333333 C36.2935706,43.3333333 36.6666667,42.9602373 36.6666667,42.5 C36.6666667,42.0397628 36.2935706,41.6666667 35.8333333,41.6666667 Z" id="Shape"></path>
            <path d="M43.4090167,11.6072583 C42.886008,11.606478 42.3644936,11.663106 41.8538417,11.776125 C40.9645254,7.02424026 36.8192486,3.5779862 31.9848667,3.57136667 C30.0910018,3.56596896 28.2359986,4.10846812 26.643475,5.13346667 C24.8772759,1.97345043 21.5444878,0.0112289089 17.9244,3.55271368e-15 C12.3300721,0.0473863308 7.82962053,4.61390893 7.86376667,10.2083333 C7.86383446,10.6782488 7.89537169,11.1476323 7.95816667,11.6133333 C3.90420905,11.8327957 0.753524975,15.2256172 0.834279842,19.2847075 C0.915034708,23.3437979 4.19817139,26.6086198 8.25765,26.6666667 L11.820225,26.6666667 C11.721427,26.9335276 11.6694769,27.2154515 11.6666667,27.5 L11.6666667,34.1666667 C11.6685868,34.7837548 11.9004143,35.3779784 12.3168917,35.8333333 C11.9004143,36.2886883 11.6685868,36.8829118 11.6666667,37.5 L11.6666667,44.1666667 C11.6681731,45.5467541 12.7865793,46.6651603 14.1666667,46.6666667 L14.1666667,48.3333333 C14.1675854,49.2534271 14.9132396,49.9990813 15.8333333,50 L19.1666667,50 C20.0867604,49.9990813 20.8324146,49.2534271 20.8333333,48.3333333 L20.8333333,46.6666667 L30.8333333,46.6666667 L30.8333333,48.3333333 C30.8342521,49.2534271 31.5799063,49.9990813 32.5,50 L35.8333333,50 C36.7534271,49.9990813 37.4990813,49.2534271 37.5,48.3333333 L37.5,46.6666667 C38.8800874,46.6651603 39.9984936,45.5467541 40,44.1666667 L40,37.5 C39.9980798,36.8829118 39.7662524,36.2886883 39.349775,35.8333333 C39.7662524,35.3779784 39.9980798,34.7837548 40,34.1666667 L40,27.5 C39.9971898,27.2154515 39.9452397,26.9335276 39.8464417,26.6666667 L43.4090167,26.6666667 C47.5262313,26.6087157 50.8334838,23.254585 50.8334838,19.1369625 C50.8334838,15.01934 47.5262313,11.6652093 43.4090167,11.6072583 Z M13.3333333,24.1666667 L13.3333333,17.5 C13.3339302,17.0400102 13.7066768,16.6672635 14.1666667,16.6666667 L37.5,16.6666667 C37.9599898,16.6672635 38.3327365,17.0400102 38.3333333,17.5 L38.3333333,24.1666667 C38.3327365,24.6266565 37.9599898,24.9994032 37.5,25 L14.1666667,25 C13.7066768,24.9994032 13.3339302,24.6266565 13.3333333,24.1666667 Z M19.1678833,48.3333333 L15.8333333,48.3333333 L15.8333333,46.6666667 L19.167075,46.6666667 L19.1678833,48.3333333 Z M35.83455,48.3333333 L32.5,48.3333333 L32.5,46.6666667 L35.8337417,46.6666667 L35.83455,48.3333333 Z M38.3333333,44.1666667 C38.3327365,44.6266565 37.9599898,44.9994032 37.5,45 L14.1666667,45 C13.7066768,44.9994032 13.3339302,44.6266565 13.3333333,44.1666667 L13.3333333,37.5 C13.3339302,37.0400102 13.7066768,36.6672635 14.1666667,36.6666667 L37.5,36.6666667 C37.9599898,36.6672635 38.3327365,37.0400102 38.3333333,37.5 L38.3333333,44.1666667 Z M38.3333333,27.5 L38.3333333,34.1666667 C38.3327365,34.6266565 37.9599898,34.9994032 37.5,35 L14.1666667,35 C13.7066768,34.9994032 13.3339302,34.6266565 13.3333333,34.1666667 L13.3333333,27.5 C13.3339302,27.0400102 13.7066768,26.6672635 14.1666667,26.6666667 L37.5,26.6666667 C37.9599898,26.6672635 38.3327365,27.0400102 38.3333333,27.5 Z M43.4090167,25 L39.8464417,25 C39.9452397,24.7331391 39.9971898,24.4512152 40,24.1666667 L40,17.5 C39.9984936,16.1199126 38.8800874,15.0015064 37.5,15 L33.3333333,15 L33.3333333,13.6783833 L34.4140667,12.5976583 C34.7394683,12.2722545 34.7394663,11.7446724 34.4140625,11.4192708 C34.0886587,11.0938693 33.5610766,11.0938712 33.235675,11.419275 L31.9108333,12.7441667 C31.7545515,12.9004168 31.6667248,13.1123398 31.6666667,13.3333333 L31.6666667,15 L27.5,15 L27.5,13.3333333 C27.4999418,13.1123398 27.4121152,12.9004168 27.2558333,12.7441667 L25.9309667,11.4193 C25.7204688,11.2088021 25.4136613,11.1265933 25.1261159,11.2036409 C24.8385704,11.2806885 24.6139718,11.5052871 24.5369243,11.7928326 C24.4598767,12.080378 24.5420854,12.3871854 24.7525833,12.5976833 L25.8333333,13.6783833 L25.8333333,15 L19.1666667,15 L19.1666667,11.6666667 C19.1666085,11.4456732 19.0787818,11.2337502 18.9225,11.0775 L16.2723583,8.42735 C15.9467893,8.10291202 15.4199951,8.10337037 15.0949911,8.42837442 C14.769987,8.75337842 14.7695287,9.28017258 15.0939667,9.60574167 L17.5,12.0117167 L17.5,15 L14.1666667,15 C12.7865793,15.0015064 11.6681731,16.1199126 11.6666667,17.5 L11.6666667,24.1666667 C11.6694976,24.4512177 11.7214645,24.7331409 11.820275,25 L8.25765,25 C5.06099178,24.9420748 2.49989158,22.3341455 2.49989158,19.1369625 C2.49989158,15.9397795 5.06099178,13.3318503 8.25765,13.273925 C8.45451725,13.2711155 8.65132092,13.2829482 8.84643333,13.309325 C9.12081508,13.3500935 9.39750217,13.2517115 9.5845525,13.0468711 C9.77160283,12.8420307 9.844511,12.5575678 9.77905,12.2880083 C9.61389417,11.6071143 9.53043392,10.908971 9.53043333,10.2083333 C9.49528458,5.53396703 13.2501317,1.71304978 17.9244,1.66666667 C21.2488243,1.68153894 24.2496118,3.66162548 25.5708833,6.71224167 C25.6746651,6.94886096 25.882308,7.12397645 26.1330467,7.18634182 C26.3837854,7.24870718 26.64927,7.19127104 26.8518083,7.03084167 C28.3088447,5.86632023 30.1196461,5.23386689 31.9848667,5.23803333 C36.3410662,5.25304999 39.965405,8.59069308 40.3385417,12.9309083 C40.3636813,13.1902644 40.5086044,13.4229621 40.7302838,13.5599141 C40.9519631,13.6968661 41.2249148,13.7223285 41.4681,13.6287417 C42.0875888,13.3915511 42.7456777,13.2712467 43.4090167,13.273925 C46.6056749,13.3318503 49.1667751,15.9397795 49.1667751,19.1369625 C49.1667751,22.3341455 46.6056749,24.9420748 43.4090167,25 Z" id="Shape"></path>
        </g>
    </g>
</svg>