<?xml version="1.0" encoding="UTF-8"?>
<svg width="45px" height="48px" viewBox="0 0 45 48" version="1.1" xmlns="http://www.w3.org/2000/svg" xmlns:xlink="http://www.w3.org/1999/xlink">
    <!-- Generator: Sketch 48.1 (47250) - http://www.bohemiancoding.com/sketch -->
    <title>Group 3</title>
    <desc>Created with Sketch.</desc>
    <defs></defs>
    <g id="KBMS-Copy" stroke="none" stroke-width="1" fill="none" fill-rule="evenodd" transform="translate(-907.000000, -2161.000000)">
        <g id="Group-3" transform="translate(907.000000, 2161.000000)" fill="#FA7677" fill-rule="nonzero">
            <path d="M43.5341863,42.8995529 L34.4298281,33.8503726 C37.8232707,28.8321908 37.2439024,21.9219076 32.7744902,17.4795827 C32.1123551,16.8214605 31.2846861,16.1633383 30.4570172,15.6697466 C29.3511803,15.0689076 28.4171122,14.6370295 27.6548129,14.3741122 C27.6575372,14.3788619 27.6575372,9.89954723 27.6548129,0.936168324 L0.757334102,0.936168324 C0.757334102,21.8536044 0.757334102,32.3123224 0.757334102,32.3123224 C0.757334102,32.3123224 0.757334102,32.5755282 0.757334102,33.1019398 C8.52980397,33.1357644 12.4117069,33.1357644 12.4030429,33.1019398 C12.9379788,34.0753063 13.6313001,35.0377496 14.4830068,35.9892697 C18.952419,40.2670641 25.8220712,40.7606557 30.7880848,37.4700447 L39.892443,46.519225 C40.3890444,47.0128167 41.0511795,47.2596125 41.7133147,47.2596125 C42.3754498,47.2596125 43.037585,47.0128167 43.5341863,46.519225 C44.527389,45.5320417 44.527389,43.8867362 43.5341863,42.8995529 Z M0.743702519,33.1099851 L0.743702519,0.944262295 L27.6429428,0.944262295 L27.6429428,14.3535022 C23.0907637,12.8727273 17.9592163,13.9421759 14.4002399,17.4795827 C14.1519392,17.8086438 13.8208717,18.0554396 13.572571,18.3845007 L4.6337465,18.3845007 L4.6337465,20.5233979 L12.1655338,20.5233979 C11.7516993,21.3460507 11.4206317,22.1687034 11.1723311,22.9913562 L4.71651339,22.9913562 L4.71651339,25.1302534 L10.7584966,25.1302534 C10.6757297,25.8706408 10.6757297,26.6932936 10.6757297,27.4336811 L4.71651339,27.4336811 L4.71651339,29.5725782 L11.0067973,29.5725782 C11.255098,30.8065574 11.7516993,32.0405365 12.4138345,33.1099851 L0.743702519,33.1099851 Z M30.9536186,34.0149031 C27.7257097,37.2232489 22.842463,37.8813711 18.952419,35.9892697 C18.7041184,35.9070045 18.5385846,35.7424739 18.2902839,35.6602086 C18.207517,35.5779434 18.1247501,35.5779434 18.0419832,35.4956781 C17.8764494,35.4134128 17.7936825,35.3311475 17.6281487,35.2488823 C17.462615,35.166617 17.2970812,35.0020864 17.1315474,34.9198212 C17.0487805,34.9198212 17.0487805,34.8375559 16.9660136,34.7552906 L28.0567773,34.7552906 L28.0567773,29.4080477 L13.4898041,29.4080477 C13.4070372,29.0789866 13.3242703,28.8321908 13.3242703,28.5031297 C13.3242703,28.3385991 13.2415034,28.1740686 13.2415034,28.009538 C13.2415034,27.8450075 13.1587365,27.7627422 13.1587365,27.5982116 C13.0759696,26.7755589 13.1587365,25.9529061 13.2415034,25.1302534 C13.3242703,24.6366617 13.4070372,24.2253353 13.572571,23.7317437 L23.9184326,23.7317437 L23.9184326,18.3845007 L17.2970812,18.3845007 C20.2766893,16.081073 24.2495002,15.6697466 27.6429428,17.0682563 C28.1395442,17.3150522 28.6361455,17.561848 29.1327469,17.8086438 C29.1327469,17.8086438 29.1327469,17.8086438 29.1327469,17.8086438 C29.3810476,17.9731744 29.5465814,18.1377049 29.794882,18.3022355 C29.794882,18.3022355 29.794882,18.3022355 29.8776489,18.3022355 C30.1259496,18.466766 30.2914834,18.6312966 30.5397841,18.8780924 C30.7053179,19.042623 30.8708517,19.1248882 30.9536186,19.2894188 C35.0919632,23.3204173 35.0919632,29.9016393 30.9536186,34.0149031 Z" id="Shape" transform="translate(22.511395, 24.097890) scale(-1, 1) translate(-22.511395, -24.097890) "></path>
            <rect id="Rectangle-path" transform="translate(35.340264, 5.715648) scale(-1, 1) translate(-35.340264, -5.715648) " x="30.2914834" y="4.6461997" width="10.097561" height="2.13889717"></rect>
            <rect id="Rectangle-path" transform="translate(31.408836, 10.322504) scale(-1, 1) translate(-31.408836, -10.322504) " x="22.4286285" y="9.25305514" width="17.9604158" height="2.13889717"></rect>
            <rect id="Rectangle-path" transform="translate(37.119752, 14.764829) scale(-1, 1) translate(-37.119752, -14.764829) " x="33.8504598" y="13.69538" width="6.53858457" height="2.13889717"></rect>
        </g>
    </g>
</svg>