<?xml version="1.0" encoding="UTF-8"?>
<svg width="33px" height="44px" viewBox="0 0 33 44" version="1.1" xmlns="http://www.w3.org/2000/svg" xmlns:xlink="http://www.w3.org/1999/xlink">
    <!-- Generator: Sketch 48.2 (47327) - http://www.bohemiancoding.com/sketch -->
    <title>Group</title>
    <desc>Created with Sketch.</desc>
    <defs></defs>
    <g id="KGMS-Copy" stroke="none" stroke-width="1" fill="none" fill-rule="evenodd" transform="translate(-913.000000, -2383.000000)">
        <g id="Group" transform="translate(913.000000, 2383.000000)" fill="#5CD29C" fill-rule="nonzero">
            <path d="M30.9,16.05 L30.9,39.35 C30.9,40.6 29.9,41.6 28.65,41.6 L4.3,41.6 C3.1,41.6 2.15,40.6 2.15,39.35 L2.15,16.05 L5,16.05 L7,16.05 L8.6,16.05 L24.4,16.05 L26,16.05 L28,16.05 L30.9,16.05 Z M16.5,0.45 C10.15,0.45 5,5.6 5,11.95 L5,14 L0.15,14 L0.15,39.3 C0.15,41.65 2,43.55 4.3,43.55 L28.65,43.55 C31,43.55 32.9,41.65 32.9,39.3 L32.9,14.05 L28,14.05 L28,12 C28,5.65 22.85,0.45 16.5,0.45 Z M8.6,14.05 L8.6,12 C8.6,7.55 12.05,4.1 16.5,4.1 C20.95,4.1 24.4,7.55 24.4,12 L24.4,14.05 L8.6,14.05 Z" id="Shape"></path>
            <path d="M19.55,26.4 C19.55,24.7 18.2,23.35 16.5,23.35 C14.8,23.35 13.45,24.7 13.45,26.4 C13.45,27.6 14.15,28.65 15.2,29.15 L13.95,34.65 L19.1,34.65 L17.85,29.15 C18.85,28.65 19.55,27.6 19.55,26.4 Z" id="Shape"></path>
        </g>
    </g>
</svg>