<?xml version="1.0" encoding="UTF-8"?>
<svg width="40px" height="40px" viewBox="0 0 40 40" version="1.1" xmlns="http://www.w3.org/2000/svg" xmlns:xlink="http://www.w3.org/1999/xlink">
    <!-- Generator: Sketch 48.1 (47250) - http://www.bohemiancoding.com/sketch -->
    <title>Group 7</title>
    <desc>Created with Sketch.</desc>
    <defs></defs>
    <g id="KGMS-Copy" stroke="none" stroke-width="1" fill="none" fill-rule="evenodd" transform="translate(-259.000000, -1945.000000)">
        <g id="Group-7" transform="translate(259.000000, 1945.000000)" fill="#8F85E8" fill-rule="nonzero">
            <path d="M38.9054167,39.7916667 L1.09458333,39.7916667 C0.605416667,39.7916667 0.208333333,39.3945833 0.208333333,38.9054167 L0.208333333,7.29791667 C0.208333333,6.80875 0.605416667,6.41166667 1.09458333,6.41166667 L38.9054167,6.41166667 C39.3945833,6.41166667 39.7916667,6.80875 39.7916667,7.29791667 L39.7916667,38.9054167 C39.7916667,39.3945833 39.3945833,39.7916667 38.9054167,39.7916667 Z M1.98083333,38.0191667 L38.0191667,38.0191667 L38.0191667,8.18416667 L1.98083333,8.18416667 L1.98083333,38.0191667 Z" id="Shape"></path>
            <path d="M38.9054167,39.7916667 L1.09458333,39.7916667 C0.605416667,39.7916667 0.208333333,39.3945833 0.208333333,38.9054167 L0.208333333,7.29791667 C0.208333333,6.80875 0.605416667,6.41166667 1.09458333,6.41166667 L38.9054167,6.41166667 C39.3945833,6.41166667 39.7916667,6.80875 39.7916667,7.29791667 L39.7916667,38.9054167 C39.7916667,39.3945833 39.3945833,39.7916667 38.9054167,39.7916667 Z M1.98083333,38.0191667 L38.0191667,38.0191667 L38.0191667,8.18416667 L1.98083333,8.18416667 L1.98083333,38.0191667 Z" id="Shape"></path>
            <path d="M26.2033333,8.18416667 L1.09458333,8.18416667 C0.605416667,8.18416667 0.208333333,7.78708333 0.208333333,7.29833333 L0.208333333,1.09458333 C0.208333333,0.605416667 0.605416667,0.208333333 1.09458333,0.208333333 L20,0.208333333 C20.2345833,0.208333333 20.4604167,0.301666667 20.6266667,0.467916667 L26.83,6.67125 C27.0833333,6.92458333 27.1595833,7.30583333 27.0220833,7.63708333 C26.8845833,7.96833333 26.5616667,8.18416667 26.2033333,8.18416667 Z M1.98083333,6.41166667 L24.0641667,6.41166667 L19.6329167,1.98083333 L1.98083333,1.98083333 L1.98083333,6.41166667 Z" id="Shape"></path>
            <path d="M11.4333333,19.9429167 L9.66083333,19.9395833 L9.67333333,13.6475 C9.67375,13.4120833 9.76833333,13.1870833 9.93416667,13.0208333 C10.1008333,12.8558333 10.3416667,12.7704167 10.5620833,12.7629167 L16.8529167,12.7804167 L16.8483333,14.5525 L11.4441667,14.5375 L11.4333333,19.9429167 Z" id="Shape"></path>
            <rect id="Rectangle-path" transform="translate(13.715288, 16.802477) rotate(44.991897) translate(-13.715288, -16.802477) " x="9.2551226" y="15.916444" width="8.92033121" height="1.77206636"></rect>
            <path d="M16.8508333,33.4404167 L10.56,33.4404167 C10.07125,33.4404167 9.675,33.0445833 9.67375,32.5558333 L9.66125,26.2633333 L11.43375,26.26 L11.4445833,31.6679167 L16.85125,31.6679167 L16.85125,33.4404167 L16.8508333,33.4404167 Z" id="Shape"></path>
            <rect id="Rectangle-path" transform="translate(13.713955, 29.400575) rotate(45.000000) translate(-13.713955, -29.400575) " x="12.8279219" y="24.9404093" width="1.77206634" height="8.92033112"></rect>
            <path d="M29.44,33.4404167 L23.1491667,33.4404167 L23.1491667,31.6683333 L28.5558333,31.6683333 L28.5666667,26.2604167 L30.3391667,26.26375 L30.3266667,32.55625 C30.325,33.045 29.92875,33.4404167 29.44,33.4404167 Z" id="Shape"></path>
            <rect id="Rectangle-path" transform="translate(26.287997, 29.400478) rotate(44.991897) translate(-26.287997, -29.400478) " x="21.8278312" y="28.5144453" width="8.92033121" height="1.77206636"></rect>
            <path d="M28.5666667,19.9429167 L28.5554167,14.5375 L23.15125,14.5525 L23.1466667,12.7804167 L29.4375,12.7625 C29.4379167,12.7625 29.4391667,12.7625 29.44,12.7625 C29.6741667,12.7625 29.8991667,12.8554167 30.0654167,13.0204167 C30.23125,13.1866667 30.3258333,13.4116667 30.32625,13.6470833 L30.33875,19.9391667 L28.5666667,19.9429167 Z" id="Shape"></path>
            <rect id="Rectangle-path" transform="translate(26.287766, 16.802065) rotate(44.991897) translate(-26.287766, -16.802065) " x="25.4017324" y="12.3418995" width="1.77206636" height="8.92033121"></rect>
        </g>
    </g>
</svg>