<?xml version="1.0" encoding="UTF-8"?>
<svg width="45px" height="44px" viewBox="0 0 45 44" version="1.1" xmlns="http://www.w3.org/2000/svg" xmlns:xlink="http://www.w3.org/1999/xlink">
    <!-- Generator: Sketch 48.1 (47250) - http://www.bohemiancoding.com/sketch -->
    <title>Group</title>
    <desc>Created with Sketch.</desc>
    <defs></defs>
    <g id="KGMS-Copy" stroke="none" stroke-width="1" fill="none" fill-rule="evenodd" transform="translate(-908.000000, -2823.000000)">
        <g id="Group" transform="translate(908.000000, 2823.000000)" fill="#93DCFF" fill-rule="nonzero">
            <path d="M22.2511722,0 C16.554012,0 10.8568522,2.1437008 6.50336208,6.448819 C-2.16778728,15.0236225 -2.16778728,28.966536 6.50336208,37.5590555 C15.1924267,46.133859 29.3099172,46.133859 37.9810663,37.5590555 C46.6701315,28.966536 46.6701315,15.0236225 37.9810663,6.448819 C33.6454918,2.1437008 27.948332,0 22.2511722,0 Z M22.2511722,1.984252 C26.4613374,1.984252 30.6894185,3.29527565 34.2367069,5.8996065 L28.4141376,11.675197 C26.515084,10.576772 24.3831281,10.0098425 22.2511722,10.0098425 C20.1192158,10.0098425 17.9872599,10.576772 16.0882063,11.675197 L10.2477216,5.8996065 C13.8129254,3.29527565 18.0230911,1.984252 22.2511722,1.984252 Z M5.94797815,10.151575 L11.8063785,15.909449 C9.56692921,19.647638 9.56692921,24.3602365 11.8063785,28.0984255 L5.94797815,33.874016 C0.698708275,26.822835 0.698708275,17.1850395 5.94797815,10.151575 Z M38.5364503,10.151575 C43.78572,17.1850395 43.78572,26.822835 38.5364503,33.874016 L32.6959655,28.0984255 C34.9174992,24.3602365 34.9174992,19.647638 32.6959655,15.909449 L38.5364503,10.151575 Z M22.2511722,11.9940945 C24.8310182,11.9940945 27.4287797,12.968504 29.3994956,14.9350395 C33.3588423,18.8326775 33.3588423,25.1574805 29.3994956,29.072835 C25.4401483,32.9881895 19.0442801,32.9881895 15.0849329,29.072835 C11.1255861,25.1574805 11.1255861,18.8326775 15.0849329,14.9350395 C17.0735643,12.968504 19.6534102,11.9940945 22.2511722,11.9940945 Z M16.0702908,32.350394 C16.0702908,32.350394 16.0882048,32.350394 16.0882048,32.350394 C19.868396,34.564961 24.6160294,34.564961 28.4141361,32.350394 L28.4320502,32.350394 L34.2367038,38.108268 C27.1242116,43.3169295 17.3602107,43.3169295 10.2477185,38.108268 L16.0702908,32.350394 Z" id="Shape"></path>
        </g>
    </g>
</svg>