<?xml version="1.0" encoding="UTF-8"?>
<svg width="44px" height="44px" viewBox="0 0 44 44" version="1.1" xmlns="http://www.w3.org/2000/svg" xmlns:xlink="http://www.w3.org/1999/xlink">
    <!-- Generator: Sketch 48.1 (47250) - http://www.bohemiancoding.com/sketch -->
    <title>noun_986781_cc</title>
    <desc>Created with Sketch.</desc>
    <defs></defs>
    <g id="KGMS-Copy" stroke="none" stroke-width="1" fill="none" fill-rule="evenodd" transform="translate(-258.000000, -2823.000000)">
        <g id="noun_986781_cc" transform="translate(258.000000, 2823.000000)" fill="#fa7677" fill-rule="nonzero">
            <path d="M8.8,11 C5.53153333,11 0,11.6182 0,13.9333333 L0,31.5333333 C0,33.8484667 5.53153333,34.4666667 8.8,34.4666667 C12.0684667,34.4666667 17.6,33.8484667 17.6,31.5333333 L17.6,13.9333333 C17.6,11.6182 12.0684667,11 8.8,11 Z M8.8,12.4666667 C13.1398667,12.4666667 15.8187333,13.4009333 16.1208667,13.9304 C16.1135333,13.9443333 16.1018,13.9582667 16.0908,13.9729333 C16.0776,13.9905333 16.0658667,14.0088667 16.0475333,14.0272 C16.0306667,14.0440667 16.0079333,14.0616667 15.9866667,14.0792667 C15.9632,14.0990667 15.9419333,14.1181333 15.9133333,14.1386667 C15.8884,14.1562667 15.8568667,14.1746 15.8282667,14.1929333 C15.7952667,14.2142 15.7637333,14.2347333 15.7248667,14.256 C15.6918667,14.2743333 15.6522667,14.2934 15.6148667,14.3117333 C15.5716,14.3337333 15.5305333,14.355 15.4828667,14.377 C15.4418,14.3960667 15.3934,14.4151333 15.3486667,14.4342 C15.2966,14.4562 15.246,14.4782 15.1888,14.5002 C15.1396667,14.5192667 15.0839333,14.5383333 15.0311333,14.5566667 C14.9695333,14.5786667 14.9094,14.6006667 14.8426667,14.6226667 C14.7854667,14.6417333 14.7209333,14.6600667 14.6600667,14.6791333 C14.5896667,14.7004 14.5222,14.7224 14.4474,14.7436667 C14.3806667,14.7627333 14.3073333,14.7803333 14.2376667,14.7994 C14.1599333,14.8199333 14.0851333,14.8404667 14.003,14.8602667 C13.926,14.8786 13.8431333,14.8962 13.7624667,14.9145333 C13.6788667,14.9336 13.5982,14.9526667 13.5109333,14.9702667 C13.4251333,14.9878667 13.3327333,15.0047333 13.2425333,15.0216 C13.1523333,15.0384667 13.0643333,15.0568 12.9697333,15.0729333 C12.8744,15.0890667 12.7724667,15.1044667 12.6734667,15.1198667 C12.5774,15.1352667 12.4842667,15.1506667 12.3845333,15.1646 C12.2782,15.18 12.1645333,15.1924667 12.0538,15.2064 C11.9533333,15.2188667 11.8565333,15.2328 11.7531333,15.2438 C11.6350667,15.257 11.5096667,15.268 11.3879333,15.2797333 C11.2845333,15.29 11.1848,15.301 11.0784667,15.3098 C10.9435333,15.3208 10.8012667,15.3296 10.6612,15.3384 C10.5607333,15.345 10.4639333,15.3530667 10.3605333,15.3589333 C10.2028667,15.3677333 10.0378667,15.3728667 9.87506667,15.3787333 C9.78266667,15.3824 9.69466667,15.3875333 9.60006667,15.3897333 C9.33973333,15.3963333 9.07353333,15.4 8.8,15.4 C8.5228,15.4 8.25293333,15.3963333 7.98966667,15.389 C4.0722,15.2812 1.69693333,14.4092667 1.47473333,13.9450667 C1.7336,13.4185333 4.41906667,12.4666667 8.8,12.4666667 Z M1.46666667,15.6816 C1.50626667,15.7006667 1.55466667,15.7153333 1.595,15.7336667 C1.76146667,15.8092 1.93673333,15.8810667 2.12226667,15.9485333 C2.1978,15.9756667 2.2726,16.0020667 2.35033333,16.0277333 C2.55053333,16.0937333 2.75806667,16.1553333 2.97293333,16.2125333 C3.02573333,16.2264667 3.0756,16.2426 3.12986667,16.2558 C3.399,16.3232667 3.67766667,16.3841333 3.96293333,16.4391333 C4.03846667,16.4538 4.11546667,16.4662667 4.19173333,16.4802 C4.4132,16.5198 4.63686667,16.5564667 4.86273333,16.5894667 C4.95146667,16.6026667 5.03873333,16.6151333 5.12746667,16.6268667 C5.38926667,16.6620667 5.6518,16.6928667 5.9136,16.7192667 C5.9488,16.7229333 5.984,16.7273333 6.01993333,16.731 C6.3184,16.7603333 6.6132,16.7830667 6.90433333,16.8021333 C6.98426667,16.8072667 7.06126667,16.8116667 7.1412,16.8160667 C7.36046667,16.8285333 7.5746,16.8388 7.78506667,16.8461333 C7.86426667,16.8490667 7.942,16.852 8.01973333,16.8542 C8.2896,16.8615333 8.55286667,16.8666667 8.8,16.8666667 C9.04713333,16.8666667 9.3104,16.8615333 9.58026667,16.8542 C9.658,16.852 9.73573333,16.8490667 9.81493333,16.8461333 C10.0254,16.8388 10.2395333,16.8285333 10.4588,16.8160667 C10.538,16.8116667 10.615,16.8072667 10.6956667,16.8021333 C10.9868,16.7830667 11.2816,16.7603333 11.5800667,16.731 C11.6152667,16.7273333 11.6504667,16.7229333 11.6864,16.7192667 C11.9489333,16.6928667 12.2107333,16.6613333 12.4725333,16.6268667 C12.5612667,16.6151333 12.6485333,16.6019333 12.7372667,16.5894667 C12.9638667,16.5564667 13.1868,16.5198 13.4082667,16.4802 C13.4845333,16.4662667 13.5615333,16.4538 13.6370667,16.4391333 C13.9216,16.3841333 14.2002667,16.324 14.4701333,16.2558 C14.5236667,16.2426 14.5735333,16.2264667 14.6270667,16.2125333 C14.8419333,16.1553333 15.0494667,16.0937333 15.2496667,16.0277333 C15.3274,16.0020667 15.4029333,15.9756667 15.4777333,15.9485333 C15.6632667,15.8818 15.8378,15.8099333 16.005,15.7336667 C16.0453333,15.7153333 16.0937333,15.7006667 16.1333333,15.6816 L16.1333333,19.7758 C15.9096667,20.3001333 13.2146667,21.2666667 8.8,21.2666667 C4.36773333,21.2666667 1.66686667,20.2920667 1.46666667,19.8 L1.46666667,15.6816 Z M1.46666667,21.5438667 C3.33446667,22.4473333 6.5846,22.7333333 8.8,22.7333333 C11.0154,22.7333333 14.2655333,22.4473333 16.1333333,21.5438667 L16.1333333,25.6424667 C15.9096667,26.1668 13.2146667,27.1333333 8.8,27.1333333 C4.36773333,27.1333333 1.66686667,26.1587333 1.46666667,25.6666667 L1.46666667,21.5438667 Z M8.8,33 C4.36773333,33 1.66686667,32.0254 1.46666667,31.5333333 L1.46666667,27.4105333 C3.33446667,28.314 6.5846,28.6 8.8,28.6 C11.0154,28.6 14.2655333,28.314 16.1333333,27.4105333 L16.1333333,31.5091333 C15.9096667,32.0334667 13.2146667,33 8.8,33 Z" id="Shape"></path>
            <rect id="Rectangle-path" x="5.13333333" y="18.3333333" width="1.46666667" height="1.46666667"></rect>
            <rect id="Rectangle-path" x="8.06666667" y="18.3333333" width="1.46666667" height="1.46666667"></rect>
            <rect id="Rectangle-path" x="11" y="18.3333333" width="1.46666667" height="1.46666667"></rect>
            <rect id="Rectangle-path" x="5.13333333" y="24.2" width="1.46666667" height="1.46666667"></rect>
            <rect id="Rectangle-path" x="8.06666667" y="24.2" width="1.46666667" height="1.46666667"></rect>
            <rect id="Rectangle-path" x="11" y="24.2" width="1.46666667" height="1.46666667"></rect>
            <rect id="Rectangle-path" x="5.13333333" y="30.0666667" width="1.46666667" height="1.46666667"></rect>
            <rect id="Rectangle-path" x="8.06666667" y="30.0666667" width="1.46666667" height="1.46666667"></rect>
            <rect id="Rectangle-path" x="11" y="30.0666667" width="1.46666667" height="1.46666667"></rect>
            <path d="M43.2666667,0 L31.5333333,0 C31.1285333,0 30.8,0.3278 30.8,0.733333333 L30.8,9.53333333 C30.8,9.93886667 31.1285333,10.2666667 31.5333333,10.2666667 L43.2666667,10.2666667 C43.6714667,10.2666667 44,9.93886667 44,9.53333333 L44,0.733333333 C44,0.3278 43.6714667,0 43.2666667,0 Z M42.5333333,8.8 L32.2666667,8.8 L32.2666667,1.46666667 L42.5333333,1.46666667 L42.5333333,8.8 Z" id="Shape"></path>
            <path d="M43.2666667,16.8666667 L31.5333333,16.8666667 C31.1285333,16.8666667 30.8,17.1944667 30.8,17.6 L30.8,26.4 C30.8,26.8055333 31.1285333,27.1333333 31.5333333,27.1333333 L43.2666667,27.1333333 C43.6714667,27.1333333 44,26.8055333 44,26.4 L44,17.6 C44,17.1944667 43.6714667,16.8666667 43.2666667,16.8666667 Z M42.5333333,25.6666667 L32.2666667,25.6666667 L32.2666667,18.3333333 L42.5333333,18.3333333 L42.5333333,25.6666667 Z" id="Shape"></path>
            <path d="M43.2666667,33.7333333 L31.5333333,33.7333333 C31.1285333,33.7333333 30.8,34.0611333 30.8,34.4666667 L30.8,43.2666667 C30.8,43.6722 31.1285333,44 31.5333333,44 L43.2666667,44 C43.6714667,44 44,43.6722 44,43.2666667 L44,34.4666667 C44,34.0611333 43.6714667,33.7333333 43.2666667,33.7333333 Z M42.5333333,42.5333333 L32.2666667,42.5333333 L32.2666667,35.2 L42.5333333,35.2 L42.5333333,42.5333333 Z" id="Shape"></path>
            <path d="M23.4666667,5.13333333 L23.4666667,16.1333333 L19.0666667,16.1333333 L19.0666667,17.6 L23.4666667,17.6 L23.4666667,27.1333333 L19.0666667,27.1333333 L19.0666667,28.6 L23.4666667,28.6 L23.4666667,38.8666667 C23.4666667,39.2722 23.7952,39.6 24.2,39.6 L29.3333333,39.6 L29.3333333,38.1333333 L24.9333333,38.1333333 L24.9333333,22.7333333 L29.3333333,22.7333333 L29.3333333,21.2666667 L24.9333333,21.2666667 L24.9333333,5.86666667 L29.3333333,5.86666667 L29.3333333,4.4 L24.2,4.4 C23.7952,4.4 23.4666667,4.7278 23.4666667,5.13333333 Z" id="Shape"></path>
            <rect id="Rectangle-path" x="33.7333333" y="4.4" width="1.46666667" height="1.46666667"></rect>
            <rect id="Rectangle-path" x="36.6666667" y="4.4" width="1.46666667" height="1.46666667"></rect>
            <rect id="Rectangle-path" x="39.6" y="4.4" width="1.46666667" height="1.46666667"></rect>
            <rect id="Rectangle-path" x="33.7333333" y="21.2666667" width="1.46666667" height="1.46666667"></rect>
            <rect id="Rectangle-path" x="36.6666667" y="21.2666667" width="1.46666667" height="1.46666667"></rect>
            <rect id="Rectangle-path" x="39.6" y="21.2666667" width="1.46666667" height="1.46666667"></rect>
            <rect id="Rectangle-path" x="33.7333333" y="38.1333333" width="1.46666667" height="1.46666667"></rect>
            <rect id="Rectangle-path" x="36.6666667" y="38.1333333" width="1.46666667" height="1.46666667"></rect>
            <rect id="Rectangle-path" x="39.6" y="38.1333333" width="1.46666667" height="1.46666667"></rect>
        </g>
    </g>
</svg>