<?xml version="1.0" encoding="UTF-8"?>
<svg width="44px" height="47px" viewBox="0 0 44 47" version="1.1" xmlns="http://www.w3.org/2000/svg" xmlns:xlink="http://www.w3.org/1999/xlink">
    <!-- Generator: Sketch 48.2 (47327) - http://www.bohemiancoding.com/sketch -->
    <title>Group 8</title>
    <desc>Created with Sketch.</desc>
    <defs></defs>
    <g id="KGMS-Copy" stroke="none" stroke-width="1" fill="none" fill-rule="evenodd" transform="translate(-259.000000, -2821.000000)">
        <g id="Group-8" transform="translate(258.000000, 2821.000000)" fill="#93DCFF">
            <rect id="Rectangle-4" x="12.528464" y="0" width="31.3469388" height="3.29967777" rx="1.64983888"></rect>
            <rect id="Rectangle-4" x="12.528464" y="6.59935553" width="31.3469388" height="3.29967777" rx="1.64983888"></rect>
            <rect id="Rectangle-4" x="12.7346939" y="13.1987111" width="31.3469388" height="3.29967777" rx="1.64983888"></rect>
            <path d="M31.5016112,19.7980666 L42.2255639,19.7980666 C43.1367448,19.7980666 43.8754028,20.5367246 43.8754028,21.4479055 L43.8754028,21.4479055 C43.8754028,22.3590863 43.1367448,23.0977444 42.2255639,23.0977444 L31.5016112,23.0977444 C30.5904303,23.0977444 29.8517723,22.3590863 29.8517723,21.4479055 L29.8517723,21.4479055 C29.8517723,20.5367246 30.5904303,19.7980666 31.5016112,19.7980666 Z" id="Rectangle-4"></path>
            <path d="M33.9763695,26.3974221 L42.2255639,26.3974221 C43.1367448,26.3974221 43.8754028,27.1360802 43.8754028,28.047261 L43.8754028,28.047261 C43.8754028,28.9584419 43.1367448,29.6970999 42.2255639,29.6970999 L33.9763695,29.6970999 C33.0651886,29.6970999 32.3265306,28.9584419 32.3265306,28.047261 L32.3265306,28.047261 C32.3265306,27.1360802 33.0651886,26.3974221 33.9763695,26.3974221 Z" id="Rectangle-4"></path>
            <path d="M15.6734694,19.5918367 L30.3673469,19.5918367 L30.3673469,25.4693878 L15.6734694,25.4693878 C14.0504285,25.4693878 12.7346939,24.1536531 12.7346939,22.5306122 L12.7346939,22.5306122 C12.7346939,20.9075713 14.0504285,19.5918367 15.6734694,19.5918367 Z" id="Rectangle-4"></path>
            <path d="M15.6734694,28.4081633 L32.0171858,28.4081633 L32.0171858,34.2857143 L15.6734694,34.2857143 C14.0504285,34.2857143 12.7346939,32.9699797 12.7346939,31.3469388 L12.7346939,31.3469388 C12.7346939,29.7238979 14.0504285,28.4081633 15.6734694,28.4081633 Z" id="Rectangle-4"></path>
            <g id="noun_1120378_cc" transform="translate(17.323308, 30.676692) scale(-1, 1) translate(-17.323308, -30.676692) translate(0.670247, 14.023631)" fill-rule="nonzero">
                <path d="M32.5368923,30.3877301 L26.213468,24.056953 C28.2829523,21.5246422 29.5093134,18.2633328 29.5093134,14.7718133 C29.5093134,6.63772388 22.8792988,0 14.7546567,0 C6.63001456,0 0,6.59935553 0,14.7718133 C0,22.944271 6.63001456,29.5819949 14.7546567,29.5819949 C18.2804448,29.5819949 21.4996426,28.3158394 24.0673361,26.2439487 L30.3524366,32.5363575 C30.6590269,32.8433043 31.0422647,32.9967777 31.4255025,32.9967777 C31.8087404,32.9967777 32.1919782,32.8433043 32.5368923,32.5747259 C33.1500728,31.9608323 33.1500728,31.0016237 32.5368923,30.3877301 Z M3.06590269,14.7718133 C3.06590269,8.32593111 8.31626104,3.06946769 14.7546567,3.06946769 C21.2313761,3.06946769 26.4434107,8.32593111 26.4434107,14.7718133 C26.4434107,21.2176954 21.1930523,26.4741588 14.7546567,26.4741588 C8.31626104,26.4741588 3.06590269,21.2176954 3.06590269,14.7718133 Z" id="Shape"></path>
            </g>
        </g>
    </g>
</svg>