<?xml version="1.0" encoding="UTF-8"?>
<svg width="43px" height="33px" viewBox="0 0 43 33" version="1.1" xmlns="http://www.w3.org/2000/svg" xmlns:xlink="http://www.w3.org/1999/xlink">
    <!-- Generator: Sketch 48.1 (47250) - http://www.bohemiancoding.com/sketch -->
    <title>noun_596513_cc</title>
    <desc>Created with Sketch.</desc>
    <defs></defs>
    <g id="KGMS-Copy" stroke="none" stroke-width="1" fill="none" fill-rule="evenodd" transform="translate(-259.000000, -2609.000000)">
        <g id="noun_596513_cc" transform="translate(259.000000, 2609.000000)" fill="#FDCF9C" fill-rule="nonzero">
            <path d="M40.0714286,8.37425367e-16 L2.35714286,8.37425367e-16 C1.05597494,0.0015585977 0.0015585977,1.05597494 0,2.35714286 L0,33 L42.4285714,33 L42.4285714,2.35714286 C42.4270128,1.05597494 41.3725965,0.0015585977 40.0714286,8.37425367e-16 Z M2.35714286,1.88571429 L40.0714286,1.88571429 C40.3317914,1.88571429 40.5428571,2.09678005 40.5428571,2.35714286 L40.5428571,6.6 L1.88571429,6.6 L1.88571429,2.35714286 C1.88571429,2.09678005 2.09678005,1.88571429 2.35714286,1.88571429 Z M1.88571429,31.1142857 L1.88571429,8.48571429 L40.5428571,8.48571429 L40.5428571,31.1142857 L1.88571429,31.1142857 Z M10.3714286,13.2 L3.77142857,13.2 L3.77142857,11.3142857 L10.3714286,11.3142857 L10.3714286,13.2 Z M8.48571429,15.0857143 L24.9857143,15.0857143 L24.9857143,16.9714286 L8.48571429,16.9714286 L8.48571429,15.0857143 Z M27.8142857,20.7428571 L13.2,20.7428571 L13.2,18.8571429 L27.8142857,18.8571429 L27.8142857,20.7428571 Z M13.2,22.6285714 L22.6285714,22.6285714 L22.6285714,24.5142857 L13.2,24.5142857 L13.2,22.6285714 Z M24.5142857,22.6285714 L38.6571429,22.6285714 L38.6571429,24.5142857 L24.5142857,24.5142857 L24.5142857,22.6285714 Z M8.48571429,26.4 L25.9285714,26.4 L25.9285714,28.2857143 L8.48571429,28.2857143 L8.48571429,26.4 Z" id="Shape"></path>
        </g>
    </g>
</svg>