<?xml version="1.0" encoding="UTF-8"?>
<svg width="44px" height="37px" viewBox="0 0 44 37" version="1.1" xmlns="http://www.w3.org/2000/svg" xmlns:xlink="http://www.w3.org/1999/xlink">
    <!-- Generator: Sketch 48.2 (47327) - http://www.bohemiancoding.com/sketch -->
    <title>Group</title>
    <desc>Created with Sketch.</desc>
    <defs></defs>
    <g id="KGMS-Copy" stroke="none" stroke-width="1" fill="none" fill-rule="evenodd" transform="translate(-908.000000, -2167.000000)">
        <g id="Group" transform="translate(908.000000, 2167.000000)" fill="#FA7677">
            <path d="M40.3333333,0 L3.66666667,0 C1.65,0 0,1.65 0,3.66666667 C0,21.9083333 0,13.2 0,33 C0,35.0166667 1.65,36.6666667 3.66666667,36.6666667 L14.6666667,36.6666667 L29.3333333,36.6666667 L40.3333333,36.6666667 C42.35,36.6666667 44,35.0166667 44,33 C44,23.5583333 44,13.9333333 44,3.66666667 C44,1.65 42.35,0 40.3333333,0 Z M42.1666667,33 C42.1666667,34.0083333 41.3416667,34.8333333 40.3333333,34.8333333 L3.66666667,34.8333333 C2.65833333,34.8333333 1.83333333,34.0083333 1.83333333,33 L1.83333333,29.3333333 C8.15833333,29.3333333 36.1166667,29.3333333 42.1666667,29.3333333 L42.1666667,33 Z M42.1666667,27.5 L36.6666667,27.5 L36.6666667,11.9166667 L29.3333333,11.9166667 L29.3333333,27.5 L25.6666667,27.5 L25.6666667,9.16666667 L18.3333333,9.16666667 L18.3333333,27.5 L14.6666667,27.5 L14.6666667,16.5 L7.33333333,16.5 L7.33333333,27.5 L1.83333333,27.5 L1.83333333,6.41666667 L42.1666667,6.41666667 L42.1666667,27.5 Z M1.83333333,4.58333333 L1.83333333,3.66666667 C1.83333333,2.65833333 2.65833333,1.83333333 3.66666667,1.83333333 L40.3333333,1.83333333 C42.5333333,1.83333333 42.1666667,4.49166667 42.1666667,4.58333333 L1.83333333,4.58333333 Z" id="Shape" fill-rule="nonzero"></path>
            <polygon id="Path" points="12.8333333 27.5 9.16666667 27.5 9.16666667 18.3333333 12.8333333 18.3333333"></polygon>
            <polygon id="Path" points="23.8333333 27.5 20.1666667 27.5 20.1666667 11 23.8333333 11"></polygon>
            <polygon id="Path" points="34.8333333 27.5 31.1666667 27.5 31.1666667 13.75 34.8333333 13.75"></polygon>
            <path d="M23.8333333,31.1666667 L20.1666667,31.1666667 C19.6166667,31.1666667 19.25,31.5333333 19.25,32.0833333 C19.25,32.6333333 19.6166667,33 20.1666667,33 L23.8333333,33 C24.3833333,33 24.75,32.6333333 24.75,32.0833333 C24.75,31.5333333 24.3833333,31.1666667 23.8333333,31.1666667 Z" id="Shape" fill-rule="nonzero"></path>
        </g>
    </g>
</svg>