<?xml version="1.0" encoding="UTF-8"?>
<svg width="34px" height="42px" viewBox="0 0 34 42" version="1.1" xmlns="http://www.w3.org/2000/svg" xmlns:xlink="http://www.w3.org/1999/xlink">
    <!-- Generator: Sketch 48.1 (47250) - http://www.bohemiancoding.com/sketch -->
    <title>noun_774592_cc (1)</title>
    <desc>Created with Sketch.</desc>
    <defs></defs>
    <g id="KGMS-Copy" stroke="none" stroke-width="1" fill="none" fill-rule="evenodd" transform="translate(-263.000000, -2384.000000)">
        <g id="noun_774592_cc-(1)" transform="translate(263.000000, 2384.000000)" fill="#5CD29C" fill-rule="nonzero">
            <path d="M16.9135135,10.5 C13.6783784,10.5 11.0675676,11.8054054 8.96756757,14.1891892 C8.17297297,15.1540541 7.43513514,16.1756757 6.81081081,17.2540541 C5.84594595,18.9567568 4.5972973,20.3756757 2.95135135,21.5108108 C2.72432432,21.6810811 2.44054054,21.8513514 2.21351351,21.9648649 C1.64594595,22.2486486 0.964864865,22.0216216 0.681081081,21.5108108 C0.397297297,20.9432432 0.567567568,20.3189189 1.07837838,19.9783784 C2.44054054,19.1837838 3.51891892,18.0486486 4.37027027,16.7432432 C4.71081081,16.2324324 4.99459459,15.7216216 5.33513514,15.2108108 C6.35675676,13.5648649 7.54864865,12.0891892 9.08108108,10.8972973 C11.0675676,9.30810811 13.3945946,8.45675676 15.9486486,8.28648649 C18.9,8.11621622 21.6810811,8.68378378 24.1216216,10.3297297 C26.9027027,12.1459459 28.7756757,14.7567568 29.6837838,17.9351351 C29.9108108,18.7864865 29.9675676,19.6945946 29.8540541,20.6027027 C29.627027,22.3621622 29.4,24.1216216 29.172973,25.8810811 C29.0594595,26.5621622 29.0027027,27.3 28.9459459,27.9810811 C28.8891892,28.9459459 29.2864865,29.7405405 29.7405405,30.5351351 C30.2513514,31.3297297 30.8756757,32.0108108 31.5567568,32.6351351 C32.0108108,33.0891892 32.0675676,33.7702703 31.6702703,34.2243243 C31.272973,34.6783784 30.5918919,34.7918919 30.1378378,34.3945946 C28.5486486,32.9756757 27.1864865,31.3297297 26.7324324,29.172973 C26.5621622,28.3783784 26.5621622,27.5837838 26.6756757,26.7891892 C26.9027027,25.1432432 27.1864865,23.4972973 27.4135135,21.7945946 C27.527027,20.772973 27.6972973,19.6945946 27.527027,18.672973 C27.3567568,17.5378378 26.8459459,16.5162162 26.2216216,15.5513514 C24.5189189,12.827027 22.0783784,11.1243243 18.8432432,10.5567568 C18.2189189,10.5567568 17.5945946,10.5567568 16.9135135,10.5 Z" id="Shape"></path>
            <path d="M17.1972973,16.3459459 C19.2405405,16.4594595 20.772973,17.6513514 21.7378378,19.6945946 C22.5891892,21.6243243 22.4189189,23.4972973 21.5675676,25.3702703 C20.772973,27.1297297 19.6378378,28.6621622 18.4459459,30.1378378 C16.2324324,32.6918919 13.7918919,34.9621622 11.1810811,37.0621622 C10.0459459,37.9702703 8.85405405,38.8783784 7.71891892,39.7297297 C7.03783784,40.2405405 6.07297297,39.9 5.9027027,39.1054054 C5.78918919,38.6513514 5.95945946,38.1972973 6.35675676,37.8567568 C7.83243243,36.6648649 9.36486486,35.5297297 10.8405405,34.3378378 C13.2810811,32.2945946 15.5513514,30.1378378 17.4810811,27.6972973 C18.3891892,26.5054054 19.2405405,25.2567568 19.7513514,23.8378378 C20.2621622,22.4756757 20.1486486,21.227027 19.3540541,19.9783784 C18.5027027,18.6162162 16.9702703,18.2189189 15.5513514,18.9567568 C14.7,19.4108108 14.1324324,20.0918919 13.7351351,20.9432432 C13.1675676,22.0783784 12.6,23.2135135 11.9189189,24.2918919 C10.6702703,26.3351351 8.96756757,27.9243243 7.09459459,29.3432432 C5.56216216,30.4783784 4.02972973,31.6135135 2.44054054,32.7486486 C1.87297297,33.1459459 1.19189189,33.0324324 0.794594595,32.5216216 C0.397297297,32.0108108 0.567567568,31.3297297 1.13513514,30.8756757 C2.61081081,29.7972973 4.02972973,28.7756757 5.50540541,27.6972973 C8.22972973,25.7108108 10.272973,23.2135135 11.6351351,20.0918919 C12.3162162,18.6162162 13.3378378,17.4810811 14.8702703,16.8 C15.4378378,16.5162162 16.2324324,16.3459459 17.1972973,16.3459459 Z" id="Shape"></path>
            <path d="M25.9378378,21.227027 C25.9378378,22.6459459 25.6540541,24.0648649 25.427027,25.4837838 C25.1432432,26.8459459 24.8594595,28.1513514 24.972973,29.5135135 C25.0864865,30.8189189 25.3702703,32.1243243 26.0513514,33.2594595 C26.5621622,34.2243243 27.3567568,34.8486486 28.3783784,35.2459459 C28.5486486,35.3027027 28.7756757,35.4162162 28.9459459,35.472973 C29.5702703,35.7 29.8540541,36.3243243 29.6837838,36.9486486 C29.4567568,37.572973 28.8324324,37.8567568 28.2081081,37.6297297 C25.7675676,36.8351351 24.1783784,35.2459459 23.327027,32.8054054 C22.8162162,31.272973 22.4756757,29.7405405 22.6459459,28.1513514 C22.7594595,27.0162162 22.9864865,25.9378378 23.1567568,24.8594595 C23.3837838,23.6675676 23.6108108,22.5324324 23.6675676,21.3405405 C23.7243243,18.9 22.7027027,17.0837838 20.772973,15.7216216 C17.9918919,13.7918919 14.5864865,14.1324324 12.0891892,16.4594595 C11.0675676,17.4243243 10.2162162,18.5594595 9.64864865,19.8648649 C8.85405405,21.7378378 7.60540541,23.2702703 6.07297297,24.6324324 C4.88108108,25.7108108 3.63243243,26.6756757 2.27027027,27.527027 C1.53243243,27.9810811 0.681081081,27.6405405 0.510810811,26.7891892 C0.397297297,26.3351351 0.624324324,25.8810811 1.07837838,25.5972973 C2.1,24.8594595 3.17837838,24.0648649 4.2,23.2702703 C5.33513514,22.3621622 6.3,21.3405405 7.03783784,20.0351351 C7.43513514,19.3540541 7.71891892,18.5594595 8.11621622,17.8783784 C9.13783784,16.1189189 10.4432432,14.5864865 12.2027027,13.5081081 C15.7216216,11.3513514 20.0351351,11.8054054 23.1567568,14.6432432 C24.8027027,16.1189189 25.7675676,17.9351351 25.9945946,20.1486486 C25.9945946,20.2054054 25.9945946,20.2621622 25.9945946,20.3189189 C25.9378378,20.6594595 25.9378378,20.9432432 25.9378378,21.227027 Z" id="Shape"></path>
            <path d="M32.0108108,12.8837838 C32.0108108,13.3945946 31.727027,13.7918919 31.2162162,13.9621622 C30.7054054,14.1324324 30.1945946,13.9621622 29.9108108,13.5081081 C29.2297297,12.6 28.4918919,11.7486486 27.6405405,10.9540541 C25.4837838,8.96756757 23.0432432,7.49189189 20.1486486,6.81081081 C18.5027027,6.47027027 16.9135135,6.41351351 15.2675676,6.58378378 C13.6216216,6.75405405 11.9756757,7.15135135 10.5,7.88918919 C8.68378378,8.7972973 7.15135135,10.1027027 5.84594595,11.6351351 C4.88108108,12.827027 3.97297297,14.0756757 3.17837838,15.3810811 C2.89459459,15.8918919 2.32702703,16.0621622 1.81621622,15.8918919 C1.30540541,15.7216216 0.964864865,15.2675676 1.02162162,14.7 C1.02162162,14.5297297 1.07837838,14.3594595 1.19189189,14.2459459 C2.66756757,11.8621622 4.25675676,9.59189189 6.41351351,7.77567568 C8.51351351,6.01621622 10.8972973,4.93783784 13.5648649,4.42702703 C15.4378378,4.08648649 17.3108108,4.02972973 19.1837838,4.25675676 C21.6810811,4.54054054 23.9513514,5.44864865 26.0513514,6.75405405 C28.2648649,8.11621622 30.1378378,9.87567568 31.6702703,11.9756757 C31.8405405,12.2027027 31.8972973,12.4864865 32.0675676,12.7135135 C32.0675676,12.827027 32.0108108,12.827027 32.0108108,12.8837838 Z" id="Shape"></path>
            <path d="M16.8,0.227027027 C21.7378378,0.283783784 26.1081081,1.75945946 29.9675676,4.82432432 C30.3648649,5.16486486 30.5918919,5.50540541 30.4783784,6.07297297 C30.3081081,6.92432432 29.3432432,7.26486486 28.6621622,6.75405405 C28.1513514,6.41351351 27.6972973,6.01621622 27.1864865,5.67567568 C24.7459459,4.02972973 22.0216216,3.06486486 19.0702703,2.72432432 C16.4027027,2.44054054 13.7351351,2.61081081 11.1810811,3.46216216 C8.91081081,4.2 6.92432432,5.33513514 5.22162162,7.03783784 C4.99459459,7.26486486 4.76756757,7.54864865 4.54054054,7.77567568 C4.08648649,8.28648649 3.40540541,8.4 2.89459459,8.0027027 C2.38378378,7.60540541 2.32702703,6.92432432 2.72432432,6.35675676 C3.57567568,5.27837838 4.5972973,4.37027027 5.73243243,3.57567568 C8.17297297,1.87297297 10.8972973,0.851351351 13.8486486,0.510810811 C14.8702703,0.340540541 15.8351351,0.283783784 16.8,0.227027027 Z" id="Shape"></path>
            <path d="M18.0486486,22.0783784 C17.9918919,22.2486486 17.9351351,22.4756757 17.8783784,22.6459459 C17.1972973,24.2351351 16.2324324,25.5972973 15.2108108,26.9594595 C12.7135135,30.1945946 9.70540541,32.9189189 6.47027027,35.4162162 C5.73243243,35.9837838 5.05135135,36.4945946 4.31351351,37.0054054 C3.57567568,37.5162162 2.61081081,37.0621622 2.4972973,36.2108108 C2.44054054,35.7567568 2.66756757,35.4162162 3.00810811,35.1324324 C4.2,34.2243243 5.44864865,33.3162162 6.58378378,32.4081081 C9.25135135,30.2513514 11.6918919,27.8675676 13.6783784,25.1432432 C14.472973,24.0648649 15.2108108,22.9297297 15.7783784,21.6243243 C16.0054054,21.1135135 16.5162162,20.8864865 17.0837838,21 C17.6513514,21.0567568 18.0486486,21.5108108 18.0486486,22.0783784 Z" id="Shape"></path>
            <path d="M33.5432432,22.7594595 C33.5432432,24.972973 33.2594595,27.1297297 32.7486486,29.2864865 C32.6351351,29.8540541 32.1810811,30.2513514 31.6702703,30.2513514 C31.1594595,30.2513514 30.6486486,29.9108108 30.5351351,29.4567568 C30.4783784,29.2297297 30.4783784,29.0027027 30.5351351,28.7756757 C30.9891892,26.7324324 31.272973,24.6324324 31.2162162,22.5324324 C31.2162162,20.8864865 31.0459459,19.2405405 30.4783784,17.7081081 C30.4216216,17.5378378 30.3081081,17.3108108 30.2513514,17.1405405 C30.0243243,16.572973 30.2513514,15.8918919 30.8189189,15.6648649 C31.3864865,15.3810811 32.0675676,15.6081081 32.2945946,16.2324324 C32.5783784,17.027027 32.8621622,17.8216216 33.0324324,18.6162162 C33.4297297,19.9216216 33.5432432,21.3405405 33.5432432,22.7594595 Z" id="Shape"></path>
            <path d="M19.8081081,40.6378378 C19.8081081,41.3189189 19.4108108,41.772973 18.8432432,41.8864865 C18.3324324,42 17.7648649,41.6594595 17.5945946,41.1486486 C17.4243243,40.7513514 17.3675676,40.4108108 17.1972973,40.0135135 C16.9702703,39.6162162 16.7432432,39.2189189 16.4594595,38.8783784 C16.0621622,38.3675676 15.4378378,38.1972973 14.7,38.5945946 C13.8486486,39.1054054 13.1108108,39.7864865 12.4864865,40.5810811 C12.2594595,40.8081081 12.0324324,41.0351351 11.6918919,41.0918919 C11.2378378,41.1486486 10.8405405,41.0351351 10.5567568,40.6378378 C10.272973,40.2405405 10.2162162,39.7864865 10.5,39.3891892 C11.5783784,38.027027 12.7702703,36.8351351 14.4162162,36.2675676 C15.7216216,35.8135135 16.9135135,36.2108108 17.8783784,37.1189189 C18.7297297,37.8567568 19.1837838,38.8216216 19.5243243,39.9 C19.6378378,40.1837838 19.7513514,40.4675676 19.8081081,40.6378378 Z" id="Shape"></path>
            <path d="M18.7297297,33.4297297 C18.7297297,32.4081081 18.9567568,31.3864865 19.4675676,30.4783784 C19.6945946,30.0243243 20.2054054,29.7972973 20.7162162,29.9108108 C21.227027,30.0243243 21.5675676,30.4216216 21.6243243,30.9324324 C21.6243243,31.1594595 21.6243243,31.3864865 21.5108108,31.5567568 C20.8864865,32.8054054 20.8864865,34.1108108 21.5108108,35.3594595 C22.0783784,36.6081081 23.0432432,37.572973 24.1216216,38.3675676 C24.5756757,38.7081081 24.7459459,39.1621622 24.6324324,39.672973 C24.4054054,40.4108108 23.5540541,40.7513514 22.9864865,40.3540541 C21,38.9351351 19.4675676,37.2324324 18.9567568,34.7918919 C18.7864865,34.5081081 18.7297297,34.2810811 18.7297297,34.0540541 C18.7297297,33.827027 18.7297297,33.6567568 18.7297297,33.4297297 Z" id="Shape"></path>
            <path d="M15.7783784,40.5243243 C15.9486486,40.8648649 16.1756757,41.4324324 15.7783784,41.4324324 C15.3810811,41.4324324 13.9621622,41.1486486 13.9621622,40.7513514 C13.9621622,40.3540541 14.6432432,39.7297297 15.0405405,39.7297297 C15.4378378,39.7297297 15.5513514,40.127027 15.7783784,40.5243243 Z" id="Shape"></path>
        </g>
    </g>
</svg>