<?xml version="1.0" encoding="UTF-8"?>
<svg width="267px" height="300px" viewBox="0 0 267 300" version="1.1" xmlns="http://www.w3.org/2000/svg" xmlns:xlink="http://www.w3.org/1999/xlink">
    <!-- Generator: Sketch 48.1 (47250) - http://www.bohemiancoding.com/sketch -->
    <title>Group 2</title>
    <desc>Created with Sketch.</desc>
    <defs></defs>
    <g id="services" stroke="none" stroke-width="1" fill="none" fill-rule="evenodd" transform="translate(-298.000000, -1380.000000)">
        <g id="Group-2" transform="translate(303.000000, 1385.000000)">
            <path d="M0.311582711,83.6128928 C0.311582711,71.1840284 10.3853193,61.1044333 22.8200422,61.1044333 C29.7155281,61.1044333 35.8816275,64.215311 40.0089595,69.1013222 C41.7137908,71.1166554 43.0553934,73.4454197 43.9722528,75.9821618 C44.8334562,78.3665822 45.3255725,80.9267583 45.3255725,83.6099635 C45.3255725,94.6796497 37.3257543,103.868749 26.789194,105.746407 C25.5003182,105.977818 24.1762911,106.118423 22.8229715,106.118423 C21.4637933,106.118423 20.1426955,105.977818 18.8538197,105.746407 C8.31433016,103.871678 0.311582711,94.682579 0.311582711,83.6128928 Z" id="Path" stroke="#FFEBBD" stroke-width="10" fill="#FECE60"></path>
            <path d="M107.499187,30.1362612 C106.637983,27.7518409 106.142938,25.1887355 106.142938,22.5084595 C106.142938,10.0737366 116.228392,0 128.654327,0 C141.080262,0 151.165715,10.0737366 151.165715,22.5084595 C151.165715,25.1887355 150.67067,27.7518409 149.809467,30.1362612 C148.895536,32.670074 147.551005,34.9959091 145.843244,37.0171008 C141.715912,41.9031121 135.546883,45.0110605 128.654327,45.0110605 C121.76177,45.0110605 115.592741,41.9001828 111.465409,37.0171008 C109.757649,34.9959091 108.416046,32.670074 107.499187,30.1362612 Z" id="Path" stroke="#FFEBBD" stroke-width="10" fill="#FECE60"></path>
            <path d="M211.983081,83.6128928 C211.983081,80.9296876 212.478126,78.3695114 213.33933,75.9850911 C214.25326,73.4512783 215.597792,71.1225139 217.302623,69.1042515 C221.429955,64.2182402 227.596055,61.1102918 234.49154,61.1102918 C246.920405,61.1102918 257,71.1840284 257,83.6158221 C257,94.6855082 248.997253,103.874607 238.463622,105.755194 C237.174746,105.983677 235.850719,106.124282 234.49447,106.124282 C233.138221,106.124282 231.817123,105.983677 230.525318,105.755194 C219.991687,103.871678 211.983081,94.682579 211.983081,83.6128928 Z" id="Path" stroke="#FFEBBD" stroke-width="10" fill="#FECE60"></path>
            <path d="M256.997071,204.629549 C256.997071,217.058414 246.920405,227.138009 234.488611,227.138009 C227.971,227.138009 222.118332,224.34935 218.005646,219.920304 C216.204149,217.978202 214.73073,215.728528 213.6967,213.244513 C212.595297,210.5906 211.980152,207.684771 211.980152,204.632478 C211.980152,193.562792 219.982899,184.376622 230.51653,182.496035 C231.808335,182.270482 233.132362,182.126948 234.485682,182.126948 C235.84486,182.126948 237.165958,182.270482 238.454834,182.496035 C248.994323,184.373693 256.997071,193.559863 256.997071,204.629549 Z" id="Path" stroke="#FFEBBD" stroke-width="10" fill="#FECE60"></path>
            <path d="M149.639569,259.397986 C150.609155,261.908365 151.165715,264.632579 151.165715,267.49154 C151.165715,279.917476 141.08905,290 128.657256,290 C116.225462,290 106.148796,279.920405 106.148796,267.49154 C106.148796,264.632579 106.699498,261.914223 107.672013,259.397986 C108.6416,256.887607 110.047646,254.596923 111.796416,252.613812 C115.920819,247.941637 121.934597,244.98601 128.657256,244.98601 C135.376986,244.98601 141.390764,247.944566 145.515167,252.613812 C147.266866,254.593994 148.669983,256.881749 149.639569,259.397986 Z" id="Path" stroke="#FFEBBD" stroke-width="10" fill="#FECE60"></path>
            <path d="M45.3255725,204.629549 C45.3255725,207.681842 44.7104272,210.587671 43.6090242,213.241583 C42.5749942,215.728528 41.104504,217.975273 39.3000778,219.917375 C35.187392,224.346421 29.3347239,227.135079 22.817113,227.135079 C10.3882486,227.135079 0.308653448,217.058414 0.308653448,204.62662 C0.308653448,193.556934 8.31140089,184.370764 18.8450319,182.490177 C20.1339077,182.264624 21.4579348,182.12109 22.8141837,182.12109 C24.1704326,182.12109 25.4915304,182.264624 26.7804063,182.490177 C37.3198958,184.373693 45.3255725,193.559863 45.3255725,204.629549 Z" id="Path" stroke="#FFEBBD" stroke-width="10" fill="#FECE60"></path>
            <path d="M212.100252,101.1211 L185.725164,116.347411 C184.664771,113.907334 183.452056,111.543419 182.095807,109.279098 L208.116453,94.2549065 C209.12412,96.7418511 210.471581,99.0442521 212.100252,101.1211 Z M78.6928112,178.14315 C77.1139382,176.019434 75.6785992,173.790265 74.3721478,171.470288 L45.8264765,187.950324 C47.3789861,190.085757 48.63564,192.443814 49.5495702,194.968839 L78.6928112,178.14315 Z M124.934162,203.205927 L124.934162,238.650014 L132.872466,238.650014 L132.872466,203.164918 C131.475207,203.258654 130.07209,203.326027 128.654327,203.326027 C127.403531,203.326027 126.167382,203.279159 124.934162,203.205927 Z M132.875395,79.0403127 L132.875395,50.6176705 C131.492783,50.822719 130.092595,50.9662529 128.654327,50.9662529 C127.388885,50.9662529 126.155665,50.8549409 124.934162,50.6938314 L124.934162,79.0022323 C126.167382,78.9290007 127.406461,78.8792032 128.654327,78.8792032 C130.075019,78.8821325 131.478137,78.9465763 132.875395,79.0403127 Z M211.62864,187.754063 L183.056605,171.256452 C181.7648,173.579358 180.329461,175.814386 178.759376,177.941031 L207.841103,194.731568 C208.781396,192.21826 210.058555,189.87485 211.62864,187.754063 Z M49.4177534,94.0967263 L48.8026081,95.1659074 C48.0058484,96.9498288 47.0274745,98.6370845 45.8909203,100.20717 L45.4515308,100.974637 L71.6860133,116.121857 C72.7581237,113.68471 73.9737679,111.323724 75.3388047,109.062333 L49.4177534,94.0967263 Z M132.872466,197.195079 C131.478137,197.300532 130.075019,197.370835 128.654327,197.370835 C127.403531,197.370835 126.164453,197.312249 124.934162,197.233159 C108.187564,196.140544 93.4445814,187.7277 83.8658902,175.155301 C82.2635832,173.049161 80.8077393,170.82585 79.5100757,168.502944 C74.9785053,160.391814 72.3831779,151.053323 72.3831779,141.102615 C72.3831779,133.293199 73.9737679,125.858729 76.8473753,119.100918 C77.890193,116.646195 79.1058373,114.28228 80.470874,112.023818 C89.7244169,96.7242755 106.057989,86.2023616 124.931233,84.9691417 C126.164453,84.8900516 127.400602,84.8343956 128.651397,84.8343956 C130.07209,84.8343956 131.478137,84.9046979 132.872466,85.0101514 C151.619751,86.4044808 167.80979,96.9644751 176.95495,112.243513 C178.314128,114.507833 179.518055,116.877607 180.552085,119.335259 C183.364178,126.031555 184.919617,133.386935 184.919617,141.105544 C184.919617,150.965445 182.377016,160.230705 177.915748,168.289108 C176.632731,170.617873 175.182746,172.847042 173.589226,174.959041 C164.118918,187.519722 149.504823,195.961859 132.872466,197.195079 Z M117.499692,118.506278 C117.499692,123.351279 120.61057,127.475682 124.934162,129.010616 C126.09708,129.423642 127.344946,129.660913 128.651397,129.660913 C130.148251,129.660913 131.571873,129.359198 132.875395,128.826072 C136.935354,127.159322 139.803103,123.163806 139.803103,118.509207 C139.803103,113.854608 136.935354,109.862022 132.875395,108.195271 C131.571873,107.659216 130.145322,107.360431 128.651397,107.360431 C127.347875,107.360431 126.100009,107.597701 124.934162,108.013656 C120.613499,109.542732 117.499692,113.664205 117.499692,118.506278 Z M132.872466,166.080444 L142.298835,166.080444 L142.298835,156.891345 L142.298835,147.72275 L142.298835,147.517702 L142.465803,147.822345 L144.158918,150.877567 C145.854961,153.938647 146.73374,157.166695 147.187776,159.718084 C147.674034,162.413006 147.68868,164.349249 147.68868,164.5045 C147.68868,166.982657 149.706942,168.99799 152.188028,168.99799 C154.443561,168.99799 156.297785,167.331239 156.622933,165.163584 C156.655155,164.946819 156.687377,164.730053 156.687377,164.501571 C156.687377,164.290664 156.661014,160.321512 155.392642,155.286108 C155.029414,153.850769 154.575378,152.333411 153.983667,150.789689 C152.161665,146.023778 149.551691,142.11614 146.259199,139.140009 C144.012454,137.110029 141.425915,135.548732 138.564025,134.415107 C137.160907,133.858547 135.710922,133.372289 134.17013,133.038353 L133.786396,132.944617 L133.783467,132.950475 C133.481753,132.886031 133.180039,132.842093 132.875395,132.798154 C132.383279,132.73078 131.891163,132.683912 131.399046,132.683912 L125.903748,132.683912 C125.584459,132.683912 125.256381,132.745427 124.934162,132.774719 C124.588509,132.806941 124.242856,132.806941 123.897203,132.871385 L123.832759,132.973909 L123.290846,132.976839 C121.799851,133.301987 120.393804,133.76774 119.034626,134.292078 C116.134655,135.416915 113.518823,136.960637 111.248644,138.967182 C107.850698,141.969677 105.17921,145.93297 103.322057,150.78676 C102.683478,152.453511 102.19722,154.090969 101.825204,155.620044 C100.638852,160.500197 100.618347,164.290664 100.618347,164.498641 C100.618347,164.817931 100.653498,165.128433 100.717942,165.427218 C101.145615,167.44548 102.950041,168.974556 105.10012,168.983344 C107.578277,168.983344 109.59361,166.973869 109.611186,164.507429 C109.611186,164.360966 109.631691,162.562398 110.062292,160.031515 C110.504611,157.4274 111.38339,154.044101 113.138019,150.874638 L114.593863,148.250018 L115.00396,147.508914 L115.00396,148.012747 L115.00396,157.181342 L115.00396,166.080444 L124.937092,166.080444 L132.872466,166.080444 Z M224.519459,111.766043 L224.519459,176.482258 C227.796212,176.300643 231.124625,176.171756 234.519459,176.171756 C237.929053,176.171756 241.242707,176.300643 244.519459,176.482258 L244.519459,111.766043 C241.242707,111.947657 237.921673,112.073615 234.519459,112.073615 C231.124625,112.076545 227.803592,111.950586 224.519459,111.766043 Z M206.450038,214.216295 L149.847961,245.591338 C151.595406,248.369203 153.32178,251.217812 154.967628,254.187001 C156.620632,257.169099 158.114396,260.129772 159.544154,263.083733 L216.146231,231.708689 C214.398786,228.930825 212.678551,226.087249 211.029125,223.111606 C209.380715,220.143837 207.880812,217.178131 206.450038,214.216295 Z M51.5441535,213.216295 L108.146231,244.591338 C106.398786,247.369203 104.672411,250.217812 103.026563,253.187001 C101.373559,256.169099 99.8797959,259.129772 98.4500381,262.083733 L41.8479611,230.708689 C43.5954059,227.930825 45.3156403,225.087249 46.9650664,222.111606 C48.6134766,219.143837 50.1133798,216.178131 51.5441535,213.216295 Z M205.450038,77.0837325 L148.847961,45.7086889 C150.595406,42.9308247 152.32178,40.0822148 153.967628,37.1130261 C155.620632,34.130928 157.114396,31.1702557 158.544154,28.2162948 L215.146231,59.5913384 C213.398786,62.3692025 211.678551,65.2127778 210.029125,68.1884213 C208.380715,71.1561898 206.880812,74.1218967 205.450038,77.0837325 Z M51.5441535,76.0837325 L108.146231,44.7086889 C106.398786,41.9308247 104.672411,39.0822148 103.026563,36.1130261 C101.373559,33.130928 99.8797959,30.1702557 98.4500381,27.2162948 L41.8479611,58.5913384 C43.5954059,61.3692025 45.3156403,64.2127778 46.9650664,67.1884213 C48.6134766,70.1561898 50.1133798,73.1218967 51.5441535,76.0837325 Z M12.8479611,111.763114 L12.8479611,176.482258 C16.1259235,176.300643 19.4481826,176.171756 22.8516525,176.171756 C26.2551224,176.171756 29.5773816,176.300643 32.8479611,176.482258 L32.8479611,111.763114 C29.5773816,111.944728 26.2477396,112.070686 22.8516525,112.070686 C19.4407998,112.073615 16.1259235,111.947657 12.8479611,111.763114 Z" id="Shape" fill="#FFEFCB" fill-rule="nonzero"></path>
        </g>
    </g>
</svg>