<?xml version="1.0" encoding="UTF-8"?>
<svg width="60px" height="60px" viewBox="0 0 60 60" version="1.1" xmlns="http://www.w3.org/2000/svg" xmlns:xlink="http://www.w3.org/1999/xlink">
    <!-- Generator: Sketch 48.1 (47250) - http://www.bohemiancoding.com/sketch -->
    <title>Group 6</title>
    <desc>Created with Sketch.</desc>
    <defs></defs>
    <g id="careers-copy" stroke="none" stroke-width="1" fill="none" fill-rule="evenodd" transform="translate(-770.000000, -2696.000000)">
        <g id="Group-6" transform="translate(770.000000, 2696.000000)">
            <path d="M7.98082069,6.32827124e-14 L52.0184643,6.32827124e-14 C56.4263042,6.32827124e-14 60,4.02983505 60,9.00017531 L60,51.0003984 C60,55.9712487 56.4263042,60 52.0184643,60 L7.98082069,60 C3.57291583,60 5.46229728e-14,55.9712487 5.46229728e-14,51.0003984 L5.46229728e-14,9.00017531 C5.46229728e-14,4.02983505 3.57291583,6.32827124e-14 7.98082069,6.32827124e-14 Z" id="Rectangle" fill="#33BBFB"></path>
            <g id="noun_704694_cc" transform="translate(15.000000, 11.000000)" fill="#FFFFFF" fill-rule="nonzero">
                <path d="M27.7915,31.68 C27.8431667,32.4257143 27.8793333,34.0302857 27.9103333,35.1977143 C27.9159161,35.3963015 27.8405466,35.5886894 27.7013788,35.7310907 C27.5622109,35.8734921 27.3710846,35.953792 27.1715,35.9537143 L3.8285,35.9537143 C3.63071379,35.9510381 3.44226516,35.8695298 3.30533992,35.7274358 C3.16841467,35.5853418 3.09444873,35.3945297 3.1,35.1977143 C3.10224968,33.5488009 3.20750836,31.9016223 3.41516667,30.2657143 C3.5412843,29.5528823 3.72442264,28.8512208 3.96283333,28.1674286 C4.15470934,27.5000846 4.66207628,26.9681721 5.32166667,26.7428571 L11.8058333,24.6857143 C11.9362186,24.6508164 12.0692851,24.626734 12.2036667,24.6137143 C12.7203333,27.2622857 13.3713333,29.8388571 14.1256667,32.3691429 L14.1721667,32.3691429 C14.2238333,31.9062857 14.2755,31.4382857 14.322,30.9702857 C14.4305,29.9417143 14.5338333,28.9131429 14.6423333,27.8845714 C14.6819363,27.6508963 14.6569325,27.4108992 14.57,27.1902857 C14.477,26.9742857 14.4046667,26.7428571 14.3168333,26.5217143 C14.2107808,26.204034 14.266677,25.8548543 14.4666667,25.5857143 C14.5071436,25.5265023 14.5710201,25.487231 14.6423333,25.4777143 C15.2313333,25.4777143 15.8203333,25.4777143 16.4093333,25.4777143 C16.6625,25.4777143 16.864,26.0742857 16.7503333,26.4394286 C16.6898336,26.625592 16.6173502,26.8076832 16.5333333,26.9845714 C16.3842751,27.3257666 16.335889,27.7021527 16.3938333,28.0697143 C16.554,29.484 16.6935,30.8982857 16.8381667,32.3177143 C16.8381667,32.3177143 16.8381667,32.364 16.864,32.4565714 C16.9363333,32.2457143 16.988,32.0965714 17.0293333,31.9422857 C17.6906667,29.6382857 18.2796667,27.3137143 18.755,24.9428571 C18.8273333,24.5982857 18.8273333,24.5828571 19.1218333,24.6754286 C20.1551667,24.984 21.1471667,25.2977143 22.1598333,25.6217143 C23.3068333,25.9868571 24.4538333,26.3777143 25.6008333,26.7325714 C26.4286683,27.023398 27.0438079,27.7234535 27.2231667,28.5788571 C27.5286239,29.588139 27.7192627,30.62837 27.7915,31.68 Z M21.1833333,16.416 C21.1833333,13.2916463 18.6388183,10.7588571 15.5,10.7588571 C12.3611817,10.7588571 9.81666667,13.2916463 9.81666667,16.416 C9.81666667,19.5403537 12.3611817,22.0731429 15.5,22.0731429 C18.6388183,22.0731429 21.1833333,19.5403537 21.1833333,16.416 Z M30.535,15.3874286 L27.6933333,12.5382857 C27.5010844,12.3310982 27.2105682,12.2448582 26.9357135,12.3133854 C26.6608588,12.3819127 26.4454835,12.5942825 26.3740491,12.867212 C26.3026147,13.1401415 26.3865095,13.4301196 26.5928333,13.6234286 L28.2565,15.2897143 L25.1565,15.2897143 C24.7611604,10.587009 21.0012698,6.86186251 16.275,6.49028571 L16.275,2.96228571 L17.949,4.62857143 C18.2543601,4.91179769 18.73021,4.90344056 19.0253425,4.60966814 C19.320475,4.31589571 19.3288708,3.8422386 19.0443333,3.53828571 L16.151,0.658285714 C16.0038299,0.428917449 15.7454803,0.294459854 15.4722696,0.305041631 C15.1990589,0.315623408 14.9519866,0.469656595 14.8231667,0.709714286 L11.9608333,3.53828571 C11.696762,3.84373605 11.7133751,4.30004034 11.9989662,4.5856626 C12.2845573,4.87128485 12.7428904,4.88997868 13.051,4.62857143 L14.725,2.97257143 L14.725,6.48 C9.99784006,6.8629099 6.24609368,10.5995447 5.86416667,15.3051429 L2.73833333,15.3051429 L4.41233333,13.6388571 C4.61967495,13.4465445 4.70502415,13.1569143 4.63489839,12.8835886 C4.56477263,12.6102628 4.35035635,12.3968346 4.07576521,12.327032 C3.80117406,12.2572294 3.51020293,12.3421853 3.317,12.5485714 L0.4185,15.4285714 C0.188069844,15.5750633 0.0529897606,15.8322224 0.0636205272,16.104174 C0.0742512939,16.3761257 0.228997597,16.6220594 0.470166667,16.7502857 L3.31183333,19.5994286 C3.50408225,19.8066161 3.79459843,19.8928561 4.06945317,19.8243289 C4.3443079,19.7558016 4.55968321,19.5434318 4.63111758,19.2705023 C4.70255195,18.9975728 4.61865715,18.7075947 4.41233333,18.5142857 L2.74866667,16.848 L6.59783333,16.848 C7.02585401,16.848 7.37283333,16.5026197 7.37283333,16.0765714 C7.37283333,11.6101658 11.0103332,7.98942857 15.4974167,7.98942857 C19.9845001,7.98942857 23.622,11.6101658 23.622,16.0765714 C23.622,16.5026197 23.9689793,16.848 24.397,16.848 L28.2616667,16.848 L26.5928333,18.5142857 C26.3854917,18.7065983 26.3001425,18.9962286 26.3702683,19.2695543 C26.440394,19.5428801 26.6548103,19.7563082 26.9294015,19.8261108 C27.2039926,19.8959134 27.4949637,19.8109576 27.6881667,19.6045714 L30.5815,16.7245714 C30.7996318,16.5755641 30.9256157,16.3255043 30.9151256,16.0623729 C30.9046356,15.7992415 30.7591413,15.5599051 30.5298333,15.4285714 L30.535,15.3874286 Z" id="Shape"></path>
            </g>
        </g>
    </g>
</svg>