<?xml version="1.0" encoding="UTF-8"?>
<svg width="290px" height="280px" viewBox="0 0 290 280" version="1.1" xmlns="http://www.w3.org/2000/svg" xmlns:xlink="http://www.w3.org/1999/xlink">
    <!-- Generator: Sketch 48.1 (47250) - http://www.bohemiancoding.com/sketch -->
    <title>Group</title>
    <desc>Created with Sketch.</desc>
    <defs></defs>
    <g id="services" stroke="none" stroke-width="1" fill="none" fill-rule="evenodd" transform="translate(-1057.000000, -893.000000)">
        <g id="Group" transform="translate(1057.000000, 893.000000)">
            <ellipse id="Oval-2" fill="#65D8A4" cx="77.9375" cy="166.703704" rx="31.5892857" ry="31.6296296"></ellipse>
            <ellipse id="Oval-2" fill="#65D8A4" cx="257.245536" cy="187.574074" rx="31.5892857" ry="31.6296296"></ellipse>
            <ellipse id="Oval-2" fill="#65D8A4" cx="186.169643" cy="89.5740741" rx="31.5892857" ry="31.6296296"></ellipse>
            <path d="M0,140.000573 C0,217.197968 62.7344429,280 139.821813,280 C185.909241,280 228.851999,257.363659 254.988023,219.400311 C255.4766,219.422941 255.965176,219.438028 256.458273,219.438028 C274.861828,219.438028 289.827642,204.453499 289.827642,186.038172 C289.827642,175.833243 285.223269,166.687807 277.992561,160.556023 C279.099674,153.179175 279.666981,146.438626 279.666981,140.00095 C279.666981,62.803918 216.932161,0.000754356618 139.821813,0.000754356618 C62.7344429,0.000377178563 0,62.8035408 0,140.000573 Z M139.821813,23.5913876 C192.732362,23.5913876 237.513404,59.1649838 251.548022,107.678068 C240.137855,105.188312 228.885525,101.896675 217.924006,97.8333301 C218.736919,94.9501771 219.181798,91.9142669 219.181798,88.7746325 C219.181798,70.3592664 204.203177,55.3758479 185.811677,55.3758479 C175.541774,55.3758479 166.346965,60.0509762 160.226008,67.384459 C143.54396,55.5463326 128.439145,41.7608333 115.144362,26.2388039 C123.100966,24.5101946 131.355537,23.5913876 139.821813,23.5913876 Z M102.665505,29.6865932 C117.664844,47.9661751 135.001969,64.0630246 154.367609,77.6735131 C153.141082,81.1488363 152.46717,84.8836585 152.46717,88.7746325 C152.46717,107.189622 167.408122,122.174171 185.811677,122.174171 C196.86059,122.174171 206.664895,116.76958 212.741025,108.46788 C226.294223,113.562431 240.266686,117.531858 254.443318,120.313927 C255.538755,126.719173 256.117739,133.298676 256.117739,140.0117 C256.117739,143.99282 255.848777,148.179125 255.308216,152.667927 C245.073722,153.017571 236.002094,158.003872 230.116949,165.593836 C207.816459,157.385299 184.4631,152.285468 160.831737,150.374681 C142.606737,108.202346 113.36748,71.0412052 75.3658624,43.1658235 C83.7632024,37.5443542 92.9256149,32.9838882 102.665505,29.6865932 Z M65.482451,50.5664441 C101.544453,76.220244 129.590333,110.534818 147.599862,149.639183 C134.379664,149.239374 121.118784,149.839088 107.95057,151.453789 C102.372057,140.783407 91.2067444,133.480099 78.3707781,133.480099 C59.978901,133.480099 45.0255183,148.464272 45.0255183,166.879638 C45.0255183,167.02108 45.0330522,167.159882 45.0330522,167.300946 C39.5227217,169.44747 34.0628686,171.78824 28.6986966,174.311564 C25.3517396,163.463909 23.5458519,151.945253 23.5458519,140.0117 C23.5458519,104.101283 39.8726736,71.9392674 65.4801908,50.5664441 L65.482451,50.5664441 Z M185.811677,67.1649411 C197.726994,67.1649411 207.406989,76.8554127 207.406989,88.7746325 C207.406989,100.693475 197.726994,110.384701 185.811677,110.384701 C173.919714,110.384701 164.24198,100.693475 164.24198,88.7746325 C164.24198,85.2242507 165.10537,81.8756594 166.625721,78.9182023 C166.629488,78.9106587 166.637022,78.9031152 166.644556,78.8955716 C166.854377,78.5843993 167.026527,78.2588942 167.169296,77.9254683 C170.911408,71.4964597 177.865243,67.1653183 185.81243,67.1653183 L185.811677,67.1649411 Z M78.3707781,145.269192 C90.2860958,145.269192 99.9645838,154.960418 99.9645838,166.879638 C99.9645838,178.798858 90.2860958,188.490084 78.3707781,188.490084 C66.4780624,188.490084 56.7991976,178.798858 56.7991976,166.879638 C56.7991976,154.960418 66.4780624,145.269192 78.3707781,145.269192 Z M138.173761,161.307202 C143.038809,161.277027 147.90235,161.393576 152.758357,161.64704 C164.102602,190.10818 170.267632,220.792395 170.528684,252.308681 C160.646026,255.01456 150.333556,256.432375 139.821813,256.432375 C91.7947691,256.432375 50.4752005,227.12296 32.7651458,185.430788 C37.5480735,183.158287 42.4131213,181.029114 47.3286466,179.059865 C52.1955779,191.467893 64.2611978,200.279162 78.3707781,200.279162 C96.7739562,200.279162 111.739393,185.294627 111.739393,166.879638 C111.739393,165.538391 111.650869,164.217889 111.496423,162.917754 C120.360492,161.900881 129.26901,161.363024 138.173761,161.307202 Z M165.770618,162.663913 C185.821471,164.761403 205.611272,169.281511 224.606619,176.146915 C223.636623,179.274103 223.113767,182.595914 223.113767,186.037669 C223.113767,195.282677 226.880365,203.661699 232.959132,209.715415 C219.804103,227.316075 202.181065,240.600682 182.242091,248.420348 C181.57157,218.723571 175.895116,189.783429 165.770618,162.663913 Z M256.458273,164.4276 C268.374344,164.4276 278.053586,174.118826 278.053586,186.037669 C278.053586,197.956873 268.374344,207.648099 256.458273,207.648099 C244.566311,207.648099 234.888199,197.956873 234.888199,186.037669 C234.888199,174.118826 244.566311,164.4276 256.458273,164.4276 Z" id="Shape" fill="#CFF5E4" fill-rule="nonzero"></path>
        </g>
    </g>
</svg>