<?xml version="1.0" encoding="utf-8"?>
<!-- Generator: Adobe Illustrator 21.1.0, SVG Export Plug-In . SVG Version: 6.00 Build 0)  -->
<svg version="1.1" id="Layer_1" xmlns="http://www.w3.org/2000/svg" xmlns:xlink="http://www.w3.org/1999/xlink" x="0px" y="0px"
	 viewBox="0 0 48 48" style="enable-background:new 0 0 48 48;" xml:space="preserve">
<style type="text/css">
	.st0{fill:#177EB7;}
</style>
<g>
	<rect x="15.5" y="20.5" class="st0" width="3.7" height="11.6"/>
	<path class="st0" d="M29.3,20.3c-2.1,0-3.4,1.1-3.7,1.9v-1.8h-4.2c0.1,1,0,11.5,0,11.5h4.2v-6.2c0-0.4,0-0.7,0.1-0.9
		c0.3-0.7,0.9-1.4,2-1.4c1.4,0,2.1,1.1,2.1,2.6v6H34v-6.4C34,22,31.9,20.3,29.3,20.3z"/>
	<path class="st0" d="M17.3,15c-1.4,0-2.3,0.9-2.3,2s0.9,2,2.2,2l0,0c1.4,0,2.3-0.9,2.3-2C19.5,15.9,18.6,15,17.3,15z"/>
</g>
</svg>
