<?xml version="1.0" encoding="UTF-8"?>
<svg width="270px" height="270px" viewBox="0 0 270 270" version="1.1" xmlns="http://www.w3.org/2000/svg" xmlns:xlink="http://www.w3.org/1999/xlink">
    <!-- Generator: Sketch 48.1 (47250) - http://www.bohemiancoding.com/sketch -->
    <title>Group 3</title>
    <desc>Created with Sketch.</desc>
    <defs></defs>
    <g id="services" stroke="none" stroke-width="1" fill="none" fill-rule="evenodd" transform="translate(-1068.000000, -1994.000000)">
        <g id="Group-3" transform="translate(1068.000000, 1994.000000)">
            <path d="M103.434238,87.0876827 C109.916493,82.8601253 116.962422,80.0417537 124.290188,78.6325678 L124.290188,67.9227557 C124.290188,65.3862213 126.544885,63.131524 129.08142,63.131524 L142.045929,63.131524 C144.582463,63.131524 146.837161,65.3862213 146.837161,67.9227557 L146.837161,78.6325678 C154.164927,80.0417537 161.210856,82.8601253 167.411273,87.3695198 L175.020877,79.7599165 C176.993737,77.7870564 179.812109,78.0688935 181.784969,79.7599165 L190.803758,88.7787056 C192.776618,90.7515658 192.494781,93.5699374 190.803758,95.5427975 L182.912317,103.434238 C187.139875,109.916493 189.958246,116.962422 191.367432,124.290188 L202.077244,124.290188 C204.613779,124.290188 206.868476,126.544885 206.868476,129.08142 L206.868476,142.045929 C206.868476,144.582463 204.613779,146.837161 202.077244,146.837161 L191.367432,146.837161 C189.958246,154.164927 187.139875,161.210856 182.63048,167.411273 L190.240084,175.020877 C192.212944,176.993737 191.931106,179.812109 190.240084,181.784969 L181.221294,190.803758 C179.248434,192.776618 176.430063,192.494781 174.457203,190.803758 L166.565762,182.912317 C160.083507,187.139875 153.037578,189.958246 145.709812,191.367432 L145.709812,202.077244 C145.709812,204.613779 143.455115,206.868476 140.91858,206.868476 L127.954071,206.868476 C125.417537,206.868476 123.162839,204.613779 123.162839,202.077244 L123.162839,191.367432 C115.835073,189.958246 108.789144,187.139875 102.588727,182.63048 L94.9791232,190.240084 C93.006263,192.212944 90.1878914,191.931106 88.2150313,190.240084 L79.1962422,181.221294 C77.223382,179.248434 77.5052192,176.430063 79.1962422,174.457203 L86.8058455,166.847599 C82.5782881,160.365344 79.7599165,153.319415 78.3507307,145.991649 L67.6409186,145.991649 C65.1043841,145.991649 62.8496868,143.736952 62.8496868,141.200418 L62.8496868,128.235908 C62.8496868,125.699374 65.1043841,123.444676 67.6409186,123.444676 L78.3507307,123.444676 C79.7599165,116.11691 82.5782881,109.070981 87.0876827,102.870564 L79.4780793,95.2609603 C77.5052192,93.2881002 77.7870564,90.4697286 79.4780793,88.4968685 L88.4968685,79.4780793 C90.4697286,77.5052192 93.2881002,77.7870564 95.2609603,79.4780793 L103.434238,87.0876827 Z" id="Path" fill="#FFCDCE"></path>
            <path d="M165.156576,72.4321503 C164.592902,72.4321503 163.74739,72.4321503 163.183716,72.4321503 L156.419624,72.4321503 L156.419624,38.0480167 C156.419624,24.8016701 167.129436,14.091858 180.375783,14.091858 L187.703549,14.091858 C189.676409,6.20041754 197.004175,0.281837161 205.45929,0.281837161 C215.605428,0.281837161 223.778706,8.45511482 223.778706,18.6012526 C223.778706,28.7473904 215.605428,36.9206681 205.45929,36.9206681 C197.004175,36.9206681 189.676409,31.0020877 187.703549,23.1106472 L180.093946,23.1106472 C171.638831,23.1106472 164.874739,29.874739 164.874739,38.3298539 L164.874739,72.4321503 L165.156576,72.4321503 Z M130.490605,54.1127349 L130.490605,36.3569937 C122.599165,34.3841336 116.680585,27.0563674 116.680585,18.6012526 C116.680585,8.45511482 124.853862,0.281837161 135,0.281837161 C145.146138,0.281837161 153.319415,8.45511482 153.319415,18.6012526 C153.319415,27.0563674 147.400835,34.3841336 139.509395,36.3569937 L139.509395,54.1127349 L130.490605,54.1127349 Z M113.862213,38.0480167 L113.862213,72.4321503 L108.22547,72.4321503 C107.098121,72.4321503 106.25261,72.4321503 105.125261,72.7139875 L105.125261,38.0480167 C105.125261,29.5929019 98.3611691,22.82881 89.9060543,22.82881 L82.5782881,22.82881 C80.605428,30.7202505 73.2776618,36.6388309 64.822547,36.6388309 C54.6764092,36.6388309 46.5031315,28.4655532 46.5031315,18.3194154 C46.5031315,8.17327766 54.6764092,0 64.822547,0 C73.2776618,0 80.605428,5.91858038 82.5782881,13.8100209 L89.9060543,13.8100209 C103.152401,14.091858 113.862213,24.8016701 113.862213,38.0480167 Z M107.098121,197.849687 L113.862213,197.849687 L113.862213,232.23382 C113.862213,245.480167 103.152401,256.189979 89.9060543,256.189979 L82.5782881,256.189979 C80.605428,264.08142 73.2776618,270 64.822547,270 C54.6764092,270 46.5031315,261.826722 46.5031315,251.680585 C46.5031315,241.534447 54.6764092,233.361169 64.822547,233.361169 C73.2776618,233.361169 80.605428,239.279749 82.5782881,247.17119 L89.9060543,247.17119 C98.3611691,247.17119 105.125261,240.407098 105.125261,231.951983 L105.125261,197.56785 C105.688935,197.56785 106.25261,197.849687 107.098121,197.849687 Z M153.319415,251.680585 C153.319415,261.826722 145.146138,270 135,270 C124.853862,270 116.680585,261.826722 116.680585,251.680585 C116.680585,243.22547 122.599165,235.897704 130.490605,233.924843 L130.490605,216.169102 L139.227557,216.169102 L139.227557,233.643006 C147.400835,235.615866 153.319415,242.943633 153.319415,251.680585 Z M223.496868,251.680585 C223.496868,261.826722 215.323591,270 205.177453,270 C196.722338,270 189.394572,264.08142 187.421712,256.189979 L180.093946,256.189979 C166.847599,256.189979 156.137787,245.480167 156.137787,232.23382 L156.137787,197.849687 L161.77453,197.849687 C162.901879,197.849687 163.74739,197.849687 164.874739,197.56785 L164.874739,232.23382 C164.874739,240.688935 171.638831,247.453027 180.093946,247.453027 L187.421712,247.453027 C189.394572,239.561587 196.722338,233.643006 205.177453,233.643006 C215.323591,233.079332 223.496868,241.534447 223.496868,251.680585 Z M72.1503132,113.862213 L38.0480167,113.862213 C24.8016701,113.862213 14.091858,103.152401 14.091858,89.9060543 L14.091858,82.5782881 C6.20041754,80.605428 0.281837161,73.2776618 0.281837161,64.822547 C0.281837161,54.6764092 8.45511482,46.5031315 18.6012526,46.5031315 C28.7473904,46.5031315 36.9206681,54.6764092 36.9206681,64.822547 C36.9206681,73.2776618 31.0020877,80.605428 23.1106472,82.5782881 L23.1106472,89.9060543 C23.1106472,98.3611691 29.874739,105.125261 38.3298539,105.125261 L72.7139875,105.125261 C72.7139875,105.688935 72.7139875,106.534447 72.7139875,107.098121 L72.7139875,113.862213 L72.1503132,113.862213 Z M36.3569937,130.772443 L54.1127349,130.772443 L54.1127349,139.509395 L36.3569937,139.509395 C34.3841336,147.400835 27.0563674,153.319415 18.6012526,153.319415 C8.45511482,153.319415 0.281837161,145.146138 0.281837161,135 C0.281837161,124.853862 8.45511482,116.680585 18.6012526,116.680585 C27.0563674,116.680585 34.3841336,122.599165 36.3569937,130.772443 Z M22.82881,180.093946 L22.82881,187.421712 C30.7202505,189.394572 36.6388309,196.722338 36.6388309,205.177453 C36.6388309,215.323591 28.4655532,223.496868 18.3194154,223.496868 C8.17327766,223.496868 0,215.323591 0,205.177453 C0,196.722338 5.91858038,189.394572 13.8100209,187.421712 L13.8100209,180.093946 C13.8100209,166.847599 24.519833,156.137787 37.7661795,156.137787 L72.1503132,156.137787 L72.1503132,161.77453 C72.1503132,162.901879 72.1503132,163.74739 72.4321503,164.874739 L38.0480167,164.874739 C29.5929019,165.156576 22.82881,171.920668 22.82881,180.093946 Z M270,205.177453 C270,215.323591 261.826722,223.496868 251.680585,223.496868 C241.534447,223.496868 233.361169,215.323591 233.361169,205.177453 C233.361169,196.722338 239.279749,189.394572 247.17119,187.421712 L247.17119,180.093946 C247.17119,171.638831 240.407098,164.874739 231.951983,164.874739 L197.56785,164.874739 C197.56785,164.311065 197.56785,163.465553 197.56785,162.901879 L197.56785,156.137787 L231.951983,156.137787 C245.19833,156.137787 255.908142,166.847599 255.908142,180.093946 L255.908142,187.421712 C263.799582,189.394572 270,196.440501 270,205.177453 Z M270,135 C270,145.146138 261.826722,153.319415 251.680585,153.319415 C243.22547,153.319415 235.897704,147.400835 233.924843,139.509395 L216.169102,139.509395 L216.169102,130.772443 L233.643006,130.772443 C235.615866,122.881002 242.943633,116.962422 251.398747,116.962422 C261.544885,116.680585 270,124.853862 270,135 Z M270,64.822547 C270,73.2776618 264.08142,80.605428 256.189979,82.5782881 L256.189979,89.9060543 C256.189979,103.152401 245.480167,113.862213 232.23382,113.862213 L197.849687,113.862213 L197.849687,108.22547 C197.849687,107.098121 197.849687,106.25261 197.56785,105.125261 L232.23382,105.125261 C240.688935,105.125261 247.453027,98.3611691 247.453027,89.9060543 L247.453027,82.5782881 C239.561587,80.605428 233.643006,73.2776618 233.643006,64.822547 C233.643006,54.6764092 241.816284,46.5031315 251.962422,46.5031315 C261.544885,46.5031315 270,54.6764092 270,64.822547 Z" id="Shape" fill="#FFCDCE" fill-rule="nonzero"></path>
            <path d="M111.607516,111.325678 C98.3611691,124.290188 98.3611691,145.427975 111.325678,158.392484 C124.290188,171.356994 145.427975,171.638831 158.674322,158.674322 C171.638831,145.709812 171.920668,124.572025 158.956159,111.325678 C145.709812,98.3611691 124.572025,98.3611691 111.607516,111.325678 Z" id="Path" fill="#F3F4FA"></path>
            <path d="M120.06263,149.93737 C111.889353,141.764092 111.889353,128.235908 120.344468,120.06263 C128.517745,111.889353 142.045929,111.889353 150.219207,120.344468 C158.392484,128.517745 158.392484,142.045929 149.93737,150.219207 C141.482255,158.110647 128.235908,158.110647 120.06263,149.93737 Z" id="Path" fill="#FFCDCE"></path>
            <path d="M195.59499,18.3194154 C195.59499,23.6743215 199.822547,27.9018789 205.177453,27.9018789 C210.532359,27.9018789 214.759916,23.6743215 214.759916,18.3194154 C214.759916,12.9645094 210.532359,8.73695198 205.177453,8.73695198 C199.822547,8.73695198 195.59499,13.2463466 195.59499,18.3194154 Z" id="Path" fill="#F75E62"></path>
            <path d="M135,27.9018789 C140.354906,27.9018789 144.582463,23.6743215 144.582463,18.3194154 C144.582463,12.9645094 140.354906,8.73695198 135,8.73695198 C129.645094,8.73695198 125.417537,12.9645094 125.417537,18.3194154 C125.417537,23.6743215 129.645094,27.9018789 135,27.9018789 Z" id="Path" fill="#F75E62"></path>
            <path d="M74.4050104,18.3194154 C74.4050104,12.9645094 70.177453,8.73695198 64.822547,8.73695198 C59.4676409,8.73695198 55.2400835,12.9645094 55.2400835,18.3194154 C55.2400835,23.6743215 59.4676409,27.9018789 64.822547,27.9018789 C70.177453,27.9018789 74.4050104,23.6743215 74.4050104,18.3194154 Z" id="Path" fill="#F75E62"></path>
            <path d="M74.4050104,251.680585 C74.4050104,246.325678 70.177453,242.098121 64.822547,242.098121 C59.4676409,242.098121 55.2400835,246.325678 55.2400835,251.680585 C55.2400835,257.035491 59.4676409,261.263048 64.822547,261.263048 C70.177453,261.263048 74.4050104,256.753653 74.4050104,251.680585 Z" id="Path" fill="#F75E62"></path>
            <path d="M144.582463,251.680585 C144.582463,246.325678 140.354906,242.098121 135,242.098121 C129.645094,242.098121 125.417537,246.325678 125.417537,251.680585 C125.417537,257.035491 129.645094,261.263048 135,261.263048 C140.354906,261.263048 144.582463,256.753653 144.582463,251.680585 Z" id="Path" fill="#F75E62"></path>
            <path d="M214.759916,251.680585 C214.759916,246.325678 210.532359,242.098121 205.177453,242.098121 C199.822547,242.098121 195.59499,246.325678 195.59499,251.680585 C195.59499,257.035491 199.822547,261.263048 205.177453,261.263048 C210.532359,261.263048 214.759916,256.753653 214.759916,251.680585 Z" id="Path" fill="#F75E62"></path>
            <path d="M27.9018789,64.822547 C27.9018789,59.4676409 23.6743215,55.2400835 18.3194154,55.2400835 C12.9645094,55.2400835 8.73695198,59.4676409 8.73695198,64.822547 C8.73695198,70.177453 12.9645094,74.4050104 18.3194154,74.4050104 C23.6743215,74.4050104 27.9018789,70.177453 27.9018789,64.822547 Z" id="Path" fill="#F75E62"></path>
            <path d="M27.9018789,135 C27.9018789,129.645094 23.6743215,125.417537 18.3194154,125.417537 C12.9645094,125.417537 9.01878914,129.645094 9.01878914,135 C9.01878914,140.354906 13.2463466,144.582463 18.6012526,144.582463 C23.9561587,144.582463 27.9018789,140.354906 27.9018789,135 Z" id="Path" fill="#F75E62"></path>
            <path d="M18.3194154,195.59499 C12.9645094,195.59499 8.73695198,199.822547 8.73695198,205.177453 C8.73695198,210.532359 12.9645094,214.759916 18.3194154,214.759916 C23.6743215,214.759916 27.9018789,210.532359 27.9018789,205.177453 C27.9018789,199.822547 23.6743215,195.59499 18.3194154,195.59499 Z" id="Path" fill="#F75E62"></path>
            <path d="M260.981211,205.177453 C260.981211,199.822547 256.753653,195.59499 251.398747,195.59499 C246.043841,195.59499 242.098121,199.822547 242.098121,205.177453 C242.098121,210.532359 246.325678,214.759916 251.680585,214.759916 C257.035491,214.759916 260.981211,210.532359 260.981211,205.177453 Z" id="Path" fill="#F75E62"></path>
            <path d="M260.981211,135 C260.981211,129.645094 256.753653,125.417537 251.398747,125.417537 C246.043841,125.417537 242.098121,129.645094 242.098121,135 C242.098121,140.354906 246.325678,144.582463 251.680585,144.582463 C257.035491,144.582463 260.981211,140.354906 260.981211,135 Z" id="Path" fill="#F75E62"></path>
            <path d="M260.981211,64.822547 C260.981211,59.4676409 256.753653,55.2400835 251.398747,55.2400835 C246.043841,55.2400835 242.098121,59.4676409 242.098121,64.822547 C242.098121,70.177453 246.325678,74.4050104 251.680585,74.4050104 C257.035491,74.4050104 260.981211,70.177453 260.981211,64.822547 Z" id="Path" fill="#F75E62"></path>
        </g>
    </g>
</svg>