<?xml version="1.0" encoding="utf-8"?>
<!-- Generator: Adobe Illustrator 21.1.0, SVG Export Plug-In . SVG Version: 6.00 Build 0)  -->
<svg version="1.1" id="Layer_1" xmlns="http://www.w3.org/2000/svg" xmlns:xlink="http://www.w3.org/1999/xlink" x="0px" y="0px"
	 width="60px" height="60px" viewBox="0 0 60 60" style="enable-background:new 0 0 60 60;" xml:space="preserve">
<style type="text/css">
	.st0{fill:#1BEADA;}
	.st1{fill:#FFFFFF;}
</style>
<title>Group 6</title>
<desc>Created with Sketch.</desc>
<path id="Rectangle" class="st0" d="M8,0h44c4.4,0,8,4,8,9v42c0,5-3.6,9-8,9H8c-4.4,0-8-4-8-9V9C0,4,3.6,0,8,0z"/>
<path id="Shape" class="st1" d="M42.8,42.7c0.1,0.7,0.1,2.4,0.1,3.5c0,0.2-0.1,0.4-0.2,0.5c-0.1,0.1-0.3,0.2-0.5,0.2H18.9
	c-0.2,0-0.4-0.1-0.5-0.2c-0.1-0.1-0.2-0.3-0.2-0.5c0-1.6,0.1-3.3,0.3-4.9c0.1-0.7,0.3-1.4,0.5-2.1c0.2-0.7,0.7-1.2,1.4-1.4l6.5-2.1
	c0.1,0,0.3-0.1,0.4-0.1c0.5,2.6,1.2,5.2,1.9,7.8l0,0c0.1-0.5,0.1-0.9,0.1-1.4c0.1-1,0.2-2.1,0.3-3.1c0-0.2,0-0.5-0.1-0.7
	s-0.2-0.4-0.3-0.7s-0.1-0.7,0.1-0.9c0-0.1,0.1-0.1,0.2-0.1c0.6,0,1.2,0,1.8,0c0.3,0,0.5,0.6,0.3,1c-0.1,0.2-0.1,0.4-0.2,0.5
	c-0.1,0.3-0.2,0.7-0.1,1.1c0.2,1.4,0.3,2.8,0.4,4.2c0,0,0,0,0,0.1c0.1-0.2,0.1-0.4,0.2-0.5c0.7-2.3,1.3-4.6,1.7-7
	c0.1-0.3,0.1-0.4,0.4-0.3c1,0.3,2,0.6,3,0.9c1.1,0.4,2.3,0.8,3.4,1.1c0.8,0.3,1.4,1,1.6,1.8C42.5,40.6,42.7,41.6,42.8,42.7z
	 M36.2,27.4c0-3.1-2.5-5.7-5.7-5.7s-5.7,2.5-5.7,5.7s2.5,5.7,5.7,5.7S36.2,30.5,36.2,27.4z M45.5,26.4l-2.8-2.8
	c-0.2-0.2-0.5-0.3-0.8-0.2s-0.5,0.3-0.6,0.6s0,0.6,0.2,0.8l1.7,1.7h-3.1c-0.4-4.7-4.2-8.4-8.9-8.8v-3.5l1.7,1.7
	c0.3,0.3,0.8,0.3,1.1,0s0.3-0.8,0-1.1l-2.9-2.9c-0.1-0.2-0.4-0.4-0.7-0.4s-0.5,0.2-0.6,0.4l-2.9,2.8c-0.3,0.3-0.2,0.8,0,1
	s0.7,0.3,1.1,0l1.7-1.7v3.5c-4.7,0.4-8.5,4.1-8.9,8.8h-3.1l1.7-1.7c0.2-0.2,0.3-0.5,0.2-0.8s-0.3-0.5-0.6-0.6s-0.6,0-0.8,0.2
	l-2.9,2.9c-0.2,0.1-0.4,0.4-0.4,0.7s0.2,0.5,0.4,0.6l2.8,2.8c0.2,0.2,0.5,0.3,0.8,0.2s0.5-0.3,0.6-0.6s0-0.6-0.2-0.8l-1.7-1.7h3.8
	c0.4,0,0.8-0.3,0.8-0.8c0-4.5,3.6-8.1,8.1-8.1s8.1,3.6,8.1,8.1c0,0.4,0.3,0.8,0.8,0.8h3.9l-1.7,1.7c-0.2,0.2-0.3,0.5-0.2,0.8
	s0.3,0.5,0.6,0.6s0.6,0,0.8-0.2l2.9-2.9c0.2-0.1,0.3-0.4,0.3-0.7C45.9,26.8,45.8,26.6,45.5,26.4L45.5,26.4z"/>
</svg>
