<?xml version="1.0" encoding="utf-8"?>
<!-- Generator: Adobe Illustrator 21.1.0, SVG Export Plug-In . SVG Version: 6.00 Build 0)  -->
<svg version="1.1" id="Layer_1" xmlns="http://www.w3.org/2000/svg" xmlns:xlink="http://www.w3.org/1999/xlink" x="0px" y="0px"
	 viewBox="0 0 48 48" style="enable-background:new 0 0 48 48;" xml:space="preserve">
<style type="text/css">
	.st0{fill: #ffffff; fill-rule:evenodd;clip-rule:evenodd;}
</style>
<path class="st0" d="M29.3,30.8c-0.7,0-1.3-0.5-1.3-1.3c0-0.7,0.6-1.3,1.4-1.3c0.7,0,1.3,0.5,1.3,1.3C30.7,30.1,30,30.8,29.3,30.8z
	 M19,20.3c-0.7,0-1.4-0.5-1.4-1.4c0-0.8,0.6-1.4,1.4-1.4c0.8,0,1.4,0.5,1.4,1.4S19.7,20.3,19,20.3z M33.8,13.6
	c0.7,0,1.4,0.6,1.3,1.4c0,0.8-0.6,1.4-1.4,1.4s-1.3-0.5-1.3-1.4C32.4,14.2,33.1,13.6,33.8,13.6z M15,34.5c-0.7,0-1.3-0.5-1.3-1.3
	c0-0.8,0.5-1.3,1.3-1.3s1.3,0.5,1.3,1.3C16.3,34,15.7,34.5,15,34.5z M37.8,15c0.1-2.2-1.6-4-3.8-4c-2.2,0-4,1.8-4.1,4
	c0,1.6,0.9,3,2.2,3.6l-2.6,7c-0.5,0-1.2,0.1-1.6,0.4l-5.3-5.2c0.3-0.5,0.4-1.2,0.4-1.8c0-2.2-1.7-4-3.9-4s-4,1.8-4,4
	c0,1.2,0.5,2.3,1.3,3l-2.5,7.6c-1.6,0.4-2.9,2-2.9,3.7c0,2.1,1.7,3.8,3.9,3.8c2.1,0,3.9-1.7,3.9-3.8c0-1.6-0.9-2.9-2.2-3.4l2.4-6.9
	H19c0.5,0,1.2-0.1,1.8-0.4l5.2,5.2c-0.3,0.5-0.4,1.2-0.4,1.7c0,2.1,1.6,3.8,3.8,3.8c2.1,0,3.9-1.7,4-3.8c0-1.2-0.5-2.2-1.4-3.1
	l2.8-7.5C36.3,18.4,37.8,16.8,37.8,15z"/>
</svg>
