<?xml version="1.0" encoding="UTF-8"?>
<svg width="60px" height="60px" viewBox="0 0 60 60" version="1.1" xmlns="http://www.w3.org/2000/svg" xmlns:xlink="http://www.w3.org/1999/xlink">
    <!-- Generator: Sketch 48.1 (47250) - http://www.bohemiancoding.com/sketch -->
    <title>Group 6</title>
    <desc>Created with Sketch.</desc>
    <defs></defs>
    <g id="grakn" stroke="none" stroke-width="1" fill="none" fill-rule="evenodd" transform="translate(-450.000000, -2857.000000)">
        <g id="Group-6" transform="translate(450.000000, 2857.000000)">
            <path d="M7.98069069,-1.99840144e-14 L52.0184643,-1.99840144e-14 C56.4262392,-1.99840144e-14 60,4.0298988 60,9.00074906 L60,51.0009722 C60,55.9713125 56.4262392,60 52.0184643,60 L7.98069069,60 C3.57285083,60 5.46229728e-14,55.9713125 5.46229728e-14,51.0009722 L5.46229728e-14,9.00074906 C5.46229728e-14,4.0298988 3.57285083,-1.99840144e-14 7.98069069,-1.99840144e-14 Z" id="Rectangle" fill="#F75E62"></path>
            <g id="Group" transform="translate(15.000000, 12.500000)" fill="#FFFFFF" fill-rule="nonzero">
                <path d="M15,0.144275 C13.2699628,0.144275 11.8421053,1.58521648 11.8421053,3.33108819 C11.8421053,4.65443865 12.6652717,5.80315694 13.8157895,6.28138008 L13.8157895,7.31460467 C13.8097497,7.74558441 14.0341286,8.14646015 14.4030073,8.36372873 C14.771886,8.58099732 15.228114,8.58099732 15.5969927,8.36372873 C15.9658714,8.14646015 16.1902503,7.74558441 16.1842105,7.31460467 L16.1842105,6.28138008 C17.3347283,5.80315694 18.1578947,4.65443865 18.1578947,3.33108819 C18.1578947,1.58521648 16.7300376,0.144275 15,0.144275 Z M15,2.53438489 C15.4500347,2.53438489 15.7894737,2.87693544 15.7894737,3.33108819 C15.7894737,3.78521703 15.4500284,4.12779148 15,4.12779148 C14.5499716,4.12779148 14.2105263,3.78521703 14.2105263,3.33108819 C14.2105263,2.87693544 14.5499657,2.53438489 15,2.53438489 Z M6.71052632,3.72943984 C4.98048908,3.72943984 3.55263158,5.17038132 3.55263158,6.91625302 C3.55263158,8.66211676 4.98048316,10.1030662 6.71052632,10.1030662 C7.14869289,10.1030662 7.56296803,10.0080522 7.94407895,9.84164794 L8.24013158,10.1404117 C8.53032174,10.4757891 8.98118909,10.6205806 9.41007469,10.5161274 C9.83896029,10.4116741 10.1747574,10.0752936 10.2814251,9.64326315 C10.3880929,9.21123268 10.2479465,8.75518034 9.91776316,8.45986566 L9.62171053,8.16110192 C9.78260368,7.78050082 9.86842105,7.35271896 9.86842105,6.91625302 C9.86842105,5.17038132 8.44056395,3.72943984 6.71052632,3.72943984 Z M23.2894737,3.72943984 C21.5594361,3.72943984 20.1315789,5.17038132 20.1315789,6.91625302 C20.1315789,7.35271896 20.2173963,7.78050082 20.3782895,8.16110192 L20.0822368,8.45986566 C19.7520535,8.75518034 19.6119071,9.21123268 19.7185749,9.64326315 C19.8252426,10.0752936 20.1610397,10.4116741 20.5899253,10.5161274 C21.0188109,10.6205806 21.4696783,10.4757891 21.7598684,10.1404117 L22.0559211,9.84164794 C22.437032,10.0080522 22.8513071,10.1030662 23.2894737,10.1030662 C25.0195168,10.1030662 26.4473684,8.66211676 26.4473684,6.91625302 C26.4473684,5.17038132 25.0195109,3.72943984 23.2894737,3.72943984 Z M6.71052632,6.11954973 C7.16056105,6.11954973 7.5,6.46210027 7.5,6.91625302 C7.5,7.37038187 7.16055474,7.71295632 6.71052632,7.71295632 C6.26049789,7.71295632 5.92105263,7.37038187 5.92105263,6.91625302 C5.92105263,6.46210027 6.26049197,6.11954973 6.71052632,6.11954973 Z M23.2894737,6.11954973 C23.739508,6.11954973 24.0789474,6.46210027 24.0789474,6.91625302 C24.0789474,7.37038187 23.7395021,7.71295632 23.2894737,7.71295632 C22.8394453,7.71295632 22.5,7.37038187 22.5,6.91625302 C22.5,6.46210027 22.8394389,6.11954973 23.2894737,6.11954973 Z M15,9.70471456 C11.7439125,9.70471456 9.07894737,12.3940981 9.07894737,15.6799893 C9.07894737,18.9658327 11.7439054,21.655264 15,21.655264 C18.2560946,21.655264 20.9210526,18.9658327 20.9210526,15.6799893 C20.9210526,12.3940981 18.2560875,9.70471456 15,9.70471456 Z M15,12.0948245 C16.9760846,12.0948245 18.5526316,13.6858091 18.5526316,15.6799893 C18.5526316,17.6740978 16.9760775,19.2651541 15,19.2651541 C13.0239225,19.2651541 11.4473684,17.6740978 11.4473684,15.6799893 C11.4473684,13.6858091 13.0239154,12.0948245 15,12.0948245 Z M3.15789474,12.4931761 C1.4278575,12.4931761 0,13.9341176 0,15.6799893 C0,17.4258451 1.4278575,18.8668025 3.15789474,18.8668025 C4.47299132,18.8668025 5.60998697,18.0413123 6.08141447,16.8750442 L6.71052632,16.8750442 C7.13759516,16.8811394 7.53483319,16.6547056 7.7501302,16.2824489 C7.9654272,15.9101922 7.9654272,15.4497863 7.7501302,15.0775296 C7.53483319,14.705273 7.13759516,14.4788392 6.71052632,14.4849343 L6.08141447,14.4849343 C5.60733316,13.3243153 4.46893895,12.4931761 3.15789474,12.4931761 Z M26.8421053,12.4931761 C25.5310611,12.4931761 24.3926668,13.3243153 23.9185855,14.4849343 L23.2894737,14.4849343 C23.2483832,14.4827719 23.2072089,14.4827719 23.1661184,14.4849343 C22.7429879,14.5070998 22.3637262,14.7554117 22.1712263,15.1363144 C21.9787265,15.5172171 22.0022409,15.9728284 22.2329101,16.3314892 C22.4635794,16.69015 22.8663508,16.8973581 23.2894737,16.8750442 L23.9185855,16.8750442 C24.390013,18.0413123 25.5270087,18.8668025 26.8421053,18.8668025 C28.5721425,18.8668025 30,17.4258451 30,15.6799893 C30,13.9341176 28.5721425,12.4931761 26.8421053,12.4931761 Z M3.15789474,14.883286 C3.60792947,14.883286 3.94736842,15.2258365 3.94736842,15.6799893 C3.94736842,16.13415 3.60793184,16.4766926 3.15789474,16.4766926 C2.70786039,16.4766926 2.36842105,16.134142 2.36842105,15.6799893 C2.36842105,15.2258365 2.70786039,14.883286 3.15789474,14.883286 Z M26.8421053,14.883286 C27.2921396,14.883286 27.6315789,15.2258365 27.6315789,15.6799893 C27.6315789,16.134142 27.2921396,16.4766926 26.8421053,16.4766926 C26.3920682,16.4766926 26.0526316,16.13415 26.0526316,15.6799893 C26.0526316,15.2258365 26.3920705,14.883286 26.8421053,14.883286 Z M15,22.850319 C8.28737842,22.850319 2.76315789,27.9675243 2.76315789,34.3900683 L2.76315789,34.8008684 C2.76322328,35.4608517 3.29337409,35.9958574 3.94736842,35.9959234 L26.0526316,35.9959234 C26.7066259,35.9958574 27.2367767,35.4608517 27.2368421,34.8008684 L27.2368421,34.3900683 C27.2368421,27.9675243 21.7126216,22.850319 15,22.850319 Z M15,25.2404288 C20.2391546,25.2404288 24.3535993,28.9368135 24.7820724,33.6058135 L5.21792763,33.6058135 C5.64640066,28.9368135 9.76084579,25.2404288 15,25.2404288 Z" id="Shape"></path>
            </g>
        </g>
    </g>
</svg>