<?xml version="1.0" encoding="utf-8"?>
<!-- Generator: Adobe Illustrator 21.1.0, SVG Export Plug-In . SVG Version: 6.00 Build 0)  -->
<svg version="1.1" id="Layer_1" xmlns="http://www.w3.org/2000/svg" xmlns:xlink="http://www.w3.org/1999/xlink" x="0px" y="0px"
	 viewBox="0 0 48 48" style="enable-background:new 0 0 48 48;" xml:space="preserve">
<style type="text/css">
	.st0{fill:#21B5FA;}
</style>
<path class="st0" d="M13.6,14.7c1.3-1.4,3.2-2.2,5.1-2.2c2,0,3.7,0.8,5.1,2.2l0.1,0.1c0.3,0.3,0.7,0.3,1,0l0.1-0.1
	c1.4-1.4,3.2-2.2,5.1-2.2c1.9,0,3.8,0.8,5.1,2.2c1.4,1.4,2.1,3.3,2.1,5.3c0,1-0.2,2-0.6,2.9h-1.5c-0.1,0-0.2-0.1-0.3-0.2L34.4,21
	c-0.3-0.7-1-1.1-1.6-1.1l0,0c-0.7,0-1.4,0.5-1.7,1.1L29,26c-0.1,0.2-0.2,0.2-0.3,0.2c-0.1,0-0.2,0-0.3-0.2L27,23.6
	c-0.3-0.6-0.9-0.9-1.6-0.9h-0.9c-0.1,0-0.3-0.1-0.3-0.2l-1-2.3c-0.3-0.7-1-1.1-1.8-1.1c-0.7,0-1.4,0.5-1.6,1.2l-1.1,3.2
	c-0.1,0.2-0.2,0.2-0.2,0.2c-0.1,0-0.2,0-0.3-0.1l-1.7-2C16,21.3,15.5,21,15,21h-3.3c-0.1-0.4-0.1-0.8-0.1-1.2
	C11.5,18,12.2,16.1,13.6,14.7z M24.5,35.2l-10.9-10c-0.7-0.8-1.3-1.6-1.6-2.6h3c0.1,0,0.2,0,0.3,0.1l1.7,2c0.4,0.5,1.1,0.7,1.7,0.6
	s1.1-0.6,1.4-1.2l1.1-3.2c0.1-0.2,0.3-0.3,0.3-0.3c0.1,0,0.3,0,0.4,0.2l1,2.3c0.3,0.7,1,1.1,1.6,1.1h0.9c0.1,0,0.3,0.1,0.3,0.2
	l1.4,2.4c0.3,0.6,0.9,0.9,1.6,0.9h0.1c0.7,0,1.3-0.5,1.5-1.1l2-4.9c0.1-0.2,0.3-0.2,0.3-0.2c0.1,0,0.3,0,0.3,0.2l0.8,1.7
	c0.3,0.7,1,1.1,1.7,1.1H36c-0.2,0.3-0.4,0.6-0.6,0.8L24.5,35.2z M12.6,26.4L24,36.8c0.1,0.1,0.3,0.2,0.5,0.2s0.3-0.1,0.5-0.2
	l11.4-10.4l0,0c1.6-1.7,2.6-4,2.6-6.4s-0.9-4.7-2.6-6.4c-1.6-1.7-3.8-2.6-6.1-2.6c-2.2,0-4.2,0.8-5.8,2.3c-1.6-1.5-3.6-2.3-5.8-2.3
	c-2.3,0-4.5,0.9-6.1,2.6S10,17.6,10,20S10.9,24.7,12.6,26.4z"/>
</svg>
