<?xml version="1.0" encoding="utf-8"?>
<!-- Generator: Adobe Illustrator 21.1.0, SVG Export Plug-In . SVG Version: 6.00 Build 0)  -->
<svg version="1.1" id="Layer_1" xmlns="http://www.w3.org/2000/svg" xmlns:xlink="http://www.w3.org/1999/xlink" x="0px" y="0px"
	 viewBox="0 0 48 48" style="enable-background:new 0 0 48 48;" xml:space="preserve">
<style type="text/css">
	.st0{fill:#F75E62;}
</style>
<g>
	<path class="st0" d="M4.8,14.7v-7h37.6v7H4.8z M8.1,19.3v-2.8h31v2.8H8.1z M42.4,21v7H4.8v-7H42.4z M8.1,32.5v-2.8h31v2.8H8.1z
		 M42.4,34.3v7H4.8v-7H42.4z M42.9,16.5c0.7,0,1.4-0.6,1.4-1.3V7.3c0-0.7-0.6-1.3-1.4-1.3H4.4C3.6,6,3,6.6,3,7.3v7.8
		c0,0.7,0.6,1.3,1.4,1.3h1.9v2.8H4.4c-0.7,0-1.4,0.6-1.4,1.3v7.8c0,0.7,0.6,1.3,1.4,1.3h1.9v2.8H4.4C3.7,32.4,3,33,3,33.7v7.8
		C3,42.4,3.6,43,4.4,43h38.5c0.7,0,1.4-0.6,1.4-1.3v-7.8c0-0.7-0.6-1.3-1.4-1.3H41v-2.8h1.9c0.7,0,1.4-0.6,1.4-1.3v-7.8
		c0-0.7-0.6-1.3-1.4-1.3H41v-2.8h1.9V16.5z"/>
	<ellipse class="st0" cx="11.8" cy="11.2" rx="1.6" ry="1.6"/>
	<ellipse class="st0" cx="17.1" cy="11.2" rx="1.6" ry="1.6"/>
	<ellipse class="st0" cx="22.4" cy="11.2" rx="1.6" ry="1.6"/>
	<ellipse class="st0" cx="11.8" cy="24.5" rx="1.6" ry="1.6"/>
	<ellipse class="st0" cx="17.1" cy="24.5" rx="1.6" ry="1.6"/>
	<ellipse class="st0" cx="22.4" cy="24.5" rx="1.6" ry="1.6"/>
	<ellipse class="st0" cx="11.8" cy="37.8" rx="1.6" ry="1.6"/>
	<ellipse class="st0" cx="17.1" cy="37.8" rx="1.6" ry="1.6"/>
	<ellipse class="st0" cx="22.4" cy="37.8" rx="1.6" ry="1.6"/>
</g>
</svg>
