<?xml version="1.0" encoding="utf-8"?>
<!-- Generator: Adobe Illustrator 21.1.0, SVG Export Plug-In . SVG Version: 6.00 Build 0)  -->
<svg version="1.1" id="Layer_1" xmlns="http://www.w3.org/2000/svg" xmlns:xlink="http://www.w3.org/1999/xlink" x="0px" y="0px"
	 viewBox="0 0 48 48" style="enable-background:new 0 0 48 48;" xml:space="preserve">
<style type="text/css">
	.st0{fill:#9685FF;}
</style>
<g>
	<path class="st0" d="M14.7,25.1c1.1,0.9,2.2,1.7,3.4,2.6c0.1,1.6,0.3,3.2,0.5,4.7c-1,0.4-2.1,0.7-3.1,1c-3.5,0.8-5.2,0.4-5.7-0.4
		c-0.4-0.7-0.1-2.5,2.3-5.2C13,26.8,13.8,25.9,14.7,25.1L14.7,25.1z M18,25.5c-0.7-0.5-1.4-1-2-1.5c0.6-0.5,1.3-1,2-1.5
		c0,0.5,0,1,0,1.5S18,25,18,25.5z M9.8,15.1c0.4-0.7,2.2-1.2,5.7-0.4c1,0.3,2.1,0.6,3.1,0.9c-0.2,1.5-0.4,3.1-0.5,4.7
		c-1.2,0.9-2.3,1.7-3.4,2.5C10.8,19.3,9.1,16.3,9.8,15.1z M19.7,21.3c0.7-0.5,1.5-1,2.3-1.5s1.7-1,2.5-1.4c0.8,0.4,1.7,0.9,2.5,1.4
		s1.6,1,2.3,1.5c0,0.9,0.1,1.8,0.1,2.7c0,0.9,0,1.9-0.1,2.8c-0.8,0.5-1.5,1-2.3,1.5s-1.7,1-2.5,1.4c-0.8-0.4-1.7-0.9-2.5-1.4
		s-1.6-1-2.3-1.5c0-0.9-0.1-1.8-0.1-2.8S19.7,22.1,19.7,21.3L19.7,21.3z M20.2,16.3c0.8,0.3,1.7,0.7,2.5,1.1c-0.5,0.3-1,0.6-1.6,0.9
		c-0.4,0.3-0.9,0.5-1.3,0.8C19.9,18.1,20,17.2,20.2,16.3z M24.5,6.7c0.8,0,2.1,1.2,3.2,4.7c0.3,1,0.6,2.1,0.8,3.2
		c-1.3,0.5-2.7,1.2-4,1.9c-1.4-0.7-2.7-1.3-4-1.9C21.5,9.6,23.2,6.7,24.5,6.7z M29.1,19.1c-0.4-0.3-0.9-0.5-1.3-0.8
		c-0.5-0.3-1-0.6-1.6-0.9c0.9-0.4,1.7-0.8,2.5-1.1C29,17.2,29.1,18.2,29.1,19.1L29.1,19.1z M28.8,31.7c-0.8-0.3-1.6-0.7-2.5-1.1
		c0.5-0.3,1-0.6,1.6-0.9c0.4-0.3,0.9-0.5,1.3-0.8C29.1,29.9,29,30.8,28.8,31.7z M24.5,41.3c-0.8,0-2.1-1.2-3.2-4.7
		c-0.3-1-0.6-2.1-0.8-3.2c1.3-0.5,2.7-1.1,4-1.9c1.3,0.7,2.7,1.3,4,1.9C27.5,38.4,25.8,41.3,24.5,41.3z M19.9,28.9
		c0.4,0.3,0.9,0.6,1.3,0.8c0.5,0.3,1,0.6,1.6,0.9c-0.8,0.4-1.7,0.8-2.5,1.1C20,30.8,19.9,29.8,19.9,28.9z M36.8,14.3
		c1.3,0,2.1,0.3,2.4,0.8c0.4,0.7,0,2.5-2.3,5.2c-0.8,0.9-1.7,1.8-2.5,2.5c-1-0.9-2.2-1.7-3.4-2.6c-0.1-1.6-0.3-3.2-0.5-4.7
		C33,14.7,35.2,14.3,36.8,14.3z M31,22.5c0.7,0.5,1.3,1,2,1.5c-0.6,0.5-1.3,1-2,1.5c0-0.5,0-1,0-1.5S31,23,31,22.5z M39.2,32.9
		c-0.4,0.7-2.1,1.2-5.7,0.4c-1-0.3-2.1-0.6-3.1-0.9c0.2-1.5,0.4-3.1,0.5-4.7c1.2-0.8,2.3-1.7,3.3-2.6C38.2,28.7,39.9,31.7,39.2,32.9
		z M10.9,26.5c-2.6,3-3.5,5.5-2.5,7.2c0.7,1.1,2,1.7,3.9,1.7c1.2,0,2.4-0.2,3.6-0.5c1-0.2,2-0.6,3-0.9c1,5.2,2.9,9,5.6,9
		s4.6-3.8,5.6-9c2.5,0.9,4.8,1.4,6.6,1.4c1.9,0,3.2-0.5,3.9-1.6c1.4-2.4-1-6.1-5.1-9.8c4-3.6,6.5-7.4,5.1-9.8
		c-1.4-2.3-5.6-2-10.5-0.2c-1.1-5.1-3-9-5.6-9s-4.6,3.8-5.6,9c-1-0.4-2-0.7-3-0.9c-3.9-0.9-6.5-0.5-7.5,1.2c-1.4,2.4,1.1,6.1,5,9.7
		C12.6,24.8,11.7,25.6,10.9,26.5z"/>
	<ellipse class="st0" cx="24.5" cy="24" rx="3.1" ry="3.1"/>
</g>
</svg>
