<?xml version="1.0" encoding="utf-8"?>
<!-- Generator: Adobe Illustrator 21.1.0, SVG Export Plug-In . SVG Version: 6.00 Build 0)  -->
<svg version="1.1" id="Layer_1" xmlns="http://www.w3.org/2000/svg" xmlns:xlink="http://www.w3.org/1999/xlink" x="0px" y="0px"
	 viewBox="0 0 48 48" style="enable-background:new 0 0 48 48;" xml:space="preserve">
<style type="text/css">
	.st0{fill:#46CD90;}
</style>
<path class="st0" d="M39.8,31.7c-0.4,0-0.7-0.1-1-0.4L36.6,29l1.9-1.9l2.3,2.3c0.5,0.5,0.5,1.4,0,1.9C40.5,31.5,40.2,31.7,39.8,31.7
	z M41.3,28.9l-4.7-4.7c-0.8-0.8-2.1-0.8-2.9,0c-0.8,0.8-0.8,2.1,0,3l4.7,4.7c0.8,0.9,2.1,0.9,2.9,0.1c0.8-0.8,0.9-2.1,0.1-2.9
	L41.3,28.9z M30.8,29.9c0.4,0,0.7,0.1,0.9,0.4l2.3,2.3l-1.9,1.9l-2.3-2.3c-0.5-0.5-0.5-1.4,0-1.9C30.1,30,30.4,29.9,30.8,29.9z
	 M29.2,32.7l4.7,4.7c0.8,0.8,2.1,0.8,2.9,0c0.8-0.8,0.8-2.1,0-3l-4.7-4.7c-0.8-0.8-2.2-0.7-2.9,0.1C28.5,30.6,28.5,31.9,29.2,32.7
	L29.2,32.7z M20.8,27.5c0,0.7-0.5,1.2-1.2,1.2h-2.1v2.1c0,0.7-0.5,1.2-1.2,1.2s-1.2-0.5-1.2-1.2v-2.1H13c-0.7,0-1.2-0.5-1.2-1.2
	s0.5-1.2,1.2-1.2h2.1v-2.1c0-0.6,0.5-1.2,1.2-1.2s1.2,0.5,1.2,1.2v2.1h2.1C20.2,26.3,20.8,26.8,20.8,27.5z M16.3,34
	c-3.6,0-6.4-2.9-6.4-6.5s2.9-6.5,6.4-6.5s6.4,2.9,6.4,6.5S19.9,34,16.3,34z M26.6,19.7c-0.1-1.2-0.8-2.4-1.9-3l-2.2-1.5
	c-1-0.7-1.7-1.8-1.9-3v-0.4v-0.5H21c0.3,0,0.6-0.3,0.6-0.6V6.6C21.6,6.3,21.3,6,21,6h-9.6C11.2,6,11,6.3,11,6.6v4.1
	c0,0.3,0.3,0.6,0.6,0.6H12v0.5v0.4c-0.1,1.2-0.8,2.4-1.9,3l-2.2,1.5c-1.1,0.7-1.7,1.8-1.9,3v0.4V39c0,1.6,1.3,3,3,3h14.8
	c1.6,0,3-1.3,3-3V20.1C26.7,20,26.7,19.9,26.6,19.7z"/>
</svg>
