<?xml version="1.0" encoding="utf-8"?>
<!-- Generator: Adobe Illustrator 21.1.0, SVG Export Plug-In . SVG Version: 6.00 Build 0)  -->
<svg version="1.1" id="Layer_1" xmlns="http://www.w3.org/2000/svg" xmlns:xlink="http://www.w3.org/1999/xlink" x="0px" y="0px"
	 viewBox="0 0 48 48" style="enable-background:new 0 0 48 48;" xml:space="preserve">
<style type="text/css">
	.st0{fill:#9686FF;}
</style>
<path class="st0" d="M36.2,37.4L30,31.1l1.1-1.1l6.3,6.3L36.2,37.4z M10.3,20.3c0-5.5,4.5-10,10-10s10,4.5,10,10s-4.5,10-10,10
	S10.3,25.9,10.3,20.3z M38.8,35.8l-7.2-7.2c-0.1-0.1-0.3-0.2-0.5-0.2s-0.3,0.1-0.5,0.2L30,29.2l-1.3-1.3c1.8-2,2.9-4.6,2.9-7.5
	C31.7,14.1,26.6,9,20.3,9C14.1,9,9,14.1,9,20.3s5.1,11.3,11.3,11.3c2.9,0,5.5-1.1,7.5-2.9l1.3,1.3l-0.6,0.6c-0.3,0.3-0.3,0.7,0,1
	l7.2,7.2c0.1,0.1,0.3,0.2,0.5,0.2s0.3-0.1,0.5-0.2l2.1-2.1C39.1,36.5,39.1,36,38.8,35.8z"/>
</svg>
