<?xml version="1.0" encoding="utf-8"?>
<!-- Generator: Adobe Illustrator 21.1.0, SVG Export Plug-In . SVG Version: 6.00 Build 0)  -->
<svg version="1.1" id="Layer_1" xmlns="http://www.w3.org/2000/svg" xmlns:xlink="http://www.w3.org/1999/xlink" x="0px" y="0px"
	 viewBox="0 0 48 48" style="enable-background:new 0 0 48 48;" xml:space="preserve">
<style type="text/css">
	.st0{fill:#40ED79;}
</style>
<path class="st0" d="M13.7,16.9l10.1-4.8l10.4,4.8v6.8c0,0.4,0,0.9-0.1,1.3l-9.5-4.4c-0.5-0.2-1.1-0.2-1.7,0L13.7,25
	c0-0.4-0.1-0.7-0.1-1.1v-7H13.7z M25.2,35.4L23.8,36l-1.2-0.4c-4.4-1.6-7.6-5-8.6-9l9.8-4.6l10.1,4.6C32.9,30.5,29.6,33.9,25.2,35.4
	L25.2,35.4z M21.9,36.9l1.5,0.6c0.2,0.1,0.5,0.1,0.7,0l1.7-0.6C32,34.6,36,29.4,36,23.7v-7.2c0-0.3-0.2-0.5-0.5-0.7l-11.3-5.2
	c-0.3-0.1-0.6-0.1-0.8,0l-11,5.2c-0.3,0.1-0.4,0.4-0.4,0.7v7.4C12,29.5,15.9,34.6,21.9,36.9z"/>
</svg>
