<?xml version="1.0" encoding="utf-8"?>
<!-- Generator: Adobe Illustrator 21.1.0, SVG Export Plug-In . SVG Version: 6.00 Build 0)  -->
<svg version="1.1" id="Layer_1" xmlns="http://www.w3.org/2000/svg" xmlns:xlink="http://www.w3.org/1999/xlink" x="0px" y="0px"
	 viewBox="0 0 48 48" style="enable-background:new 0 0 48 48;" xml:space="preserve">
<style type="text/css">
	.st0{fill:#46CD90;}
</style>
<path class="st0" d="M26.4,14.7c1.9,0,3.4,1.6,3.4,3.5s-1.5,3.5-3.4,3.5S23,20.1,23,18.2S24.5,14.7,26.4,14.7z M17.6,20l1.5,0.3
	c0.2,0.7,0.4,1.3,0.8,1.9L19,23.5c-0.3,0.5-0.3,1.1,0.1,1.5l0.9,0.9c0.4,0.4,1,0.5,1.4,0.1l1.2-0.9c0.6,0.3,1.2,0.6,1.8,0.8l0.2,1.5
	c0.1,0.6,0.6,1,1.1,1H27c0.5,0,1-0.4,1.1-1l0.3-1.5c0.6-0.2,1.2-0.4,1.8-0.8l1.2,0.9c0.4,0.3,1,0.3,1.4-0.1l0.9-0.9
	c0.4-0.4,0.4-1.1,0.1-1.5L33,22.2c0.3-0.6,0.6-1.2,0.8-1.9l1.5-0.3c0.5-0.1,0.9-0.6,0.9-1.2v-1.3c0-0.6-0.4-1-0.9-1.1l-1.5-0.3
	c-0.2-0.7-0.4-1.3-0.8-1.9l0.9-1.3c0.3-0.5,0.3-1.1-0.1-1.5l-0.9-0.9c-0.4-0.4-1-0.5-1.4-0.1l-1.2,0.9c-0.6-0.3-1.2-0.6-1.8-0.8
	L28.1,9C28,8.4,27.5,8,27,8h-1.2c-0.6,0-1,0.4-1.1,1l-0.3,1.5c-0.6,0.2-1.3,0.4-1.8,0.8l-1.2-0.9c-0.4-0.3-1.1-0.3-1.4,0.1l-0.9,0.9
	c-0.4,0.4-0.4,1-0.1,1.5l0.9,1.3c-0.3,0.6-0.6,1.2-0.8,1.9l-1.5,0.3c-0.5,0.1-0.9,0.6-0.9,1.1v1.3C16.6,19.5,17,19.9,17.6,20z
	 M34.2,27.8c0.3,0,0.6,0.1,0.9,0.3l-4.4,2.3c-0.4-0.3-0.8-0.4-1.2-0.4l-0.6-0.1l4.7-1.9C33.8,27.8,34,27.8,34.2,27.8z M31.4,31.1
	l5-2.7c0.6-0.3,1.3-0.2,1.8,0.2c-2.2,1.4-4.8,3-6.5,4.1C31.9,32.2,31.7,31.6,31.4,31.1L31.4,31.1z M9.6,35.9c0.6,0,1,0.5,1,1.2
	c0,0.6-0.5,1.1-1.1,1c-0.6,0-1-0.5-1-1.1C8.5,36.4,9,35.9,9.6,35.9z M8.4,39.8l3.2-0.2c0.6,0,1.1-0.4,1.4-0.9
	c0.2,0.2,0.5,0.3,0.8,0.3l0,0l13.5,1h0.5c1.8,0,3.5-0.6,5-1.6l8.5-6.3c0.8-0.6,0.9-1.6,0.4-2.4c0-0.1-0.1-0.1-0.2-0.2l0,0
	c-0.5-0.6-1.4-0.7-2.1-0.3c-2.7,1.7-7.9,5-7.9,5c-0.7,0.4-1.4,0.7-2.2,0.7h-6c-0.2,0-0.4-0.2-0.4-0.4s0.2-0.4,0.3-0.4l6.1-0.1
	c0.8-0.1,1.4-0.8,1.3-1.6c-0.1-0.7-0.6-1.3-1.2-1.4l-3.6-0.3l-2.7-0.5c-0.6-0.1-1.2-0.2-1.8-0.5c-4.5-1.9-7.3-0.9-8.8-0.4
	c-0.3-0.5-0.9-0.9-1.5-0.8l-3.2,0.1c-1,0-1.8,0.9-1.8,2l0,0L6.4,38C6.4,39.1,7.3,39.9,8.4,39.8z"/>
</svg>
