<?xml version="1.0" encoding="utf-8"?>
<!-- Generator: Adobe Illustrator 21.1.0, SVG Export Plug-In . SVG Version: 6.00 Build 0)  -->
<svg version="1.1" id="Layer_1" xmlns="http://www.w3.org/2000/svg" xmlns:xlink="http://www.w3.org/1999/xlink" x="0px" y="0px"
	 viewBox="0 0 48 48" style="enable-background:new 0 0 48 48;" xml:space="preserve">
<style type="text/css">
	.st0{fill:#F75E62;}
</style>
<path class="st0" d="M35.2,36.9v1.4h-0.8V37c-0.8,0-1.6-0.3-2.1-0.6l0.3-0.9c0.5,0.3,1.2,0.6,1.9,0.6c1,0,1.6-0.5,1.6-1.3
	c0-0.7-0.5-1.2-1.5-1.6c-1.4-0.5-2.2-1.2-2.2-2.3c0-1.1,0.8-2,2-2.2v-1.4h0.8v1.3c0.8,0,1.4,0.2,1.8,0.5L36.7,30
	c-0.3-0.2-0.8-0.5-1.7-0.5c-1,0-1.4,0.6-1.4,1.2c0,0.7,0.5,1,1.7,1.5c1.4,0.6,2.1,1.3,2.1,2.5C37.3,35.7,36.5,36.7,35.2,36.9z
	 M24.1,18.4v1.4h-0.9v-1.4c-0.8,0-1.6-0.3-2.1-0.6l0.3-0.9c0.5,0.3,1.2,0.6,1.9,0.6c1,0,1.6-0.5,1.6-1.3c0-0.7-0.5-1.2-1.5-1.6
	c-1.4-0.5-2.2-1.2-2.2-2.3s0.8-2,2-2.2V8.7H24V10c0.8,0,1.4,0.2,1.8,0.5l-0.3,0.9c-0.3-0.2-0.8-0.5-1.7-0.5c-1,0-1.4,0.6-1.4,1.2
	c0,0.7,0.5,1.1,1.7,1.5c1.4,0.6,2.1,1.3,2.1,2.5C26.2,17.1,25.5,18.1,24.1,18.4z M13.6,36.9v1.4h-0.8V37c-0.8,0-1.6-0.3-2.1-0.6
	l0.3-0.9c0.5,0.3,1.2,0.6,1.9,0.6c1,0,1.6-0.5,1.6-1.3c0-0.7-0.5-1.2-1.5-1.6c-1.4-0.5-2.2-1.2-2.2-2.3c0-1.1,0.8-2,2-2.2v-1.4h0.8
	v1.3c0.8,0,1.4,0.2,1.8,0.5L15.1,30c-0.3-0.2-0.8-0.5-1.7-0.5c-1,0-1.4,0.6-1.4,1.2c0,0.7,0.5,1,1.7,1.5c1.4,0.6,2.1,1.3,2.1,2.5
	C15.8,35.7,15,36.7,13.6,36.9z M34.8,25.5c-0.5,0-1,0-1.4,0.1l-4.5-6.3c1.3-1.3,2.1-3.1,2.1-5.1c0-4-3.2-7.2-7.2-7.2
	s-7.2,3.2-7.2,7.2c0,1.9,0.8,3.7,2,5L14,25.6c-0.2,0-0.5,0-0.7,0c-4,0-7.2,3.2-7.2,7.2S9.2,40,13.2,40s7.2-3.2,7.2-7.2
	c0-3-1.8-5.6-4.4-6.7l4-5.6c1.1,0.6,2.3,1,3.7,1c1.3,0,2.5-0.4,3.6-1l4.1,5.8c-2.3,1.2-3.9,3.6-3.9,6.4c0,4,3.2,7.2,7.2,7.2
	s7.2-3.2,7.2-7.2S38.8,25.5,34.8,25.5z"/>
</svg>
