<?xml version="1.0" encoding="utf-8"?>
<!-- Generator: Adobe Illustrator 21.1.0, SVG Export Plug-In . SVG Version: 6.00 Build 0)  -->
<svg version="1.1" id="Layer_1" xmlns="http://www.w3.org/2000/svg" xmlns:xlink="http://www.w3.org/1999/xlink" x="0px" y="0px"
	 viewBox="0 0 48 48" style="enable-background:new 0 0 48 48;" xml:space="preserve">
<style type="text/css">
	.st0{fill:#F75E62;}
</style>
<path class="st0" d="M36.5,14.9l-0.1,20.9h1.7V16C37.4,15.9,36.8,15.5,36.5,14.9z M28.8,24.2c-0.3,0-0.6,0-0.9-0.2v11.9h1.7V24.1
	c-0.2,0.1-0.3,0.1-0.5,0.1H28.8z M19.4,35.8H21V18.7l-0.7-0.5l-1,0.9v16.7H19.4z M12.6,25.1c-0.2,0.1-0.5,0.2-0.8,0.2
	s-0.6-0.1-0.9-0.2v10.8h1.6L12.6,25.1L12.6,25.1z M11.7,24.2c0.2,0,0.4-0.1,0.6-0.2l8-7.1l8,6.1c0.2,0.2,0.4,0.2,0.7,0.2
	c0.2-0.1,0.4-0.2,0.6-0.3L37,12.1l0.3,2c0,0.4,0.4,0.7,0.8,0.7h0.2c0.4-0.1,0.8-0.5,0.7-0.9l-0.7-3.7c0-0.2-0.2-0.4-0.3-0.5
	s-0.4-0.2-0.6-0.2l-3.8,0.6c-0.5,0-0.8,0.5-0.7,0.9s0.5,0.8,0.9,0.6l1.7-0.3l-6.9,9.8L20.8,15c-0.3-0.3-0.8-0.2-1.1,0.1l-8.5,7.6
	c-0.3,0.3-0.3,0.8-0.1,1.1C11.3,24.1,11.5,24.2,11.7,24.2z M41,37.7c0,0.4-0.4,0.8-0.8,0.8H8.8c-0.4,0-0.8-0.4-0.8-0.8
	s0.4-0.8,0.8-0.8h31.3C40.6,36.9,41,37.3,41,37.7z"/>
</svg>
