<?xml version="1.0" encoding="UTF-8"?>
<svg width="1600px" height="525px" viewBox="0 0 1600 525" version="1.1" xmlns="http://www.w3.org/2000/svg" xmlns:xlink="http://www.w3.org/1999/xlink">
    <!-- Generator: Sketch 47.1 (45422) - http://www.bohemiancoding.com/sketch -->
    <title>Group 5</title>
    <desc>Created with Sketch.</desc>
    <defs>
        <linearGradient x1="3.73124848%" y1="59.9587262%" x2="92.9740858%" y2="59.9587245%" id="linearGradient-1">
            <stop stop-color="#5677FF" offset="0%"></stop>
            <stop stop-color="#FF8355" offset="100%"></stop>
        </linearGradient>
        <path d="M202,474.683769 C391.294224,354.590593 600.945654,288.386892 830.954291,276.072663 C1060.96293,263.758435 1317.3115,306.315723 1600,403.744529 C1386.52029,475.919126 1164.85017,515.627795 934.989611,522.870535 C697.30974,531.190956 452.97987,515.1287 202,474.683769 Z" id="path-2"></path>
        <filter x="-0.3%" y="-1.6%" width="100.6%" height="103.2%" filterUnits="objectBoundingBox" id="filter-3">
            <feGaussianBlur stdDeviation="3" in="SourceAlpha" result="shadowBlurInner1"></feGaussianBlur>
            <feOffset dx="2.1" dy="2.1" in="shadowBlurInner1" result="shadowOffsetInner1"></feOffset>
            <feComposite in="shadowOffsetInner1" in2="SourceAlpha" operator="arithmetic" k2="-1" k3="1" result="shadowInnerInner1"></feComposite>
            <feColorMatrix values="0 0 0 0 0   0 0 0 0 0   0 0 0 0 0  0 0 0 0.16 0" type="matrix" in="shadowInnerInner1"></feColorMatrix>
        </filter>
        <linearGradient x1="9.2485879%" y1="55.1110343%" x2="92.9740858%" y2="59.9587245%" id="linearGradient-4">
            <stop stop-color="#FD4B4B" offset="0%"></stop>
            <stop stop-color="#F68153" offset="100%"></stop>
        </linearGradient>
        <path d="M0.786616426,387.773012 C119.743565,377.427899 324.482048,372.521379 575.673342,422.222924 C973.200431,500.878956 1106.45174,170.525184 1352.91275,46.7410734 C1448.875,-1.45560119 1531.89408,-12.3790714 1601.96999,13.9706627 C1604.45313,13.625 1600.47266,401.785156 1600.59267,401.669001 C1580.78156,409.106429 1278.51463,527.33052 816.233728,523.92796 C435.923627,523.92796 156.396175,470.993429 0.727703298,432.547241 C1.0078125,432.488281 0.33984375,388.398438 0.786616426,387.773012 Z" id="path-5"></path>
        <filter x="-0.3%" y="-0.8%" width="100.5%" height="101.5%" filterUnits="objectBoundingBox" id="filter-6">
            <feGaussianBlur stdDeviation="3" in="SourceAlpha" result="shadowBlurInner1"></feGaussianBlur>
            <feOffset dx="2.1" dy="2.1" in="shadowBlurInner1" result="shadowOffsetInner1"></feOffset>
            <feComposite in="shadowOffsetInner1" in2="SourceAlpha" operator="arithmetic" k2="-1" k3="1" result="shadowInnerInner1"></feComposite>
            <feColorMatrix values="0 0 0 0 0   0 0 0 0 0   0 0 0 0 0  0 0 0 0.16 0" type="matrix" in="shadowInnerInner1"></feColorMatrix>
        </filter>
        <linearGradient x1="89.8469795%" y1="68.9584032%" x2="5.66522595%" y2="72.6103974%" id="linearGradient-7">
            <stop stop-color="#A26AEC" offset="0%"></stop>
            <stop stop-color="#6567DC" offset="100%"></stop>
        </linearGradient>
        <path d="M1.18605218,264.225622 C80.3995,366.130833 211.794828,428.386787 395.372035,450.993485 C885.74712,511.380945 1119.79918,229.960698 1393.02657,217.527066 C1472.91586,213.891582 1542.06634,223.697968 1600.478,246.946226 C1600.84423,247.607075 1601.25372,299.3909 1601.70646,402.297699 C1370.03434,485.706642 1102.64224,526.242206 799.530158,523.904392 C496.418076,521.566578 230.114432,491.241378 0.619226783,432.928793 C1.03453393,320.541369 1.22347573,264.306978 1.18605218,264.225622 Z" id="path-8"></path>
        <filter x="-0.3%" y="-1.3%" width="100.5%" height="102.6%" filterUnits="objectBoundingBox" id="filter-9">
            <feGaussianBlur stdDeviation="3" in="SourceAlpha" result="shadowBlurInner1"></feGaussianBlur>
            <feOffset dx="-2.1" dy="2.1" in="shadowBlurInner1" result="shadowOffsetInner1"></feOffset>
            <feComposite in="shadowOffsetInner1" in2="SourceAlpha" operator="arithmetic" k2="-1" k3="1" result="shadowInnerInner1"></feComposite>
            <feColorMatrix values="0 0 0 0 0   0 0 0 0 0   0 0 0 0 0  0 0 0 0.1 0" type="matrix" in="shadowInnerInner1"></feColorMatrix>
        </filter>
    </defs>
    <g id="Page-1" stroke="none" stroke-width="1" fill="none" fill-rule="evenodd">
        <g id="support" transform="translate(0.000000, -254.000000)">
            <g id="Group-5" transform="translate(-1.000000, 254.000000)">
                <g id="Path-5" opacity="0.6">
                    <use fill="url(#linearGradient-1)" fill-rule="evenodd" xlink:href="#path-2"></use>
                    <use fill="black" fill-opacity="1" filter="url(#filter-3)" xlink:href="#path-2"></use>
                </g>
                <g id="Path-2" opacity="0.6">
                    <use fill="url(#linearGradient-4)" fill-rule="evenodd" xlink:href="#path-5"></use>
                    <use fill="black" fill-opacity="1" filter="url(#filter-6)" xlink:href="#path-5"></use>
                </g>
                <g id="Path-3" opacity="0.75">
                    <use fill="url(#linearGradient-7)" fill-rule="evenodd" xlink:href="#path-8"></use>
                    <use fill="black" fill-opacity="1" filter="url(#filter-9)" xlink:href="#path-8"></use>
                </g>
            </g>
        </g>
    </g>
</svg>