<?xml version="1.0" encoding="UTF-8"?>
<svg width="110px" height="110px" viewBox="0 0 110 110" version="1.1" xmlns="http://www.w3.org/2000/svg" xmlns:xlink="http://www.w3.org/1999/xlink">
    <!-- Generator: Sketch 48.1 (47250) - http://www.bohemiancoding.com/sketch -->
    <title>noun_1171206_cc</title>
    <desc>Created with Sketch.</desc>
    <defs></defs>
    <g id="support" stroke="none" stroke-width="1" fill="none" fill-rule="evenodd" transform="translate(-1162.000000, -902.000000)">
        <g id="noun_1171206_cc" transform="translate(1162.000000, 902.000000)" fill-rule="nonzero">
            <rect id="Rectangle-path" fill="#83E9BB" x="52.0816327" y="0.785714286" width="5.7244898" height="5.7244898"></rect>
            <rect id="Rectangle-path" fill="#83E9BB" x="52.0816327" y="103.489796" width="5.7244898" height="5.7244898"></rect>
            <rect id="Rectangle-path" fill="#83E9BB" x="14.4795918" y="86.9897959" width="5.7244898" height="5.7244898"></rect>
            <rect id="Rectangle-path" fill="#83E9BB" x="88.1122449" y="86.9897959" width="5.7244898" height="5.7244898"></rect>
            <rect id="Rectangle-path" fill="#83E9BB" x="14.4795918" y="16.5" width="5.7244898" height="5.7244898"></rect>
            <rect id="Rectangle-path" fill="#83E9BB" x="88.1122449" y="16.5" width="5.7244898" height="5.7244898"></rect>
            <rect id="Rectangle-path" fill="#83E9BB" x="0.112244898" y="51.6326531" width="5.7244898" height="5.7244898"></rect>
            <rect id="Rectangle-path" fill="#83E9BB" x="104.163265" y="51.6326531" width="5.7244898" height="5.7244898"></rect>
            <path d="M10.5510204,26.1530612 C6.28571429,32.6632653 3.59183673,39.8469388 2.58163265,47.5918367 L2.46938776,48.2653061 L5.83673469,48.2653061 L5.94897959,47.7040816 C7.07142857,40.1836735 9.87755102,33 14.1428571,26.7142857 L14.8163265,25.8163265 L10.8877551,25.8163265 L10.5510204,26.1530612 Z" id="Shape" fill="#C0F5DD"></path>
            <path d="M5.7244898,61.2857143 L5.6122449,60.7244898 L2.35714286,60.7244898 L2.46938776,61.3979592 C3.47959184,69.3673469 6.06122449,76.6632653 10.3265306,83.3979592 L10.5510204,83.622449 L14.4795918,83.622449 L13.8061224,82.7244898 C9.54081633,76.3265306 6.73469388,68.9183673 5.7244898,61.2857143 Z" id="Shape" fill="#C0F5DD"></path>
            <path d="M104.05102,47.8163265 L104.163265,48.377551 L107.530612,48.377551 L107.418367,47.7040816 C106.295918,39.9591837 103.602041,32.7755102 99.4489796,26.2653061 L99.2244898,26.0408163 L95.2959184,26.0408163 L95.9693878,26.9387755 C100.122449,33.1122449 102.928571,40.2959184 104.05102,47.8163265 Z" id="Shape" fill="#C0F5DD"></path>
            <path d="M104.27551,60.7244898 L104.163265,61.2857143 C103.153061,68.9183673 100.346939,76.4387755 96.0816327,82.7244898 L95.4081633,83.7346939 L99.3367347,83.7346939 L99.5612245,83.5102041 C103.826531,76.8877551 106.520408,69.4795918 107.418367,61.5102041 L107.530612,60.8367347 L104.27551,60.7244898 Z" id="Shape" fill="#C0F5DD"></path>
            <path d="M82.0510204,13.4693878 L82.1632653,13.5816327 L87.7755102,13.5816327 L86.3163265,12.4591837 C79.244898,7.07142857 70.7142857,3.59183673 61.8469388,2.46938776 L61.1734694,2.35714286 L61.1734694,5.7244898 L61.7346939,5.83673469 C69.0306122,6.84693878 75.877551,9.31632653 82.0510204,13.4693878 Z" id="Shape" fill="#C0F5DD"></path>
            <path d="M23.4591837,12.4591837 L22,13.5816327 L27.6122449,13.5816327 L27.7244898,13.4693878 C34.0102041,9.31632653 40.8571429,6.84693878 48.2653061,5.83673469 L48.8265306,5.7244898 L48.8265306,2.35714286 L48.1530612,2.46938776 C39.1734694,3.59183673 30.6428571,7.07142857 23.4591837,12.4591837 Z" id="Shape" fill="#C0F5DD"></path>
            <path d="M82.6122449,96.3061224 C76.3265306,100.459184 69.1428571,103.265306 61.622449,104.27551 L61.0612245,104.387755 L61.0612245,107.755102 L61.7346939,107.642857 C70.8265306,106.408163 79.4693878,102.928571 86.7653061,97.3163265 L88.2244898,96.1938776 L82.6122449,96.3061224 Z" id="Shape" fill="#C0F5DD"></path>
            <path d="M27.2755102,96.3061224 L27.0510204,96.1938776 L21.5510204,96.1938776 L23.0102041,97.3163265 C30.3061224,102.928571 39.0612245,106.408163 48.1530612,107.642857 L48.8265306,107.755102 L48.8265306,104.387755 L48.2653061,104.163265 C40.744898,103.153061 33.4489796,100.346939 27.2755102,96.3061224 Z" id="Shape" fill="#C0F5DD"></path>
            <path d="M78.7959184,40.1836735 L74.4183673,41.8673469 C72.8469388,39.5102041 70.8265306,37.4897959 68.4693878,35.8061224 L70.6020408,30.755102 C70.7142857,30.4183673 70.7142857,29.9693878 70.6020408,29.6326531 C70.4897959,29.2959184 70.1530612,28.9591837 69.8163265,28.8469388 L63.0816327,25.9285714 C62.2959184,25.5918367 61.5102041,25.9285714 61.1734694,26.7142857 L58.9285714,31.877551 C56.4591837,31.4285714 53.877551,31.4285714 51.2959184,31.7653061 L49.3877551,27.0510204 C49.0510204,26.2653061 48.2653061,25.9285714 47.4795918,26.2653061 L40.6326531,28.9591837 C39.8469388,29.2959184 39.5102041,30.0816327 39.8469388,30.8673469 L41.6428571,35.4693878 C39.3979592,36.9285714 37.4897959,38.8367347 35.9183673,40.9693878 L30.4183673,38.6122449 C29.6326531,38.2755102 28.8469388,38.6122449 28.5102041,39.3979592 L25.5918367,46.1326531 C25.4795918,46.4693878 25.4795918,46.9183673 25.5918367,47.255102 C25.7040816,47.5918367 26.0408163,47.9285714 26.377551,48.0408163 L31.6530612,50.2857143 C31.0918367,53.0918367 30.9795918,56.0102041 31.4285714,58.9285714 L27.0510204,60.6122449 C26.2653061,60.9489796 25.9285714,61.7346939 26.2653061,62.5204082 L28.9591837,69.3673469 C29.2959184,70.1530612 30.0816327,70.4897959 30.8673469,70.1530612 L35.244898,68.4693878 C36.7040816,70.6020408 38.6122449,72.5102041 40.6326531,74.0816327 L38.5,78.9081633 C38.3877551,79.244898 38.3877551,79.6938776 38.5,80.0306122 C38.6122449,80.3673469 38.9489796,80.7040816 39.2857143,80.8163265 L46.0204082,83.7346939 C46.3571429,83.8469388 46.8061224,83.8469388 47.1428571,83.7346939 C47.4795918,83.622449 47.8163265,83.2857143 47.9285714,82.9489796 L49.9489796,78.2346939 C52.755102,78.7959184 55.7857143,78.9081633 58.7040816,78.3469388 L60.2755102,82.2755102 C60.6122449,83.0612245 61.3979592,83.3979592 62.1836735,83.0612245 L69.0306122,80.3673469 C69.8163265,80.0306122 70.1530612,79.244898 69.8163265,78.4591837 L68.244898,74.4183673 C70.6020408,72.7346939 72.622449,70.8265306 74.1938776,68.4693878 L78.2346939,70.1530612 C78.5714286,70.2653061 79.0204082,70.2653061 79.3571429,70.1530612 C79.6938776,70.0408163 80.0306122,69.7040816 80.1428571,69.3673469 L83.0612245,62.6326531 C83.1734694,62.2959184 83.1734694,61.8469388 83.0612245,61.5102041 C82.9489796,61.1734694 82.6122449,60.8367347 82.2755102,60.7244898 L78.122449,58.9285714 C78.5714286,56.3469388 78.5714286,53.7653061 78.122449,51.0714286 L82.5,49.3877551 C83.2857143,49.0510204 83.622449,48.2653061 83.2857143,47.4795918 L80.5918367,40.744898 C80.3673469,40.1836735 79.5816327,39.8469388 78.7959184,40.1836735 Z M60.2755102,68.6938776 C52.8673469,71.6122449 44.3367347,68.0204082 41.4183673,60.6122449 C38.5,53.2040816 42.0918367,44.6734694 49.5,41.755102 C56.9081633,38.8367347 65.4387755,42.4285714 68.3571429,49.8367347 C71.3877551,57.244898 67.6836735,65.6632653 60.2755102,68.6938776 Z" id="Shape" fill="#3DCE8C"></path>
        </g>
    </g>
</svg>