<?xml version="1.0" encoding="UTF-8"?>
<svg width="130px" height="114px" viewBox="0 0 130 114" version="1.1" xmlns="http://www.w3.org/2000/svg" xmlns:xlink="http://www.w3.org/1999/xlink">
    <!-- Generator: Sketch 48.1 (47250) - http://www.bohemiancoding.com/sketch -->
    <title>Group 4</title>
    <desc>Created with Sketch.</desc>
    <defs></defs>
    <g id="support" stroke="none" stroke-width="1" fill="none" fill-rule="evenodd" transform="translate(-749.000000, -900.000000)">
        <g id="Group-4" transform="translate(749.000000, 900.000000)">
            <g id="noun_545295_cc" fill="#CDC7FF" fill-rule="nonzero">
                <path d="M67.0953362,27.7333333 L78.5020051,27.7333333 L78.5020051,24.00157 C78.5020051,23.2399857 78.1978273,22.4784014 77.5894716,22.0214507 C74.2435154,19.2797471 70.5933814,17.4519447 69.9089812,17.0711525 C69.8329368,16.9949941 69.7568923,16.9188356 69.7568923,16.8426772 L69.7568923,14.2532904 C70.1371146,13.5678645 70.4412924,12.8824386 70.5173369,12.1970127 C70.8215147,12.1970127 71.201737,11.7400621 71.5819593,10.3692103 C72.1142705,8.38909098 71.5819593,8.08445724 71.0496481,8.16061567 C71.1256926,7.85598194 71.201737,7.62750663 71.2777815,7.32287289 C72.1142705,2.22025779 69.6048034,2.06794092 69.6048034,2.06794092 C69.6048034,2.06794092 69.2245811,1.30635657 68.0839142,0.697089096 C67.3234696,0.240138489 66.3348916,-0.0644952489 64.9660914,0.0116631856 C64.5098246,0.0116631856 64.1296023,0.08782162 63.74938,0.240138489 C63.2931133,0.392455358 62.8368465,0.620930661 62.3805797,0.925564399 C61.8482685,1.23019814 61.3920018,1.61099031 61.0117795,2.06794092 C60.3273793,2.75336683 59.7950681,3.59110961 59.4908903,4.73348612 C59.2627569,5.5712289 59.3388014,6.40897168 59.4908903,7.32287289 C59.5669348,7.62750663 59.6429792,7.85598194 59.7190237,8.16061567 C59.1867125,8.08445724 58.6544012,8.38909098 59.1867125,10.3692103 C59.5669348,11.8162205 59.9471571,12.1970127 60.2513349,12.1970127 C60.3273793,12.8824386 60.6315572,13.5678645 61.0117795,14.2532904 L61.0117795,16.8426772 C61.0117795,16.9188356 60.935735,16.9949941 60.8596906,17.0711525 C60.099246,17.4519447 56.5251564,19.2797471 53.1792002,22.0214507 C52.5708445,22.4784014 52.2666667,23.2399857 52.2666667,24.00157 L52.2666667,27.7333333 L63.6733356,27.7333333 L67.0953362,27.7333333 Z M121.108981,103.337819 C121.032937,103.261661 120.956892,103.185502 120.956892,103.109344 L120.956892,100.519957 C121.337115,99.8345312 121.641292,99.1491053 121.717337,98.4636794 C122.021515,98.4636794 122.401737,98.0067288 122.781959,96.6358769 C123.314271,94.6557576 122.781959,94.3511239 122.249648,94.4272823 C122.325693,94.1226486 122.401737,93.8941733 122.477781,93.5895396 C123.314271,88.4869245 120.804803,88.3346076 120.804803,88.3346076 C120.804803,88.3346076 120.424581,87.5730232 119.283914,86.9637558 C118.52347,86.5068052 117.534892,86.2021714 116.166091,86.2783299 C115.709825,86.2783299 115.329602,86.3544883 114.94938,86.5068052 C114.493113,86.659122 114.036847,86.8875973 113.58058,87.1922311 C113.048269,87.4968648 112.592002,87.877657 112.211779,88.3346076 C111.527379,89.0200335 110.995068,89.8577763 110.69089,91.0001528 C110.462757,91.8378956 110.538801,92.6756383 110.69089,93.5895396 C110.766935,93.8941733 110.842979,94.1226486 110.919024,94.4272823 C110.386712,94.3511239 109.854401,94.6557576 110.386712,96.6358769 C110.766935,98.0828872 111.147157,98.4636794 111.451335,98.4636794 C111.527379,99.1491053 111.831557,99.8345312 112.211779,100.519957 L112.211779,103.109344 C112.211779,103.185502 112.135735,103.261661 112.059691,103.337819 C111.299246,103.718611 107.725156,105.546414 104.3792,108.288117 C103.770845,108.745068 103.466667,109.506652 103.466667,110.268237 L103.466667,114 L114.873336,114 L118.295336,114 L129.702005,114 L129.702005,110.268237 C129.702005,109.506652 129.397827,108.745068 128.789472,108.288117 C125.443515,105.546414 121.869426,103.718611 121.108981,103.337819 Z M14.8286696,114 L26.2353384,114 L26.2353384,110.268237 C26.2353384,109.506652 25.9311606,108.745068 25.3228049,108.288117 C21.9768487,105.546414 18.3267147,103.718611 17.6423146,103.337819 C17.5662701,103.261661 17.4902256,103.185502 17.4902256,103.109344 L17.4902256,100.519957 C17.8704479,99.8345312 18.1746258,99.1491053 18.2506702,98.4636794 C18.5548481,98.4636794 18.9350704,98.0067288 19.3152927,96.6358769 C19.8476039,94.6557576 19.3152927,94.3511239 18.7829814,94.4272823 C18.8590259,94.1226486 18.9350704,93.8941733 19.0111148,93.5895396 C19.8476039,88.4869245 17.3381367,88.3346076 17.3381367,88.3346076 C17.3381367,88.3346076 16.9579144,87.5730232 15.8172475,86.9637558 C15.0568029,86.5068052 14.068225,86.2021714 12.6994247,86.2783299 C12.2431579,86.2783299 11.8629356,86.3544883 11.4827133,86.5068052 C11.0264466,86.659122 10.5701798,86.8875973 10.1139131,87.1922311 C9.58160187,87.4968648 9.12533511,87.877657 8.74511282,88.3346076 C8.06071268,89.0200335 7.52840147,89.8577763 7.22422363,91.0001528 C6.99609025,91.8378956 7.07213471,92.6756383 7.22422363,93.5895396 C7.30026809,93.8941733 7.37631255,94.1226486 7.45235701,94.4272823 C6.92004579,94.3511239 6.38773458,94.6557576 6.92004579,96.6358769 C7.30026809,98.0828872 7.68049039,98.4636794 7.98466822,98.4636794 C8.06071268,99.1491053 8.36489052,99.8345312 8.74511282,100.519957 L8.74511282,103.109344 C8.74511282,103.185502 8.66906836,103.261661 8.5930239,103.337819 C7.8325793,103.718611 4.25848972,105.546414 0.912533511,108.288117 C0.304177837,108.745068 0,109.506652 0,110.268237 L0,114 L11.4066689,114 L14.8286696,114 Z" id="Shape"></path>
            </g>
            <g id="Group-3" transform="translate(30.933333, 40.400000)" fill="#796DE3">
                <path d="M67.84,33.92 C67.84,50.9866667 55.04,65.28 38.4,67.4133333 L38.4,51.2 C46.08,49.28 51.84,42.24 51.84,33.92 C51.84,32.64 51.6266667,31.5733333 51.4133333,30.5066667 L66.1333333,23.4666667 C67.2,26.88 67.84,30.2933333 67.84,33.92 Z" id="Path"></path>
                <path d="M29.8666667,16.64 L29.8666667,0.426666667 C13.2266667,2.56 0.426666667,16.64 0.426666667,33.92 C0.426666667,51.2 13.2266667,65.28 29.8666667,67.4133333 L29.8666667,51.2 C22.1866667,49.28 16.4266667,42.24 16.4266667,33.92 C16.4266667,25.6 21.9733333,18.56 29.8666667,16.64 Z" id="Path"></path>
                <path d="M62.5066667,15.5733333 C57.1733333,7.46666667 48.64,1.70666667 38.6133333,0.426666667 L38.6133333,16.64 C42.24,17.4933333 45.6533333,19.6266667 48,22.6133333 L62.5066667,15.5733333 Z" id="Path"></path>
            </g>
        </g>
    </g>
</svg>