<?xml version="1.0" encoding="UTF-8"?>
<svg width="108px" height="110px" viewBox="0 0 108 110" version="1.1" xmlns="http://www.w3.org/2000/svg" xmlns:xlink="http://www.w3.org/1999/xlink">
    <!-- Generator: Sketch 48.1 (47250) - http://www.bohemiancoding.com/sketch -->
    <title>Group 2</title>
    <desc>Created with Sketch.</desc>
    <defs></defs>
    <g id="support" stroke="none" stroke-width="1" fill="none" fill-rule="evenodd" transform="translate(-346.000000, -904.000000)">
        <g id="Group-2" transform="translate(346.000000, 904.000000)" fill-rule="nonzero">
            <g id="Group" transform="translate(0.000000, 31.869159)" fill="#FFC3C5">
                <path d="M67.9748292,12.5395177 L53.0793651,27.1126145 C55.7464583,30.3752481 57.2687144,34.3437597 57.2687144,38.5831314 C57.2687144,42.8142953 55.7464583,46.7828068 53.0793651,50.0454404 L67.9748292,64.6267451 C81.570295,49.8443473 81.570295,27.3219155 67.9748292,12.5395177 Z" id="Shape"></path>
                <path d="M50.0684817,25.0790354 L64.6603175,10.2197069 C57.4916778,3.64063998 48.3317494,0 38.6052275,0 C28.8745998,0 19.7146714,3.64063998 12.5460317,10.2197069 L27.1419733,25.0790354 C33.8507689,19.6243452 43.3596861,19.6243452 50.0684817,25.0790354 Z" id="Shape"></path>
                <path d="M20.8996593,38.5851836 C20.8996593,34.3454778 22.421502,30.3766535 25.0920635,27.1137628 L10.1922588,12.5395177 C-3.39532332,27.3148718 -3.39951573,49.8472868 10.1922588,64.6267451 L25.0836787,50.0442915 C22.421502,46.7937136 20.8996593,42.8166808 20.8996593,38.5851836 Z" id="Shape"></path>
                <path d="M27.1390172,53.0518057 L12.5460317,67.9027745 C19.7152362,74.4902011 28.8717802,78.1308411 38.6031746,78.1308411 C48.334569,78.1308411 57.491113,74.4902011 64.6603175,67.9027745 L50.067332,53.0518057 C43.3580078,58.4981362 33.8442353,58.4981362 27.1390172,53.0518057 Z" id="Shape"></path>
            </g>
            <g id="Group" transform="translate(58.628571, 0.000000)" fill="#F75E62">
                <path d="M25.3404735,4.66141522 C19.6351347,-1.04154873 10.3521306,-1.04331108 4.64796735,4.65730307 C-0.269779592,9.57484646 -1.04267755,17.3327103 2.81123265,23.1049933 C2.87412245,23.2007477 2.89116735,23.32 2.85472653,23.4280908 L1.45234286,27.6518558 C1.36653061,27.9044593 1.43118367,28.1776235 1.62161633,28.3667824 C1.81028571,28.5553538 2.08182857,28.6193858 2.33103673,28.5330307 L6.55582041,27.127263 C6.6645551,27.0908411 6.7850449,27.1072897 6.88084898,27.1707343 C10.7676735,29.7637383 15.6907102,30.3335648 20.0794776,28.7063284 C20.8288653,26.811215 21.9685224,25.0377036 23.498449,23.5073965 C25.0095673,21.9970628 26.7804735,20.8409613 28.7106612,20.0790387 C30.6913959,14.7326569 29.3801143,8.69895861 25.3404735,4.66141522 Z M15.0394776,24.3298264 C14.2994939,24.3298264 13.6964571,23.7276903 13.6964571,22.9875033 C13.6964571,22.246729 14.2994939,21.6440053 15.0394776,21.6440053 C15.7806367,21.6440053 16.3836735,22.2461415 16.3836735,22.9875033 C16.3830857,23.7276903 15.7806367,24.3298264 15.0394776,24.3298264 Z M15.4121143,16.8627503 L15.4121143,20.8644593 C15.4121143,21.0700668 15.2451918,21.2369025 15.0394776,21.2369025 C14.834351,21.2369025 14.6668408,21.0694793 14.6668408,20.8644593 L14.6668408,16.5038184 C14.6668408,16.2982109 14.834351,16.1313752 15.0394776,16.1313752 C17.7214041,16.1313752 19.9019755,13.9513485 19.9019755,11.2714019 C19.9019755,8.59086782 17.7208163,6.41142857 15.0394776,6.41142857 C12.3581388,6.41142857 10.1775673,8.59145527 10.1775673,11.2714019 C10.1775673,11.4775968 10.0100571,11.6438451 9.80434286,11.6438451 C9.59921633,11.6438451 9.43170612,11.4775968 9.43170612,11.2714019 C9.43170612,8.18024032 11.9467102,5.66595461 15.0394776,5.66595461 C18.1322449,5.66595461 20.6478367,8.18024032 20.6478367,11.2714019 C20.647249,14.2368491 18.3314939,16.6700668 15.4121143,16.8627503 Z" id="Shape"></path>
                <path d="M46.5020082,42.8110013 C46.4655673,42.7017356 46.4820245,42.5818959 46.545502,42.4855541 C50.4011755,36.7150334 49.627102,28.9571696 44.7087673,24.0396262 C41.9439673,21.2774366 38.2693224,19.7559413 34.3619265,19.7559413 C32.5598694,19.7559413 30.8077714,20.0808011 29.172049,20.6999733 C29.1426612,20.7158344 29.1126857,20.7275834 29.0797714,20.7352203 C27.2065959,21.4583712 25.488,22.5733511 24.0244898,24.035514 C18.3185633,29.738478 18.3168,39.0160748 24.0203755,44.7172764 C24.6204735,45.3170628 25.2640653,45.8581041 25.944098,46.3386382 C25.9582041,46.3480374 25.972898,46.3574366 25.9858286,46.3685981 C28.4250122,48.0786649 31.3255837,48.9997864 34.3689796,48.9997864 C37.2724898,48.9997864 40.0772571,48.1550334 42.4758857,46.5536449 C42.5716898,46.4913752 42.6910041,46.4737517 42.8009143,46.5101736 L47.028049,47.9135915 C47.1003429,47.9382644 47.1738122,47.9506008 47.2490449,47.9506008 C47.4330122,47.9506008 47.6081633,47.8759947 47.7421714,47.7426435 C47.9302531,47.5546595 47.9949061,47.2838451 47.9102694,47.0341789 L46.5020082,42.8110013 Z M27.7161796,36.5264619 C26.5300898,36.5264619 25.5667592,35.5618692 25.5667592,34.3769826 C25.5667592,33.193271 26.5306776,32.2286782 27.7161796,32.2286782 C28.9016816,32.2286782 29.8656,33.1938585 29.8656,34.3769826 C29.8656,35.5624566 28.9010939,36.5264619 27.7161796,36.5264619 Z M34.3660408,36.5264619 C33.1811265,36.5264619 32.2172082,35.5618692 32.2172082,34.3769826 C32.2172082,33.193271 33.1817143,32.2286782 34.3660408,32.2286782 C35.5527184,32.2286782 36.5166367,33.1938585 36.5166367,34.3769826 C36.5166367,35.5624566 35.5527184,36.5264619 34.3660408,36.5264619 Z M41.0182531,36.5264619 C39.8321633,36.5264619 38.8676571,35.5618692 38.8676571,34.3769826 C38.8676571,33.193271 39.832751,32.2286782 41.0182531,32.2286782 C42.2031673,32.2286782 43.1676735,33.1938585 43.1676735,34.3769826 C43.1682612,35.5624566 42.2031673,36.5264619 41.0182531,36.5264619 Z" id="Shape"></path>
            </g>
        </g>
    </g>
</svg>