<?xml version="1.0" encoding="utf-8"?>
<!-- Generator: Adobe Illustrator 21.1.0, SVG Export Plug-In . SVG Version: 6.00 Build 0)  -->
<svg version="1.1" id="Layer_1" xmlns="http://www.w3.org/2000/svg" xmlns:xlink="http://www.w3.org/1999/xlink" x="0px" y="0px"
	 viewBox="0 0 48 48" style="enable-background:new 0 0 48 48;" xml:space="preserve">
<style type="text/css">
	.st0{fill:#EFEDFF;}
</style>
<path class="st0" d="M23.2,19.3C23.2,13,18.2,8,12.1,8s-10.5,4.9-11,11.1C0.3,28.5,7.3,36.5,15.9,39c-2.9-1.8-5-4.9-5.3-8.6
	c0.5,0.1,1,0.1,1.5,0.1C18.2,30.6,23.2,25.5,23.2,19.3z"/>
<path class="st0" d="M46.5,19.3C46.5,13,41.6,8,35.5,8S25,12.9,24.4,19.1c-0.8,9.5,6.3,17.4,14.8,19.9c-2.9-1.8-5-4.9-5.3-8.6
	c0.5,0.1,1,0.1,1.5,0.1C41.6,30.6,46.5,25.5,46.5,19.3z"/>
</svg>
