<?xml version="1.0" encoding="utf-8"?>
<!-- Generator: Adobe Illustrator 21.1.0, SVG Export Plug-In . SVG Version: 6.00 Build 0)  -->
<svg version="1.1" id="Layer_1" xmlns="http://www.w3.org/2000/svg" xmlns:xlink="http://www.w3.org/1999/xlink" x="0px" y="0px"
	 viewBox="0 0 48 48" style="enable-background:new 0 0 48 48;" xml:space="preserve">
<style type="text/css">
	.st0{fill:#23A8E5;}
	.st1{fill:#F0F1F1;}
</style>
<circle class="st0" cx="23.5" cy="24" r="19"/>
<g>
	<path class="st1" d="M34,18.3c-0.7,0.3-1.5,0.6-2.4,0.7c0.9-0.5,1.5-1.3,1.8-2.3c-0.8,0.5-1.7,0.8-2.6,1c-0.8-0.8-1.8-1.3-3-1.3
		c-2.3,0-4.2,1.9-4.2,4.2c0,0.3,0,0.6,0.1,0.9c-3.5-0.2-6.5-1.8-8.6-4.3c-0.4,0.6-0.6,1.3-0.6,2.1c0,1.4,0.7,2.7,1.9,3.5
		c-0.7,0-1.3-0.2-1.9-0.5l0,0c0,2,1.4,3.7,3.3,4.1c-0.4,0.1-0.7,0.1-1.1,0.1c-0.3,0-0.5,0-0.8-0.1c0.5,1.6,2.1,2.8,3.9,2.9
		c-1.4,1.1-3.2,1.8-5.2,1.8c-0.3,0-0.7,0-1-0.1c1.8,1.2,4,1.9,6.4,1.9c7.6,0,11.8-6.3,11.8-11.8c0-0.2,0-0.4,0-0.5
		C32.7,19.9,33.4,19.2,34,18.3z"/>
</g>
</svg>
