<?xml version="1.0" encoding="utf-8"?>
<!-- Generator: Adobe Illustrator 21.1.0, SVG Export Plug-In . SVG Version: 6.00 Build 0)  -->
<svg version="1.1" id="Layer_1" xmlns="http://www.w3.org/2000/svg" xmlns:xlink="http://www.w3.org/1999/xlink" x="0px" y="0px"
	 viewBox="0 0 48 48" style="enable-background:new 0 0 48 48;" xml:space="preserve">
<style type="text/css">
	.st0{fill:#23A8E5;}
</style>
<path class="st0" d="M33.5,15.8c-0.8,0.5-1.6,0.8-2.5,1c-0.7-0.8-1.7-1.3-2.9-1.3c-2.1,0-3.9,1.8-3.9,4c0,0.3,0,0.6,0.1,0.9
	c-3.2-0.2-6.1-1.8-8-4.2c-0.3,0.6-0.5,1.3-0.5,2c0,1.4,0.7,2.6,1.7,3.4c-0.6,0-1.2-0.2-1.8-0.5v0.1c0,2,1.4,3.6,3.1,4
	c-0.3,0.1-0.7,0.1-1,0.1c-0.2,0-0.5,0-0.7-0.1c0.5,1.6,1.9,2.8,3.6,2.8c-1.3,1.1-3,1.7-4.8,1.7c-0.3,0-0.6,0-0.9,0
	c1.7,1.1,3.8,1.8,6,1.8c7.2,0,11.1-6.1,11.1-11.5v-0.5c0.8-0.6,1.4-1.3,1.9-2.1c-0.7,0.3-1.5,0.5-2.2,0.6
	C32.6,17.5,33.2,16.7,33.5,15.8z"/>
</svg>
