<?xml version="1.0" encoding="UTF-8"?>
<svg width="291px" height="270px" viewBox="0 0 291 270" version="1.1" xmlns="http://www.w3.org/2000/svg" xmlns:xlink="http://www.w3.org/1999/xlink">
    <!-- Generator: Sketch 48.1 (47250) - http://www.bohemiancoding.com/sketch -->
    <title>Group 2</title>
    <desc>Created with Sketch.</desc>
    <defs></defs>
    <g id="Semantic-Search" stroke="none" stroke-width="1" fill="none" fill-rule="evenodd" transform="translate(-1079.000000, -661.000000)">
        <g id="Group-2" transform="translate(1079.000000, 661.000000)">
            <circle id="Oval-2" fill="#7C70E4" cx="221.5" cy="24.5" r="7.5"></circle>
            <circle id="Oval-2" fill="#7C70E4" cx="242.5" cy="24.5" r="7.5"></circle>
            <circle id="Oval-2" fill="#7C70E4" cx="262.5" cy="24.5" r="7.5"></circle>
            <path d="M290.769231,13.8461538 C290.769231,6.20307692 284.566154,0 276.923077,0 L13.8461538,0 C6.20307692,0 0,6.20307692 0,13.8461538 L0,256.153846 C0,263.796923 6.20307692,270 13.8461538,270 L276.923077,270 C284.566154,270 290.769231,263.796923 290.769231,256.153846 L290.769231,13.8461538 Z M263.076923,17.3076923 C266.905385,17.3076923 270,20.4023077 270,24.2307692 C270,28.0592308 266.905385,31.1538462 263.076923,31.1538462 C259.248462,31.1538462 256.153846,28.0592308 256.153846,24.2307692 C256.153846,20.4023077 259.248462,17.3076923 263.076923,17.3076923 Z M242.307692,17.3076923 C246.136154,17.3076923 249.230769,20.4023077 249.230769,24.2307692 C249.230769,28.0592308 246.136154,31.1538462 242.307692,31.1538462 C238.479231,31.1538462 235.384615,28.0592308 235.384615,24.2307692 C235.384615,20.4023077 238.479231,17.3076923 242.307692,17.3076923 Z M221.538462,17.3076923 C225.366923,17.3076923 228.461538,20.4023077 228.461538,24.2307692 C228.461538,28.0592308 225.366923,31.1538462 221.538462,31.1538462 C217.71,31.1538462 214.615385,28.0592308 214.615385,24.2307692 C214.615385,20.4023077 217.71,17.3076923 221.538462,17.3076923 Z M276.923077,256.153846 L13.8461538,256.153846 L13.8461538,62.3076923 L276.923077,62.3076923 L276.923077,256.153846 Z" id="Shape" fill="#D3CFFF" fill-rule="nonzero"></path>
            <g id="Group" transform="translate(34.615385, 96.923077)">
                <path d="M221.538462,20.7692308 L221.538462,20.7692308 C221.538462,16.945721 218.438894,13.8461538 214.615385,13.8461538 L144.657692,13.8461538 C135.920769,5.28923077 123.971538,0 110.769231,0 C97.5669231,0 85.6246154,5.28923077 76.8807692,13.8461538 L6.92307692,13.8461538 C3.09956712,13.8461538 -4.68244905e-16,16.945721 0,20.7692308 L0,20.7692308 C4.68244905e-16,24.5927406 3.09956712,27.6923077 6.92307692,27.6923077 L67.0361538,27.6923077 C64.9869231,31.9984615 63.5607692,36.6438462 62.8615385,41.5384615 L6.92307692,41.5384615 C3.09956712,41.5384615 -4.68244905e-16,44.6380287 0,48.4615385 L0,48.4615385 C4.68244905e-16,52.2850483 3.09956712,55.3846154 6.92307692,55.3846154 L62.8615385,55.3846154 C63.5607692,60.2792308 64.9869231,64.9246154 67.0361538,69.2307692 L6.92307692,69.2307692 C3.09956712,69.2307692 8.02165234e-15,72.3303363 0,76.1538462 L0,76.1538462 C4.68244905e-16,79.977356 3.09956712,83.0769231 6.92307692,83.0769231 L76.8807692,83.0769231 C85.6176923,91.6338462 97.5669231,96.9230769 110.769231,96.9230769 C121.652308,96.9230769 131.663077,93.2953846 139.756154,87.2376923 L164.623846,112.105385 L179.307692,126.789231 C182.014615,129.496154 186.39,129.496154 189.096923,126.789231 C191.803846,124.082308 191.810769,119.706923 189.096923,117 L174.413077,102.316154 L149.545385,77.4484615 C154.294615,71.1069231 157.506923,63.5884615 158.683846,55.3846154 L214.615385,55.3846154 C218.438894,55.3846154 221.538462,52.2850483 221.538462,48.4615385 L221.538462,48.4615385 C221.538462,44.6380287 218.438894,41.5384615 214.615385,41.5384615 L158.683846,41.5384615 C157.977692,36.6438462 156.551538,31.9984615 154.502308,27.6923077 L214.615385,27.6923077 C218.438894,27.6923077 221.538462,24.5927406 221.538462,20.7692308 Z" id="Path" fill="#21B5FB"></path>
                <path d="M76.1538462,48.4615385 C76.1538462,29.34 91.6476923,13.8461538 110.769231,13.8461538 C129.890769,13.8461538 145.384615,29.34 145.384615,48.4615385 C145.384615,67.5830769 129.890769,83.0769231 110.769231,83.0769231 C91.6476923,83.0769231 76.1538462,67.5830769 76.1538462,48.4615385 Z" id="Path" fill="#C7EDFF"></path>
                <circle id="Oval" fill="#FFFFFF" fill-rule="nonzero" cx="124.615385" cy="34.6153846" r="6.92307692"></circle>
            </g>
        </g>
    </g>
</svg>