<?xml version="1.0" encoding="UTF-8"?>
<svg width="354px" height="277px" viewBox="0 0 354 277" version="1.1" xmlns="http://www.w3.org/2000/svg" xmlns:xlink="http://www.w3.org/1999/xlink">
    <!-- Generator: Sketch 48.1 (47250) - http://www.bohemiancoding.com/sketch -->
    <title>Group 3</title>
    <desc>Created with Sketch.</desc>
    <defs></defs>
    <g id="Health-and-Life-Science" stroke="none" stroke-width="1" fill="none" fill-rule="evenodd" transform="translate(-1016.000000, -660.000000)">
        <g id="Group-3" transform="translate(1016.000000, 660.000000)">
            <g id="Group" transform="translate(41.000000, 0.000000)" fill="#D3CFFF" fill-rule="nonzero">
                <path d="M120.174106,235.692076 C117.974651,237.535788 116.765527,240.059369 116.258847,242.778844 L33.3589851,159.903989 C35.4663159,156.493122 37.8615335,153.358812 40.6713079,150.685429 C44.4483817,147.090191 48.9739611,144.393762 53.9256127,142.227401 C54.4783553,143.771509 55.2959536,145.234956 56.5396242,146.467938 L131.701091,221.691388 C131.643513,221.795097 131.528359,221.864236 131.459266,221.979468 C128.580398,227.395372 124.895448,231.88942 120.174106,235.692076 M258.233064,7.83231904 C256.171795,1.81720864 249.619493,-1.42081056 243.608419,0.66488864 C237.585828,2.72754144 234.384528,9.28424224 236.445797,15.3108758 C242.353232,32.5726294 245.888481,48.4861686 247.44307,62.9247382 L208.129258,23.5960566 C212.424528,22.0980406 215.614313,18.1340598 215.879169,13.4095478 C216.097963,10.2982838 215.061571,7.30225184 213.000302,4.99761184 C210.927517,2.69297184 208.163805,1.31018784 205.043113,1.19495584 C198.755667,0.82621344 191.765777,1.02210784 185.155898,1.55217504 C180.80305,-0.76398816 175.356234,-0.24544416 171.694314,3.41893344 C167.191766,7.92450464 167.191766,15.2186902 171.694314,19.7127382 L240.787129,88.8519382 C242.618088,90.6956502 244.955728,91.5944598 247.350946,91.9286326 C245.35877,106.470911 240.314994,118.305237 231.851125,126.359954 C229.467423,128.641548 226.784318,130.565922 223.893936,132.248309 C223.444832,131.545394 223.133915,130.784863 222.523595,130.174133 L142.214714,49.8228598 C144.20689,46.1584822 146.463922,42.7360918 149.308243,39.7976758 C153.810791,35.3036278 153.684121,27.9287798 149.204603,23.5499638 C144.828725,19.1711478 137.217,19.2863798 132.956277,23.6651958 C126.634284,30.0029558 121.555962,37.7234998 118.216476,46.3658998 C117.640703,47.7486838 117.421909,49.2466998 117.421909,50.6294838 C117.31827,54.7086966 119.425601,58.2117494 122.765087,60.262879 C123.237221,62.2909622 124.054819,64.238383 125.632438,65.8055382 L198.882337,139.116137 C182.726134,140.130178 163.24196,136.419708 141.155291,127.615983 C139.831012,127.085916 138.587341,126.751743 137.274578,126.256245 C139.692826,124.101407 141.247414,121.047759 141.247414,117.694508 C141.247414,116.65742 141.13226,115.5051 140.913466,114.468012 C138.829166,107.43886 137.332155,100.409708 136.410917,93.8414838 C135.48968,87.6189558 129.616791,83.2401398 123.398437,84.0467638 C120.415931,84.3924598 117.640703,86.0057078 115.798228,88.5408118 C113.967268,90.9606838 113.161185,93.9567158 113.621804,97.0679798 C114.62365,104.350642 116.304908,112.071186 118.504363,120.11438 C78.8220568,109.178863 46.026001,113.765097 24.7914761,133.999836 C-3.052928,160.526242 -7.00273388,208.405138 13.6790485,268.821276 C15.3257606,273.603404 19.7822471,276.610959 24.5726822,276.610959 C25.8163528,276.610959 27.071539,276.403541 28.3036942,275.977183 C34.3262845,273.91453 37.5275848,267.369353 35.4778314,261.342719 C25.1484556,231.174981 21.7974542,204.8099 25.01027,184.148802 L90.9939075,250.107599 C89.0132469,248.955279 86.7792459,248.194748 84.2573582,248.367596 C77.9123347,249.058988 70.6575892,248.943756 63.5179984,248.367596 C56.9656966,248.0219 51.5419107,252.746412 51.0812919,258.96894 C50.6321886,265.3067 55.3420154,270.837836 61.6870389,271.413996 L63.2992045,271.529228 L63.1840498,271.529228 C66.9841546,271.759692 70.7842594,271.874924 74.457694,271.874924 C78.7184176,271.874924 82.633677,271.759692 86.3301426,271.413996 C92.5484959,270.837836 97.2698382,265.191468 96.8092194,258.853708 C96.6710338,257.355692 96.2219305,255.961385 95.5770642,254.682309 L102.6015,261.711461 C104.847017,263.958485 107.794977,265.076236 110.742937,265.076236 C113.690897,265.076236 116.627342,263.958485 118.884374,261.699938 C120.795941,259.775564 121.717179,257.332645 122.005066,254.832111 C123.640262,255.684828 125.436675,256.203372 127.313697,256.203372 C129.97377,256.203372 132.392019,255.396748 134.453288,253.7835 L134.568442,253.668268 C141.834703,247.906668 147.592438,240.762284 151.841646,232.580812 C152.751368,230.99061 153.05077,229.192991 153.05077,227.383849 C153.165925,227.28014 153.315626,227.24557 153.430781,227.130338 C157.921814,222.63629 157.921814,215.342105 153.430781,210.836533 L79.9275418,137.283948 C95.1279609,137.318517 112.884814,141.167266 132.633844,149.026089 C134.591473,149.809666 136.433948,150.32821 138.368547,151.042649 C136.767897,152.022121 135.351494,153.255103 134.338133,154.914444 C132.852637,157.56478 132.495658,160.676044 133.198102,163.672076 C135.155731,170.81646 136.410917,177.73038 137.113361,184.183372 C137.689134,190.060204 142.629271,194.554252 148.513675,194.554252 C148.962779,194.554252 149.308243,194.554252 149.768861,194.43902 C155.641751,193.86286 160.029144,188.907884 160.029144,183.031052 L160.029144,181.878732 C159.223062,174.042956 157.726051,165.976716 155.526596,157.680012 C155.411441,157.219084 155.077493,156.873388 154.904761,156.435506 C194.310696,167.394069 226.818865,162.969161 247.730956,143.045548 C275.345051,116.738082 279.076063,68.7209078 258.233064,7.83231904" id="Shape"></path>
            </g>
            <path d="M-2.22044605e-16,159.500327 C-2.22044605e-16,137.684518 17.6844727,120 39.5,120 C61.3155273,120 79,137.684518 79,159.500327 C79,181.315727 61.3155273,199 39.5,199 C17.6844727,199 -2.22044605e-16,181.315727 -2.22044605e-16,159.500327 Z" id="Ellipse" fill="#C7EDFF"></path>
            <path d="M140,138.000298 C140,118.117535 156.117494,102 176,102 C195.882506,102 212,118.117535 212,138.000298 C212,157.882688 195.882506,174 176,174 C156.117494,174 140,157.882688 140,138.000298 Z" id="Ellipse" fill="#EAE8FF"></path>
            <path d="M47,48.0002315 C47,32.5358607 59.5358288,20 75,20 C90.4641712,20 103,32.5358607 103,48.0002315 C103,63.4643129 90.4641712,76 75,76 C59.5358288,76 47,63.4643129 47,48.0002315 Z" id="Ellipse" fill="#D7F3E6"></path>
            <path d="M78.913216,43.9180592 C78.9224265,44.0013477 78.9285669,44.0873119 78.9592122,44.1762619 L78.9592122,57.847541 C78.9592122,59.0361973 77.9985312,60 76.8133617,60 L66.1457097,60 C64.9606247,60 64,59.0361973 64,57.847541 L64,44.1829092 L64,43.9180592 C64.1010339,43.0202507 64.5998377,42.2163494 65.3579721,41.7286457 L66.9549948,40.64291 C67.7134672,40.15853 68.2126935,39.3556427 68.3129669,38.45882 L68.3129669,38.1952938 L68.3129669,37.8474933 L68.0064852,37.8474933 C67.7711244,37.8474933 67.5803233,37.6559327 67.5803233,37.4200661 L67.5803233,34.4274273 C67.5803233,34.1918987 67.7711244,34 68.0064852,34 L74.9251237,34 C75.1597803,34.0016618 75.3495956,34.1922085 75.3512011,34.4274273 L75.3512011,37.4200661 C75.3495956,37.6549469 75.1597803,37.8458315 74.9251237,37.8474933 L74.6001647,37.8474933 L74.6001647,38.2039691 L74.6001647,38.4688191 C74.6986635,39.36398 75.1956083,40.1668391 75.9520809,40.6522331 L77.5613561,41.7343072 C78.316195,42.221701 78.8125765,43.0239123 78.913216,43.9180592 Z M71.4581431,54.2365903 C74.0302682,54.2349285 76.11449,52.142774 76.11449,49.5615639 C76.1128282,46.9830015 74.02855,44.8935229 71.4581431,44.8935229 C68.8864969,44.8935229 66.801768,46.9850013 66.801768,49.5645496 C66.801768,52.1447739 68.8864969,54.2365903 71.4581431,54.2365903 Z M74.6523575,49.4972597 C74.6523575,49.968993 74.2707271,50.3524523 73.8000901,50.3524523 L72.3133962,50.3524523 L72.3133962,51.8402654 C72.3133962,52.3136604 71.931118,52.6971198 71.4596641,52.6971198 C70.9881538,52.6971198 70.6058756,52.3136604 70.6058756,51.8402654 L70.6058756,50.3554379 L69.1222801,50.3554379 C68.6508262,50.3554379 68.268548,49.9719786 68.268548,49.4989215 C68.268548,49.0258645 68.6508262,48.6420672 69.1222801,48.6420672 L70.6058756,48.6420672 L70.6058756,47.1535781 C70.6058756,46.680859 70.9881538,46.2970617 71.4596641,46.2970617 C71.931118,46.2970617 72.3133962,46.680859 72.3133962,47.1535781 L72.3133962,48.6420672 L73.7970481,48.6420672 C74.268164,48.6420672 74.6506394,49.0245125 74.6523575,49.4972597 Z M80.7830612,53.2587888 L80.7892579,53.2614646 C80.2522319,52.684473 80.2503166,51.7889741 80.7848639,51.2096165 C81.348282,50.5989659 82.2986259,50.5616452 82.9075051,51.127004 L86.3100684,54.5410706 C86.8967523,55.1294133 86.8967523,56.0838648 86.3100684,56.6718695 C85.7235254,57.2605503 84.7723366,57.2605503 84.1857654,56.6718695 L80.7830612,53.2587888 Z M81.8805478,51.2625978 C81.6245972,51.2629358 81.3792091,51.3652085 81.1984071,51.54677 C80.8217904,51.9258917 80.8224664,52.5392181 81.2000408,52.9173258 L82.8614807,54.5840528 L84.2286915,53.2121731 L82.5672515,51.5454462 C82.3847878,51.3632086 82.1377941,51.2615838 81.8805478,51.2625978 Z M89.5195774,50.5613354 C89.5465047,50.5863191 89.5723899,50.6119506 89.5974019,50.6392722 C90.1626791,51.248599 90.1285129,52.2024026 89.5212392,52.7694233 C88.9139374,53.3364158 87.963509,53.3021089 87.3983164,52.6927821 L83.9956122,49.2787155 C83.4090692,48.6900348 83.4090692,47.7362593 83.9956122,47.1475786 C84.5823805,46.558926 85.5334003,46.558926 86.1200278,47.1475786 L89.5195774,50.5613354 Z M88.4191333,52.5571884 C88.6750839,52.5571884 88.9204157,52.4545777 89.1012176,52.2726781 C89.4778907,51.8942325 89.4770738,51.2805962 89.0996403,50.9024603 L87.4381159,49.2360714 L86.0709896,50.6076411 L87.7324295,52.2743681 C87.9147525,52.4562677 88.1618025,52.5578644 88.4191333,52.5571884 Z" id="Combined-shape-1782" fill="#46CD90"></path>
            <path d="M23.675423,166.327329 C23.675423,166.274185 23.6238004,166.274185 23.675423,166.327329 C21.294224,163.916111 20,160.773122 20,157.47181 C20,154.170499 21.294224,151.0264 23.6238004,148.668326 C25.9534214,146.309143 29.0593893,145 32.3208052,145 C35.3750613,145 38.222247,146.10045 40.4999777,148.144099 C42.7777084,146.10045 45.6250725,145 48.6791502,145 C51.9406107,145 55.0465786,146.309143 57.376155,148.668326 C59.705776,151.0264 61,154.11791 61,157.47181 C61,160.773122 59.705776,163.916111 57.376155,166.274185 L57.3243093,166.327329 L41.1730795,180.738718 C40.9659644,180.895376 40.7070928,181 40.4999777,181 C40.2928626,181 40.033991,180.895376 39.8268759,180.738718 L23.675423,166.327329 Z M40.4999777,178.536748 L55.875039,164.861012 C56.2372897,164.544923 56.496072,164.127576 56.8067893,163.760007 L55.978552,163.760007 C54.9950453,163.760007 54.0629827,163.183785 53.6488417,162.239993 L52.5617329,159.882473 C52.4582199,159.620082 52.1994822,159.566939 52.0957462,159.566939 C51.9922333,159.566939 51.7334956,159.620082 51.6299826,159.882473 L48.7310405,166.693789 C48.3685221,167.585546 47.5405079,168.214358 46.5567781,168.266393 L46.4014195,168.266393 C45.4696693,168.266393 44.6414319,167.7942 44.1754453,167.00873 L42.2082088,163.706864 C42.1046066,163.550245 41.8974915,163.445621 41.7422221,163.445621 L40.4482212,163.445621 C39.4646253,163.445621 38.5327858,162.86825 38.1187787,161.925052 L36.6691515,158.729988 C36.5139267,158.414493 36.2549213,158.414493 36.151676,158.414493 C36.0480293,158.414493 35.7892915,158.467082 35.6855555,158.781468 L34.1325492,163.183785 C33.8219658,164.021844 33.0973307,164.650101 32.217203,164.861012 C31.2851405,165.01767 30.4053698,164.70269 29.7839799,164.021844 L27.3510244,161.296755 C27.2991341,161.191577 27.1439093,161.139028 26.9887738,161.139028 L22.795563,161.139028 C23.2613266,162.502384 24.0379413,163.706864 25.0730706,164.755279 L40.4999777,178.536748 Z M25.0730706,150.134643 C23.1578137,152.074261 22.0708387,154.694132 22.1742177,157.261454 C22.1742177,157.838271 22.2259742,158.361904 22.3297102,158.886092 L27.0403071,158.886092 C27.7651208,158.886092 28.4898898,159.253107 28.9557426,159.777849 L31.3888319,162.502384 C31.5442351,162.711631 31.7512164,162.659597 31.8545955,162.659597 C31.906575,162.659597 32.1136901,162.607007 32.217203,162.344616 L33.7700755,157.9423 C34.1325492,156.947622 35.0644333,156.265667 36.0996519,156.212523 C37.1868054,156.161597 38.1187787,156.738375 38.5844977,157.733092 L40.033991,160.92978 C40.1376378,161.139028 40.2928626,161.244166 40.4999777,161.244166 L41.7942017,161.244166 C42.7259519,161.244166 43.5542338,161.716359 44.0203097,162.502384 L45.9874124,165.803695 C46.1425479,166.064938 46.349663,166.064938 46.453176,166.064938 C46.5049324,166.064938 46.7638932,166.012943 46.8674062,165.751106 L49.7664821,158.938681 C50.1804892,157.995444 51.0606169,157.366078 52.0957462,157.366078 L52.1475027,157.366078 C53.1313217,157.366078 54.0629827,157.9423 54.477436,158.886092 L55.5644556,161.244166 C55.6679239,161.454522 55.8232826,161.559146 56.0304423,161.559146 L58.1010133,161.559146 C58.6186672,160.301523 58.9291613,158.886092 58.9291613,157.47181 C58.9291613,154.694132 57.8421417,152.074261 55.9267063,150.134643 C54.0112262,148.196688 51.4230906,147.095168 48.6791502,147.095168 C45.9355667,147.095168 43.347208,148.196688 41.4317279,150.134643 L41.2247467,150.344999 C40.8106057,150.7629 40.1893497,150.7629 39.7751195,150.344999 L39.5680044,150.134643 C37.6010356,148.196688 35.0644333,147.095168 32.3208052,147.095168 C29.5768648,147.095168 26.9887738,148.196688 25.0730706,150.134643 Z" id="Combined-shape-1783" fill="#21B5FA"></path>
            <g id="Group-2" transform="translate(156.000000, 116.000000)" fill="#9685FF">
                <path d="M3.6577645,24.9256673 C4.5762275,23.8850083 5.5542045,22.8990166 6.586827,21.9708312 C1.936545,17.8009029 -0.924131,13.4808327 0.718965,10.7551454 C1.8973695,8.83406244 4.9096515,8.34558195 9.462063,9.43342293 C10.6496585,9.71984683 11.8214655,10.068858 12.973025,10.477221 C14.185691,4.57131561 16.3960355,0.153162927 19.501001,0.153162927 C22.6062395,0.153162927 24.816311,4.58140878 26.05837,10.4963449 C31.740501,8.49248829 36.684076,8.10266976 38.283037,10.7599263 C39.926133,13.4861449 37.060725,17.81626 32.381141,22.004781 C37.060725,26.1943644 39.926133,30.5196985 38.283037,33.2501668 C37.4958415,34.5570151 35.9457475,35.127738 33.7844975,35.127738 C31.623111,35.127738 28.923778,34.5231137 26.033982,33.5084361 C24.816311,39.4185912 22.6062395,43.8468371 19.501001,43.8468371 C16.3960355,43.8468371 14.185691,39.4286844 12.977848,33.4936102 C11.8264705,33.9020215 10.6545725,34.249922 9.466977,34.5374083 C8.081957,34.8885444 6.661174,35.0805561 5.232201,35.1076 C3.0123015,35.1076 1.4817725,34.4742898 0.723788,33.2162171 C-0.449839,31.2999151 0.5673135,28.4220093 3.6577645,24.9256673 Z M36.615644,32.2408015 C37.427455,30.8750361 35.500803,27.3643995 30.9091705,23.2628537 C29.681808,24.2626571 28.3663575,25.2624605 26.997308,26.21344 C26.884923,28.0613112 26.6743945,29.8604068 26.3959345,31.5778395 C27.577615,32.0079824 28.782273,32.3718195 30.004585,32.669882 C34.1072745,33.6405166 36.1266555,33.0846678 36.615644,32.2408015 Z M27.10487,20.2343229 C27.1374935,20.8267776 27.1455925,21.4149824 27.129349,22 C27.1130145,22.5850176 27.10487,23.1726912 27.10487,23.7608961 C27.9035315,23.1785346 28.667977,22.5903298 29.3981155,21.9957502 C28.6842205,21.4128576 27.919775,20.8267776 27.10487,20.2343229 Z M33.8039715,10.8283571 C32.0045375,10.8283571 29.4520785,11.330118 26.3860155,12.383478 C26.664703,14.109362 26.8652215,15.9148322 26.98748,17.7478293 C28.356666,18.6988571 29.6721165,19.6938795 30.899479,20.7021341 C31.9502105,19.7877605 32.944704,18.8118137 33.877272,17.7765151 C36.6647385,14.621699 37.09485,12.5982839 36.605998,11.7549488 C36.2489595,11.1545259 35.270937,10.8283571 33.8039715,10.8283571 Z M14.073306,27.5929688 C14.1759085,28.7200717 14.303081,29.8020693 14.4547325,30.8607415 C15.4327095,30.4703434 16.4106865,30.0508249 17.388709,29.5634068 C16.7774165,29.2223639 16.170947,28.8760088 15.574351,28.5200917 C15.069119,28.2273415 14.5687555,27.9186546 14.073306,27.5929688 Z M19.501001,41.8965854 C21.0657915,41.8965854 23.0315735,38.5795059 24.1903675,32.8163054 C22.6453695,32.2010566 21.070569,31.485021 19.506006,30.6899302 C17.9117315,31.5040966 16.337295,32.2211946 14.8116345,32.8306 C15.0504185,34.0579585 15.357407,35.2703946 15.7310075,36.4643346 C17.0071915,40.4672185 18.523024,41.8965854 19.501001,41.8965854 Z M24.5376235,30.8607415 C24.6975105,29.8296444 24.8229085,28.7396785 24.9139995,27.5882361 C24.41855,27.9069678 23.9180955,28.2172483 23.413,28.5200917 C22.809852,28.8903517 22.206795,29.2382522 21.603647,29.5634068 C22.611017,30.0417941 23.5597375,30.4703434 24.5376235,30.8607415 Z M24.9289235,16.401719 L24.9289235,16.4070312 C24.82623,15.2799283 24.6941435,14.1973995 24.55232,13.1244327 C23.6036905,13.5058 22.6257135,13.938599 21.6184345,14.4270795 C22.2214915,14.7649351 22.824503,15.1144776 23.42756,15.4751273 C23.9329285,15.7684088 24.4332465,16.0760332 24.9289235,16.401719 Z M19.501001,2.10394585 C17.9412155,2.10394585 15.970565,5.41996293 14.8116345,11.1694 C16.337295,11.7793366 17.9117315,12.4905912 19.506006,13.3052888 C21.070569,12.5150273 22.6453695,11.7936795 24.1903675,11.1794932 C23.9519475,9.94894732 23.6450955,8.73279268 23.271131,7.53619659 C21.994947,3.53229854 20.4790235,2.10394585 19.501001,2.10394585 Z M14.464424,13.1397898 C14.304719,14.1698244 14.17923,15.2587278 14.0879115,16.4070312 C14.5801305,16.0940946 15.080585,15.785939 15.5891385,15.4804395 C16.1857345,15.1091654 16.7887915,14.7617478 17.3984005,14.4365932 C16.3960355,13.9587371 15.442401,13.5296566 14.464424,13.1397898 Z M13.9021805,18.844701 L13.9070945,18.844701 C13.8580455,19.8593302 13.8140925,20.9323454 13.8140925,22 C13.8140925,23.0677029 13.84344,24.1263268 13.892398,25.16008 C14.738334,25.726022 15.5891385,26.2669966 16.567161,26.8520141 C17.5450015,27.4375629 18.523024,27.9780546 19.501001,28.4951727 C20.4790235,27.9780546 21.4570005,27.4375629 22.4349775,26.8520141 C23.3444315,26.2993527 24.2393255,25.736598 25.119523,25.164861 C25.1683445,24.145982 25.1977375,23.0729668 25.1977375,22.004781 C25.1977375,20.9365468 25.1683445,19.8789854 25.119523,18.844701 C24.273587,18.2792902 23.4227825,17.7372532 22.44476,17.1527668 C21.466783,16.567218 20.488897,16.0261951 19.51092,15.5096083 C18.5328065,16.0113693 17.5549205,16.5576561 16.576807,17.1527668 C15.657707,17.7054283 14.765907,18.2692454 13.9021805,18.844701 Z M2.386358,11.7591985 C1.5746835,13.1244327 3.50129,16.6356005 8.092968,20.7180707 C9.2908465,19.7421239 10.606297,18.7667566 12.0048305,17.7918722 C12.1172155,15.9386888 12.3275165,14.139062 12.606204,12.4274727 C11.4245235,11.9973298 10.2197745,11.6324302 8.9975535,11.334899 C4.899778,10.3647956 2.8753465,10.9158634 2.386358,11.7591985 Z M11.8972685,23.7646146 C11.864645,23.1774722 11.856546,22.5903298 11.8727895,22.004781 C11.889124,21.4202946 11.8972685,20.8331522 11.8972685,20.2444161 C11.0952855,20.8267776 10.3308855,21.4128576 9.603932,22.004781 C10.3177815,22.5876737 11.0822725,23.1737537 11.8972685,23.7646146 Z M8.1026595,23.2777278 L8.1026595,23.2729468 C7.050563,24.2011322 6.056115,25.1940298 5.124639,26.24314 C2.3374,29.3973766 1.887678,31.4266834 2.3961405,32.2647063 C2.9047395,33.1032122 4.9096515,33.6643732 9.007336,32.6895371 C10.229557,32.3919576 11.434397,32.027058 12.616123,31.5974463 C12.33739,29.865719 12.1367805,28.0666234 12.014522,26.2325156 C10.645427,25.2820673 9.3299765,24.2870449 8.1026595,23.2777278 Z" id="Combined-shape-1784"></path>
                <path d="M19.501008,18.4256976 C21.480699,18.4256976 23.0854245,20.0253582 23.0854245,22 C23.0854245,23.9746533 21.480699,25.5748429 19.501008,25.5748429 C17.521548,25.5748429 15.916707,23.9746533 15.916707,22 C15.916707,20.0253582 17.521548,18.4256976 19.501008,18.4256976 Z" id="Path"></path>
            </g>
            <path d="M282,82.0002976 C282,62.1175352 298.117494,46 318,46 C337.882506,46 354,62.1175352 354,82.0002976 C354,101.882688 337.882506,118 318,118 C298.117494,118 282,101.882688 282,82.0002976 Z" id="Ellipse" fill="#FFF3D7"></path>
            <g id="Group" transform="translate(300.000000, 66.000000)" fill="#FECE60">
                <path d="M32.8861592,8.78820824 L31.2935147,8.78820824 L31.2935147,11.1057338 L32.8861592,11.1057338 C33.5013154,11.1057338 34,11.60299 34,12.2165957 L34,18.7837608 C34,19.39701 33.5013154,19.8942662 32.8861592,19.8942662 L31.2935147,19.8942662 L31.2935147,22.2115001 L32.8861592,22.2115001 C33.5013154,22.2115001 34,22.709048 34,23.3223295 L34,29.8894947 C34,30.5031003 33.5013154,31 32.8861592,31 L1.11373257,31 C0.498612448,31 -1.11022302e-16,30.5031003 -1.11022302e-16,29.8894947 L-1.11022302e-16,23.3223295 C-1.11022302e-16,22.709048 0.498612448,22.2115001 1.11373257,22.2115001 L2.70641309,22.2115001 L2.70641309,19.8942662 L1.11373257,19.8942662 C0.498612448,19.8942662 -1.11022302e-16,19.39701 -1.11022302e-16,18.7837608 L-1.11022302e-16,12.2165957 C-1.11022302e-16,11.60299 0.498612448,11.1057338 1.11373257,11.1057338 L2.70641309,11.1057338 L2.70641309,8.78820824 L1.11373257,8.78820824 C0.498612448,8.78820824 -1.11022302e-16,8.29127614 -1.11022302e-16,7.67770291 L-1.11022302e-16,1.11018123 C-1.11022302e-16,0.497256185 0.498612448,-4.4408921e-16 1.11373257,-4.4408921e-16 L32.8861592,-4.4408921e-16 C33.5013154,-4.4408921e-16 34,0.497256185 34,1.11018123 L34,7.67770291 C34,8.29127614 33.5013154,8.78820824 32.8861592,8.78820824 Z M32.514915,23.6928004 L1.48497676,23.6928004 L1.48497676,29.5196395 L32.514915,29.5196395 L32.514915,23.6928004 Z M4.19153418,22.2115001 L29.8084297,22.2115001 L29.8084297,19.8942662 L4.19153418,19.8942662 L4.19153418,22.2115001 Z M32.514915,12.5864184 L1.48497676,12.5864184 L1.48497676,18.4135816 L32.514915,18.4135816 L32.514915,12.5864184 Z M4.19153418,11.1057338 L29.8084297,11.1057338 L29.8084297,8.78820824 L4.19153418,8.78820824 L4.19153418,11.1057338 Z M1.48497676,7.30752367 L32.514915,7.30752367 L32.514915,1.48068457 L1.48497676,1.48068457 L1.48497676,7.30752367 Z" id="Combined-shape-1787"></path>
                <path d="M7.517505,2.953755 C8.281535,2.953755 8.900945,3.561655 8.900945,4.311895 C8.900945,5.062795 8.281535,5.670695 7.517505,5.670695 C6.753405,5.670695 6.133995,5.062795 6.133995,4.311895 C6.133995,3.561655 6.753405,2.953755 7.517505,2.953755 Z" id="Path"></path>
                <path d="M11.718555,2.953755 C12.48265,2.953755 13.102065,3.561655 13.102065,4.311895 C13.102065,5.062795 12.48265,5.670695 11.718555,5.670695 C10.954455,5.670695 10.335045,5.062795 10.335045,4.311895 C10.335045,3.561655 10.954455,2.953755 11.718555,2.953755 Z" id="Path"></path>
                <path d="M16.20532,2.953755 C16.96942,2.953755 17.58883,3.561655 17.58883,4.311895 C17.58883,5.062795 16.96942,5.670695 16.20532,5.670695 C15.44129,5.670695 14.82181,5.062795 14.82181,4.311895 C14.82181,3.561655 15.44129,2.953755 16.20532,2.953755 Z" id="Path"></path>
                <path d="M7.517505,13.73178 C8.281535,13.73178 8.900945,14.299768 8.900945,15.0003 C8.900945,15.699908 8.281535,16.2679 7.517505,16.2679 C6.753405,16.2679 6.133995,15.699908 6.133995,15.0003 C6.133995,14.299768 6.753405,13.73178 7.517505,13.73178 Z" id="Path"></path>
                <path d="M11.718555,13.73178 C12.48265,13.73178 13.102065,14.299768 13.102065,15.0003 C13.102065,15.699908 12.48265,16.2679 11.718555,16.2679 C10.954455,16.2679 10.335045,15.699908 10.335045,15.0003 C10.335045,14.299768 10.954455,13.73178 11.718555,13.73178 Z" id="Path"></path>
                <path d="M16.20532,13.73178 C16.96942,13.73178 17.58883,14.299768 17.58883,15.0003 C17.58883,15.699908 16.96942,16.2679 16.20532,16.2679 C15.44129,16.2679 14.82181,15.699908 14.82181,15.0003 C14.82181,14.299768 15.44129,13.73178 16.20532,13.73178 Z" id="Path"></path>
                <path d="M7.517505,25.328955 C8.281535,25.328955 8.900945,25.93752 8.900945,26.687755 C8.900945,27.438325 8.281535,28.046885 7.517505,28.046885 C6.753405,28.046885 6.133995,27.438325 6.133995,26.687755 C6.133995,25.93752 6.753405,25.328955 7.517505,25.328955 Z" id="Path"></path>
                <path d="M11.718555,25.328955 C12.48265,25.328955 13.102065,25.93752 13.102065,26.687755 C13.102065,27.438325 12.48265,28.046885 11.718555,28.046885 C10.954455,28.046885 10.335045,27.438325 10.335045,26.687755 C10.335045,25.93752 10.954455,25.328955 11.718555,25.328955 Z" id="Path"></path>
                <path d="M16.20532,25.328955 C16.96942,25.328955 17.58883,25.93752 17.58883,26.687755 C17.58883,27.438325 16.96942,28.046885 16.20532,28.046885 C15.44129,28.046885 14.82181,27.438325 14.82181,26.687755 C14.82181,25.93752 15.44129,25.328955 16.20532,25.328955 Z" id="Path"></path>
            </g>
        </g>
    </g>
</svg>