<?xml version="1.0" encoding="UTF-8"?>
<svg width="364px" height="348px" viewBox="0 0 364 348" version="1.1" xmlns="http://www.w3.org/2000/svg" xmlns:xlink="http://www.w3.org/1999/xlink">
    <!-- Generator: Sketch 48.1 (47250) - http://www.bohemiancoding.com/sketch -->
    <title>Group 2</title>
    <desc>Created with Sketch.</desc>
    <defs>
        <linearGradient x1="50%" y1="0%" x2="50%" y2="100%" id="linearGradient-1">
            <stop stop-color="#ADA3FF" offset="0%"></stop>
            <stop stop-color="#796DE3" offset="100%"></stop>
        </linearGradient>
    </defs>
    <g id="Intelligent-Bots" stroke="none" stroke-width="1" fill="none" fill-rule="evenodd" transform="translate(-1006.000000, -624.000000)">
        <g id="Group-2" transform="translate(1006.000000, 624.000000)">
            <path d="M216.821728,161.518769 C214.964539,151.201053 211.043807,141.708754 205.265886,133.660936 L216.202665,115.708109 C212.900996,111.787377 209.392972,108.279354 205.47224,104.977685 L187.519414,115.914464 C179.265241,110.136543 169.772942,106.215811 159.66158,104.358622 L154.502722,83.9295437 C151.820116,83.516835 149.343864,83.3104807 146.867612,83.3104807 C144.39136,83.3104807 141.915109,83.516835 139.232502,83.7231893 L134.073644,104.152267 C123.755928,106.009456 114.263629,109.930188 106.215811,115.708109 L88.2629845,104.77133 C84.3422523,108.072999 80.8342288,111.581023 77.5325596,115.501755 L88.4693388,133.454581 C82.6914177,141.708754 78.7706856,151.201053 76.9134967,161.312415 L56.4844187,166.471273 C56.2780643,169.153879 56.07171,171.630131 56.07171,174.106383 C56.07171,176.582635 56.2780643,179.058887 56.4844187,181.741493 L76.9134967,186.900351 C78.7706856,197.218067 82.6914177,206.710366 88.4693388,214.758185 L77.5325596,232.711011 C80.8342288,236.631743 84.3422523,240.139766 88.2629845,243.441436 L106.215811,232.504656 C114.469984,238.282578 123.962282,242.20331 134.073644,244.060499 L139.232502,264.489577 C141.708754,264.695931 144.185006,264.902285 146.867612,264.902285 C149.550218,264.902285 151.820116,264.695931 154.502722,264.489577 L159.66158,244.060499 C169.979297,242.20331 179.471595,238.282578 187.519414,232.504656 L205.47224,243.441436 C209.392972,240.139766 212.900996,236.631743 216.202665,232.711011 L205.265886,214.758185 C211.043807,206.504012 214.964539,197.011713 216.821728,186.900351 L237.250806,181.741493 C237.45716,179.265241 237.663515,176.788989 237.663515,174.106383 C237.663515,171.630131 237.45716,169.153879 237.250806,166.471273 L216.821728,161.518769 Z M146.867612,207.742138 C128.295723,207.742138 113.231858,192.678272 113.231858,174.106383 C113.231858,155.534494 128.295723,140.470628 146.867612,140.470628 C165.439501,140.470628 180.503367,155.534494 180.503367,174.106383 C180.503367,192.678272 165.439501,207.742138 146.867612,207.742138 Z" id="Shape" fill="url(#linearGradient-1)" fill-rule="nonzero"></path>
            <g id="noun_620863_cc" transform="translate(0.000000, 19.456265)">
                <path d="M146.089362,36.8229787 C146.101335,27.0329854 142.297884,17.8256822 135.381432,10.8932654 C128.460988,3.96084864 119.261667,0.137443171 109.471674,0.129461114 L109.435754,0.129461114 C89.5444675,0.129461114 73.328918,16.0656386 72.8180663,35.8411857 C70.2598169,36.0686743 67.7135406,36.5356247 65.255067,37.3138753 C47.7983076,42.8334679 37.6251755,60.7332315 41.3328411,78.2857756 C37.0943687,79.7664472 33.3108735,82.6200327 30.8643729,86.7866667 C26.9611469,93.4437025 27.3802049,101.513562 31.5548209,107.667729 C17.9015118,113.007725 8.19133903,126.273904 8.19133903,141.795015 C8.19133903,148.903037 10.2986022,155.871373 14.1459538,161.790068 C5.85658726,166.862666 0.29309329,175.974184 0.29309329,186.382787 C0.29309329,198.970492 8.41882767,209.682413 19.6934837,213.601603 C12.8249233,220.701643 10.3345214,231.43751 14.2457295,241.17562 C18.2886416,251.248976 28.0028054,257.387178 38.247776,257.387178 C39.6166988,257.387178 40.9936037,257.255474 42.3705086,257.027986 C42.9292526,264.124035 45.6750803,270.848918 50.4084403,276.344564 C56.2912166,283.181197 64.4887895,287.315902 73.4845681,287.982404 C74.3346572,288.046261 75.1807553,288.074198 76.0228623,288.074198 C76.9288258,288.074198 77.8268073,288.014332 78.7168067,287.942494 C84.2603455,300.709795 96.8161217,309.170775 110.904453,309.170775 C129.98157,309.170775 145.530618,293.893118 146.033487,274.927749 C146.037478,274.847929 146.077389,274.77609 146.077389,274.692279 L146.077389,37.4814985 C146.077389,37.3777317 146.025505,37.285938 146.017523,37.1821713 C146.029496,37.0584494 146.089362,36.9506916 146.089362,36.8229787 Z" id="Path" fill="#FFFFFF"></path>
                <path d="M110.900462,301.192709 C100.567689,301.192709 91.2685919,295.329888 86.6789089,286.310163 C99.1828017,282.10761 108.629567,270.777079 109.667234,256.820452 C109.830866,254.621395 108.182571,252.709693 105.987506,252.54606 C103.788449,252.3505 101.872755,254.026732 101.709123,256.22978 C100.6515,270.409905 88.3232127,281.069942 74.0712493,280.028284 C67.20668,279.517432 60.944756,276.360529 56.4508577,271.140263 C51.9529684,265.919998 49.7658847,259.258971 50.2767364,252.39041 C50.2807274,252.334536 50.2527902,252.290635 50.2567812,252.23476 C50.3206377,251.61216 50.2887095,250.973595 50.0372747,250.347004 C49.2191138,248.299606 46.8963351,247.297858 44.8489374,248.127992 C35.7134728,251.779783 25.312852,247.333777 21.6490877,238.210286 C17.9893144,229.082803 22.4353204,218.6742 31.566794,215.010436 C33.6141917,214.192275 34.6079578,211.869496 33.7858059,209.822099 C33.1232951,208.169813 31.4789913,207.247885 29.7907862,207.379589 C29.5672886,207.34367 29.3637461,207.247885 29.1322665,207.247885 C17.6301218,207.247885 8.2711596,197.888923 8.2711596,186.386778 C8.2711596,174.884634 17.6301218,165.525671 29.1322665,165.525671 C31.3353143,165.525671 33.1232951,163.741682 33.1232951,161.534643 C33.1232951,159.327604 31.3353143,157.543614 29.1322665,157.543614 C26.5500709,157.543614 24.059669,157.91478 21.6810159,158.553344 C18.1210184,153.656352 16.1694053,147.917253 16.1694053,141.795015 C16.1694053,125.982559 29.0324908,113.115483 44.8449464,113.115483 C60.657402,113.115483 73.5244784,125.982559 73.5244784,141.795015 C73.5244784,143.998063 75.3084682,145.786044 77.5155071,145.786044 C79.7225459,145.786044 81.5065357,143.998063 81.5065357,141.795015 C81.5065357,121.580455 65.0595066,105.133425 44.8449464,105.133425 C43.1966515,105.133425 41.5842759,105.281094 39.9918555,105.496609 C39.9000618,105.38486 39.8561605,105.249165 39.7484027,105.145399 C35.8212305,101.405805 34.9910966,95.5150464 37.7449063,90.8255877 C40.9896127,85.2940219 48.133554,83.4302116 53.6810838,86.6749179 C55.5887955,87.7924059 58.0273141,87.1578323 59.1408111,85.2541117 C60.2582991,83.354382 59.6197345,80.9078814 57.7200048,79.7903934 C55.0539977,78.2299012 52.172475,77.4436685 49.2869613,77.224162 C47.7903255,70.8624623 48.5845402,64.2533188 51.6257041,58.3944887 C54.9981233,51.9130581 60.6893302,47.1278148 67.6576662,44.9247669 C71.8921477,43.5837813 76.2423689,43.2884452 80.5806171,44.0507316 C87.6846481,45.2879505 94.1261684,49.3667818 98.2648651,55.241576 C99.5300212,57.04153 102.028405,57.4765521 103.828359,56.203414 C105.628313,54.9342668 106.059344,52.4438649 104.790197,50.63992 C99.4462096,43.0529745 91.1209238,37.7848166 81.9535309,36.1884052 C81.5664012,36.1205577 81.1752804,36.1085846 80.7841595,36.0567012 C81.1792714,20.579492 93.8667515,8.11151846 109.431763,8.11151846 L109.459701,8.11151846 C117.118485,8.11950052 124.314309,11.108781 129.726144,16.5285979 C135.137979,21.9524059 138.111295,29.1562126 138.103313,36.8149967 C138.103313,36.9227544 138.159188,37.0145481 138.16717,37.1223059 C138.155197,37.2460278 138.09134,37.3537855 138.09134,37.4814985 L138.09134,273.99784 C138.09134,288.992134 125.898748,301.192709 110.900462,301.192709 Z" id="Path" fill="#D3CFFF"></path>
            </g>
            <g id="Group-3" transform="translate(217.910165, 0.000000)">
                <path d="M0.464447108,44.3983143 C0.464447108,20.1338358 20.1338358,0.464356312 44.3979511,0.464356312 C68.6620665,0.464356312 88.3314552,20.1338358 88.3314552,44.3983143 C88.3314552,68.6623389 68.6620665,88.331546 44.3979511,88.331546 C20.1338358,88.331546 0.464447108,68.6623389 0.464447108,44.3983143 Z" id="Ellipse" fill="#D7F3E6"></path>
                <g id="Group" transform="translate(23.644602, 22.347518)" fill="#46CD90">
                    <path d="M11.8334877,28.6563516 L10.669593,28.6563516 L10.669593,26.5336656 L11.8334877,26.5336656 L15.9073375,26.5336656 L17.0713292,26.5336656 L17.0713292,28.6563516 L15.9073375,28.6563516 L11.8334877,28.6563516 Z M26.6739214,28.6563516 L25.6069047,28.6563516 L25.6069047,26.5336656 L26.6739214,26.5336656 L30.9417213,26.5336656 L32.0087137,26.5336656 L32.0087137,28.6563516 L30.9417213,28.6563516 L26.6739214,28.6563516 Z" id="Combined-shape-300"></path>
                    <path d="M42.6782365,1.06145012 L42.6782365,2.09173257 L42.6782365,26.5649563 L42.6782365,27.0794762 L42.6782365,32.9017111 C42.6782365,32.9017111 42.6782365,43.5151161 21.3391174,43.5151161 C-1.67365719e-06,43.5151161 -1.67365719e-06,32.9017111 -1.67365719e-06,32.9017111 L-1.67365719e-06,27.0794762 L-1.67365719e-06,26.5649563 L-1.67365719e-06,2.09173257 L-1.67365719e-06,1.06145012 C-1.67365719e-06,0.475498559 0.477688539,0.000330547294 1.06699495,0.000330547294 C1.65625617,0.000330547294 2.1339012,0.475498559 2.1339012,1.06145012 L2.1339012,2.09173257 L2.1339012,15.1829703 C4.59736557,10.9387681 9.90473837,6.36838274 21.3391174,6.36838274 C32.7734964,6.36838274 38.0809596,10.9387681 40.5443336,15.1829703 L40.5443336,2.09173257 L40.5443336,1.06145012 C40.5443336,0.475498559 41.0221142,0.000330547294 41.6112398,0.000330547294 C42.2005462,0.000330547294 42.6782365,0.475498559 42.6782365,1.06145012 Z M5.33480069,27.5951927 C5.33480069,31.9922918 8.91871997,35.5551774 13.3397607,35.5551774 L29.3385644,35.5551774 C33.7649375,35.5551774 37.3434341,31.9915094 37.3434341,27.5951927 C37.3434341,23.1977254 33.7596052,19.635254 29.3385644,19.635254 L13.3397607,19.635254 C8.91343289,19.635254 5.33480069,23.1989221 5.33480069,27.5951927 Z" id="Combined-shape-301"></path>
                </g>
            </g>
            <g id="Group-3" transform="translate(274.981875, 129.708432)">
                <path d="M0.464447108,44.3983143 C0.464447108,20.1338358 20.1338358,0.464356312 44.3979511,0.464356312 C68.6620665,0.464356312 88.3314552,20.1338358 88.3314552,44.3983143 C88.3314552,68.6623389 68.6620665,88.331546 44.3979511,88.331546 C20.1338358,88.331546 0.464447108,68.6623389 0.464447108,44.3983143 Z" id="Ellipse" fill="#C7EDFF"></path>
                <g id="Group" transform="translate(18.456265, 23.644602)" fill="#21B5FB" fill-rule="nonzero">
                    <rect id="Rectangle-path" x="0" y="15.4066665" width="2.40550183" height="4.7537298"></rect>
                    <rect id="Rectangle-path" x="49.1409659" y="15.4066665" width="2.40550183" height="4.7537298"></rect>
                    <polygon id="Shape" points="26.1741508 2.29095412 26.8614371 2.29095412 26.8614371 0 24.5704829 0 24.5704829 2.29095412 25.2577692 2.29095412"></polygon>
                    <path d="M43.4708544,5.49828989 L26.1741508,5.49828989 L26.1741508,2.29095412 L25.2577692,2.29095412 L25.2577692,5.49828989 L8.19016098,5.49828989 C6.07102842,5.49828989 4.35281283,7.21650548 4.35281283,9.3929119 L4.35281283,34.4788595 L4.35281283,43.4135806 C4.35281283,43.5281283 4.46736054,43.5854021 4.58190824,43.5281283 L16.0939527,34.5361334 C16.0939527,34.5361334 16.1512266,34.4788595 16.2085004,34.4788595 L43.3563067,34.4788595 C45.4754393,34.4788595 47.1936549,32.7606439 47.1936549,30.5842375 L47.1936549,9.22109034 C47.1936549,7.15923163 45.5327131,5.49828989 43.4708544,5.49828989 Z M20.0458486,23.5968274 L16.6094174,23.5968274 L16.6094174,15.4066665 L20.0458486,15.4066665 L20.0458486,23.5968274 Z M34.9943242,23.5968274 L31.557893,23.5968274 L31.557893,15.4066665 L34.9943242,15.4066665 L34.9943242,23.5968274 Z" id="Shape"></path>
                </g>
            </g>
            <g id="Group-3" transform="translate(217.910165, 259.416864)" fill="#FFF3D7">
                <path d="M0.464447108,44.3983143 C0.464447108,20.1338358 20.1338358,0.464356312 44.3979511,0.464356312 C68.6620665,0.464356312 88.3314552,20.1338358 88.3314552,44.3983143 C88.3314552,68.6623389 68.6620665,88.331546 44.3979511,88.331546 C20.1338358,88.331546 0.464447108,68.6623389 0.464447108,44.3983143 Z" id="Ellipse"></path>
            </g>
            <g id="noun_960158_cc" transform="translate(236.366430, 286.952719)" fill="#FECE60" fill-rule="nonzero">
                <path d="M25.8051512,0 C11.5754535,0 0,9.09631579 0,20.2754759 C0,32.4591937 14.036159,35.0212766 25.8051512,35.0212766 C37.5741433,35.0212766 51.6103024,32.4591937 51.6103024,20.2754759 C51.6103024,9.09631579 40.0348488,0 25.8051512,0 Z M37.7861142,25.8051512 C34.0730688,25.8017842 30.9418561,23.0377882 30.4777268,19.3538634 L21.1325756,19.3538634 C20.645993,23.2159933 17.2408111,26.0344499 13.3557903,25.7906801 C9.4707695,25.5469103 6.44460248,22.3249119 6.44460248,18.4322508 C6.44460248,14.5395897 9.4707695,11.3175914 13.3557903,11.0738216 C17.2408111,10.8300518 20.645993,13.6485083 21.1325756,17.5106383 L30.4777268,17.5106383 C30.9718573,13.5886118 34.4711835,10.7541691 38.410325,11.0852598 C42.3494664,11.4163506 45.3265607,14.795146 45.1590792,18.7446279 C44.9915977,22.6941097 41.7391439,25.8087353 37.7861142,25.8051512 Z" id="Shape"></path>
            </g>
        </g>
    </g>
</svg>