<?xml version="1.0" encoding="UTF-8"?>
<svg width="269px" height="300px" viewBox="0 0 269 300" version="1.1" xmlns="http://www.w3.org/2000/svg" xmlns:xlink="http://www.w3.org/1999/xlink">
    <!-- Generator: Sketch 48.1 (47250) - http://www.bohemiancoding.com/sketch -->
    <title>noun_749516_cc</title>
    <desc>Created with Sketch.</desc>
    <defs></defs>
    <g id="Security" stroke="none" stroke-width="1" fill="none" fill-rule="evenodd" transform="translate(-1101.000000, -646.000000)">
        <g id="noun_749516_cc" transform="translate(1101.000000, 646.000000)" fill-rule="nonzero">
            <path d="M254.376083,178.131326 L254.397587,178.131326 L192.419491,154.103343 L130.427059,178.131326 C130.351795,193.76662 129.760435,227.35557 139.605681,248.970563 C148.79147,269.173431 165.793962,290.224302 192.419491,300 C219.012764,290.224302 236.026008,269.173431 245.211798,248.970563 C255.049875,227.35557 254.447763,193.76662 254.376083,178.131326 Z" id="Shape" fill="#C6F4DF"></path>
            <path d="M249.995086,65.5865024 C228.04629,28.2678042 186.630336,2.67051897 144.56151,0.378924989 C141.264682,0.12630833 137.913748,0 134.602492,0 C82.3474045,0 34.3666511,30.9347143 12.407034,78.7225687 C-4.42698919,112.948517 -4.09153512,160.859071 13.175332,195.121108 C34.0600533,240.231225 82.956993,271.732523 132.081176,271.732523 C133.275104,271.732523 134.472639,271.714479 135.666567,271.678391 L141.975268,271.483515 L138.606299,266.146086 C135.792813,261.681989 133.278711,257.055495 131.085635,252.288258 L130.703289,251.411317 L129.931384,250.841125 C112.956687,238.235554 98.4455929,221.126188 88.7534951,202.360379 C97.6412245,198.553085 107.1169,195.980004 117.598938,194.525654 L120.762306,194.088988 L120.708201,190.891583 C120.661309,188.177758 120.646881,185.604677 120.646881,183.190384 L120.646881,179.054688 L116.552899,179.610445 C104.876933,181.205539 93.4714943,184.240547 82.5962897,188.646904 C77.1135995,174.218883 73.7626658,158.58913 73.0881507,144.446206 L118.962397,144.370421 L128.993556,144.413727 L128.961092,166.477987 L143.883388,160.768851 L143.959136,144.453423 L186.882829,144.359594 L194.313317,141.519461 L214.483846,149.224269 L214.671411,144.359594 L254.226135,144.280201 C253.851004,149.567106 253.100741,154.940624 251.986168,160.303314 L251.362151,163.313061 L265.292513,168.625229 L266.158201,164.489533 C273.17388,131.053914 266.962569,93.1289359 249.995086,65.5865024 Z M195.727274,61.3569777 C187.402242,45.6983537 174.597274,30.0722089 159.891401,17.4522023 C180.967295,21.9740406 199.666154,31.6817379 215.656131,46.4128979 C209.704527,52.0715111 202.912484,57.1635412 195.727274,61.3569777 Z M143.955529,77.9250218 L144.042097,23.9444505 C159.252956,35.3627235 173.428596,51.5987571 182.49307,68.0693633 C169.835991,73.8362407 157.160877,77.0805604 143.955529,77.9250218 Z M254.30549,129.469647 L214.718303,129.549041 C213.744404,110.801276 209.682885,92.7933166 202.335358,74.7059638 C210.663998,69.9531618 218.570614,64.1249346 225.921747,57.3259376 C243.213864,77.5316616 252.747252,101.768426 254.30549,129.469647 Z M129.087338,93.2732882 L128.932236,129.624826 L73.127828,129.635652 C73.9285894,113.089261 77.2290246,97.7734736 83.169808,83.0350959 C98.5249476,89.1736807 114.255219,92.6814435 129.087338,93.2732882 Z M89.5434354,69.4334932 C98.7197274,52.0642935 112.841262,35.4890318 129.228013,22.7968491 L128.989949,78.2389882 C115.431111,77.5894025 103.268196,74.8755778 89.5434354,69.4334932 Z M76.1216654,62.9087658 C67.6559589,58.3291866 59.8683746,52.7102704 53.6606708,46.7088203 C70.8157199,31.0213258 91.1161018,20.8336568 113.082933,16.8098343 C97.9586434,30.032512 84.7100111,46.4995094 76.1216654,62.9087658 Z M14.8381742,129.675349 L15.0185259,124.630233 C15.1844494,124.15387 15.2746252,123.594505 15.2601971,122.94131 L15.3323378,122.389163 C18.5894886,96.9398386 27.9822026,75.0668447 43.2615945,57.3115024 C51.8715824,65.2003598 60.7593118,71.634867 69.7588592,76.4959332 C63.2084872,92.5803968 59.0135078,111.948877 58.2488168,129.61039 L14.8381742,129.675349 Z M57.5310172,144.406509 L58.3750629,144.431771 C59.0567922,161.515874 62.7071096,178.560281 69.2538746,195.186066 C58.9990796,200.826635 50.1005292,208.011775 43.0271374,214.247798 C26.1570439,194.29469 16.6994033,170.859082 14.8706375,144.478685 L57.5310172,144.406509 Z M75.2956549,208.93563 C84.2699531,225.987255 96.8621054,242.071718 111.052173,254.745857 C89.8175699,250.559638 70.1015273,240.42971 53.3107886,225.027311 C60.1028318,218.369058 67.9805919,213.201243 75.2956549,208.93563 Z M188.902767,81.6204426 C195.308858,96.6186546 198.966389,112.699509 199.799614,129.523779 L144.020455,129.653696 L143.923065,92.9160161 C159.141138,91.9308111 174.55399,88.0585586 188.902767,81.6204426 Z" id="Shape" fill="#D3CFFF"></path>
            <path d="M244.062266,187.314445 C243.429422,205.176864 242.839483,228.663104 235.95686,243.740736 C227.837152,261.523589 213.69649,278.825433 194.085484,287.234043 C174.424422,278.825433 160.301637,261.523589 152.18908,243.740736 C145.299307,228.663104 144.73082,205.18048 144.072948,187.314445 L194.228499,167.781155 L244.3769,187.314445 L244.062266,187.314445 Z" id="Shape" fill="#46CD90"></path>
            <path d="M159.306129,239.827555 C159.877418,241.04958 160.517844,242.260886 161.176464,243.465046 L230.699088,191.55755 L194.438597,177.81155 L152.279635,193.801503 C152.890951,206.929343 153.269385,227.017727 159.306129,239.827555 Z" id="Shape" fill="#C6F4DF"></path>
            <path d="M194.643781,276.291793 C210.602812,269.111277 222.163769,254.66808 228.817813,240.232027 C233.457853,230.107857 234.657004,215.518191 235.258359,203.343465 L168.693009,254.232247 C175.293679,263.381154 183.940378,271.494065 194.643781,276.291793 Z" id="Shape" fill="#C6F4DF"></path>
        </g>
    </g>
</svg>