<?xml version="1.0" encoding="UTF-8"?>
<svg width="357px" height="344px" viewBox="0 0 357 344" version="1.1" xmlns="http://www.w3.org/2000/svg" xmlns:xlink="http://www.w3.org/1999/xlink">
    <!-- Generator: Sketch 48.1 (47250) - http://www.bohemiancoding.com/sketch -->
    <title>Group 2</title>
    <desc>Created with Sketch.</desc>
    <defs>
        <linearGradient x1="0%" y1="91.0817459%" x2="98.6228476%" y2="1.25433447%" id="linearGradient-1">
            <stop stop-color="#9CE5C4" offset="0%"></stop>
            <stop stop-color="#46CD90" offset="100%"></stop>
        </linearGradient>
        <linearGradient x1="-0.231640749%" y1="50%" x2="99.1845129%" y2="50%" id="linearGradient-2">
            <stop stop-color="#7F68FC" offset="0%"></stop>
            <stop stop-color="#9084FC" offset="27.71%"></stop>
            <stop stop-color="#A197FD" offset="100%"></stop>
        </linearGradient>
    </defs>
    <g id="Financial-Services-" stroke="none" stroke-width="1" fill="none" fill-rule="evenodd" transform="translate(-1012.000000, -607.000000)">
        <g id="Group-2" transform="translate(1012.000000, 607.000000)">
            <g id="noun_138254_cc" transform="translate(0.000000, 102.579882)">
                <path d="M249.936531,221.846029 C249.968296,222.093803 249.990533,222.347929 249.990533,222.605232 L249.990533,234.669885 C249.990533,237.948116 247.334911,240.603737 244.05668,240.603737 L213.494799,240.603737 C212.881719,240.603737 212.287699,240.511616 211.731797,240.336904 C209.317596,239.587231 207.564123,237.331859 207.564123,234.669885 L207.564123,224.377764 L207.564123,113.508751 L207.846839,113.222859 C207.910371,113.159327 207.970726,113.092619 208.031081,113.029088 C208.132731,112.921084 208.237558,112.81308 208.339209,112.705076 C208.297913,112.749548 208.256618,112.794021 208.215322,112.841669 C208.364622,112.698723 209.365244,111.694924 210.559639,110.500529 L236.775958,84.2842105 L249.59346,71.5429461 L249.847586,165.474432 L249.936531,221.846029 Z" id="Path" fill="#D3CFFF"></path>
                <path d="M152.450452,168.177702 L152.450452,222.602055 C152.450452,222.602055 152.450452,222.605232 152.450452,222.605232 L152.450452,234.669885 C152.450452,237.948116 155.106073,240.603737 158.384304,240.603737 L188.946185,240.603737 C192.224416,240.603737 194.880037,237.948116 194.880037,234.669885 L194.880037,222.605232 L194.880037,126.192837 L155.264902,165.804796 C154.388166,166.684709 153.444721,167.472501 152.450452,168.177702 Z" id="Path" fill="#D3CFFF"></path>
                <path d="M107.53678,148.781501 L97.343133,158.975148 L97.343133,222.602055 C97.343133,222.602055 97.343133,222.602055 97.343133,222.602055 L97.343133,234.666708 C97.343133,237.944939 99.9987543,240.600561 103.276985,240.600561 L133.838866,240.600561 C137.113921,240.600561 139.772719,237.944939 139.772719,234.666708 L139.772719,222.602055 C139.772719,222.602055 139.772719,222.602055 139.772719,222.598879 L139.772719,172.157957 C134.026285,172.119838 128.629274,169.870819 124.563251,165.807973 L107.53678,148.781501 Z" id="Path" fill="#D3CFFF"></path>
                <path d="M55.3296792,200.972719 L54.1765805,202.068639 C54.0145749,202.221115 53.2934911,202.926316 52.0927437,204.13024 L42.2326378,213.990346 L42.2326378,222.605232 L42.2326378,234.669885 C42.2326378,237.948116 44.8882591,240.603737 48.1664902,240.603737 L78.7283712,240.603737 C82.0066023,240.603737 84.6622236,237.948116 84.6622236,234.669885 L84.6622236,222.605232 C84.6622236,222.605232 84.6622236,222.602055 84.6622236,222.602055 L84.6622236,171.659234 L57.2610402,199.060417 C56.5113672,199.806914 55.8284024,200.483525 55.3296792,200.972719 Z" id="Path" fill="#D3CFFF"></path>
                <path d="M277.363127,2.68421053 C276.117907,1.1403924 274.037247,0.81638119 272.512488,0.81638119 C271.60081,0.81638119 270.61607,0.930738088 269.586858,1.15309872 L213.021489,13.4146995 C209.431953,14.1929617 207.824603,15.6033634 207.538711,16.5722205 C207.252818,17.5442541 207.840486,19.5963251 210.438929,22.1884148 L224.015634,35.7460604 L204.47331,55.2883837 L146.055995,113.705699 L138.594207,121.167487 L111.834693,94.4079726 C109.480847,92.0541264 105.659421,92.0541264 103.305575,94.4079726 L101.012083,96.7014637 L92.216132,105.497415 L19.7710371,177.939334 L2.70644659,195.003924 C1.32463407,196.385737 0.759202741,198.269449 1.00062286,200.064217 C0.806851448,201.18555 1.13403924,202.383121 1.99806914,203.243974 L12.0837122,213.329617 C12.4426658,213.688571 12.8619745,213.952227 13.3066957,214.130115 L13.7958891,214.619309 C16.1497353,216.973155 19.9711616,216.973155 22.3250078,214.619309 L103.559701,133.384615 L107.562192,129.382124 L122.16811,143.988041 C122.349175,144.169106 122.53977,144.331112 122.736718,144.483588 C122.889193,144.680536 123.051199,144.87113 123.232264,145.052196 L134.321707,156.141638 C136.675553,158.495484 140.496979,158.495484 142.850825,156.141638 L165.665026,133.327437 L224.082342,74.9101215 L243.640548,55.3519153 L257.179134,68.8714419 C259.93323,71.6223606 261.791529,71.8351915 262.293429,71.8351915 C264.113609,71.8351915 265.409654,68.8492059 265.965556,66.2920585 L278.24304,9.81245718 C278.916475,6.75023357 278.601993,4.21849891 277.363127,2.68421053 Z" id="Path" fill="url(#linearGradient-1)"></path>
            </g>
            <g id="Group-3" transform="translate(267.633136, 0.000000)" fill="#D7F3E6">
                <path d="M0.467195316,44.6610262 C0.467195316,20.2529709 20.2529709,0.467103983 44.6606609,0.467103983 C69.0683509,0.467103983 88.8541265,20.2529709 88.8541265,44.6610262 C88.8541265,69.0686249 69.0683509,88.8542178 44.6606609,88.8542178 C20.2529709,88.8542178 0.467195316,69.0686249 0.467195316,44.6610262 Z" id="Ellipse"></path>
            </g>
            <g id="noun_1080081_cc" transform="translate(288.757396, 22.130178)" fill="#46CD90" fill-rule="nonzero">
                <path d="M14.3120958,0.430438971 C6.40277969,0.430438971 0,6.83321866 0,14.7425347 C0,22.598046 6.40277969,29.0008257 14.3120958,29.0008257 C22.2214119,29.0008257 28.5703867,22.598046 28.5703867,14.7425347 C28.5703867,6.83321866 22.167607,0.430438971 14.3120958,0.430438971 Z M15.2805835,21.8447778 L15.2805835,23.0822898 C15.2805835,23.7279483 14.7425347,24.2121921 14.1506812,24.2121921 C13.5050227,24.2121921 13.0207789,23.6741434 13.0207789,23.0822898 L13.0207789,22.0061924 C11.9984863,21.9523875 11.0299986,21.7909729 10.2229256,21.5219485 C9.52346223,21.306729 9.14682813,20.6072657 9.36204761,19.9078024 L9.41585248,19.8001927 C9.63107197,19.0469245 10.438145,18.6164855 11.1376084,18.8855098 C11.8908766,19.1545342 12.7517545,19.3159488 13.6664373,19.3159488 C15.0115591,19.3159488 15.9262419,18.7779001 15.9262419,17.8632173 C15.9262419,17.0023393 15.1729737,16.4104858 13.4512178,15.8186322 C10.9761938,14.9577542 9.25443787,13.8278519 9.25443787,11.5680473 C9.25443787,9.52346223 10.7071694,7.90931609 13.1821935,7.42507224 L13.1821935,6.34897482 C13.1821935,5.70331636 13.7202422,5.21907252 14.3120958,5.21907252 C14.9577542,5.21907252 15.4419981,5.75712123 15.4419981,6.34897482 L15.4419981,7.26365763 C16.302876,7.3174625 16.9485345,7.42507224 17.5403881,7.58648686 C18.2398514,7.80170634 18.7240952,8.50116967 18.5088757,9.25443787 C18.3474611,10.0077061 17.5403881,10.438145 16.8409247,10.2229256 C16.302876,10.0615109 15.6034127,9.90009633 14.7963396,9.90009633 C13.2898032,9.90009633 12.8055594,10.5457548 12.8055594,11.1914132 C12.8055594,11.9446814 13.6126324,12.4289253 15.6034127,13.1821935 C18.401266,14.1506812 19.4773634,15.4419981 19.4773634,17.5403881 C19.4235586,19.638778 17.970827,21.4143388 15.2805835,21.8447778 Z" id="Shape"></path>
                <path d="M37.232971,3.76634099 C34.0584836,3.76634099 31.4220449,6.34897482 31.4220449,9.5772671 C31.4220449,12.7517545 34.0046787,15.3881932 37.232971,15.3881932 C40.4612632,15.3881932 43.0438971,12.7517545 43.0438971,9.5772671 C43.0438971,6.34897482 40.4074584,3.76634099 37.232971,3.76634099 Z M37.6096051,12.4827301 L37.6096051,12.966974 C37.6096051,13.2359983 37.3943856,13.4512178 37.1253612,13.4512178 C36.8563369,13.4512178 36.6411174,13.2359983 36.6411174,12.966974 L36.6411174,12.536535 C36.2106784,12.536535 35.8340443,12.4289253 35.5112151,12.3213155 C35.2421907,12.2137058 35.0807761,11.9446814 35.134581,11.6756571 L35.134581,11.6218522 C35.1883859,11.299023 35.56502,11.1376084 35.8340443,11.2452181 C36.1568735,11.3528279 36.4797028,11.4066327 36.8563369,11.4066327 C37.3943856,11.4066327 37.7710197,11.1914132 37.7710197,10.8147791 C37.7710197,10.438145 37.4481904,10.2229256 36.7487271,10.0077061 C35.7264346,9.68487684 35.0269712,9.200633 35.0269712,8.28595019 C35.0269712,7.47887712 35.6188248,6.77941379 36.6411174,6.61799917 L36.6411174,6.1875602 C36.6411174,5.91853585 36.8563369,5.70331636 37.1253612,5.70331636 C37.3943856,5.70331636 37.6096051,5.91853585 37.6096051,6.1875602 L37.6096051,6.5641943 C37.9324343,6.5641943 38.2014586,6.61799917 38.470483,6.67180405 C38.7395074,6.72560892 38.9547268,7.04843815 38.8471171,7.3174625 C38.7933122,7.64029173 38.470483,7.80170634 38.1476538,7.6940966 C37.9324343,7.64029173 37.6634099,7.58648686 37.2867758,7.58648686 C36.6949223,7.58648686 36.4797028,7.85551122 36.4797028,8.12453557 C36.4797028,8.4473648 36.802532,8.66258429 37.6096051,8.93160864 C38.7395074,9.30824274 39.1699463,9.84629145 39.1699463,10.7071694 C39.3313609,11.5680473 38.7395074,12.2675107 37.6096051,12.4827301 Z" id="Shape"></path>
                <path d="M20.5534609,30.7763864 C16.4104858,30.7763864 13.0207789,34.1660933 13.0207789,38.3090684 C13.0207789,42.4520435 16.4104858,45.8417504 20.5534609,45.8417504 C24.6964359,45.8417504 28.0861428,42.4520435 28.0861428,38.3090684 C28.0861428,34.1122884 24.7502408,30.7763864 20.5534609,30.7763864 Z M21.0915096,42.0754094 L21.0915096,42.7210678 C21.0915096,43.0438971 20.8224852,43.3129214 20.499656,43.3129214 C20.1768268,43.3129214 19.9078024,43.0438971 19.9078024,42.7210678 L19.9078024,42.1292143 C19.3697537,42.1292143 18.831705,42.0216045 18.401266,41.8601899 C18.0246319,41.7525802 17.8632173,41.3759461 17.9170222,40.999312 L17.9170222,40.9455071 C18.0246319,40.568873 18.4550709,40.3536535 18.831705,40.4612632 C19.2083391,40.6226779 19.6925829,40.6764827 20.1768268,40.6764827 C20.8762901,40.6764827 21.3605339,40.4074584 21.3605339,39.9232145 C21.3605339,39.4389707 20.9838998,39.1699463 20.069217,38.8471171 C18.7240952,38.4166781 17.8632173,37.7710197 17.8632173,36.5873125 C17.8632173,35.5112151 18.6164855,34.6503371 19.9616073,34.3813128 L19.9616073,33.8970689 C19.9616073,33.5742397 20.2306316,33.3052154 20.5534609,33.3052154 C20.8762901,33.3052154 21.1453144,33.5742397 21.1453144,33.8970689 L21.1453144,34.3813128 C21.5757534,34.3813128 21.9523875,34.4351177 22.2752167,34.5427274 C22.6518508,34.6503371 22.8670703,35.0269712 22.8132654,35.4036053 C22.7056557,35.7802394 22.3290216,36.0492638 21.9523875,35.8878492 C21.6833631,35.7802394 21.306729,35.7264346 20.8762901,35.7264346 C20.069217,35.7264346 19.8001927,36.0492638 19.8001927,36.4258979 C19.8001927,36.8563369 20.2306316,37.0715564 21.2529242,37.5019953 C22.7056557,38.040044 23.2975093,38.6857025 23.2975093,39.8156048 C23.2975093,40.8917022 22.4904362,41.806385 21.0915096,42.0754094 Z" id="Shape"></path>
                <path d="M38.5242879,19.8001927 C33.036191,19.8001927 28.6241916,24.265997 28.6241916,29.700289 C28.6241916,35.1883859 33.0899959,39.6003853 38.5242879,39.6003853 C43.9585799,39.6003853 48.4243842,35.1883859 48.4243842,29.700289 C48.4243842,24.265997 43.9585799,19.8001927 38.5242879,19.8001927 Z M39.1699463,34.704142 L39.1699463,35.56502 C39.1699463,35.9954589 38.7933122,36.372093 38.3628733,36.372093 C37.9324343,36.372093 37.5558002,35.9954589 37.5558002,35.56502 L37.5558002,34.8117518 C36.8563369,34.7579469 36.1568735,34.6503371 35.6188248,34.4889225 C35.134581,34.3275079 34.8655566,33.8432641 35.0269712,33.3590202 L35.0269712,33.3052154 C35.1883859,32.7671666 35.7264346,32.4981423 36.2106784,32.6595569 C36.7487271,32.8209715 37.3405807,32.9823861 37.9862392,32.9823861 C38.900922,32.9823861 39.5465804,32.605752 39.5465804,31.9600936 C39.5465804,31.36824 39.0085317,30.937801 37.8248245,30.5611669 C36.1030687,29.9693133 34.9193615,29.1622403 34.9193615,27.601899 C34.9193615,26.1491675 35.9416541,25.07307 37.6634099,24.6964359 L37.6634099,23.9431677 C37.6634099,23.5127288 38.040044,23.1360947 38.470483,23.1360947 C38.900922,23.1360947 39.2775561,23.5127288 39.2775561,23.9431677 L39.2775561,24.5888262 C39.8694097,24.5888262 40.3536535,24.6964359 40.7302876,24.8040457 C41.2145314,24.9116554 41.5373607,25.4497041 41.4297509,25.933948 C41.3221412,26.4181918 40.7840925,26.7410211 40.2460438,26.5796064 C39.8694097,26.4719967 39.3851658,26.364387 38.7933122,26.364387 C37.7172148,26.364387 37.3943856,26.7948259 37.3943856,27.2790698 C37.3943856,27.8171185 37.9862392,28.1399477 39.3313609,28.6779964 C41.2683363,29.3774597 42.0216045,30.2383377 42.0216045,31.6910692 C42.0754094,33.1438007 41.0531168,34.3813128 39.1699463,34.704142 Z" id="Shape"></path>
                <path d="M6.02614559,30.1307279 C3.65873125,30.1307279 1.72175588,32.0677033 1.72175588,34.4351177 C1.72175588,36.802532 3.65873125,38.7395074 6.02614559,38.7395074 C8.39355993,38.7395074 10.3305353,36.802532 10.3305353,34.4351177 C10.3305353,32.0677033 8.39355993,30.1307279 6.02614559,30.1307279 Z M6.34897482,36.5335076 L6.34897482,36.9101417 C6.34897482,37.1253612 6.1875602,37.232971 6.02614559,37.232971 C5.8109261,37.232971 5.70331636,37.0715564 5.70331636,36.9101417 L5.70331636,36.5873125 C5.38048713,36.5873125 5.11146278,36.5335076 4.84243842,36.4258979 C4.62721893,36.372093 4.51960919,36.1568735 4.57341406,35.9416541 L4.57341406,35.8878492 C4.62721893,35.6726297 4.89624329,35.5112151 5.11146278,35.6188248 C5.32668226,35.6726297 5.59570662,35.7264346 5.86473098,35.7264346 C6.24136507,35.7264346 6.51038943,35.56502 6.51038943,35.2959956 C6.51038943,35.0269712 6.29516995,34.8655566 5.75712123,34.704142 C5.00385303,34.4351177 4.51960919,34.1122884 4.51960919,33.4128251 C4.51960919,32.8209715 4.95004816,32.3367277 5.70331636,32.1753131 L5.70331636,31.8524838 C5.70331636,31.6372643 5.86473098,31.5296546 6.02614559,31.5296546 C6.24136507,31.5296546 6.34897482,31.6910692 6.34897482,31.8524838 L6.34897482,32.1215082 C6.61799917,32.1215082 6.83321866,32.1753131 6.99463327,32.2291179 C7.20985276,32.2829228 7.37126737,32.4981423 7.26365763,32.7133618 C7.20985276,32.9285813 6.99463327,33.0899959 6.77941379,32.9823861 C6.61799917,32.9285813 6.40277969,32.8747764 6.13375533,32.8747764 C5.70331636,32.8747764 5.54190175,33.0899959 5.54190175,33.2514105 C5.54190175,33.46663 5.8109261,33.6280446 6.40277969,33.8432641 C7.20985276,34.1122884 7.58648686,34.5427274 7.58648686,35.134581 C7.58648686,35.8878492 7.15604789,36.4258979 6.34897482,36.5335076 Z" id="Shape"></path>
            </g>
            <path d="M70.3372781,139.452078 C70.3372781,119.889354 86.1953085,104.03125 105.75774,104.03125 C125.320172,104.03125 141.178203,119.889354 141.178203,139.452078 C141.178203,159.014437 125.320172,174.872321 105.75774,174.872321 C86.1953085,174.872321 70.3372781,159.014437 70.3372781,139.452078 Z" id="Ellipse" fill="#EAE8FF"></path>
            <g id="Group" transform="translate(89.686773, 123.380744)" fill-rule="nonzero">
                <path d="M25.9836069,0 C25.7071855,0 25.4307642,0 25.2464833,0 L5.3441461,0 C4.69916295,0 3.96203935,0.09214045 3.3170562,0.3685618 C1.38210675,1.1056854 0,3.04063485 0,5.06772475 C0,12.3468203 0,19.6259158 0,26.9050114 C0,27.8264159 0.1842809,28.8399608 0.64498315,29.5770844 C1.38210675,30.8670507 2.5799326,31.7884552 3.96203935,32.0648766 L3.96203935,15.6638765 C3.96203935,14.742472 4.0541798,13.728927 4.69916295,12.9918034 C5.3441461,12.1625394 6.2655506,11.6096967 7.371236,11.4254158 L7.371236,7.09481465 C6.72625285,6.72625285 6.2655506,6.17341015 6.0812697,5.43628655 C5.8969888,4.51488205 6.2655506,3.5013371 7.09481465,3.04063485 C7.9240787,2.48779215 9.0297641,2.5799326 9.85902815,3.1327753 C10.5961517,3.685618 10.9647135,4.7913034 10.6882922,5.7127079 C10.5040113,6.35769105 10.043309,6.8183933 9.49046635,7.09481465 L9.49046635,11.4254158 L24.2329383,11.4254158 C25.3386237,11.4254158 26.3521687,11.7939776 27.0892923,12.6232416 C27.8264159,13.3603652 28.1949777,14.3739102 28.1949777,15.3874551 L28.1949777,20.6394608 C28.1949777,22.2058484 27.1814327,23.6800956 25.7071855,24.2329383 C25.0622024,24.5093597 24.4172192,24.5093597 23.7722361,24.5093597 L12.8075225,24.5093597 L12.8075225,32.2491575 L27.1814327,32.2491575 C29.3006631,32.2491575 31.327753,30.6827698 31.9727361,28.6556799 C32.3412979,27.7342754 32.2491575,26.7207305 32.2491575,25.7071855 L32.2491575,5.3441461 C32.3412979,3.04063485 30.7749103,0.9214045 28.5635395,0.27642135 C27.9185563,0.09214045 27.3657136,0.09214045 26.7207305,0.09214045 L25.9836069,0.09214045 L25.9836069,0 Z" id="Shape" fill="url(#linearGradient-2)"></path>
                <path d="M11.3420294,14.8346124 C10.1442036,15.2031742 9.31493952,16.3088596 9.22279907,17.5066855 C9.13065862,18.6123709 9.77564177,19.7180563 10.6970463,20.270899 C11.5263103,20.7316012 12.5398553,20.7316012 13.3691193,20.3630394 C14.7512261,19.7180563 15.3962092,18.0595282 14.8433665,16.6774214 C14.4748047,15.571736 13.2769789,14.742472 12.079153,14.742472 C11.8027317,14.742472 11.6184508,14.742472 11.3420294,14.8346124 Z" id="Shape" fill="#7F72D0"></path>
                <path d="M20.4502208,14.9267529 C18.9759736,15.3874551 18.1467095,16.9538428 18.5152713,18.42809 C18.7916927,19.9023372 20.4502208,21.0080226 22.0166084,20.6394608 C23.5829961,20.3630394 24.596541,18.5202304 24.2279792,17.0459832 C23.9515579,15.7560169 22.6615916,14.742472 21.3716253,14.742472 C21.0030635,14.8346124 20.7266421,14.8346124 20.4502208,14.9267529 Z" id="Shape" fill="#7F72D0"></path>
            </g>
        </g>
    </g>
</svg>