<?xml version="1.0" encoding="utf-8"?>
<!-- Generator: Adobe Illustrator 21.1.0, SVG Export Plug-In . SVG Version: 6.00 Build 0)  -->
<svg version="1.1" id="Layer_1" xmlns="http://www.w3.org/2000/svg" xmlns:xlink="http://www.w3.org/1999/xlink" x="0px" y="0px"
	 viewBox="0 0 100 125" style="enable-background:new 0 0 100 125;" xml:space="preserve">
<style type="text/css">
	.st0{fill:#F75E62;}
</style>
<path class="st0" d="M53.8,30c0-8.8,7.1-16,16-16s16,7.1,16,16c0,8.8-7.1,16-16,16C61,45.9,53.8,38.8,53.8,30z M69.8,49.8
	c-6.2,0-11.9,2.2-16.3,6c4.3,5.2,6.9,11.9,6.9,19.2v11H95V75C95,61.1,83.7,49.8,69.8,49.8z M30.2,49.8C16.3,49.8,5,61.1,5,75v11
	h50.4V75C55.4,61.1,44.1,49.8,30.2,49.8z M30.2,45.9c8.8,0,16-7.1,16-16c0-8.8-7.1-16-16-16s-16,7.1-16,16
	C14.2,38.8,21.4,45.9,30.2,45.9z"/>
</svg>
