<?xml version="1.0" encoding="UTF-8"?>
<svg width="60px" height="60px" viewBox="0 0 60 60" version="1.1" xmlns="http://www.w3.org/2000/svg" xmlns:xlink="http://www.w3.org/1999/xlink">
    <!-- Generator: Sketch 48.1 (47250) - http://www.bohemiancoding.com/sketch -->
    <title>Group 4</title>
    <desc>Created with Sketch.</desc>
    <defs></defs>
    <g id="careers-copy" stroke="none" stroke-width="1" fill="none" fill-rule="evenodd" transform="translate(-771.000000, -1172.000000)">
        <g id="Group-4" transform="translate(771.000000, 1172.000000)">
            <path d="M7.98069069,-1.99840144e-14 L52.0184643,-1.99840144e-14 C56.4262392,-1.99840144e-14 60,4.0298988 60,9.00074906 L60,51.0009722 C60,55.9713125 56.4262392,60 52.0184643,60 L7.98069069,60 C3.57285083,60 5.46229728e-14,55.9713125 5.46229728e-14,51.0009722 L5.46229728e-14,9.00074906 C5.46229728e-14,4.0298988 3.57285083,-1.99840144e-14 7.98069069,-1.99840144e-14 Z" id="Rectangle" fill="#796DE3"></path>
            <g id="Group" transform="translate(13.000000, 13.000000)" fill="#FFFFFF" fill-rule="nonzero">
                <path d="M29.96875,30.7619048 C29.96875,31.1936508 29.5859375,31.6253968 29.09375,31.6253968 C28.6015625,31.6253968 28.21875,31.247619 28.21875,30.7619048 L28.21875,23.4761905 L26.359375,23.4761905 L26.359375,30.7619048 C26.359375,31.247619 25.9765625,31.6253968 25.484375,31.6253968 C24.9921875,31.6253968 24.609375,31.247619 24.609375,30.7619048 L24.609375,16.0285714 L22.75,16.0285714 L22.75,30.7619048 C22.75,32.2190476 23.953125,33.4063492 25.4296875,33.4063492 C26.140625,33.4063492 26.7421875,33.1365079 27.234375,32.7047619 C27.7265625,33.1365079 28.328125,33.4063492 29.0390625,33.4063492 C30.515625,33.4063492 31.71875,32.2190476 31.71875,30.7619048 L31.71875,16.0285714 L29.859375,16.0285714 L29.859375,30.7619048 L29.96875,30.7619048 Z" id="Shape"></path>
                <path d="M30.3515625,9.55238095 C31.6640625,8.63492063 32.484375,7.12380952 32.484375,5.45079365 C32.484375,2.64444444 30.1875,0.377777778 27.34375,0.377777778 C24.5,0.377777778 22.203125,2.64444444 22.203125,5.45079365 C22.203125,7.12380952 23.078125,8.63492063 24.3359375,9.55238095 C21.7109375,10.3079365 19.796875,12.7365079 19.796875,15.5428571 L19.796875,22.0730159 L21.65625,22.0730159 L21.65625,15.5428571 C21.65625,13.1142857 23.6796875,11.1174603 26.140625,11.1174603 L28.4921875,11.1174603 C30.953125,11.1174603 32.9765625,13.1142857 32.9765625,15.5428571 L32.9765625,22.0730159 L34.8359375,22.0730159 L34.8359375,15.5428571 C34.8359375,12.6825397 32.9765625,10.3079365 30.3515625,9.55238095 Z M27.34375,8.68888889 C25.5390625,8.68888889 24.0078125,7.23174603 24.0078125,5.45079365 C24.0078125,3.66984127 25.484375,2.15873016 27.34375,2.15873016 C29.1484375,2.15873016 30.625,3.61587302 30.625,5.45079365 C30.6796875,7.23174603 29.1484375,8.68888889 27.34375,8.68888889 Z" id="Shape"></path>
                <path d="M16.078125,31.7873016 L16.078125,23.3142857 L10.71875,23.3142857 C12.3046875,28.0095238 15.3125,31.0857143 16.078125,31.7873016 Z" id="Shape"></path>
                <path d="M9.6796875,17.215873 C9.6796875,18.7269841 9.8984375,20.1301587 10.171875,21.4253968 L16.0234375,21.4253968 L16.0234375,13.0603175 L10.171875,13.0603175 C9.8984375,14.3555556 9.6796875,15.7587302 9.6796875,17.215873 Z" id="Shape"></path>
                <path d="M14.7109375,1.56507937 C14.765625,1.51111111 14.984375,1.2952381 15.3671875,1.02539683 C9.1328125,1.61904762 3.8828125,5.66666667 1.640625,11.2253968 L8.75,11.2253968 C10.5546875,5.18095238 14.4921875,1.78095238 14.7109375,1.56507937 Z" id="Shape"></path>
                <path d="M7.8203125,17.215873 C7.8203125,15.7047619 7.984375,14.3015873 8.2578125,13.0063492 L1.0390625,13.0063492 C0.65625,14.3555556 0.4921875,15.7587302 0.4921875,17.215873 C0.4921875,18.6730159 0.7109375,20.0761905 1.0390625,21.4253968 L8.3125,21.4253968 C7.984375,20.1301587 7.8203125,18.7269841 7.8203125,17.215873 Z" id="Shape"></path>
                <path d="M10.6640625,11.2253968 L16.0234375,11.2253968 L16.0234375,2.86031746 C15.96875,2.91428571 15.96875,2.91428571 15.9140625,2.96825397 C15.859375,2.96825397 12.4140625,5.99047619 10.6640625,11.2253968 Z" id="Shape"></path>
                <path d="M8.75,23.3142857 L1.640625,23.3142857 C3.8828125,28.7650794 9.0234375,32.7587302 15.1484375,33.4603175 L15.0390625,33.352381 C14.765625,33.1365079 10.609375,29.4666667 8.75,23.3142857 Z" id="Shape"></path>
            </g>
        </g>
    </g>
</svg>