<?xml version="1.0" encoding="UTF-8"?>
<svg width="472px" height="472px" viewBox="0 0 472 472" version="1.1" xmlns="http://www.w3.org/2000/svg" xmlns:xlink="http://www.w3.org/1999/xlink">
    <title>851AC91B-0359-4379-981E-0C1426E6230D</title>
    <defs>
        <circle id="path-1" cx="62" cy="62" r="62"></circle>
    </defs>
    <g id="Home" stroke="none" stroke-width="1" fill="none" fill-rule="evenodd">
        <g id="Home-Desktop" transform="translate(-724.000000, -239.000000)">
            <g id="hero-image" transform="translate(725.000000, 240.000000)">
                <g id="Combined-Shape" transform="translate(142.000000, 150.000000)">
                    <circle id="bg-1" fill="#2B2069" opacity="0.411272321" cx="95" cy="95" r="95"></circle>
                    <g id="Group-18" transform="translate(33.000000, 33.000000)">
                        <mask id="mask-2" fill="white">
                            <use xlink:href="#path-1"></use>
                        </mask>
                        <use id="bg-2" fill="#2B2069" xlink:href="#path-1"></use>
                        <g mask="url(#mask-2)" id="bot">
                            <g transform="translate(32.000000, 25.000000)">
                                <circle id="Oval" fill="#02DAC9" cx="30.0001318" cy="36.4436837" r="29.8368"></circle>
                                <g id="space-logo-copy-6" transform="translate(3.176378, 21.833031)" fill="#1D1354">
                                    <path d="M38.4600495,0.149444096 C46.5367826,0.149444096 53.0842683,6.69692989 53.0842683,14.7736629 C53.0842683,22.8443239 46.541705,29.3868872 38.471044,29.3868872 L38.4600537,29.3868831 L38.4600537,29.3868831 L14.9970688,29.3692369 C6.91729044,29.3631602 0.358932844,22.8335224 0.317396518,14.7538486 C0.276144184,6.72941706 6.74778957,0.190888423 14.7722211,0.149636089 L38.4600495,0.149444096 Z M17.5559558,8.63615549 C13.9999725,8.63615549 11.1172785,11.4224451 11.1172785,14.8595075 C11.1172785,18.2965699 13.9999725,21.0828595 17.5559558,21.0828595 C21.111939,21.0828595 23.9946331,18.2965699 23.9946331,14.8595075 C23.9946331,11.4224451 21.111939,8.63615549 17.5559558,8.63615549 Z M37.1402658,8.63615549 C33.5842825,8.63615549 30.7015885,11.4224451 30.7015885,14.8595075 C30.7015885,18.2965699 33.5842825,21.0828595 37.1402658,21.0828595 C40.6962491,21.0828595 43.5789431,18.2965699 43.5789431,14.8595075 C43.5789431,11.4224451 40.6962491,8.63615549 37.1402658,8.63615549 Z" id="Combined-Shape-Copy-6"></path>
                                </g>
                                <path d="M7.03297533,0.174964963 C10.2019003,0.174964963 12.7708215,2.74388619 12.7708215,5.91281112 C12.7708215,8.26088884 11.3603906,10.2795428 9.34052236,11.1677792 L9.34086129,24.1521298 L4.75058437,24.1521298 L4.75075596,11.1788439 C2.71736039,10.2963908 1.29512918,8.2706909 1.29512918,5.91281112 C1.29512918,2.74388619 3.8640504,0.174964963 7.03297533,0.174964963 Z" id="Combined-Shape-Copy-13" fill="#02DAC9"></path>
                            </g>
                        </g>
                    </g>
                </g>
                <circle id="green-2" stroke="#02DAC9" stroke-width="0.4" cx="235" cy="235" r="234.8"></circle>
                <g id="Group-9">
                    <path d="M5.37263159,184.805196 C1.85374002,200.978108 0,217.772572 0,235 C0,304.304779 30.0009008,366.602473 77.7242591,409.614638 M235,470 C312.17218,470 380.656105,432.801154 423.499183,375.356053 C452.708897,336.190918 470,287.614736 470,235 M459.196321,164.355853 C429.206656,69.088288 340.171545,0 235,0 C166.34974,0 104.57484,29.4369153 61.609142,76.3769031" id="green-1" stroke="#02DAC9" stroke-width="2"></path>
                    <circle id="blue-3" stroke="#1C4A97" stroke-width="0.4" cx="235" cy="235" r="219.8"></circle>
                    <circle id="blue-2" stroke="#1C4A97" stroke-width="0.4" cx="235" cy="235" r="214.911111"></circle>
                    <circle id="blue-1" stroke="#1C4A97" stroke-width="0.4" cx="235" cy="235" r="210.022222"></circle>
                    <path d="M235,42.2 C258.757363,42.2 281.511122,46.4969423 302.526452,54.3561434 C309.330996,56.9008705 315.953284,59.8190604 322.368371,63.0857675 C328.09925,66.00406 333.66477,69.2004913 339.047148,72.6572766 C392.431786,106.943091 427.8,166.841183 427.8,235 C427.8,288.24025 406.220125,336.44025 371.330187,371.330187 C336.44025,406.220125 288.24025,427.8 235,427.8 C181.75975,427.8 133.55975,406.220125 98.6698126,371.330187 C63.7798751,336.44025 42.2,288.24025 42.2,235 C42.2,181.75975 63.7798751,133.55975 98.6698126,98.6698126 C133.55975,63.7798751 181.75975,42.2 235,42.2 L235,42.2 Z" id="yellow-1" stroke="#F6C94C" stroke-width="0.4"></path>
                    <path d="M235,402 C327.507696,402 402.5,327.007696 402.5,234.5" id="orange-1" stroke="#F97F51" stroke-width="0.6"></path>
                    <path d="M232,67 C173.441387,67 121.880408,96.9604318 91.8095602,142.388797" id="orange-2" stroke="#F97F51" stroke-linecap="round"></path>
                    <path d="M56.7070808,307.813136 C59.3667692,314.337363 62.3731864,320.683367 65.703443,326.828257 M77.4198505,345.752013 C91.3466757,365.593522 108.914222,382.693542 129.152175,396.081763 M332.347968,401.978263 C338.46024,398.425466 344.359596,394.546679 350.022229,390.365712 M366.480357,376.751566 C386.737163,358.024849 402.971644,335.010362 413.742137,309.149771 M343.932396,75.3168045 C337.8839,71.2016059 331.589401,67.4210683 325.075526,64.0018199 M304.886293,54.84836 C283.353513,46.5494843 259.958051,42 235.5,42" id="yellow-2" stroke="#F6C94C" stroke-width="2"></path>
                </g>
                <rect id="green-3" fill="#02DAC9" transform="translate(460.586380, 168.600410) rotate(-288.000000) translate(-460.586380, -168.600410) " x="457.58638" y="165.60041" width="6" height="6"></rect>
                <circle id="orange-3" stroke="#F97F51" stroke-width="0.6" cx="243" cy="68" r="10.3"></circle>
                <circle id="orange-4" fill="#F97F51" cx="243" cy="68" r="3"></circle>
                <path d="M131.824204,140.369235 C122.768759,150.237103 115.11051,161.40784 109.162953,173.56795 C100.091742,192.114545 95,212.962652 95,235 M107.386731,292.658422 C114.274735,307.879392 123.805889,321.648694 135.394697,333.380833 C147.021147,345.15108 160.718641,354.87091 175.895961,361.949106 M235,375 C250.385221,375 265.190802,372.518266 279.038261,367.93328 M348.000129,317.665798 C356.999485,305.384962 364.04516,291.582687 368.67941,276.716717 M375,235 C375,220.753175 372.87194,207.003386 368.916349,194.051161 C365.356235,182.393886 360.315751,171.382669 354.014,161.236612 M324.03582,126.955017 C312.634137,117.548546 299.7181,109.911919 285.708255,104.465682 C269.985049,98.3533876 252.884137,95 235,95 M195.730123,100.582454 C183.830132,104.053191 172.58553,109.061287 162.225751,115.377312" id="pink-1" stroke="#F28DD7" stroke-width="2.5"></path>
                <circle id="pink-2" fill="#F28DD7" cx="338" cy="140" r="6"></circle>
                <circle id="pink-3" fill="#F28DD7" cx="201" cy="369" r="6"></circle>
                <circle id="pink-4" fill="#F28DD7" cx="97" cy="261" r="6"></circle>
            </g>
        </g>
    </g>
</svg>