<?xml version="1.0" encoding="UTF-8"?>
<svg width="128px" height="37px" viewBox="0 0 128 37" version="1.1" xmlns="http://www.w3.org/2000/svg" xmlns:xlink="http://www.w3.org/1999/xlink">
    <title>Vaticle</title>
    <g id="Home" stroke="none" stroke-width="1" fill="none" fill-rule="evenodd">
        <g id="Home-Desktop" transform="translate(-51.000000, -22.000000)">
            <g id="logo" transform="translate(51.000000, 22.000000)">
                <g id="bot">
                    <path d="M16.5179297,3.63771869 C25.5908636,3.63771869 32.9459297,10.9927848 32.9459297,20.0657187 C32.9459297,29.1386526 25.5908636,36.4937187 16.5179297,36.4937187 C7.44499585,36.4937187 0.089929716,29.1386526 0.089929716,20.0657187 C0.089929716,10.9927848 7.44499585,3.63771869 16.5179297,3.63771869 Z M22.9248186,12.1034461 L9.88241303,12.1035518 C5.46419926,12.1262652 1.90094213,15.7263479 1.92365546,20.1445617 C1.94652517,24.5931916 5.55752563,28.1883791 10.0062131,28.1917249 L10.0062131,28.1917249 L22.9248209,28.2014408 L22.9248209,28.2014408 C27.3745396,28.2014431 30.9768438,24.5991388 30.9768438,20.1554714 C30.9768438,15.7084606 27.3718293,12.1034461 22.9248186,12.1034461 L22.9248186,12.1034461 Z" id="Combined-Shape" fill="#02DAC9"></path>
                    <g id="space-logo-copy-6" transform="translate(1.748898, 12.021163)"></g>
                    <ellipse id="Oval" fill="#02DAC9" cx="11.4151241" cy="20.202737" rx="3.54510504" ry="3.42654798"></ellipse>
                    <ellipse id="Oval-Copy" fill="#02DAC9" cx="22.198152" cy="20.202737" rx="3.54510504" ry="3.42654798"></ellipse>
                    <path d="M3.87232273,0.0963348752 C5.6171177,0.0963348752 7.0315535,1.51077067 7.0315535,3.25556564 C7.0315535,4.54834919 6.25504526,5.65976952 5.14299389,6.14886153 L5.14303375,13.2980477 L2.61564913,13.2980477 L2.61517807,6.15477274 C1.49590199,5.66876812 0.713091957,4.55358442 0.713091957,3.25556564 C0.713091957,1.51077067 2.12752775,0.0963348752 3.87232273,0.0963348752 Z" id="Combined-Shape-Copy-13" fill="#02DAC9"></path>
                </g>
                <path d="M50.028,27.904 L55.208,12.9264 L54.9416,12.512 L52.8992,12.512 L48.4,25.832 L47.808,25.832 L43.3088,12.512 L41.2664,12.512 L41,12.9264 L46.18,27.904 L50.028,27.904 Z M69.2976,27.904 L69.2976,16.952 C69.2976,13.992 67.8176,12.512 64.8576,12.512 L64.8576,12.512 L59.7072,12.512 L58.5232,13.4 L58.5232,14.584 L64.8576,14.584 C66.2389333,14.584 66.9296,15.2746667 66.9296,16.656 L66.9296,16.656 L66.9296,18.9648 L61.5128,18.9648 C58.5330667,18.9648 57.0432,20.4546667 57.0432,23.4344 C57.0432,26.4141333 58.5330667,27.904 61.5128,27.904 L61.5128,27.904 L69.2976,27.904 Z M66.9296,25.832 L61.4832,25.832 C60.1018667,25.832 59.4112,25.1413333 59.4112,23.76 L59.4112,23.76 L59.4112,22.9608 C59.4112,21.5794667 60.1018667,20.8888 61.4832,20.8888 L61.4832,20.8888 L66.9296,20.8888 L66.9296,25.832 Z M80.9008,27.904 L82.0848,27.016 L82.0848,25.832 L78.2368,25.832 C76.8554667,25.832 76.1648,25.1413333 76.1648,23.76 L76.1648,23.76 L76.1648,14.584 L81.7888,14.584 L81.7888,12.512 L76.1648,12.512 L76.1648,7.48 L73.7968,7.48 L73.7968,23.464 C73.7968,26.424 75.2768,27.904 78.2368,27.904 L78.2368,27.904 L80.9008,27.904 Z M88.0048,9.6408 L88.0048,6.8584 L85.4,6.8584 L85.4,9.6408 L88.0048,9.6408 Z M87.8864,27.904 L87.8864,12.512 L85.5184,12.512 L85.5184,27.904 L87.8864,27.904 Z M102.6272,27.904 L103.8112,27.016 L103.8112,25.832 L96.8256,25.832 C95.4442667,25.832 94.7536,25.1413333 94.7536,23.76 L94.7536,23.76 L94.7536,16.656 C94.7536,15.2746667 95.4442667,14.584 96.8256,14.584 L96.8256,14.584 L103.8112,14.584 L103.8112,13.4 L102.6272,12.512 L96.8256,12.512 C93.8656,12.512 92.3856,13.992 92.3856,16.952 L92.3856,16.952 L92.3856,23.464 C92.3856,26.424 93.8656,27.904 96.8256,27.904 L96.8256,27.904 L102.6272,27.904 Z M111.8624,28.1408 L111.8624,26.0984 C110.481067,26.0194667 109.7904,25.2992 109.7904,23.9376 L109.7904,23.9376 L109.7904,6 L107.4224,6 L107.4224,23.7008 C107.4224,26.6608 108.9024,28.1408 111.8624,28.1408 L111.8624,28.1408 Z M125.952,27.904 L127.136,27.016 L127.136,25.832 L119.44,25.832 C118.058667,25.832 117.368,25.1413333 117.368,23.76 L117.368,23.76 L117.368,21.1256 L127.728,21.1256 L127.728,16.952 C127.728,13.992 126.248,12.512 123.288,12.512 L123.288,12.512 L119.44,12.512 C116.48,12.512 115,13.992 115,16.952 L115,16.952 L115,23.464 C115,26.424 116.48,27.904 119.44,27.904 L119.44,27.904 L125.952,27.904 Z M125.36,19.2016 L117.368,19.2016 L117.368,16.656 C117.368,15.2746667 118.058667,14.584 119.44,14.584 L119.44,14.584 L123.288,14.584 C124.669333,14.584 125.36,15.2746667 125.36,16.656 L125.36,16.656 L125.36,19.2016 Z" id="text-logo" fill="#FFFFFF" fill-rule="nonzero"></path>
            </g>
        </g>
    </g>
</svg>