<?xml version="1.0" encoding="UTF-8"?>
<svg width="480px" height="480px" viewBox="0 0 480 480" version="1.1" xmlns="http://www.w3.org/2000/svg" xmlns:xlink="http://www.w3.org/1999/xlink">
    <title>851AC91B-0359-4379-981E-0C1426E6230D</title>
    <defs>
        <circle id="path-1" cx="62" cy="62" r="62"></circle>
    </defs>
    <g id="Home" stroke="none" stroke-width="1" fill="none" fill-rule="evenodd">
        <g id="Home-Desktop" transform="translate(-720.000000, -235.000000)">
            <g id="hero-image" transform="translate(720.000000, 235.000000)">
                <g id="Combined-Shape">
                    <rect id="bounding-box" x="0" y="0" width="480" height="480" rx="240"></rect>
                    <circle id="bg-1" fill="#2B2069" opacity="0.411272321" cx="242" cy="250" r="95"></circle>
                    <g id="Group-18" transform="translate(180.000000, 188.000000)">
                        <mask id="mask-2" fill="white">
                            <use xlink:href="#path-1"></use>
                        </mask>
                        <use id="bg-2" fill="#2B2069" xlink:href="#path-1"></use>
                        <g mask="url(#mask-2)" id="bot">
                            <g transform="translate(32.000000, 25.000000)">
                                <circle id="Oval" fill="#02DAC9" cx="30.0001318" cy="36.4436837" r="29.8368"></circle>
                                <g id="space-logo-copy-6" transform="translate(3.176378, 21.833031)" fill="#1D1354">
                                    <path d="M38.4600495,0.149444096 C46.5367826,0.149444096 53.0842683,6.69692989 53.0842683,14.7736629 C53.0842683,22.8443239 46.541705,29.3868872 38.471044,29.3868872 L38.4600537,29.3868831 L38.4600537,29.3868831 L14.9970688,29.3692369 C6.91729044,29.3631602 0.358932844,22.8335224 0.317396518,14.7538486 C0.276144184,6.72941706 6.74778957,0.190888423 14.7722211,0.149636089 L38.4600495,0.149444096 Z M17.5559558,8.63615549 C13.9999725,8.63615549 11.1172785,11.4224451 11.1172785,14.8595075 C11.1172785,18.2965699 13.9999725,21.0828595 17.5559558,21.0828595 C21.111939,21.0828595 23.9946331,18.2965699 23.9946331,14.8595075 C23.9946331,11.4224451 21.111939,8.63615549 17.5559558,8.63615549 Z M37.1402658,8.63615549 C33.5842825,8.63615549 30.7015885,11.4224451 30.7015885,14.8595075 C30.7015885,18.2965699 33.5842825,21.0828595 37.1402658,21.0828595 C40.6962491,21.0828595 43.5789431,18.2965699 43.5789431,14.8595075 C43.5789431,11.4224451 40.6962491,8.63615549 37.1402658,8.63615549 Z" id="Combined-Shape-Copy-6"></path>
                                </g>
                                <path d="M7.03297533,0.174964963 C10.2019003,0.174964963 12.7708215,2.74388619 12.7708215,5.91281112 C12.7708215,8.26088884 11.3603906,10.2795428 9.34052236,11.1677792 L9.34086129,24.1521298 L4.75058437,24.1521298 L4.75075596,11.1788439 C2.71736039,10.2963908 1.29512918,8.2706909 1.29512918,5.91281112 C1.29512918,2.74388619 3.8640504,0.174964963 7.03297533,0.174964963 Z" id="Combined-Shape-Copy-13" fill="#02DAC9"></path>
                            </g>
                        </g>
                    </g>
                </g>
                <circle id="green-2" stroke="#02DAC9" stroke-width="0.4" cx="240" cy="240" r="234.8"></circle>
                <path d="M10.3726316,189.805196 C6.85374002,205.978108 5,222.772572 5,240 C5,309.304779 35.0009008,371.602473 82.7242591,414.614638 M240,475 C317.17218,475 385.656105,437.801154 428.499183,380.356053 C457.708897,341.190918 475,292.614736 475,240 M464.196321,169.355853 C434.206656,74.088288 345.171545,5 240,5 C171.34974,5 109.57484,34.4369153 66.609142,81.3769031" id="green-1" stroke="#02DAC9" stroke-width="2"></path>
                <circle id="blue-3" stroke="#1C4A97" stroke-width="0.4" cx="240" cy="240" r="219.8"></circle>
                <circle id="blue-2" stroke="#1C4A97" stroke-width="0.4" cx="240" cy="240" r="214.911111"></circle>
                <circle id="blue-1" stroke="#1C4A97" stroke-width="0.4" cx="240" cy="240" r="210.022222"></circle>
                <path d="M240,47.2 C263.757363,47.2 286.511122,51.4969423 307.526452,59.3561434 C314.330996,61.9008705 320.953284,64.8190604 327.368371,68.0857675 C333.09925,71.00406 338.66477,74.2004913 344.047148,77.6572766 C397.431786,111.943091 432.8,171.841183 432.8,240 C432.8,293.24025 411.220125,341.44025 376.330187,376.330187 C341.44025,411.220125 293.24025,432.8 240,432.8 C186.75975,432.8 138.55975,411.220125 103.669813,376.330187 C68.7798751,341.44025 47.2,293.24025 47.2,240 C47.2,186.75975 68.7798751,138.55975 103.669813,103.669813 C138.55975,68.7798751 186.75975,47.2 240,47.2 Z" id="yellow-1" stroke="#F6C94C" stroke-width="0.4"></path>
                <path d="M240,407 C332.507696,407 407.5,332.007696 407.5,239.5" id="orange-1" stroke="#F97F51" stroke-width="0.6"></path>
                <path d="M237,72 C178.441387,72 126.880408,101.960432 96.8095602,147.388797" id="orange-2" stroke="#F97F51" stroke-linecap="round"></path>
                <path d="M61.7070808,312.813136 C64.3667692,319.337363 67.3731864,325.683367 70.703443,331.828257 M82.4198505,350.752013 C96.3466757,370.593522 113.914222,387.693542 134.152175,401.081763 M337.347968,406.978263 C343.46024,403.425466 349.359596,399.546679 355.022229,395.365712 M371.480357,381.751566 C391.737163,363.024849 407.971644,340.010362 418.742137,314.149771 M348.932396,80.3168045 C342.8839,76.2016059 336.589401,72.4210683 330.075526,69.0018199 M309.886293,59.84836 C288.353513,51.5494843 264.958051,47 240.5,47" id="yellow-2" stroke="#F6C94C" stroke-width="2"></path>
                <rect id="green-3" fill="#02DAC9" transform="translate(465.586380, 173.600410) rotate(-288.000000) translate(-465.586380, -173.600410) " x="462.58638" y="170.60041" width="6" height="6"></rect>
                <circle id="orange-3" stroke="#F97F51" stroke-width="0.6" cx="248" cy="73" r="10.3"></circle>
                <circle id="orange-4" fill="#F97F51" cx="248" cy="73" r="3"></circle>
                <path d="M136.824204,145.369235 C127.768759,155.237103 120.11051,166.40784 114.162953,178.56795 C105.091742,197.114545 100,217.962652 100,240 M112.386731,297.658422 C119.274735,312.879392 128.805889,326.648694 140.394697,338.380833 C152.021147,350.15108 165.718641,359.87091 180.895961,366.949106 M240,380 C255.385221,380 270.190802,377.518266 284.038261,372.93328 M353.000129,322.665798 C361.999485,310.384962 369.04516,296.582687 373.67941,281.716717 M380,240 C380,225.753175 377.87194,212.003386 373.916349,199.051161 C370.356235,187.393886 365.315751,176.382669 359.014,166.236612 M329.03582,131.955017 C317.634137,122.548546 304.7181,114.911919 290.708255,109.465682 C274.985049,103.353388 257.884137,100 240,100 M200.730123,105.582454 C188.830132,109.053191 177.58553,114.061287 167.225751,120.377312" id="pink-1" stroke="#F28DD7" stroke-width="2.5"></path>
                <circle id="pink-2" fill="#F28DD7" cx="343" cy="145" r="6"></circle>
                <circle id="pink-3" fill="#F28DD7" cx="206" cy="374" r="6"></circle>
                <circle id="pink-4" fill="#F28DD7" cx="102" cy="266" r="6"></circle>
            </g>
        </g>
    </g>
</svg>