<svg width="1920" height="1080" viewBox="0 0 1920 1080" fill="none" xmlns="http://www.w3.org/2000/svg">
<path d="M1920 0H0V1080H1920V0Z" fill="#0F0E16"/>
<g opacity="0.36">
<path d="M1345.46 377.222C1324.4 327.427 1294.23 282.681 1255.77 244.227C1217.32 205.773 1172.57 175.597 1122.78 154.535C1071.19 132.714 1016.63 121.714 959.999 121.714C903.365 121.714 848.811 132.714 797.221 154.535C747.426 175.597 702.681 205.773 664.226 244.227C625.772 282.681 595.595 327.427 574.534 377.221C552.713 428.812 541.713 483.367 541.713 540C541.713 596.633 552.713 651.188 574.534 702.778C595.595 752.572 625.772 797.318 664.226 835.772C702.68 874.226 747.426 904.403 797.221 925.464C848.811 947.285 903.365 958.285 959.999 958.285C1016.63 958.285 1071.19 947.285 1122.78 925.464C1172.57 904.402 1217.32 874.226 1255.77 835.772C1294.23 797.318 1324.4 752.572 1345.46 702.778C1367.28 651.188 1378.29 596.633 1378.29 540C1378.29 483.367 1367.29 428.812 1345.46 377.222ZM1305.99 686.084C1287.09 730.77 1260 770.937 1225.47 805.468C1190.94 840 1150.77 867.093 1106.08 885.993C1059.75 905.589 1010.92 915.429 959.999 915.429C909.076 915.429 860.245 905.589 813.917 885.993C769.23 867.092 729.063 840 694.531 805.468C659.999 770.936 632.906 730.769 614.006 686.083C594.411 639.754 584.571 590.922 584.571 540C584.571 489.078 594.411 440.246 614.006 393.916C632.906 349.231 659.999 309.064 694.531 274.532C729.063 240 769.23 212.907 813.916 194.007C860.245 174.411 909.077 164.571 959.999 164.571C1010.92 164.571 1059.75 174.411 1106.08 194.007C1150.77 212.908 1190.94 240 1225.47 274.531C1260 309.064 1287.09 349.231 1305.99 393.917C1325.59 440.246 1335.43 489.078 1335.43 540C1335.43 590.922 1325.59 639.755 1305.99 686.084Z" stroke="#547FEB" stroke-width="0.286" stroke-miterlimit="10"/>
<path d="M960 1044C891.944 1044 825.944 1030.68 763.832 1004.41C703.82 979.025 649.917 942.68 603.619 896.382C557.321 850.084 520.975 796.18 495.593 736.169C469.322 674.056 456.001 608.056 456.001 540.001C456.001 471.946 469.322 405.945 495.593 343.833C520.976 283.821 557.321 229.918 603.619 183.62C649.917 137.322 703.821 100.977 763.832 75.594C825.944 49.323 891.945 36.002 960 36.002C1028.06 36.002 1094.06 49.323 1156.17 75.594C1216.18 100.977 1270.08 137.322 1316.38 183.62C1362.68 229.918 1399.03 283.822 1424.41 343.833C1450.68 405.945 1464 471.946 1464 540.001C1464 608.056 1450.68 674.057 1424.41 736.169C1399.02 796.181 1362.68 850.084 1316.38 896.382C1270.08 942.68 1216.18 979.025 1156.17 1004.41C1094.06 1030.68 1028.06 1044 960 1044Z" fill="#0A2023"/>
<path d="M960 958.286C903.366 958.286 848.812 947.286 797.222 925.465C747.427 904.403 702.681 874.227 664.227 835.773C625.773 797.319 595.596 752.573 574.535 702.778C552.714 651.188 541.714 596.633 541.714 540C541.714 483.367 552.714 428.812 574.535 377.221C595.596 327.427 625.773 282.681 664.227 244.227C702.681 205.773 747.427 175.596 797.222 154.535C848.812 132.714 903.367 121.714 960 121.714C1016.63 121.714 1071.19 132.714 1122.78 154.535C1172.57 175.597 1217.32 205.773 1255.77 244.227C1294.23 282.682 1324.4 327.427 1345.47 377.222C1367.29 428.812 1378.29 483.367 1378.29 540C1378.29 596.633 1367.29 651.188 1345.47 702.778C1324.4 752.572 1294.23 797.318 1255.77 835.772C1217.32 874.226 1172.57 904.403 1122.78 925.464C1071.19 947.285 1016.63 958.285 960.001 958.285L960 958.286Z" fill="#0C4849"/>
<path d="M960 872.571C914.789 872.571 871.68 863.892 830.613 846.522C791.034 829.781 755.446 805.773 724.837 775.163C694.227 744.553 670.219 708.965 653.479 669.387C636.109 628.32 627.429 585.21 627.429 539.999C627.429 494.788 636.109 451.679 653.479 410.61C670.219 371.034 694.227 335.446 724.837 304.836C755.447 274.226 791.035 250.217 830.613 233.477C871.681 216.107 914.79 207.427 960.001 207.427C1005.21 207.427 1048.32 216.107 1089.39 233.477C1128.97 250.217 1164.55 274.225 1195.16 304.834C1225.77 335.445 1249.78 371.033 1266.52 410.611C1283.89 451.679 1292.57 494.787 1292.57 539.999C1292.57 585.211 1283.89 628.319 1266.52 669.387C1249.78 708.964 1225.77 744.552 1195.16 775.162C1164.55 805.772 1128.97 829.78 1089.39 846.52C1048.32 863.891 1005.21 872.57 960.001 872.57L960 872.571Z" stroke="#547FEB" stroke-width="0.571" stroke-miterlimit="10"/>
<path d="M1187.58 444.003C1175.16 414.642 1157.32 388.212 1134.55 365.444C1111.79 342.68 1085.36 324.841 1056 312.422C1025.45 299.502 993.788 293.143 960 293.143C926.212 293.143 894.548 299.502 864.003 312.422C834.642 324.841 808.212 342.68 785.445 365.447C762.68 388.212 744.84 414.642 732.422 444.001C719.502 474.548 713.143 506.211 713.143 540.001C713.143 573.791 719.502 605.454 732.422 635.998C744.841 665.359 762.68 691.789 785.446 714.555C808.211 737.321 834.642 755.16 864.004 767.58C894.548 780.499 926.211 786.858 960 786.858C993.789 786.858 1025.45 780.5 1056 767.579C1085.36 755.16 1111.79 737.321 1134.56 714.555C1157.32 691.789 1175.16 665.359 1187.58 635.999C1200.5 605.453 1206.86 573.79 1206.86 540.001C1206.86 506.212 1200.5 474.549 1187.58 444.004L1187.58 444.003ZM1148.11 619.304C1137.85 643.555 1123.09 665.407 1104.25 684.25C1085.41 703.093 1063.56 717.849 1039.3 728.107C1014.02 738.802 988.078 744.001 960 744.001C931.922 744.001 905.982 738.803 880.699 728.108C856.445 717.849 834.594 703.094 815.75 684.25C796.906 665.406 782.15 643.555 771.893 619.303C761.199 594.02 756 568.079 756 540.001C756 511.923 761.199 485.982 771.894 460.696C782.151 436.446 796.907 414.595 815.75 395.752C834.594 376.908 856.446 362.152 880.698 351.894C905.982 341.199 931.923 336.001 960 336.001C988.077 336.001 1014.02 341.2 1039.3 351.894C1063.56 362.152 1085.41 376.907 1104.25 395.749C1123.09 414.595 1137.85 436.447 1148.11 460.698C1158.8 485.982 1164 511.922 1164 540C1164 568.078 1158.8 594.018 1148.11 619.303V619.304Z" fill="#03DAC8"/>
<path d="M1227.05 427.308C1212.47 392.839 1191.55 361.829 1164.86 335.14C1138.17 308.453 1107.16 287.53 1072.69 272.951C1036.89 257.806 999.499 250.286 960 250.286C920.501 250.286 883.114 257.805 847.307 272.951C812.838 287.53 781.828 308.454 755.14 335.143C728.452 361.831 707.529 392.839 692.95 427.307C677.805 463.115 670.286 500.501 670.286 540.001C670.286 579.501 677.805 616.887 692.95 652.693C707.529 687.163 728.453 718.171 755.141 744.86C781.829 771.548 812.838 792.472 847.308 807.051C883.114 822.196 920.499 829.715 960 829.715C999.501 829.715 1036.89 822.196 1072.69 807.05C1107.16 792.47 1138.17 771.547 1164.86 744.859C1191.55 718.171 1212.47 687.162 1227.05 652.693C1242.2 616.886 1249.71 579.5 1249.71 540C1249.71 500.5 1242.2 463.114 1227.05 427.308ZM1187.58 635.999C1175.16 665.359 1157.32 691.789 1134.56 714.555C1111.79 737.321 1085.36 755.16 1056 767.579C1025.45 780.499 993.789 786.858 960 786.858C926.211 786.858 894.548 780.5 864.004 767.58C834.642 755.161 808.211 737.321 785.446 714.555C762.68 691.789 744.84 665.359 732.422 635.998C719.502 605.453 713.143 573.79 713.143 540.001C713.143 506.212 719.502 474.548 732.422 444.001C744.84 414.642 762.68 388.212 785.445 365.447C808.211 342.68 834.642 324.841 864.003 312.422C894.548 299.502 926.212 293.143 960 293.143C993.788 293.143 1025.45 299.502 1056 312.422C1085.36 324.841 1111.79 342.68 1134.55 365.444C1157.32 388.212 1175.16 414.642 1187.58 444.003C1200.5 474.548 1206.86 506.211 1206.86 540C1206.86 573.789 1200.5 605.452 1187.58 635.998L1187.58 635.999Z" fill="#05BDAF"/>
<path d="M1266.52 410.612C1249.78 371.034 1225.77 335.446 1195.16 304.835C1164.55 274.226 1128.97 250.218 1089.39 233.478C1048.32 216.108 1005.21 207.428 960.001 207.428C914.79 207.428 871.681 216.108 830.613 233.478C791.035 250.218 755.447 274.226 724.837 304.836C694.227 335.446 670.219 371.034 653.479 410.61C636.109 451.679 627.429 494.788 627.429 539.999C627.429 585.21 636.109 628.319 653.479 669.387C670.219 708.965 694.227 744.553 724.837 775.162C755.447 805.772 791.035 829.78 830.613 846.521C871.68 863.891 914.789 872.57 960 872.57C1005.21 872.57 1048.32 863.891 1089.39 846.52C1128.97 829.78 1164.55 805.772 1195.16 775.162C1225.77 744.553 1249.78 708.964 1266.52 669.387C1283.89 628.319 1292.57 585.21 1292.57 539.999C1292.57 494.788 1283.89 451.679 1266.52 410.611V410.612ZM1227.05 652.693C1212.47 687.161 1191.55 718.171 1164.86 744.859C1138.17 771.547 1107.16 792.47 1072.69 807.05C1036.89 822.196 999.5 829.715 960 829.715C920.5 829.715 883.114 822.196 847.308 807.051C812.838 792.471 781.828 771.547 755.141 744.86C728.453 718.172 707.529 687.163 692.95 652.693C677.805 616.887 670.286 579.501 670.286 540.001C670.286 500.501 677.805 463.114 692.95 427.307C707.529 392.839 728.453 361.831 755.14 335.143C781.828 308.454 812.837 287.53 847.307 272.951C883.113 257.806 920.5 250.286 960 250.286C999.5 250.286 1036.89 257.805 1072.69 272.951C1107.16 287.531 1138.17 308.454 1164.86 335.14C1191.55 361.829 1212.47 392.839 1227.05 427.308C1242.2 463.114 1249.71 500.5 1249.71 540C1249.71 579.5 1242.2 616.886 1227.05 652.693Z" fill="#06A095"/>
<path d="M1305.99 393.917C1287.09 349.231 1260 309.064 1225.47 274.531C1190.94 240 1150.77 212.908 1106.08 194.007C1059.75 174.411 1010.92 164.571 960 164.571C909.078 164.571 860.246 174.411 813.917 194.007C769.231 212.908 729.064 240 694.532 274.532C660 309.064 632.908 349.23 614.007 393.916C594.411 440.246 584.572 489.078 584.572 540C584.572 590.922 594.412 639.754 614.007 686.083C632.908 730.769 660 770.936 694.532 805.468C729.064 840 769.231 867.093 813.918 885.993C860.246 905.589 909.078 915.429 960 915.429C1010.92 915.429 1059.75 905.589 1106.08 885.993C1150.77 867.092 1190.94 840 1225.47 805.468C1260 770.936 1287.09 730.769 1305.99 686.084C1325.59 639.755 1335.43 590.923 1335.43 540.001C1335.43 489.079 1325.59 440.247 1305.99 393.918V393.917ZM1266.52 669.388C1249.78 708.965 1225.77 744.553 1195.16 775.163C1164.55 805.773 1128.97 829.781 1089.39 846.521C1048.32 863.892 1005.21 872.571 960.001 872.571C914.79 872.571 871.681 863.892 830.614 846.522C791.035 829.781 755.447 805.773 724.838 775.163C694.228 744.553 670.22 708.965 653.48 669.388C636.11 628.321 627.43 585.211 627.43 540C627.43 494.789 636.11 451.679 653.48 410.611C670.22 371.035 694.228 335.447 724.838 304.837C755.448 274.227 791.036 250.219 830.614 233.479C871.682 216.109 914.791 207.429 960.002 207.429C1005.21 207.429 1048.32 216.109 1089.39 233.479C1128.97 250.219 1164.56 274.227 1195.16 304.836C1225.77 335.447 1249.78 371.035 1266.52 410.613C1283.89 451.68 1292.57 494.789 1292.57 540.001C1292.57 585.213 1283.89 628.32 1266.52 669.388Z" fill="#08837C"/>
<path d="M1384.94 360.527C1361.71 305.624 1328.45 256.299 1286.08 213.923C1243.7 171.547 1194.38 138.287 1139.47 115.064C1082.62 91.018 1022.35 78.857 960 78.857C897.655 78.857 837.378 91.017 780.527 115.064C725.624 138.286 676.299 171.547 633.923 213.923C591.547 256.299 558.286 305.624 535.064 360.527C511.018 417.379 498.858 477.656 498.858 540.001C498.858 602.346 511.019 662.623 535.064 719.474C558.286 774.377 591.547 823.702 633.923 866.078C676.299 908.454 725.624 941.715 780.527 964.937C837.378 988.983 897.655 1001.14 960 1001.14C1022.35 1001.14 1082.62 988.983 1139.47 964.937C1194.38 941.715 1243.7 908.454 1286.08 866.078C1328.45 823.702 1361.71 774.377 1384.94 719.474C1408.98 662.622 1421.14 602.345 1421.14 540C1421.14 477.655 1408.98 417.378 1384.94 360.527ZM1345.46 702.778C1324.4 752.572 1294.23 797.318 1255.77 835.772C1217.32 874.226 1172.57 904.403 1122.78 925.464C1071.19 947.285 1016.63 958.285 960 958.285C903.366 958.285 848.812 947.285 797.222 925.464C747.427 904.402 702.681 874.226 664.227 835.772C625.773 797.318 595.596 752.572 574.535 702.778C552.714 651.188 541.714 596.633 541.714 540C541.714 483.367 552.714 428.812 574.535 377.221C595.596 327.427 625.773 282.681 664.227 244.227C702.681 205.773 747.427 175.596 797.222 154.535C848.812 132.714 903.367 121.714 960 121.714C1016.63 121.714 1071.19 132.714 1122.78 154.535C1172.57 175.597 1217.32 205.773 1255.77 244.227C1294.23 282.682 1324.4 327.427 1345.47 377.222C1367.29 428.812 1378.29 483.367 1378.29 540C1378.29 596.633 1367.29 651.188 1345.46 702.778Z" fill="#0D2B2F"/>
</g>
<path d="M960 431.677C930.487 431.677 903.753 443.242 884.033 461.958V448.235C891.46 445.01 896.645 437.682 896.645 429.157C896.645 417.652 887.199 408.325 875.546 408.325C863.893 408.325 854.447 417.651 854.447 429.157C854.447 437.717 859.676 445.071 867.153 448.276V482.475C856.527 499.157 850.285 518.839 850.285 540.002C850.285 599.828 899.406 648.326 959.999 648.326C1020.59 648.326 1069.71 599.828 1069.71 540.002C1069.71 480.176 1020.59 431.678 959.999 431.678L960 431.677ZM1002.83 593.647H1002.79L916.512 593.583C886.801 593.561 862.685 569.855 862.532 540.521C862.381 511.388 886.178 487.649 915.684 487.5L915.822 487.498H1002.79C1032.49 487.498 1056.56 511.27 1056.56 540.593C1056.56 569.916 1032.51 593.647 1002.83 593.647Z" fill="white"/>
<path d="M925.921 518.31C912.845 518.31 902.245 528.426 902.245 540.904C902.245 553.382 912.845 563.499 925.921 563.499C938.997 563.499 949.597 553.382 949.597 540.904C949.597 528.426 938.997 518.31 925.921 518.31Z" fill="white"/>
<path d="M997.935 518.31C984.859 518.31 974.259 528.426 974.259 540.904C974.259 553.382 984.859 563.499 997.935 563.499C1011.01 563.499 1021.61 553.382 1021.61 540.904C1021.61 528.426 1011.01 518.31 997.935 518.31Z" fill="white"/>
</svg>
