<svg width="24" height="24" viewBox="0 0 24 24" fill="none" xmlns="http://www.w3.org/2000/svg">
<path fill-rule="evenodd" clip-rule="evenodd" d="M9.82887 3.45283C9.31146 3.45283 8.81681 3.64834 8.45332 3.99395C8.09012 4.3393 7.88763 4.80596 7.88763 5.29079V7.12875H16.1124V5.29079C16.1124 4.80596 15.9099 4.3393 15.5467 3.99395C15.1832 3.64834 14.6885 3.45283 14.1711 3.45283H9.82887ZM16.5721 7.12875V5.29079C16.5721 4.68061 16.3171 4.0971 15.866 3.66816C15.4152 3.23948 14.8054 3 14.1711 3H9.82887C9.19465 3 8.58484 3.23948 8.13399 3.66816C7.68287 4.0971 7.42787 4.68061 7.42787 5.29079V7.12875H4.40106C3.08272 7.12875 2.00005 8.14692 2.00005 9.41953V13.5433C1.99998 13.5465 1.99998 13.5497 2.00005 13.5529V18.7092C2.00005 19.9818 3.08272 21 4.40106 21H19.5989C20.9173 21 21.9999 19.9818 21.9999 18.7092V13.5529C22 13.5497 22 13.5465 21.9999 13.5433V9.41953C21.9999 8.14692 20.9173 7.12875 19.5989 7.12875H16.5721ZM4.40106 7.58158C3.32125 7.58158 2.45982 8.41191 2.45982 9.41953V13.4061C5.42445 14.8029 8.68936 15.5302 12 15.5302C15.3106 15.5302 18.5755 14.8029 21.5402 13.4061V9.41953C21.5402 8.41191 20.6788 7.58158 19.5989 7.58158H4.40106ZM21.5402 13.9069C18.5662 15.2728 15.3052 15.983 12 15.983C8.69483 15.983 5.43375 15.2728 2.45982 13.9069V18.7092C2.45982 19.7168 3.32125 20.5472 4.40106 20.5472H19.5989C20.6788 20.5472 21.5402 19.7168 21.5402 18.7092V13.9069ZM12 11.6789C11.5106 11.6789 11.1278 12.0542 11.1278 12.5004C11.1278 12.9466 11.5106 13.3219 12 13.3219C12.4894 13.3219 12.8722 12.9466 12.8722 12.5004C12.8722 12.0542 12.4894 11.6789 12 11.6789ZM10.668 12.5004C10.668 11.7892 11.2721 11.2261 12 11.2261C12.7279 11.2261 13.332 11.7892 13.332 12.5004C13.332 13.2116 12.7279 13.7747 12 13.7747C11.2721 13.7747 10.668 13.2116 10.668 12.5004Z" fill="white"/>
</svg>
