<svg width="24" height="24" viewBox="0 0 24 24" fill="none" xmlns="http://www.w3.org/2000/svg">
<path fill-rule="evenodd" clip-rule="evenodd" d="M10.2758 3.70021C10.2772 2.76099 11.0487 2 12 2C12.9519 2 13.7236 2.76184 13.7242 3.70178C15.5047 4.0633 17.1638 4.97952 18.4157 6.37535C19.2401 5.907 20.293 6.18629 20.7687 7C21.2446 7.81416 20.9625 8.85516 20.1386 9.32566C20.7118 11.0293 20.738 12.9064 20.14 14.6751C20.9628 15.146 21.2444 16.1863 20.7687 17C20.2927 17.8142 19.2389 18.0933 18.4143 17.6239C17.2071 18.966 15.5742 19.9269 13.7242 20.2998C13.7228 21.239 12.9514 22 12 22C11.0481 22 10.2764 21.2382 10.2758 20.2982C8.49525 19.9367 6.83623 19.0205 5.58425 17.6247C4.75992 18.093 3.70695 17.8137 3.23128 17C2.75536 16.1858 3.03748 15.1448 3.86142 14.6743C3.28819 12.9707 3.26204 11.0936 3.86003 9.32486C3.03716 8.85398 2.75563 7.8137 3.23128 7C3.70722 6.18582 4.76113 5.90668 5.58567 6.37614C6.79291 5.03398 8.42584 4.07311 10.2758 3.70021ZM10.3112 4.04823C8.56459 4.40817 7.02096 5.31551 5.87292 6.58076C6.47064 7.10657 6.63373 7.99136 6.21775 8.70291C5.80152 9.41494 4.94325 9.71776 4.18293 9.46853C3.62523 11.1424 3.64908 12.9164 4.18448 14.531C4.94441 14.2826 5.80181 14.5855 6.21775 15.2971C6.63401 16.0091 6.47041 16.8946 5.87169 17.4203C7.06067 18.7343 8.62809 19.6009 10.3116 19.9502C10.4738 19.1761 11.1681 18.5942 12 18.5942C12.8325 18.5942 13.5272 19.1769 13.6888 19.9518C15.4354 19.5918 16.979 18.6845 18.1271 17.4192C17.5293 16.8934 17.3663 16.0086 17.7822 15.2971C18.1985 14.5851 19.0567 14.2822 19.8171 14.5315C20.3748 12.8576 20.351 11.0836 19.8155 9.46904C19.0556 9.71736 18.1982 9.41447 17.7822 8.70292C17.366 7.9909 17.5296 7.10537 18.1283 6.57969C16.9394 5.26573 15.3719 4.39913 13.6884 4.04979C13.5262 4.82392 12.8319 5.40582 12 5.40582C11.1676 5.40582 10.4729 4.82314 10.3112 4.04823ZM12 2.34792C11.2423 2.34792 10.628 2.9546 10.628 3.70291C10.628 4.45122 11.2423 5.0579 12 5.0579C12.7577 5.0579 13.372 4.45122 13.372 3.70291C13.372 2.95459 12.7577 2.34792 12 2.34792ZM5.4105 6.678C4.7543 6.30383 3.91521 6.52588 3.53637 7.17395C3.15752 7.82204 3.38235 8.65075 4.03854 9.0249C4.69474 9.39907 5.53383 9.17702 5.91267 8.52895C6.29154 7.88087 6.0667 7.05215 5.4105 6.678ZM20.4636 7.17397C20.0848 6.52588 19.2457 6.30385 18.5895 6.678C17.9333 7.05215 17.7085 7.88085 18.0873 8.52895C18.4662 9.17703 19.3052 9.39907 19.9615 9.02491C20.6177 8.65076 20.8425 7.82205 20.4636 7.17397ZM12 7.51807L15.9301 9.75904V14.241L12 16.4819L8.06992 14.241V9.75904L12 7.51807ZM8.42219 10.1608L11.8239 12.1004V15.9797L8.42219 14.0401V10.1608ZM12.1761 15.9797L15.5778 14.0401V10.1608L12.1761 12.1004V15.9797ZM12 11.7991L15.4017 9.85947L12 7.91982L8.59833 9.85947L12 11.7991ZM5.91267 15.471C5.53383 14.823 4.69474 14.6009 4.03854 14.9751C3.38235 15.3492 3.15752 16.178 3.53637 16.826C3.91521 17.4741 4.7543 17.6962 5.4105 17.322C6.0667 16.9478 6.29154 16.1191 5.91267 15.471ZM19.9615 14.9751C19.3052 14.6009 18.4662 14.823 18.0873 15.4711C17.7085 16.1192 17.9333 16.9479 18.5895 17.322C19.2457 17.6962 20.0848 17.4741 20.4636 16.826C20.8425 16.178 20.6177 15.3492 19.9615 14.9751ZM12 18.9421C11.2423 18.9421 10.628 19.5488 10.628 20.2971C10.628 21.0454 11.2423 21.6521 12 21.6521C12.7577 21.6521 13.372 21.0454 13.372 20.2971C13.372 19.5488 12.7577 18.9421 12 18.9421Z" fill="white"/>
</svg>
