<svg width="20" height="20" viewBox="0 0 20 20" fill="none" xmlns="http://www.w3.org/2000/svg">
<path d="M10 2C5.58897 2 2 5.58897 2 10C2 14.411 5.58897 18 10 18C14.411 18 18 14.411 18 10C18 5.58897 14.411 2 10 2ZM14.4712 7.89474L9.3584 12.9674C9.05764 13.2682 8.57644 13.2882 8.25564 12.9875L5.54887 10.5213C5.22807 10.2206 5.20802 9.7193 5.48872 9.3985C5.78947 9.07769 6.29073 9.05764 6.61153 9.3584L8.75689 11.3233L13.3283 6.75188C13.6491 6.43108 14.1504 6.43108 14.4712 6.75188C14.792 7.07268 14.792 7.57394 14.4712 7.89474Z" fill="#02DAC9"/>
</svg>
