<svg width="24" height="24" viewBox="0 0 24 24" fill="none" xmlns="http://www.w3.org/2000/svg">
<path fill-rule="evenodd" clip-rule="evenodd" d="M14.2222 2C14.9586 2 15.5556 2.60029 15.5556 3.34078V3.67598H17.5556C18.2039 3.67598 18.8256 3.93496 19.284 4.39594C19.7425 4.85692 20 5.48215 20 6.13408V19.5419C20 20.1938 19.7425 20.8191 19.284 21.28C18.8256 21.741 18.2039 22 17.5556 22H6.44444C5.79614 22 5.17438 21.741 4.71596 21.28C4.25754 20.8191 4 20.1938 4 19.5419V6.13408C4 5.48215 4.25754 4.85692 4.71596 4.39594C5.17438 3.93496 5.79614 3.67598 6.44444 3.67598H8.44444V3.34078C8.44444 2.6489 8.96559 2.07942 9.63468 2.00763C9.65311 2.00265 9.67248 2 9.69247 2H14.2222ZM9.77778 2.44693C9.28686 2.44693 8.88889 2.84712 8.88889 3.34078V4.73743C8.88889 5.23109 9.28686 5.63128 9.77778 5.63128H14.2222C14.7131 5.63128 15.1111 5.23109 15.1111 4.73743V3.34078C15.1111 2.84712 14.7131 2.44693 14.2222 2.44693H9.77778ZM15.5556 4.12291V4.73743C15.5556 5.42911 15.0347 5.99846 14.3659 6.07052C14.3474 6.07554 14.328 6.07821 14.3079 6.07821H9.77778C9.0414 6.07821 8.44444 5.47792 8.44444 4.73743V4.12291H6.44444C5.91401 4.12291 5.4053 4.3348 5.03023 4.71196C4.65516 5.08913 4.44444 5.60068 4.44444 6.13408V19.5419C4.44444 20.0753 4.65516 20.5868 5.03023 20.964C5.4053 21.3412 5.91401 21.5531 6.44444 21.5531H17.5556C18.086 21.5531 18.5947 21.3412 18.9698 20.964C19.3448 20.5868 19.5556 20.0753 19.5556 19.5419V6.13408C19.5556 5.60068 19.3448 5.08913 18.9698 4.71196C18.5947 4.3348 18.086 4.12291 17.5556 4.12291H15.5556ZM15.4905 11.5627C15.5773 11.6499 15.5773 11.7914 15.4905 11.8787L11.046 16.348C11.0043 16.3899 10.9478 16.4134 10.8889 16.4134C10.83 16.4134 10.7734 16.3899 10.7318 16.348L8.50953 14.1133C8.42275 14.0261 8.42275 13.8846 8.50953 13.7973C8.59632 13.71 8.73702 13.71 8.8238 13.7973L10.8889 15.8739L15.1762 11.5627C15.263 11.4754 15.4037 11.4754 15.4905 11.5627Z" fill="white"/>
</svg>
