<svg width="24" height="24" viewBox="0 0 24 24" fill="none" xmlns="http://www.w3.org/2000/svg">
<path d="M7.97236 7.16683L12 11.1945L16.0276 7.16683C16.2501 6.94439 16.6107 6.94439 16.8332 7.16683C17.0556 7.38927 17.0556 7.74992 16.8332 7.97236L12.8055 12L16.8332 16.0276C17.0556 16.2501 17.0556 16.6107 16.8332 16.8332C16.6107 17.0556 16.2501 17.0556 16.0276 16.8332L12 12.8055L7.97236 16.8332C7.74992 17.0556 7.38927 17.0556 7.16683 16.8332C6.94439 16.6107 6.94439 16.2501 7.16683 16.0276L11.1945 12L7.16683 7.97236C6.94439 7.74992 6.94439 7.38927 7.16683 7.16683C7.38927 6.94439 7.74992 6.94439 7.97236 7.16683Z" fill="white"/>
</svg>
