<svg width="24" height="24" viewBox="0 0 24 24" fill="none" xmlns="http://www.w3.org/2000/svg">
<path fill-rule="evenodd" clip-rule="evenodd" d="M13.1723 2.00006H3.43514C2.64256 2.00006 2 2.64261 2 3.4352V20.5649C2 21.3574 2.64256 22 3.43514 22H20.5649C21.3574 22 22 21.3574 22 20.5649V3.4352C22 2.64261 21.3574 2.00006 20.5649 2.00006H13.1822C13.1789 1.99998 13.1756 1.99998 13.1723 2.00006ZM2.43478 7.30583H11.1476C11.2353 7.30583 11.3145 7.25306 11.3482 7.17205L13.3221 2.43484H20.5649C21.1173 2.43484 21.5652 2.88274 21.5652 3.4352V20.5649C21.5652 21.1173 21.1173 21.5652 20.5649 21.5652H13.8411V16.4034C15.0477 15.7496 15.8706 14.4763 15.8706 13.0054C15.8706 11.3201 14.792 9.89122 13.2903 9.3596C13.2238 9.33605 13.15 9.34626 13.0923 9.38701C13.0347 9.42775 13.0004 9.49394 13.0004 9.56453V12.5945H10.9996V9.56453C10.9996 9.49394 10.9654 9.42775 10.9077 9.38701C10.8501 9.34626 10.7762 9.33605 10.7097 9.3596C9.20808 9.89122 8.12935 11.3201 8.12935 13.0055C8.12935 14.4763 8.95238 15.7496 10.1589 16.4034V21.5652H3.43514C2.88268 21.5652 2.43478 21.1173 2.43478 20.5649V7.30583ZM10.5937 21.5652H13.4063V16.2714C13.4063 16.1889 13.453 16.1136 13.5268 16.0768C14.6579 15.5141 15.4359 14.3523 15.4359 13.0054C15.4359 11.6216 14.6159 10.431 13.4352 9.88726V12.8119C13.4352 12.9319 13.3379 13.0293 13.2178 13.0293H10.7822C10.6622 13.0293 10.5649 12.9319 10.5649 12.8119V9.88726C9.38413 10.431 8.56413 11.6216 8.56413 13.0055C8.56413 14.3523 9.34209 15.5141 10.4732 16.0768C10.547 16.1136 10.5937 16.1889 10.5937 16.2714V21.5652ZM2.43478 6.87105V3.4352C2.43478 2.88274 2.88268 2.43484 3.43514 2.43484H12.8511L11.0026 6.87105H2.43478ZM4.6529 4.26146C4.4367 4.26146 4.26141 4.43675 4.26141 4.65295C4.26141 4.86915 4.4367 5.04443 4.6529 5.04443C4.8691 5.04443 5.04438 4.86915 5.04438 4.65295C5.04438 4.43675 4.8691 4.26146 4.6529 4.26146ZM3.82663 4.65295C3.82663 4.19662 4.19657 3.82668 4.6529 3.82668C5.10922 3.82668 5.47916 4.19662 5.47916 4.65295C5.47916 5.10927 5.10922 5.47921 4.6529 5.47921C4.19657 5.47921 3.82663 5.10927 3.82663 4.65295ZM7.0884 4.26146C6.8722 4.26146 6.69691 4.43675 6.69691 4.65295C6.69691 4.86915 6.8722 5.04443 7.0884 5.04443C7.3046 5.04443 7.47988 4.86915 7.47988 4.65295C7.47988 4.43675 7.3046 4.26146 7.0884 4.26146ZM6.26213 4.65295C6.26213 4.19662 6.63208 3.82668 7.0884 3.82668C7.54472 3.82668 7.91467 4.19662 7.91467 4.65295C7.91467 5.10927 7.54472 5.47921 7.0884 5.47921C6.63208 5.47921 6.26213 5.10927 6.26213 4.65295ZM9.5239 4.26146C9.3077 4.26146 9.13242 4.43675 9.13242 4.65295C9.13242 4.86915 9.3077 5.04443 9.5239 5.04443C9.7401 5.04443 9.91539 4.86915 9.91539 4.65295C9.91539 4.43675 9.7401 4.26146 9.5239 4.26146ZM8.69764 4.65295C8.69764 4.19662 9.06758 3.82668 9.5239 3.82668C9.98023 3.82668 10.3502 4.19662 10.3502 4.65295C10.3502 5.10927 9.98023 5.47921 9.5239 5.47921C9.06758 5.47921 8.69764 5.10927 8.69764 4.65295Z" fill="white"/>
</svg>
