<svg width="24" height="24" viewBox="0 0 24 24" fill="none" xmlns="http://www.w3.org/2000/svg">
<path fill-rule="evenodd" clip-rule="evenodd" d="M18.9535 5.43235C16.4738 2.81039 12.609 1.71128 8.96277 2.93267C4.55896 4.40783 1.93965 8.77714 2.51307 13.2154C2.52845 13.3345 2.4444 13.4435 2.32533 13.4588C2.20625 13.4742 2.09726 13.3902 2.08187 13.2711C1.48235 8.63085 4.22015 4.06279 8.82467 2.5204C12.6467 1.24012 16.6976 2.3989 19.2885 5.15385C19.2981 5.16408 19.3066 5.17499 19.3138 5.18642C19.5039 5.09502 19.717 5.04381 19.9421 5.04381C20.744 5.04381 21.394 5.69388 21.394 6.49575C21.394 7.29765 20.744 7.94772 19.9421 7.94772C19.1402 7.94772 18.4902 7.29766 18.4902 6.49575C18.4902 6.07578 18.6685 5.69745 18.9535 5.43235ZM19.9421 5.47859C19.3804 5.47859 18.925 5.93399 18.925 6.49575C18.925 7.05756 19.3804 7.51294 19.9421 7.51294C20.5039 7.51294 20.9592 7.05756 20.9592 6.49575C20.9592 5.93398 20.5039 5.47859 19.9421 5.47859ZM21.6999 10.7189C21.8193 10.7057 21.9267 10.7918 21.9399 10.9111C22.4459 15.4883 19.7198 19.9579 15.1754 21.4801C11.4241 22.7367 7.40163 21.6411 4.78547 18.9946C4.77357 18.9825 4.76337 18.9695 4.75486 18.9557C4.53961 19.0819 4.28894 19.1543 4.02137 19.1543C3.2195 19.1543 2.56946 18.5042 2.56946 17.7023C2.56946 16.9005 3.21949 16.2504 4.02137 16.2504C4.82328 16.2504 5.47332 16.9005 5.47332 17.7023C5.47332 18.0812 5.32818 18.4262 5.09047 18.6848C5.09188 18.6861 5.09329 18.6875 5.09468 18.6889C7.59889 21.2222 11.4494 22.2697 15.0373 21.0679C19.3836 19.612 21.9917 15.3369 21.5077 10.9589C21.4945 10.8395 21.5806 10.7321 21.6999 10.7189ZM4.02137 16.6851C3.45964 16.6851 3.00424 17.1406 3.00424 17.7023C3.00424 18.2641 3.45963 18.7195 4.02137 18.7195C4.58315 18.7195 5.03853 18.2641 5.03853 17.7023C5.03853 17.1406 4.58314 16.6851 4.02137 16.6851Z" fill="white"/>
<path fill-rule="evenodd" clip-rule="evenodd" d="M12.9589 7.41033C13.0764 7.43488 13.1518 7.55006 13.1272 7.66758L11.2986 16.4213C11.274 16.5388 11.1588 16.6142 11.0413 16.5896C10.9238 16.5651 10.8484 16.4499 10.873 16.3324L12.7016 7.57868C12.7262 7.46115 12.8414 7.38578 12.9589 7.41033ZM8.88587 9.92025C8.97076 10.0051 8.97076 10.1428 8.88586 10.2277L7.11357 12L8.88587 13.7723C8.97076 13.8572 8.97076 13.9948 8.88586 14.0797C8.80097 14.1646 8.66332 14.1646 8.57842 14.0797L6.4987 12L8.57843 9.92025C8.66332 9.83535 8.80097 9.83535 8.88587 9.92025ZM15.1143 9.92025C15.1992 9.83535 15.3369 9.83536 15.4218 9.92025L17.5015 12L15.4218 14.0797C15.3369 14.1646 15.1992 14.1646 15.1143 14.0797C15.0294 13.9948 15.0294 13.8572 15.1143 13.7723L16.8866 12L15.1143 10.2277C15.0294 10.1428 15.0294 10.0051 15.1143 9.92025Z" fill="white"/>
</svg>
