<svg width="24" height="24" viewBox="0 0 24 24" fill="none" xmlns="http://www.w3.org/2000/svg">
<path fill-rule="evenodd" clip-rule="evenodd" d="M10.7427 2.43478C10.5075 2.43478 10.282 2.52819 10.1158 2.69446C9.94948 2.86073 9.85607 3.08624 9.85607 3.32138V9.94534C9.85607 10.1805 9.94948 10.406 10.1158 10.5723C10.282 10.7385 10.5075 10.8319 10.7427 10.8319H18.4706C18.5283 10.8319 18.5836 10.8548 18.6243 10.8956L21.5652 13.8365V3.32138C21.5652 3.08624 21.4718 2.86073 21.3055 2.69446C21.1393 2.52819 20.9138 2.43478 20.6786 2.43478H10.7427ZM9.42129 9.42129V3.32138C9.42129 2.97093 9.56051 2.63483 9.80831 2.38702C10.0561 2.13922 10.3922 2 10.7427 2H20.6786C21.0291 2 21.3652 2.13922 21.613 2.38702C21.8608 2.63483 22 2.97093 22 3.32138V14.3613C22 14.4492 21.947 14.5285 21.8658 14.5622C21.7846 14.5958 21.6911 14.5772 21.6289 14.515L18.3806 11.2667H14.5707C14.5759 11.2854 14.5787 11.305 14.5787 11.3253V17.3666C14.5787 17.7171 14.4395 18.0532 14.1917 18.301C13.9439 18.5488 13.6078 18.688 13.2573 18.688H5.61942L2.37111 21.9363C2.30894 21.9985 2.21543 22.0171 2.1342 21.9834C2.05297 21.9498 2 21.8705 2 21.7826V10.7427C2 10.3922 2.13922 10.0561 2.38702 9.80831C2.63483 9.5605 2.97093 9.42129 3.32138 9.42129H9.42129ZM14.1519 11.2667H10.7427C10.3922 11.2667 10.0561 11.1275 9.80831 10.8797C9.56051 10.6319 9.42129 10.2958 9.42129 9.94534V9.85607H3.32138C3.08624 9.85607 2.86073 9.94948 2.69446 10.1157C2.52819 10.282 2.43478 10.5075 2.43478 10.7427V21.2578L5.37565 18.3169C5.41642 18.2761 5.47172 18.2532 5.52937 18.2532H13.2573C13.4925 18.2532 13.718 18.1598 13.8842 17.9936C14.0505 17.8273 14.1439 17.6018 14.1439 17.3666V11.3253C14.1439 11.305 14.1467 11.2854 14.1519 11.2667ZM12.8129 6.68264C12.786 6.68264 12.7623 6.70486 12.7623 6.73461C12.7623 6.76436 12.786 6.78658 12.8129 6.78658C12.8398 6.78658 12.8635 6.76436 12.8635 6.73461C12.8635 6.70486 12.8398 6.68264 12.8129 6.68264ZM12.3275 6.73461C12.3275 6.46683 12.5437 6.24785 12.8129 6.24785C13.082 6.24785 13.2982 6.46683 13.2982 6.73461C13.2982 7.00239 13.082 7.22136 12.8129 7.22136C12.5437 7.22136 12.3275 7.00239 12.3275 6.73461ZM15.7105 6.68264C15.6836 6.68264 15.6599 6.70486 15.6599 6.73461C15.6599 6.76436 15.6836 6.78658 15.7105 6.78658C15.7374 6.78658 15.7611 6.76436 15.7611 6.73461C15.7611 6.70486 15.7374 6.68264 15.7105 6.68264ZM15.2251 6.73461C15.2251 6.46683 15.4414 6.24785 15.7105 6.24785C15.9796 6.24785 16.1959 6.46683 16.1959 6.73461C16.1959 7.00239 15.9796 7.22136 15.7105 7.22136C15.4414 7.22136 15.2251 7.00239 15.2251 6.73461ZM18.6081 6.68264C18.5812 6.68264 18.5575 6.70486 18.5575 6.73461C18.5575 6.76436 18.5812 6.78658 18.6081 6.78658C18.635 6.78658 18.6587 6.76436 18.6587 6.73461C18.6587 6.70486 18.635 6.68264 18.6081 6.68264ZM18.1227 6.73461C18.1227 6.46683 18.339 6.24785 18.6081 6.24785C18.8772 6.24785 19.0935 6.46683 19.0935 6.73461C19.0935 7.00239 18.8772 7.22136 18.6081 7.22136C18.339 7.22136 18.1227 7.00239 18.1227 6.73461ZM5.39157 14.3094C5.36467 14.3094 5.34097 14.3316 5.34097 14.3613C5.34097 14.3911 5.36467 14.4133 5.39157 14.4133C5.41848 14.4133 5.44218 14.3911 5.44218 14.3613C5.44218 14.3316 5.41848 14.3094 5.39157 14.3094ZM4.90619 14.3613C4.90619 14.0936 5.12246 13.8746 5.39157 13.8746C5.66069 13.8746 5.87696 14.0936 5.87696 14.3613C5.87696 14.6291 5.66069 14.8481 5.39157 14.8481C5.12246 14.8481 4.90619 14.6291 4.90619 14.3613ZM8.2892 14.3094C8.26229 14.3094 8.23859 14.3316 8.23859 14.3613C8.23859 14.3911 8.26229 14.4133 8.2892 14.4133C8.3161 14.4133 8.3398 14.3911 8.3398 14.3613C8.3398 14.3316 8.3161 14.3094 8.2892 14.3094ZM7.80381 14.3613C7.80381 14.0936 8.02008 13.8746 8.2892 13.8746C8.55831 13.8746 8.77458 14.0936 8.77458 14.3613C8.77458 14.6291 8.55831 14.8481 8.2892 14.8481C8.02008 14.8481 7.80381 14.6291 7.80381 14.3613ZM11.1868 14.3094C11.1599 14.3094 11.1362 14.3316 11.1362 14.3613C11.1362 14.3911 11.1599 14.4133 11.1868 14.4133C11.2137 14.4133 11.2374 14.3911 11.2374 14.3613C11.2374 14.3316 11.2137 14.3094 11.1868 14.3094ZM10.7014 14.3613C10.7014 14.0936 10.9177 13.8746 11.1868 13.8746C11.4559 13.8746 11.6722 14.0936 11.6722 14.3613C11.6722 14.6291 11.4559 14.8481 11.1868 14.8481C10.9177 14.8481 10.7014 14.6291 10.7014 14.3613Z" fill="white"/>
<path d="M5.34097 14.3613C5.34097 14.3316 5.36467 14.3094 5.39157 14.3094C5.41848 14.3094 5.44218 14.3316 5.44218 14.3613C5.44218 14.3911 5.41848 14.4133 5.39157 14.4133C5.36467 14.4133 5.34097 14.3911 5.34097 14.3613Z" fill="white"/>
<path d="M8.23859 14.3613C8.23859 14.3316 8.26229 14.3094 8.2892 14.3094C8.3161 14.3094 8.3398 14.3316 8.3398 14.3613C8.3398 14.3911 8.3161 14.4133 8.2892 14.4133C8.26229 14.4133 8.23859 14.3911 8.23859 14.3613Z" fill="white"/>
<path d="M11.1362 14.3613C11.1362 14.3316 11.1599 14.3094 11.1868 14.3094C11.2137 14.3094 11.2374 14.3316 11.2374 14.3613C11.2374 14.3911 11.2137 14.4133 11.1868 14.4133C11.1599 14.4133 11.1362 14.3911 11.1362 14.3613Z" fill="white"/>
<path d="M12.7623 6.73461C12.7623 6.70486 12.786 6.68264 12.8129 6.68264C12.8398 6.68264 12.8635 6.70486 12.8635 6.73461C12.8635 6.76436 12.8398 6.78658 12.8129 6.78658C12.786 6.78658 12.7623 6.76436 12.7623 6.73461Z" fill="white"/>
<path d="M15.6599 6.73461C15.6599 6.70486 15.6836 6.68264 15.7105 6.68264C15.7374 6.68264 15.7611 6.70486 15.7611 6.73461C15.7611 6.76436 15.7374 6.78658 15.7105 6.78658C15.6836 6.78658 15.6599 6.76436 15.6599 6.73461Z" fill="white"/>
<path d="M18.5575 6.73461C18.5575 6.70486 18.5812 6.68264 18.6081 6.68264C18.635 6.68264 18.6587 6.70486 18.6587 6.73461C18.6587 6.76436 18.635 6.78658 18.6081 6.78658C18.5812 6.78658 18.5575 6.76436 18.5575 6.73461Z" fill="white"/>
</svg>
