<svg width="24" height="24" viewBox="0 0 24 24" fill="none" xmlns="http://www.w3.org/2000/svg">
<path fill-rule="evenodd" clip-rule="evenodd" d="M8.66667 15.3333H4.96667C4.18076 15.3304 3.42787 15.0169 2.87215 14.4612C2.31643 13.9055 2.00293 13.1526 2 12.3667V4.96667C2.00293 4.18076 2.31643 3.42787 2.87215 2.87215C3.42787 2.31643 4.18076 2.00293 4.96667 2H12.3667C13.1526 2.00293 13.9055 2.31643 14.4612 2.87215C15.0169 3.42787 15.3304 4.18076 15.3333 4.96667V8.66667H18.6667C19.5507 8.66667 20.3986 9.01786 21.0237 9.64298C21.6488 10.2681 22 11.1159 22 12V18.6667C22 19.5507 21.6488 20.3986 21.0237 21.0237C20.3986 21.6488 19.5507 22 18.6667 22H12C11.1159 22 10.2681 21.6488 9.64298 21.0237C9.01786 20.3986 8.66667 19.5507 8.66667 18.6667V15.3333ZM8.66667 13.1111V12C8.66667 11.1159 9.01786 10.2681 9.64298 9.64298C10.2681 9.01786 11.1159 8.66667 12 8.66667H13.1111V4.96667C13.1111 4.76923 13.0327 4.57988 12.8931 4.44026C12.7535 4.30065 12.5641 4.22222 12.3667 4.22222H4.96667C4.76923 4.22222 4.57988 4.30065 4.44026 4.44026C4.30065 4.57988 4.22222 4.76923 4.22222 4.96667V12.3667C4.22222 12.5641 4.30065 12.7535 4.44026 12.8931C4.57988 13.0327 4.76923 13.1111 4.96667 13.1111H8.66667ZM11.2143 11.2143C11.4227 11.006 11.7053 10.8889 12 10.8889H18.6667C18.9614 10.8889 19.244 11.006 19.4523 11.2143C19.6607 11.4227 19.7778 11.7053 19.7778 12V18.6667C19.7778 18.9614 19.6607 19.244 19.4523 19.4523C19.244 19.6607 18.9614 19.7778 18.6667 19.7778H12C11.7053 19.7778 11.4227 19.6607 11.2143 19.4523C11.006 19.244 10.8889 18.9614 10.8889 18.6667V12C10.8889 11.7053 11.006 11.4227 11.2143 11.2143Z" fill="white"/>
</svg>
