<svg width="24" height="24" viewBox="0 0 24 24" fill="none" xmlns="http://www.w3.org/2000/svg">
<path d="M12 1.99995C10.0222 1.99995 8.08879 2.58644 6.4443 3.68526C4.79981 4.78407 3.51809 6.34586 2.76121 8.17312C2.00433 10.0004 1.8063 12.011 2.19215 13.9509C2.578 15.8907 3.53041 17.6725 4.92894 19.071C6.32746 20.4695 8.10929 21.422 10.0491 21.8078C11.9889 22.1937 13.9996 21.9956 15.8268 21.2387C17.6541 20.4819 19.2159 19.2001 20.3147 17.5557C21.4135 15.9112 22 13.9778 22 12C21.9969 9.34875 20.9423 6.80703 19.0676 4.93234C17.1929 3.05765 14.6512 2.00308 12 1.99995ZM15.8564 14.5718C15.9432 14.6556 16.0124 14.7559 16.0601 14.8669C16.1077 14.9778 16.1328 15.0971 16.1339 15.2178C16.1349 15.3385 16.1119 15.4582 16.0662 15.5699C16.0205 15.6816 15.953 15.7831 15.8676 15.8685C15.7823 15.9539 15.6808 16.0214 15.569 16.0671C15.4573 16.1128 15.3376 16.1358 15.2169 16.1347C15.0962 16.1337 14.9769 16.1086 14.866 16.061C14.7551 16.0133 14.6548 15.9441 14.5709 15.8572L12 13.2854L9.42909 15.8572C9.25764 16.0228 9.028 16.1145 8.78964 16.1124C8.55128 16.1103 8.32327 16.0147 8.15471 15.8461C7.98616 15.6776 7.89055 15.4496 7.88848 15.2112C7.88641 14.9729 7.97804 14.7432 8.14364 14.5718L10.7145 12L8.14364 9.42813C8.05681 9.34427 7.98756 9.24396 7.93991 9.13305C7.89227 9.02213 7.86719 8.90284 7.86614 8.78214C7.86509 8.66143 7.88809 8.54172 7.9338 8.42999C7.97951 8.31827 8.04701 8.21677 8.13237 8.13141C8.21773 8.04606 8.31923 7.97855 8.43095 7.93284C8.54268 7.88713 8.66239 7.86413 8.78309 7.86518C8.9038 7.86623 9.02309 7.89131 9.13401 7.93895C9.24492 7.9866 9.34523 8.05585 9.42909 8.14268L12 10.7145L14.5709 8.14268C14.6548 8.05585 14.7551 7.9866 14.866 7.93895C14.9769 7.89131 15.0962 7.86623 15.2169 7.86518C15.3376 7.86413 15.4573 7.88713 15.569 7.93284C15.6808 7.97855 15.7823 8.04606 15.8676 8.13141C15.953 8.21677 16.0205 8.31827 16.0662 8.42999C16.1119 8.54172 16.1349 8.66143 16.1339 8.78214C16.1328 8.90284 16.1077 9.02213 16.0601 9.13305C16.0124 9.24396 15.9432 9.34427 15.8564 9.42813L13.2855 12L15.8564 14.5718Z" fill="white"/>
</svg>
