<svg width="24" height="24" viewBox="0 0 24 24" fill="none" xmlns="http://www.w3.org/2000/svg">
<path fill-rule="evenodd" clip-rule="evenodd" d="M3.6247 9.20457L5.41289 8.16408L5.14158 7.74437L2.59751 9.22468L11.4144 13.8916L20.2336 9.22344L17.6905 7.76099L17.4215 8.18205L19.2018 9.2058L17.5273 10.0921L17.2829 10.2215L11.4144 13.3278L5.81905 10.3661L5.46215 10.1772L3.6247 9.20457Z" fill="white"/>
<path fill-rule="evenodd" clip-rule="evenodd" d="M11.4198 2.56622L3.64032 6.78259L11.4706 10.6432L19.2959 6.7851L11.4198 2.56622ZM11.4183 2L2.55636 6.80304L11.4706 11.1981L20.3849 6.80304L11.4183 2Z" fill="white"/>
<path fill-rule="evenodd" clip-rule="evenodd" d="M20.4116 6.77746C20.5928 8.42213 20.4792 10.0558 20.0995 11.619C20.0966 11.6308 20.0937 11.6426 20.0908 11.6543C19.2404 15.116 17.0837 18.2292 13.9304 20.3453L11.4648 22L9.27471 20.4151C6.21584 18.2015 4.06652 15.1109 3.09223 11.6685C3.08675 11.6492 3.08131 11.6298 3.07591 11.6104C2.66464 10.1357 2.46882 8.59699 2.50923 7.03556L2.5154 6.797L3.0342 6.80909L3.02802 7.04765C2.89674 12.1207 5.33669 16.946 9.58944 20.0236L11.4764 21.3891L13.6307 19.9434C18.0645 16.9679 20.4599 11.9533 19.8955 6.82863L20.4116 6.77746Z" fill="white"/>
<path fill-rule="evenodd" clip-rule="evenodd" d="M19.1184 11.6175L17.1377 10.4416L17.2829 10.2215L17.5273 10.0921L20.0995 11.619L20.0908 11.6543L11.5786 16.3053L3.09223 11.6685L3.07591 11.6104L5.46215 10.1772L5.81905 10.3661L5.90454 10.4942L4.03644 11.6162L11.5786 15.7371L19.1184 11.6175Z" fill="white"/>
</svg>
