<svg width="24" height="24" viewBox="0 0 24 24" fill="none" xmlns="http://www.w3.org/2000/svg">
<path fill-rule="evenodd" clip-rule="evenodd" d="M14.5066 3.65302C14.5066 3.29476 14.7932 3 15.152 3L16.0525 3C16.4114 3 16.6979 3.29476 16.6979 3.65302V4.75324H17.8536C19.0413 4.75324 19.9999 5.73056 19.9999 6.93082V10.8892C20 10.8911 20 10.8929 20 10.8947C20 10.8965 20 10.8983 19.9999 10.9002V18.8224C19.9999 20.0227 19.0413 21 17.8536 21H6.14633C4.95858 21 4 20.0227 4 18.8224V6.93082C4 5.73056 4.95858 4.75324 6.14633 4.75324L7.30212 4.75324V3.65302C7.30212 3.29476 7.58871 3 7.94752 3L8.84808 3C9.20689 3 9.49348 3.29476 9.49348 3.65302V4.75324L14.5066 4.75324V3.65302ZM14.5066 5.14454L9.49348 5.14454V6.39723C9.49348 6.7555 9.20689 7.05026 8.84808 7.05026L7.94752 7.05026C7.58871 7.05026 7.30212 6.7555 7.30212 6.39723V5.14454L6.14633 5.14454C5.17884 5.14454 4.39024 5.9419 4.39024 6.93082V10.699H19.6097V6.93082C19.6097 5.9419 18.8211 5.14454 17.8536 5.14454H16.6979V6.39723C16.6979 6.7555 16.4114 7.05026 16.0525 7.05026H15.152C14.7932 7.05026 14.5066 6.7555 14.5066 6.39723V5.14454ZM19.6097 11.0903H4.39024V18.8224C4.39024 19.8113 5.17884 20.6087 6.14633 20.6087H17.8536C18.8211 20.6087 19.6097 19.8113 19.6097 18.8224V11.0903ZM15.152 3.3913C15.0134 3.3913 14.8968 3.50609 14.8968 3.65302V6.39723C14.8968 6.54417 15.0134 6.65895 15.152 6.65895L16.0525 6.65895C16.1911 6.65895 16.3077 6.54417 16.3077 6.39723V3.65302C16.3077 3.50609 16.1911 3.3913 16.0525 3.3913L15.152 3.3913ZM7.94752 3.3913C7.80897 3.3913 7.69236 3.50609 7.69236 3.65302V6.39723C7.69236 6.54417 7.80897 6.65895 7.94752 6.65895L8.84808 6.65895C8.98663 6.65895 9.10324 6.54417 9.10324 6.39723V3.65302C9.10324 3.50609 8.98663 3.3913 8.84808 3.3913L7.94752 3.3913Z" fill="white"/>
<path fill-rule="evenodd" clip-rule="evenodd" d="M12.0003 13.3611C11.9945 13.3611 11.9888 13.3627 11.9839 13.3658C11.9789 13.3688 11.975 13.3732 11.9724 13.3784L11.3574 14.6242C11.3296 14.6806 11.2759 14.7196 11.2139 14.7287L9.8376 14.9288C9.83211 14.9296 9.82695 14.9319 9.8227 14.9355C9.81846 14.939 9.81529 14.9437 9.81358 14.949C9.81186 14.9543 9.81166 14.9599 9.81299 14.9653C9.81432 14.9707 9.81714 14.9756 9.82112 14.9795L10.8165 15.9497C10.8617 15.9937 10.8823 16.0572 10.8716 16.1195L10.6368 17.4879C10.636 17.4934 10.6367 17.4991 10.6389 17.5043C10.6411 17.5096 10.6448 17.5143 10.6495 17.5177C10.6542 17.5211 10.6597 17.5231 10.6655 17.5235C10.6712 17.5239 10.6769 17.5228 10.682 17.5201L11.9118 16.8737C11.9672 16.8446 12.0334 16.8446 12.0889 16.8737L13.3198 17.5207C13.3247 17.5234 13.3304 17.5246 13.336 17.5242C13.3416 17.5238 13.347 17.5218 13.3515 17.5185C13.3561 17.5152 13.3596 17.5107 13.3617 17.5054C13.3639 17.5002 13.3645 17.4945 13.3635 17.4889L13.129 16.1194C13.1184 16.0572 13.139 15.9937 13.1841 15.9497L14.1788 14.9802C14.1827 14.9763 14.1857 14.9712 14.187 14.9658C14.1883 14.9603 14.1881 14.9546 14.1864 14.9492C14.1846 14.9439 14.1814 14.9391 14.1771 14.9355C14.1728 14.9318 14.1676 14.9295 14.162 14.9287L12.7868 14.7287C12.7247 14.7196 12.671 14.6806 12.6432 14.6242L12.0283 13.3784C12.0257 13.3732 12.0217 13.3688 12.0168 13.3658C12.0118 13.3627 12.0061 13.3611 12.0003 13.3611ZM11.7829 13.0403C11.8482 12.9998 11.9235 12.9783 12.0003 12.9783C12.0771 12.9783 12.1524 12.9998 12.2177 13.0403C12.283 13.0809 12.3357 13.139 12.3699 13.208L12.9406 14.3643L14.2164 14.5498C14.2923 14.5608 14.3639 14.5929 14.4227 14.6425C14.4815 14.6921 14.5253 14.7572 14.5491 14.8305C14.5729 14.9037 14.5758 14.9822 14.5575 15.0571C14.5392 15.1319 14.5004 15.2001 14.4454 15.254L14.445 15.2544L13.5221 16.154L13.7395 17.4237C13.7526 17.4998 13.7442 17.5781 13.7152 17.6496C13.6862 17.7212 13.6378 17.7831 13.5755 17.8285C13.5131 17.8738 13.4394 17.9007 13.3626 17.9061C13.286 17.9114 13.2094 17.8952 13.1416 17.8592L13.141 17.8589L12.0003 17.2593L10.8588 17.8594L10.8583 17.8596C10.7904 17.8951 10.7141 17.9109 10.6378 17.9053C10.5615 17.8997 10.4882 17.873 10.4261 17.8281C10.3641 17.7831 10.3157 17.7218 10.2864 17.6509C10.2571 17.58 10.248 17.5023 10.2602 17.4265L10.2605 17.4244L10.4785 16.154L9.55593 15.2547C9.50059 15.201 9.46125 15.1326 9.44269 15.0576C9.42411 14.9825 9.42694 14.9038 9.45085 14.8302C9.47476 14.7567 9.5188 14.6914 9.57792 14.6418C9.63688 14.5924 9.70846 14.5605 9.78456 14.5498L11.06 14.3643L11.6306 13.2083C11.6648 13.1393 11.7176 13.0809 11.7829 13.0403Z" fill="white"/>
</svg>
