<svg width="24" height="24" viewBox="0 0 24 24" fill="none" xmlns="http://www.w3.org/2000/svg">
<path fill-rule="evenodd" clip-rule="evenodd" d="M9.26106 3.43902C9.20536 3.43902 9.1524 3.46116 9.11368 3.49988L7.13201 5.48191C7.13135 5.48257 7.13068 5.48322 7.13002 5.48387L7.1114 5.50249C7.07276 5.54113 7.05141 5.59315 7.05141 5.64692V12.8195H12.8423V6.24977L11.6982 7.38805C11.6127 7.47314 11.475 7.4721 11.3908 7.38575C11.3065 7.29939 11.3075 7.1604 11.3931 7.07532L12.9071 5.56896C12.9918 5.48474 13.1277 5.48477 13.2123 5.56902L14.7252 7.07538C14.8107 7.1605 14.8117 7.29948 14.7274 7.38581C14.6431 7.47213 14.5054 7.47311 14.4199 7.38799L13.2771 6.25006V12.8195H17.7796C18.3795 12.8195 18.9222 13.159 19.1887 13.6861V9.13139C19.1887 9.13117 19.1887 9.13094 19.1887 9.13071C19.1887 9.13048 19.1887 9.13025 19.1887 9.13002V3.6443C19.1887 3.53292 19.0978 3.43902 18.9813 3.43902H9.26106ZM19.6235 8.9112V3.6443C19.6235 3.28645 19.334 3 18.9813 3H9.26106C9.0914 3 8.92832 3.06736 8.80774 3.18795L8.78909 3.20661C8.78842 3.20726 8.78775 3.20792 8.78708 3.20858L6.80545 5.19056C6.80545 5.19056 6.80545 5.19056 6.80545 5.19056C6.68479 5.31123 6.61663 5.47538 6.61663 5.64692V8.9112H6.24406C5.49426 8.9112 4.88268 9.51937 4.88268 10.2742V11.4699H2.67201C2.22516 11.4699 1.89856 11.9021 2.02898 12.3371C2.02897 12.3371 2.02898 12.3371 2.02898 12.3371L4.28753 19.8732C4.4883 20.5432 5.10416 21 5.80044 21H20.5961C21.0177 21 21.3965 20.8137 21.6538 20.5187C21.8691 20.272 22 19.9484 22 19.5944V13.673C22 13.6704 22 13.6678 21.9999 13.6652V10.3168C21.9999 9.53841 21.3692 8.9112 20.596 8.9112H19.6235ZM19.6235 9.35022V14.8813L19.9984 15.9464L21.5264 19.8662C21.5517 19.78 21.5652 19.6888 21.5652 19.5944V16.5451C21.5651 16.5425 21.5651 16.5399 21.5651 16.5373V10.3168C21.5651 9.78503 21.1333 9.35022 20.596 9.35022H19.6235ZM21.2362 20.3202L19.5898 16.0969L19.202 14.9947C19.2015 14.9933 19.2009 14.9918 19.2004 14.9903L18.8597 14.0223C18.6991 13.5658 18.2667 13.2585 17.7796 13.2585H7.01614C6.86599 13.2585 6.72002 13.208 6.60167 13.1149L5.13378 11.9598C5.1091 11.9404 5.08082 11.9261 5.05073 11.9177C5.04765 11.917 5.0446 11.9162 5.04157 11.9153C5.02369 11.9111 5.00523 11.9089 4.98655 11.9089H2.67201C2.51071 11.9089 2.40096 12.0627 2.44511 12.2099L4.70367 19.746C4.84822 20.2284 5.29328 20.561 5.80044 20.561H20.5961C20.8417 20.561 21.0655 20.4701 21.2362 20.3202ZM5.40107 11.6135L6.61663 12.5701V9.35022H6.24406C5.73023 9.35022 5.31746 9.76601 5.31746 10.2742V11.5573C5.34654 11.5739 5.3745 11.5926 5.40107 11.6135Z" fill="white"/>
</svg>
