<svg width="24" height="24" viewBox="0 0 24 24" fill="none" xmlns="http://www.w3.org/2000/svg">
<path fill-rule="evenodd" clip-rule="evenodd" d="M2 12.1283C2 6.71737 6.47715 2.33096 12 2.33096C15.4203 2.33096 18.4392 4.01413 20.2409 6.5771C20.5257 6.98221 20.4214 7.53681 20.0079 7.81583C19.5944 8.09484 19.0283 7.99262 18.7435 7.58751C17.2666 5.48654 14.797 4.11229 12 4.11229C7.48131 4.11229 3.81818 7.70118 3.81818 12.1283C3.81818 12.6202 3.41117 13.019 2.90909 13.019C2.40701 13.019 2 12.6202 2 12.1283ZM21.0909 11.2376C21.593 11.2376 22 11.6364 22 12.1283C22 17.5392 17.5228 21.9256 12 21.9256C8.48141 21.9256 5.38794 20.1445 3.60687 17.4565C3.33349 17.0439 3.45325 16.4924 3.87438 16.2245C4.2955 15.9567 4.8585 16.074 5.13189 16.4866C6.59187 18.69 9.12285 20.1443 12 20.1443C16.5187 20.1443 20.1818 16.5554 20.1818 12.1283C20.1818 11.6364 20.5888 11.2376 21.0909 11.2376Z" fill="white"/>
<path fill-rule="evenodd" clip-rule="evenodd" d="M2.1669 14.8747H8.11151C8.61358 14.8747 9.0206 15.2734 9.0206 15.7653C9.0206 16.2572 8.61358 16.656 8.11151 16.656H3.98509V21.1093C3.98509 21.6012 3.57807 22 3.07599 22C2.57392 22 2.1669 21.6012 2.1669 21.1093V14.8747Z" fill="white"/>
<path fill-rule="evenodd" clip-rule="evenodd" d="M21.9601 9.12534H16.0154C15.5134 9.12534 15.1064 8.72657 15.1064 8.23467C15.1064 7.74277 15.5134 7.344 16.0154 7.344H20.1419V2.89067C20.1419 2.39877 20.5489 2 21.051 2C21.553 2 21.9601 2.39877 21.9601 2.89067V9.12534Z" fill="white"/>
</svg>
