<svg width="24" height="24" viewBox="0 0 24 24" fill="none" xmlns="http://www.w3.org/2000/svg">
<g clip-path="url(#clip0_556_9540)">
<path fill-rule="evenodd" clip-rule="evenodd" d="M3.48906 2.05754C3.59506 2.01947 3.70684 2 3.81947 2H20.1805C20.2932 2 20.4049 2.01947 20.5109 2.05754C20.8354 2.17407 21.1274 2.36437 21.3655 2.61204C21.6035 2.85963 21.7815 3.15804 21.8874 3.48364C21.9934 3.80917 22.025 4.15455 21.9803 4.49377C21.9356 4.83301 21.8156 5.15868 21.6279 5.4457C21.6017 5.48579 21.5726 5.5239 21.5408 5.55972L15.4945 12.3712V21.0225C15.4945 21.3948 15.2831 21.7347 14.9492 21.8993C14.6153 22.0639 14.2169 22.0245 13.9217 21.7977L8.8875 17.9309C8.64665 17.7459 8.50547 17.4594 8.50547 17.1557V12.3712L2.4592 5.55972C2.42741 5.5239 2.39829 5.48579 2.37208 5.4457C2.18444 5.15867 2.06437 4.83301 2.01968 4.49377C1.97499 4.15456 2.00662 3.80918 2.11257 3.48364C2.21855 3.15804 2.39651 2.85963 2.63453 2.61204C2.87263 2.36437 3.16464 2.17407 3.48906 2.05754ZM4.05599 3.95489C4.05185 3.95872 4.04779 3.96271 4.04381 3.96685C4.01231 3.99962 3.98699 4.04102 3.97148 4.08866C3.95596 4.13636 3.95114 4.18774 3.95782 4.23843C3.96228 4.2723 3.9717 4.30455 3.98525 4.33413L10.2139 11.3511C10.3727 11.53 10.4604 11.7608 10.4604 12V16.674L13.5396 19.0393V12C13.5396 11.7608 13.6273 11.53 13.7861 11.3511L20.0148 4.33413C20.0283 4.30455 20.0377 4.2723 20.0422 4.23843C20.0489 4.18775 20.044 4.13636 20.0285 4.08866C20.013 4.04102 19.9877 3.99961 19.9562 3.96685C19.9522 3.96271 19.9481 3.95872 19.944 3.95489H4.05599Z" fill="white"/>
</g>
<defs>
<clipPath id="clip0_556_9540">
<rect width="24" height="24" fill="white"/>
</clipPath>
</defs>
</svg>
