<svg width="24" height="24" viewBox="0 0 24 24" fill="none" xmlns="http://www.w3.org/2000/svg">
<path d="M16.6875 3C15.6022 3 14.6072 3.3506 13.7302 4.04209C12.8894 4.70502 12.3296 5.54939 12 6.16338C11.6704 5.54935 11.1106 4.70502 10.2698 4.04209C9.39277 3.3506 8.39777 3 7.3125 3C4.28391 3 2 5.52546 2 8.87445C2 12.4925 4.84934 14.968 9.16285 18.7154C9.89535 19.3518 10.7256 20.0732 11.5886 20.8425C11.7023 20.9441 11.8484 21 12 21C12.1516 21 12.2977 20.9441 12.4114 20.8426C13.2745 20.0731 14.1047 19.3518 14.8376 18.715C19.1507 14.968 22 12.4925 22 8.87445C22 5.52546 19.7161 3 16.6875 3Z" fill="white"/>
</svg>
