<svg width="24" height="24" viewBox="0 0 24 24" fill="none" xmlns="http://www.w3.org/2000/svg">
<path fill-rule="evenodd" clip-rule="evenodd" d="M12.0138 2C12.1109 2.00029 12.2085 2.02367 12.2974 2.07077L20.6878 6.17322L20.691 6.17494C20.8837 6.27876 21.0069 6.48111 20.9997 6.70461C20.9915 6.96208 20.9846 7.2169 20.9778 7.46965C20.914 9.82402 20.8551 11.998 19.767 14.4437C18.5477 17.1841 15.5914 19.8925 12.3219 21.9098C12.2316 21.9654 12.1302 21.9951 12.0286 21.9995L12.0244 21.9996L12.0205 21.9997C12.0154 21.9998 12.0077 22 12.0012 22H11.9992C11.9896 22 11.9801 21.9997 11.9705 21.9992C11.8689 21.9949 11.7679 21.9651 11.6782 21.9098C8.40869 19.8925 5.45234 17.1841 4.23309 14.4437C3.14491 11.998 3.08605 9.82401 3.0223 7.46964C3.01546 7.2169 3.00856 6.96208 3.00032 6.70462C2.99319 6.48112 3.11637 6.27876 3.30909 6.17494L3.31228 6.17322L11.7027 2.07077C11.7961 2.02126 11.8992 1.99795 12.0012 2.00014L12.0138 2ZM11.9951 2.37746C11.9522 2.37625 11.9098 2.3861 11.8725 2.40619L11.8693 2.40791L3.47964 6.50999C3.40631 6.55073 3.36846 6.62241 3.37069 6.69233M12.014 2.37737L11.9988 2.37756L11.9951 2.37746M12.014 2.37737C12.0538 2.37768 12.0929 2.38751 12.1276 2.40619L12.1307 2.40791L20.5204 6.51C20.5938 6.55074 20.6316 6.62242 20.6294 6.69235C20.6211 6.95004 20.6142 7.20415 20.6073 7.45531C20.5428 9.81527 20.4853 11.9148 19.4294 14.288C18.2559 16.9257 15.3752 19.5847 12.1299 21.587C12.0955 21.6082 12.0558 21.6203 12.0149 21.6223C12.0125 21.6224 12.0105 21.6224 12.0087 21.6225C12.0053 21.6226 12.0029 21.6226 12 21.6226C11.9964 21.6226 11.9927 21.6225 11.989 21.6223L11.9863 21.6222C11.9451 21.6205 11.905 21.6085 11.8702 21.587C8.62486 19.5847 5.74421 16.9257 4.57063 14.288C3.51473 11.9148 3.4573 9.81526 3.39276 7.4553C3.38589 7.20415 3.37894 6.95003 3.37069 6.69233M12 7.34725C11.0834 7.34725 10.3404 8.10393 10.3404 9.03734V9.89242H13.6597V9.03734C13.6597 8.10393 12.9166 7.34725 12 7.34725ZM14.0303 9.89242V9.03734C14.0303 7.89552 13.1213 6.96989 12 6.96989C10.8788 6.96989 9.96981 7.89552 9.96981 9.03734V9.89242H9.33512C9.00636 9.89242 8.73985 10.1638 8.73985 10.4986V14.2561C8.73985 14.5909 9.00636 14.8623 9.33512 14.8623H14.6649C14.9937 14.8623 15.2602 14.5909 15.2602 14.2561V10.4986C15.2602 10.1638 14.9937 9.89242 14.6649 9.89242H14.0303ZM9.33512 10.2698C9.21102 10.2698 9.11041 10.3722 9.11041 10.4986V14.2561C9.11041 14.3825 9.21102 14.485 9.33512 14.485H14.6649C14.789 14.485 14.8896 14.3825 14.8896 14.2561V10.4986C14.8896 10.3722 14.789 10.2698 14.6649 10.2698H9.33512ZM11.9987 11.7598C11.8963 11.7598 11.8134 11.8443 11.8134 11.9485C11.8134 12.0527 11.8963 12.1371 11.9987 12.1371C12.101 12.1371 12.1839 12.0527 12.1839 11.9485C12.1839 11.8443 12.101 11.7598 11.9987 11.7598ZM11.4428 11.9485C11.4428 11.6358 11.6917 11.3824 11.9987 11.3824C12.3056 11.3824 12.5545 11.6358 12.5545 11.9485C12.5545 12.1944 12.4005 12.4037 12.1853 12.4818L12.1853 13.1321C12.1853 13.2363 12.1024 13.3208 12 13.3208C11.8977 13.3208 11.8147 13.2363 11.8147 13.1321L11.8147 12.4828C11.5981 12.4055 11.4428 12.1954 11.4428 11.9485Z" fill="white"/>
</svg>
