<svg width="24" height="24" viewBox="0 0 24 24" fill="none" xmlns="http://www.w3.org/2000/svg">
<path fill-rule="evenodd" clip-rule="evenodd" d="M8.31952 12.2985L11.8072 15.7478L8.31952 12.2985Z" fill="white"/>
<path fill-rule="evenodd" clip-rule="evenodd" d="M11.6407 15.9175L8.15301 12.4682L8.48603 12.1288L11.9737 15.5781L11.6407 15.9175Z" fill="white"/>
<path fill-rule="evenodd" clip-rule="evenodd" d="M12.2907 8.24857L15.7783 11.6978L12.2907 8.24857Z" fill="white"/>
<path fill-rule="evenodd" clip-rule="evenodd" d="M15.6118 11.8676L12.1242 8.41827L12.4572 8.07887L15.9448 11.5281L15.6118 11.8676Z" fill="white"/>
<path fill-rule="evenodd" clip-rule="evenodd" d="M10.9412 8.57752L15.5378 13.0861L10.9412 8.57752Z" fill="white"/>
<path fill-rule="evenodd" clip-rule="evenodd" d="M15.372 13.2565L10.7754 8.74791L11.107 8.40713L15.7036 12.9157L15.372 13.2565Z" fill="white"/>
<path fill-rule="evenodd" clip-rule="evenodd" d="M8.50518 10.884L13.1018 15.3926L8.50518 10.884Z" fill="white"/>
<path fill-rule="evenodd" clip-rule="evenodd" d="M12.936 15.563L8.33937 11.0544L8.67099 10.7136L13.2676 15.2222L12.936 15.563Z" fill="white"/>
<path fill-rule="evenodd" clip-rule="evenodd" d="M9.8848 9.09907L15.0209 14.1285L9.8848 9.09907Z" fill="white"/>
<path fill-rule="evenodd" clip-rule="evenodd" d="M14.8553 14.299L9.71913 9.2696L10.0505 8.92854L15.1866 13.958L14.8553 14.299Z" fill="white"/>
<path fill-rule="evenodd" clip-rule="evenodd" d="M13.9968 15.0286L8.86069 9.99916L9.19202 9.6581L14.3282 14.6875L13.9968 15.0286Z" fill="white"/>
<path fill-rule="evenodd" clip-rule="evenodd" d="M16.8553 2.38948L16.8528 2.39272C16.8503 2.39584 16.8462 2.40107 16.8406 2.40839C16.8295 2.42303 16.8124 2.44606 16.7904 2.4774C16.7465 2.54011 16.683 2.63607 16.6083 2.76488C16.459 3.02251 16.2649 3.41133 16.0927 3.92813C15.7487 4.96034 15.49 6.50826 15.8538 8.54955C16.0427 9.60986 16.1445 10.7044 16.0514 11.7146C15.9584 12.7247 15.669 13.667 15.0604 14.4035C13.5782 16.197 10.8445 16.4909 8.43788 15.8839C6.66454 15.4367 5.14644 15.6788 4.0708 16.0328C3.53278 16.2099 3.10626 16.4147 2.81544 16.5744C2.6701 16.6542 2.55889 16.7227 2.48485 16.7705C2.44784 16.7944 2.42014 16.8132 2.40214 16.8257C2.39313 16.8319 2.38656 16.8366 2.38245 16.8395L2.37816 16.8426L2.37762 16.843M2.37762 16.843C2.27196 16.9207 2.12343 16.8978 2.04596 16.7918C1.96846 16.6857 1.99129 16.5366 2.09695 16.4588L2.22635 16.6359C2.09696 16.4588 2.09695 16.4588 2.09695 16.4588L2.09811 16.458L2.10022 16.4564L2.10729 16.4513C2.11327 16.4471 2.12178 16.4411 2.13276 16.4335C2.15471 16.4183 2.18657 16.3967 2.22795 16.3699C2.3107 16.3164 2.43164 16.2421 2.58769 16.1564C2.89966 15.9851 3.35295 15.7677 3.92299 15.5801C5.0635 15.2048 6.6746 14.948 8.5535 15.4219C10.8857 16.0101 13.3847 15.685 14.6952 14.0993C15.2225 13.4612 15.4913 12.6225 15.5789 11.6708C15.6666 10.7192 15.5716 9.67114 15.3866 8.63346C15.008 6.50858 15.2752 4.87986 15.6427 3.77697C15.8262 3.22621 16.0344 2.80787 16.1982 2.52522C16.2802 2.38389 16.3511 2.27644 16.4023 2.20326C16.428 2.16667 16.4487 2.13863 16.4635 2.11921C16.4709 2.10949 16.4768 2.10193 16.4811 2.09652L16.4863 2.09003L16.4879 2.088L16.4885 2.08728C16.4885 2.08728 16.4889 2.08677 16.672 2.23822L16.4889 2.08677C16.5722 1.98522 16.7217 1.9707 16.8229 2.05435C16.9239 2.13788 16.9383 2.28794 16.8553 2.38948" fill="white"/>
<path fill-rule="evenodd" clip-rule="evenodd" d="M7.14467 21.6105L7.14725 21.6073C7.14971 21.6042 7.1538 21.5989 7.15937 21.5916C7.17051 21.577 7.18759 21.5539 7.20956 21.5226C7.2535 21.4599 7.31698 21.3639 7.39165 21.2351C7.54101 20.9775 7.73506 20.5887 7.90728 20.0719C8.25127 19.0397 8.51001 17.4917 8.14623 15.4504C7.95728 14.3901 7.8555 13.2956 7.94855 12.2854C8.04158 11.2753 8.33101 10.333 8.93963 9.59648C10.4218 7.80295 13.1555 7.50906 15.5621 8.11606C17.3355 8.56334 18.8536 8.32115 19.9292 7.96718C20.4672 7.79013 20.8937 7.58532 21.1846 7.4256C21.3299 7.34578 21.4411 7.27735 21.5151 7.22949C21.5522 7.20556 21.5799 7.18679 21.5979 7.17433C21.6069 7.16809 21.6134 7.16344 21.6175 7.16051L21.6218 7.15742L21.6224 7.15703M21.6224 7.15703C21.728 7.07934 21.8766 7.10218 21.954 7.20822C22.0315 7.3143 22.0087 7.46338 21.903 7.54119L21.7737 7.36408C21.903 7.54119 21.903 7.54119 21.903 7.54119L21.9019 7.54203L21.8998 7.54357L21.8927 7.54866C21.8867 7.55294 21.8782 7.55895 21.8672 7.56655C21.8453 7.58174 21.8134 7.60331 21.772 7.63006C21.6893 7.68355 21.5684 7.75786 21.4123 7.84357C21.1003 8.0149 20.6471 8.23231 20.077 8.4199C18.9365 8.79522 17.3254 9.05203 15.4465 8.57813C13.1143 7.9899 10.6153 8.31497 9.30484 9.90068C8.77747 10.5388 8.50874 11.3775 8.42108 12.3292C8.33343 13.2808 8.42843 14.3289 8.61336 15.3665C8.99202 17.4914 8.72485 19.1201 8.3573 20.223C8.17376 20.7738 7.96564 21.1921 7.80178 21.4748C7.71984 21.6161 7.64895 21.7236 7.59766 21.7967C7.57202 21.8333 7.55127 21.8614 7.53649 21.8808C7.5291 21.8905 7.5232 21.8981 7.51893 21.9035L7.51375 21.91L7.5121 21.912L7.51152 21.9127C7.51152 21.9127 7.51111 21.9132 7.32796 21.7618L7.51111 21.9132C7.4278 22.0148 7.27826 22.0293 7.17712 21.9457C7.0761 21.8621 7.06171 21.7121 7.14467 21.6105" fill="white"/>
<path fill-rule="evenodd" clip-rule="evenodd" d="M16.4071 2.90882L21.2335 7.62372L16.4071 2.90882Z" fill="white"/>
<path fill-rule="evenodd" clip-rule="evenodd" d="M21.0681 7.79445L16.2417 3.07955L16.5726 2.73809L21.399 7.45299L21.0681 7.79445Z" fill="white"/>
<path fill-rule="evenodd" clip-rule="evenodd" d="M15.7581 3.90783L20.2678 8.28004L15.7581 3.90783Z" fill="white"/>
<path fill-rule="evenodd" clip-rule="evenodd" d="M20.103 8.4514L15.5933 4.07919L15.923 3.73648L20.4326 8.10869L20.103 8.4514Z" fill="white"/>
<path fill-rule="evenodd" clip-rule="evenodd" d="M18.7947 8.76836L15.3706 5.43734L15.7008 5.09519L19.125 8.4262L18.7947 8.76836Z" fill="white"/>
<path fill-rule="evenodd" clip-rule="evenodd" d="M7.65026 21.1359L2.82384 16.421L7.65026 21.1359Z" fill="white"/>
<path fill-rule="evenodd" clip-rule="evenodd" d="M2.98931 16.2502L7.81572 20.9651L7.48479 21.3066L2.65837 16.5917L2.98931 16.2502Z" fill="white"/>
<path fill-rule="evenodd" clip-rule="evenodd" d="M8.29924 20.1369L3.7896 15.7646L8.29924 20.1369Z" fill="white"/>
<path fill-rule="evenodd" clip-rule="evenodd" d="M3.95442 15.5933L8.46406 19.9655L8.13442 20.3082L3.62477 15.936L3.95442 15.5933Z" fill="white"/>
<path fill-rule="evenodd" clip-rule="evenodd" d="M5.26264 15.2763L8.68676 18.6073L8.35654 18.9495L4.93242 15.6185L5.26264 15.2763Z" fill="white"/>
</svg>
