<svg width="24" height="24" viewBox="0 0 24 24" fill="none" xmlns="http://www.w3.org/2000/svg">
<path fill-rule="evenodd" clip-rule="evenodd" d="M7.2 7C8.08366 7 8.8 6.25381 8.8 5.33333C8.8 4.41286 8.08366 3.66667 7.2 3.66667C6.31634 3.66667 5.6 4.41286 5.6 5.33333C5.6 6.25381 6.31634 7 7.2 7ZM7.2 8.66667C8.96731 8.66667 10.4 7.17428 10.4 5.33333C10.4 3.49238 8.96731 2 7.2 2C5.43269 2 4 3.49238 4 5.33333C4 7.17428 5.43269 8.66667 7.2 8.66667Z" fill="white"/>
<path fill-rule="evenodd" clip-rule="evenodd" d="M16.8 7C17.6837 7 18.4 6.25381 18.4 5.33333C18.4 4.41286 17.6837 3.66667 16.8 3.66667C15.9163 3.66667 15.2 4.41286 15.2 5.33333C15.2 6.25381 15.9163 7 16.8 7ZM16.8 8.66667C18.5673 8.66667 20 7.17428 20 5.33333C20 3.49238 18.5673 2 16.8 2C15.0327 2 13.6 3.49238 13.6 5.33333C13.6 7.17428 15.0327 8.66667 16.8 8.66667Z" fill="white"/>
<path fill-rule="evenodd" clip-rule="evenodd" d="M7.2 20.3333C8.08366 20.3333 8.8 19.5871 8.8 18.6667C8.8 17.7462 8.08366 17 7.2 17C6.31634 17 5.6 17.7462 5.6 18.6667C5.6 19.5871 6.31634 20.3333 7.2 20.3333ZM7.2 22C8.96731 22 10.4 20.5076 10.4 18.6667C10.4 16.8257 8.96731 15.3333 7.2 15.3333C5.43269 15.3333 4 16.8257 4 18.6667C4 20.5076 5.43269 22 7.2 22Z" fill="white"/>
<path fill-rule="evenodd" clip-rule="evenodd" d="M6.4 16.9841V7.55176H8V16.9841H6.4Z" fill="white"/>
<path fill-rule="evenodd" clip-rule="evenodd" d="M10.4 12.8333C13.4928 12.8333 16 10.2217 16 7H17.6C17.6 11.1421 14.3765 14.5 10.4 14.5H7.2V12.8333H10.4Z" fill="white"/>
</svg>
