<svg width="24" height="24" viewBox="0 0 24 24" fill="none" xmlns="http://www.w3.org/2000/svg">
<path d="M2.26301 2.50958L6.52864 1.52533C6.99269 1.41823 7.46704 1.65871 7.65477 2.09672L9.62352 6.69035C9.79628 7.09347 9.68151 7.56225 9.34207 7.83998L6.85582 9.87419C8.33128 13.0191 10.9138 15.6372 14.1258 17.1441L16.16 14.6579C16.4377 14.3185 16.9065 14.2037 17.3096 14.3765L21.9033 16.3452C22.3412 16.5329 22.5818 17.0072 22.4747 17.4714L21.4904 21.737C21.3881 22.1802 20.9928 22.5 20.5313 22.5C10.0277 22.5 1.5 13.9879 1.5 3.46873C1.5 3.01034 1.81639 2.61261 2.26301 2.50958Z" fill="white"/>
</svg>
