<svg width="24" height="24" viewBox="0 0 24 24" fill="none" xmlns="http://www.w3.org/2000/svg">
<path fill-rule="evenodd" clip-rule="evenodd" d="M19.29 3.65312C17.6235 2.04155 14.9216 2.04155 13.2551 3.65312C12.8767 4.01906 12.5842 4.43664 12.3776 4.8824C12.3712 4.90839 12.3601 4.93265 12.3452 4.95425C11.684 6.45733 11.987 8.2626 13.2541 9.48875L15.5299 11.6429L15.5304 11.6434L16.2769 12.3458C16.357 12.2744 16.4587 12.1837 16.5624 12.0911C16.7931 11.885 17.0248 11.6773 17.0582 11.645C17.4736 11.2433 18.1529 10.5874 18.6531 10.1045L19.2901 9.48963C19.3898 9.39325 19.4835 9.29331 19.5711 9.19029C20.9508 7.56925 20.857 5.1684 19.29 3.65312ZM19.6153 9.80391L19.3713 10.0395H19.8459C19.7984 9.93297 19.7486 9.8276 19.6966 9.72344C19.67 9.75045 19.6428 9.77739 19.6153 9.80391ZM20.0218 9.35681C21.4498 7.56396 21.3144 4.98191 19.6154 3.33897C17.7692 1.55368 14.7759 1.55368 12.9297 3.33897C12.5371 3.71871 12.2279 4.14864 12.0023 4.60741C12.0015 4.60741 12.0008 4.60741 12 4.60741C7.02944 4.60741 3 8.50087 3 13.3037C3 18.1065 7.02944 22 12 22C12.0506 22 12.101 21.9996 12.1514 21.9988C12.1758 21.9996 12.2003 22 12.2249 22C12.2962 22 12.3669 21.9966 12.4369 21.9899C17.2046 21.7697 21 17.965 21 13.3037C21 11.8831 20.6473 10.5415 20.0218 9.35681ZM13.8576 21.3598C16.3908 20.8169 18.5007 19.1869 19.6362 17.0025H16.1033C15.9005 17.8903 15.6266 18.6964 15.2959 19.3889C14.9025 20.2125 14.4162 20.8981 13.8576 21.3598ZM16.1975 16.558H19.8502C20.2942 15.5595 20.54 14.4594 20.54 13.3037C20.54 12.3131 20.3595 11.3636 20.0285 10.4839H18.9108C18.4184 10.9593 17.7805 11.5753 17.3835 11.9592C17.3416 11.9997 17.0991 12.2169 16.8746 12.4175C16.7607 12.5192 16.6491 12.6187 16.5661 12.6927L16.4944 12.7566C16.4998 12.9375 16.5026 13.1199 16.5026 13.3037C16.5026 14.4529 16.3945 15.5519 16.1975 16.558ZM16.0336 12.7372C16.0396 12.9244 16.0426 13.1133 16.0426 13.3037C16.0426 14.4608 15.9305 15.5604 15.7291 16.558H8.72067C8.51924 15.5604 8.40717 14.4608 8.40717 13.3037C8.40717 12.3123 8.48944 11.363 8.63973 10.4839H13.6482L15.2085 11.9609L15.209 11.9613L16.0336 12.7372ZM13.1787 10.0395L12.9296 9.80375C11.6158 8.53318 11.2371 6.70085 11.7934 5.10639C10.9626 5.31723 10.1687 6.13367 9.5489 7.45255C9.20241 8.18979 8.91996 9.06595 8.72267 10.0395H13.1787ZM8.25423 10.0395C8.45831 9.00128 8.75723 8.06213 9.13009 7.26878C9.5586 6.35702 10.099 5.611 10.7248 5.14323C7.76503 5.57141 5.30195 7.46717 4.15416 10.0395H8.25423ZM3.97156 10.4839C3.64052 11.3637 3.45997 12.3134 3.45997 13.3037C3.45997 14.4594 3.70582 15.5595 4.14976 16.558H8.25229C8.05523 15.5519 7.9472 14.4529 7.9472 13.3037C7.9472 12.3178 8.0267 11.3689 8.17371 10.4839H3.97156ZM8.34648 17.0025H4.36384C5.58531 19.3523 7.93432 21.0605 10.7248 21.4642C10.1103 21.0047 9.57815 20.2771 9.15391 19.3889C8.82313 18.6964 8.54925 17.8903 8.34648 17.0025ZM12.3981 21.5467C12.318 21.5503 12.2375 21.5528 12.1568 21.5542C11.2065 21.5162 10.2793 20.6844 9.57154 19.2027C9.2675 18.5661 9.01163 17.8236 8.81788 17.0025H15.6319C15.4381 17.8236 15.1823 18.5661 14.8782 19.2027C14.1966 20.6297 13.3114 21.4539 12.3981 21.5467ZM16.2726 5.05185C15.406 5.05185 14.7036 5.73061 14.7036 6.5679C14.7036 7.40519 15.406 8.08395 16.2726 8.08395C17.1391 8.08395 17.8416 7.40519 17.8416 6.5679C17.8416 5.73061 17.1391 5.05185 16.2726 5.05185ZM14.2436 6.5679C14.2436 5.48515 15.152 4.60741 16.2726 4.60741C17.3931 4.60741 18.3015 5.48515 18.3015 6.5679C18.3015 7.65065 17.3931 8.5284 16.2726 8.5284C15.152 8.5284 14.2436 7.65065 14.2436 6.5679Z" fill="white"/>
</svg>
