<svg width="24" height="24" viewBox="0 0 24 24" fill="none" xmlns="http://www.w3.org/2000/svg">
<path fill-rule="evenodd" clip-rule="evenodd" d="M11.8346 3.49043C11.1458 3.49043 10.5903 4.04749 10.5903 4.73108C10.5903 5.41466 11.1458 5.97172 11.8346 5.97172C12.5235 5.97172 13.079 5.41466 13.079 4.73108C13.079 4.04749 12.5235 3.49043 11.8346 3.49043ZM10.1025 4.73108C10.1025 3.77342 10.8796 3 11.8346 3C12.7897 3 13.5668 3.77342 13.5668 4.73108C13.5668 5.60574 12.9185 6.32671 12.0785 6.44511V7.62268H18.1182C18.8906 7.62268 19.5196 8.24827 19.5196 9.02357V10.7882C20.9206 10.9867 22 12.1894 22 13.6462C22 15.1031 20.9206 16.3057 19.5196 16.5042V18.5991C19.5196 19.3744 18.8906 20 18.1182 20H5.88177C5.1094 20 4.48037 19.3744 4.48037 18.5991V16.5042C3.07944 16.3057 2 15.1031 2 13.6462C2 12.1894 3.07944 10.9867 4.48037 10.7882V9.02357C4.48037 8.24827 5.1094 7.62268 5.88177 7.62268H11.5907V6.44511C10.7508 6.32671 10.1025 5.60573 10.1025 4.73108ZM4.48037 11.2846C3.34775 11.4784 2.4878 12.4633 2.4878 13.6462C2.4878 14.8292 3.34775 15.814 4.48037 16.0079V11.2846ZM19.5196 16.0079C20.6523 15.814 21.5122 14.8292 21.5122 13.6462C21.5122 12.4633 20.6523 11.4784 19.5196 11.2846V16.0079ZM5.88177 8.11311C5.3756 8.11311 4.96817 8.52234 4.96817 9.02357V18.5991C4.96817 19.1003 5.3756 19.5096 5.88177 19.5096H8.28359V17.9387C8.28359 17.0723 8.98666 16.3728 9.85035 16.3728H14.1496C15.0133 16.3728 15.7164 17.0723 15.7164 17.9387V19.5096H18.1182C18.6244 19.5096 19.0318 19.1003 19.0318 18.5991V9.02357C19.0318 8.52234 18.6244 8.11311 18.1182 8.11311H5.88177ZM15.2286 19.5096V17.9387C15.2286 17.3463 14.7471 16.8632 14.1496 16.8632H9.85035C9.25287 16.8632 8.77139 17.3463 8.77139 17.9387V19.5096H15.2286ZM8.85916 11.0848C8.17035 11.0848 7.61485 11.6419 7.61485 12.3255C7.61485 13.0091 8.17035 13.5661 8.85916 13.5661C9.54798 13.5661 10.1035 13.0091 10.1035 12.3255C10.1035 11.6419 9.54798 11.0848 8.85916 11.0848ZM7.12704 12.3255C7.12704 11.3678 7.90414 10.5944 8.85916 10.5944C9.81419 10.5944 10.5913 11.3678 10.5913 12.3255C10.5913 13.2831 9.81419 14.0566 8.85916 14.0566C7.90414 14.0566 7.12704 13.2831 7.12704 12.3255ZM14.8111 11.0848C14.1223 11.0848 13.5668 11.6419 13.5668 12.3255C13.5668 13.0091 14.1223 13.5661 14.8111 13.5661C15.4999 13.5661 16.0554 13.0091 16.0554 12.3255C16.0554 11.6419 15.4999 11.0848 14.8111 11.0848ZM13.079 12.3255C13.079 11.3678 13.8561 10.5944 14.8111 10.5944C15.7661 10.5944 16.5432 11.3678 16.5432 12.3255C16.5432 13.2831 15.7661 14.0566 14.8111 14.0566C13.8561 14.0566 13.079 13.2831 13.079 12.3255Z" fill="white"/>
</svg>
