<svg width="24" height="24" viewBox="0 0 24 24" fill="none" xmlns="http://www.w3.org/2000/svg">
<path fill-rule="evenodd" clip-rule="evenodd" d="M2.00003 3.70116C2.00003 2.76164 2.76167 2 3.70119 2H20.2989C21.2384 2 22 2.76164 22 3.70116V20.2988C22 21.2383 21.2384 21.9999 20.2989 21.9999L3.70119 22C2.76167 22 2.00003 21.2384 2.00003 20.2988V3.70116ZM2.37713 12.0049V20.2988C2.37713 21.0301 2.96994 21.6229 3.70119 21.6229L20.2989 21.6228C21.0301 21.6228 21.6229 21.03 21.6229 20.2988V6.43906H2.37715L2.37719 12.0001C2.37719 12.0017 2.37717 12.0033 2.37713 12.0049ZM2.37714 6.06197L2.37713 3.70116C2.37713 2.9699 2.96994 2.3771 3.70119 2.3771L12.0001 2.37716C12.0017 2.37716 12.0033 2.37714 12.0049 2.3771H20.2989C21.0301 2.3771 21.6229 2.9699 21.6229 3.70116V6.06197H2.37714ZM7.16462 4.33521C7.16462 4.23108 7.24903 4.14666 7.35316 4.14666H8.38141C8.48554 4.14666 8.56996 4.23108 8.56996 4.33521C8.56996 4.43934 8.48554 4.52376 8.38141 4.52376H7.35316C7.24903 4.52376 7.16462 4.43934 7.16462 4.33521ZM4.71738 4.33522C4.71738 4.23108 4.8018 4.14667 4.90593 4.14667H5.93418C6.03831 4.14667 6.12272 4.23108 6.12272 4.33522C6.12272 4.43935 6.03831 4.52377 5.93418 4.52377H4.90593C4.8018 4.52377 4.71738 4.43935 4.71738 4.33522ZM9.48857 4.33522C9.48857 4.23108 9.57298 4.14667 9.67711 4.14667H10.7054C10.8095 4.14667 10.8939 4.23108 10.8939 4.33522C10.8939 4.43935 10.8095 4.52377 10.7054 4.52377H9.67711C9.57298 4.52377 9.48857 4.43935 9.48857 4.33522ZM13.0974 11.6275C13.1878 11.6792 13.2192 11.7944 13.1676 11.8848L11.102 15.5002C11.0503 15.5906 10.9352 15.622 10.8447 15.5704C10.7543 15.5187 10.7229 15.4035 10.7746 15.3131L12.8401 11.6977C12.8918 11.6073 13.007 11.5759 13.0974 11.6275ZM9.20394 11.6557C9.27882 11.728 9.28086 11.8474 9.20849 11.9223L7.60504 13.5814L9.20849 15.2405C9.28086 15.3154 9.27882 15.4347 9.20394 15.5071C9.12907 15.5795 9.0097 15.5774 8.93733 15.5026L7.20725 13.7125C7.13662 13.6394 7.13662 13.5235 7.20725 13.4504L8.93733 11.6602C9.0097 11.5853 9.12906 11.5833 9.20394 11.6557ZM14.8085 11.6557C14.8833 11.5833 15.0027 11.5853 15.0751 11.6602L16.8052 13.4504C16.8758 13.5235 16.8758 13.6394 16.8052 13.7125L15.0751 15.5026C15.0027 15.5774 14.8833 15.5795 14.8085 15.5071C14.7336 15.4347 14.7315 15.3154 14.8039 15.2405L16.4074 13.5814L14.8039 11.9223C14.7315 11.8474 14.7336 11.728 14.8085 11.6557Z" fill="white"/>
</svg>
