<svg width="24" height="24" viewBox="0 0 24 24" fill="none" xmlns="http://www.w3.org/2000/svg">
<path d="M15.7341 7.61565C14.4871 6.98565 13.3502 6.70365 12.0483 6.70365C10.7341 6.70365 9.48722 7.01565 8.35032 7.62165M17.4822 10.8436C16.8771 10.0096 16.1069 9.35565 15.1901 8.89365C13.2647 7.92165 10.8075 7.92765 8.88822 8.89965C7.97136 9.36165 7.20121 10.0216 6.59608 10.8616M10.8686 17.6913C10.398 17.2233 10.129 16.9293 9.73782 16.2393C9.36496 15.5913 9.16937 14.7933 9.16937 13.9293C9.16937 12.4773 10.4469 11.2953 12.0177 11.2953C13.5886 11.2953 14.8661 12.4773 14.8661 13.9293M15.5018 16.5693C15.2573 16.6113 15.0128 16.6293 14.8661 16.6293C14.2549 16.6293 13.7475 16.4913 13.3135 16.2033C12.5678 15.7113 12.1278 14.9133 12.1278 14.0673M13.8698 17.7393C13.0079 17.5053 12.4517 17.1933 11.871 16.6293C11.1314 15.9093 10.728 14.9493 10.728 13.9233C10.728 13.2813 11.2965 12.7593 11.9994 12.7593C12.7023 12.7593 13.2707 13.2813 13.2707 13.9233C13.2707 14.8953 14.1143 15.6873 15.1534 15.6873C16.1925 15.6873 16.7076 14.8953 16.7076 13.9233C16.7076 11.3313 14.7989 9.59565 12.0177 9.59565C10.0434 9.59565 8.59469 10.3053 7.78175 11.9793C7.50669 12.5493 7.36611 13.2033 7.36611 13.9233C7.36611 14.7333 7.5128 15.5133 7.81231 16.2993M3.5665 2C2.70135 2 2 2.70135 2 3.5665V20.4335C2 21.2987 2.70135 22 3.5665 22H20.4335C21.2987 22 22 21.2987 22 20.4335V3.5665C22 2.70135 21.2987 2 20.4335 2H3.5665Z" stroke="white" stroke-width="0.4" stroke-linecap="round"/>
</svg>
