<svg width="24" height="24" viewBox="0 0 24 24" fill="none" xmlns="http://www.w3.org/2000/svg">
<path fill-rule="evenodd" clip-rule="evenodd" d="M22 12C21.1303 7.26757 16.9839 3.68127 12 3.68127C7.01619 3.68127 2.86884 7.26757 2 12C2.86977 16.7324 7.01619 20.3187 12 20.3187C16.9839 20.3187 21.1312 16.7324 22 12ZM20.1126 12C19.2482 15.7847 15.8822 18.4693 12 18.4701C8.11781 18.4693 4.75178 15.7847 3.88739 12C4.75493 8.2184 8.12016 5.53776 12 5.53776C15.8798 5.53776 19.2451 8.2184 20.1126 12ZM12 16.1594C9.70286 16.1594 7.84065 14.2971 7.84065 12C7.84065 9.70284 9.70286 7.84064 12 7.84064C14.2972 7.84064 16.1594 9.70284 16.1594 12C16.1594 14.2971 14.2972 16.1594 12 16.1594ZM14.3108 12C14.3108 13.2762 13.2762 14.3107 12 14.3107C10.7238 14.3107 9.68926 13.2762 9.68926 12C9.68926 10.7238 10.7238 9.68924 12 9.68924C13.2762 9.68924 14.3108 10.7238 14.3108 12Z" fill="white"/>
</svg>
