<svg width="24" height="24" viewBox="0 0 24 24" fill="none" xmlns="http://www.w3.org/2000/svg">
<path fill-rule="evenodd" clip-rule="evenodd" d="M12.2644 6.44037C10.9203 6.44037 9.83784 7.52197 9.83784 8.84737C9.83784 10.1728 10.9203 11.2544 12.2644 11.2544C13.6085 11.2544 14.6909 10.1728 14.6909 8.84737C14.6909 7.52197 13.6085 6.44037 12.2644 6.44037ZM13.5109 11.4109C14.4654 10.9505 15.1257 9.97746 15.1257 8.84737C15.1257 7.27086 13.8407 6 12.2644 6C10.6881 6 9.40305 7.27086 9.40305 8.84737C9.40305 9.97745 10.0633 10.9505 11.0179 11.4109C10.0675 11.6547 9.22681 12.1708 8.58534 12.8707C8.12394 12.2515 7.47141 11.7836 6.71551 11.5543C7.35198 11.1866 7.78143 10.4982 7.78143 9.70718C7.78143 8.52782 6.82669 7.57631 5.65452 7.57631C4.48236 7.57631 3.52761 8.52782 3.52761 9.70718C3.52761 10.4982 3.95709 11.1867 4.59359 11.5543C3.09386 12.0093 2 13.4038 2 15.0571V16.2035C2 16.3251 2.09733 16.4237 2.21739 16.4237L7.2879 16.4237V17.7798C7.2879 17.9014 7.38523 18 7.50529 18H17.0235C17.1436 18 17.2409 17.9014 17.2409 17.7798V16.4237L21.7826 16.4237C21.9027 16.4237 22 16.3251 22 16.2035V15.0571C22 13.4038 20.9061 12.0093 19.4064 11.5543C20.0429 11.1867 20.4724 10.4982 20.4724 9.70718C20.4724 8.52782 19.5176 7.57631 18.3455 7.57631C17.1733 7.57631 16.2186 8.52782 16.2186 9.70718C16.2186 10.4982 16.648 11.1866 17.2845 11.5543C16.6517 11.7463 16.0913 12.1055 15.6549 12.5807C15.0581 12.0281 14.3247 11.6197 13.5109 11.4109ZM15.9628 12.892C16.7108 13.7177 17.1838 14.7961 17.2361 15.9833L21.5652 15.9833V15.0571C21.5652 13.2818 20.1262 11.838 18.3455 11.838C17.4007 11.838 16.5517 12.2446 15.9628 12.892ZM18.3455 11.3977C19.2825 11.3977 20.0376 10.6383 20.0376 9.70718C20.0376 8.77606 19.2825 8.01668 18.3455 8.01668C17.4084 8.01668 16.6533 8.77606 16.6533 9.70718C16.6533 10.6383 17.4084 11.3977 18.3455 11.3977ZM7.29274 15.9833C7.33842 14.946 7.7053 13.9916 8.29626 13.2163C7.71442 12.3833 6.74854 11.838 5.65452 11.838C3.8738 11.838 2.43478 13.2818 2.43478 15.0571V15.9833L7.29274 15.9833ZM5.65452 11.3977C6.59156 11.3977 7.34665 10.6383 7.34665 9.70718C7.34665 8.77606 6.59156 8.01668 5.65452 8.01668C4.71749 8.01668 3.9624 8.77606 3.9624 9.70718C3.9624 10.6383 4.71749 11.3977 5.65452 11.3977ZM12.2644 11.6947C10.8376 11.6947 9.56557 12.3475 8.73314 13.3679C8.10085 14.1429 7.72268 15.1293 7.72268 16.2035V17.5596H16.8061V16.2035C16.8061 14.9788 16.3145 13.8679 15.5149 13.0545C14.6903 12.2158 13.5392 11.6947 12.2644 11.6947Z" fill="white"/>
</svg>
