<svg width="24" height="24" viewBox="0 0 24 24" fill="none" xmlns="http://www.w3.org/2000/svg">
<path fill-rule="evenodd" clip-rule="evenodd" d="M21 12.973C21 7.98745 16.9706 3.9459 12 3.9459C7.02944 3.9459 3 7.98745 3 12.973C3 17.9585 7.02944 22 12 22C16.9706 22 21 17.9585 21 12.973ZM8.37606 8.5978L15.51 8.59778C17.9463 8.59778 19.9213 10.5787 19.9213 13.0223C19.9213 15.4641 17.9478 17.4435 15.5133 17.4435L8.43262 17.4382C5.99542 17.4363 4.01716 15.4608 4.00463 13.0163C3.99218 10.5885 5.9443 8.61032 8.36479 8.59784L8.37606 8.5978Z" fill="white"/>
<path d="M11.1466 13.0488C11.1466 14.0887 10.2771 14.9317 9.20448 14.9317C8.13185 14.9317 7.26231 14.0887 7.26231 13.0488C7.26231 12.0089 8.13185 11.1659 9.20448 11.1659C10.2771 11.1659 11.1466 12.0089 11.1466 13.0488Z" fill="white"/>
<path d="M17.054 13.0488C17.054 14.0887 16.1845 14.9317 15.1119 14.9317C14.0392 14.9317 13.1697 14.0887 13.1697 13.0488C13.1697 12.0089 14.0392 11.1659 15.1119 11.1659C16.1845 11.1659 17.054 12.0089 17.054 13.0488Z" fill="white"/>
<path d="M5.07215 2C6.02803 2 6.80292 2.77722 6.80292 3.73597C6.80292 4.44633 6.37753 5.05703 5.76832 5.32579L5.7683 9.25423H4.38369L4.38367 5.32917C3.77035 5.06217 3.34138 4.44932 3.34138 3.73597C3.34138 2.77722 4.11627 2 5.07215 2Z" fill="white"/>
</svg>
