<svg width="24" height="24" viewBox="0 0 24 24" fill="none" xmlns="http://www.w3.org/2000/svg">
<path d="M10.1818 7.4723L7.09347 10.1054H3.81818V13.8947H7.09347L10.1818 16.5278V7.4723ZM6.44445 15.7893H2.90909C2.40702 15.7893 2 15.3652 2 14.842V9.15806C2 8.63487 2.40702 8.21074 2.90909 8.21074H6.44445L11.2576 4.10708C11.4519 3.94143 11.7383 3.97127 11.8973 4.17373C11.9637 4.25836 12 4.36433 12 4.47367V19.5263C12 19.788 11.7965 20 11.5455 20C11.4405 20 11.3388 19.9622 11.2576 19.893L6.44445 15.7893ZM18.7325 19.7052L17.4451 18.3637C19.1245 16.8023 20.1818 14.5299 20.1818 12.0001C20.1818 9.33878 19.0117 6.96231 17.1785 5.39878L18.4693 4.05359C20.6294 5.96501 22 8.81572 22 12.0001C22 15.053 20.7401 17.7994 18.7325 19.7052ZM15.5119 16.3492L14.2192 15.0021C15.0811 14.3092 15.6364 13.2222 15.6364 12.0001C15.6364 10.645 14.9539 9.45618 13.9275 8.78633L15.2354 7.42351C16.5815 8.45855 17.4545 10.123 17.4545 12.0001C17.4545 13.7451 16.6998 15.3066 15.5119 16.3492Z" fill="white"/>
<path d="M10.1818 7.4723L7.09347 10.1054H3.81818V13.8947H7.09347L10.1818 16.5278V7.4723Z" fill="white"/>
</svg>
