<?xml version="1.0" encoding="utf-8"?>
<svg version="1.1" id="Layer_1" xmlns="http://www.w3.org/2000/svg" xmlns:xlink="http://www.w3.org/1999/xlink" x="0px" y="0px" viewBox="0 0 800 600" style="enable-background:new 0 0 800 600;" xml:space="preserve">
    <style type="text/css">
        .st0{opacity: 0.5;}
        .st1{fill: none; stroke: rgb(4, 0, 0); stroke-width: 0.1;}
        .st2{fill: rgb(4, 0, 0); stroke-width: 0;}
    </style>
    <g class="st0">
        <g>
            <line vector-effect="non-scaling-stroke" class="st1" x1="242.3" y1="174.5" x2="480.6" y2="405.8"/>
            <line vector-effect="non-scaling-stroke" class="st1" x1="480.6" y1="405.8" x2="704.9" y2="349.7"/>
            <line vector-effect="non-scaling-stroke" class="st1" x1="550.7" y1="181.5" x2="704.9" y2="349.7"/>
            <line vector-effect="non-scaling-stroke" class="st1" x1="550.7" y1="181.5" x2="480.6" y2="405.8"/>
            <line vector-effect="non-scaling-stroke" class="st1" x1="585.7" y1="272.6" x2="550.7" y2="181.5"/>
            <line vector-effect="non-scaling-stroke" class="st1" x1="585.7" y1="272.6" x2="704.9" y2="349.7"/>
            <line vector-effect="non-scaling-stroke" class="st1" x1="585.7" y1="272.6" x2="480.6" y2="405.8"/>
            <line vector-effect="non-scaling-stroke" class="st1" x1="834.6" y1="384.4" x2="704.9" y2="349.7"/>
            <line vector-effect="non-scaling-stroke" class="st1" x1="669.8" y1="496.9" x2="704.9" y2="349.7"/>
            <line vector-effect="non-scaling-stroke" class="st1" x1="669.8" y1="496.9" x2="834.6" y2="384.4"/>
            <line vector-effect="non-scaling-stroke" class="st1" x1="669.8" y1="496.9" x2="561.2" y2="610.5"/>
            <line vector-effect="non-scaling-stroke" class="st1" x1="550.7" y1="181.5" x2="831" y2="125.1"/>
            <line vector-effect="non-scaling-stroke" class="st1" x1="480.6" y1="405.8" x2="305.4" y2="321.7"/>
            <line vector-effect="non-scaling-stroke" class="st1" x1="242.3" y1="174.5" x2="305.4" y2="321.7"/>
            <line vector-effect="non-scaling-stroke" class="st1" x1="242.3" y1="174.5" x2="-27.6" y2="384.8"/>
            <line vector-effect="non-scaling-stroke" class="st1" x1="-27.6" y1="384.8" x2="305.4" y2="321.7"/>
            <line vector-effect="non-scaling-stroke" class="st1" x1="480.6" y1="405.8" x2="561.2" y2="610.5"/>
            <line vector-effect="non-scaling-stroke" class="st1" x1="242.3" y1="174.5" x2="-31.1" y2="125.4"/>
            <line vector-effect="non-scaling-stroke" class="st1" x1="305.4" y1="321.7" x2="256.3" y2="496.9"/>
            <line vector-effect="non-scaling-stroke" class="st1" x1="256.3" y1="496.9" x2="-27.6" y2="384.8"/>
            <line vector-effect="non-scaling-stroke" class="st1" x1="789" y1="609.1" x2="669.8" y2="496.9"/>
            <line vector-effect="non-scaling-stroke" class="st1" x1="256.3" y1="496.9" x2="123.1" y2="616.1"/>
            <line vector-effect="non-scaling-stroke" class="st1" x1="550.7" y1="181.5" x2="634.8" y2="83.4"/>
            <line vector-effect="non-scaling-stroke" class="st1" x1="634.8" y1="83.4" x2="831" y2="125.1"/>
            <line vector-effect="non-scaling-stroke" class="st1" x1="634.8" y1="83.4" x2="561.2" y2="-14.8"/>
            <line vector-effect="non-scaling-stroke" class="st1" x1="242.3" y1="174.5" x2="312.4" y2="-9.2"/>
            <line vector-effect="non-scaling-stroke" class="st1" x1="634.8" y1="83.4" x2="789" y2="-16.2"/>
            <line vector-effect="non-scaling-stroke" class="st1" x1="480.6" y1="405.8" x2="312.4" y2="616.1"/>
            <line vector-effect="non-scaling-stroke" class="st1" x1="312.4" y1="616.1" x2="256.3" y2="496.9"/>
            <line vector-effect="non-scaling-stroke" class="st1" x1="123.1" y1="-9.2" x2="-31.1" y2="125.4"/>
            <line vector-effect="non-scaling-stroke" class="st1" x1="242.3" y1="174.5" x2="123.1" y2="-9.2"/>
            <line vector-effect="non-scaling-stroke" class="st1" x1="123.1" y1="-9.2" x2="-73.1" y2="-15.8"/>
            <line vector-effect="non-scaling-stroke" class="st1" x1="256.3" y1="496.9" x2="-73.1" y2="609.4"/>
            <line vector-effect="non-scaling-stroke" class="st1" x1="550.7" y1="181.5" x2="874.1" y2="229.2"/>
            <line vector-effect="non-scaling-stroke" class="st1" x1="704.9" y1="349.7" x2="874.1" y2="229.2"/>
            <line vector-effect="non-scaling-stroke" class="st1" x1="-31.1" y1="125.4" x2="11.9" y2="229.6"/>
            <line vector-effect="non-scaling-stroke" class="st1" x1="11.9" y1="229.6" x2="-27.6" y2="384.8"/>
            <line vector-effect="non-scaling-stroke" class="st1" x1="11.9" y1="229.6" x2="242.3" y2="174.5"/>
            <line vector-effect="non-scaling-stroke" class="st1" x1="242.3" y1="174.5" x2="423.4" y2="162"/>
            <line vector-effect="non-scaling-stroke" class="st1" x1="423.4" y1="162" x2="550.7" y2="181.5"/>
            <line vector-effect="non-scaling-stroke" class="st1" x1="423.4" y1="162" x2="480.6" y2="405.8"/>
            <line vector-effect="non-scaling-stroke" class="st1" x1="423.4" y1="162" x2="312.4" y2="-9.2"/>
            <line vector-effect="non-scaling-stroke" class="st1" x1="423.4" y1="162" x2="561.2" y2="-14.8"/>
            <line vector-effect="non-scaling-stroke" class="st1" x1="480.6" y1="405.8" x2="433.4" y2="535.6"/>
            <line vector-effect="non-scaling-stroke" class="st1" x1="433.4" y1="535.6" x2="312.4" y2="616.1"/>
            <line vector-effect="non-scaling-stroke" class="st1" x1="433.4" y1="535.6" x2="561.2" y2="610.5"/>
        </g>
        <g>
            <circle vector-effect="non-scaling-stroke" class="st2" cx="242.3" cy="174.5" r="0.8"/>
            <circle vector-effect="non-scaling-stroke" class="st2" cx="480.6" cy="405.8" r="0.8"/>
            <circle vector-effect="non-scaling-stroke" class="st2" cx="704.9" cy="349.7" r="0.8"/>
            <circle vector-effect="non-scaling-stroke" class="st2" cx="550.7" cy="181.5" r="0.8"/>
            <circle vector-effect="non-scaling-stroke" class="st2" cx="874.1" cy="229.2" r="0.8"/>
            <circle vector-effect="non-scaling-stroke" class="st2" cx="834.6" cy="384.4" r="0.8"/>
            <circle vector-effect="non-scaling-stroke" class="st2" cx="669.8" cy="496.9" r="0.8"/>
            <circle vector-effect="non-scaling-stroke" class="st2" cx="831" cy="125.1" r="0.8"/>
            <circle vector-effect="non-scaling-stroke" class="st2" cx="305.4" cy="321.7" r="0.8"/>
            <circle vector-effect="non-scaling-stroke" class="st2" cx="-27.6" cy="384.8" r="0.8"/>
            <circle vector-effect="non-scaling-stroke" class="st2" cx="561.2" cy="610.5" r="0.8"/>
            <circle vector-effect="non-scaling-stroke" class="st2" cx="-31.1" cy="125.4" r="0.8"/>
            <circle vector-effect="non-scaling-stroke" class="st2" cx="256.3" cy="496.9" r="0.8"/>
            <circle vector-effect="non-scaling-stroke" class="st2" cx="433.4" cy="535.6" r="0.8"/>
            <circle vector-effect="non-scaling-stroke" class="st2" cx="-73.1" cy="609.4" r="0.8"/>
            <circle vector-effect="non-scaling-stroke" class="st2" cx="789" cy="609.1" r="0.8"/>
            <circle vector-effect="non-scaling-stroke" class="st2" cx="123.1" cy="616.1" r="0.8"/>
            <circle vector-effect="non-scaling-stroke" class="st2" cx="634.8" cy="83.4" r="0.8"/>
            <circle vector-effect="non-scaling-stroke" class="st2" cx="561.2" cy="-14.8" r="0.8"/>
            <circle vector-effect="non-scaling-stroke" class="st2" cx="423.4" cy="162" r="0.8"/>
            <circle vector-effect="non-scaling-stroke" class="st2" cx="312.4" cy="-9.2" r="0.8"/>
            <circle vector-effect="non-scaling-stroke" class="st2" cx="-73.1" cy="-15.8" r="0.8"/>
            <circle vector-effect="non-scaling-stroke" class="st2" cx="789" cy="-16.2" r="0.8"/>
            <circle vector-effect="non-scaling-stroke" class="st2" cx="312.4" cy="616.1" r="0.8"/>
            <circle vector-effect="non-scaling-stroke" class="st2" cx="123.1" cy="-9.2" r="0.8"/>
            <circle vector-effect="non-scaling-stroke" class="st2" cx="11.9" cy="229.6" r="0.8"/>
            <circle vector-effect="non-scaling-stroke" class="st2" cx="585.7" cy="272.6" r="0.8"/>
        </g>
    </g>
</svg>