<?xml version="1.0" encoding="UTF-8"?>
<svg width="12px" height="12px" viewBox="0 0 12 12" version="1.1" xmlns="http://www.w3.org/2000/svg" xmlns:xlink="http://www.w3.org/1999/xlink">
    <title>fetch</title>
    <g id="Home" stroke="none" stroke-width="1" fill="none" fill-rule="evenodd" stroke-linecap="round">
        <g id="TypeDB-desktop" transform="translate(-1488.000000, -2589.000000)" stroke="#484B72">
            <g id="Nested-Relations" transform="translate(380.000000, 2198.000000)">
                <g id="code" transform="translate(500.000000, 0.000000)">
                    <g id="footer-code" transform="translate(0.000000, 385.000000)">
                        <g id="fetch-copy-5" transform="translate(608.000000, 2.000000)">
                            <g id="icon-fetch" transform="translate(0.500000, 4.000000)">
                                <path d="M1.30315776,8.71890021 C2.19444843,10.0918589 3.74117035,11 5.5,11 C8.26142375,11 10.5,8.76142375 10.5,6 M9.62073324,3.16729709 C8.71909388,1.85818198 7.20976651,1 5.5,1 C2.73857625,1 0.5,3.23857625 0.5,6" id="Shape"></path>
                                <polyline id="Path-34" points="0.591796875 11.041748 0.591796875 8.04174805 3.36132812 8.04174805"></polyline>
                                <polyline id="Path-34-Copy" transform="translate(9.093262, 2.314209) scale(-1, -1) translate(-9.093262, -2.314209) " points="7.70849609 3.81420898 7.70849609 0.814208984 10.4780273 0.814208984"></polyline>
                            </g>
                        </g>
                    </g>
                </g>
            </g>
        </g>
    </g>
</svg>