<?xml version="1.0" encoding="UTF-8"?>
<svg width="660px" height="24px" viewBox="0 0 660 24" version="1.1" xmlns="http://www.w3.org/2000/svg" xmlns:xlink="http://www.w3.org/1999/xlink">
    <title>BED227FC-2C38-4638-8DE5-D97E831CA9B5</title>
    <g id="Home" stroke="none" stroke-width="1" fill="none" fill-rule="evenodd">
        <g id="Home-Desktop" transform="translate(-380.000000, -2394.000000)">
            <g id="tackle-complex" transform="translate(0.000000, 1720.000000)">
                <g id="type-system" transform="translate(380.000000, 298.000000)">
                    <g id="footer-code" transform="translate(0.000000, 376.000000)">
                        <path d="M0,0 L660,0 L660,19 C660,21.7614237 657.761424,24 655,24 L5,24 C2.23857625,24 3.38176876e-16,21.7614237 0,19 L0,0 L0,0 Z" id="bg-copy-69" fill="#0B0339"></path>
                        <g id="fetch-copy-5" transform="translate(608.000000, 2.000000)">
                            <text id="fetch" font-family="TitilliumWeb-SemiBold, Titillium Web" font-size="12" font-weight="500" fill="#484B72">
                                <tspan x="16.8" y="14">fetch</tspan>
                            </text>
                            <g id="icon-fetch" transform="translate(0.500000, 4.000000)" stroke="#484B72" stroke-linecap="round">
                                <path d="M1.30315776,8.71890021 C2.19444843,10.0918589 3.74117035,11 5.5,11 C8.26142375,11 10.5,8.76142375 10.5,6 M9.62073324,3.16729709 C8.71909388,1.85818198 7.20976651,1 5.5,1 C2.73857625,1 0.5,3.23857625 0.5,6" id="Shape"></path>
                                <polyline id="Path-34" points="0.591796875 11.041748 0.591796875 8.04174805 3.36132812 8.04174805"></polyline>
                                <polyline id="Path-34-Copy" transform="translate(9.093262, 2.314209) scale(-1, -1) translate(-9.093262, -2.314209) " points="7.70849609 3.81420898 7.70849609 0.814208984 10.4780273 0.814208984"></polyline>
                            </g>
                        </g>
                        <g id="master" transform="translate(547.500000, 2.000000)">
                            <text id="text-copy-58" font-family="TitilliumWeb-SemiBold, Titillium Web" font-size="12" font-weight="500" fill="#484B72">
                                <tspan x="15.254" y="14">master</tspan>
                            </text>
                            <g id="icon-master" transform="translate(0.500000, 4.000000)" stroke="#484B72">
                                <circle id="Oval" cx="2" cy="2" r="1.5"></circle>
                                <circle id="Oval-Copy-49" cx="8" cy="2" r="1.5"></circle>
                                <circle id="Oval-Copy-48" cx="2" cy="10" r="1.5"></circle>
                                <line x1="2" y1="3.33105469" x2="2" y2="8.99047852" id="Path-33"></line>
                                <path d="M8,3 C8,5.209139 6.209139,7 4,7 L2,7 L2,7" id="Path"></path>
                            </g>
                        </g>
                        <text id="text-copy-59" font-family="TitilliumWeb-SemiBold, Titillium Web" font-size="12" font-weight="500" fill="#484B72">
                            <tspan x="8.336" y="16">TypeQL</tspan>
                        </text>
                    </g>
                </g>
            </g>
        </g>
    </g>
</svg>