<svg xmlns="http://www.w3.org/2000/svg" viewBox="0 0 600 400" width="600" height="400">
  <rect width="600" height="400" fill="#13121d"/>
  <rect x="250" y="30" width="100" height="8" rx="4" fill="#7ba0ff"/>
  <rect x="200" y="48" width="200" height="16" rx="4" fill="#5b5675"/>
  <rect x="170" y="76" width="260" height="8" rx="4" fill="#3a3650"/>
  <rect x="60" y="110" width="150" height="26" rx="6" fill="#221f31"/>
  <rect x="70" y="120" width="16" height="6" rx="4" fill="#7ba0ff"/>
  <rect x="94" y="120" width="90" height="6" rx="4" fill="#5b5675"/>
  <rect x="60" y="146" width="150" height="26" rx="6" fill="#13121d"/>
  <rect x="70" y="156" width="16" height="6" rx="4" fill="#3a3650"/>
  <rect x="94" y="156" width="90" height="6" rx="4" fill="#5b5675"/>
  <rect x="60" y="182" width="150" height="26" rx="6" fill="#13121d"/>
  <rect x="70" y="192" width="16" height="6" rx="4" fill="#3a3650"/>
  <rect x="94" y="192" width="90" height="6" rx="4" fill="#5b5675"/>
  <rect x="60" y="218" width="150" height="26" rx="6" fill="#13121d"/>
  <rect x="70" y="228" width="16" height="6" rx="4" fill="#3a3650"/>
  <rect x="94" y="228" width="90" height="6" rx="4" fill="#5b5675"/>
  <rect x="60" y="254" width="150" height="26" rx="6" fill="#13121d"/>
  <rect x="70" y="264" width="16" height="6" rx="4" fill="#3a3650"/>
  <rect x="94" y="264" width="90" height="6" rx="4" fill="#5b5675"/>
  <rect x="60" y="290" width="150" height="26" rx="6" fill="#13121d"/>
  <rect x="70" y="300" width="16" height="6" rx="4" fill="#3a3650"/>
  <rect x="94" y="300" width="90" height="6" rx="4" fill="#5b5675"/>
  <rect x="226" y="110" width="314" height="240" rx="10" fill="#221f31"/>
  <rect x="246" y="130" width="90" height="7" rx="4" fill="#7ba0ff"/>
  <rect x="246" y="150" width="240" height="12" rx="4" fill="#5b5675"/>
  <rect x="246" y="180" width="200" height="6" rx="4" fill="#3a3650"/>
  <rect x="246" y="196" width="180" height="6" rx="4" fill="#3a3650"/>
  <rect x="246" y="270" width="274" height="60" rx="6" fill="#13121d"/>
</svg>
