<svg id="Layer_1" data-name="Layer 1" xmlns="http://www.w3.org/2000/svg" xmlns:xlink="http://www.w3.org/1999/xlink" viewBox="0 0 1724 825"><defs><style>.cls-1{fill:#fff;}.cls-2{fill:url(#linear-gradient);}.cls-3{mask:url(#mask);}.cls-4{opacity:0.65;}.cls-5,.cls-6,.cls-7{fill:none;stroke:#fff;stroke-width:60px;}.cls-5{opacity:0.11;}.cls-10,.cls-11,.cls-5,.cls-6,.cls-7,.cls-8,.cls-9{isolation:isolate;}.cls-6{opacity:0.08;}.cls-7{opacity:0.05;}.cls-8{opacity:0.64;fill:url(#linear-gradient-2);}.cls-9{opacity:0.86;fill:url(#linear-gradient-3);}.cls-10{opacity:0.56;fill:url(#linear-gradient-4);}.cls-11{opacity:0.66;fill:url(#linear-gradient-5);}</style><linearGradient id="linear-gradient" x1="-0.02" y1="551.56" x2="1.1" y2="551.97" gradientTransform="matrix(1600, 0, 0, -397, 0, 219212)" gradientUnits="userSpaceOnUse"><stop offset="0" stop-color="#ff9b81"/><stop offset="1" stop-color="#715cff"/></linearGradient><mask id="mask" x="25" y="6" width="1600" height="819" maskUnits="userSpaceOnUse"><g transform="translate(26.92 21.73)"><g id="mask-3"><path id="path-2" class="cls-1" d="M-1.92.27h1600V263.58q-410.44,133.68-800,133.69t-800-134Z"/></g></g></mask><linearGradient id="linear-gradient-2" x1="0.94" y1="552.73" x2="0.18" y2="551.8" gradientTransform="matrix(-411, 0, 0, 300, 386, -165580.5)" gradientUnits="userSpaceOnUse"><stop offset="0" stop-color="#ffcb87"/><stop offset="1" stop-color="#de8d95" stop-opacity="0"/></linearGradient><linearGradient id="linear-gradient-3" x1="0.22" y1="552.89" x2="1.02" y2="551.79" gradientTransform="matrix(-365, 0, 0, 356, 365, -196463.5)" gradientUnits="userSpaceOnUse"><stop offset="0" stop-color="#fec57a"/><stop offset="1" stop-color="#ef9187" stop-opacity="0"/></linearGradient><linearGradient id="linear-gradient-4" x1="0.95" y1="552.68" x2="0.19" y2="551.78" gradientTransform="translate(1225 -165029) scale(375 299)" gradientUnits="userSpaceOnUse"><stop offset="0" stop-color="#a137ff"/><stop offset="1" stop-color="#734aff" stop-opacity="0"/></linearGradient><linearGradient id="linear-gradient-5" x1="0.14" y1="552.81" x2="0.93" y2="551.72" gradientTransform="translate(1239 -208068) scale(460 377)" gradientUnits="userSpaceOnUse"><stop offset="0" stop-color="#8f51ff"/><stop offset="1" stop-color="#6d6bff" stop-opacity="0"/></linearGradient></defs><title>about-splash</title><g id="about-copy-4"><g id="Group-3"><g id="Mask-2" data-name="Mask"><path id="path-2-2" data-name="path-2" class="cls-2" d="M-1.92.27h1600V263.58q-410.44,133.68-800,133.69t-800-134Z" transform="translate(26.92 21.73)"/></g><g class="cls-3"><g id="Group" class="cls-4"><g id="Oval-2"><circle class="cls-5" cx="825.5" cy="415.5" r="171.5"/><circle class="cls-6" cx="825.5" cy="415.5" r="275.5"/><circle class="cls-7" cx="825.5" cy="415.5" r="379.5"/></g></g></g><path id="Path-9" class="cls-8" d="M384.08.68,119.57,300.27Q46.94,279-2.18,263.19T-2.91,93.13L77.26.27Z" transform="translate(26.92 21.73)"/><path id="Path-4" class="cls-9" d="M111.71,298.32q53.13,15.29,118.9,30.71t132.47,28.24L135.7,1.27H-1.92l.46,125.2Z" transform="translate(26.92 21.73)"/><path id="Path-9-2" data-name="Path-9" class="cls-10" d="M1223.08.27l256.87,299q114-32.47,118-36.83.36-.15-.34-181.31L1530.8,1.32Z" transform="translate(26.92 21.73)"/><path id="Path-4-2" data-name="Path-4" class="cls-11" d="M1489.17,296.6q-38.13,11.83-109.23,28.09t-142.86,30.58l240.1-377h219.9Z" transform="translate(26.92 21.73)"/></g></g></svg>