<?xml version="1.0" encoding="UTF-8"?>
<svg width="42px" height="38px" viewBox="0 0 42 38" version="1.1" xmlns="http://www.w3.org/2000/svg" xmlns:xlink="http://www.w3.org/1999/xlink">
    <title>Machine Learning</title>
    <g id="Home" stroke="none" stroke-width="1" fill="none" fill-rule="evenodd">
        <g id="Home-Desktop" transform="translate(-1339.000000, -4836.000000)">
            <g id="empower-organisation" transform="translate(0.000000, 3738.000000)">
                <g id="icon-block" transform="translate(478.000000, 1077.000000)">
                    <g id="Machine-Learning" transform="translate(823.000000, 0.000000)">
                        <g transform="translate(19.000000, 0.000000)" id="icon">
                            <g transform="translate(20.000000, 21.000000)">
                                <circle id="Oval" stroke="#FFFFFF" cx="20" cy="3" r="2.5"></circle>
                                <circle id="Oval-Copy-7" stroke="#FFFFFF" cx="2" cy="11" r="2.5"></circle>
                                <circle id="Oval-Copy-9" stroke="#FFFFFF" cx="38" cy="11" r="2.5"></circle>
                                <circle id="Oval-Copy-10" stroke="#FFFFFF" cx="20" cy="19" r="2.5"></circle>
                                <circle id="Oval-Copy-11" stroke="#FFFFFF" cx="2" cy="27" r="2.5"></circle>
                                <circle id="Oval-Copy-12" stroke="#FFFFFF" cx="38" cy="27" r="2.5"></circle>
                                <circle id="Oval-Copy-17" stroke="#FFFFFF" cx="20" cy="35" r="2.5"></circle>
                                <line x1="17.649749" y1="3.94764757" x2="4.4623127" y2="10.1160765" id="Path-3" stroke="#FFFFFF"></line>
                                <line x1="35.649749" y1="3.94764757" x2="22.4623127" y2="10.1160765" id="Path-3-Copy" stroke="#FFFFFF" transform="translate(29.056031, 7.031862) scale(-1, 1) translate(-29.056031, -7.031862) "></line>
                                <line x1="17.649749" y1="11.9476476" x2="4.4623127" y2="18.1160765" id="Path-3-Copy-3" stroke="#FFFFFF" transform="translate(11.056031, 15.031862) scale(1, -1) translate(-11.056031, -15.031862) "></line>
                                <line x1="35.649749" y1="11.9476476" x2="22.4623127" y2="18.1160765" id="Path-3-Copy-2" stroke="#FFFFFF" transform="translate(29.056031, 15.031862) scale(-1, -1) translate(-29.056031, -15.031862) "></line>
                                <line x1="17.649749" y1="19.9476476" x2="4.4623127" y2="26.1160765" id="Path-3-Copy-7" stroke="#FFFFFF"></line>
                                <line x1="35.649749" y1="19.9476476" x2="22.4623127" y2="26.1160765" id="Path-3-Copy-6" stroke="#FFFFFF" transform="translate(29.056031, 23.031862) scale(-1, 1) translate(-29.056031, -23.031862) "></line>
                                <line x1="17.649749" y1="27.9476476" x2="4.4623127" y2="34.1160765" id="Path-3-Copy-5" stroke="#FFFFFF" transform="translate(11.056031, 31.031862) scale(1, -1) translate(-11.056031, -31.031862) "></line>
                                <line x1="35.649749" y1="27.9476476" x2="22.4623127" y2="34.1160765" id="Path-3-Copy-4" stroke="#FFFFFF" transform="translate(29.056031, 31.031862) scale(-1, -1) translate(-29.056031, -31.031862) "></line>
                            </g>
                        </g>
                    </g>
                </g>
            </g>
        </g>
    </g>
</svg>