<?xml version="1.0" encoding="UTF-8"?>
<svg width="42px" height="38px" viewBox="0 0 42 38" version="1.1" xmlns="http://www.w3.org/2000/svg" xmlns:xlink="http://www.w3.org/1999/xlink">
    <title>Machine Learning</title>
    <g id="Home" stroke="none" stroke-width=".5" fill="none" fill-rule="evenodd">
        <g id="Home-Desktop" transform="translate(-1339.000000, -4836.000000)" fill="#FFFFFF">
            <g id="empower-organisation" transform="translate(0.000000, 3738.000000)">
                <g id="icon-block" transform="translate(478.000000, 1077.000000)">
                    <g id="Machine-Learning" transform="translate(823.000000, 0.000000)">
                        <g transform="translate(19.000000, 0.000000)" id="icon">
                            <g transform="translate(19.000000, 21.000000)">
                                <path d="M21,0 C22.6568542,0 24,1.34314575 24,3 C24,4.65685425 22.6568542,6 21,6 C19.3431458,6 18,4.65685425 18,3 C18,1.34314575 19.3431458,0 21,0 Z M21,1 C19.8954305,1 19,1.8954305 19,3 C19,4.1045695 19.8954305,5 21,5 C22.1045695,5 23,4.1045695 23,3 C23,1.8954305 22.1045695,1 21,1 Z" id="Combined-Shape"></path>
                                <path d="M3,8 C4.65685425,8 6,9.34314575 6,11 C6,12.6568542 4.65685425,14 3,14 C1.34314575,14 0,12.6568542 0,11 C0,9.34314575 1.34314575,8 3,8 Z M3,9 C1.8954305,9 1,9.8954305 1,11 C1,12.1045695 1.8954305,13 3,13 C4.1045695,13 5,12.1045695 5,11 C5,9.8954305 4.1045695,9 3,9 Z" id="Combined-Shape-Copy-4"></path>
                                <path d="M21,16 C22.6568542,16 24,17.3431458 24,19 C24,20.6568542 22.6568542,22 21,22 C19.3431458,22 18,20.6568542 18,19 C18,17.3431458 19.3431458,16 21,16 Z M21,17 C19.8954305,17 19,17.8954305 19,19 C19,20.1045695 19.8954305,21 21,21 C22.1045695,21 23,20.1045695 23,19 C23,17.8954305 22.1045695,17 21,17 Z" id="Combined-Shape-Copy-2"></path>
                                <path d="M21,32 C22.6568542,32 24,33.3431458 24,35 C24,36.6568542 22.6568542,38 21,38 C19.3431458,38 18,36.6568542 18,35 C18,33.3431458 19.3431458,32 21,32 Z M21,33 C19.8954305,33 19,33.8954305 19,35 C19,36.1045695 19.8954305,37 21,37 C22.1045695,37 23,36.1045695 23,35 C23,33.8954305 22.1045695,33 21,33 Z" id="Combined-Shape-Copy-3"></path>
                                <polygon id="Rectangle-Copy-7" transform="translate(12.094285, 7.000000) rotate(-295.000000) translate(-12.094285, -7.000000) " points="11.5942854 0 12.5942854 0 12.5942854 14 11.5942854 14"></polygon>
                                <polygon id="Rectangle-Copy-8" transform="translate(12.094285, 15.000000) scale(1, -1) rotate(-295.000000) translate(-12.094285, -15.000000) " points="11.5942854 8 12.5942854 8 12.5942854 22 11.5942854 22"></polygon>
                                <path d="M3,24 C4.65685425,24 6,25.3431458 6,27 C6,28.6568542 4.65685425,30 3,30 C1.34314575,30 0,28.6568542 0,27 C0,25.3431458 1.34314575,24 3,24 Z M3,25 C1.8954305,25 1,25.8954305 1,27 C1,28.1045695 1.8954305,29 3,29 C4.1045695,29 5,28.1045695 5,27 C5,25.8954305 4.1045695,25 3,25 Z" id="Combined-Shape-Copy-5"></path>
                                <path d="M39,8 C40.6568542,8 42,9.34314575 42,11 C42,12.6568542 40.6568542,14 39,14 C37.3431458,14 36,12.6568542 36,11 C36,9.34314575 37.3431458,8 39,8 Z M39,9 C37.8954305,9 37,9.8954305 37,11 C37,12.1045695 37.8954305,13 39,13 C40.1045695,13 41,12.1045695 41,11 C41,9.8954305 40.1045695,9 39,9 Z" id="Combined-Shape-Copy-9"></path>
                                <path d="M39,24 C40.6568542,24 42,25.3431458 42,27 C42,28.6568542 40.6568542,30 39,30 C37.3431458,30 36,28.6568542 36,27 C36,25.3431458 37.3431458,24 39,24 Z M39,25 C37.8954305,25 37,25.8954305 37,27 C37,28.1045695 37.8954305,29 39,29 C40.1045695,29 41,28.1045695 41,27 C41,25.8954305 40.1045695,25 39,25 Z" id="Combined-Shape-Copy-6"></path>
                                <polygon id="Rectangle-Copy-10" transform="translate(12.094285, 23.000000) rotate(-295.000000) translate(-12.094285, -23.000000) " points="11.5942854 16 12.5942854 16 12.5942854 30 11.5942854 30"></polygon>
                                <polygon id="Rectangle-Copy-9" transform="translate(12.094285, 31.000000) scale(1, -1) rotate(-295.000000) translate(-12.094285, -31.000000) " points="11.5942854 24 12.5942854 24 12.5942854 38 11.5942854 38"></polygon>
                                <polygon id="Rectangle-Copy-18" transform="translate(30.094285, 7.000000) scale(-1, 1) rotate(-295.000000) translate(-30.094285, -7.000000) " points="29.5942854 0 30.5942854 0 30.5942854 14 29.5942854 14"></polygon>
                                <polygon id="Rectangle-Copy-17" transform="translate(30.094285, 15.000000) scale(-1, -1) rotate(-295.000000) translate(-30.094285, -15.000000) " points="29.5942854 8 30.5942854 8 30.5942854 22 29.5942854 22"></polygon>
                                <polygon id="Rectangle-Copy-16" transform="translate(30.094285, 23.000000) scale(-1, 1) rotate(-295.000000) translate(-30.094285, -23.000000) " points="29.5942854 16 30.5942854 16 30.5942854 30 29.5942854 30"></polygon>
                                <polygon id="Rectangle-Copy-11" transform="translate(30.094285, 31.000000) scale(-1, -1) rotate(-295.000000) translate(-30.094285, -31.000000) " points="29.5942854 24 30.5942854 24 30.5942854 38 29.5942854 38"></polygon>
                            </g>
                        </g>
                    </g>
                </g>
            </g>
        </g>
    </g>
</svg>