<?xml version="1.0" encoding="UTF-8"?>
<svg width="38px" height="37px" viewBox="0 0 38 37" version="1.1" xmlns="http://www.w3.org/2000/svg" xmlns:xlink="http://www.w3.org/1999/xlink">
    <title>NLP</title>
    <g id="Home" stroke="none" stroke-width="1" fill="none" fill-rule="evenodd">
        <g id="Home-Desktop" transform="translate(-1341.000000, -4837.000000)" stroke="#FFFFFF">
            <g id="empower-organisation" transform="translate(0.000000, 3738.000000)">
                <g id="icon-block" transform="translate(478.000000, 1077.000000)">
                    <g id="semantic-search" transform="translate(842.000000, 0.000000)">
                        <g id="icon" transform="translate(21.500000, 22.000000)">
                            <path d="M18,0.5 C22.8324916,0.5 27.2074916,2.45875422 30.3743687,5.62563133 C33.5412458,8.79250844 35.5,13.1675084 35.5,18 C35.5,21.2675602 34.6046097,24.3260201 33.0454925,26.9431842 C32.8620082,27.2511845 32.8519707,27.7256523 33.1059347,28.3565789 C33.3378587,28.9327514 33.7749698,29.6621997 34.2528164,30.4530372 C34.9525609,31.6111165 35.7505376,32.9104392 36.0059132,34.034265 C36.0857004,34.3853827 36.111642,34.7163749 36.0411836,35.0128572 C35.9861398,35.2444759 35.8678133,35.4509403 35.670382,35.624032 C35.2030843,36.0337203 34.5726771,36.0671919 33.8883021,35.9505144 C32.729168,35.7528963 31.4046397,35.1067845 30.1881621,34.5216211 C28.4184072,33.6703142 26.9039383,33.092518 26.1570666,33.4867424 C23.7213873,34.7723772 20.9456556,35.5 18,35.5 C13.1675084,35.5 8.79250844,33.5412458 5.62563133,30.3743687 C2.45875422,27.2074916 0.5,22.8324916 0.5,18 C0.5,13.1675084 2.45875422,8.79250844 5.62563133,5.62563133 C8.79250844,2.45875422 13.1675084,0.5 18,0.5 Z" id="Oval"></path>
                            <line x1="9.5" y1="15.5" x2="25.5" y2="15.5" id="Path-30" stroke-linecap="round"></line>
                            <line x1="13.5" y1="20.5" x2="25.5" y2="20.5" id="Path-30-Copy" stroke-linecap="round"></line>
                        </g>
                    </g>
                </g>
            </g>
        </g>
    </g>
</svg>