<?xml version="1.0" encoding="UTF-8"?>
<svg width="33px" height="36px" viewBox="0 0 33 36" version="1.1" xmlns="http://www.w3.org/2000/svg" xmlns:xlink="http://www.w3.org/1999/xlink">
    <title>Telecommunications</title>
    <g id="Home" stroke="none" stroke-width="1" fill="none" fill-rule="evenodd">
        <g id="Home-Desktop" transform="translate(-1144.000000, -4837.000000)" stroke="#FFFFFF">
            <g id="empower-organisation" transform="translate(0.000000, 3738.000000)">
                <g id="icon-block" transform="translate(478.000000, 1077.000000)">
                    <g id="Telecommunications" transform="translate(612.000000, 0.000000)">
                        <g transform="translate(30.000000, 0.000000)" id="icon">
                            <g transform="translate(25.000000, 23.000000)">
                                <path d="M15.4994277,26.3168026 L21.5070151,31.9013651 C21.8103948,32.1833822 21.9707435,32.5616697 21.984743,32.9452979 C21.9987425,33.328926 21.8663928,33.7178947 21.5843756,34.0212744 C21.3005843,34.3265626 20.9025602,34.5 20.4857408,34.5 L20.4857408,34.5 L10.5332647,34.5 C10.1190511,34.5 9.74405112,34.3321068 9.47260451,34.0606602 C9.2011579,33.7892136 9.03326468,33.4142136 9.03326468,33 C9.03326468,32.5840546 9.2059779,32.1867839 9.51015114,31.9030776 L9.51015114,31.9030776 L15.4994277,26.3168026 Z" id="Triangle"></path>
                                <path d="M23.7934573,28.5969456 C28.1250716,25.8482675 31,21.0098715 31,15.5 C31,6.93958638 24.0604136,8.34887715e-14 15.5,8.34887715e-14 C6.93958638,8.34887715e-14 0,6.93958638 0,15.5 C0,20.9544423 2.92385423,25.8344392 7.18273677,28.5969456" id="Path" stroke-linecap="round"></path>
                                <circle id="Oval" cx="15.5" cy="15.5" r="3"></circle>
                                <path d="M18.6456496,23.4107291 C21.7843166,22.160969 24.0027351,19.0948996 24.0027351,15.5106907 C24.0027351,10.8162703 20.1971555,7.01069069 15.5027351,7.01069069 C10.8083148,7.01069069 7.00273514,10.8162703 7.00273514,15.5106907 C7.00273514,19.1090682 9.23872746,22.1852017 12.3970859,23.4254651" id="Path" stroke-linecap="round"></path>
                                <line x1="15.5162725" y1="18.5290947" x2="15.5" y2="26.4362297" id="Path-2"></line>
                            </g>
                        </g>
                    </g>
                </g>
            </g>
        </g>
    </g>
</svg>