<?xml version="1.0" encoding="UTF-8"?>
<svg width="33px" height="42px" viewBox="0 0 33 42" version="1.1" xmlns="http://www.w3.org/2000/svg" xmlns:xlink="http://www.w3.org/1999/xlink">
    <title>Telecommunications</title>
    <g id="Home" stroke="none" stroke-width=".5" fill="none" fill-rule="evenodd">
        <g id="Home-Desktop" transform="translate(-1144.000000, -4834.000000)" fill="#FFFFFF">
            <g id="empower-organisation" transform="translate(0.000000, 3738.000000)">
                <g id="icon-block" transform="translate(478.000000, 1077.000000)">
                    <g id="Telecommunications" transform="translate(612.000000, 0.000000)">
                        <g transform="translate(30.000000, 0.000000)" id="icon">
                            <g transform="translate(24.000000, 19.000000)">
                                <g id="Group-4" transform="translate(6.720000, 5.615385)">
                                    <g id="Group-3" transform="translate(0.280000, 0.384615)">
                                        <path d="M9.5,0 C14.7467051,0 19,4.25329488 19,9.5 C19,13.3161046 16.7499472,16.6066811 13.5041463,18.117425 C13.2333453,17.7234743 13.0980346,17.4183857 13.0969697,17.2020316 C15.9936493,15.8485752 18,12.9085918 18,9.5 C18,4.80557963 14.1944204,1 9.5,1 C4.80557963,1 1,4.80557963 1,9.5 C1,12.9362381 3.03902881,15.8962355 5.97315136,17.2360572 C5.85721983,17.4289614 5.72459988,17.7170866 5.57654693,18.0982302 C5.57081237,18.1129931 5.56427623,18.1283502 5.5569385,18.1443016 C2.27772565,16.6470077 0,13.3394995 0,9.5 C0,4.25329488 4.25329488,0 9.5,0 Z" id="Combined-Shape"></path>
                                        <circle id="Oval" cx="5.7807443" cy="17.6997218" r="1"></circle>
                                        <circle id="Oval-Copy-9" cx="13.2795945" cy="17.668798" r="1"></circle>
                                    </g>
                                    <path d="M9.78,6.38461538 C11.7129966,6.38461538 13.28,7.95161876 13.28,9.88461538 C13.28,11.817612 11.7129966,13.3846154 9.78,13.3846154 C7.84700338,13.3846154 6.28,11.817612 6.28,9.88461538 C6.28,7.95161876 7.84700338,6.38461538 9.78,6.38461538 Z M9.78,7.38461538 C8.39928813,7.38461538 7.28,8.50390351 7.28,9.88461538 C7.28,11.2653273 8.39928813,12.3846154 9.78,12.3846154 C11.1607119,12.3846154 12.28,11.2653273 12.28,9.88461538 C12.28,8.50390351 11.1607119,7.38461538 9.78,7.38461538 Z" id="Combined-Shape"></path>
                                </g>
                                <path d="M16.5,0 C25.6126984,0 33,7.38730163 33,16.5 C33,22.1062053 30.2040472,27.0593808 25.9304852,30.041183 C25.5778705,29.7071625 25.363027,29.4943177 25.285616,29.4023662 C25.3073824,29.3607075 25.3159056,29.3113453 25.3111857,29.2542795 C29.3522746,26.4569326 32,21.787671 32,16.5 C32,7.93958638 25.0604136,1 16.5,1 C7.93958638,1 1,7.93958638 1,16.5 C1,21.8244872 3.68472408,26.5219235 7.77432119,29.3124578 C7.61532539,29.4888911 7.38079228,29.7328613 7.07156009,30.0426419 C2.79682221,27.0609209 0,22.1070769 0,16.5 C0,7.38730163 7.38730163,0 16.5,0 Z" id="Combined-Shape"></path>
                                <circle id="Oval-Copy-11" cx="7.42353122" cy="29.684137" r="1"></circle>
                                <circle id="Oval-Copy-10" cx="25.5894898" cy="29.6747405" r="1"></circle>
                                <polygon id="Rectangle" points="15.9975128 18.0571442 16.9975128 18.0571442 16.9975128 34.0571442 15.9975128 34.0571442"></polygon>
                                <path d="M21,34 C21.5522847,34 22,34.4477153 22,35 L22,41 C22,41.5522847 21.5522847,42 21,42 L12,42 C11.4477153,42 11,41.5522847 11,41 L11,35 C11,34.4477153 11.4477153,34 12,34 L21,34 Z M21,35 L12,35 L12,41 L21,41 L21,35 Z" id="Combined-Shape"></path>
                            </g>
                        </g>
                    </g>
                </g>
            </g>
        </g>
    </g>
</svg>