<svg viewBox="0 0 100 100">
    <path vector-effect="non-scaling-stroke" d="M92.5,38.6c-1.1-3.8-0.8-8.2-2.7-11.6c-1.9-3.4-5.9-5.3-8.7-8.1c-2.8-2.7-4.7-6.7-8.1-8.7s-7.8-1.7-11.6-2.7C57.7,6.5,54,4,50,4s-7.7,2.5-11.4,3.5c-3.8,1.1-8.2,0.8-11.6,2.7c-3.4,1.9-5.3,5.9-8.1,8.7c-2.7,2.8-6.7,4.7-8.7,8.1s-1.7,7.8-2.7,11.6C6.5,42.3,4,46,4,50s2.5,7.7,3.5,11.4c1.1,3.8,0.8,8.2,2.7,11.6c1.9,3.4,5.9,5.3,8.7,8.1c2.8,2.7,4.7,6.7,8.1,8.7s7.8,1.7,11.6,2.7C42.3,93.5,46,96,50,96s7.7-2.5,11.4-3.5c3.8-1.1,8.2-0.8,11.6-2.7c3.4-1.9,5.3-5.9,8.1-8.7c2.7-2.8,6.7-4.7,8.7-8.1s1.7-7.8,2.7-11.6C93.5,57.7,96,54,96,50S93.5,42.3,92.5,38.6z M90.1,60.7c-1,3.6-0.6,7.8-2.4,11c-1.9,3.2-5.7,5-8.3,7.6c-2.6,2.6-4.4,6.5-7.6,8.3c-3.2,1.8-7.4,1.4-11,2.4c-3.5,0.9-6.9,3.4-10.7,3.4c-3.8,0-7.2-2.5-10.7-3.4c-3.6-1-7.8-0.6-11-2.4c-3.2-1.9-5-5.7-7.6-8.3c-2.6-2.6-6.5-4.4-8.3-7.6s-1.4-7.4-2.4-11C9,57.2,6.5,53.8,6.5,50S9,42.8,9.9,39.3c1-3.6,0.6-7.8,2.4-11c1.9-3.2,5.7-5,8.3-7.6c2.6-2.6,4.4-6.5,7.6-8.3c3.2-1.8,7.4-1.4,11-2.4c3.6-1,7-3.5,10.8-3.5S57.2,9,60.7,9.9c3.6,1,7.8,0.6,11,2.4c3.2,1.9,5,5.7,7.6,8.3c2.6,2.6,6.5,4.4,8.3,7.6c1.8,3.2,1.4,7.4,2.4,11c1,3.6,3.5,7,3.5,10.8S91,57.2,90.1,60.7z"/>
    <path vector-effect="non-scaling-stroke" d="M90,39.2c-1-3.6-0.6-7.8-2.4-11c-1.8-3.2-5.7-5-8.3-7.6c-2.6-2.6-4.4-6.4-7.6-8.3c-3.2-1.8-7.4-1.4-11-2.4C57.2,9,53.8,6.5,50,6.5S42.8,9,39.2,10c-3.6,1-7.8,0.6-11,2.4c-3.2,1.8-5,5.7-7.6,8.3c-2.6,2.6-6.4,4.4-8.3,7.6c-1.8,3.2-1.4,7.4-2.4,11C9,42.8,6.5,46.2,6.5,50s2.5,7.2,3.6,10.7c1,3.6,0.6,7.8,2.4,11s5.7,5,8.3,7.6c2.6,2.6,4.4,6.4,7.6,8.3c3.2,1.8,7.4,1.4,11,2.4c3.5,0.9,6.9,3.4,10.7,3.4c3.8,0,7.2-2.5,10.7-3.4c3.6-1,7.8-0.6,11-2.4c3.2-1.8,5-5.7,7.6-8.3c2.6-2.6,6.4-4.4,8.3-7.6c1.8-3.2,1.4-7.4,2.4-11c0.9-3.5,3.4-6.9,3.4-10.7S91,42.8,90,39.2z M87.7,60.1c-0.9,3.4-0.4,7.4-2.2,10.4s-5.5,4.6-7.9,7.1c-2.5,2.5-4,6.2-7.1,7.9c-3,1.7-7,1.3-10.4,2.2C56.8,88.6,53.6,91,50,91s-6.8-2.4-10.1-3.3c-3.4-0.9-7.4-0.4-10.4-2.2s-4.6-5.5-7.1-7.9c-2.5-2.5-6.2-4-7.9-7.1c-1.7-3-1.3-7-2.2-10.4C11.4,56.8,9,53.6,9,50s2.4-6.8,3.3-10.1c0.9-3.4,0.4-7.4,2.2-10.4s5.5-4.6,7.9-7.1c2.5-2.5,4-6.2,7.1-7.9c3-1.7,7-1.3,10.4-2.2C43.2,11.4,46.4,9,50,9s6.8,2.4,10.1,3.3c3.4,0.9,7.4,0.4,10.4,2.2s4.6,5.5,7.1,7.9c2.5,2.5,6.2,4,7.9,7.1c1.7,3,1.3,7,2.2,10.4C88.6,43.2,91,46.4,91,50S88.6,56.8,87.7,60.1z"/>
    <path vector-effect="non-scaling-stroke" d="M87.7,39.9c-0.9-3.4-0.5-7.4-2.2-10.4c-1.7-3.1-5.4-4.6-7.9-7.1c-2.5-2.4-4.1-6.1-7.1-7.9s-7-1.3-10.4-2.2C56.8,11.4,53.6,9,50,9s-6.8,2.4-10.1,3.3c-3.4,0.9-7.4,0.5-10.4,2.2c-3.1,1.7-4.6,5.4-7.1,7.9c-2.4,2.5-6.1,4.1-7.9,7.1s-1.3,7-2.2,10.4C11.4,43.2,9,46.4,9,50s2.4,6.8,3.3,10.1c0.9,3.4,0.5,7.4,2.2,10.4c1.7,3.1,5.4,4.6,7.9,7.1c2.5,2.4,4.1,6.1,7.1,7.9s7,1.3,10.4,2.2C43.2,88.6,46.4,91,50,91s6.8-2.4,10.1-3.3c3.4-0.9,7.4-0.5,10.4-2.2c3.1-1.7,4.6-5.4,7.1-7.9c2.4-2.5,6.1-4.1,7.9-7.1s1.3-7,2.2-10.4C88.6,56.8,91,53.6,91,50S88.6,43.2,87.7,39.9z M85.3,59.5c-0.9,3.2-0.3,7-1.9,9.8c-1.6,2.8-5.2,4.2-7.5,6.6c-2.3,2.3-3.7,5.9-6.6,7.5c-2.8,1.6-6.6,1.1-9.8,1.9c-3.1,0.8-6.1,3.2-9.5,3.2s-6.4-2.4-9.5-3.2c-3.2-0.9-7-0.3-9.8-1.9c-2.8-1.6-4.2-5.2-6.6-7.5c-2.3-2.3-5.9-3.7-7.5-6.6c-1.6-2.8-1.1-6.6-1.9-9.8c-0.8-3.1-3.2-6.1-3.2-9.5s2.4-6.4,3.2-9.5c0.9-3.2,0.3-7,1.9-9.8c1.6-2.8,5.2-4.2,7.5-6.6c2.3-2.3,3.7-5.9,6.6-7.5c2.8-1.6,6.6-1.1,9.8-1.9c3.1-0.8,6.1-3.2,9.5-3.2s6.4,2.4,9.5,3.2c3.2,0.9,7,0.3,9.8,1.9c2.8,1.6,4.2,5.2,6.6,7.5c2.3,2.3,5.9,3.7,7.5,6.6c1.6,2.8,1.1,6.6,1.9,9.8c0.8,3.1,3.2,6.1,3.2,9.5S86.1,56.4,85.3,59.5z"/>
    <path vector-effect="non-scaling-stroke" d="M85.3,40.5c-0.8-3.2-0.3-7-1.9-9.8c-1.6-2.9-5.2-4.3-7.5-6.6c-2.4-2.3-3.8-5.9-6.6-7.5c-2.8-1.6-6.6-1-9.8-1.9c-3.1-0.8-6.1-3.2-9.5-3.2s-6.4,2.4-9.5,3.2c-3.2,0.8-7,0.3-9.8,1.9c-2.9,1.6-4.3,5.2-6.6,7.5c-2.3,2.4-5.9,3.8-7.5,6.6c-1.6,2.8-1,6.6-1.9,9.8c-0.8,3.1-3.2,6.1-3.2,9.5s2.4,6.4,3.2,9.5c0.8,3.2,0.3,7,1.9,9.8c1.6,2.9,5.2,4.3,7.5,6.6c2.4,2.3,3.8,5.9,6.6,7.5c2.8,1.6,6.6,1,9.8,1.9c3.1,0.8,6.1,3.2,9.5,3.2s6.4-2.4,9.5-3.2c3.2-0.8,7-0.3,9.8-1.9c2.9-1.6,4.3-5.2,6.6-7.5c2.3-2.4,5.9-3.8,7.5-6.6c1.6-2.8,1-6.6,1.9-9.8c0.8-3.1,3.2-6.1,3.2-9.5S86.1,43.6,85.3,40.5z M82.8,58.8c-0.8,3-0.2,6.6-1.7,9.2c-1.5,2.7-5,3.9-7.1,6c-2.2,2.2-3.4,5.6-6,7.1s-6.2,0.9-9.2,1.7C55.9,83.6,53.1,86,50,86s-5.9-2.4-8.8-3.2c-3-0.8-6.6-0.2-9.2-1.7c-2.7-1.5-3.9-5-6-7.1c-2.2-2.2-5.6-3.4-7.1-6s-0.9-6.2-1.7-9.2C16.4,55.9,14,53.1,14,50s2.4-5.9,3.2-8.8c0.8-3,0.2-6.6,1.7-9.2c1.5-2.7,5-3.9,7.1-6c2.2-2.2,3.4-5.6,6-7.1s6.2-0.9,9.2-1.7c2.9-0.8,5.7-3.2,8.8-3.2s5.9,2.4,8.8,3.2c3,0.8,6.6,0.2,9.2,1.7c2.7,1.5,3.9,5,6,7.1c2.2,2.2,5.6,3.4,7.1,6s0.9,6.2,1.7,9.2c0.8,2.9,3.2,5.7,3.2,8.8S83.6,55.9,82.8,58.8z"/>
    <path vector-effect="non-scaling-stroke" d="M82.8,41.2c-0.8-3-0.2-6.6-1.7-9.2s-4.9-3.8-7.1-6c-2.1-2.1-3.3-5.6-6-7.1c-2.6-1.5-6.2-0.9-9.2-1.7C55.9,16.4,53.1,14,50,14s-5.9,2.4-8.8,3.2c-3,0.8-6.6,0.2-9.2,1.7s-3.8,4.9-6,7.1c-2.1,2.1-5.6,3.3-7.1,6c-1.5,2.6-0.9,6.2-1.7,9.2C16.4,44.1,14,46.9,14,50s2.4,5.9,3.2,8.8c0.8,3,0.2,6.6,1.7,9.2s4.9,3.8,7.1,6c2.1,2.1,3.3,5.6,6,7.1c2.6,1.5,6.2,0.9,9.2,1.7c2.9,0.8,5.7,3.2,8.8,3.2s5.9-2.4,8.8-3.2c3-0.8,6.6-0.2,9.2-1.7s3.8-4.9,6-7.1c2.1-2.1,5.6-3.3,7.1-6c1.5-2.6,0.9-6.2,1.7-9.2c0.8-2.9,3.2-5.7,3.2-8.8S83.6,44.1,82.8,41.2z M80.4,58.2c-0.7,2.8,0,6.2-1.4,8.6c-1.4,2.5-4.7,3.5-6.7,5.5s-3.1,5.3-5.5,6.7c-2.4,1.4-5.8,0.7-8.6,1.4c-2.7,0.7-5.2,3.1-8.2,3.1c-2.9,0-5.5-2.3-8.2-3.1c-2.8-0.7-6.2,0-8.6-1.4c-2.5-1.4-3.5-4.7-5.5-6.7s-5.3-3.1-6.7-5.5c-1.4-2.4-0.7-5.8-1.4-8.6c-0.7-2.7-3.1-5.2-3.1-8.2c0-2.9,2.3-5.5,3.1-8.2c0.7-2.8,0-6.2,1.4-8.6c1.4-2.5,4.7-3.5,6.7-5.5s3.1-5.3,5.5-6.7c2.4-1.4,5.8-0.7,8.6-1.4c2.7-0.7,5.2-3.1,8.2-3.1c2.9,0,5.5,2.3,8.2,3.1c2.8,0.7,6.2,0,8.6,1.4c2.5,1.4,3.5,4.7,5.5,6.7s5.3,3.1,6.7,5.5c1.4,2.4,0.7,5.8,1.4,8.6c0.8,2.7,3.1,5.3,3.1,8.2S81.2,55.5,80.4,58.2z"/>
    <path vector-effect="non-scaling-stroke" d="M80.4,41.8c-0.7-2.8,0-6.2-1.4-8.6c-1.4-2.4-4.7-3.5-6.7-5.5s-3-5.3-5.5-6.7c-2.4-1.4-5.8-0.7-8.6-1.4c-2.7-0.8-5.3-3.1-8.2-3.1c-3,0-5.5,2.4-8.2,3.1c-2.8,0.7-6.2,0-8.6,1.4c-2.4,1.4-3.5,4.7-5.5,6.7s-5.3,3-6.7,5.5c-1.4,2.4-0.7,5.8-1.4,8.6c-0.8,2.7-3.1,5.3-3.1,8.2c0,3,2.4,5.5,3.1,8.2c0.7,2.8,0,6.2,1.4,8.6c1.4,2.4,4.7,3.5,6.7,5.5s3,5.3,5.5,6.7c2.4,1.4,5.8,0.7,8.6,1.4c2.7,0.8,5.3,3.1,8.2,3.1c3,0,5.5-2.4,8.2-3.1c2.8-0.7,6.2,0,8.6-1.4c2.4-1.4,3.5-4.7,5.5-6.7s5.3-3,6.7-5.5c1.4-2.4,0.7-5.8,1.4-8.6c0.8-2.7,3.1-5.3,3.1-8.2S81.2,44.5,80.4,41.8z M78,57.5c-0.7,2.6,0.1,5.8-1.2,8c-1.3,2.3-4.5,3.2-6.3,5s-2.7,5-5,6.3c-2.2,1.3-5.4,0.5-8,1.2c-2.5,0.7-4.8,3-7.5,3s-5-2.3-7.5-3c-2.6-0.7-5.8,0.1-8-1.2c-2.3-1.3-3.2-4.5-5-6.3s-5-2.7-6.3-5c-1.3-2.2-0.5-5.4-1.2-8c-0.7-2.5-3-4.8-3-7.5s2.3-5,3-7.5c0.7-2.6-0.1-5.8,1.2-8c1.3-2.3,4.5-3.2,6.3-5s2.7-5,5-6.3c2.2-1.3,5.4-0.5,8-1.2c2.5-0.7,4.8-3,7.5-3s5,2.3,7.5,3c2.6,0.7,5.8-0.1,8,1.2c2.3,1.3,3.2,4.5,5,6.3s5,2.7,6.3,5c1.3,2.2,0.5,5.4,1.2,8c0.7,2.5,3,4.8,3,7.5S78.7,55,78,57.5z"/>
    <path vector-effect="non-scaling-stroke" d="M78,42.5c-0.7-2.6,0.1-5.8-1.2-8c-1.3-2.3-4.5-3.2-6.3-5s-2.7-5-5-6.3c-2.2-1.3-5.4-0.5-8-1.2c-2.5-0.7-4.8-3-7.5-3s-5,2.3-7.5,3c-2.6,0.7-5.8-0.1-8,1.2c-2.3,1.3-3.2,4.5-5,6.3s-5,2.7-6.3,5c-1.3,2.2-0.5,5.4-1.2,8c-0.7,2.5-3,4.8-3,7.5s2.3,5,3,7.5c0.7,2.6-0.1,5.8,1.2,8c1.3,2.3,4.5,3.2,6.3,5s2.7,5,5,6.3c2.2,1.3,5.4,0.5,8,1.2c2.5,0.7,4.8,3,7.5,3s5-2.3,7.5-3c2.6-0.7,5.8,0.1,8-1.2c2.3-1.3,3.2-4.5,5-6.3s5-2.7,6.3-5c1.3-2.2,0.5-5.4,1.2-8c0.7-2.5,3-4.8,3-7.5S78.7,45,78,42.5z M75.6,56.9c-0.6,2.3,0.3,5.3-0.9,7.4c-1.2,2.1-4.3,2.8-5.9,4.5c-1.7,1.7-2.4,4.7-4.5,5.9c-2.1,1.2-5,0.3-7.4,0.9c-2.3,0.6-4.4,2.9-6.9,2.9s-4.6-2.3-6.9-2.9c-2.3-0.6-5.3,0.3-7.4-0.9c-2.1-1.2-2.8-4.3-4.5-5.9c-1.7-1.7-4.7-2.4-5.9-4.5c-1.2-2.1-0.3-5-0.9-7.4c-0.6-2.3-2.9-4.4-2.9-6.9s2.3-4.6,2.9-6.9c0.6-2.3-0.3-5.3,0.9-7.4c1.2-2.1,4.3-2.8,5.9-4.5c1.7-1.7,2.4-4.7,4.5-5.9c2.1-1.2,5-0.3,7.4-0.9c2.3-0.6,4.4-2.9,6.9-2.9s4.6,2.3,6.9,2.9c2.3,0.6,5.3-0.3,7.4,0.9c2.1,1.2,2.8,4.3,4.5,5.9c1.7,1.7,4.7,2.4,5.9,4.5c1.2,2.1,0.3,5,0.9,7.4c0.6,2.3,2.9,4.4,2.9,6.9S76.2,54.6,75.6,56.9z"/>
</svg>