<svg viewBox="0 0 200 200">
     <polygon vector-effect="non-scaling-stroke" points="100,40 142.4,57.5 160,100 142.4,142.4 100,160 57.6,142.4 40,100 57.6,57.5"/>
     <line vector-effect="non-scaling-stroke" x1="190" y1="190" x2="142.4" y2="142.4"/>
     <line vector-effect="non-scaling-stroke" x1="100" y1="100" x2="53.1" y2="131.6"/>
     <line vector-effect="non-scaling-stroke" x1="119.7" y1="151.8" x2="100" y2="100"/>
     <line vector-effect="non-scaling-stroke" x1="117.4" y1="47.2" x2="100" y2="100"/>
     <line vector-effect="non-scaling-stroke" x1="53.1" y1="131.6" x2="10" y2="160.7"/>
     <line vector-effect="non-scaling-stroke" x1="119.7" y1="151.8" x2="134.2" y2="190" />
     <line vector-effect="non-scaling-stroke" x1="117.4" y1="47.2" x2="129.7" y2="10"/>
     <polygon vector-effect="non-scaling-stroke" points="100,95 103.5,96.5 105,100 103.5,103.5 100,105 96.5,103.5 95,100 96.5,96.5"/>
 </svg>