<svg width="136" height="38" viewBox="0 0 136 38" fill="none" xmlns="http://www.w3.org/2000/svg">
<path d="M51.2682 29.5987V14.7892H56.9646V11.95H42.3429V14.7892H48.0393V29.5987H51.2682Z" fill="white"/>
<path d="M65.1215 34.7319L71.1329 16.6483L71.3002 16.1879H68.1666L64.7015 27.0074H64.3077L60.8426 16.1879H57.7228L57.8762 16.6483L62.2076 29.6163H63.8089L61.9758 34.7319H65.1215Z" fill="white"/>
<path fill-rule="evenodd" clip-rule="evenodd" d="M76.6829 29.6273V34.7429H73.6116V16.1989H81.1718C83.9194 16.1989 85.2932 17.546 85.2932 20.2402V25.586C85.2932 28.2802 83.9194 29.6273 81.1718 29.6273H76.6829ZM76.6829 27.0183H81.0143C81.8193 27.0183 82.2219 26.6261 82.2219 25.8418V19.9844C82.2219 19.2 81.8193 18.8079 81.0143 18.8079H76.6829V27.0183Z" fill="white"/>
<path fill-rule="evenodd" clip-rule="evenodd" d="M99.9103 27.016L99.1097 29.6249H92.9013C90.1362 29.6249 88.7537 28.2778 88.7537 25.5836V20.2378C88.7537 17.5436 90.1362 16.1965 92.9013 16.1965H96.3139C99.0615 16.1965 100.435 17.5436 100.435 20.2378V24.0234H91.825V25.8394C91.825 26.6238 92.2275 27.016 93.0326 27.016H99.9103ZM91.825 21.6958H97.364V19.9821C97.364 19.1977 96.9614 18.8055 96.1564 18.8055H93.0326C92.2275 18.8055 91.825 19.1977 91.825 19.9821V21.6958Z" fill="white"/>
<path fill-rule="evenodd" clip-rule="evenodd" d="M118.514 22.66C118.514 27.2811 116.151 29.5916 111.426 29.5916H104.469V11.9429H111.426C116.151 11.9429 118.514 14.2534 118.514 18.8745V22.66ZM107.672 26.7524H111.61C114.077 26.7524 115.311 25.5503 115.311 23.146V18.3885C115.311 15.9842 114.077 14.782 111.61 14.782H107.672V26.7524Z" fill="white"/>
<path fill-rule="evenodd" clip-rule="evenodd" d="M131.435 29.6011C134.288 29.6011 135.714 28.2114 135.714 25.4319V23.2322C135.714 22.3285 135.426 21.6464 134.848 21.186L133.746 20.2908L134.664 19.2165C135.014 18.8073 135.189 18.3128 135.189 17.733V16.1216C135.189 13.3421 133.763 11.9524 130.91 11.9524H122.458V29.6011H131.435ZM130.832 19.0375H125.66V14.7915H130.832C131.602 14.7915 131.987 15.1581 131.987 15.8914V17.912C131.987 18.6623 131.602 19.0375 130.832 19.0375ZM125.66 26.762H131.357C132.127 26.762 132.512 26.3954 132.512 25.6621V22.9764C132.512 22.2432 132.127 21.8766 131.357 21.8766H125.66V26.762Z" fill="white"/>
<path fill-rule="evenodd" clip-rule="evenodd" d="M76.864 6.43782L76.5258 7.56068H73.9032C72.7352 7.56068 72.1511 6.9809 72.1511 5.82135V3.52058C72.1511 2.36103 72.7352 1.78125 73.9032 1.78125H75.3448C76.5055 1.78125 77.0858 2.36103 77.0858 3.52058V5.14983H73.4486V5.93143C73.4486 6.26903 73.6186 6.43782 73.9587 6.43782H76.864ZM73.4486 4.14807H75.7884V3.4105C75.7884 3.07291 75.6183 2.90411 75.2783 2.90411H73.9587C73.6186 2.90411 73.4486 3.07291 73.4486 3.4105V4.14807Z" fill="white"/>
<path d="M46.8765 7.59772L49.2242 0.00189209H47.7858L45.8896 6.37578H45.6789L43.7827 0.00189209H42.3429L44.6809 7.59772H46.8765Z" fill="white"/>
<path fill-rule="evenodd" clip-rule="evenodd" d="M54.1906 3.55586V7.59596H51.1854C50.0174 7.59596 49.4333 7.02352 49.4333 5.87864C49.4333 4.73377 50.0174 4.16133 51.1854 4.16133H52.8932V3.44578C52.8932 3.10819 52.7231 2.93939 52.3831 2.93939H50.0322L50.3658 1.81653H52.4496C53.6103 1.81653 54.1906 2.39631 54.1906 3.55586ZM51.2409 6.4731H52.8932V5.1631H51.2409C50.9008 5.1631 50.7308 5.32822 50.7308 5.65848V5.96671C50.7308 6.3043 50.9008 6.4731 51.2409 6.4731Z" fill="white"/>
<path d="M58.7665 7.59583L59.1192 6.47296H57.5335C57.1934 6.47296 57.0234 6.30417 57.0234 5.96658V2.93925H59.0083V1.81639H57.0234V0H55.726V5.85649C55.726 7.01605 56.31 7.59583 57.478 7.59583H58.7665Z" fill="white"/>
<path d="M70.6522 7.59583L71.0049 6.47296H70.767C70.4269 6.47296 70.2569 6.30417 70.2569 5.96658V2.93925V1.81639V0H68.9595V5.85649C68.9595 7.01605 69.5435 7.59583 70.7116 7.59583H70.6522Z" fill="white"/>
<path fill-rule="evenodd" clip-rule="evenodd" d="M61.7213 0.00164795V1.31165H60.3573V0.00164795H61.7213ZM61.6886 1.81034V7.59998H60.3911V1.81034H61.6886Z" fill="white"/>
<path d="M67.3445 7.59961L67.6937 6.47586H65.0635C64.7231 6.47586 64.553 6.30693 64.553 5.96907V3.44615C64.553 3.10829 64.7231 2.93936 65.0635 2.93936H67.6937L67.3551 1.81561H65.008C63.839 1.81561 63.2545 2.39585 63.2545 3.55632V5.8589C63.2545 7.01937 63.839 7.59961 65.008 7.59961H67.3445Z" fill="white"/>
<path fill-rule="evenodd" clip-rule="evenodd" d="M34.7429 20.8487C34.7429 11.3762 26.9654 3.69733 17.3714 3.69733C7.77745 3.69733 0 11.3762 0 20.8487C0 30.3211 7.77745 38 17.3714 38C26.9654 38 34.7429 30.3211 34.7429 20.8487ZM10.3766 12.5358L24.1463 12.5358C28.8486 12.5358 32.6607 16.2996 32.6607 20.9424C32.6607 25.5817 28.8515 29.3426 24.1527 29.3426H24.1463L10.4858 29.3325C5.78159 29.329 1.96322 25.5755 1.93903 20.931C1.91502 16.3182 5.6829 12.5596 10.3548 12.5359L10.3766 12.5358Z" fill="#02DAC9"/>
<ellipse cx="11.9756" cy="20.9917" rx="3.74869" ry="3.57742" fill="#02DAC9"/>
<ellipse cx="23.3778" cy="20.9917" rx="3.74869" ry="3.57742" fill="#02DAC9"/>
<path d="M3.99959 0C5.84459 0 7.34025 1.47671 7.34025 3.29834C7.34025 4.64801 6.51919 5.80834 5.34333 6.31899L5.34328 13.783H2.67075L2.67073 6.3254C1.48692 5.8181 0.658936 4.65369 0.658936 3.29834C0.658936 1.47671 2.1546 0 3.99959 0Z" fill="#02DAC9"/>
</svg>
