<?xml version="1.0" encoding="UTF-8"?>
<svg width="89px" height="121px" viewBox="0 0 89 121" version="1.1" xmlns="http://www.w3.org/2000/svg" xmlns:xlink="http://www.w3.org/1999/xlink">
    <title>Grabl Logo</title>
    <defs>
        <linearGradient x1="50%" y1="21.7629426%" x2="94.5838222%" y2="21.7629426%" id="linearGradient-1">
            <stop stop-color="#FFEB43" offset="0%"></stop>
            <stop stop-color="#B3A0F4" offset="100%"></stop>
        </linearGradient>
        <linearGradient x1="50%" y1="30.5031187%" x2="50%" y2="124.06714%" id="linearGradient-2">
            <stop stop-color="#211437" offset="0%"></stop>
            <stop stop-color="#281D42" offset="100%"></stop>
        </linearGradient>
        <linearGradient x1="124.661319%" y1="52.5437032%" x2="19.3594914%" y2="52.5437032%" id="linearGradient-3">
            <stop stop-color="#2A1A46" offset="0%"></stop>
            <stop stop-color="#332954" offset="100%"></stop>
        </linearGradient>
        <linearGradient x1="124.661319%" y1="52.5437032%" x2="19.3594914%" y2="52.5437032%" id="linearGradient-4">
            <stop stop-color="#2A1A46" offset="0%"></stop>
            <stop stop-color="#332954" offset="100%"></stop>
        </linearGradient>
        <linearGradient x1="50%" y1="0%" x2="50%" y2="100%" id="linearGradient-5">
            <stop stop-color="#02DAC9" offset="0%"></stop>
            <stop stop-color="#1AEBA8" offset="100%"></stop>
        </linearGradient>
        <linearGradient x1="50%" y1="0%" x2="50%" y2="44.9497732%" id="linearGradient-6">
            <stop stop-color="#C6B7FF" offset="0%"></stop>
            <stop stop-color="#DFCC2F" offset="100%"></stop>
        </linearGradient>
        <linearGradient x1="50%" y1="13.8015724%" x2="50%" y2="70.0901263%" id="linearGradient-7">
            <stop stop-color="#FFF098" offset="0%"></stop>
            <stop stop-color="#EBDD75" offset="100%"></stop>
        </linearGradient>
        <linearGradient x1="46.8459763%" y1="-7.84395938%" x2="50%" y2="96.2509452%" id="linearGradient-8">
            <stop stop-color="#C6B7FF" offset="0%"></stop>
            <stop stop-color="#FFEE63" offset="100%"></stop>
        </linearGradient>
        <linearGradient x1="54.4411715%" y1="5.69179081%" x2="50%" y2="100%" id="linearGradient-9">
            <stop stop-color="#BBA2BC" offset="0%"></stop>
            <stop stop-color="#D3BB0F" offset="100%"></stop>
        </linearGradient>
        <linearGradient x1="50%" y1="0%" x2="50%" y2="100%" id="linearGradient-10">
            <stop stop-color="#BBA2BA" offset="0%"></stop>
            <stop stop-color="#D2BA14" offset="100%"></stop>
        </linearGradient>
        <linearGradient x1="50%" y1="-22.7979315%" x2="50%" y2="50%" id="linearGradient-11">
            <stop stop-color="#DCD4FF" offset="0%"></stop>
            <stop stop-color="#BFA90A" offset="100%"></stop>
        </linearGradient>
        <path d="M9.36680456,22.7586626 C20.7665253,17.4394129 32.353375,14.779788 44.1273538,14.779788 C55.893365,14.779788 67.5294538,17.4358145 79.0356202,22.7478675 C79.689562,23.0497698 80.2010455,23.5933689 80.4626178,24.2644611 L80.9075561,25.4059985 C81.095322,25.8877324 80.8570138,26.4304692 80.3752799,26.6182351 C80.1401143,26.7098959 79.8779005,26.7027169 79.6481098,26.5983097 C67.829788,21.2295799 55.989536,18.545215 44.1273538,18.545215 C32.2734671,18.545215 20.4684333,21.2268202 8.71225225,26.5900308 C8.2514548,26.8002195 7.70750259,26.597089 7.49729014,26.1363024 C7.39213611,25.9058043 7.38702411,25.6420736 7.48316684,25.4076737 L7.96824633,24.22503 C8.23368744,23.5779169 8.73297188,23.0544167 9.36680456,22.7586626 Z" id="path-12"></path>
        <filter x="-1.6%" y="-15.6%" width="103.2%" height="124.2%" filterUnits="objectBoundingBox" id="filter-13">
            <feGaussianBlur stdDeviation="1" in="SourceAlpha" result="shadowBlurInner1"></feGaussianBlur>
            <feOffset dx="0" dy="2" in="shadowBlurInner1" result="shadowOffsetInner1"></feOffset>
            <feComposite in="shadowOffsetInner1" in2="SourceAlpha" operator="arithmetic" k2="-1" k3="1" result="shadowInnerInner1"></feComposite>
            <feColorMatrix values="0 0 0 0 1   0 0 0 0 0.937346332   0 0 0 0 0.611547256  0 0 0 1 0" type="matrix" in="shadowInnerInner1"></feColorMatrix>
        </filter>
        <path d="M9.36680456,70.6490148 C20.7665253,65.329765 32.353375,62.6701402 44.1273538,62.6701402 C55.893365,62.6701402 67.5294538,65.3261667 79.0356202,70.6382196 C79.689562,70.9401219 80.2010455,71.483721 80.4626178,72.1548132 L80.9075561,73.2963507 C81.095322,73.7780845 80.8570138,74.3208214 80.3752799,74.5085873 C80.1401143,74.600248 79.8779005,74.593069 79.6481098,74.4886619 C67.829788,69.119932 55.989536,66.4355671 44.1273538,66.4355671 C32.2734671,66.4355671 20.4684333,69.1171724 8.71225225,74.4803829 C8.2514548,74.6905716 7.70750259,74.4874411 7.49729014,74.0266545 C7.39213611,73.7961564 7.38702411,73.5324257 7.48316684,73.2980258 L7.96824633,72.1153822 C8.23368744,71.4682691 8.73297188,70.9447689 9.36680456,70.6490148 Z" id="path-14"></path>
        <filter x="-1.6%" y="-15.6%" width="103.2%" height="124.2%" filterUnits="objectBoundingBox" id="filter-15">
            <feGaussianBlur stdDeviation="1" in="SourceAlpha" result="shadowBlurInner1"></feGaussianBlur>
            <feOffset dx="0" dy="2" in="shadowBlurInner1" result="shadowOffsetInner1"></feOffset>
            <feComposite in="shadowOffsetInner1" in2="SourceAlpha" operator="arithmetic" k2="-1" k3="1" result="shadowInnerInner1"></feComposite>
            <feColorMatrix values="0 0 0 0 0.855157382   0 0 0 0 0.760139895   0 0 0 0 0  0 0 0 1 0" type="matrix" in="shadowInnerInner1"></feColorMatrix>
        </filter>
    </defs>
    <g id="Page-1" stroke="none" stroke-width="1" fill="none" fill-rule="evenodd">
        <g id="Grabl-2.0---logget-in" transform="translate(-915.000000, -380.000000)">
            <g id="Grabl-Logo" transform="translate(915.000000, 380.000000)">
                <g id="logo">
                    <path d="M75.8025397,38.1971299 L86.4603456,38.2019934 C87.4933083,38.2024648 88.3882698,38.9181446 88.615875,39.9257199 L91.3466966,52.0146724 L91.3466966,52.0146724 L70.925941,52.0053537 L73.6445803,39.9226847 C73.8716511,38.9134955 74.7681201,38.1966579 75.8025397,38.1971299 Z" id="Rectangle" fill="url(#linearGradient-1)" transform="translate(81.136319, 45.105497) rotate(89.000000) translate(-81.136319, -45.105497) "></path>
                    <path d="M1.78042939,38.1971299 L12.4382353,38.2019934 C13.471198,38.2024648 14.3661595,38.9181446 14.5937647,39.9257199 L17.3245863,52.0146724 L17.3245863,52.0146724 L-3.09616933,52.0053537 L-0.377530016,39.9226847 C-0.150459209,38.9134955 0.74600986,38.1966579 1.78042939,38.1971299 Z" id="Rectangle-Copy-2" fill="url(#linearGradient-1)" transform="translate(7.114209, 45.105497) scale(-1, 1) rotate(89.000000) translate(-7.114209, -45.105497) "></path>
                    <ellipse id="Oval" fill="url(#linearGradient-2)" cx="43.9713129" cy="45.0056682" rx="39.7737768" ry="40.8418366"></ellipse>
                    <g id="Group" transform="translate(4.168735, 10.168796)">
                        <path d="M70.1226138,24.9734042 C85.2787788,25.0133013 97.180476,32.6426324 103.71989,44.0771052 C94.6987456,38.9521945 83.0773864,35.8669523 70.3946301,35.8669523 C57.5963439,35.8669523 45.8788798,39.0086587 36.8241716,44.2180753 C43.6936556,32.6763311 55.9475615,24.9592984 70.1226138,24.9734042 Z" id="Combined-Shape-Copy-2" fill="url(#linearGradient-3)" transform="translate(70.272207, 34.595730) rotate(90.000000) translate(-70.272207, -34.595730) "></path>
                        <path d="M9.48133577,24.6653243 C23.9699302,24.5898151 36.1129043,32.5804234 42.8768354,44.3124618 C33.8841663,39.2553455 22.341576,36.2159243 9.75335209,36.2159243 C-2.97284572,36.2159243 -14.6303629,39.3223381 -23.663847,44.4792157 C-16.6191346,32.7069004 -4.17291791,24.6836101 9.48133577,24.6653243 Z" id="Combined-Shape-Copy-3" fill="url(#linearGradient-4)" transform="translate(9.607434, 34.571432) scale(-1, 1) rotate(90.000000) translate(-9.607434, -34.571432) "></path>
                    </g>
                    <path d="M31.4674971,21.4513814 C33.6681249,21.4513814 35.4520862,23.2504475 35.4520862,25.469708 C35.4520862,27.0608985 34.5349935,28.4360769 33.2047771,29.0870071 L33.2041635,36.3433814 L58.5460443,36.3442237 C62.3809517,36.3442237 65.4897584,39.4530304 65.4897584,43.2879379 L65.4897584,52.6439367 C65.4897584,56.4788441 62.3809517,59.5876508 58.5460443,59.5876508 L39.1301685,59.5876508 L39.1301685,84.8390644 L24.0091635,78.6067939 L24.0091635,43.2879379 C24.0091635,39.7990058 26.5823365,36.9110704 29.9344308,36.4183835 L29.9348251,29.18001 C28.4949586,28.5744088 27.4829079,27.1412476 27.4829079,25.469708 C27.4829079,23.2504475 29.2668692,21.4513814 31.4674971,21.4513814 Z M39.1301685,43.0885244 C36.4217035,43.0885244 34.2260588,45.3027595 34.2260588,48.034157 C34.2260588,50.7655546 36.4217035,52.9797897 39.1301685,52.9797897 C41.8386336,52.9797897 44.0342783,50.7655546 44.0342783,48.034157 C44.0342783,45.3027595 41.8386336,43.0885244 39.1301685,43.0885244 Z M54.0468357,43.0885244 C51.3383707,43.0885244 49.1427259,45.3027595 49.1427259,48.034157 C49.1427259,50.7655546 51.3383707,52.9797897 54.0468357,52.9797897 C56.7553007,52.9797897 58.9509454,50.7655546 58.9509454,48.034157 C58.9509454,45.3027595 56.7553007,43.0885244 54.0468357,43.0885244 Z" id="Combined-Shape" fill="url(#linearGradient-5)"></path>
                    <path d="M44.2034488,4.12682393 C58.3922096,4.12682393 70.8456846,11.7559769 77.8857256,23.237364 C68.7888329,18.0599197 57.1563956,14.9045308 44.4796555,14.9045308 C31.5505897,14.9045308 19.7078131,18.030088 10.5331402,23.2181845 C17.574959,11.7475585 30.0225183,4.12682393 44.2034488,4.12682393 Z" id="Combined-Shape" fill="url(#linearGradient-6)"></path>
                    <path d="M10.5317538,72.6395136 C30.6480804,61.2528439 58.17588,60.6768111 77.5809928,72.1810652 L79.4218522,75.5779577 C57.9661682,65.1213543 32.3827865,64.2608031 8.81364234,75.5779577 L10.5317538,72.6395136 Z" id="Rectangle-Copy" fill="url(#linearGradient-7)" transform="translate(44.117747, 69.699885) scale(1, -1) translate(-44.117747, -69.699885) "></path>
                    <g id="Group-4" transform="translate(35.032000, 0.000000)">
                        <path d="M1.39499727,1.85164951 C4.05666014,-0.54327462 13.7384992,-0.621109953 16.9762773,1.85164951 C14.1419583,7.05960184 14.3887586,11.1237735 14.4609572,14.9487885 C10.9429155,14.7476872 7.41379452,14.8271892 3.87609908,15.0118999 C3.99428235,11.335185 4.4869786,7.16880453 1.39499727,1.85164951 Z" id="Rectangle-Copy-4" fill="url(#linearGradient-8)"></path>
                        <path d="M2.65248096,1.85164951 C3.08022693,2.23323493 4.01911259,5.0266652 4.00107823,5.27362214 C1.71984567,7.78797217 0.7649317,10.7065017 0.171379153,15.1226493 C-0.575171538,5.5945096 2.24264985,2.59294559 2.65248096,1.85164951 Z" id="Path-333-Copy-2" fill="url(#linearGradient-9)" transform="translate(2.023739, 8.487149) scale(-1, 1) translate(-2.023739, -8.487149) "></path>
                        <path d="M16.990081,1.85164951 C17.4178269,2.23323493 18.3567126,5.0266652 18.3386782,5.27362214 C16.0574457,7.78797217 15.1025317,10.7065017 14.5089792,15.1226493 C13.7624285,5.5945096 16.5802498,2.59294559 16.990081,1.85164951 Z" id="Path-333-Copy" fill="url(#linearGradient-10)"></path>
                    </g>
                    <path d="M44.2023736,66.730533 C58.1896255,66.730533 70.4905306,74.1445261 77.581437,85.3542385 C68.529225,80.4466127 57.0145193,77.5082399 44.4785803,77.5082399 C31.5495145,77.5082399 19.7067379,80.6337971 10.532065,85.8218936 C17.5738838,74.3512676 30.0214431,66.730533 44.2023736,66.730533 Z" id="Combined-Shape-Copy" fill="url(#linearGradient-11)" transform="translate(44.056254, 76.276213) scale(1, -1) translate(-44.056254, -76.276213) "></path>
                    <g id="Rectangle">
                        <use fill="#D0BA09" fill-rule="evenodd" xlink:href="#path-12"></use>
                        <use fill="black" fill-opacity="1" filter="url(#filter-13)" xlink:href="#path-12"></use>
                    </g>
                    <g id="Rectangle-Copy-3" transform="translate(44.172800, 69.074335) scale(1, -1) translate(-44.172800, -69.074335) ">
                        <use fill="#FEEE99" fill-rule="evenodd" xlink:href="#path-14"></use>
                        <use fill="black" fill-opacity="1" filter="url(#filter-15)" xlink:href="#path-14"></use>
                    </g>
                </g>
                <path d="M12.9418605,102.889299 C17.0698605,102.889299 18.2458605,104.676376 18.2458605,106.711658 L18.2458605,106.711658 L18.2458605,107.803761 C18.2458605,108.126427 18.1258605,108.27535 17.8138605,108.27535 L17.8138605,108.27535 L16.4218605,108.27535 C16.0858605,108.27535 15.9658605,108.126427 15.9658605,107.803761 L15.9658605,107.803761 L15.9658605,107.108786 C15.9658605,105.768479 15.1258605,104.949402 12.9658605,104.949402 C10.8058605,104.949402 9.98986047,105.768479 9.98986047,107.108786 L9.98986047,107.108786 L9.98986047,115.944889 C9.98986047,117.285197 10.8058605,118.104274 12.9658605,118.104274 C15.1018605,118.104274 15.9658605,117.310017 15.9658605,115.969709 L15.9658605,115.969709 L15.9658605,113.58694 L13.1098605,113.58694 C12.7978605,113.58694 12.6538605,113.462838 12.6538605,113.11535 L12.6538605,113.11535 L12.6538605,111.973607 C12.6538605,111.65094 12.7978605,111.526838 13.1098605,111.526838 L13.1098605,111.526838 L17.7898605,111.526838 C18.1018605,111.526838 18.2458605,111.65094 18.2458605,111.973607 L18.2458605,111.973607 L18.2458605,116.342017 C18.2458605,118.377299 17.0698605,120.164376 12.9418605,120.164376 C8.81386047,120.164376 7.63786047,118.377299 7.63786047,116.342017 L7.63786047,116.342017 L7.63786047,106.711658 C7.63786047,104.676376 8.81386047,102.889299 12.9418605,102.889299 Z M29.1090789,103.087863 C33.1387932,103.087863 34.4926299,104.790854 34.5548139,106.765288 L34.5570789,106.910222 L34.5570789,109.491556 C34.5570789,110.947374 33.8692091,112.265505 31.9814075,112.894314 L31.7490789,112.966427 L34.6290789,119.469402 C34.7381698,119.740171 34.5695748,119.928889 34.2855778,119.960963 L34.1970789,119.965812 L32.7570789,119.965812 C32.4584122,119.965812 32.3873011,119.808922 32.2740501,119.56487 L32.2290789,119.469402 L29.5170789,113.289094 L26.1330789,113.289094 L26.1330789,119.469402 C26.1330789,119.78214 26.0553189,119.934042 25.7948229,119.961295 L25.7010789,119.965812 L24.2370789,119.965812 C23.9597456,119.965812 23.8341159,119.848144 23.8096221,119.577945 L23.8050789,119.469402 L23.8050789,103.584274 C23.8050789,103.275396 23.8998937,103.123409 24.1400912,103.093447 L24.2370789,103.087863 L29.1090789,103.087863 Z M46.8347491,103.087863 C47.1120824,103.087863 47.275638,103.205531 47.3759837,103.458298 L47.4107491,103.559453 L52.0667491,119.494222 C52.1531491,119.762284 52.0645891,119.929822 51.8010691,119.960649 L51.7067491,119.965812 L50.1947491,119.965812 C49.9174158,119.965812 49.7728232,119.828533 49.6935474,119.58884 L49.6667491,119.494222 L48.5387491,115.647043 L48.5374807,115.646863 L48.0347491,113.711043 L46.6907491,109.193709 C46.4027491,108.27535 46.0667491,105.84294 46.0427491,105.569915 C45.996836,105.783587 45.7093805,107.882117 45.411423,108.99823 L45.3707491,109.144068 L43.4764807,115.646863 L43.4747491,115.647043 L42.3707491,119.494222 C42.3067491,119.758974 42.1858602,119.92567 41.9406586,119.959445 L41.8427491,119.965812 L40.4507491,119.965812 C40.1699491,119.965812 40.0446691,119.82508 40.0924051,119.579803 L40.1147491,119.494222 L44.7707491,103.559453 C44.8560824,103.272638 44.9983046,103.123102 45.2479837,103.093413 L45.3467491,103.087863 L46.8347491,103.087863 Z M62.2392184,103.087863 C66.2689327,103.087863 67.6227695,104.601633 67.6849535,106.543967 L67.6872184,106.686838 L67.6872184,108.25053 C67.6872184,109.541197 67.1112184,110.534017 65.6712184,111.104889 C67.4159141,111.603457 68.3042317,112.601627 68.3781786,113.947345 L68.3832184,114.132991 L68.3832184,116.242735 C68.3832184,118.229558 67.1253273,119.885244 63.2253202,119.96296 L62.9352184,119.965812 L57.9912184,119.965812 C57.7138851,119.965812 57.5882555,119.848144 57.5637616,119.577945 L57.5592184,119.469402 L57.5592184,103.584274 C57.5592184,103.275396 57.6540332,103.123409 57.8942308,103.093447 L57.9912184,103.087863 L62.2392184,103.087863 Z M62.9352184,112.246632 L59.8872184,112.246632 L59.8872184,117.95535 L62.9352184,117.95535 C65.0152184,117.95535 65.9824612,117.241854 66.0512556,115.970007 L66.0552184,115.820786 L66.0552184,114.306735 C66.0552184,113.065709 65.0952184,112.246632 62.9352184,112.246632 Z M29.1090789,105.147966 L26.1330789,105.147966 L26.1330789,111.228991 L29.1090789,111.228991 C31.1890789,111.228991 32.1563217,110.492479 32.2251161,109.218927 L32.2290789,109.069607 L32.2290789,107.30735 C32.2290789,105.967043 31.2690789,105.147966 29.1090789,105.147966 Z M62.2392184,105.098325 L59.8872184,105.098325 L59.8872184,110.360274 L62.4072184,110.360274 C64.3226031,110.360274 65.2838457,109.625939 65.354954,108.355858 L65.3592184,108.200889 L65.3592184,107.059145 C65.3592184,105.694017 64.3992184,105.098325 62.2392184,105.098325 Z M82.2127614,119.965812 C82.5247614,119.965812 82.6687614,119.841709 82.6687614,119.494222 L82.6687614,118.352479 C82.6687614,118.004991 82.5247614,117.905709 82.2127614,117.905709 L76.0687614,117.905709 L76.0687614,103.584274 C76.0687614,103.236786 75.9487614,103.087863 75.6367614,103.087863 L74.1727614,103.087863 C73.8367614,103.087863 73.7167614,103.236786 73.7167614,103.584274 L73.7167614,119.469402 C73.7167614,119.792068 73.8367614,119.965812 74.1007614,119.965812 L82.2127614,119.965812 Z" id="GRABL" fill="#F5F2FF" fill-rule="nonzero"></path>
            </g>
        </g>
    </g>
</svg>