<?xml version="1.0" encoding="utf-8"?>
<svg version="1.1" xmlns="http://www.w3.org/2000/svg" xmlns:xlink="http://www.w3.org/1999/xlink" xml:space="preserve" viewBox="0 0 1200 860">
    <style type="text/css">
        .white-pattern-lines line {fill: transparent; stroke: #ffffff; stroke-width: 1px;}
        .white-pattern-dots circle {stroke-width: 0px; fill: #ffffff; stroke: transparent;}
    </style>
    <g class="white-pattern-lines">
        <line vector-effect="non-scaling-stroke" x1="374.1" y1="252" x2="714.1" y2="582"/>
        <line vector-effect="non-scaling-stroke" x1="714.1" y1="582" x2="1034.1" y2="502"/>
        <line vector-effect="non-scaling-stroke" x1="814.1" y1="262" x2="1034.1" y2="502"/>
        <line vector-effect="non-scaling-stroke" x1="814.1" y1="262" x2="714.1" y2="582"/>
        <line vector-effect="non-scaling-stroke" x1="864.1" y1="392" x2="814.1" y2="262"/>
        <line vector-effect="non-scaling-stroke" x1="864.1" y1="392" x2="1034.1" y2="502"/>
        <line vector-effect="non-scaling-stroke" x1="864.1" y1="392" x2="714.1" y2="582"/>
        <line vector-effect="non-scaling-stroke" x1="1219.1" y1="551.5" x2="1034.1" y2="502"/>
        <line vector-effect="non-scaling-stroke" x1="984.1" y1="712" x2="1034.1" y2="502"/>
        <line vector-effect="non-scaling-stroke" x1="984.1" y1="712" x2="1219.1" y2="551.5"/>
        <line vector-effect="non-scaling-stroke" x1="984.1" y1="712" x2="829.1" y2="874"/>
        <line vector-effect="non-scaling-stroke" x1="814.1" y1="262" x2="1214.1" y2="181.5"/>
        <line vector-effect="non-scaling-stroke" x1="714.1" y1="582" x2="464.1" y2="462"/>
        <line vector-effect="non-scaling-stroke" x1="374.1" y1="252" x2="464.1" y2="462"/>
        <line vector-effect="non-scaling-stroke" x1="374.1" y1="252" x2="-10.9" y2="552"/>
        <line vector-effect="non-scaling-stroke" x1="-10.9" y1="552" x2="464.1" y2="462"/>
        <line vector-effect="non-scaling-stroke" x1="714.1" y1="582" x2="829.1" y2="874"/>
        <line vector-effect="non-scaling-stroke" x1="374.1" y1="252" x2="-15.9" y2="182"/>
        <line vector-effect="non-scaling-stroke" x1="464.1" y1="462" x2="394.1" y2="712"/>
        <line vector-effect="non-scaling-stroke" x1="394.1" y1="712" x2="-10.9" y2="552"/>
        <line vector-effect="non-scaling-stroke" x1="1154.1" y1="872" x2="984.1" y2="712"/>
        <line vector-effect="non-scaling-stroke" x1="394.1" y1="712" x2="204.1" y2="882"/>
        <line vector-effect="non-scaling-stroke" x1="814.1" y1="262" x2="934.1" y2="122"/>
        <line vector-effect="non-scaling-stroke" x1="934.1" y1="122" x2="1214.1" y2="181.5"/>
        <line vector-effect="non-scaling-stroke" x1="934.1" y1="122" x2="829.1" y2="-18"/>
        <line vector-effect="non-scaling-stroke" x1="374.1" y1="252" x2="474.1" y2="-10"/>
        <line vector-effect="non-scaling-stroke" x1="934.1" y1="122" x2="1154.1" y2="-20"/>
        <line vector-effect="non-scaling-stroke" x1="714.1" y1="582" x2="474.1" y2="882"/>
        <line vector-effect="non-scaling-stroke" x1="474.1" y1="882" x2="394.1" y2="712"/>
        <line vector-effect="non-scaling-stroke" x1="204.1" y1="-10" x2="-15.9" y2="182"/>
        <line vector-effect="non-scaling-stroke" x1="374.1" y1="252" x2="204.1" y2="-10"/>
        <line vector-effect="non-scaling-stroke" x1="204.1" y1="-10" x2="-75.9" y2="-19.5"/>
        <line vector-effect="non-scaling-stroke" x1="394.1" y1="712" x2="-75.9" y2="872.5"/>
        <line vector-effect="non-scaling-stroke" x1="814.1" y1="262" x2="1275.5" y2="330.1"/>
        <line vector-effect="non-scaling-stroke" x1="1034.1" y1="502" x2="1275.5" y2="330.1"/>
        <line vector-effect="non-scaling-stroke" x1="-15.9" y1="182" x2="45.5" y2="330.6"/>
        <line vector-effect="non-scaling-stroke" x1="45.5" y1="330.6" x2="-10.9" y2="552"/>
        <line vector-effect="non-scaling-stroke" x1="45.5" y1="330.6" x2="374.1" y2="252"/>
        <line vector-effect="non-scaling-stroke" x1="374.1" y1="252" x2="632.5" y2="234.3"/>
        <line vector-effect="non-scaling-stroke" x1="632.5" y1="234.3" x2="814.1" y2="262"/>
        <line vector-effect="non-scaling-stroke" x1="632.5" y1="234.3" x2="714.1" y2="582"/>
        <line vector-effect="non-scaling-stroke" x1="632.5" y1="234.3" x2="474.1" y2="-10"/>
        <line vector-effect="non-scaling-stroke" x1="632.5" y1="234.3" x2="829.1" y2="-18"/>
        <line vector-effect="non-scaling-stroke" x1="714.1" y1="582" x2="646.8" y2="767.2"/>
        <line vector-effect="non-scaling-stroke" x1="646.8" y1="767.2" x2="474.1" y2="882"/>
        <line vector-effect="non-scaling-stroke" x1="646.8" y1="767.2" x2="829.1" y2="874"/>
    </g>
    <g class="white-pattern-dots">
        <circle cx="374.1" cy="252" r="2"/>
        <circle cx="714.1" cy="582" r="2"/>
        <circle cx="1034.1" cy="502" r="2"/>
        <circle cx="814.1" cy="262" r="2"/>
        <circle cx="1275.5" cy="330.1" r="2"/>
        <circle cx="1219.1" cy="551.5" r="2"/>
        <circle cx="984.1" cy="712" r="2"/>
        <circle cx="1214.1" cy="181.5" r="2"/>
        <circle cx="464.1" cy="462" r="2"/>
        <circle cx="-10.9" cy="552" r="2"/>
        <circle cx="829.1" cy="874" r="2"/>
        <circle cx="-15.9" cy="182" r="2"/>
        <circle cx="394.1" cy="712" r="2"/>
        <circle cx="646.8" cy="767.2" r="2"/>
        <circle cx="-75.9" cy="872.5" r="2"/>
        <circle cx="1154.1" cy="872" r="2"/>
        <circle cx="204.1" cy="882" r="2"/>
        <circle cx="934.1" cy="122" r="2"/>
        <circle cx="829.1" cy="-18" r="2"/>
        <circle cx="632.5" cy="234.3" r="2"/>
        <circle cx="474.1" cy="-10" r="2"/>
        <circle cx="-75.9" cy="-19.5" r="2"/>
        <circle cx="1154.1" cy="-20" r="2"/>
        <circle cx="474.1" cy="882" r="2"/>
        <circle cx="204.1" cy="-10" r="2"/>
    </g>
</svg>