<svg width="24" height="24" viewBox="0 0 24 24" fill="none" xmlns="http://www.w3.org/2000/svg">
<path fill-rule="evenodd" clip-rule="evenodd" d="M18.092 17.4194C18.5293 17.4194 18.9476 17.3394 19.3325 17.1935C19.7757 17.0256 20.1747 16.7704 20.5077 16.4493C20.5811 16.3785 20.6513 16.3045 20.7181 16.2275C20.9678 15.9395 21.1693 15.6099 21.3103 15.2508C21.4588 14.8727 21.5402 14.4618 21.5402 14.0323C21.5402 13.6027 21.4588 13.1918 21.3103 12.8137C21.1952 12.5205 21.0397 12.2469 20.8506 11.9997C20.2215 11.1772 19.22 10.6452 18.092 10.6452C16.1875 10.6452 14.6437 12.1616 14.6437 14.0323C14.6437 15.1402 15.1853 16.124 16.0227 16.7419C16.2744 16.9277 16.5529 17.0804 16.8514 17.1935C17.2364 17.3394 17.6546 17.4194 18.092 17.4194ZM18.092 17.871C19.1486 17.871 20.1073 17.4591 20.8107 16.7898C20.9166 16.6891 21.0167 16.5824 21.1105 16.4705C21.6663 15.8075 22 14.9582 22 14.0323C22 13.2234 21.7453 12.4729 21.3103 11.854C21.174 11.6601 21.02 11.479 20.8506 11.3132C20.1437 10.6213 19.1687 10.1935 18.092 10.1935C15.9336 10.1935 14.1839 11.9122 14.1839 14.0323C14.1839 15.0899 14.6194 16.0476 15.3238 16.7419C15.4926 16.9084 15.6769 17.0596 15.8744 17.1935C16.5044 17.6208 17.2684 17.871 18.092 17.871Z" fill="white"/>
<path fill-rule="evenodd" clip-rule="evenodd" d="M11.4604 18.6669V16.9946H11.9201V18.6669H11.4604Z" fill="white"/>
<path fill-rule="evenodd" clip-rule="evenodd" d="M17.8621 15.1613V11.5484H18.3218V15.1613H17.8621Z" fill="white"/>
<path fill-rule="evenodd" clip-rule="evenodd" d="M17.8603 16.5144L17.8638 16.0628L18.3236 16.0663L18.3201 16.5179L17.8603 16.5144Z" fill="white"/>
<path fill-rule="evenodd" clip-rule="evenodd" d="M14.4138 19H8.89655V18.5484H14.4138V19Z" fill="white"/>
<path fill-rule="evenodd" clip-rule="evenodd" d="M11.0806 8.83871H5.22902V8.3871H11.0806V8.83871Z" fill="white"/>
<path fill-rule="evenodd" clip-rule="evenodd" d="M8.15483 10.6452H5.22902V10.1935H8.15483V10.6452Z" fill="white"/>
<path fill-rule="evenodd" clip-rule="evenodd" d="M2.45977 6.36738C2.45977 5.91176 2.97025 5.45161 3.72936 5.45161H19.581C20.3401 5.45161 20.8506 5.91176 20.8506 6.36738V11.3132C20.1437 10.6213 19.1687 10.1935 18.092 10.1935C15.9336 10.1935 14.1839 11.9122 14.1839 14.0323C14.1839 15.0899 14.6194 16.0476 15.3238 16.7419H3.72936C2.97025 16.7419 2.45977 16.2818 2.45977 15.8262V6.36738ZM15.8744 17.1935H3.72936C2.83219 17.1935 2 16.6315 2 15.8262V6.36738C2 5.56205 2.83219 5 3.72936 5H19.581C20.4782 5 21.3103 5.56205 21.3103 6.36738V11.854C21.7453 12.4729 22 13.2234 22 14.0323C22 14.9582 21.6663 15.8075 21.1105 16.4705C21.0303 16.5896 20.9286 16.6968 20.8107 16.7898C20.1073 17.4591 19.1486 17.871 18.092 17.871C17.2684 17.871 16.5044 17.6208 15.8744 17.1935ZM20.5077 16.4493C20.5811 16.3785 20.6513 16.3045 20.7181 16.2275C20.9678 15.9395 21.1693 15.6099 21.3103 15.2508C21.4588 14.8727 21.5402 14.4618 21.5402 14.0323C21.5402 13.6027 21.4588 13.1918 21.3103 12.8137C21.1952 12.5205 21.0397 12.2469 20.8506 11.9997C20.2215 11.1772 19.22 10.6452 18.092 10.6452C16.1875 10.6452 14.6437 12.1616 14.6437 14.0323C14.6437 15.1402 15.1853 16.124 16.0227 16.7419C16.2744 16.9277 16.5529 17.0804 16.8514 17.1935C17.2364 17.3394 17.6546 17.4194 18.092 17.4194C18.5293 17.4194 18.9476 17.3394 19.3325 17.1935C19.7757 17.0256 20.1747 16.7704 20.5077 16.4493ZM17.8621 15.1613V11.5484H18.3218V15.1613H17.8621ZM17.8603 16.5144L17.8638 16.0628L18.3236 16.0663L18.3201 16.5179L17.8603 16.5144Z" fill="white"/>
</svg>
