<svg width="40" height="40" viewBox="0 0 40 40" fill="none" xmlns="http://www.w3.org/2000/svg">
<path fill-rule="evenodd" clip-rule="evenodd" d="M22.1155 2.00009H4.54967C3.14157 2.00009 2 3.14166 2 4.54976V35.4503C2 36.8584 3.14157 38 4.54967 38H35.4503C36.8584 38 38 36.8584 38 35.4503V4.54976C38 3.14166 36.8584 2.00009 35.4503 2.00009H22.1318C22.1263 1.99997 22.1209 1.99997 22.1155 2.00009ZM2.70588 11.4929H18.4623C18.6048 11.4929 18.7333 11.4072 18.7881 11.2757L22.3588 2.70597H35.4503C36.4686 2.70597 37.2941 3.5315 37.2941 4.54976V35.4503C37.2941 36.4686 36.4686 37.2941 35.4503 37.2941H9.81814L9.8762 37.232L17.2563 29.8519C19.8057 30.6248 22.6859 30.0143 24.7036 27.9965C27.0035 25.6967 27.4816 22.2747 26.1577 19.4997C26.1084 19.3962 26.0119 19.3232 25.899 19.3038C25.786 19.2844 25.6707 19.321 25.5896 19.4021L21.3656 23.6261L18.5095 20.77L22.7335 16.546C22.8146 16.4649 22.8512 16.3496 22.8318 16.2367C22.8124 16.1237 22.7394 16.0272 22.6359 15.9779C19.8609 14.654 16.4388 15.1321 14.1389 17.432C12.1212 19.4497 11.5108 22.3299 12.2836 24.8792L4.90221 32.2606L2.70588 34.3563V11.4929ZM2.70588 35.3319V35.4503C2.70588 36.4686 3.53141 37.2941 4.54967 37.2941H8.85188L9.37276 36.7369L16.9092 29.2007C17.0039 29.106 17.1441 29.0731 17.2711 29.1157C19.6287 29.9068 22.3292 29.3727 24.2045 27.4974C26.1588 25.5432 26.6614 22.6916 25.7214 20.2686L21.6152 24.3748C21.4774 24.5126 21.2539 24.5126 21.1161 24.3748L17.7608 21.0195C17.623 20.8817 17.623 20.6582 17.7608 20.5204L21.867 16.4142C19.444 15.4742 16.5924 15.9768 14.6381 17.9311C12.7628 19.8063 12.2287 22.5069 13.0198 24.8644C13.0625 24.9914 13.0295 25.1316 12.9348 25.2263L5.39261 32.7685L2.70588 35.3319ZM2.70588 10.787V4.54976C2.70588 3.5315 3.53141 2.70597 4.54967 2.70597H21.5941L18.227 10.787H2.70588ZM6.7464 6.00106C6.33473 6.00106 6.00098 6.33482 6.00098 6.74648C6.00098 7.15815 6.33473 7.4919 6.7464 7.4919C7.15807 7.4919 7.49182 7.15815 7.49182 6.74648C7.49182 6.33482 7.15807 6.00106 6.7464 6.00106ZM5.29509 6.74648C5.29509 5.94497 5.94489 5.29518 6.7464 5.29518C7.54791 5.29518 8.19771 5.94497 8.19771 6.74648C8.19771 7.54799 7.54791 8.19778 6.7464 8.19778C5.94489 8.19778 5.29509 7.54799 5.29509 6.74648ZM11.1399 6.00106C10.7282 6.00106 10.3944 6.33482 10.3944 6.74648C10.3944 7.15815 10.7282 7.4919 11.1399 7.4919C11.5515 7.4919 11.8853 7.15815 11.8853 6.74648C11.8853 6.33482 11.5515 6.00106 11.1399 6.00106ZM9.68855 6.74648C9.68855 5.94497 10.3383 5.29518 11.1399 5.29518C11.9414 5.29518 12.5912 5.94497 12.5912 6.74648C12.5912 7.54799 11.9414 8.19778 11.1399 8.19778C10.3383 8.19778 9.68855 7.54799 9.68855 6.74648ZM15.5333 6.00106C15.1217 6.00106 14.7879 6.33482 14.7879 6.74648C14.7879 7.15815 15.1217 7.4919 15.5333 7.4919C15.945 7.4919 16.2787 7.15815 16.2787 6.74648C16.2787 6.33482 15.945 6.00106 15.5333 6.00106ZM14.082 6.74648C14.082 5.94497 14.7318 5.29518 15.5333 5.29518C16.3348 5.29518 16.9846 5.94497 16.9846 6.74648C16.9846 7.54799 16.3348 8.19778 15.5333 8.19778C14.7318 8.19778 14.082 7.54799 14.082 6.74648Z" fill="white"/>
</svg>
