<svg width="24" height="24" viewBox="0 0 24 24" fill="none" xmlns="http://www.w3.org/2000/svg">
<path d="M11.5271 4.83969C11.5271 5.16699 11.2947 5.43231 11.0081 5.43231C10.7215 5.43231 10.4892 5.16699 10.4892 4.83969C10.4892 4.51239 10.7215 4.24707 11.0081 4.24707C11.2947 4.24707 11.5271 4.51239 11.5271 4.83969Z" fill="white"/>
<path fill-rule="evenodd" clip-rule="evenodd" d="M14.4166 16.9696H9.48221H9.04827H4.57001C4.53014 16.9696 4.49273 16.9817 4.46042 17.0029C4.39368 17.0466 4.34868 17.129 4.34868 17.2235V21.3461C4.34868 21.4863 4.44778 21.6 4.57001 21.6H14.4166C14.5389 21.6 14.638 21.4863 14.638 21.3461V17.3976V17.2235C14.638 17.129 14.593 17.0466 14.5262 17.0029C14.5235 17.001 14.5206 16.9993 14.5178 16.9976C14.4875 16.9797 14.4531 16.9696 14.4166 16.9696ZM4.57001 16.5696C4.2552 16.5696 4 16.8624 4 17.2235V21.3461C4 21.7072 4.2552 22 4.57001 22H14.4166C14.7314 22 14.9867 21.7072 14.9867 21.3461V17.3976V17.2235C14.9867 16.8623 14.7314 16.5696 14.4166 16.5696H9.36203H9.01335H4.57001Z" fill="white"/>
<path d="M14.638 7.38359V7.43041H14.9867V7.38359H14.638Z" fill="white"/>
<path fill-rule="evenodd" clip-rule="evenodd" d="M9.58336 2.4H19.43C19.5522 2.4 19.6513 2.51367 19.6513 2.6539V6.77651C19.6513 6.8702 19.6071 6.95204 19.5413 6.99604C19.5086 7.01789 19.4706 7.03041 19.43 7.03041H14.9522C14.9471 7.01451 14.9415 6.99889 14.9355 6.98359C14.8456 6.75782 14.6471 6.60092 14.4166 6.60092H9.36203V2.6539C9.36203 2.51368 9.46112 2.4 9.58336 2.4ZM9.01335 6.60092V2.6539C9.01335 2.29276 9.26855 2 9.58336 2H19.43C19.7448 2 20 2.29276 20 2.6539V6.77651C20 6.94137 19.9468 7.09199 19.8591 7.207C19.9468 7.32202 20 7.47263 20 7.63749V11.7601C20 11.925 19.9468 12.0756 19.8591 12.1906C19.9468 12.3056 20 12.4562 20 12.6211V16.7437C20 17.1048 19.7448 17.3976 19.43 17.3976H14.9867H14.638V17.2235C14.638 17.129 14.593 17.0466 14.5262 17.0029C14.5235 17.001 14.5206 16.9993 14.5178 16.9976C14.4875 16.9797 14.4531 16.9696 14.4166 16.9696H9.48221H9.04827H4.57001C4.53014 16.9696 4.49273 16.9817 4.46042 17.0029C4.19804 16.9442 4 16.6792 4 16.361V12.2384C4 12.0736 4.05318 11.9229 4.14094 11.8079C4.05318 11.6929 4 11.5423 4 11.3774V7.25482C4 6.89368 4.2552 6.60092 4.57001 6.60092H9.01335ZM19.43 12.414H14.9867V16.361C14.9867 16.6705 14.7993 16.9297 14.5476 16.9976H19.43C19.5522 16.9976 19.6513 16.8839 19.6513 16.7437V12.6211C19.6513 12.5274 19.6071 12.4456 19.5412 12.4016C19.5053 12.4097 19.4681 12.414 19.43 12.414ZM14.638 16.361V12.414V12.3672V12.2384C14.638 12.1447 14.5937 12.0629 14.5279 12.0189C14.5254 12.0172 14.5228 12.0156 14.5203 12.014H9.58336C9.54592 12.014 9.51065 12.0033 9.47973 11.9845H9.45244C9.41208 11.9954 9.37338 12.0112 9.33684 12.0313H9.06454H4.57001C4.53194 12.0313 4.49473 12.0271 4.45875 12.0189C4.39292 12.0629 4.34868 12.1447 4.34868 12.2384V16.361C4.34868 16.5013 4.44778 16.6149 4.57001 16.6149H9.01335V16.5696H9.36203V16.6149H14.4166C14.5389 16.6149 14.638 16.5013 14.638 16.361ZM19.6513 11.7601C19.6513 11.8538 19.6071 11.9356 19.5413 11.9796C19.5086 12.0015 19.4706 12.014 19.43 12.014H14.9522C14.9471 11.9981 14.9415 11.9825 14.9355 11.9672C14.9123 11.909 14.882 11.8554 14.8457 11.8079C14.9335 11.6929 14.9867 11.5423 14.9867 11.3774V7.43041H14.638V11.3774C14.638 11.4711 14.5937 11.553 14.5279 11.597C14.4919 11.5888 14.4547 11.5845 14.4166 11.5845H9.36203H9.01335H4.57001C4.53194 11.5845 4.49473 11.5888 4.45875 11.597C4.39292 11.553 4.34868 11.4711 4.34868 11.3774V7.25482C4.34868 7.1146 4.44778 7.00092 4.57001 7.00092H9.0478H9.45244H9.47973H14.4166C14.4541 7.00092 14.4894 7.01159 14.5203 7.03041C14.5903 7.07305 14.638 7.15755 14.638 7.25482V7.38359H14.9867H19.43C19.4705 7.38359 19.5086 7.39611 19.5412 7.41796C19.6071 7.46196 19.6513 7.5438 19.6513 7.63749V11.7601Z" fill="white"/>
<path d="M9.33684 12.0313H14.4166C14.4547 12.0313 14.4919 12.0271 14.5279 12.0189C14.5254 12.0172 14.5228 12.0156 14.5203 12.014H9.58336C9.54592 12.014 9.51065 12.0033 9.47973 11.9845H9.45244C9.41208 11.9954 9.37338 12.0112 9.33684 12.0313Z" fill="white"/>
<path d="M6.51849 9.44332C6.51849 9.77212 6.28508 10.0387 5.99716 10.0387C5.70923 10.0387 5.47582 9.77212 5.47582 9.44332C5.47582 9.11453 5.70923 8.84799 5.99716 8.84799C6.28508 8.84799 6.51849 9.11453 6.51849 9.44332Z" fill="white"/>
<path d="M6.51849 14.4269C6.51849 14.7557 6.28508 15.0222 5.99716 15.0222C5.70923 15.0222 5.47582 14.7557 5.47582 14.4269C5.47582 14.0981 5.70923 13.8316 5.99716 13.8316C6.28508 13.8316 6.51849 14.0981 6.51849 14.4269Z" fill="white"/>
<path d="M6.37955 19.4654C6.37955 19.7942 6.14615 20.0607 5.85822 20.0607C5.57029 20.0607 5.33689 19.7942 5.33689 19.4654C5.33689 19.1366 5.57029 18.87 5.85822 18.87C6.14615 18.87 6.37955 19.1366 6.37955 19.4654Z" fill="white"/>
</svg>
