<svg width="24" height="24" viewBox="0 0 24 24" fill="none" xmlns="http://www.w3.org/2000/svg">
<path fill-rule="evenodd" clip-rule="evenodd" d="M3.65893 7.31981C3.65893 5.48632 5.23944 4 7.18912 4H8.84804C8.96532 4 9.06038 4.0894 9.06038 4.19969C9.06038 4.30997 8.96532 4.39938 8.84804 4.39938H7.18912C5.47398 4.39938 4.08361 5.70689 4.08361 7.31981V10.4399C4.08361 11.1177 3.67612 11.706 3.07895 12C3.67612 12.294 4.08361 12.8823 4.08361 13.5601V16.6802C4.08361 18.2931 5.47398 19.6006 7.18912 19.6006H8.84804C8.96532 19.6006 9.06038 19.69 9.06038 19.8003C9.06038 19.9106 8.96532 20 8.84804 20H7.18912C5.23944 20 3.65893 18.5137 3.65893 16.6802V13.5601C3.65893 12.8088 3.01125 12.1997 2.21234 12.1997C2.09507 12.1997 2 12.1103 2 12C2 11.8897 2.09507 11.8003 2.21234 11.8003C3.01125 11.8003 3.65893 11.1912 3.65893 10.4399V7.31981Z" fill="white"/>
<path fill-rule="evenodd" clip-rule="evenodd" d="M15.1055 4.19969C15.1055 4.0894 15.2006 4 15.3179 4H16.8109C18.7606 4 20.3411 5.48632 20.3411 7.31981V10.4399C20.3411 11.1912 20.9887 11.8003 21.7877 11.8003C21.9049 11.8003 22 11.8897 22 12C22 12.1103 21.9049 12.1997 21.7877 12.1997C20.9887 12.1997 20.3411 12.8088 20.3411 13.5601V16.6802C20.3411 18.5137 18.7606 20 16.8109 20H15.3179C15.2006 20 15.1055 19.9106 15.1055 19.8003C15.1055 19.69 15.2006 19.6006 15.3179 19.6006H16.8109C18.526 19.6006 19.9164 18.2931 19.9164 16.6802V13.5601C19.9164 12.8823 20.3239 12.294 20.921 12C20.3239 11.706 19.9164 11.1177 19.9164 10.4399V7.31981C19.9164 5.70689 18.526 4.39938 16.8109 4.39938H15.3179C15.2006 4.39938 15.1055 4.30997 15.1055 4.19969Z" fill="white"/>
<path fill-rule="evenodd" clip-rule="evenodd" d="M6.97678 7.31981C6.97678 7.20953 7.07184 7.12013 7.18912 7.12013H8.84804C8.96532 7.12013 9.06039 7.20953 9.06039 7.31981C9.06039 7.4301 8.96532 7.5195 8.84804 7.5195H7.18912C7.07184 7.5195 6.97678 7.4301 6.97678 7.31981Z" fill="white"/>
<path fill-rule="evenodd" clip-rule="evenodd" d="M11.9536 7.31981C11.9536 7.20953 12.0486 7.12013 12.1659 7.12013H16.8109C16.9282 7.12013 17.0232 7.20953 17.0232 7.31981C17.0232 7.4301 16.9282 7.5195 16.8109 7.5195H12.1659C12.0486 7.5195 11.9536 7.4301 11.9536 7.31981Z" fill="white"/>
<path fill-rule="evenodd" clip-rule="evenodd" d="M14.9396 16.6802C14.9396 16.5699 15.0347 16.4805 15.152 16.4805H16.8109C16.9282 16.4805 17.0232 16.5699 17.0232 16.6802C17.0232 16.7905 16.9282 16.8799 16.8109 16.8799H15.152C15.0347 16.8799 14.9396 16.7905 14.9396 16.6802Z" fill="white"/>
<path fill-rule="evenodd" clip-rule="evenodd" d="M6.97678 16.6802C6.97678 16.5699 7.07184 16.4805 7.18912 16.4805H11.8341C11.9514 16.4805 12.0464 16.5699 12.0464 16.6802C12.0464 16.7905 11.9514 16.8799 11.8341 16.8799H7.18912C7.07184 16.8799 6.97678 16.7905 6.97678 16.6802Z" fill="white"/>
<path fill-rule="evenodd" clip-rule="evenodd" d="M14.9396 10.4399C14.9396 10.3297 15.0347 10.2402 15.152 10.2402H16.8109C16.9282 10.2402 17.0232 10.3297 17.0232 10.4399C17.0232 10.5502 16.9282 10.6396 16.8109 10.6396H15.152C15.0347 10.6396 14.9396 10.5502 14.9396 10.4399Z" fill="white"/>
<path fill-rule="evenodd" clip-rule="evenodd" d="M6.97678 10.4399C6.97678 10.3297 7.07184 10.2402 7.18912 10.2402H11.8341C11.9514 10.2402 12.0464 10.3297 12.0464 10.4399C12.0464 10.5502 11.9514 10.6396 11.8341 10.6396H7.18912C7.07184 10.6396 6.97678 10.5502 6.97678 10.4399Z" fill="white"/>
<path fill-rule="evenodd" clip-rule="evenodd" d="M6.97678 13.5601C6.97678 13.4498 7.07184 13.3604 7.18912 13.3604H8.84804C8.96532 13.3604 9.06039 13.4498 9.06039 13.5601C9.06039 13.6703 8.96532 13.7598 8.84804 13.7598H7.18912C7.07184 13.7598 6.97678 13.6703 6.97678 13.5601Z" fill="white"/>
<path fill-rule="evenodd" clip-rule="evenodd" d="M11.9536 13.5601C11.9536 13.4498 12.0486 13.3604 12.1659 13.3604H16.8109C16.9282 13.3604 17.0232 13.4498 17.0232 13.5601C17.0232 13.6703 16.9282 13.7598 16.8109 13.7598H12.1659C12.0486 13.7598 11.9536 13.6703 11.9536 13.5601Z" fill="white"/>
</svg>
