<svg width="24" height="24" viewBox="0 0 24 24" fill="none" xmlns="http://www.w3.org/2000/svg">
<path fill-rule="evenodd" clip-rule="evenodd" d="M11.0493 2C10.8481 2 10.6676 2.124 10.5954 2.31176L10.0765 3.6594C9.14889 3.87222 8.27189 4.23577 7.46345 4.74277L6.14276 4.15618C5.95946 4.07452 5.74348 4.11408 5.60099 4.25684L4.25661 5.60125C4.11452 5.74335 4.07418 5.95874 4.15602 6.14282L4.74258 7.46333C4.23559 8.27184 3.87204 9.14883 3.65921 10.0766L2.31148 10.5953C2.12385 10.6677 2 10.848 2 11.0493V12.9508C2 13.1518 2.12383 13.3324 2.31175 13.4047L3.65901 13.9234C3.87183 14.8513 4.23539 15.7285 4.74253 16.5369L4.15592 17.8573C4.07418 18.0414 4.11448 18.2567 4.25658 18.3989L5.60114 19.7434C5.74357 19.8859 5.95854 19.9254 6.14227 19.8443L6.14272 19.8441L7.46343 19.2573C8.27213 19.7644 9.14896 20.128 10.0764 20.3407L10.5953 21.6883C10.6676 21.8763 10.8482 22 11.0493 22H12.9507C13.1518 22 13.3324 21.8762 13.4047 21.6883L13.9234 20.341C14.8513 20.1282 15.7285 19.7646 16.5369 19.2575L17.8575 19.8442C18.0412 19.9256 18.2565 19.8854 18.3989 19.7434L19.7434 18.3989C19.8856 18.2567 19.9259 18.0414 19.8441 17.8573L19.2573 16.5364C19.7644 15.728 20.1278 14.8511 20.3406 13.9236L21.6883 13.4047C21.8763 13.3324 22 13.1518 22 12.9508V11.0494C22.0001 10.848 21.8762 10.6676 21.6884 10.5953L20.3411 10.0767C20.1282 9.14868 19.7647 8.27149 19.2577 7.46302L19.8441 6.14265C19.9259 5.95861 19.8856 5.74333 19.7435 5.60121L18.3989 4.25665C18.2564 4.11414 18.0408 4.07443 17.8573 4.15619L16.5365 4.74277C15.7282 4.23584 14.8514 3.87223 13.9237 3.6594L13.4047 2.31176C13.3325 2.124 13.152 2 12.9508 2H11.0493ZM11.0102 2.47137C11.0164 2.45515 11.0321 2.44444 11.0493 2.44444H12.9508C12.968 2.44444 12.9837 2.45525 12.9899 2.47147L13.595 4.04253L13.7125 4.06777C14.6703 4.27339 15.5719 4.6472 16.3971 5.18086L16.498 5.24617L18.0382 4.56215C18.0536 4.5553 18.0723 4.55859 18.0847 4.57092L19.4292 5.91548C19.4416 5.92781 19.4449 5.94653 19.438 5.96224L18.7543 7.5015L18.8196 7.60248C19.3533 8.42775 19.7271 9.32968 19.9327 10.2879L19.9579 10.4055L21.5288 11.0101C21.545 11.0163 21.5556 11.032 21.5556 11.0493V12.9508C21.5556 12.9682 21.5447 12.9837 21.5287 12.9899L19.9575 13.5948L19.9323 13.7124C19.7266 14.6701 19.3531 15.5717 18.8192 16.3969L18.7539 16.4979L19.4379 18.0378C19.4449 18.0536 19.4415 18.0722 19.4292 18.0846L18.0846 19.4292C18.0721 19.4415 18.0533 19.4448 18.0375 19.4378L16.4984 18.754L16.3975 18.8194C15.5722 19.3532 14.6703 19.727 13.7122 19.9326L13.5947 19.9578L12.9899 21.5287C12.9837 21.5448 12.9681 21.5556 12.9507 21.5556H11.0493C11.0319 21.5556 11.0163 21.5447 11.0101 21.5287L10.4052 19.9575L10.2876 19.9323C9.33008 19.7268 8.42851 19.3531 7.60286 18.8192L7.50187 18.7539L5.96244 19.4378L4.57085 18.0846C4.55852 18.0722 4.5551 18.0535 4.56212 18.0377L5.24596 16.4985L5.18063 16.3975C4.64676 15.5722 4.27302 14.6703 4.06739 13.7122L4.04216 13.5947L2.47125 12.9899C2.45518 12.9837 2.44444 12.9682 2.44444 12.9508V11.0493C2.44444 11.0319 2.45514 11.0162 2.47152 11.0099L4.04234 10.4053L4.06758 10.2878C4.2732 9.32989 4.64695 8.42814 5.18068 7.60278L5.24599 7.5018L4.56209 5.96215C4.55516 5.94658 4.55849 5.92792 4.57089 5.91552L5.91564 4.57073C5.92761 4.55873 5.94656 4.55532 5.96213 4.56226L7.50193 5.24617L7.60291 5.18087C8.42819 4.64713 9.32995 4.27339 10.2877 4.06776L10.4052 4.04253L11.0102 2.47137Z" fill="white"/>
<path fill-rule="evenodd" clip-rule="evenodd" d="M9.23373 8.69456C9.83891 7.78501 10.8718 7.1849 12.0448 7.1849C12.3134 7.1849 12.575 7.21641 12.826 7.27604L12.7232 7.70845C12.5057 7.65675 12.2786 7.62935 12.0448 7.62935C10.9849 7.62935 10.0557 8.19366 9.53998 9.04093L9.46701 9.16081L9.3274 9.14643C9.2699 9.14051 9.21149 9.13747 9.1523 9.13747C8.21781 9.13747 7.45886 9.89795 7.4587 10.8378L7.45901 10.9555L7.37464 11.0225C6.80779 11.4723 6.44444 12.1681 6.44444 12.9495C6.44444 14.2939 7.52049 15.3849 8.85336 15.4042H10.0509V15.8486H8.8487C7.27088 15.8268 6 14.5362 6 12.9495C6 12.0654 6.39466 11.2734 7.01637 10.7419C7.06652 9.60254 8.0029 8.69303 9.1523 8.69303C9.17956 8.69303 9.20671 8.69354 9.23373 8.69456ZM14.5093 8.25645C14.5757 8.32747 14.639 8.40137 14.6991 8.47794C14.8991 8.73252 15.0635 9.01665 15.1848 9.32281C16.6192 9.68422 17.6806 10.9864 17.6806 12.5371C17.6806 14.3665 16.2028 15.8509 14.3781 15.8509C14.3363 15.8509 14.2948 15.8502 14.2534 15.8486H12.1542V15.4042H14.2619L14.2662 15.4043C14.3033 15.4058 14.3406 15.4065 14.3781 15.4065C15.9558 15.4065 17.2362 14.1226 17.2362 12.5371C17.2362 11.1566 16.2652 10.0041 14.9724 9.72971L14.8507 9.70388L14.8091 9.58658C14.7013 9.2825 14.5451 9.00133 14.3496 8.75245C14.2973 8.68589 14.2422 8.62164 14.1845 8.55988L14.5093 8.25645Z" fill="white"/>
<path fill-rule="evenodd" clip-rule="evenodd" d="M13.5298 7.4877C13.6395 7.55173 13.6395 7.71032 13.5298 7.77435L11.6099 8.89427C11.4993 8.9588 11.3604 8.87901 11.3604 8.75095V6.51111C11.3604 6.38304 11.4993 6.30326 11.6099 6.36778L13.5298 7.4877Z" fill="white"/>
<path fill-rule="evenodd" clip-rule="evenodd" d="M11.0969 15.4468C10.9871 15.5108 10.9871 15.6694 11.0969 15.7335L13.0167 16.8534C13.1273 16.9179 13.2662 16.8381 13.2662 16.7101V14.4702C13.2662 14.3422 13.1273 14.2624 13.0167 14.3269L11.0969 15.4468Z" fill="white"/>
</svg>
