<svg width="24" height="24" viewBox="0 0 24 24" fill="none" xmlns="http://www.w3.org/2000/svg">
<path fill-rule="evenodd" clip-rule="evenodd" d="M2.05271 3.05451C2.12545 2.98407 2.24608 2.98157 2.32215 3.04892L2.19045 3.17647C2.32215 3.04892 2.32215 3.04892 2.32215 3.04892L2.32254 3.04927L2.32328 3.04993L2.32585 3.05223L2.33522 3.06068C2.34332 3.06802 2.35507 3.07877 2.37024 3.09287C2.40057 3.12107 2.44456 3.16268 2.50026 3.21729C2.61165 3.32648 2.76992 3.48767 2.95943 3.69742C3.33834 4.1168 3.84276 4.73098 4.34706 5.51241C5.35513 7.07443 6.36707 9.31159 6.36707 12C6.36707 14.6884 5.35513 16.9256 4.34706 18.4876C3.84276 19.269 3.33834 19.8832 2.95943 20.3026C2.76992 20.5123 2.61165 20.6735 2.50026 20.7827C2.44456 20.8373 2.40057 20.8789 2.37024 20.9071C2.35507 20.9212 2.34332 20.932 2.33522 20.9393L2.32585 20.9478L2.32328 20.9501L2.32254 20.9507C2.32254 20.9507 2.32215 20.9511 2.19045 20.8235L2.32215 20.9511C2.24608 21.0184 2.12545 21.0159 2.05271 20.9455C1.97999 20.8751 1.98267 20.7634 2.05869 20.696L2.06082 20.6941L2.06854 20.6872C2.07553 20.6808 2.08616 20.6711 2.10019 20.6581C2.12825 20.632 2.16989 20.5926 2.22319 20.5404C2.32979 20.4359 2.48293 20.28 2.66711 20.0761C3.03558 19.6683 3.52768 19.0692 4.01989 18.3065C5.00485 16.7803 5.98593 14.6057 5.98593 12C5.98593 9.39429 5.00485 7.21969 4.01989 5.69347C3.52768 4.93078 3.03558 4.33173 2.66711 3.9239C2.48293 3.72005 2.32979 3.56414 2.22319 3.45965C2.16989 3.4074 2.12825 3.36802 2.10019 3.34193C2.08616 3.32889 2.07553 3.31918 2.06854 3.31284L2.06082 3.30587L2.05907 3.3043L2.05875 3.30402C1.98273 3.23666 1.97999 3.12494 2.05271 3.05451Z" fill="white"/>
<path fill-rule="evenodd" clip-rule="evenodd" d="M21.947 3.05451C21.8743 2.98407 21.7537 2.98157 21.6776 3.04893L21.8093 3.17647C21.6776 3.04893 21.6776 3.04893 21.6776 3.04893L21.6772 3.04927L21.6765 3.04993L21.6739 3.05223L21.6645 3.06068C21.6564 3.06802 21.6447 3.07877 21.6295 3.09287C21.5992 3.12107 21.5552 3.16268 21.4995 3.21729C21.3881 3.32648 21.2298 3.48768 21.0403 3.69742C20.6614 4.1168 20.157 4.73099 19.6527 5.51242C18.6446 7.07443 17.6327 9.31159 17.6327 12C17.6327 14.6884 18.6446 16.9256 19.6527 18.4876C20.157 19.269 20.6614 19.8832 21.0403 20.3026C21.2298 20.5123 21.3881 20.6735 21.4995 20.7827C21.5552 20.8373 21.5992 20.8789 21.6295 20.9071C21.6447 20.9212 21.6564 20.932 21.6645 20.9393L21.6739 20.9478L21.6765 20.9501L21.6772 20.9507C21.6772 20.9507 21.6776 20.9511 21.8093 20.8235L21.6776 20.9511C21.7537 21.0184 21.8743 21.0159 21.947 20.9455C22.0198 20.8751 22.0171 20.7634 21.9411 20.696L21.9389 20.6941L21.9312 20.6872C21.9242 20.6808 21.9136 20.6711 21.8996 20.6581C21.8715 20.632 21.8299 20.5926 21.7766 20.5404C21.67 20.4359 21.5168 20.28 21.3326 20.0761C20.9642 19.6683 20.4721 19.0692 19.9799 18.3065C18.9949 16.7803 18.0138 14.6057 18.0138 12C18.0138 9.39429 18.9949 7.21969 19.9799 5.69347C20.4721 4.93078 20.9642 4.33173 21.3326 3.9239C21.5168 3.72005 21.67 3.56415 21.7766 3.45965C21.8299 3.4074 21.8715 3.36802 21.8996 3.34194C21.9136 3.32889 21.9242 3.31918 21.9312 3.31284L21.9389 3.30587L21.9407 3.3043L21.941 3.30402C22.017 3.23666 22.0198 3.12494 21.947 3.05451Z" fill="white"/>
<path fill-rule="evenodd" clip-rule="evenodd" d="M9.55471 15.3547C9.44947 15.3557 9.36326 15.2776 9.36215 15.1801L9.28854 8.68379C9.28744 8.58633 9.37186 8.5065 9.47711 8.50548C9.58235 8.50445 9.66856 8.58263 9.66966 8.68008L9.74327 15.1764C9.74438 15.2739 9.65996 15.3537 9.55471 15.3547Z" fill="white"/>
<path d="M9.0604 15.6405C8.8047 15.4037 8.80504 15.0195 9.06116 14.7824C9.31727 14.5452 9.73218 14.5449 9.98789 14.7817C10.2436 15.0185 10.2432 15.4027 9.98713 15.6398C9.73101 15.877 9.3161 15.8773 9.0604 15.6405Z" fill="white"/>
<path fill-rule="evenodd" clip-rule="evenodd" d="M9.8689 15.5303C10.0599 15.3535 10.0599 15.0673 9.86966 14.8912C9.67943 14.715 9.37039 14.715 9.17939 14.8918C8.98838 15.0687 8.98841 15.3549 9.17863 15.531C9.36885 15.7072 9.6779 15.7072 9.8689 15.5303ZM10.1061 14.6722C10.4273 14.9696 10.4266 15.4518 10.1054 15.7493C9.78413 16.0468 9.26335 16.0474 8.94217 15.75C8.621 15.4526 8.6217 14.9704 8.94293 14.6729C9.26416 14.3754 9.78494 14.3748 10.1061 14.6722Z" fill="white"/>
<path fill-rule="evenodd" clip-rule="evenodd" d="M11.4691 10.6461C11.3924 10.7128 11.2717 10.7092 11.1997 10.6382L9.47473 8.93554L7.72504 10.5558C7.65062 10.6247 7.52996 10.6247 7.45553 10.5558C7.38111 10.4869 7.38111 10.3751 7.45553 10.3062L9.48347 8.42832L11.4777 10.3967C11.5497 10.4677 11.5459 10.5794 11.4691 10.6461Z" fill="white"/>
<path fill-rule="evenodd" clip-rule="evenodd" d="M14.7213 9.09133C14.8265 9.09201 14.9113 9.17156 14.9105 9.26902L14.8617 15.7655C14.861 15.863 14.775 15.9415 14.6698 15.9408C14.5645 15.9401 14.4798 15.8605 14.4806 15.7631L14.5294 9.26657C14.5301 9.16911 14.616 9.09065 14.7213 9.09133Z" fill="white"/>
<path d="M15.2209 8.81354C15.4721 9.05441 15.4645 9.43856 15.204 9.67155C14.9434 9.90455 14.5286 9.89815 14.2774 9.65728C14.0262 9.4164 14.0338 9.03225 14.2943 8.79926C14.5549 8.56627 14.9697 8.57266 15.2209 8.81354Z" fill="white"/>
<path fill-rule="evenodd" clip-rule="evenodd" d="M14.4105 8.91063C14.2161 9.08439 14.2108 9.37053 14.3977 9.54972C14.5845 9.72892 14.8935 9.73394 15.0878 9.56018C15.2821 9.38642 15.2875 9.10029 15.1006 8.92109C14.9138 8.74189 14.6048 8.73688 14.4105 8.91063ZM14.1571 9.76483C13.8416 9.46227 13.8514 8.98011 14.1782 8.68788C14.505 8.39566 15.0257 8.40343 15.3412 8.70598C15.6567 9.00854 15.6469 9.4907 15.3201 9.78293C14.9933 10.0752 14.4726 10.0674 14.1571 9.76483Z" fill="white"/>
<path fill-rule="evenodd" clip-rule="evenodd" d="M12.7184 13.7683C12.7964 13.7028 12.917 13.7083 12.9876 13.7806L14.6803 15.5108L16.4602 13.9191C16.5359 13.8514 16.6566 13.8533 16.7297 13.9235C16.8028 13.9936 16.8007 14.1053 16.725 14.173L14.662 16.0178L12.7052 14.0175C12.6345 13.9453 12.6404 13.8337 12.7184 13.7683Z" fill="white"/>
</svg>
