<svg width="40" height="40" viewBox="0 0 40 40" fill="none" xmlns="http://www.w3.org/2000/svg">
<path fill-rule="evenodd" clip-rule="evenodd" d="M13.6643 26.3357C13.8218 26.4932 13.8218 26.7486 13.6643 26.9061L11.1123 29.4581C12.1983 30.827 12.1087 32.8228 10.8434 34.0881L7.95294 36.9786C6.5911 38.3404 4.38309 38.3405 3.02132 36.9786C1.65957 35.6168 1.65955 33.4089 3.02132 32.0471L5.9118 29.1566C7.17718 27.8912 9.17303 27.8016 10.5419 28.8877L13.0938 26.3357C13.2514 26.1782 13.5067 26.1781 13.6643 26.3357ZM10.273 29.727C9.22617 28.6802 7.52905 28.6802 6.48225 29.727L3.59177 32.6175C2.54505 33.6643 2.54504 35.3614 3.59178 36.4082C4.63849 37.455 6.33569 37.455 7.38249 36.4082L10.273 33.5176C11.3197 32.4709 11.3197 30.7738 10.273 29.727Z" fill="white"/>
<path fill-rule="evenodd" clip-rule="evenodd" d="M23.4787 30.2353C31.0529 30.2353 37.1931 24.0952 37.1931 16.521C37.1931 8.94681 31.0529 2.80672 23.4787 2.80672C17.7573 2.80672 12.8542 6.31022 10.7978 11.2889C10.7 11.5256 10.6087 11.7657 10.524 12.0089C10.0722 13.3059 9.80983 14.6916 9.76978 16.1329C9.7662 16.2619 9.7644 16.3912 9.7644 16.521C9.7644 16.632 9.76572 16.7426 9.76834 16.8529C9.80256 18.2936 10.0589 19.6793 10.5046 20.977C10.5881 21.2202 10.6782 21.4603 10.7748 21.697C12.8175 26.7054 17.7359 30.2353 23.4787 30.2353ZM23.4787 31.042C31.4985 31.042 37.9998 24.5407 37.9998 16.521C37.9998 8.50127 31.4985 2 23.4787 2C17.3036 2 12.0287 5.85455 9.92885 11.2889C9.83725 11.5259 9.75169 11.766 9.67237 12.0089C9.2467 13.3122 9.00044 14.6966 8.96276 16.1329C8.95937 16.2619 8.95767 16.3912 8.95767 16.521C8.95767 16.6319 8.95892 16.7426 8.96139 16.8529C8.9936 18.2888 9.23421 19.6731 9.65417 20.977C9.73239 21.2199 9.81683 21.4599 9.90731 21.697C11.9924 27.1609 17.2823 31.042 23.4787 31.042Z" fill="white"/>
<path fill-rule="evenodd" clip-rule="evenodd" d="M26.5928 16.4929C26.5928 16.6154 26.6023 16.7357 26.6208 16.853C26.7936 17.9508 27.744 18.7906 28.8904 18.7906C30.1593 18.7906 31.188 17.7618 31.188 16.4929C31.188 15.224 30.1593 14.1953 28.8904 14.1953C27.7439 14.1953 26.7936 15.035 26.6208 16.133C26.6023 16.2502 26.5928 16.3705 26.5928 16.4929ZM28.8904 18.0706C28.0191 18.0706 27.3128 17.3642 27.3128 16.4929C27.3128 15.6217 28.0191 14.9153 28.8904 14.9153C29.7617 14.9153 30.468 15.6217 30.468 16.4929C30.468 17.3642 29.7617 18.0706 28.8904 18.0706Z" fill="white"/>
<path fill-rule="evenodd" clip-rule="evenodd" d="M21.3272 8.74245C21.3272 8.98401 21.3645 9.21686 21.4336 9.43557C21.5072 9.66838 21.6169 9.88516 21.756 10.0794C22.1729 10.6611 22.8547 11.0401 23.6249 11.0401C24.8938 11.0401 25.9225 10.0114 25.9225 8.74245C25.9225 7.47354 24.8938 6.44482 23.6249 6.44482C22.356 6.44482 21.3272 7.47354 21.3272 8.74245ZM23.6249 10.3201C22.7536 10.3201 22.0473 9.61372 22.0473 8.74245C22.0473 7.87118 22.7536 7.16482 23.6249 7.16482C24.4962 7.16482 25.2025 7.87118 25.2025 8.74245C25.2025 9.61372 24.4962 10.3201 23.6249 10.3201Z" fill="white"/>
<path fill-rule="evenodd" clip-rule="evenodd" d="M23.6249 25.8211C22.7536 25.8211 22.0473 25.1147 22.0473 24.2434C22.0473 23.3722 22.7536 22.6658 23.6249 22.6658C24.4962 22.6658 25.2025 23.3722 25.2025 24.2434C25.2025 25.1147 24.4962 25.8211 23.6249 25.8211ZM21.3272 24.2434C21.3272 25.5124 22.356 26.5411 23.6249 26.5411C24.8938 26.5411 25.9225 25.5124 25.9225 24.2434C25.9225 22.9745 24.8938 21.9458 23.6249 21.9458C22.8546 21.9458 22.1729 22.3249 21.756 22.9066C21.6169 23.1008 21.5072 23.3176 21.4336 23.5504C21.3645 23.7691 21.3272 24.0019 21.3272 24.2434Z" fill="white"/>
<path d="M10.7978 11.2889C10.7 11.5256 10.6087 11.7657 10.524 12.0089H16.9621C17.5769 12.0089 18.1832 11.8657 18.7331 11.5908L21.756 10.0794C21.6169 9.88516 21.5072 9.66838 21.4336 9.43557L18.4111 10.9468C17.9612 11.1718 17.4651 11.2889 16.9621 11.2889H10.7978Z" fill="white"/>
<path d="M9.7644 16.521C9.7644 16.632 9.76572 16.7426 9.76834 16.8529L26.6208 16.853C26.6023 16.7357 26.5928 16.6154 26.5928 16.4929C26.5928 16.3705 26.6023 16.2502 26.6208 16.133L9.76978 16.1329C9.7662 16.2619 9.7644 16.3912 9.7644 16.521Z" fill="white"/>
<path d="M18.4111 22.0391L21.4336 23.5504C21.5072 23.3176 21.6169 23.1008 21.756 22.9066L18.7331 21.3951C18.1832 21.1202 17.5769 20.977 16.9621 20.977H10.5046C10.5881 21.2202 10.6782 21.4603 10.7748 21.697H16.9621C17.4651 21.697 17.9612 21.8141 18.4111 22.0391Z" fill="white"/>
</svg>
