<svg width="24" height="24" viewBox="0 0 24 24" fill="none" xmlns="http://www.w3.org/2000/svg">
<path fill-rule="evenodd" clip-rule="evenodd" d="M6.12486 5.02722C4.79859 5.02722 3.72168 6.10424 3.72168 7.4304C3.72168 8.39621 4.50609 9.18076 5.47205 9.18076C5.58694 9.18076 5.68008 9.2739 5.68008 9.38879C5.68008 9.50368 5.58694 9.59682 5.47205 9.59682H4.81923C3.49297 9.59682 2.41606 10.6738 2.41606 12C2.41606 13.3262 3.49296 14.4032 4.81923 14.4031H5.47201C5.5869 14.4031 5.68003 14.4963 5.68003 14.6112C5.68003 14.7261 5.5869 14.8192 5.47201 14.8192C4.50605 14.8192 3.72164 15.6037 3.72164 16.5696C3.72164 17.8957 4.79855 18.9727 6.12482 18.9727H6.77763C6.89252 18.9727 6.98566 19.0659 6.98566 19.1808C6.98566 19.2957 6.89252 19.3888 6.77763 19.3888H6.12482C4.56875 19.3888 3.30558 18.1255 3.30558 16.5696C3.30558 15.8176 3.68954 15.1546 4.27198 14.766C2.97749 14.511 2 13.3687 2 12C2 10.6313 2.97752 9.48897 4.27203 9.23393C3.68959 8.8454 3.30562 8.18234 3.30562 7.4304C3.30562 5.87447 4.56879 4.61116 6.12486 4.61116H6.77767C6.89256 4.61116 6.9857 4.7043 6.9857 4.81919C6.9857 4.93408 6.89256 5.02722 6.77767 5.02722H6.12486Z" fill="white"/>
<path fill-rule="evenodd" clip-rule="evenodd" d="M9.38879 2.41606C8.06257 2.41606 6.9857 3.49303 6.9857 4.81919C6.9857 5.42496 7.47751 5.91679 8.08321 5.91679C8.1981 5.91679 8.29124 6.00993 8.29124 6.12482C8.29124 6.23971 8.1981 6.33285 8.08321 6.33285C7.24775 6.33285 6.5696 5.6548 6.5696 4.81923C6.5696 3.26331 7.83277 2 9.38879 2C10.9448 2 12.208 3.2633 12.208 4.81923V19.1808C12.208 20.7367 10.9449 22 9.38879 22C7.83273 22 6.56956 20.7367 6.56956 19.1808C6.56956 18.3452 7.24771 17.6672 8.08317 17.6672C8.19806 17.6672 8.2912 17.7603 8.2912 17.8752C8.2912 17.9901 8.19806 18.0832 8.08317 18.0832C7.47747 18.0832 6.98566 18.575 6.98566 19.1808C6.98566 20.5069 8.06253 21.5839 9.38879 21.5839C10.7151 21.5839 11.792 20.5069 11.792 19.1808V4.81923C11.792 3.49308 10.715 2.41606 9.38879 2.41606Z" fill="white"/>
<path fill-rule="evenodd" clip-rule="evenodd" d="M8.73598 8.52799C8.85087 8.52799 8.94401 8.62113 8.94401 8.73602C8.94401 9.52198 9.58213 10.16 10.368 10.16C11.1539 10.16 11.792 9.52198 11.792 8.73602C11.792 8.62113 11.8851 8.52799 12 8.52799C12.1149 8.52799 12.208 8.62113 12.208 8.73602C12.208 9.75179 11.3836 10.5761 10.368 10.5761C9.35237 10.5761 8.52795 9.75179 8.52795 8.73602C8.52795 8.62113 8.62109 8.52799 8.73598 8.52799Z" fill="white"/>
<path fill-rule="evenodd" clip-rule="evenodd" d="M8.52795 15.264C8.52795 14.2482 9.35237 13.4239 10.368 13.4239C11.3836 13.4239 12.208 14.2482 12.208 15.264C12.208 15.3789 12.1149 15.472 12 15.472C11.8851 15.472 11.792 15.3789 11.792 15.264C11.792 14.478 11.1539 13.84 10.368 13.84C9.58213 13.84 8.94401 14.478 8.94401 15.264C8.94401 15.3789 8.85087 15.472 8.73598 15.472C8.62109 15.472 8.52795 15.3789 8.52795 15.264Z" fill="white"/>
<path fill-rule="evenodd" clip-rule="evenodd" d="M17.2224 18.0832C16.6162 18.0832 16.1248 18.5746 16.1248 19.1808C16.1248 19.7869 16.6162 20.2783 17.2224 20.2783C17.8285 20.2783 18.3199 19.7869 18.3199 19.1808C18.3199 18.5746 17.8285 18.0832 17.2224 18.0832ZM15.7088 19.1808C15.7088 18.3448 16.3864 17.6672 17.2224 17.6672C18.0583 17.6672 18.736 18.3448 18.736 19.1808C18.736 20.0167 18.0583 20.6944 17.2224 20.6944C16.3864 20.6944 15.7088 20.0167 15.7088 19.1808Z" fill="white"/>
<path fill-rule="evenodd" clip-rule="evenodd" d="M17.2224 3.72168C16.6162 3.72168 16.1248 4.21307 16.1248 4.81923C16.1248 5.4254 16.6162 5.91679 17.2224 5.91679C17.8285 5.91679 18.3199 5.4254 18.3199 4.81923C18.3199 4.21307 17.8285 3.72168 17.2224 3.72168ZM15.7088 4.81923C15.7088 3.98329 16.3864 3.30562 17.2224 3.30562C18.0583 3.30562 18.736 3.98329 18.736 4.81923C18.736 5.65518 18.0583 6.33285 17.2224 6.33285C16.3864 6.33285 15.7088 5.65518 15.7088 4.81923Z" fill="white"/>
<path fill-rule="evenodd" clip-rule="evenodd" d="M20.4864 8.29124C19.8802 8.29124 19.3888 8.78263 19.3888 9.38879C19.3888 9.99496 19.8802 10.4863 20.4864 10.4863C21.0926 10.4863 21.5839 9.99496 21.5839 9.38879C21.5839 8.78263 21.0926 8.29124 20.4864 8.29124ZM18.9728 9.38879C18.9728 8.55285 19.6504 7.87518 20.4864 7.87518C21.3223 7.87518 22 8.55285 22 9.38879C22 10.2247 21.3223 10.9024 20.4864 10.9024C19.6504 10.9024 18.9728 10.2247 18.9728 9.38879Z" fill="white"/>
<path fill-rule="evenodd" clip-rule="evenodd" d="M20.4864 13.5137C19.8802 13.5137 19.3888 14.005 19.3888 14.6112C19.3888 15.2174 19.8802 15.7088 20.4864 15.7088C21.0926 15.7088 21.5839 15.2174 21.5839 14.6112C21.5839 14.005 21.0926 13.5137 20.4864 13.5137ZM18.9728 14.6112C18.9728 13.7753 19.6504 13.0976 20.4864 13.0976C21.3223 13.0976 22 13.7753 22 14.6112C22 15.4471 21.3223 16.1248 20.4864 16.1248C19.6504 16.1248 18.9728 15.4471 18.9728 14.6112Z" fill="white"/>
<path fill-rule="evenodd" clip-rule="evenodd" d="M11.792 16.5696C11.792 16.4547 11.8851 16.3616 12 16.3616H14.6112C14.6664 16.3616 14.7193 16.3835 14.7583 16.4225L16.4465 18.1106C16.5277 18.1919 16.5277 18.3236 16.4465 18.4048C16.3652 18.4861 16.2335 18.4861 16.1523 18.4048L14.525 16.7776H12C11.8851 16.7776 11.792 16.6845 11.792 16.5696Z" fill="white"/>
<path fill-rule="evenodd" clip-rule="evenodd" d="M16.4465 5.59518C16.5277 5.67642 16.5277 5.80814 16.4465 5.88938L14.7583 7.5775C14.7193 7.61651 14.6664 7.63843 14.6112 7.63843H12C11.8851 7.63843 11.792 7.54529 11.792 7.4304C11.792 7.31551 11.8851 7.22237 12 7.22237H14.525L16.1523 5.59518C16.2335 5.51394 16.3652 5.51394 16.4465 5.59518Z" fill="white"/>
<path fill-rule="evenodd" clip-rule="evenodd" d="M17.0753 9.2417C17.1143 9.20268 17.1672 9.18077 17.2224 9.18077H19.1808C19.2957 9.18077 19.3888 9.2739 19.3888 9.38879C19.3888 9.50368 19.2957 9.59682 19.1808 9.59682H17.3085L16.0639 10.8415C16.0249 10.8805 15.972 10.9024 15.9168 10.9024H12C11.8851 10.9024 11.792 10.8093 11.792 10.6944C11.792 10.5795 11.8851 10.4864 12 10.4864H15.8306L17.0753 9.2417Z" fill="white"/>
<path fill-rule="evenodd" clip-rule="evenodd" d="M11.792 13.3056C11.792 13.1907 11.8851 13.0976 12 13.0976H15.9168C15.972 13.0976 16.0249 13.1195 16.0639 13.1585L17.3085 14.4032H19.1808C19.2957 14.4032 19.3888 14.4963 19.3888 14.6112C19.3888 14.7261 19.2957 14.8192 19.1808 14.8192H17.2224C17.1672 14.8192 17.1143 14.7973 17.0753 14.7583L15.8306 13.5136H12C11.8851 13.5136 11.792 13.4205 11.792 13.3056Z" fill="white"/>
</svg>
