<svg width="24" height="24" viewBox="0 0 24 24" fill="none" xmlns="http://www.w3.org/2000/svg">
<path fill-rule="evenodd" clip-rule="evenodd" d="M12 2.46512C11.1678 2.46512 10.4931 3.10761 10.4931 3.90017C10.4931 4.60488 11.0265 5.19095 11.7298 5.31221C11.8175 5.32733 11.9078 5.33522 12 5.33522C12.0741 5.33522 12.147 5.33013 12.2182 5.32029C12.9471 5.21963 13.507 4.62217 13.507 3.90017C13.507 3.10761 12.8323 2.46512 12 2.46512ZM10.0047 3.90017C10.0047 2.85074 10.898 2 12 2C13.102 2 13.9954 2.85074 13.9954 3.90017C13.9954 4.94961 13.102 5.80034 12 5.80034C10.898 5.80034 10.0047 4.94961 10.0047 3.90017Z" fill="white"/>
<path fill-rule="evenodd" clip-rule="evenodd" d="M12 18.6648C11.9078 18.6648 11.8175 18.6727 11.7298 18.6878C11.0265 18.809 10.4931 19.3951 10.4931 20.0998C10.4931 20.8924 11.1678 21.5349 12 21.5349C12.8323 21.5349 13.507 20.8924 13.507 20.0998C13.507 19.3778 12.9471 18.7804 12.2182 18.6797C12.147 18.6699 12.0741 18.6648 12 18.6648ZM10.0047 20.0998C10.0047 19.0504 10.898 18.1997 12 18.1997C13.102 18.1997 13.9954 19.0504 13.9954 20.0998C13.9954 21.1493 13.102 22 12 22C10.898 22 10.0047 21.1493 10.0047 20.0998Z" fill="white"/>
<path fill-rule="evenodd" clip-rule="evenodd" d="M19.0047 6.2768C18.1724 6.2768 17.4977 6.9193 17.4977 7.71185C17.4977 8.03791 17.6119 8.33856 17.8043 8.57953C17.9078 8.70927 18.0341 8.8217 18.1773 8.91149C18.4148 9.06031 18.6991 9.14691 19.0047 9.14691C19.8369 9.14691 20.5116 8.50441 20.5116 7.71185C20.5116 6.9193 19.8369 6.2768 19.0047 6.2768ZM17.0093 7.71185C17.0093 6.66242 17.9027 5.81168 19.0047 5.81168C20.1067 5.81168 21 6.66242 21 7.71185C21 8.76129 20.1067 9.61203 19.0047 9.61203C17.9027 9.61203 17.0093 8.76129 17.0093 7.71185Z" fill="white"/>
<path fill-rule="evenodd" clip-rule="evenodd" d="M19.0047 14.8531C18.7139 14.8531 18.4423 14.9315 18.212 15.0674C18.0649 15.1542 17.9346 15.2645 17.8269 15.3928C17.6209 15.6382 17.4977 15.9495 17.4977 16.2882C17.4977 17.0807 18.1724 17.7232 19.0047 17.7232C19.8369 17.7232 20.5116 17.0807 20.5116 16.2882C20.5116 15.4956 19.8369 14.8531 19.0047 14.8531ZM17.0093 16.2882C17.0093 15.2387 17.9027 14.388 19.0047 14.388C20.1067 14.388 21 15.2387 21 16.2882C21 17.3376 20.1067 18.1883 19.0047 18.1883C17.9027 18.1883 17.0093 17.3376 17.0093 16.2882Z" fill="white"/>
<path fill-rule="evenodd" clip-rule="evenodd" d="M4.9954 6.2768C4.16313 6.2768 3.48845 6.9193 3.48845 7.71185C3.48845 8.50441 4.16313 9.14691 4.9954 9.14691C5.34348 9.14691 5.66399 9.03452 5.91912 8.84578C6.05155 8.74781 6.16636 8.62926 6.25826 8.49517C6.41262 8.26994 6.50234 8.00088 6.50234 7.71185C6.50234 6.9193 5.82766 6.2768 4.9954 6.2768ZM3.00003 7.71185C3.00003 6.66242 3.89339 5.81168 4.9954 5.81168C6.09741 5.81168 6.99076 6.66242 6.99076 7.71185C6.99076 8.76129 6.09741 9.61203 4.9954 9.61203C3.89339 9.61203 3.00003 8.76129 3.00003 7.71185Z" fill="white"/>
<path fill-rule="evenodd" clip-rule="evenodd" d="M4.9954 14.8531C4.16313 14.8531 3.48845 15.4956 3.48845 16.2882C3.48845 17.0807 4.16313 17.7232 4.9954 17.7232C5.82766 17.7232 6.50234 17.0807 6.50234 16.2882C6.50234 15.9866 6.4047 15.7068 6.23787 15.4759C6.14209 15.3433 6.02349 15.2267 5.88748 15.1314C5.63772 14.9565 5.32924 14.8531 4.9954 14.8531ZM3.00003 16.2882C3.00003 15.2387 3.89339 14.388 4.9954 14.388C6.09741 14.388 6.99076 15.2387 6.99076 16.2882C6.99076 17.3376 6.09741 18.1883 4.9954 18.1883C3.89339 18.1883 3.00003 17.3376 3.00003 16.2882Z" fill="white"/>
<path d="M10.2427 13.274L10.6698 13.0392C10.5677 12.9189 10.4832 12.7844 10.4201 12.6394L9.99417 12.8736C10.0615 13.0162 10.1451 13.1504 10.2427 13.274Z" fill="white"/>
<path fill-rule="evenodd" clip-rule="evenodd" d="M12 5.33522C12.0741 5.33522 12.147 5.33013 12.2182 5.32029V9.93385C12.8611 9.99419 13.4227 10.3183 13.7819 10.7911L17.8043 8.57953C17.9078 8.70927 18.0341 8.8217 18.1773 8.91149L14.0225 11.1959C14.1354 11.4479 14.1979 11.7253 14.1979 12.0167C14.1979 12.2853 14.1448 12.5421 14.048 12.778L18.212 15.0674C18.0649 15.1542 17.9346 15.2645 17.8269 15.3928L13.8204 13.1899C13.4636 13.691 12.8846 14.037 12.2182 14.0995V18.6797C12.147 18.6699 12.0741 18.6648 12 18.6648C11.9078 18.6648 11.8175 18.6727 11.7298 18.6878V14.0941C11.123 14.0232 10.5927 13.7169 10.2427 13.274L10.6698 13.0392C10.9295 13.3453 11.3034 13.5599 11.7298 13.6244C11.8178 13.6377 11.9081 13.6446 12 13.6446C12.0739 13.6446 12.1468 13.6401 12.2182 13.6315C12.7039 13.5725 13.126 13.3195 13.3959 12.9566C13.4898 12.8305 13.5652 12.6911 13.6186 12.5419C13.6775 12.3771 13.7095 12.2005 13.7095 12.0167C13.7095 11.8101 13.6691 11.6125 13.5954 11.4307C13.536 11.2841 13.4549 11.1478 13.356 11.0252C13.0853 10.69 12.6806 10.458 12.2182 10.4019C12.1468 10.3933 12.0739 10.3888 12 10.3888C11.9081 10.3888 11.8178 10.3957 11.7298 10.409C11.3268 10.47 10.9707 10.665 10.7135 10.9447C10.6062 11.0614 10.5161 11.1928 10.4471 11.3353C10.3466 11.5426 10.2906 11.7734 10.2906 12.0167C10.2906 12.2373 10.3366 12.4476 10.4201 12.6394L9.99417 12.8736C9.87079 12.612 9.80214 12.322 9.80214 12.0167C9.80214 11.6887 9.88138 11.3783 10.0226 11.1019L5.91912 8.84578C6.05155 8.74781 6.16636 8.62926 6.25826 8.49517L10.2841 10.7086C10.6338 10.2932 11.1465 10.0074 11.7298 9.93933V5.31221C11.8175 5.32733 11.9078 5.33522 12 5.33522ZM9.99417 12.8736C10.0615 13.0162 10.1451 13.1504 10.2427 13.274L6.23787 15.4759C6.14209 15.3433 6.02349 15.2267 5.88748 15.1314L9.99417 12.8736Z" fill="white"/>
</svg>
