<svg width="24" height="24" viewBox="0 0 24 24" fill="none" xmlns="http://www.w3.org/2000/svg">
<path fill-rule="evenodd" clip-rule="evenodd" d="M11.9171 5.0158C11.9702 4.99473 12.0298 4.99473 12.0829 5.0158L21.8655 8.8964C21.9469 8.92868 22 9.00494 22 9.08955V14.9104C22 15.0259 21.9027 15.1194 21.7826 15.1194C21.6625 15.1194 21.5652 15.0259 21.5652 14.9104V9.40184L18.087 10.7816V15.8806C18.087 16.7683 17.3801 17.564 16.2501 18.1243C15.1116 18.6888 13.5827 19 12 19C10.4173 19 8.8884 18.6888 7.74992 18.1243C6.61988 17.564 5.91304 16.7683 5.91304 15.8806V10.7816L2.13446 9.2827C2.05309 9.25043 2 9.17417 2 9.08955C2 9.00494 2.05309 8.92868 2.13446 8.8964L11.9171 5.0158ZM6.21788 10.4504C6.21485 10.4491 6.2118 10.4479 6.2087 10.4468L2.78724 9.08955L12 5.43501L21.2128 9.08955L17.7913 10.4468C17.7882 10.4479 17.7851 10.4491 17.7821 10.4504L12 12.7441L6.21788 10.4504ZM6.34783 10.9541V15.8806C6.34783 16.5367 6.87779 17.2216 7.94926 17.7529C9.01229 18.28 10.4693 18.5821 12 18.5821C13.5307 18.5821 14.9877 18.28 16.0507 17.7529C17.1222 17.2216 17.6522 16.5367 17.6522 15.8806V10.9541L12.0829 13.1633C12.0298 13.1844 11.9702 13.1844 11.9171 13.1633L6.34783 10.9541Z" fill="white"/>
</svg>
