<svg width="24" height="24" viewBox="0 0 24 24" fill="none" xmlns="http://www.w3.org/2000/svg">
<path fill-rule="evenodd" clip-rule="evenodd" d="M13.3667 11.9286L8.0052 6.51499L2.64367 11.9286L8.0052 17.3422L13.3667 11.9286ZM8.0052 5.86507L2 11.9286L8.0052 17.9921L14.0104 11.9286L8.0052 5.86507Z" fill="white"/>
<path fill-rule="evenodd" clip-rule="evenodd" d="M21.3563 11.9286L15.8277 6.34627L10.2991 11.9286L15.8277 17.5109L21.3563 11.9286ZM15.8277 5.69636L9.65541 11.9286L15.8277 18.1608L22 11.9286L15.8277 5.69636Z" fill="white"/>
<path fill-rule="evenodd" clip-rule="evenodd" d="M14.0493 19.1807L11.9008 17.0112L9.75221 19.1807L11.9008 21.3501L14.0493 19.1807ZM11.9008 16.3613L9.10854 19.1807L11.9008 22L14.693 19.1807L11.9008 16.3613Z" fill="white"/>
<path fill-rule="evenodd" clip-rule="evenodd" d="M14.0359 4.80574L11.9008 2.64992L9.76568 4.80574L11.9008 6.96156L14.0359 4.80574ZM11.9008 2L9.12202 4.80574L11.9008 7.61148L14.6795 4.80574L11.9008 2Z" fill="white"/>
</svg>
