<svg width="48" height="48" viewBox="0 0 48 48" fill="none" xmlns="http://www.w3.org/2000/svg">
<path fill-rule="evenodd" clip-rule="evenodd" d="M7.71552 6.78261C6.11858 6.78261 4.78431 8.16168 4.78431 9.91304C4.78431 11.6644 6.11858 13.0435 7.71552 13.0435C9.31246 13.0435 10.6467 11.6644 10.6467 9.91304C10.6467 8.16168 9.31246 6.78261 7.71552 6.78261ZM4 9.91304C4 7.77447 5.64164 6 7.71552 6C9.66146 6 11.2268 7.56229 11.4126 9.52174H17.2935V6.3913C17.2935 6.17519 17.469 6 17.6856 6H30.9791C31.1956 6 31.3712 6.17519 31.3712 6.3913V13.4348C31.3712 13.6509 31.1956 13.8261 30.9791 13.8261H17.6856C17.469 13.8261 17.2935 13.6509 17.2935 13.4348V10.3043H11.4126C11.2268 12.2638 9.66146 13.8261 7.71552 13.8261C5.64164 13.8261 4 12.0516 4 9.91304ZM18.0778 13.0435H30.5869V6.78261H18.0778V13.0435ZM36.569 6.3913C36.569 6.1752 36.7445 6 36.9611 6C39.035 6 40.6766 7.77447 40.6766 9.91305V17.5608C40.6766 19.3324 41.341 21.0271 42.5168 22.273L43.8933 23.7317C44.0355 23.8824 44.0356 24.1176 43.8934 24.2682L42.5168 25.727C41.341 26.973 40.6766 28.6677 40.6766 30.4392V38.087C40.6766 40.2255 39.035 42 36.9611 42C36.7445 42 36.569 41.8248 36.569 41.6087C36.569 41.3926 36.7445 41.2174 36.9611 41.2174C38.5581 41.2174 39.8923 39.8383 39.8923 38.087V30.4392C39.8923 28.4748 40.6286 26.5864 41.9458 25.1905L43.0692 24L41.9458 22.8096C40.6286 21.4137 39.8923 19.5253 39.8923 17.5608V9.91305C39.8923 8.16168 38.5581 6.78261 36.9611 6.78261C36.7445 6.78261 36.569 6.60742 36.569 6.3913ZM7.71552 20.8696C6.11858 20.8696 4.78431 22.2486 4.78431 24C4.78431 25.7514 6.11858 27.1304 7.71552 27.1304C9.31246 27.1304 10.6467 25.7514 10.6467 24C10.6467 22.2486 9.31246 20.8696 7.71552 20.8696ZM4 24C4 21.8614 5.64164 20.087 7.71552 20.087C9.66146 20.087 11.2268 21.6492 11.4126 23.6087H17.2935V20.4783C17.2935 20.2621 17.469 20.087 17.6856 20.087H30.9791C31.1956 20.087 31.3712 20.2621 31.3712 20.4783V27.5217C31.3712 27.7378 31.1956 27.913 30.9791 27.913H17.6856C17.469 27.913 17.2935 27.7378 17.2935 27.5217V24.3913H11.4126C11.2268 26.3508 9.66146 27.913 7.71552 27.913C5.64164 27.913 4 26.1386 4 24ZM18.0778 27.1304H30.5869V20.8696H18.0778V27.1304ZM7.71552 34.9565C6.11858 34.9565 4.78431 36.3355 4.78431 38.0869C4.78431 39.8383 6.11858 41.2173 7.71552 41.2173C9.31246 41.2173 10.6467 39.8383 10.6467 38.0869C10.6467 36.3355 9.31246 34.9565 7.71552 34.9565ZM4 38.0869C4 35.9483 5.64164 34.1739 7.71552 34.1739C9.7894 34.1739 11.431 35.9483 11.431 38.0869C11.431 40.2255 9.7894 41.9999 7.71552 41.9999C5.64164 41.9999 4 40.2255 4 38.0869ZM17.2935 34.5652C17.2935 34.3491 17.469 34.1739 17.6856 34.1739H30.9791C31.1956 34.1739 31.3712 34.3491 31.3712 34.5652V41.6087C31.3712 41.8248 31.1956 42 30.9791 42H17.6856C17.469 42 17.2935 41.8248 17.2935 41.6087V34.5652ZM18.0778 34.9565V41.2174H30.5869V34.9565H18.0778Z" fill="white"/>
</svg>
