<svg width="48" height="48" viewBox="0 0 48 48" fill="none" xmlns="http://www.w3.org/2000/svg">
<path fill-rule="evenodd" clip-rule="evenodd" d="M23.7372 7.74701C26.0545 5.41766 29.8116 5.41766 32.1289 7.74701L38.0071 13.6557C38.1601 13.8096 38.1601 14.0589 38.0071 14.2128C37.078 15.1467 37.078 16.661 38.0071 17.5949C38.9362 18.5289 40.4426 18.5289 41.3717 17.5949C41.5247 17.4411 41.7728 17.4411 41.9259 17.5949L43.8852 19.5645C44.0382 19.7183 44.0382 19.9677 43.8852 20.1215L36.0478 27.9998C35.9743 28.0737 35.8746 28.1152 35.7707 28.1152C35.6668 28.1152 35.5671 28.0737 35.4936 27.9998L33.5343 26.0303C33.4608 25.9564 33.4195 25.8562 33.4195 25.7518C33.4195 25.6473 33.4608 25.5471 33.5343 25.4733C34.4634 24.5393 34.4634 23.0251 33.5343 22.0911C32.6462 21.1984 31.3116 21.3329 30.3379 22.3116C30.2618 22.3881 30.1578 22.4297 30.0503 22.4268C29.9427 22.4239 29.8411 22.3767 29.7692 22.2962L29.5965 22.1029L27.2575 24.4541L32.4074 29.6309C34.8956 28.8833 37.7034 29.4952 39.6698 31.4719C41.6975 33.5102 42.2754 36.4455 41.4225 39.0016C41.3794 39.1309 41.2728 39.2286 41.1407 39.2598C41.0086 39.291 40.8699 39.2513 40.7739 39.1549L36.6773 35.037L32.8867 38.8473L36.9833 42.9651C37.0793 43.0616 37.1187 43.201 37.0877 43.3338C37.0566 43.4666 36.9595 43.5737 36.8309 43.6171C34.2879 44.4744 31.3678 43.8936 29.3401 41.8553C27.3736 39.8787 26.7649 37.0562 27.5086 34.5552L22.3586 29.3784L17.2507 34.5129L17.5166 34.7803C17.5901 34.8541 17.6314 34.9543 17.6314 35.0588C17.6314 35.1632 17.5901 35.2634 17.5166 35.3373L9.9134 42.9801C8.56062 44.34 6.36736 44.34 5.01459 42.9801C3.6618 41.6203 3.6618 39.4156 5.01459 38.0558L12.6178 30.413C12.7709 30.2592 13.019 30.2592 13.172 30.413L13.438 30.6804L18.546 25.5459L13.3959 20.3691C10.9077 21.1167 8.09998 20.5048 6.13355 18.5281C4.10581 16.4899 3.52806 13.5545 4.38083 10.9983C4.42397 10.869 4.53058 10.7714 4.66266 10.7401C4.79473 10.7089 4.93348 10.7486 5.02941 10.8451L9.12604 14.9631L12.9166 11.1527L8.82001 7.03481C8.72407 6.93838 8.68459 6.79892 8.71564 6.66615C8.74669 6.53339 8.84386 6.42623 8.97249 6.38286C11.5155 5.52557 14.4355 6.10633 16.4633 8.1447C18.4297 10.1213 19.0385 12.9437 18.2947 15.4448L23.4448 20.6217L25.8158 18.2384L25.5523 17.9386C25.4121 17.7791 25.4233 17.5364 25.5778 17.3906L27.6603 15.4255C28.5852 14.4918 28.5837 13.1757 27.656 12.2432L23.7372 8.30404C23.5842 8.15022 23.5842 7.90083 23.7372 7.74701ZM26.3534 18.8121L13.9921 31.2374L16.6965 33.9559L22.0789 28.5456L22.0815 28.5429L26.4262 24.1755L26.4316 24.1702L29.0577 21.5304L26.3534 18.8121ZM22.8906 21.1787L17.5722 15.8326C17.467 15.7268 17.4304 15.5704 17.4778 15.4286C18.2415 13.1432 17.7187 10.5207 15.9091 8.70172C14.2646 7.04862 11.9608 6.46827 9.84701 6.9531L13.7479 10.8742C13.8213 10.9481 13.8626 11.0483 13.8626 11.1527C13.8626 11.2572 13.8213 11.3574 13.7479 11.4313L9.40311 15.7986C9.32962 15.8725 9.22996 15.914 9.12603 15.914C9.02211 15.914 8.92245 15.8725 8.84896 15.7986L4.94814 11.8774C4.46588 14.0023 5.04322 16.3181 6.68769 17.9711C8.49727 19.7901 11.1062 20.3156 13.3798 19.5479C13.5208 19.5003 13.6765 19.5371 13.7816 19.6428L19.1001 24.9889L22.8906 21.1787ZM12.8949 31.2485L5.56873 38.6128C4.52199 39.665 4.52199 41.3709 5.56873 42.423C6.61547 43.4753 8.31251 43.4753 9.35924 42.4231L16.6854 35.0588L16.4242 34.7962L16.4194 34.7915L13.1609 31.5159L12.8949 31.2485ZM22.9128 28.8214L28.2312 34.1675C28.3364 34.2732 28.3729 34.4297 28.3255 34.5714C27.5618 36.8568 28.0846 39.4793 29.8942 41.2983C31.5387 42.9513 33.8425 43.5317 35.9563 43.0469L32.0555 39.1258C31.982 39.0519 31.9407 38.9518 31.9407 38.8473C31.9407 38.7428 31.982 38.6426 32.0555 38.5688L36.4002 34.2014C36.5533 34.0476 36.8014 34.0476 36.9544 34.2014L40.8552 38.1226C41.3375 35.9978 40.7601 33.682 39.1156 32.0289C37.3061 30.2099 34.6972 29.6844 32.4235 30.4521C32.2825 30.4997 32.1269 30.463 32.0217 30.3572L26.7033 25.0111L22.9128 28.8214ZM30.0908 21.4771C31.2736 20.518 32.9174 20.357 34.0884 21.5341C35.2298 22.6814 35.3164 24.4874 34.3485 25.7347L35.7707 27.1643L43.054 19.843L41.6318 18.4134C40.3909 19.3864 38.5943 19.2992 37.4529 18.1519C36.3116 17.0047 36.2249 15.1987 37.1928 13.9513L31.5748 8.30404C29.6567 6.37603 26.6022 6.28667 24.5788 8.03596L28.2102 11.6862C29.4453 12.9278 29.4453 14.7452 28.2102 15.9868L28.2014 15.9956L26.3913 17.7034L26.639 17.9851L29.9038 21.2669L30.0908 21.4771Z" fill="white"/>
</svg>
