<svg width="24" height="24" viewBox="0 0 24 24" fill="none" xmlns="http://www.w3.org/2000/svg">
<path fill-rule="evenodd" clip-rule="evenodd" d="M12 21.5789C17.2903 21.5789 21.5789 17.2903 21.5789 12C21.5789 6.70969 17.2903 2.42105 12 2.42105C6.70969 2.42105 2.42105 6.70969 2.42105 12C2.42105 17.2903 6.70969 21.5789 12 21.5789ZM12 22C17.5228 22 22 17.5228 22 12C22 6.47715 17.5228 2 12 2C6.47715 2 2 6.47715 2 12C2 17.5228 6.47715 22 12 22Z" fill="white"/>
<path fill-rule="evenodd" clip-rule="evenodd" d="M15.4737 7.57895H18.0526C18.1689 7.57895 18.2632 7.6732 18.2632 7.78947C18.2632 7.90574 18.1689 8 18.0526 8H15.8947V10.3684H13.5263V12.7368H11.1579V15.1053H8.78947V17.4737H6.21053C6.09426 17.4737 6 17.3794 6 17.2632C6 17.1469 6.09426 17.0526 6.21053 17.0526H8.36817L8.36842 14.6842H10.7366L10.7368 12.3158H13.105L13.1053 9.94737H15.4734L15.4737 7.57895Z" fill="white"/>
<path fill-rule="evenodd" clip-rule="evenodd" d="M11.4737 6.52632C11.59 6.52632 11.6842 6.62057 11.6842 6.73684V8.63158C11.6842 8.74785 11.59 8.84211 11.4737 8.84211C11.3574 8.84211 11.2632 8.74785 11.2632 8.63158V7.2451L7.41202 11.0962C7.32981 11.1784 7.19651 11.1784 7.11429 11.0962C7.03208 11.014 7.03208 10.8807 7.11429 10.7985L10.9654 6.94737L9.57895 6.94737C9.46268 6.94737 9.36842 6.85311 9.36842 6.73684C9.36842 6.62057 9.46268 6.52632 9.57895 6.52632H11.4737Z" fill="white"/>
</svg>
