<svg width="24" height="24" viewBox="0 0 24 24" fill="none" xmlns="http://www.w3.org/2000/svg">
<path fill-rule="evenodd" clip-rule="evenodd" d="M11.2898 8.87485L12.9488 10.5339C13.3742 10.9592 13.6131 11.5361 13.6131 12.1376V13.4069C13.6131 13.5208 13.5208 13.6131 13.4069 13.6131H12.1376C11.5361 13.6131 10.9592 13.3742 10.5339 12.9488L8.87485 11.2898C8.60815 11.9726 8.53154 12.717 8.65612 13.4431C8.79741 14.2666 9.19054 15.0261 9.78137 15.6169C10.3722 16.2078 11.1317 16.6009 11.9552 16.7422C12.7787 16.8835 13.6258 16.766 14.3797 16.4059C14.4586 16.3682 14.5526 16.3844 14.6144 16.4461L18.8611 20.6928C19.104 20.9357 19.4334 21.0722 19.7769 21.0722C20.1205 21.0722 20.4499 20.9357 20.6928 20.6928C20.9357 20.4499 21.0722 20.1205 21.0722 19.7769C21.0722 19.4334 20.9357 19.104 20.6928 18.8611L16.4461 14.6144C16.3844 14.5526 16.3682 14.4586 16.4059 14.3797C16.766 13.6258 16.8835 12.7787 16.7422 11.9552C16.6009 11.1317 16.2078 10.3722 15.6169 9.78137C15.0261 9.19054 14.2666 8.79741 13.4431 8.65612C12.717 8.53154 11.9726 8.60815 11.2898 8.87485ZM10.8408 8.6203C11.6718 8.22345 12.6053 8.09397 13.5129 8.24969C14.4204 8.4054 15.2574 8.83865 15.9085 9.48977C16.5596 10.1409 16.9929 10.9779 17.1486 11.8854C17.296 12.7448 17.1878 13.6273 16.839 14.4241L20.9844 18.5695C21.3047 18.8897 21.4846 19.3241 21.4846 19.7769C21.4846 20.2298 21.3047 20.6642 20.9844 20.9844C20.6642 21.3047 20.2298 21.4846 19.7769 21.4846C19.3241 21.4846 18.8897 21.3047 18.5695 20.9844L14.4241 16.839C13.6273 17.1878 12.7448 17.296 11.8854 17.1486C10.9779 16.9929 10.1409 16.5596 9.48977 15.9085C8.83865 15.2574 8.4054 14.4204 8.24969 13.5129C8.09397 12.6053 8.22345 11.6718 8.6203 10.8408C8.64914 10.7804 8.70552 10.7378 8.77149 10.7265C8.83746 10.7152 8.90482 10.7366 8.95215 10.7839L10.8255 12.6572C11.1735 13.0052 11.6455 13.2007 12.1376 13.2007H13.2007V12.1376C13.2007 11.6455 13.0052 11.1735 12.6572 10.8255L10.7839 8.95215C10.7366 8.90482 10.7152 8.83746 10.7265 8.77149C10.7378 8.70552 10.7804 8.64914 10.8408 8.6203Z" fill="white"/>
<path fill-rule="evenodd" clip-rule="evenodd" d="M13.6224 3.68788C13.2097 1.98715 10.7902 1.98717 10.3776 3.68793C10.0443 5.05866 8.47865 5.70852 7.27128 4.97444C5.77568 4.06391 4.06502 5.77547 4.97539 7.26997C5.14606 7.54988 5.24822 7.86613 5.27356 8.19299C5.2989 8.51985 5.24671 8.84807 5.12123 9.15094C4.99575 9.45381 4.80053 9.72277 4.55145 9.93594C4.3024 10.1491 4.00653 10.3004 3.68793 10.3776M13.6224 3.68788C13.6996 4.00647 13.8509 4.3024 14.0641 4.55145C14.2772 4.80053 14.5462 4.99575 14.8491 5.12123C15.1519 5.24671 15.4802 5.2989 15.807 5.27356C16.1339 5.24822 16.4501 5.14606 16.73 4.97539C18.2245 4.06502 19.9362 5.77558 19.0256 7.27117C18.8552 7.55096 18.7532 7.867 18.7279 8.19362C18.7027 8.52026 18.7548 8.84825 18.8801 9.15093C19.0055 9.45362 19.2005 9.72247 19.4493 9.93561C19.698 10.1488 19.9936 10.3002 20.312 10.3776C22.0127 10.7902 22.0129 13.2098 20.3121 13.6224C19.9935 13.6996 19.6976 13.8509 19.4485 14.0641C19.1995 14.2772 19.0042 14.5462 18.8788 14.8491C18.8352 14.9543 18.8851 15.0749 18.9903 15.1185C19.0955 15.162 19.2162 15.1121 19.2597 15.0069C19.3604 14.764 19.5169 14.5483 19.7167 14.3774C19.9164 14.2064 20.1537 14.085 20.4092 14.0231C22.5302 13.5086 22.5303 10.4915 20.4094 9.97691C20.1541 9.91483 19.9171 9.79338 19.7175 9.62245C19.518 9.45152 19.3617 9.23591 19.2611 8.99317C19.1606 8.75043 19.1188 8.48739 19.1391 8.22545C19.1594 7.9635 19.2412 7.71004 19.3778 7.48565C20.5131 5.6209 18.3791 3.4879 16.5154 4.62326C16.2909 4.76013 16.0373 4.8421 15.7751 4.86242C15.513 4.88275 15.2498 4.84089 15.0069 4.74026C14.764 4.63963 14.5483 4.48307 14.3774 4.28332C14.2064 4.08358 14.085 3.84629 14.0231 3.59077C13.5086 1.46982 10.4915 1.46972 9.97691 3.5906C9.70955 4.69006 8.45463 5.21122 7.48561 4.62215C5.62086 3.48687 3.4879 5.62089 4.62326 7.48458C4.76013 7.70905 4.8421 7.96274 4.86242 8.22487C4.88275 8.48699 4.84089 8.75021 4.74026 8.9931C4.63963 9.23599 4.48307 9.45169 4.28332 9.62264C4.08358 9.79359 3.84629 9.91496 3.59077 9.97687C1.46982 10.4914 1.46972 13.5085 3.5906 14.0231C3.84589 14.0852 4.08293 14.2066 4.28245 14.3775C4.48197 14.5485 4.63835 14.7641 4.73886 15.0068C4.83937 15.2496 4.88119 15.5126 4.86091 15.7746C4.84064 16.0365 4.75884 16.29 4.62217 16.5143C3.48689 18.3791 5.62089 20.5121 7.48458 19.3767C7.70905 19.2399 7.96274 19.1579 8.22487 19.1376C8.48699 19.1173 8.75021 19.1591 8.9931 19.2597C9.23599 19.3604 9.45169 19.5169 9.62264 19.7167C9.79359 19.9164 9.91496 20.1537 9.97687 20.4092C10.4914 22.5302 13.5085 22.5303 14.0231 20.4094C14.0852 20.1541 14.2066 19.9171 14.3775 19.7175C14.5485 19.518 14.7641 19.3617 15.0068 19.2611C15.112 19.2176 15.162 19.097 15.1184 18.9918C15.0749 18.8865 14.9543 18.8366 14.8491 18.8801C14.5464 19.0055 14.2775 19.2005 14.0644 19.4493C13.8512 19.698 13.6998 19.9936 13.6224 20.312C13.2098 22.0127 10.7902 22.0129 10.3776 20.3121C10.3004 19.9935 10.1491 19.6976 9.93594 19.4485C9.72277 19.1995 9.45381 19.0042 9.15094 18.8788C8.84806 18.7533 8.51984 18.7011 8.19299 18.7264C7.86613 18.7518 7.54988 18.8539 7.26997 19.0246C5.77547 19.935 4.06384 18.2244 4.97438 16.7288C5.14478 16.449 5.24677 16.133 5.27206 15.8064C5.29734 15.4797 5.24519 15.1517 5.11986 14.8491C4.99452 14.5464 4.79954 14.2775 4.55074 14.0644C4.30195 13.8512 4.00638 13.6998 3.68804 13.6224C1.98728 13.2098 1.9872 10.7903 3.68793 10.3776" fill="white"/>
</svg>
