<svg width="48" height="48" viewBox="0 0 48 48" fill="none" xmlns="http://www.w3.org/2000/svg">
<path fill-rule="evenodd" clip-rule="evenodd" d="M7.64657 6C7.86315 6 8.03873 6.17519 8.03873 6.3913V9.16469C9.72961 9.34052 11.0875 10.6403 11.2718 12.2948C14.4743 12.3989 16.8734 13.8504 18.8499 15.9497C19.8713 17.0345 20.7854 18.2984 21.6446 19.6442C22.2346 19.1581 22.8096 18.6516 23.3912 18.1393C23.4263 18.1085 23.4613 18.0776 23.4964 18.0467C25.1009 16.6338 26.7619 15.187 28.8912 14.1005C30.9523 13.0488 33.4374 12.341 36.7285 12.2916C36.9143 10.6386 38.2715 9.34041 39.9613 9.16469V6.3913C39.9613 6.17519 40.1368 6 40.3534 6C40.57 6 40.7456 6.17519 40.7456 6.3913V9.16469C42.5657 9.35396 44 10.8455 44 12.6801C44 14.5147 42.5657 16.0063 40.7456 16.1956V20.4846C42.5657 20.6738 44 22.1654 44 24C44 25.8346 42.5657 27.3262 40.7456 27.5154V31.8044C42.5657 31.9937 44 33.4853 44 35.3199C44 37.1545 42.5657 38.646 40.7456 38.8353V41.6087C40.7456 41.8248 40.57 42 40.3534 42C40.1368 42 39.9613 41.8248 39.9613 41.6087V38.8353C38.2706 38.6595 36.9128 37.36 36.7282 35.7057C33.3699 35.6065 30.8507 34.1596 28.7894 32.056C27.723 30.9677 26.7754 29.6996 25.8933 28.3492C25.2524 28.867 24.6351 29.4076 24.0154 29.9533C23.9724 29.9912 23.9293 30.0291 23.8863 30.067C22.3274 31.4403 20.7394 32.8393 18.7483 33.8966C16.7691 34.9476 14.4034 35.6563 11.2715 35.7081C11.0859 37.3613 9.72861 38.6596 8.03873 38.8353V41.6087C8.03873 41.8248 7.86315 42 7.64657 42C7.42999 42 7.25441 41.8248 7.25441 41.6087V38.8353C5.43427 38.646 4 37.1544 4 35.3199C4 33.4853 5.43427 31.9937 7.25441 31.8044V27.5154C5.43427 27.3262 4 25.8346 4 24C4 22.1654 5.43427 20.6738 7.25441 20.4846V16.1956C5.43427 16.0063 4 14.5147 4 12.6801C4 10.8455 5.43427 9.35397 7.25441 9.16469V6.3913C7.25441 6.17519 7.42999 6 7.64657 6ZM8.03873 16.1956V20.4846C9.7265 20.6601 11.0825 21.9554 11.2708 23.6056C14.2753 23.5541 16.5153 22.876 18.3799 21.8858C19.3416 21.3751 20.2066 20.7801 21.0297 20.1379C20.1763 18.7944 19.279 17.5483 18.2783 16.4855C16.4112 14.5025 14.2045 13.1801 11.2704 13.0778C11.0807 14.7265 9.72539 16.0202 8.03873 16.1956ZM21.4462 20.8062C20.6151 21.4501 19.7308 22.055 18.7483 22.5767C16.7691 23.6278 14.4034 24.3365 11.2715 24.3883C11.0859 26.0414 9.72861 27.3397 8.03873 27.5154V31.8044C9.7265 31.98 11.0825 33.2752 11.2708 34.9254C14.2753 34.874 16.5153 34.1959 18.3799 33.2057C20.2883 32.1923 21.8156 30.847 23.3912 29.4592C23.4263 29.4283 23.4613 29.3974 23.4964 29.3665C24.1361 28.8032 24.7848 28.2345 25.4686 27.6854C24.7552 26.5484 24.0807 25.3658 23.4147 24.1929C23.3796 24.131 23.3445 24.0691 23.3094 24.0073C22.6907 22.9174 22.0781 21.8382 21.4462 20.8062ZM26.5121 27.8632C27.3843 29.2042 28.3107 30.448 29.3502 31.5088C31.2967 33.4954 33.6259 34.8251 36.7295 34.9228C36.919 33.2739 38.2744 31.9799 39.9613 31.8044V27.5154C38.2734 27.3399 36.9174 26.0445 36.7292 24.3941C33.5584 24.4432 31.1952 25.1237 29.2483 26.1171C28.2483 26.6274 27.3543 27.2219 26.5121 27.8632ZM36.7285 23.6115C33.4374 23.6609 30.9523 24.3687 28.8912 25.4203C27.8638 25.9446 26.9455 26.5527 26.0899 27.2004C25.4071 26.1076 24.7528 24.962 24.0971 23.8071C24.0541 23.7314 24.0111 23.6556 23.9681 23.5798C23.3448 22.4816 22.7182 21.3777 22.0638 20.3137C22.6895 19.8014 23.29 19.2724 23.8863 18.7472C23.9293 18.7092 23.9724 18.6713 24.0154 18.6335C25.6247 17.2164 27.2181 15.8332 29.2483 14.7972C31.1952 13.8038 33.5584 13.1234 36.7292 13.0743C36.9174 14.7246 38.2734 16.02 39.9613 16.1956V20.4846C38.2715 20.6603 36.9143 21.9585 36.7285 23.6115ZM7.64657 9.92702C6.05379 9.92702 4.78431 11.1714 4.78431 12.6801C4.78431 14.1888 6.05379 15.4332 7.64657 15.4332C9.23935 15.4332 10.5088 14.1888 10.5088 12.6801C10.5088 11.1714 9.23935 9.92702 7.64657 9.92702ZM40.3534 9.92702C38.7606 9.92702 37.4912 11.1714 37.4912 12.6801C37.4912 14.1888 38.7606 15.4332 40.3534 15.4332C41.9462 15.4332 43.2157 14.1888 43.2157 12.6801C43.2157 11.1714 41.9462 9.92702 40.3534 9.92702ZM7.64657 21.2469C6.05379 21.2469 4.78431 22.4913 4.78431 24C4.78431 25.5087 6.05379 26.7531 7.64657 26.7531C9.23935 26.7531 10.5088 25.5087 10.5088 24C10.5088 22.4913 9.23935 21.2469 7.64657 21.2469ZM40.3534 21.2469C38.7606 21.2469 37.4912 22.4913 37.4912 24C37.4912 25.5087 38.7606 26.7531 40.3534 26.7531C41.9462 26.7531 43.2157 25.5087 43.2157 24C43.2157 22.4913 41.9462 21.2469 40.3534 21.2469ZM7.64657 32.5668C6.05379 32.5668 4.78431 33.8112 4.78431 35.3199C4.78431 36.8286 6.05379 38.073 7.64657 38.073C9.23935 38.073 10.5088 36.8286 10.5088 35.3199C10.5088 33.8112 9.23935 32.5668 7.64657 32.5668ZM40.3534 32.5668C38.7606 32.5668 37.4912 33.8112 37.4912 35.3199C37.4912 36.8286 38.7606 38.073 40.3534 38.073C41.9462 38.073 43.2157 36.8286 43.2157 35.3199C43.2157 33.8112 41.9462 32.5668 40.3534 32.5668Z" fill="white"/>
</svg>
