<?xml version="1.0" encoding="UTF-8"?>
<svg width="52px" height="56px" viewBox="0 0 52 56" version="1.1" xmlns="http://www.w3.org/2000/svg" xmlns:xlink="http://www.w3.org/1999/xlink">
    <title>45D2F0C5-49C8-4087-89AE-C2F4CD5B9032</title>
    <g id="Support" stroke="none" stroke-width="1" fill="none" fill-rule="evenodd">
        <g id="Support-desktop" transform="translate(-934.000000, -590.000000)">
            <g id="2-nd-Part" transform="translate(0.000000, 478.000000)">
                <g id="Resources" transform="translate(780.000000, 80.000000)">
                    <g id="resources" transform="translate(45.000000, 20.000000)">
                        <g id="icon/Resources" transform="translate(95.000000, 0.000000)">
                            <g id="icon" transform="translate(15.000000, 13.000000)">
                                <polyline id="Path-8" stroke="#FFFFFF" stroke-width="0.666666667" points="5.0109945 37.4562688 5.0109945 17.3614769 20.5099273 6.89361702"></polyline>
                                <polyline id="Path-8-Copy" stroke="#FFFFFF" stroke-width="0.666666667" transform="translate(12.760461, 34.238773) scale(1, -1) translate(-12.760461, -34.238773) " points="5.0109945 49.5200986 5.0109945 29.4253067 20.5099273 18.9574468"></polyline>
                                <polyline id="Path-8-Copy-3" stroke="#FFFFFF" stroke-width="0.666666667" transform="translate(37.047339, 34.238773) scale(-1, -1) translate(-37.047339, -34.238773) " points="29.2978723 49.5200986 29.2978723 29.4253067 44.7968051 18.9574468"></polyline>
                                <polyline id="Path-8-Copy-2" stroke="#FFFFFF" stroke-width="0.666666667" transform="translate(37.047339, 22.174943) scale(-1, 1) translate(-37.047339, -22.174943) " points="29.2978723 37.4562688 29.2978723 19.0194333 44.7968051 6.89361702"></polyline>
                                <g id="Group-19" transform="translate(0.000000, 33.319149)">
                                    <circle id="Oval-Copy-6" stroke="#FFFFFF" stroke-width="0.666666667" fill="#261C5E" cx="5.3046383" cy="5.3046383" r="5.63797163"></circle>
                                    <g id="Group-6" transform="translate(2.666667, 2.666667)" fill="#FFFFFF">
                                        <path d="M0.212222437,5.23423809 L5.12771247,5.23423809 C5.09377676,4.49069949 4.78625293,3.86331475 3.56986539,3.62179478 C3.40193424,3.31315835 3.3163191,3.15742933 3.31302,3.15460769 C2.8927628,3.5223482 2.22343587,3.3482234 2.02482447,3.15460769 C2.02019569,3.15557148 1.93112854,3.31130051 1.75762301,3.62179478 C0.72381178,3.78941386 0.289767289,4.38471845 0.212222437,5.23423809 Z" id="Path-43"></path>
                                        <path d="M1.54415401,1.14768173 C1.53729343,-0.123610627 3.71555758,-0.293027825 3.80431131,1.14768173 C3.79014792,1.99816698 3.81296208,2.76548169 3.33158607,3.27278607 C3.04819321,3.59748516 2.38395148,3.64058108 2.03894268,3.27278607 C1.60508252,2.87254082 1.50248433,2.17637168 1.54415401,1.14768173 Z" id="Rectangle"></path>
                                    </g>
                                </g>
                                <g id="Group-19-Copy-5" transform="translate(39.063830, 33.319149)">
                                    <circle id="Oval-Copy-6" stroke="#FFFFFF" stroke-width="0.666666667" fill="#261C5E" cx="5.3046383" cy="5.3046383" r="5.63797163"></circle>
                                    <g id="Group-6" transform="translate(2.666667, 2.666667)" fill="#FFFFFF">
                                        <path d="M0.212222437,5.23423809 L5.12771247,5.23423809 C5.09377676,4.49069949 4.78625293,3.86331475 3.56986539,3.62179478 C3.40193424,3.31315835 3.3163191,3.15742933 3.31302,3.15460769 C2.8927628,3.5223482 2.22343587,3.3482234 2.02482447,3.15460769 C2.02019569,3.15557148 1.93112854,3.31130051 1.75762301,3.62179478 C0.72381178,3.78941386 0.289767289,4.38471845 0.212222437,5.23423809 Z" id="Path-43"></path>
                                        <path d="M1.54415401,1.14768173 C1.53729343,-0.123610627 3.71555758,-0.293027825 3.80431131,1.14768173 C3.79014792,1.99816698 3.81296208,2.76548169 3.33158607,3.27278607 C3.04819321,3.59748516 2.38395148,3.64058108 2.03894268,3.27278607 C1.60508252,2.87254082 1.50248433,2.17637168 1.54415401,1.14768173 Z" id="Rectangle"></path>
                                    </g>
                                </g>
                                <g id="Group-19-Copy" transform="translate(0.000000, 12.063830)" fill="#261C5E" stroke="#FFFFFF" stroke-width="0.666666667">
                                    <circle id="Oval-Copy-6" cx="5.3046383" cy="5.3046383" r="5.63797163"></circle>
                                </g>
                                <g id="Group-19-Copy-3" transform="translate(19.531915, 0.000000)">
                                    <circle id="Oval-Copy-6" stroke="#FFFFFF" stroke-width="0.666666667" fill="#261C5E" cx="5.3046383" cy="5.3046383" r="5.63797163"></circle>
                                    <g id="Group-6" transform="translate(2.666667, 2.666667)" fill="#FFFFFF">
                                        <path d="M0.212222437,5.23423809 L5.12771247,5.23423809 C5.09377676,4.49069949 4.78625293,3.86331475 3.56986539,3.62179478 C3.40193424,3.31315835 3.3163191,3.15742933 3.31302,3.15460769 C2.8927628,3.5223482 2.22343587,3.3482234 2.02482447,3.15460769 C2.02019569,3.15557148 1.93112854,3.31130051 1.75762301,3.62179478 C0.72381178,3.78941386 0.289767289,4.38471845 0.212222437,5.23423809 Z" id="Path-43"></path>
                                        <path d="M1.54415401,1.14768173 C1.53729343,-0.123610627 3.71555758,-0.293027825 3.80431131,1.14768173 C3.79014792,1.99816698 3.81296208,2.76548169 3.33158607,3.27278607 C3.04819321,3.59748516 2.38395148,3.64058108 2.03894268,3.27278607 C1.60508252,2.87254082 1.50248433,2.17637168 1.54415401,1.14768173 Z" id="Rectangle"></path>
                                    </g>
                                </g>
                                <g id="Group-19-Copy-4" transform="translate(19.531915, 43.085106)" fill="#261C5E" stroke="#FFFFFF" stroke-width="0.666666667">
                                    <circle id="Oval-Copy-6" cx="5.3046383" cy="5.3046383" r="5.63797163"></circle>
                                </g>
                                <g id="Group-19-Copy-2" transform="translate(39.063830, 13.212766)" fill="#261C5E" stroke="#FFFFFF" stroke-width="0.666666667">
                                    <circle id="Oval-Copy-6" cx="5.3046383" cy="5.3046383" r="5.63797163"></circle>
                                </g>
                            </g>
                        </g>
                    </g>
                </g>
            </g>
        </g>
    </g>
</svg>