<?xml version="1.0" encoding="UTF-8"?>
<svg width="50px" height="50px" viewBox="0 0 50 50" version="1.1" xmlns="http://www.w3.org/2000/svg" xmlns:xlink="http://www.w3.org/1999/xlink">
    <title>0DD4C55C-0F2A-4612-8B4B-EFF521FA6C03</title>
    <g id="Machine-Learning" stroke="none" stroke-width="1" fill="none" fill-rule="evenodd">
        <g id="Life-Sciences-desktop" transform="translate(-935.000000, -2504.000000)" stroke="#FFFFFF">
            <g id="Grakn-Makes-it-Easy-to-work-with-Biomedical-Data" transform="translate(0.000000, 2258.000000)">
                <g id="Contexualise-Newly-Generated-Insights" transform="translate(780.000000, 214.000000)">
                    <g id="icon" transform="translate(140.000000, 17.000000)">
                        <g id="Icon" transform="translate(15.000000, 15.000000)">
                            <circle id="Oval" fill="#261C5E" cx="24.4613065" cy="27.1767654" r="22.3084621"></circle>
                            <path d="M7.86632159,19.0727242 L13.8118953,22.3589726 C15.2734616,23.1668122 16.1807373,24.7049234 16.1807373,26.3748876 L16.1807373,48.0280887 L16.1807373,48.0280887" id="Path-11"></path>
                            <path d="M32.4216867,19.0727242 L38.3672605,22.3589726 C39.8288267,23.1668122 40.7361025,24.7049234 40.7361025,26.3748876 L40.7361025,48.0280887 L40.7361025,48.0280887" id="Path-11-Copy-2" transform="translate(36.578895, 33.550406) scale(-1, 1) translate(-36.578895, -33.550406) "></path>
                            <line x1="24.4613065" y1="2.93188937" x2="24.4613065" y2="49.5892182" id="Path-12"></line>
                            <path d="M24.3055556,0.5 C25.5098431,0.5 26.6001209,0.988133988 27.3893268,1.77733987 C28.1785327,2.56654575 28.6666667,3.65682353 28.6666667,4.86111111 C28.6666667,6.06539869 28.1785327,7.15567647 27.3893268,7.94488235 C26.6001209,8.73408823 25.5098431,9.22222222 24.3055556,9.22222222 C23.101268,9.22222222 22.0109902,8.73408823 21.2217843,7.94488235 C20.4325784,7.15567647 19.9444444,6.06539869 19.9444444,4.86111111 C19.9444444,3.65682353 20.4325784,2.56654575 21.2217843,1.77733987 C22.0109902,0.988133988 23.101268,0.5 24.3055556,0.5 Z" id="Oval" fill="#261C5E"></path>
                            <path d="M4.86111111,12.9698795 C6.06539869,12.9698795 7.15567647,13.4580135 7.94488235,14.2472194 C8.73408823,15.0364253 9.22222222,16.126703 9.22222222,17.3309906 C9.22222222,18.5352782 8.73408823,19.625556 7.94488235,20.4147619 C7.15567647,21.2039678 6.06539869,21.6921017 4.86111111,21.6921017 C3.65682353,21.6921017 2.56654575,21.2039678 1.77733987,20.4147619 C0.988133988,19.625556 0.5,18.5352782 0.5,17.3309906 C0.5,16.126703 0.988133988,15.0364253 1.77733987,14.2472194 C2.56654575,13.4580135 3.65682353,12.9698795 4.86111111,12.9698795 Z" id="Oval-Copy-22" fill="#261C5E"></path>
                            <path d="M44.8131523,12.9698795 C46.0174399,12.9698795 47.1077176,13.4580135 47.8969235,14.2472194 C48.6861294,15.0364253 49.1742634,16.126703 49.1742634,17.3309906 C49.1742634,18.5352782 48.6861294,19.625556 47.8969235,20.4147619 C47.1077176,21.2039678 46.0174399,21.6921017 44.8131523,21.6921017 C43.6088647,21.6921017 42.5185869,21.2039678 41.729381,20.4147619 C40.9401752,19.625556 40.4520412,18.5352782 40.4520412,17.3309906 C40.4520412,16.126703 40.9401752,15.0364253 41.729381,14.2472194 C42.5185869,13.4580135 43.6088647,12.9698795 44.8131523,12.9698795 Z" id="Oval-Copy-23" fill="#261C5E"></path>
                        </g>
                    </g>
                </g>
            </g>
        </g>
    </g>
</svg>