<?xml version="1.0" encoding="UTF-8"?>
<svg width="50px" height="54px" viewBox="0 0 50 54" version="1.1" xmlns="http://www.w3.org/2000/svg" xmlns:xlink="http://www.w3.org/1999/xlink">
    <title>In-Flight Encryption</title>
    <g id="Home" stroke="none" stroke-width="1" fill="none" fill-rule="evenodd">
        <g id="Home-Desktop" transform="translate(-535.000000, -5473.000000)" stroke="#FFFFFF">
            <g id="scale-knowledge" transform="translate(0.000000, 4810.000000)">
                <g id="Enterprise-Support" transform="translate(380.000000, 632.000000)">
                    <g id="icon" transform="translate(156.000000, 32.000000)">
                        <path d="M23.82295,4.89774044e-06 C24.009963,0.00054268831 24.1968322,0.0453689628 24.3651888,0.134430899 L24.3651888,0.134430899 L47.006651,11.0055551 C47.3680406,11.196733 47.5866245,11.5610203 47.5739449,11.9509594 C47.3436953,19.0197111 47.4937506,25.2019454 44.2915263,32.269567 C41.0628985,39.3954635 33.1870852,46.5073065 24.3966709,51.8331912 C24.2278566,51.9354714 24.0366404,51.9908729 23.8434292,51.9989628 C23.8249205,51.9993192 23.8062042,51.9998713 23.7874879,51.99998 C23.7687013,51.9998854 23.7496869,51.9993291 23.7306915,51.9983147 C23.5373774,51.9907424 23.3464127,51.935351 23.1777972,51.8331912 C14.3873829,46.5073065 6.51156956,39.3954635 3.28294182,32.269567 C0.0807175071,25.2019454 0.230772819,19.0197111 0.000523235065,11.9509594 C-0.0121564279,11.5610203 0.206427458,11.196733 0.567817108,11.0055551 L23.2092793,0.134430899 C23.3884588,0.0396435527 23.5886076,-0.0050378792 23.7875818,0.000450281838 Z" id="Combined-Shape"></path>
                        <g id="Group-7" transform="translate(15.489362, 13.170213)">
                            <circle id="Oval" cx="8.29417273" cy="12.6931944" r="1"></circle>
                            <rect id="Rectangle" x="-6.59028387e-13" y="7.74468085" width="16.5957447" height="12.1702128" rx="1.10638298"></rect>
                            <path d="M3.31914894,7.74468085 L3.31914894,4.9787234 C3.31914894,2.22905039 5.54819933,8.70414851e-14 8.29787234,8.70414851e-14 C11.0475454,8.70414851e-14 13.2765957,2.22905039 13.2765957,4.9787234 L13.2765957,7.74468085 L13.2765957,7.74468085" id="Path"></path>
                            <line x1="8.29787234" y1="13.1702128" x2="8.29787234" y2="15.1702128" id="Path-8" stroke-linecap="round"></line>
                        </g>
                    </g>
                </g>
            </g>
        </g>
    </g>
</svg>