<?xml version="1.0" encoding="UTF-8"?>
<svg width="53px" height="53px" viewBox="0 0 53 53" version="1.1" xmlns="http://www.w3.org/2000/svg" xmlns:xlink="http://www.w3.org/1999/xlink">
    <title>High Availability</title>
    <g id="Home" stroke="none" stroke-width="1" fill="none" fill-rule="evenodd">
        <g id="Home-Desktop" transform="translate(-534.000000, -5394.000000)">
            <g id="scale-knowledge" transform="translate(0.000000, 5030.000000)">
                <g id="High-Availability" transform="translate(380.000000, 332.000000)">
                    <g id="scalable-storage" transform="translate(40.000000, 32.000000)">
                        <g id="High-Availability" transform="translate(114.468085, 0.468085)">
                            <circle id="Oval" stroke="#FFFFFF" cx="25.5319149" cy="25.5319149" r="25.0319149"></circle>
                            <path d="M26.3803918,14.2851978 C27.5815639,14.2851978 28.7153775,14.5747285 29.7161621,15.0883343 C30.4778056,15.4792122 31.1624121,15.9997519 31.7411905,16.6208574 C32.4218487,17.3512935 32.9561685,18.2208527 33.2970421,19.1824862 C35.2977861,19.8509418 36.7251888,20.7575035 37.7387438,22.0140163 C38.7338402,23.2476458 39.3297872,24.8189471 39.3297872,26.5298991 C39.3297872,28.5130411 38.5290413,30.3085212 37.2341578,31.608162 C35.9399367,32.907138 34.1520307,33.7107297 32.1772819,33.7107298 L32.1772819,33.7107298 L18.4547719,33.7050169 C16.7817505,33.6813491 15.2710834,32.9847459 14.1790854,31.8730787 C13.0880301,30.7623712 12.4148936,29.2373055 12.4148936,27.5544916 C12.4148936,25.5969383 13.3258351,23.8528789 14.7456123,22.7262619 C14.9347594,21.1421161 15.4105155,20.0666779 16.1811184,19.2890874 C16.9518071,18.5114104 18.0172506,18.0319444 19.1943056,18.0319444 C21.3458965,15.7355383 23.6907992,14.2851978 26.3803918,14.2851978 Z" id="Combined-Shape" stroke="#FFFFFF"></path>
                            <rect id="Rectangle" fill="#261C5E" x="21.4468085" y="32.1681765" width="4.08510638" height="3.40425532"></rect>
                            <rect id="Rectangle-Copy-4" fill="#261C5E" transform="translate(30.532045, 15.654332) rotate(49.000000) translate(-30.532045, -15.654332) " x="28.4894917" y="13.952204" width="4.08510638" height="3.40425532"></rect>
                            <path d="M21.9301329,34.2013225 C22.2062753,34.2013225 22.4301329,33.9774649 22.4301329,33.7013225 C22.4301329,33.4251801 22.2062753,33.2013225 21.9301329,33.2013225 C21.8670316,33.2013225 21.700365,33.2013225 21.4301329,33.2013225 L21.4301329,34.2013225 C21.703175,34.2013225 21.8698417,34.2013225 21.9301329,34.2013225 Z" id="Oval" fill="#FFFFFF"></path>
                            <path d="M31.8492795,17.258628 C32.1254219,17.258628 32.3492795,17.0347704 32.3492795,16.758628 C32.3492795,16.4824857 32.1254219,16.258628 31.8492795,16.258628 C31.7861782,16.258628 31.6195116,16.258628 31.3492795,16.258628 L31.3492795,17.258628 C31.6223216,17.258628 31.7889883,17.258628 31.8492795,17.258628 Z" id="Oval-Copy-16" fill="#FFFFFF" transform="translate(31.849280, 16.758628) rotate(-131.000000) translate(-31.849280, -16.758628) "></path>
                            <path d="M28.0025078,11.8942746 L30.8525206,16.7800109 C30.956412,16.9581103 30.8962544,17.1867089 30.718155,17.2906002 C30.6610589,17.3239063 30.5961436,17.3414561 30.5300432,17.3414561 L24.8300175,17.3414561 C24.6238312,17.3414561 24.4566841,17.1743091 24.4566841,16.9681228 C24.4566841,16.9020224 24.474234,16.8371071 24.50754,16.7800109 L27.3575529,11.8942746 C27.4614442,11.7161752 27.6900428,11.6560177 27.8681422,11.759909 C27.9237702,11.7923587 27.9700581,11.8386466 28.0025078,11.8942746 Z" id="Triangle" fill="#FFFFFF" transform="translate(27.680030, 14.341456) rotate(-270.000000) translate(-27.680030, -14.341456) "></path>
                            <path d="M26.7373711,31.6677121 L29.5873839,36.5534484 C29.6912752,36.7315478 29.6311177,36.9601464 29.4530183,37.0640377 C29.3959222,37.0973438 29.3310069,37.1148936 29.2649065,37.1148936 L23.5648808,37.1148936 C23.3586945,37.1148936 23.1915474,36.9477466 23.1915474,36.7415603 C23.1915474,36.6754599 23.2090972,36.6105446 23.2424033,36.5534484 L26.0924162,31.6677121 C26.1963075,31.4896127 26.4249061,31.4294552 26.6030055,31.5333465 C26.6586335,31.5657962 26.7049214,31.6120841 26.7373711,31.6677121 Z" id="Triangle-Copy" fill="#FFFFFF" transform="translate(26.414894, 34.114894) scale(-1, 1) rotate(-270.000000) translate(-26.414894, -34.114894) "></path>
                        </g>
                    </g>
                </g>
            </g>
        </g>
    </g>
</svg>