<?xml version="1.0" encoding="UTF-8"?>
<svg width="46px" height="51px" viewBox="0 0 46 51" version="1.1" xmlns="http://www.w3.org/2000/svg" xmlns:xlink="http://www.w3.org/1999/xlink">
    <g id="Machine-Learning" stroke="none" stroke-width="1" fill="none" fill-rule="evenodd">
        <g id="Life-Sciences-desktop" transform="translate(-1336.000000, -2503.000000)">
            <g id="Grakn-Makes-it-Easy-to-work-with-Biomedical-Data" transform="translate(0.000000, 2258.000000)">
                <g id="Explain-New-Connections-in-Complex-Networks" transform="translate(1180.000000, 214.000000)">
                    <g id="icon" transform="translate(139.000000, 17.000000)">
                        <g id="Icon-omplexNetworks" transform="translate(18.000000, 15.000000)">
                            <g id="-" stroke="#FFFFFF">
                                <line x1="21.5450296" y1="7.39872355" x2="21.5450296" y2="41.6236575" id="Path-7" stroke-linecap="round"></line>
                                <line x1="21.5450296" y1="7.39872355" x2="21.5450296" y2="41.6236575" id="Path-7" stroke-linecap="round" transform="translate(21.480447, 24.467501) rotate(-120.000000) translate(-21.480447, -24.467501) "></line>
                                <line x1="21.5450296" y1="7.39872355" x2="21.5450296" y2="41.6236575" id="Path-7" stroke-linecap="round" transform="translate(21.480447, 24.467501) rotate(-60.000000) translate(-21.480447, -24.467501) "></line>
                                <path d="M21.5505746,8.18491853 C23.8107775,8.18491853 25.6430339,6.35266211 25.6430339,4.09245926 C25.6430339,1.83225642 23.8107775,0 21.5505746,0 C19.2903718,0 17.4581154,1.83225642 17.4581154,4.09245926 C17.4581154,6.35266211 19.2903718,8.18491853 21.5505746,8.18491853 Z" id="Oval" fill="#261C5E"></path>
                                <path d="M21.4859916,49.2815254 C23.7461944,49.2815254 25.5784509,47.449269 25.5784509,45.1890662 C25.5784509,42.9288633 23.7461944,41.0966069 21.4859916,41.0966069 C19.2257888,41.0966069 17.3935323,42.9288633 17.3935323,45.1890662 C17.3935323,47.449269 19.2257888,49.2815254 21.4859916,49.2815254 Z" id="Oval-Copy-5" fill="#261C5E"></path>
                                <path d="M39.6597045,18.1225362 C41.9199073,18.1225362 43.7521638,16.2902798 43.7521638,14.0300769 C43.7521638,11.7698741 41.9199073,9.93761767 39.6597045,9.93761767 C37.3995017,9.93761767 35.5672452,11.7698741 35.5672452,14.0300769 C35.5672452,16.2902798 37.3995017,18.1225362 39.6597045,18.1225362 Z" id="Oval-Copy-8" fill="#261C5E"></path>
                                <path d="M39.6597045,38.6721119 C41.9199073,38.6721119 43.7521638,36.8398555 43.7521638,34.5796526 C43.7521638,32.3194498 41.9199073,30.4871934 39.6597045,30.4871934 C37.3995017,30.4871934 35.5672452,32.3194498 35.5672452,34.5796526 C35.5672452,36.8398555 37.3995017,38.6721119 39.6597045,38.6721119 Z" id="Oval-Copy-21" fill="#261C5E"></path>
                                <path d="M4.09245926,18.1225362 C6.35266211,18.1225362 8.18491853,16.2902798 8.18491853,14.0300769 C8.18491853,11.7698741 6.35266211,9.93761767 4.09245926,9.93761767 C1.83225642,9.93761767 0,11.7698741 0,14.0300769 C0,16.2902798 1.83225642,18.1225362 4.09245926,18.1225362 Z" id="Oval-Copy-9" fill="#261C5E"></path>
                                <path d="M4.09245926,38.6721119 C6.35266211,38.6721119 8.18491853,36.8398555 8.18491853,34.5796526 C8.18491853,32.3194498 6.35266211,30.4871934 4.09245926,30.4871934 C1.83225642,30.4871934 6.20345003e-14,32.3194498 6.20345003e-14,34.5796526 C6.20345003e-14,36.8398555 1.83225642,38.6721119 4.09245926,38.6721119 Z" id="Oval-Copy-11" fill="#261C5E"></path>
                            </g>
                            <g id="Group-2" transform="translate(15.000000, 18.000000)">
                                <rect id="Rectangle" fill="#FFFFFF" x="1.02179689" y="4.72900196" width="11.6484846" height="1.5652982"></rect>
                                <rect id="Rectangle" stroke="#FFFFFF" fill="#261C5E" x="0.5" y="0.5" width="12.6920784" height="5.08368475" rx="0.704852087"></rect>
                                <rect id="Rectangle-Copy" stroke="#FFFFFF" fill="#261C5E" x="0.5" y="6.5" width="12.6920784" height="5.08368475" rx="0.704852087"></rect>
                                <circle id="Oval" fill="#FFFFFF" cx="2.5" cy="3" r="1"></circle>
                                <circle id="Oval-Copy" fill="#FFFFFF" cx="2.5" cy="8.5" r="1"></circle>
                            </g>
                        </g>
                    </g>
                </g>
            </g>
        </g>
    </g>
</svg>