<?xml version="1.0" encoding="UTF-8"?>
<svg width="37px" height="41px" viewBox="0 0 37 41" version="1.1" xmlns="http://www.w3.org/2000/svg" xmlns:xlink="http://www.w3.org/1999/xlink">
    <title>29A10910-B22C-4FE0-BBCC-3B8E2C46BD12</title>
    <g id="Services" stroke="none" stroke-width="1" fill="none" fill-rule="evenodd">
        <g id="Services-Desktop" transform="translate(-393.000000, -717.000000)" stroke="#FFFFFF" stroke-width="0.5">
            <g id="2nd-section" transform="translate(0.000000, 358.000000)">
                <g id="Knowledge-Modelling" transform="translate(380.000000, 348.000000)">
                    <g id="Icon" transform="translate(14.000000, 12.000000)">
                        <g id="Group-5">
                            <line x1="17.2360237" y1="5.91897884" x2="17.2360237" y2="33.298926" id="Path-7" stroke-linecap="round"></line>
                            <line x1="17.2360237" y1="5.91897884" x2="17.2360237" y2="33.298926" id="Path-7" stroke-linecap="round" transform="translate(17.184357, 19.574001) rotate(-120.000000) translate(-17.184357, -19.574001) "></line>
                            <line x1="17.2360237" y1="5.91897884" x2="17.2360237" y2="33.298926" id="Path-7" stroke-linecap="round" transform="translate(17.184357, 19.574001) rotate(-60.000000) translate(-17.184357, -19.574001) "></line>
                            <path d="M17.2404597,6.54793482 C19.048622,6.54793482 20.5144271,5.08212968 20.5144271,3.27396741 C20.5144271,1.46580514 19.048622,0 17.2404597,0 C15.4322974,0 13.9664923,1.46580514 13.9664923,3.27396741 C13.9664923,5.08212968 15.4322974,6.54793482 17.2404597,6.54793482 Z" id="Oval" fill="#261C5E"></path>
                            <path d="M17.1887933,39.4252203 C18.9969556,39.4252203 20.4627607,37.9594152 20.4627607,36.1512529 C20.4627607,34.3430907 18.9969556,32.8772855 17.1887933,32.8772855 C15.380631,32.8772855 13.9148259,34.3430907 13.9148259,36.1512529 C13.9148259,37.9594152 15.380631,39.4252203 17.1887933,39.4252203 Z" id="Oval-Copy-5" fill="#261C5E"></path>
                            <path d="M31.7277636,14.498029 C33.5359259,14.498029 35.001731,13.0322238 35.001731,11.2240615 C35.001731,9.41589927 33.5359259,7.95009413 31.7277636,7.95009413 C29.9196013,7.95009413 28.4537962,9.41589927 28.4537962,11.2240615 C28.4537962,13.0322238 29.9196013,14.498029 31.7277636,14.498029 Z" id="Oval-Copy-8" fill="#261C5E"></path>
                            <path d="M31.7277636,30.9376895 C33.5359259,30.9376895 35.001731,29.4718844 35.001731,27.6637221 C35.001731,25.8555598 33.5359259,24.3897547 31.7277636,24.3897547 C29.9196013,24.3897547 28.4537962,25.8555598 28.4537962,27.6637221 C28.4537962,29.4718844 29.9196013,30.9376895 31.7277636,30.9376895 Z" id="Oval-Copy-21" fill="#261C5E"></path>
                            <path d="M3.27396741,14.498029 C5.08212968,14.498029 6.54793482,13.0322238 6.54793482,11.2240615 C6.54793482,9.41589927 5.08212968,7.95009413 3.27396741,7.95009413 C1.46580514,7.95009413 0,9.41589927 0,11.2240615 C0,13.0322238 1.46580514,14.498029 3.27396741,14.498029 Z" id="Oval-Copy-9" fill="#261C5E"></path>
                            <path d="M3.27396741,30.9376895 C5.08212968,30.9376895 6.54793482,29.4718844 6.54793482,27.6637221 C6.54793482,25.8555598 5.08212968,24.3897547 3.27396741,24.3897547 C1.46580514,24.3897547 4.96276002e-14,25.8555598 4.96276002e-14,27.6637221 C4.96276002e-14,29.4718844 1.46580514,30.9376895 3.27396741,30.9376895 Z" id="Oval-Copy-11" fill="#261C5E"></path>
                        </g>
                        <path d="M17.3668902,11.6925672 C19.5529397,11.6925672 21.532036,12.5786388 22.9646199,14.0112228 C24.3972039,15.4438067 25.2832755,17.422903 25.2832755,19.6089524 C25.2832755,21.7950018 24.3972039,23.7740982 22.9646199,25.2066821 C21.532036,26.6392661 19.5529397,27.5253376 17.3668902,27.5253376 C15.1808408,27.5253376 13.2017445,26.6392661 11.7691606,25.2066821 C10.3365766,23.7740982 9.45050503,21.7950018 9.45050503,19.6089524 C9.45050503,17.422903 10.3365766,15.4438067 11.7691606,14.0112228 C13.2017445,12.5786388 15.1808408,11.6925672 17.3668902,11.6925672 Z" id="Oval" fill="#261C5E"></path>
                        <g id="Group-6" transform="translate(13.037765, 14.498029)" fill="#261C5E">
                            <path d="M0.0604583126,8.87110289 L8.60300184,8.87110289 C8.54402557,7.57892027 8.00958532,6.48859937 5.89564685,6.06886607 C5.60380225,5.53249227 5.45501322,5.26185353 5.44927976,5.25694986 C4.71892218,5.89603962 3.5557107,5.59343119 3.21054746,5.25694986 C3.20250318,5.25862481 3.04771494,5.52926355 2.74618275,6.06886607 C0.949540418,6.36016832 0.195222145,7.39473768 0.0604583126,8.87110289 Z" id="Path-43"></path>
                            <path d="M2.37519873,1.76914859 C2.36327584,-0.440207994 6.14884274,-0.734635158 6.30308627,1.76914859 C6.27847197,3.24719193 6.3181203,4.58069465 5.48154542,5.46232999 C4.98904195,6.02661881 3.83466796,6.10151445 3.23508324,5.46232999 C2.48108531,4.76675081 2.30278173,3.55689073 2.37519873,1.76914859 Z" id="Rectangle"></path>
                        </g>
                    </g>
                </g>
            </g>
        </g>
    </g>
</svg>