<?xml version="1.0" encoding="UTF-8"?>
<svg width="37px" height="43px" viewBox="0 0 37 43" version="1.1" xmlns="http://www.w3.org/2000/svg" xmlns:xlink="http://www.w3.org/1999/xlink">
    <title>Knowledge Graphs</title>
    <g id="Home" stroke="none" stroke-width="1" fill="none" fill-rule="evenodd">
        <g id="Home-Desktop" transform="translate(-1141.000000, -4633.000000)" stroke="#FFFFFF">
            <g id="empower-organisation" transform="translate(0.000000, 3578.000000)">
                <g id="icon-block" transform="translate(478.000000, 1037.000000)">
                    <g id="Knowledge-Graph" transform="translate(623.000000, 0.000000)">
                        <g id="Icon" transform="translate(41.000000, 19.000000)">
                            <g id="Group-5">
                                <line x1="17.4479873" y1="6.23379624" x2="17.4479873" y2="35.6672395" id="Path-7" stroke-linecap="round"></line>
                                <line x1="17.0304298" y1="4.98761883" x2="18.4011252" y2="35.9281065" id="Path-7-Copy" stroke-linecap="round" transform="translate(17.715778, 20.457863) scale(-1, 1) rotate(-57.463397) translate(-17.715778, -20.457863) "></line>
                                <line x1="17.0304298" y1="4.98761883" x2="18.4011252" y2="35.9281065" id="Path-7-Copy-2" stroke-linecap="round" transform="translate(17.715778, 20.457863) rotate(-57.463397) translate(-17.715778, -20.457863) "></line>
                                <path d="M17.5,7 C19.4329966,7 21,5.43299662 21,3.5 C21,1.56700338 19.4329966,0 17.5,0 C15.5670034,0 14,1.56700338 14,3.5 C14,5.43299662 15.5670034,7 17.5,7 Z" id="Oval" fill="#261C5E"></path>
                                <path d="M17.5,41 C19.4329966,41 21,39.4329966 21,37.5 C21,35.5670034 19.4329966,34 17.5,34 C15.5670034,34 14,35.5670034 14,37.5 C14,39.4329966 15.5670034,41 17.5,41 Z" id="Oval-Copy-5" fill="#261C5E"></path>
                                <path d="M31.5,15 C33.4329966,15 35,13.4329966 35,11.5 C35,9.56700338 33.4329966,8 31.5,8 C29.5670034,8 28,9.56700338 28,11.5 C28,13.4329966 29.5670034,15 31.5,15 Z" id="Oval-Copy-8" fill="#261C5E"></path>
                                <path d="M31.5,33 C33.4329966,33 35,31.4329966 35,29.5 C35,27.5670034 33.4329966,26 31.5,26 C29.5670034,26 28,27.5670034 28,29.5 C28,31.4329966 29.5670034,33 31.5,33 Z" id="Oval-Copy-21" fill="#261C5E"></path>
                                <path d="M3.5,15 C5.43299662,15 7,13.4329966 7,11.5 C7,9.56700338 5.43299662,8 3.5,8 C1.56700338,8 0,9.56700338 0,11.5 C0,13.4329966 1.56700338,15 3.5,15 Z" id="Oval-Copy-9" fill="#261C5E"></path>
                                <path d="M3.5,33 C5.43299662,33 7,31.4329966 7,29.5 C7,27.5670034 5.43299662,26 3.5,26 C1.56700338,26 0,27.5670034 0,29.5 C0,31.4329966 1.56700338,33 3.5,33 Z" id="Oval-Copy-11" fill="#261C5E"></path>
                            </g>
                            <path d="M17.5,16.5 C18.6045695,16.5 19.6045695,16.9477153 20.3284271,17.6715729 C21.0522847,18.3954305 21.5,19.3954305 21.5,20.5 C21.5,21.6045695 21.0522847,22.6045695 20.3284271,23.3284271 C19.6045695,24.0522847 18.6045695,24.5 17.5,24.5 C16.3954305,24.5 15.3954305,24.0522847 14.6715729,23.3284271 C13.9477153,22.6045695 13.5,21.6045695 13.5,20.5 C13.5,19.3954305 13.9477153,18.3954305 14.6715729,17.6715729 C15.3954305,16.9477153 16.3954305,16.5 17.5,16.5 Z" id="Oval" fill="#261C5E"></path>
                        </g>
                    </g>
                </g>
            </g>
        </g>
    </g>
</svg>