<?xml version="1.0" encoding="UTF-8"?>
<svg width="40px" height="40px" viewBox="0 0 40 40" version="1.1" xmlns="http://www.w3.org/2000/svg" xmlns:xlink="http://www.w3.org/1999/xlink">
    <title>10B19319-67D8-473A-B063-693E5498B71F</title>
    <g id="Services" stroke="none" stroke-width="1" fill="none" fill-rule="evenodd">
        <g id="Services-Desktop" transform="translate(-392.000000, -450.000000)" stroke="#FFFFFF">
            <g id="2nd-section" transform="translate(0.000000, 358.000000)">
                <g id="Learning-and-Training" transform="translate(380.000000, 80.000000)">
                    <g id="Icon" transform="translate(12.000000, 12.000000)">
                        <circle id="Oval" stroke-width="0.555555556" fill="#261C5E" cx="19.942029" cy="19.942029" r="19.6642512"></circle>
                        <line x1="20.173913" y1="0.154589372" x2="20.173913" y2="39.7294686" id="Path-15" stroke-width="0.555555556"></line>
                        <line x1="0" y1="18.9371981" x2="39.5748792" y2="18.9371981" id="Path-16" stroke-width="0.555555556"></line>
                        <path d="M6.7189151,5.41062802 C10.0482202,10.9841341 14.5423873,10.6476227 14.3721137,18.914403 C14.3573422,26.2633241 7.96445813,28.3928338 5.71980676,33.5458937" id="Path-17" stroke-width="0.555555556"></path>
                        <path d="M27.1223824,5.56521739 C30.7008104,11.3976071 34.7908357,10.7656697 34.6230217,18.8684924 C34.6084355,26.0855202 29.4837559,26.8409892 26.1256039,33.236715" id="Path-17-Copy" stroke-width="0.555555556" transform="translate(30.376812, 19.400966) scale(-1, 1) translate(-30.376812, -19.400966) "></path>
                        <path d="M12.5217391,21.0833333 C13.5726143,21.0833333 14.5240032,21.5092846 15.2126733,22.1979547 C15.9013434,22.8866249 16.3272947,23.8380137 16.3272947,24.8888889 C16.3272947,25.939764 15.9013434,26.8911529 15.2126733,27.579823 C14.5240032,28.2684931 13.5726143,28.6944444 12.5217391,28.6944444 C11.470864,28.6944444 10.5194751,28.2684931 9.83080499,27.579823 C9.14213489,26.8911529 8.71618357,25.939764 8.71618357,24.8888889 C8.71618357,23.8380137 9.14213489,22.8866249 9.83080499,22.1979547 C10.5194751,21.5092846 11.470864,21.0833333 12.5217391,21.0833333 Z" id="Oval" stroke-width="0.5" fill="#261C5E"></path>
                        <path d="M27.6714976,8.71618357 C28.7223727,8.71618357 29.6737616,9.14213489 30.3624317,9.83080499 C31.0511018,10.5194751 31.4770531,11.470864 31.4770531,12.5217391 C31.4770531,13.5726143 31.0511018,14.5240032 30.3624317,15.2126733 C29.6737616,15.9013434 28.7223727,16.3272947 27.6714976,16.3272947 C26.6206224,16.3272947 25.6692335,15.9013434 24.9805634,15.2126733 C24.2918933,14.5240032 23.865942,13.5726143 23.865942,12.5217391 C23.865942,11.470864 24.2918933,10.5194751 24.9805634,9.83080499 C25.6692335,9.14213489 26.6206224,8.71618357 27.6714976,8.71618357 Z" id="Oval-Copy-3" stroke-width="0.5" fill="#261C5E"></path>
                        <path d="M29.9903382,24.3297101 C31.0412133,24.3297101 31.9926022,24.7556615 32.6812723,25.4443316 C33.3699424,26.1330017 33.7958937,27.0843906 33.7958937,28.1352657 C33.7958937,29.1861408 33.3699424,30.1375297 32.6812723,30.8261998 C31.9926022,31.5148699 31.0412133,31.9408213 29.9903382,31.9408213 C28.939463,31.9408213 27.9880741,31.5148699 27.299404,30.8261998 C26.6107339,30.1375297 26.1847826,29.1861408 26.1847826,28.1352657 C26.1847826,27.0843906 26.6107339,26.1330017 27.299404,25.4443316 C27.9880741,24.7556615 28.939463,24.3297101 29.9903382,24.3297101 Z" id="Oval-Copy-4" stroke-width="0.5" fill="#261C5E"></path>
                    </g>
                </g>
            </g>
        </g>
    </g>
</svg>