<?xml version="1.0" encoding="UTF-8"?>
<svg width="55px" height="55px" viewBox="0 0 55 55" version="1.1" xmlns="http://www.w3.org/2000/svg" xmlns:xlink="http://www.w3.org/1999/xlink">
    <title>662C51FB-5E38-4BFA-B93B-594FDDE06995</title>
    <g id="Support" stroke="none" stroke-width="1" fill="none" fill-rule="evenodd">
        <g id="Support-desktop" transform="translate(-534.000000, -589.000000)" stroke="#FFFFFF" stroke-width="0.666666667">
            <g id="2-nd-Part" transform="translate(0.000000, 478.000000)">
                <g id="Grakn-Support" transform="translate(380.000000, 80.000000)">
                    <g id="grakn-support" transform="translate(48.000000, 18.000000)">
                        <g id="icon/Grakn-Support" transform="translate(93.000000, 0.000000)">
                            <g id="lifebuoy" transform="translate(13.333333, 13.333333)">
                                <path d="M33.3024902,0.936360677 L30.6666667,12.6666667 M22.6666667,12.6666667 L19.9691569,0.936360677" id="Shape"></path>
                                <path d="M53.1676432,20.8015137 L50.5318197,32.5318197 M42.5318197,32.5318197 L39.8343099,20.8015137" id="Shape" transform="translate(46.500977, 26.666667) rotate(90.000000) translate(-46.500977, -26.666667) "></path>
                                <path d="M33.3024902,40.6666667 L30.6666667,52.3969727 M22.6666667,52.3969727 L19.9691569,40.6666667" id="Shape" transform="translate(26.635824, 46.531820) rotate(180.000000) translate(-26.635824, -46.531820) "></path>
                                <path d="M13.4373372,20.8015137 L10.8015137,32.5318197 M2.80151367,32.5318197 L0.104003906,20.8015137" id="Shape" transform="translate(6.770671, 26.666667) rotate(270.000000) translate(-6.770671, -26.666667) "></path>
                                <circle id="Oval" fill="#261C5E" cx="26.6666667" cy="26.6666667" r="15"></circle>
                                <circle id="Oval-Copy" cx="26.6666667" cy="26.6666667" r="26.3333333"></circle>
                            </g>
                        </g>
                    </g>
                </g>
            </g>
        </g>
    </g>
</svg>