<?xml version="1.0" encoding="UTF-8"?>
<svg width="47px" height="47px" viewBox="0 0 47 47" version="1.1" xmlns="http://www.w3.org/2000/svg" xmlns:xlink="http://www.w3.org/1999/xlink">
    <title>Life Sciences</title>
    <g id="Home" stroke="none" stroke-width="1" fill="none" fill-rule="evenodd">
        <g id="Home-Desktop" transform="translate(-537.000000, -4630.000000)" stroke="#02DAC9">
            <g id="empower-organisation" transform="translate(0.000000, 3578.000000)">
                <g id="icon-block" transform="translate(478.000000, 1037.000000)">
                    <g id="icon" transform="translate(60.000000, 16.000000)">
                        <g id="Group" transform="translate(13.982322, 14.226548)">
                            <line x1="0" y1="9.27345228" x2="8.01767763" y2="17.1715693" id="Path-5" fill="#D8D8D8"></line>
                            <line x1="9.12921143" y1="0" x2="17.1468891" y2="7.89811707" id="Path-5-Copy-5" fill="#D8D8D8"></line>
                            <line x1="6.02691874" y1="0.753219604" x2="16.5939267" y2="11.0769677" id="Path-5-Copy-4" fill="#D8D8D8"></line>
                            <line x1="0.426813451" y1="6.03457594" x2="10.9938214" y2="16.3583241" id="Path-5-Copy-7" fill="#D8D8D8"></line>
                            <line x1="3.59838709" y1="1.94746685" x2="15.4057449" y2="13.4637952" id="Path-5-Copy-3" fill="#D8D8D8"></line>
                            <line x1="1.62496218" y1="3.61800766" x2="13.43232" y2="15.134336" id="Path-5-Copy-6"></line>
                        </g>
                        <path d="M0,33.4660748 C3.99416667,30.536432 8.78994048,29.7747058 14.3873214,31.1808962 C19.8343529,32.5493155 25.8490609,31.8406611 29.0589286,27.9717891 C31.6704359,24.8241243 31.6252131,19.8157381 30.7657143,15.0117891 C29.6278571,8.6520272 30.433869,3.80280101 33.18375,0.464110531" id="Path-20" stroke-width="1.42222222" stroke-linecap="round"></path>
                        <path d="M11.7028571,45.168932 C15.6970238,42.2392891 20.4927976,41.4775629 26.0901786,42.8837534 C31.53721,44.2521726 37.551918,43.5435182 40.7617857,39.6746462 C43.373293,36.5269815 43.3280702,31.5185953 42.4685714,26.7146462 C41.3307143,20.3548843 42.1367262,15.5056581 44.8866071,12.1669677" id="Path-20-Copy" stroke-width="1.42222222" stroke-linecap="round" transform="translate(28.294732, 28.667950) scale(-1, -1) translate(-28.294732, -28.667950) "></path>
                        <g id="Group-3" transform="translate(30.571461, 1.999652)">
                            <line x1="2.00326133" y1="-4.79616347e-14" x2="13.0986078" y2="10.7961144" id="Path-4" fill="#D8D8D8"></line>
                            <line x1="0.511281727" y1="2.28751898" x2="10.8784162" y2="12.2989528" id="Path-4-Copy" fill="#D8D8D8"></line>
                            <line x1="-6.13481385e-13" y1="5.39805722" x2="7.87165046" y2="13.0253663" id="Path-4-Copy-2"></line>
                        </g>
                        <g id="Group-2-Copy" transform="translate(7.447006, 36.735717) scale(-1, -1) translate(-7.447006, -36.735717) translate(0.447006, 29.735717)">
                            <line x1="2.00326133" y1="-4.79616347e-14" x2="13.0986078" y2="10.7961144" id="Path-4" fill="#D8D8D8"></line>
                            <line x1="0.511281727" y1="2.28751898" x2="10.8784162" y2="12.2989528" id="Path-4-Copy" fill="#D8D8D8"></line>
                            <line x1="-6.13481385e-13" y1="5.39805722" x2="7.87165046" y2="13.0253663" id="Path-4-Copy-2"></line>
                        </g>
                    </g>
                </g>
            </g>
        </g>
    </g>
</svg>