<?xml version="1.0" encoding="UTF-8"?>
<svg width="50px" height="33px" viewBox="0 0 50 33" version="1.1" xmlns="http://www.w3.org/2000/svg" xmlns:xlink="http://www.w3.org/1999/xlink">
    <title>F8A06058-0E53-4A5E-AA2E-80B0951A4811</title>
    <g id="Machine-Learning" stroke="none" stroke-width="1" fill="none" fill-rule="evenodd">
        <g id="Machine-Learning-tablet" transform="translate(-287.000000, -2906.000000)" stroke="#FFFFFF">
            <g id="KGCNs-Make-Predictions-over-Grakn" transform="translate(0.000000, 2295.000000)">
                <g id="Learning-with-Reasoning" transform="translate(132.000000, 570.000000)">
                    <g transform="translate(23.000000, 18.000000)" id="icon-learning">
                        <g transform="translate(117.000000, 0.000000)">
                            <g id="icon" transform="translate(15.000000, 24.000000)">
                                <path d="M40.1392619,11.3721212 L40.1392619,12.4471029 L40.1392619,27.3727733 C40.1392635,27.7990396 39.8795507,28.1822925 39.4836378,28.3402669 C34.7104683,30.2448242 29.7199981,31.1971029 24.5122274,31.1971029 C19.3045096,31.1971029 14.3153278,30.2448436 9.54468217,28.340325 C9.14888559,28.182279 8.88926188,27.7990852 8.88926188,27.3729005 L8.88926188,12.4471029 L8.88926188,12.4471029 L8.88926188,11.3721212" id="Path"></path>
                                <path d="M48.0684935,11.594171 L25.2645337,0.369077288 C24.7917577,0.136356507 24.2377257,0.136333942 23.7649307,0.369016209 L0.956177341,11.5941614 C0.69809077,11.7211767 0.591836462,12.0333634 0.7188517,12.2914499 C0.770039748,12.3954607 0.854464532,12.4794216 0.958755735,12.5300357 L23.7728664,23.6020828 C24.2410162,23.8292833 24.7874989,23.8292655 25.2556339,23.6020345 L48.0659076,12.5300117 C48.3246819,12.4044036 48.4326344,12.0928001 48.3070263,11.8340258 C48.2564168,11.7297614 48.1724765,11.645356 48.0684935,11.594171 Z" id="Path-7" fill="#261C5E"></path>
                            </g>
                        </g>
                    </g>
                </g>
            </g>
        </g>
    </g>
</svg>