<?xml version="1.0" encoding="UTF-8"?>
<svg width="42px" height="36px" viewBox="0 0 42 36" version="1.1" xmlns="http://www.w3.org/2000/svg" xmlns:xlink="http://www.w3.org/1999/xlink">
    <title>Robotics</title>
    <g id="Home" stroke="none" stroke-width="1" fill="none" fill-rule="evenodd">
        <g id="Home-Desktop" transform="translate(-939.000000, -4543.000000)" stroke="#FFFFFF">
            <g id="empower-organisation" transform="translate(0.000000, 3503.000000)">
                <g id="icon-block" transform="translate(478.000000, 1019.000000)">
                    <g id="Telecommunications" transform="translate(442.000000, 0.000000)">
                        <g id="Robotics" transform="translate(20.000000, 22.000000)">
                            <line x1="19.6610169" y1="5.72277228" x2="19.6610169" y2="9.42574257" id="Path"></line>
                            <ellipse id="Oval" cx="25.7627119" cy="18.5148515" rx="3.05084746" ry="3.02970297"></ellipse>
                            <ellipse id="Oval" cx="13.5612881" cy="18.5148515" rx="3.05084746" ry="3.02970297"></ellipse>
                            <ellipse id="Oval" cx="19.6610169" cy="3.02970297" rx="3.05084746" ry="3.02970297"></ellipse>
                            <path d="M5.08474576,31.3069307 L5.08474576,11.7821782 C5.08474576,10.4807525 6.14711864,9.42574257 7.45762712,9.42574257 L32.5423729,9.42574257 C33.8528814,9.42574257 34.9152542,10.4807525 34.9152542,11.7821782 L34.9152542,31.3069307 C34.9152542,32.6083564 33.8528814,33.6633663 32.5423729,33.6633663 L7.45762712,33.6633663 C6.14711864,33.6633663 5.08474576,32.6083564 5.08474576,31.3069307 Z" id="Path"></path>
                            <path d="M12.8813559,34 L12.8813559,29.960396 C12.8813559,28.4730812 14.0955254,27.2673267 15.5932203,27.2673267 L24.4067797,27.2673267 C25.9044746,27.2673267 27.1186441,28.4730812 27.1186441,29.960396 L27.1186441,34" id="Path"></path>
                            <path d="M34.5762712,26.5940594 C37.5717288,26.5940594 40,24.1826178 40,21.2079208 C40,18.2332238 37.5717288,15.8217822 34.5762712,15.8217822" id="Path"></path>
                            <path d="M5.42372881,26.5940594 C2.42828475,26.5940594 0,24.1826178 0,21.2079208 C0,18.2332238 2.42828475,15.8217822 5.42372881,15.8217822" id="Path"></path>
                        </g>
                    </g>
                </g>
            </g>
        </g>
    </g>
</svg>