<svg width="24" height="24" viewBox="0 0 24 24" fill="none" xmlns="http://www.w3.org/2000/svg">
<path d="M8.33604 12.5407C8.33604 13.331 8.91778 13.9746 9.6238 13.9746C10.3411 13.9746 10.9115 13.331 10.9115 12.5407C10.9228 11.756 10.3467 11.1068 9.6238 11.1068C8.9065 11.1068 8.33604 11.7504 8.33604 12.5407Z" fill="white"/>
<path d="M13.0973 12.5407C13.0973 13.331 13.6791 13.9746 14.385 13.9746C15.108 13.9746 15.6728 13.331 15.6728 12.5407C15.6841 11.756 15.108 11.1068 14.385 11.1068C13.6678 11.1068 13.0973 11.7504 13.0973 12.5407Z" fill="white"/>
<path fill-rule="evenodd" clip-rule="evenodd" d="M4.14286 2H19.8571C21.0402 2 22 2.95982 22 4.14286V19.8571C22 21.0402 21.0402 22 19.8571 22H4.14286C2.95982 22 2 21.0402 2 19.8571V4.14286C2 2.95982 2.95982 2 4.14286 2ZM16.9656 7.47702C16.9737 7.48029 16.9803 7.48629 16.9843 7.49396C18.6024 9.85702 19.4016 12.5226 19.1028 15.5914C19.1022 15.5978 19.1002 15.6041 19.097 15.6097C19.0938 15.6154 19.0894 15.6203 19.0841 15.6241C18.0011 16.4208 16.7891 17.028 15.5004 17.4197C15.4912 17.4225 15.4815 17.4223 15.4725 17.4193C15.4634 17.4163 15.4556 17.4105 15.4501 17.4028C15.1775 17.0272 14.933 16.6323 14.7187 16.2212C14.7157 16.2155 14.714 16.2093 14.7137 16.2029C14.7133 16.1966 14.7143 16.1902 14.7166 16.1842C14.7189 16.1782 14.7225 16.1728 14.727 16.1683C14.7316 16.1638 14.737 16.1603 14.743 16.158C15.1301 16.0135 15.5042 15.8367 15.8613 15.6296C15.8678 15.6258 15.8732 15.6204 15.8771 15.614C15.881 15.6076 15.8832 15.6003 15.8836 15.5929C15.884 15.5854 15.8826 15.5779 15.8794 15.5711C15.8762 15.5644 15.8713 15.5585 15.8653 15.554C15.7896 15.4981 15.7145 15.4394 15.6427 15.3807C15.6363 15.3754 15.6284 15.3721 15.6201 15.3711C15.6118 15.3701 15.6034 15.3715 15.5959 15.375C13.2786 16.438 10.7398 16.438 8.39477 15.375C8.38724 15.3717 8.37891 15.3705 8.37073 15.3716C8.36255 15.3727 8.35484 15.376 8.34847 15.3812C8.27675 15.44 8.20159 15.4981 8.12649 15.554C8.12048 15.5585 8.11569 15.5644 8.11254 15.5712C8.10939 15.5781 8.10798 15.5855 8.10842 15.593C8.10887 15.6005 8.11116 15.6077 8.1151 15.6141C8.11903 15.6205 8.1245 15.6258 8.131 15.6296C8.48894 15.835 8.8627 16.0119 9.24876 16.1586C9.25478 16.1608 9.26025 16.1642 9.26484 16.1686C9.26942 16.1731 9.273 16.1784 9.27535 16.1844C9.27769 16.1903 9.27875 16.1966 9.27845 16.203C9.27815 16.2093 9.27649 16.2156 9.27359 16.2212C9.06274 16.6346 8.81792 17.03 8.54162 17.4034C8.53592 17.4109 8.52805 17.4165 8.51907 17.4194C8.51008 17.4224 8.5004 17.4225 8.49134 17.4198C7.20491 17.0268 5.99503 16.4196 4.91334 15.6241C4.90815 15.6201 4.90382 15.615 4.90062 15.6093C4.89741 15.6036 4.8954 15.5973 4.8947 15.5908C4.64506 12.9364 5.15394 10.2488 7.01158 7.4934C7.01612 7.48611 7.02283 7.48039 7.03078 7.47704C7.95969 7.05331 8.94015 6.75139 9.94747 6.57888C9.95661 6.57745 9.96597 6.57879 9.97434 6.58272C9.9827 6.58665 9.98968 6.59299 9.99436 6.60091C10.1309 6.84087 10.2541 7.08813 10.3632 7.34157C11.4489 7.17787 12.5533 7.17787 13.639 7.34157C13.7474 7.08877 13.8686 6.84157 14.0021 6.60091C14.0066 6.59281 14.0136 6.58632 14.022 6.58237C14.0304 6.57841 14.0398 6.57719 14.049 6.57888C15.0562 6.75175 16.0366 7.05365 16.9656 7.47702Z" fill="white"/>
</svg>
