<svg width="24" height="24" viewBox="0 0 24 24" fill="none" xmlns="http://www.w3.org/2000/svg">
<path fill-rule="evenodd" clip-rule="evenodd" d="M17.839 21.196H3.58C2.156 21.196 1 20.131 1 18.72V2.48C1 1.142 2.158 0.003 3.585 0.003L20.352 0C21.78 0 22.932 1.137 23 2.475V24C23 24 17.259 19.079 17.158 18.991L17.839 21.196ZM16.7646 6.64782C16.7608 6.64084 16.7545 6.63538 16.7468 6.6324C15.8587 6.24725 14.9215 5.97261 13.9587 5.81535C13.9499 5.81381 13.9409 5.81492 13.9329 5.81852C13.9248 5.82212 13.9182 5.82802 13.9139 5.83539C13.7863 6.05432 13.6704 6.27921 13.5668 6.50918C12.5289 6.36026 11.4732 6.36026 10.4353 6.50918C10.331 6.27862 10.2133 6.05368 10.0827 5.83539C10.0783 5.82818 10.0716 5.82241 10.0636 5.81884C10.0556 5.81526 10.0467 5.81405 10.0379 5.81535C9.07499 5.97228 8.13774 6.24694 7.24977 6.63242C7.24217 6.63547 7.23576 6.64067 7.23142 6.64731C5.45565 9.15396 4.9692 11.599 5.20783 14.0137C5.2085 14.0196 5.21043 14.0254 5.21349 14.0306C5.21655 14.0358 5.22069 14.0403 5.22565 14.044C6.25967 14.7677 7.41622 15.3201 8.64597 15.6776C8.65463 15.68 8.66388 15.6799 8.67247 15.6773C8.68106 15.6746 8.68858 15.6695 8.69403 15.6627C8.95815 15.323 9.19218 14.9633 9.39374 14.5872C9.39651 14.5821 9.3981 14.5764 9.39838 14.5706C9.39867 14.5649 9.39766 14.5591 9.39542 14.5537C9.39318 14.5483 9.38975 14.5434 9.38537 14.5394C9.38099 14.5354 9.37576 14.5322 9.37001 14.5302C9.00096 14.3968 8.64367 14.2359 8.3015 14.0491C8.29529 14.0456 8.29007 14.0408 8.2863 14.0349C8.28254 14.0291 8.28035 14.0225 8.27992 14.0157C8.2795 14.0089 8.28085 14.0021 8.28386 13.9959C8.28687 13.9897 8.29145 13.9843 8.29719 13.9802C8.36899 13.9294 8.44083 13.8765 8.50939 13.8231C8.51548 13.8183 8.52285 13.8153 8.53067 13.8143C8.53849 13.8133 8.54645 13.8144 8.55365 13.8174C10.7953 14.7845 13.2222 14.7845 15.4374 13.8174C15.4446 13.8142 15.4526 13.813 15.4606 13.8139C15.4685 13.8148 15.476 13.8178 15.4822 13.8226C15.5508 13.876 15.6226 13.9294 15.6949 13.9802C15.7007 13.9843 15.7053 13.9897 15.7084 13.9958C15.7114 14.002 15.7128 14.0088 15.7125 14.0156C15.7121 14.0224 15.71 14.029 15.7062 14.0348C15.7025 14.0407 15.6973 14.0456 15.6912 14.0491C15.3498 14.2374 14.9922 14.3982 14.6221 14.5297C14.6164 14.5318 14.6112 14.535 14.6068 14.5391C14.6025 14.5432 14.5991 14.5481 14.5969 14.5536C14.5947 14.559 14.5937 14.5648 14.5941 14.5706C14.5944 14.5764 14.596 14.5821 14.5988 14.5872C14.8038 14.9612 15.0375 15.3205 15.298 15.6621C15.3033 15.6691 15.3108 15.6744 15.3194 15.6771C15.3281 15.6799 15.3374 15.68 15.3461 15.6775C16.578 15.3212 17.7366 14.7688 18.7719 14.044C18.777 14.0405 18.7812 14.0361 18.7842 14.0309C18.7873 14.0258 18.7892 14.0201 18.7897 14.0142C19.0754 11.2225 18.3114 8.79755 16.7646 6.64782ZM8.49751 11.239C8.49751 11.958 9.05361 12.5434 9.72852 12.5434C10.4142 12.5434 10.9595 11.958 10.9595 11.2389C10.9703 10.5251 10.4196 9.93453 9.72852 9.93453C9.04283 9.93453 8.49751 10.52 8.49751 11.239ZM14.2799 12.5434C13.605 12.5434 13.0489 11.958 13.0489 11.239C13.0489 10.52 13.5943 9.93453 14.2799 9.93453C14.971 9.93453 15.5217 10.5251 15.5109 11.2389C15.5109 11.958 14.971 12.5434 14.2799 12.5434Z" fill="white"/>
</svg>
