<svg width="24" height="24" viewBox="0 0 24 24" fill="none" xmlns="http://www.w3.org/2000/svg">
<path fill-rule="evenodd" clip-rule="evenodd" d="M16.7774 19.6633H5.11091C3.94582 19.6633 3 18.7758 3 17.6V4.06667C3 2.95167 3.94745 2.0025 5.115 2.0025L18.8335 2C20.0018 2 20.9444 2.9475 21 4.0625V22C21 22 16.3028 17.8992 16.2202 17.8258L16.7774 19.6633ZM15.8983 7.53985C15.8952 7.53404 15.89 7.52948 15.8837 7.527C15.1571 7.20604 14.3903 6.97718 13.6026 6.84612C13.5954 6.84484 13.588 6.84577 13.5814 6.84877C13.5749 6.85176 13.5694 6.85668 13.5659 6.86282C13.4615 7.04527 13.3667 7.23267 13.2819 7.42432C12.4327 7.30022 11.569 7.30022 10.7198 7.42432C10.6345 7.23219 10.5381 7.04474 10.4313 6.86282C10.4277 6.85682 10.4222 6.85201 10.4157 6.84903C10.4091 6.84605 10.4018 6.84504 10.3947 6.84612C9.60681 6.9769 8.83997 7.20579 8.11345 7.52702C8.10723 7.52956 8.10198 7.53389 8.09843 7.53943C6.64553 9.6283 6.24752 11.6658 6.44277 13.6781C6.44332 13.683 6.4449 13.6878 6.4474 13.6921C6.4499 13.6965 6.45329 13.7003 6.45735 13.7033C7.30336 14.3064 8.24964 14.7667 9.25579 15.0647C9.26288 15.0667 9.27044 15.0666 9.27747 15.0644C9.2845 15.0622 9.29066 15.0579 9.29511 15.0523C9.51121 14.7692 9.70269 14.4694 9.86761 14.156C9.86987 14.1517 9.87117 14.147 9.87141 14.1422C9.87164 14.1374 9.87081 14.1326 9.86898 14.1281C9.86714 14.1236 9.86434 14.1195 9.86076 14.1162C9.85718 14.1128 9.85289 14.1102 9.84819 14.1085C9.54624 13.9973 9.25391 13.8632 8.97396 13.7075C8.96887 13.7047 8.9646 13.7006 8.96152 13.6958C8.95844 13.6909 8.95665 13.6854 8.9563 13.6798C8.95595 13.6741 8.95706 13.6684 8.95952 13.6633C8.96199 13.6581 8.96573 13.6536 8.97043 13.6502C9.02917 13.6078 9.08795 13.5637 9.14405 13.5192C9.14903 13.5153 9.15506 13.5127 9.16146 13.5119C9.16786 13.5111 9.17437 13.512 9.18026 13.5145C11.0144 14.3204 13 14.3204 14.8124 13.5145C14.8183 13.5118 14.8249 13.5108 14.8314 13.5116C14.8379 13.5123 14.844 13.5148 14.8491 13.5188C14.9052 13.5633 14.9639 13.6078 15.0231 13.6502C15.0278 13.6536 15.0316 13.6581 15.0341 13.6632C15.0366 13.6683 15.0378 13.674 15.0375 13.6797C15.0372 13.6853 15.0354 13.6908 15.0324 13.6957C15.0293 13.7006 15.0251 13.7046 15.02 13.7075C14.7407 13.8645 14.4481 13.9985 14.1454 14.1081C14.1407 14.1098 14.1364 14.1125 14.1329 14.1159C14.1293 14.1193 14.1265 14.1234 14.1247 14.128C14.1229 14.1325 14.1221 14.1373 14.1224 14.1422C14.1227 14.147 14.124 14.1517 14.1263 14.156C14.294 14.4677 14.4852 14.7671 14.6984 15.0518C14.7027 15.0576 14.7088 15.062 14.7159 15.0643C14.7229 15.0666 14.7306 15.0667 14.7377 15.0646C15.7457 14.7677 16.6936 14.3073 17.5407 13.7033C17.5448 13.7004 17.5482 13.6967 17.5507 13.6924C17.5532 13.6882 17.5548 13.6834 17.5552 13.6785C17.789 11.3521 17.1639 9.33129 15.8983 7.53985ZM9.13433 11.3658C9.13433 11.965 9.58932 12.4528 10.1415 12.4528C10.7025 12.4528 11.1487 11.965 11.1487 11.3658C11.1575 10.7709 10.7069 10.2788 10.1415 10.2788C9.58049 10.2788 9.13433 10.7667 9.13433 11.3658ZM13.8654 12.4528C13.3132 12.4528 12.8582 11.965 12.8582 11.3658C12.8582 10.7667 13.3044 10.2788 13.8654 10.2788C14.4308 10.2788 14.8814 10.7709 14.8726 11.3658C14.8726 11.965 14.4308 12.4528 13.8654 12.4528Z" fill="white"/>
</svg>
