<svg width="24" height="24" viewBox="0 0 24 24" fill="none" xmlns="http://www.w3.org/2000/svg">
<path d="M12.0858 2C17.555 2 22 6.57083 22 11.9975C22 17.4225 17.5583 21.9892 12.0833 21.9892L2 22V11.825C2 6.4 6.61 2 12.0858 2ZM12.1825 5.8025C11.1205 5.80134 10.0763 6.07464 9.15105 6.59588C8.2258 7.11713 7.45096 7.86863 6.90167 8.7775C6.3569 9.68207 6.05883 10.7137 6.03719 11.7694C6.01555 12.8251 6.27109 13.868 6.77833 14.7942L5.66667 18.3417L9.66167 17.4467C10.7796 17.9462 12.0205 18.1028 13.2275 17.8966C14.4344 17.6904 15.553 17.1307 16.4417 16.2883C17.3254 15.4521 17.9363 14.3687 18.1945 13.1798C18.4528 11.9908 18.3464 10.7517 17.8892 9.62417C17.4267 8.49266 16.6374 7.52475 15.6221 6.84414C14.6067 6.16354 13.4115 5.80116 12.1892 5.80333L12.1825 5.8025Z" fill="white"/>
</svg>
