<svg width="32" height="32" viewBox="0 0 32 32" fill="none" xmlns="http://www.w3.org/2000/svg">
<path fill-rule="evenodd" clip-rule="evenodd" d="M28.5714 0H3.42857C1.53571 0 0 1.53571 0 3.42857V28.5714C0 30.4643 1.53571 32 3.42857 32H28.5714C30.4643 32 32 30.4643 32 28.5714V3.42857C32 1.53571 30.4643 0 28.5714 0ZM11.4417 7.3534C12.9221 6.51941 14.5929 6.08214 16.292 6.08399L16.3027 6.08532C18.2585 6.08185 20.1708 6.66165 21.7954 7.75062C23.4199 8.83959 24.6828 10.3882 25.4227 12.1987C26.1542 14.0026 26.3245 15.9853 25.9113 17.8876C25.4981 19.7899 24.5207 21.5233 23.1067 22.8613C21.6849 24.2091 19.8951 25.1046 17.964 25.4345C16.0329 25.7644 14.0473 25.5139 12.2587 24.7147L5.8667 26.1467L7.64537 20.4707C6.83378 18.9888 6.42491 17.3201 6.45954 15.631C6.49416 13.9418 6.97107 12.2913 7.8427 10.844C8.72157 9.38979 9.96132 8.18739 11.4417 7.3534Z" fill="white"/>
</svg>
