<svg width="24" height="24" viewBox="0 0 24 24" fill="none" xmlns="http://www.w3.org/2000/svg">
<path fill-rule="evenodd" clip-rule="evenodd" d="M4.14286 2H19.8571C21.0402 2 22 2.95982 22 4.14286V19.8571C22 21.0402 21.0402 22 19.8571 22H4.14286C2.95982 22 2 21.0402 2 19.8571V4.14286C2 2.95982 2.95982 2 4.14286 2ZM4.79746 12.1763C4.79746 8.23312 8.01987 5.04578 12.006 5.04578C15.9802 5.04578 19.2144 8.23312 19.2026 12.1763C19.2026 15.3283 17.1379 17.9962 14.2736 18.9408C13.9156 19.0117 13.7843 18.7873 13.7843 18.5983C13.7843 18.52 13.7856 18.3831 13.7873 18.2002C13.7908 17.8321 13.7961 17.2775 13.7961 16.6387C13.7961 15.9657 13.5695 15.5408 13.3068 15.3165C14.9181 15.1394 16.6008 14.5374 16.6008 11.7984C16.6008 11.0193 16.3263 10.3818 15.8608 9.88604C15.9324 9.709 16.1832 8.97693 15.7893 7.99711C15.7893 7.99711 15.1806 7.80819 13.8081 8.72904C13.2351 8.57561 12.6147 8.49289 12.006 8.49289C11.3973 8.49356 10.7914 8.57296 10.2038 8.72904C8.83141 7.80819 8.22275 7.99711 8.22275 7.99711C7.82878 8.97693 8.07948 9.709 8.15104 9.88604C7.69746 10.3818 7.41121 11.0193 7.41121 11.7984C7.41121 14.5374 9.0939 15.1512 10.6932 15.3165C10.4903 15.4936 10.2993 15.8123 10.2396 16.2727C9.82193 16.4617 8.7836 16.7685 8.13924 15.6825C8.13924 15.6825 7.75722 14.9978 7.0292 14.9506C7.0292 14.9506 6.32507 14.9506 6.98139 15.3874C6.98139 15.3874 7.45887 15.5998 7.78113 16.4262C7.78113 16.4262 8.1987 17.7012 10.2039 17.2762C10.2039 17.6623 10.209 18.0382 10.2125 18.2984C10.2143 18.436 10.2157 18.5413 10.2157 18.5985C10.2157 18.7873 10.0846 19.0117 9.72646 18.9407C6.86217 17.9964 4.79746 15.3283 4.79746 12.1763Z" fill="white"/>
</svg>
