<svg width="24" height="24" viewBox="0 0 24 24" fill="none" xmlns="http://www.w3.org/2000/svg">
<path fill-rule="evenodd" clip-rule="evenodd" d="M12.0083 2C6.45136 2 1.95911 6.58331 1.95911 12.2535C1.95911 16.786 4.83745 20.6226 8.83047 21.9805C9.3297 22.0826 9.51257 21.7599 9.51257 21.4885C9.51257 21.2508 9.49611 20.436 9.49611 19.587C6.70067 20.1983 6.11854 18.3647 6.11854 18.3647C5.66929 17.1764 5.00365 16.871 5.00365 16.871C4.0887 16.2429 5.0703 16.2429 5.0703 16.2429C6.08522 16.3108 6.61777 17.2954 6.61777 17.2954C7.51606 18.857 8.96356 18.4158 9.54589 18.1441C9.62899 17.482 9.89537 17.0237 10.1782 16.7691C7.94864 16.5314 5.60285 15.6487 5.60285 11.7102C5.60285 10.5898 6.00191 9.67309 6.63423 8.96018C6.53446 8.7056 6.18498 7.65289 6.7342 6.24394C6.7342 6.24394 7.5827 5.97228 9.4959 7.29644C10.315 7.07199 11.1598 6.95782 12.0083 6.95685C12.8568 6.95685 13.7218 7.07581 14.5205 7.29644C16.4339 5.97228 17.2824 6.24394 17.2824 6.24394C17.8316 7.65289 17.4819 8.7056 17.3822 8.96018C18.0312 9.67309 18.4138 10.5898 18.4138 11.7102C18.4138 15.6487 16.068 16.5143 13.8217 16.7691C14.1879 17.0916 14.5038 17.7026 14.5038 18.6703C14.5038 20.0453 14.4874 21.1489 14.4874 21.4883C14.4874 21.7599 14.6705 22.0826 15.1695 21.9808C19.1625 20.6224 22.0408 16.786 22.0408 12.2535C22.0573 6.58331 17.5486 2 12.0083 2Z" fill="white"/>
</svg>
