<svg width="24" height="24" viewBox="0 0 24 24" fill="none" xmlns="http://www.w3.org/2000/svg">
<path fill-rule="evenodd" clip-rule="evenodd" d="M2.57143 0H21.4286C22.8482 0 24 1.15179 24 2.57143V21.4286C24 22.8482 22.8482 24 21.4286 24H2.57143C1.15179 24 0 22.8482 0 21.4286V2.57143C0 1.15179 1.15179 0 2.57143 0ZM3.35695 12.2115C3.35695 7.47974 7.22384 3.65494 12.0072 3.65494C16.7762 3.65494 20.6573 7.47974 20.6431 12.2115C20.6431 15.9939 18.1655 19.1955 14.7283 20.329C14.2988 20.414 14.1412 20.1447 14.1412 19.918C14.1412 19.824 14.1427 19.6598 14.1448 19.4403C14.149 18.9985 14.1553 18.333 14.1553 17.5664C14.1553 16.7589 13.8834 16.249 13.5682 15.9798C15.5017 15.7672 17.521 15.0449 17.521 11.7581C17.521 10.8231 17.1916 10.0582 16.633 9.46325C16.7189 9.2508 17.0199 8.37231 16.5471 7.19653C16.5471 7.19653 15.8167 6.96983 14.1697 8.07485C13.4821 7.89074 12.7376 7.79146 12.0072 7.79146C11.2768 7.79227 10.5496 7.88755 9.84455 8.07485C8.19769 6.96983 7.4673 7.19653 7.4673 7.19653C6.99454 8.37231 7.29537 9.2508 7.38125 9.46325C6.83696 10.0582 6.49345 10.8231 6.49345 11.7581C6.49345 15.0449 8.51268 15.7815 10.4319 15.9798C10.1884 16.1923 9.95911 16.5748 9.88758 17.1273C9.38631 17.354 8.14032 17.7222 7.36708 16.419C7.36708 16.419 6.90867 15.5974 6.03504 15.5407C6.03504 15.5407 5.19009 15.5407 5.97767 16.0649C5.97767 16.0649 6.55064 16.3197 6.93735 17.3114C6.93735 17.3114 7.43844 18.8415 9.84473 18.3314C9.84473 18.7947 9.85079 19.2458 9.85498 19.558C9.8572 19.7232 9.85889 19.8495 9.85889 19.9182C9.85889 20.1447 9.70148 20.414 9.27175 20.3288C5.8346 19.1956 3.35695 15.9939 3.35695 12.2115Z" fill="white"/>
</svg>
