<svg width="24" height="24" viewBox="0 0 24 24" fill="none" xmlns="http://www.w3.org/2000/svg">
<path fill-rule="evenodd" clip-rule="evenodd" d="M4.27273 2C3.01753 2 2 3.01753 2 4.27273V19.7273C2 20.9825 3.01753 22 4.27273 22H19.7273C20.9825 22 22 20.9825 22 19.7273V4.27273C22 3.01753 20.9825 2 19.7273 2H4.27273ZM5.33337 6.93096C5.33337 7.81292 6.04903 8.54343 6.93099 8.54343C7.81295 8.54343 8.52862 7.81292 8.52862 6.93096C8.52862 6.049 7.81295 5.33334 6.93099 5.33334C6.04903 5.33334 5.33337 6.049 5.33337 6.93096ZM5.55306 18.637H8.31178V9.75502H5.55306V18.637ZM15.8841 18.637V14.3133C15.8841 13.2829 15.8634 11.9614 14.4498 11.9614C13.0155 11.9614 12.7958 13.0809 12.7958 14.2391V18.637H10.04V9.75502H12.6859V10.9666H12.7245C13.0928 10.2688 13.9925 9.5323 15.3348 9.5323C18.1262 9.5323 18.6399 11.3705 18.6399 13.758V18.637H15.8841Z" fill="white"/>
</svg>
