<svg width="24" height="24" viewBox="0 0 24 24" fill="none" xmlns="http://www.w3.org/2000/svg">
<path fill-rule="evenodd" clip-rule="evenodd" d="M4.14286 2H19.8571C21.0402 2 22 2.95982 22 4.14286V19.8571C22 21.0402 21.0402 22 19.8571 22H4.14286C2.95982 22 2 21.0402 2 19.8571V4.14286C2 2.95982 2.95982 2 4.14286 2ZM14.834 16.2885C15.0761 17.5216 16.3118 18.2698 17.5064 18.4743L17.5102 18.4661C18.3072 18.6217 19.5289 18.5892 19.8846 17.7261C19.8413 16.9027 18.8406 16.7612 18.1558 16.6643C18.1333 16.6611 18.1111 16.658 18.0893 16.6549C17.2317 16.6205 16.9934 15.6823 17.1703 15.0083C17.3832 13.9096 17.8787 12.9086 18.3747 11.9066C18.7573 11.1338 19.1401 10.3605 19.3939 9.54111C19.6546 8.68344 19.9023 7.55797 19.1481 6.86677C18.3016 6.22442 17.1126 6.36918 16.1553 6.67678C15.7265 6.76078 15.3977 6.52186 15.0641 6.27942C14.758 6.05704 14.4479 5.83169 14.0528 5.84987C13.5305 5.80839 13.1579 6.12121 12.7873 6.43241C12.3981 6.75921 12.011 7.08422 11.4549 6.99524C11.1331 6.90381 10.8244 6.75658 10.5154 6.60918C9.94997 6.33945 9.38338 6.06918 8.73308 6.13938C7.60545 6.12219 6.90616 7.16261 6.46572 8.03566C5.87909 9.35835 5.38185 10.7218 4.96283 12.1033C4.86945 12.4866 4.74785 12.8674 4.62605 13.2488C4.34343 14.1337 4.05972 15.0221 4.12479 15.9546C4.08755 16.8765 4.94235 17.5704 5.82881 17.6862C6.64823 17.7812 7.73302 17.6763 8.1567 16.8765C8.37903 16.3787 8.52472 15.8525 8.67085 15.3247C8.82215 14.7782 8.97391 14.2301 9.2117 13.71L10.8133 10.017C11.2267 9.24345 12.4279 9.82157 12.1299 10.6141C12.0116 11.5195 11.6456 12.3546 11.2798 13.1893C11.0874 13.6283 10.8951 14.0672 10.7388 14.5161C10.4725 15.0879 10.2565 16.0125 11.0712 16.255C11.805 16.511 12.4344 15.9166 12.7957 15.362C13.2959 14.594 13.6808 13.7638 14.0654 12.9344C14.2458 12.5456 14.426 12.1569 14.618 11.7748C14.7481 11.5319 14.8644 11.2789 14.981 11.0254C15.2791 10.3772 15.5789 9.72546 16.1144 9.22988C16.7066 8.71962 17.4692 9.4832 17.1405 10.1093L15.4625 13.1735C14.9104 14.1144 14.6981 15.2155 14.834 16.2885Z" fill="white"/>
</svg>
