<svg width="24" height="24" viewBox="0 0 24 24" fill="none" xmlns="http://www.w3.org/2000/svg">
<path fill-rule="evenodd" clip-rule="evenodd" d="M4.14286 2H19.8571C21.0402 2 22 2.95982 22 4.14286V19.8571C22 21.0402 21.0402 22 19.8571 22H4.14286C2.95982 22 2 21.0402 2 19.8571V4.14286C2 2.95982 2.95982 2 4.14286 2ZM17.683 9.46875C17.683 9.34375 17.683 9.21429 17.6741 9.08929C18.2455 8.67411 18.7455 8.15625 19.1428 7.57143C18.6161 7.79911 18.0446 7.96429 17.4553 8.02679C18.0625 7.66518 18.5223 7.09375 18.7411 6.41518C18.1786 6.75 17.5446 6.99554 16.8839 7.12054C16.3482 6.54911 15.5893 6.19643 14.7455 6.19643C12.9598 6.19643 11.4732 7.80804 11.8884 9.79464C9.45981 9.66964 7.29463 8.50893 5.85266 6.73214C5.5982 7.16518 5.45534 7.66518 5.45534 8.20982C5.45374 9.18948 5.94322 10.1047 6.75891 10.6473C6.28124 10.6295 5.82588 10.4955 5.43749 10.2768V10.3125C5.43749 11.7366 6.44195 12.9152 7.78124 13.1875C7.31695 13.308 6.9107 13.308 6.45981 13.2411C6.83034 14.4018 7.9107 15.2455 9.19642 15.2723C8.19195 16.058 6.93302 16.5223 5.56249 16.5223C5.32141 16.5223 5.09374 16.5134 4.85713 16.4866C6.15177 17.317 7.69195 17.7991 9.35267 17.7991C14.7366 17.7991 17.683 13.3393 17.683 9.46875Z" fill="white"/>
</svg>
