<svg width="24" height="24" viewBox="0 0 24 24" fill="none" xmlns="http://www.w3.org/2000/svg">
<path d="M21.999 5.89937C21.25 6.22538 20.4556 6.43949 19.6423 6.53461C20.4996 6.03012 21.1412 5.23616 21.4476 4.30067C20.6431 4.77179 19.761 5.10195 18.8416 5.28055C18.2241 4.63043 17.4056 4.19927 16.5133 4.0541C15.621 3.90892 14.705 4.05787 13.9076 4.47778C13.1103 4.89769 12.4762 5.56504 12.1041 6.37608C11.732 7.18712 11.6426 8.09641 11.8499 8.96259C10.2183 8.88212 8.62219 8.46495 7.16512 7.73814C5.70805 7.01133 4.42261 5.99113 3.39227 4.74379C3.02756 5.36015 2.83591 6.06082 2.83693 6.77403C2.83693 8.17386 3.56103 9.41053 4.66189 10.1346C4.01041 10.1144 3.37327 9.94129 2.80357 9.62968V9.67988C2.80377 10.6122 3.13164 11.5157 3.7316 12.2373C4.33156 12.9589 5.16668 13.4541 6.09537 13.639C5.4906 13.8002 4.85646 13.824 4.24097 13.7085C4.50281 14.511 5.01315 15.2128 5.70054 15.7157C6.38793 16.2185 7.21794 16.4973 8.07437 16.513C7.2232 17.1707 6.2486 17.657 5.20632 17.9439C4.16403 18.2308 3.0745 18.3127 2 18.185C3.87568 19.3719 6.05916 20.002 8.28925 20C15.8373 20 19.9651 13.8475 19.9651 8.51175C19.9651 8.33797 19.9602 8.16227 19.9523 7.99043C20.7558 7.41908 21.4492 6.71129 22 5.90034L21.999 5.89937Z" fill="white"/>
</svg>
