<svg width="24" height="24" viewBox="0 0 24 24" fill="none" xmlns="http://www.w3.org/2000/svg">
<path d="M14.7692 12L10.6154 14.3558V9.64423L14.7692 12Z" fill="white"/>
<path fill-rule="evenodd" clip-rule="evenodd" d="M5 2H19C20.6569 2 22 3.34315 22 5V19C22 20.6569 20.6569 22 19 22H5C3.34315 22 2 20.6569 2 19V5C2 3.34315 3.34315 2 5 2ZM18.9231 12C18.9231 12 18.9231 9.49615 18.6067 8.29673C18.4329 7.63577 17.9192 7.11481 17.265 6.93577C16.0818 6.61538 12 6.61538 12 6.61538C12 6.61538 7.92023 6.61538 6.735 6.93577C6.08354 7.11212 5.56915 7.63375 5.39331 8.29673C5.07692 9.49615 5.07692 12 5.07692 12C5.07692 12 5.07692 14.5038 5.39331 15.7033C5.56708 16.3642 6.08077 16.8852 6.735 17.0642C7.92023 17.3846 12 17.3846 12 17.3846C12 17.3846 16.0818 17.3846 17.265 17.0642C17.9165 16.8879 18.4308 16.3663 18.6067 15.7033C18.9231 14.5038 18.9231 12 18.9231 12Z" fill="white"/>
</svg>
