<svg width="36" height="8" viewBox="0 0 36 8" fill="none" xmlns="http://www.w3.org/2000/svg">
<path fill-rule="evenodd" clip-rule="evenodd" d="M34.8639 6.43782L34.5257 7.56068H31.9031C30.735 7.56068 30.151 6.9809 30.151 5.82135V3.52058C30.151 2.36103 30.735 1.78125 31.9031 1.78125H33.3447C34.5053 1.78125 35.0857 2.36103 35.0857 3.52058V5.14983H31.4484V5.93143C31.4484 6.26903 31.6185 6.43782 31.9585 6.43782H34.8639ZM31.4484 4.14807H33.7882V3.4105C33.7882 3.07291 33.6182 2.90411 33.2781 2.90411H31.9585C31.6185 2.90411 31.4484 3.07291 31.4484 3.4105V4.14807Z" fill="white"/>
<path d="M4.87647 7.59772L7.22416 0.00189209H5.78578L3.88953 6.37578H3.67884L1.78259 0.00189209H0.342834L2.68081 7.59772H4.87647Z" fill="white"/>
<path fill-rule="evenodd" clip-rule="evenodd" d="M12.1905 3.55586V7.59596H9.18532C8.01726 7.59596 7.43323 7.02352 7.43323 5.87864C7.43323 4.73377 8.01726 4.16133 9.18532 4.16133H10.893V3.44578C10.893 3.10819 10.723 2.93939 10.3829 2.93939H8.03204L8.36567 1.81653H10.4495C11.6101 1.81653 12.1905 2.39631 12.1905 3.55586ZM9.24076 6.4731H10.893V5.1631H9.24076C8.90069 5.1631 8.73066 5.32822 8.73066 5.65848V5.96671C8.73066 6.3043 8.90069 6.4731 9.24076 6.4731Z" fill="white"/>
<path d="M16.7665 7.59583L17.1192 6.47296H15.5335C15.1934 6.47296 15.0234 6.30417 15.0234 5.96658V2.93925H17.0083V1.81639H15.0234V0H13.726V5.85649C13.726 7.01605 14.31 7.59583 15.478 7.59583H16.7665Z" fill="white"/>
<path d="M28.6521 7.59583L29.0048 6.47296H28.7669C28.4269 6.47296 28.2568 6.30417 28.2568 5.96658V2.93925V1.81639V0H26.9594V5.85649C26.9594 7.01605 27.5434 7.59583 28.7115 7.59583H28.6521Z" fill="white"/>
<path fill-rule="evenodd" clip-rule="evenodd" d="M19.7212 0.00164795V1.31165H18.3572V0.00164795H19.7212ZM19.6885 1.81034V7.59998H18.3911V1.81034H19.6885Z" fill="white"/>
<path d="M25.3443 7.59961L25.6936 6.47586H23.0634C22.723 6.47586 22.5529 6.30693 22.5529 5.96907V3.44615C22.5529 3.10829 22.723 2.93936 23.0634 2.93936H25.6936L25.3549 1.81561H23.0079C21.8389 1.81561 21.2544 2.39585 21.2544 3.55632V5.8589C21.2544 7.01937 21.8389 7.59961 23.0079 7.59961H25.3443Z" fill="white"/>
</svg>
