<svg width="1920" height="1080" viewBox="0 0 1920 1080" fill="none" xmlns="http://www.w3.org/2000/svg">
<path d="M1920 0H0V1080H1920V0Z" fill="url(#paint0_linear_1_4)"/>
<path d="M1884 0H36C16.1177 0 0 16.1177 0 36V1044C0 1063.88 16.1177 1080 36 1080H1884C1903.88 1080 1920 1063.88 1920 1044V36C1920 16.1177 1903.88 0 1884 0Z" fill="url(#paint1_linear_1_4)"/>
<path d="M960 431.677C930.487 431.677 903.753 443.242 884.033 461.958V448.235C891.46 445.01 896.645 437.682 896.645 429.157C896.645 417.652 887.199 408.325 875.546 408.325C863.893 408.325 854.447 417.651 854.447 429.157C854.447 437.717 859.676 445.071 867.153 448.276V482.475C856.527 499.157 850.285 518.839 850.285 540.002C850.285 599.828 899.406 648.326 959.999 648.326C1020.59 648.326 1069.71 599.828 1069.71 540.002C1069.71 480.176 1020.59 431.678 959.999 431.678L960 431.677ZM1002.83 593.647H1002.79L916.512 593.583C886.801 593.561 862.685 569.855 862.532 540.521C862.381 511.388 886.178 487.649 915.684 487.5L915.822 487.498H1002.79C1032.49 487.498 1056.56 511.27 1056.56 540.593C1056.56 569.916 1032.51 593.647 1002.83 593.647Z" fill="white"/>
<path d="M925.921 518.31C912.845 518.31 902.245 528.426 902.245 540.904C902.245 553.382 912.845 563.499 925.921 563.499C938.997 563.499 949.597 553.382 949.597 540.904C949.597 528.426 938.997 518.31 925.921 518.31Z" fill="white"/>
<path d="M997.935 518.31C984.859 518.31 974.259 528.426 974.259 540.904C974.259 553.382 984.859 563.499 997.935 563.499C1011.01 563.499 1021.61 553.382 1021.61 540.904C1021.61 528.426 1011.01 518.31 997.935 518.31Z" fill="white"/>
<g style="mix-blend-mode:overlay">
<mask id="mask0_1_4" style="mask-type:luminance" maskUnits="userSpaceOnUse" x="0" y="0" width="1920" height="1080">
<path d="M1920 0H0V1080H1920V0Z" fill="white"/>
</mask>
<g mask="url(#mask0_1_4)">
<path d="M-472.653 0C-198.765 0 23.2651 241.766 23.2651 540C23.2651 838.234 -198.765 1080 -472.653 1080" stroke="#03DAC8" stroke-width="4" stroke-miterlimit="10"/>
<path d="M-408.98 0C-147.265 0 64.898 241.766 64.898 540C64.898 838.234 -147.264 1080 -408.98 1080" stroke="#03DAC8" stroke-width="4" stroke-miterlimit="10"/>
<path d="M-345.306 0C-95.763 0 106.531 241.766 106.531 540C106.531 838.234 -95.763 1080 -345.306 1080" stroke="#03DAC8" stroke-width="4" stroke-miterlimit="10"/>
<path d="M-281.633 0C-44.2631 0 148.163 241.766 148.163 540C148.163 838.234 -44.2631 1080 -281.633 1080" stroke="#03DAC8" stroke-width="4" stroke-miterlimit="10"/>
<path d="M-217.959 0C7.23802 0 189.796 241.766 189.796 540C189.796 838.234 7.23802 1080 -217.959 1080" stroke="#03DAC8" stroke-width="4" stroke-miterlimit="10"/>
<path d="M-154.286 0C58.738 0 231.428 241.766 231.428 540C231.428 838.234 58.738 1080 -154.286 1080" stroke="#03DAC8" stroke-width="4" stroke-miterlimit="10"/>
<path d="M-90.6121 0C110.239 0 273.061 241.766 273.061 540C273.061 838.234 110.239 1080 -90.6121 1080" stroke="#03DAC8" stroke-width="4" stroke-miterlimit="10"/>
<path d="M-26.939 0C161.74 0 314.694 241.766 314.694 540C314.694 838.234 161.74 1080 -26.939 1080" stroke="#03DAC8" stroke-width="4" stroke-miterlimit="10"/>
<path d="M36.735 0C213.241 0 356.327 241.766 356.327 540C356.327 838.234 213.241 1080 36.735 1080" stroke="#03DAC8" stroke-width="4" stroke-miterlimit="10"/>
<path d="M100.408 0C264.741 0 397.959 241.766 397.959 540C397.959 838.234 264.741 1080 100.408 1080" stroke="#03DAC8" stroke-width="4" stroke-miterlimit="10"/>
<path d="M164.082 0C316.242 0 439.592 241.766 439.592 540C439.592 838.234 316.242 1080 164.082 1080" stroke="#03DAC8" stroke-width="4" stroke-miterlimit="10"/>
<path d="M227.755 0C367.742 0 481.224 241.766 481.224 540C481.224 838.234 367.742 1080 227.755 1080" stroke="#03DAC8" stroke-width="4" stroke-miterlimit="10"/>
<path d="M291.429 0C419.243 0 522.858 241.766 522.858 540C522.858 838.234 419.244 1080 291.429 1080" stroke="#03DAC8" stroke-width="4" stroke-miterlimit="10"/>
<path d="M355.102 0C470.744 0 564.49 241.766 564.49 540C564.49 838.234 470.744 1080 355.102 1080" stroke="#03DAC8" stroke-width="4" stroke-miterlimit="10"/>
<path d="M418.776 0C522.245 0 606.123 241.766 606.123 540C606.123 838.234 522.245 1080 418.776 1080" stroke="#03DAC8" stroke-width="4" stroke-miterlimit="10"/>
<path d="M482.449 0C573.745 0 647.755 241.766 647.755 540C647.755 838.234 573.745 1080 482.449 1080" stroke="#03DAC8" stroke-width="4" stroke-miterlimit="10"/>
<path d="M546.122 0C625.245 0 689.387 241.766 689.387 540C689.387 838.234 625.245 1080 546.122 1080" stroke="#03DAC8" stroke-width="4" stroke-miterlimit="10"/>
<path d="M609.796 0C676.746 0 731.02 241.766 731.02 540C731.02 838.234 676.746 1080 609.796 1080" stroke="#03DAC8" stroke-width="4" stroke-miterlimit="10"/>
<path d="M673.469 0C728.247 0 772.653 241.766 772.653 540C772.653 838.234 728.247 1080 673.469 1080" stroke="#03DAC8" stroke-width="4" stroke-miterlimit="10"/>
<path d="M737.143 0C779.748 0 814.286 241.766 814.286 540C814.286 838.234 779.748 1080 737.143 1080" stroke="#03DAC8" stroke-width="4" stroke-miterlimit="10"/>
<path d="M800.816 0C831.248 0 855.918 241.766 855.918 540C855.918 838.234 831.248 1080 800.816 1080" stroke="#03DAC8" stroke-width="4" stroke-miterlimit="10"/>
<path d="M864.49 0C882.749 0 897.551 241.766 897.551 540C897.551 838.234 882.749 1080 864.49 1080" stroke="#03DAC8" stroke-width="4" stroke-miterlimit="10"/>
<path d="M928.163 0C934.249 0 939.183 241.766 939.183 540C939.183 838.234 934.249 1080 928.163 1080" stroke="#03DAC8" stroke-width="4" stroke-miterlimit="10"/>
<path d="M991.837 0C985.751 0 980.817 241.766 980.817 540C980.817 838.234 985.751 1080 991.837 1080" stroke="#03DAC8" stroke-width="4" stroke-miterlimit="10"/>
<path d="M1055.51 0C1037.25 0 1022.45 241.766 1022.45 540C1022.45 838.234 1037.25 1080 1055.51 1080" stroke="#03DAC8" stroke-width="4" stroke-miterlimit="10"/>
<path d="M1119.18 0C1088.75 0 1064.08 241.766 1064.08 540C1064.08 838.234 1088.75 1080 1119.18 1080" stroke="#03DAC8" stroke-width="4" stroke-miterlimit="10"/>
<path d="M1182.86 0C1140.25 0 1105.71 241.766 1105.71 540C1105.71 838.234 1140.25 1080 1182.86 1080" stroke="#03DAC8" stroke-width="4" stroke-miterlimit="10"/>
<path d="M1246.53 0C1191.75 0 1147.35 241.766 1147.35 540C1147.35 838.234 1191.75 1080 1246.53 1080" stroke="#03DAC8" stroke-width="4" stroke-miterlimit="10"/>
<path d="M1310.2 0C1243.25 0 1188.98 241.766 1188.98 540C1188.98 838.234 1243.25 1080 1310.2 1080" stroke="#03DAC8" stroke-width="4" stroke-miterlimit="10"/>
<path d="M1373.88 0C1294.76 0 1230.61 241.766 1230.61 540C1230.61 838.234 1294.76 1080 1373.88 1080" stroke="#03DAC8" stroke-width="4" stroke-miterlimit="10"/>
<path d="M1437.55 0C1346.26 0 1272.24 241.766 1272.24 540C1272.24 838.234 1346.26 1080 1437.55 1080" stroke="#03DAC8" stroke-width="4" stroke-miterlimit="10"/>
<path d="M1501.22 0C1397.76 0 1313.88 241.766 1313.88 540C1313.88 838.234 1397.76 1080 1501.22 1080" stroke="#03DAC8" stroke-width="4" stroke-miterlimit="10"/>
<path d="M1564.9 0C1449.26 0 1355.51 241.766 1355.51 540C1355.51 838.234 1449.26 1080 1564.9 1080" stroke="#03DAC8" stroke-width="4" stroke-miterlimit="10"/>
<path d="M1628.57 0C1500.76 0 1397.14 241.766 1397.14 540C1397.14 838.234 1500.76 1080 1628.57 1080" stroke="#03DAC8" stroke-width="4" stroke-miterlimit="10"/>
<path d="M1692.25 0C1552.26 0 1438.78 241.766 1438.78 540C1438.78 838.234 1552.26 1080 1692.25 1080" stroke="#03DAC8" stroke-width="4" stroke-miterlimit="10"/>
<path d="M1755.92 0C1603.76 0 1480.41 241.766 1480.41 540C1480.41 838.234 1603.76 1080 1755.92 1080" stroke="#03DAC8" stroke-width="4" stroke-miterlimit="10"/>
<path d="M1819.59 0C1655.26 0 1522.04 241.766 1522.04 540C1522.04 838.234 1655.26 1080 1819.59 1080" stroke="#03DAC8" stroke-width="4" stroke-miterlimit="10"/>
<path d="M1883.26 0C1706.76 0 1563.67 241.766 1563.67 540C1563.67 838.234 1706.76 1080 1883.26 1080" stroke="#03DAC8" stroke-width="4" stroke-miterlimit="10"/>
<path d="M1946.94 0C1758.26 0 1605.31 241.766 1605.31 540C1605.31 838.234 1758.26 1080 1946.94 1080" stroke="#03DAC8" stroke-width="4" stroke-miterlimit="10"/>
<path d="M2010.61 0C1809.76 0 1646.94 241.766 1646.94 540C1646.94 838.234 1809.76 1080 2010.61 1080" stroke="#03DAC8" stroke-width="4" stroke-miterlimit="10"/>
<path d="M2074.29 0C1861.26 0 1688.57 241.766 1688.57 540C1688.57 838.234 1861.26 1080 2074.29 1080" stroke="#03DAC8" stroke-width="4" stroke-miterlimit="10"/>
<path d="M2137.96 0C1912.76 0 1730.2 241.766 1730.2 540C1730.2 838.234 1912.76 1080 2137.96 1080" stroke="#03DAC8" stroke-width="4" stroke-miterlimit="10"/>
<path d="M2201.63 0C1964.26 0 1771.84 241.766 1771.84 540C1771.84 838.234 1964.26 1080 2201.63 1080" stroke="#03DAC8" stroke-width="4" stroke-miterlimit="10"/>
<path d="M2265.31 0C2015.76 0 1813.47 241.766 1813.47 540C1813.47 838.234 2015.76 1080 2265.31 1080" stroke="#03DAC8" stroke-width="4" stroke-miterlimit="10"/>
<path d="M2328.98 0C2067.26 0 1855.1 241.766 1855.1 540C1855.1 838.234 2067.26 1080 2328.98 1080" stroke="#03DAC8" stroke-width="4" stroke-miterlimit="10"/>
<path d="M2392.65 0C2118.77 0 1896.74 241.766 1896.74 540C1896.74 838.234 2118.77 1080 2392.65 1080" stroke="#03DAC8" stroke-width="4" stroke-miterlimit="10"/>
</g>
</g>
<defs>
<linearGradient id="paint0_linear_1_4" x1="960" y1="0" x2="960" y2="1080" gradientUnits="userSpaceOnUse">
<stop stop-color="#1A182B"/>
<stop offset="0.528" stop-color="#11101D"/>
<stop offset="1" stop-color="#0E0D17"/>
</linearGradient>
<linearGradient id="paint1_linear_1_4" x1="960" y1="0" x2="960" y2="1080" gradientUnits="userSpaceOnUse">
<stop stop-color="#1A182B"/>
<stop offset="0.528" stop-color="#11101D"/>
<stop offset="1" stop-color="#0E0D17"/>
</linearGradient>
</defs>
</svg>
