<?xml version="1.0" encoding="UTF-8"?>
<svg width="46px" height="53px" viewBox="0 0 46 53" version="1.1" xmlns="http://www.w3.org/2000/svg" xmlns:xlink="http://www.w3.org/1999/xlink">
    <title>Enterprise Support</title>
    <g id="Home" stroke="none" stroke-width="1" fill="none" fill-rule="evenodd">
        <g id="Home-Desktop" transform="translate(-537.000000, -5693.000000)" stroke="#FFFFFF">
            <g id="scale-knowledge" transform="translate(0.000000, 5030.000000)">
                <g id="Enterprise-Support" transform="translate(380.000000, 632.000000)">
                    <g id="enterprise-grade-support" transform="translate(62.000000, 32.000000)">
                        <g id="icon" transform="translate(95.000000, 0.000000)">
                            <g id="Enterprise-Support" transform="translate(0.600000, 0.013383)">
                                <path d="M-5.32907052e-14,50.0362591 L44.1921584,50.0362591 C43.8870632,43.1397851 41.1223049,37.3206622 30.18651,35.0805146 C28.6767439,32.2178481 27.9070307,30.7734292 27.8773705,30.7472579 C24.0990956,34.1581271 18.0815874,32.5430836 16.295994,30.7472579 C16.2543795,30.7561972 15.4536313,32.2006161 13.8937495,35.0805146 C4.59938625,36.6352162 0.69715824,42.1567891 -5.32907052e-14,50.0362591 Z" id="Path-43" fill="#261C5E"></path>
                                <path d="M34.1807337,22.5487003 L11.943873,22.5487003 L9.49850493,22.5487003 C8.56185095,22.4957789 8.0884082,21.9663139 7.9681534,21.0734407 L7.9681534,13.3331026 C9.27077993,-3.52502377 34.1807337,-5.34055005 36.1177298,13.3331026 L36.1177298,20.1654287 C36.1203776,21.6974237 35.4405533,22.4528713 34.1807337,22.5487003 Z" id="Path-48"></path>
                                <path d="M22.2037151,3.66924027 C24.7568496,3.66924027 27.3035176,4.43327717 29.1736265,6.05553956 C30.7752132,7.44486705 31.8697695,9.46530254 32.0491767,12.1560113 C32.0406644,12.6435324 32.0335824,13.1279494 32.0265529,13.6088343 C31.9278819,20.3587823 31.8976443,26.4316433 27.8059263,30.5253456 C26.5180513,31.9255538 24.3560898,32.6704149 22.1605377,32.6704149 C20.0899472,32.6704149 17.9715672,32.0052802 16.5112675,30.5273836 C12.5408394,27.0483727 11.6829466,21.0103604 12.0603588,12.1651782 C12.0463568,9.59927097 13.1433314,7.58969121 14.8259016,6.17086448 C16.7751027,4.52720143 19.4976335,3.66924027 22.2037151,3.66924027 Z" id="Rectangle" fill="#261C5E"></path>
                                <path d="M12.011133,15.8043057 C14.0799419,13.0034289 16.5655054,10.8692952 20.0387311,10.5278208 C23.203558,14.3381895 27.4869083,15.6875789 32.1577189,16.184477 C32.7073877,10.6793126 31.5987712,5.30024853 24.0197198,3.61428731 C15.0276285,3.16542536 11.0132701,8.55705099 12.011133,15.8043057 Z" id="Path-49"></path>
                                <path d="M17.3467516,26.7235829 L12.1562448,26.7235829 C10.8670918,26.7229683 10.0875575,26.1457606 10.0696368,24.7068476 L10.0696368,22.6901123" id="Path-47"></path>
                            </g>
                        </g>
                    </g>
                </g>
            </g>
        </g>
    </g>
</svg>