<?xml version="1.0" encoding="UTF-8"?>
<svg width="42px" height="44px" viewBox="0 0 42 44" version="1.1" xmlns="http://www.w3.org/2000/svg" xmlns:xlink="http://www.w3.org/1999/xlink">
    <title>Financial Services</title>
    <g id="Home" stroke="none" stroke-width="1" fill="none" fill-rule="evenodd">
        <g id="Home-Desktop" transform="translate(-939.000000, -4833.000000)" stroke="#FFFFFF">
            <g id="empower-organisation" transform="translate(0.000000, 3738.000000)">
                <g id="icon-block" transform="translate(478.000000, 1077.000000)">
                    <g id="financial-services" transform="translate(423.000000, 0.000000)">
                        <g id="icon" transform="translate(38.000000, 18.400000)">
                            <line x1="21.4173263" y1="12" x2="21.4173263" y2="30" id="Path-18" stroke-linecap="round"></line>
                            <path d="M25.8169029,15.0346292 L19.9773263,15.0346292 C16.5301679,15.2005473 16.1693235,20.7406275 19.9773263,21 L22.8592321,21 C26.5822338,21.1555855 26.4913723,26.9463965 22.8592321,26.9775963 L17,26.9775963" id="Path-22" stroke-linecap="round"></path>
                            <circle id="Oval" cx="21" cy="21.8" r="20.5"></circle>
                            <path d="M21,36.8 C29.2842712,36.8 36,30.0842712 36,21.8 C36,13.5157288 29.2842712,6.8 21,6.8 C12.7157288,6.8 6,13.5157288 6,21.8 C6,30.0842712 12.7157288,36.8 21,36.8 Z" id="Oval-Copy-4"></path>
                        </g>
                    </g>
                </g>
            </g>
        </g>
    </g>
</svg>