<?xml version="1.0" encoding="UTF-8"?>
<svg width="48px" height="48px" viewBox="0 0 48 48" version="1.1" xmlns="http://www.w3.org/2000/svg" xmlns:xlink="http://www.w3.org/1999/xlink">
    <title>Secure Authentication</title>
    <g id="Home" stroke="none" stroke-width="1" fill="none" fill-rule="evenodd">
        <g id="Home-Desktop" transform="translate(-1336.000000, -5396.000000)">
            <g id="scale-knowledge" transform="translate(0.000000, 5030.000000)">
                <g id="Secure-Authentication" transform="translate(1180.000000, 332.000000)">
                    <g id="secure-authentication" transform="translate(40.000000, 34.000000)">
                        <g id="Secure-Authentication" transform="translate(116.000000, 0.000000)">
                            <rect id="BG" stroke="#FFFFFF" x="0.5" y="0.5" width="47" height="47" rx="3.75959984"></rect>
                            <path d="M32.5656118,13.9568 C32.4482545,13.9568 32.3308971,13.928 32.2282095,13.8704 C29.4116332,12.4448 26.9764684,11.84 24.0572045,11.84 C21.1526103,11.84 18.3947127,12.5168 15.8861995,13.8704 C15.5341275,14.0576 15.0940375,13.928 14.8886621,13.5824 C14.6979564,13.2368 14.8299835,12.7904 15.1820555,12.6032 C17.9106137,11.1488 20.9032259,10.4 24.0572045,10.4 C27.1818437,10.4 29.910402,11.0768 32.9030142,12.5888 C33.2697559,12.776 33.4017829,13.208 33.2110772,13.5536 C33.0790502,13.8128 32.8296658,13.9568 32.5656118,13.9568 L32.5656118,13.9568 Z M11.5733172,21.5168 C11.4266205,21.5168 11.2799238,21.4736 11.1478968,21.3872 C10.8104945,21.1568 10.7371461,20.7104 10.9718608,20.3792 C12.4241579,18.3632 14.2725361,16.7792 16.4729862,15.6704 C21.0792619,13.3376 26.9764684,13.3232 31.5974138,15.656 C33.7978639,16.7648 35.6462421,18.3344 37.0985392,20.336 C37.3332539,20.6528 37.2599055,21.1136 36.9225032,21.344 C36.5851008,21.5744 36.1303411,21.5024 35.8956264,21.1712 C34.5753563,19.3568 32.9030142,17.9312 30.922609,16.9376 C26.7124144,14.8208 21.3286463,14.8208 17.1331213,16.952 C15.1380465,17.96 13.4657043,19.4 12.1454342,21.2144 C12.0280769,21.416 11.8080319,21.5168 11.5733172,21.5168 L11.5733172,21.5168 Z M20.7418596,38.8976 C20.5511539,38.8976 20.3604482,38.8256 20.2284212,38.6816 C18.9521601,37.4288 18.2626857,36.6224 17.279818,34.88 C16.2676109,33.1088 15.7395029,30.9488 15.7395029,28.6304 C15.7395029,24.3536 19.4655985,20.8688 24.0425348,20.8688 C28.6194712,20.8688 32.3455668,24.3536 32.3455668,28.6304 C32.3455668,29.0336 32.0228341,29.3504 31.6120834,29.3504 C31.2013327,29.3504 30.8786,29.0336 30.8786,28.6304 C30.8786,25.1456 27.8126395,22.3088 24.0425348,22.3088 C20.2724302,22.3088 17.2064696,25.1456 17.2064696,28.6304 C17.2064696,30.704 17.675899,32.6192 18.5707487,34.1744 C19.5096075,35.8304 20.1550729,36.536 21.2846373,37.6592 C21.563361,37.9472 21.563361,38.3936 21.2846373,38.6816 C21.1232709,38.8256 20.9325653,38.8976 20.7418596,38.8976 L20.7418596,38.8976 Z M31.2600114,36.2336 C29.5143209,36.2336 27.9740058,35.8016 26.7124144,34.952 C24.5266339,33.4976 23.2210334,31.136 23.2210334,28.6304 C23.2210334,28.2272 23.5437661,27.9104 23.9545168,27.9104 C24.3652675,27.9104 24.6880002,28.2272 24.6880002,28.6304 C24.6880002,30.6608 25.7442163,32.576 27.5339158,33.7568 C28.5754622,34.448 29.7930446,34.7792 31.2600114,34.7792 C31.6120834,34.7792 32.1988701,34.736 32.7856568,34.6352 C33.1817379,34.5632 33.5631492,34.8224 33.6364976,35.2256 C33.7098459,35.6144 33.4457919,35.9888 33.0350412,36.0608 C32.1988701,36.2192 31.4653867,36.2336 31.2600114,36.2336 L31.2600114,36.2336 Z M28.3114082,39.2 C28.2527295,39.2 28.1793812,39.1856 28.1207025,39.1712 C25.7882253,38.5376 24.2625799,37.688 22.6635861,36.1472 C20.6098326,34.1456 19.4802681,31.4816 19.4802681,28.6304 C19.4802681,26.2976 21.5046823,24.3968 23.9985258,24.3968 C26.4923694,24.3968 28.5167835,26.2976 28.5167835,28.6304 C28.5167835,30.1712 29.8810626,31.424 31.5680744,31.424 C33.2550862,31.424 34.6193653,30.1712 34.6193653,28.6304 C34.6193653,23.2016 29.8517233,18.7952 23.9838562,18.7952 C19.8176705,18.7952 16.0035569,21.0704 14.2872057,24.5984 C13.7150887,25.7648 13.4216953,27.1328 13.4216953,28.6304 C13.4216953,29.7536 13.524383,31.5248 14.4045631,33.8288 C14.5512598,34.2032 14.3605541,34.6208 13.9791427,34.7504 C13.5977314,34.8944 13.172311,34.6928 13.040284,34.3328 C12.3214703,32.4464 11.9693982,30.5744 11.9693982,28.6304 C11.9693982,26.9024 12.3068006,25.3328 12.9669356,23.9648 C14.9180015,19.9472 19.2455535,17.3408 23.9838562,17.3408 C30.658555,17.3408 36.0863321,22.3952 36.0863321,28.616 C36.0863321,30.9488 34.0619179,32.8496 31.5680744,32.8496 C29.0742309,32.8496 27.0498167,30.9488 27.0498167,28.616 C27.0498167,27.0752 25.6855376,25.8224 23.9985258,25.8224 C22.311514,25.8224 20.9472349,27.0752 20.9472349,28.616 C20.9472349,31.0784 21.915433,33.3824 23.6904628,35.1104 C25.0840812,36.464 26.419021,37.2128 28.4874442,37.7744 C28.8835252,37.8752 29.1035702,38.2784 29.0008826,38.6528 C28.9275342,38.984 28.6194712,39.2 28.3114082,39.2 L28.3114082,39.2 Z" id="Icon" stroke="#261C5E" stroke-width="0.3" fill="#FFFFFF"></path>
                        </g>
                    </g>
                </g>
            </g>
        </g>
    </g>
</svg>