<?xml version="1.0" encoding="UTF-8"?>
<svg width="37px" height="41px" viewBox="0 0 37 41" version="1.1" xmlns="http://www.w3.org/2000/svg" xmlns:xlink="http://www.w3.org/1999/xlink">
    <title>Defence &amp; Security</title>
    <g id="Home" stroke="none" stroke-width="1" fill="none" fill-rule="evenodd">
        <g id="Home-Desktop" transform="translate(-742.000000, -4835.000000)" stroke="#FFFFFF">
            <g id="empower-organisation" transform="translate(0.000000, 3738.000000)">
                <g id="icon-block" transform="translate(478.000000, 1077.000000)">
                    <g id="defence-&amp;-security" transform="translate(218.000000, 0.000000)">
                        <g id="icon" transform="translate(46.400000, 20.000000)">
                            <polyline id="Path" points="28.3626615 16.721241 32.8852838 19.5509805 17.3852838 28.4773597 1.8852838 19.5509805 6.18431276 16.8293705"></polyline>
                            <polyline id="Path" points="28.9035845 12.128252 33.0689573 14.6530214 17.0689573 23.5794005 1.06895727 14.6530214 5.24297529 12.0931299"></polyline>
                            <path d="M17.0779404,0.575004855 L33.305403,9.73684362 L17.1773358,18.1179596 L1.04436414,9.73429498 L17.0779404,0.575004855 Z" id="Rectangle"></path>
                            <path d="M0.420918367,9.75506218 L0.409021475,10.2395902 C0.15210065,20.7032747 4.92688436,30.6559198 13.2491314,37.0037466 L17.1773358,40 L17.1773358,40 L21.6284501,36.8515095 C30.3196659,30.7037882 35.0152136,20.3431521 33.9088409,9.75506218 L33.9088409,9.75506218 L33.9088409,9.75506218" id="Path-69"></path>
                        </g>
                    </g>
                </g>
            </g>
        </g>
    </g>
</svg>